<svg width="92" height="69" viewBox="0 0 92 69" fill="none" xmlns="http://www.w3.org/2000/svg">
<g clip-path="url(#clip0_719_8067)">
<path d="M22.3539 9.86395H1.03589V67.236H81.7119V58.272" fill="white"/>
<path d="M22.3539 9.86395H1.03589V67.236H81.7119V58.272" stroke="#333333" stroke-width="1.8" stroke-miterlimit="10"/>
<path opacity="0.1" d="M78.4059 13.17H4.34192V63.93H78.4059V13.17Z" fill="#397AF6"/>
<path d="M31.06 0.900024H90.3759V58.272H9.69995V22.08L31.06 0.900024Z" fill="white" stroke="#333333" stroke-width="1.8" stroke-miterlimit="10"/>
<path d="M31.09 0.900024V22.08H9.69995L31.09 0.900024Z" fill="white" stroke="#333333" stroke-width="1.8" stroke-linejoin="round"/>
<path d="M43.54 19.05C42.6742 19.0548 41.8264 18.8025 41.104 18.3251C40.3817 17.8476 39.8174 17.1665 39.4825 16.3681C39.1475 15.5696 39.0571 14.6896 39.2227 13.8397C39.3882 12.9898 39.8023 12.2082 40.4125 11.5938C41.0226 10.9795 41.8014 10.5601 42.6501 10.3887C43.4988 10.2173 44.3794 10.3016 45.1801 10.631C45.9809 10.9604 46.6658 11.5201 47.1482 12.2391C47.6306 12.9581 47.8888 13.8041 47.89 14.67C47.8924 15.2433 47.7817 15.8116 47.5643 16.3421C47.3469 16.8726 47.027 17.3551 46.623 17.7619C46.219 18.1687 45.7387 18.4918 45.2097 18.7128C44.6807 18.9339 44.1133 19.0485 43.54 19.05ZM43.54 12.144C43.0363 12.1381 42.5422 12.2822 42.1206 12.558C41.6991 12.8338 41.3691 13.2288 41.1727 13.6927C40.9764 14.1566 40.9226 14.6683 41.0181 15.1629C41.1135 15.6575 41.354 16.1127 41.7089 16.4702C42.0639 16.8276 42.5172 17.0713 43.0111 17.1703C43.505 17.2694 44.0173 17.2192 44.4826 17.0262C44.9479 16.8332 45.3452 16.5059 45.624 16.0864C45.9027 15.6668 46.0503 15.1737 46.048 14.67C46.0503 14.3391 45.9873 14.0112 45.8623 13.7048C45.7373 13.3985 45.5529 13.1197 45.3198 12.8849C45.0867 12.6501 44.8094 12.4638 44.5039 12.3367C44.1985 12.2095 43.8709 12.144 43.54 12.144Z" fill="#3A3A3A"/>
<path d="M74.02 31.908H40.252C40.0783 31.9076 39.9083 31.858 39.7617 31.7649C39.6151 31.6718 39.4979 31.5391 39.4237 31.382C39.3496 31.2249 39.3216 31.05 39.3429 30.8776C39.3641 30.7053 39.4339 30.5423 39.544 30.408L50.74 16.8301C50.8893 16.6484 51.1026 16.531 51.3359 16.502C51.5692 16.4729 51.8047 16.5345 51.994 16.6741L56.614 20.076L66.256 11.6221C66.3478 11.5404 66.4552 11.478 66.5717 11.4389C66.6882 11.3997 66.8115 11.3844 66.934 11.394C67.1697 11.4207 67.3853 11.5393 67.534 11.7241L74.68 20.25C74.82 20.4186 74.8965 20.6309 74.896 20.85V31.02C74.8968 31.1408 74.8736 31.2606 74.8277 31.3723C74.7819 31.4841 74.7143 31.5856 74.6289 31.671C74.5435 31.7564 74.442 31.8239 74.3302 31.8698C74.2185 31.9156 74.0988 31.9388 73.978 31.938L74.02 31.908ZM42.22 30.0721H73.12V21.1561L66.796 13.6021L57.304 21.9241C57.1469 22.0635 56.9465 22.1444 56.7366 22.1532C56.5267 22.1619 56.3202 22.098 56.152 21.9721L51.64 18.6481L42.22 30.0721Z" fill="#3A3A3A"/>
<path d="M80.182 39H36.664C36.0609 39 35.572 39.4889 35.572 40.092V49.878C35.572 50.4811 36.0609 50.97 36.664 50.97H80.182C80.7851 50.97 81.274 50.4811 81.274 49.878V40.092C81.274 39.4889 80.7851 39 80.182 39Z" fill="url(#paint0_linear_719_8067)" stroke="#333333" stroke-width="1.8" stroke-miterlimit="10"/>
<path d="M48.8077 47.7504C48.8077 47.6277 48.8434 47.5256 48.915 47.4438C48.9891 47.3621 49.0989 47.3212 49.2445 47.3212C49.3901 47.3212 49.5 47.3621 49.5741 47.4438C49.6507 47.5256 49.689 47.6277 49.689 47.7504C49.689 47.8679 49.6507 47.9662 49.5741 48.0454C49.5 48.1246 49.3901 48.1642 49.2445 48.1642C49.0989 48.1642 48.9891 48.1246 48.915 48.0454C48.8434 47.9662 48.8077 47.8679 48.8077 47.7504ZM53.3103 42.5426H54.0499V46.4935C54.0499 47.0274 53.8889 47.4451 53.5671 47.7465C53.2477 48.048 52.8211 48.1987 52.2872 48.1987C51.7328 48.1987 51.301 48.0569 50.9919 47.7734C50.6828 47.4898 50.5283 47.0925 50.5283 46.5816H51.264C51.264 46.9009 51.3509 47.15 51.5246 47.3288C51.7009 47.5077 51.955 47.5971 52.2872 47.5971C52.5912 47.5971 52.8364 47.5013 53.0229 47.3097C53.212 47.1181 53.3078 46.8498 53.3103 46.505V42.5426ZM56.0387 45.9378V48.1221H55.303V42.5426H57.3608C57.9713 42.5426 58.4491 42.6985 58.7939 43.0101C59.1414 43.3218 59.3151 43.7344 59.3151 44.2479C59.3151 44.7895 59.1452 45.2072 58.8054 45.501C58.4682 45.7922 57.9841 45.9378 57.3531 45.9378H56.0387ZM56.0387 45.3362H57.3608C57.7542 45.3362 58.0556 45.2442 58.2651 45.0603C58.4746 44.8738 58.5794 44.6055 58.5794 44.2556C58.5794 43.9234 58.4746 43.6578 58.2651 43.4585C58.0556 43.2592 57.7682 43.1558 57.4029 43.1481H56.0387V45.3362ZM64.3734 47.3902C64.1843 47.6609 63.9199 47.864 63.5802 47.9994C63.2429 48.1323 62.8495 48.1987 62.3999 48.1987C61.9452 48.1987 61.5415 48.0927 61.189 47.8807C60.8364 47.6661 60.5631 47.3621 60.3689 46.9686C60.1773 46.5752 60.079 46.1192 60.0738 45.6006V45.1139C60.0738 44.2734 60.2693 43.622 60.6601 43.1596C61.0536 42.6972 61.6054 42.466 62.3156 42.466C62.8981 42.466 63.3668 42.6154 63.7219 42.9143C64.077 43.2107 64.2942 43.6322 64.3734 44.1789H63.6376C63.4997 43.4406 63.0603 43.0715 62.3194 43.0715C61.8264 43.0715 61.4521 43.2452 61.1966 43.5926C60.9437 43.9375 60.816 44.4382 60.8134 45.0948V45.5508C60.8134 46.1767 60.9565 46.6748 61.2426 47.0453C61.5287 47.4131 61.9158 47.5971 62.4037 47.5971C62.6796 47.5971 62.921 47.5664 63.128 47.5051C63.3349 47.4438 63.5061 47.3403 63.6415 47.1947V45.9416H62.3501V45.3438H64.3734V47.3902Z" fill="white"/>
</g>
<defs>
<linearGradient id="paint0_linear_719_8067" x1="35.572" y1="44.988" x2="81.274" y2="44.988" gradientUnits="userSpaceOnUse">
<stop stop-color="#3B94E2"/>
<stop offset="0.3125" stop-color="#2BB1FF"/>
</linearGradient>
<clipPath id="clip0_719_8067">
<rect width="91.14" height="68.136" fill="white" transform="translate(0.135986)"/>
</clipPath>
</defs>
</svg>
