<svg width="35" height="35" viewBox="0 0 35 35" fill="none" xmlns="http://www.w3.org/2000/svg">
<g clip-path="url(#clip0_755_23398)">
<path d="M30.7 34.5131H4.2979C2.71586 34.3346 1.65534 33.4309 0.961722 32.0151C0.787007 31.6582 0.760796 31.2728 0.685669 30.8954V13.116C0.787364 13.0286 0.918211 12.9848 1.05082 12.9938C1.1705 12.9938 1.29105 12.9938 1.4116 12.9938C12.1362 12.9938 22.8611 12.9938 33.5863 12.9938C33.8317 12.9938 34.0938 12.9313 34.3122 13.1169V30.8249C34.148 32.4308 33.2552 33.5014 31.8915 34.2151C31.5141 34.4167 31.1036 34.4426 30.7 34.5131Z" fill="#F9F9F9"/>
<path d="M34.3166 13.116C34.1742 13.116 34.0327 13.116 33.8903 13.116H1.11197C0.969582 13.116 0.827188 13.116 0.685669 13.116V8.21994C0.731095 7.13777 1.19845 6.25722 1.95934 5.53638C2.72874 4.79278 3.74446 4.37289 4.80371 4.36054C5.1741 4.35162 5.5445 4.35519 5.91489 4.36054C6.05467 4.36054 6.2023 4.34982 6.30975 4.4765C6.39711 4.63084 6.37702 4.80124 6.37789 4.96718C6.37789 5.69249 6.36828 6.41781 6.384 7.14312C6.39711 7.76762 6.60939 8.27701 7.21915 8.53395C7.38068 8.60337 7.55406 8.63947 7.72931 8.64013C8.17746 8.64013 8.6256 8.65084 9.07287 8.64013C9.81803 8.61872 10.3483 8.07629 10.3579 7.31887C10.3684 6.51594 10.3579 5.71302 10.3579 4.91009C10.3579 4.73613 10.3343 4.54699 10.4942 4.41495C10.6462 4.33198 10.8122 4.34179 10.9755 4.34179C15.3172 4.34179 19.6586 4.34179 23.9997 4.34179C24.163 4.34179 24.329 4.332 24.4827 4.40694C24.6531 4.53094 24.6287 4.72007 24.6304 4.89493C24.6365 5.67555 24.6304 6.45707 24.6304 7.23858C24.6356 8.10039 25.1545 8.633 26.0002 8.6446C26.3723 8.64995 26.7436 8.6446 27.1148 8.6446C28.0539 8.63657 28.5746 8.12625 28.6052 7.15917C28.6261 6.47936 28.6052 5.79778 28.6121 5.11708C28.6121 4.90742 28.5807 4.69153 28.6733 4.49258C28.7068 4.4479 28.7513 4.41299 28.8022 4.39138C28.8531 4.36978 28.9087 4.36221 28.9633 4.36945C29.5949 4.3748 30.23 4.307 30.8581 4.43458C32.455 4.75842 33.5356 5.7139 34.1454 7.24392C34.2703 7.55795 34.2327 7.89964 34.3044 8.22527L34.3166 13.116Z" fill="#2195F2"/>
<path d="M24.5133 4.44617C24.5133 3.63253 24.5464 2.81711 24.501 2.00705C24.4521 1.12294 24.7552 0.50022 25.5773 0.171021H27.6127C28.4129 0.366399 28.7929 0.813368 28.8296 1.67339C28.8636 2.48881 28.8401 3.30511 28.8375 4.12141C28.8425 4.18293 28.8357 4.24488 28.8172 4.30368C28.7988 4.36247 28.7691 4.41695 28.73 4.464C28.73 5.36685 28.73 6.27057 28.73 7.17431C28.7256 7.96029 28.3648 8.53839 27.6573 8.69095C26.9497 8.8435 26.2263 8.81228 25.5144 8.69095C25.0173 8.60976 24.4897 7.9032 24.515 7.32153C24.5552 6.36605 24.5176 5.40521 24.5133 4.44617Z" fill="#1976D1"/>
<path d="M9.41946 0.171059C9.60093 0.260819 9.77607 0.363382 9.94361 0.477971C10.1157 0.607611 10.2543 0.777945 10.3478 0.974354C10.4412 1.17076 10.4866 1.38737 10.48 1.60563C10.48 2.55248 10.48 3.49935 10.48 4.4462C10.4765 5.42756 10.4724 6.40891 10.4678 7.39026C10.458 7.7493 10.314 8.09089 10.0652 8.34478C9.81646 8.59867 9.48187 8.74556 9.1303 8.75524C8.69351 8.76059 8.25672 8.75524 7.81994 8.75524C6.87036 8.75524 6.27284 8.15035 6.26672 7.17346C6.26148 6.26972 6.26672 5.36599 6.26672 4.46315C6.15927 4.34628 6.1584 4.1955 6.1584 4.05365C6.1584 3.29265 6.15054 2.53257 6.1584 1.77247C6.15542 1.4012 6.25733 1.03693 6.45192 0.72331C6.67381 0.375375 7.00315 0.2344 7.38141 0.170166L9.41946 0.171059Z" fill="#1976D1"/>
<path d="M17.5234 24.5139C18.093 24.5139 18.659 24.5139 19.2312 24.5139C19.8427 24.5139 20.3014 24.9439 20.311 25.5737C20.3302 26.7692 20.3302 27.9653 20.311 29.1619C20.3014 29.7802 19.8244 30.2164 19.2164 30.2182C18.0895 30.2182 16.9623 30.2182 15.8348 30.2182C15.1508 30.2182 14.6991 29.7864 14.6851 29.0781C14.6694 27.9153 14.6694 26.7529 14.6851 25.5907C14.6939 24.9448 15.1507 24.5201 15.7823 24.513H17.5225L17.5234 24.5139Z" fill="#8FC9F8"/>
<path d="M17.5079 15.92C18.0766 15.92 18.6436 15.9137 19.214 15.92C19.85 15.928 20.2955 16.358 20.3034 17.0066C20.3173 18.1795 20.3173 19.3523 20.3034 20.5252C20.2946 21.1934 19.8439 21.6305 19.1948 21.6323C18.0679 21.6371 16.9413 21.6371 15.8149 21.6323C15.1763 21.6323 14.7081 21.2112 14.6968 20.5707C14.6758 19.3645 14.6758 18.1583 14.6968 16.9522C14.7081 16.3375 15.1589 15.9289 15.7678 15.9208C16.3487 15.9137 16.9322 15.92 17.5079 15.92Z" fill="#2195F2"/>
<path d="M7.67971 15.9191C8.2484 15.9191 8.81536 15.9191 9.3858 15.9191C10.0541 15.9262 10.4786 16.3473 10.483 17.0209C10.49 18.1931 10.49 19.3657 10.483 20.5386C10.4786 21.1889 10.0462 21.6288 9.40589 21.6314C8.25801 21.638 7.10985 21.638 5.96139 21.6314C5.33766 21.6314 4.89388 21.1675 4.89126 20.5243C4.88602 19.3508 4.88602 18.1783 4.89126 17.0066C4.89126 16.3741 5.32805 15.936 5.93955 15.9191H7.67797H7.67971Z" fill="#2195F2"/>
<path d="M27.3187 15.919C27.8874 15.919 28.4544 15.919 29.0239 15.919C29.6765 15.9271 30.1054 16.3714 30.1081 17.0414C30.1121 18.1916 30.1121 19.3419 30.1081 20.4921C30.1081 21.18 29.6713 21.6287 29.0021 21.6314C27.8758 21.6362 26.7494 21.6362 25.6231 21.6314C24.9505 21.6314 24.5172 21.1907 24.5146 20.502C24.5093 19.3404 24.5093 18.1788 24.5146 17.0173C24.5146 16.3526 24.933 15.9342 25.5786 15.9182H27.3178L27.3187 15.919Z" fill="#2195F2"/>
<path d="M7.71203 24.505C8.27024 24.505 8.82759 24.5006 9.3858 24.505C10.0541 24.5113 10.4786 24.9324 10.483 25.6059C10.49 26.7782 10.49 27.9508 10.483 29.1237C10.4786 29.774 10.0462 30.2139 9.40677 30.2174C8.25831 30.2228 7.11014 30.2228 5.96226 30.2174C5.33766 30.2174 4.89388 29.7526 4.89126 29.1103C4.88602 27.9374 4.88602 26.7648 4.89126 25.5926C4.89126 24.96 5.32805 24.522 5.93955 24.505H7.71029H7.71203Z" fill="#2195F2"/>
</g>
<defs>
<clipPath id="clip0_755_23398">
<rect width="33.6265" height="34.342" fill="white" transform="translate(0.685547 0.171021)"/>
</clipPath>
</defs>
</svg>
