<svg width="1098" height="130" viewBox="0 0 1098 130" fill="none" xmlns="http://www.w3.org/2000/svg">
<rect x="1098" y="130" width="1098" height="130" rx="20" transform="rotate(-180 1098 130)" fill="url(#paint0_linear_26_89)" fill-opacity="0.1"/>
<path d="M309.194 114H311.62C314.328 114 315.917 112.375 315.917 109.432C315.917 106.477 314.328 104.938 311.546 104.938H309.194V114ZM310.622 112.83V106.096H311.447C313.393 106.096 314.439 107.167 314.439 109.432C314.439 111.685 313.393 112.83 311.447 112.83H310.622ZM320.389 114.16C322.063 114.16 323.577 112.867 323.577 110.627C323.577 108.361 322.063 107.056 320.389 107.056C318.714 107.056 317.2 108.361 317.2 110.627C317.2 112.867 318.714 114.16 320.389 114.16ZM320.389 113.003C319.33 113.003 318.665 112.055 318.665 110.627C318.665 109.186 319.33 108.226 320.389 108.226C321.46 108.226 322.125 109.186 322.125 110.627C322.125 112.055 321.46 113.003 320.389 113.003ZM328.001 114.16C328.776 114.16 329.576 113.877 330.192 113.323L329.613 112.387C329.207 112.732 328.702 113.003 328.136 113.003C327.003 113.003 326.228 112.055 326.228 110.627C326.228 109.186 327.04 108.226 328.173 108.226C328.641 108.226 329.022 108.423 329.392 108.755L330.094 107.832C329.601 107.401 328.973 107.056 328.111 107.056C326.326 107.056 324.762 108.361 324.762 110.627C324.762 112.867 326.166 114.16 328.001 114.16ZM333.585 114.16C334.521 114.16 335.186 113.692 335.801 112.978H335.838L335.949 114H337.107V107.228H335.691V111.932C335.124 112.646 334.693 112.941 334.065 112.941C333.265 112.941 332.933 112.486 332.933 111.316V107.228H331.517V111.488C331.517 113.212 332.145 114.16 333.585 114.16ZM339.238 114H340.642V109.198C341.208 108.583 341.713 108.275 342.168 108.275C342.944 108.275 343.301 108.743 343.301 109.912V114H344.717V109.198C345.283 108.583 345.776 108.275 346.243 108.275C347.007 108.275 347.376 108.743 347.376 109.912V114H348.792V109.74C348.792 108.016 348.127 107.056 346.711 107.056C345.862 107.056 345.172 107.585 344.507 108.3C344.212 107.524 343.646 107.056 342.636 107.056C341.799 107.056 341.122 107.561 340.543 108.176H340.506L340.395 107.228H339.238V114ZM353.66 114.16C354.546 114.16 355.322 113.865 355.95 113.446L355.458 112.547C354.965 112.867 354.448 113.052 353.845 113.052C352.675 113.052 351.862 112.276 351.752 110.984H356.147C356.184 110.824 356.209 110.54 356.209 110.269C356.209 108.349 355.248 107.056 353.451 107.056C351.862 107.056 350.36 108.423 350.36 110.627C350.36 112.855 351.826 114.16 353.66 114.16ZM351.739 110.011C351.875 108.817 352.626 108.164 353.475 108.164C354.46 108.164 354.99 108.841 354.99 110.011H351.739ZM357.802 114H359.206V109.198C359.809 108.595 360.24 108.275 360.868 108.275C361.668 108.275 362.013 108.743 362.013 109.912V114H363.429V109.74C363.429 108.016 362.788 107.056 361.348 107.056C360.425 107.056 359.735 107.561 359.107 108.164H359.07L358.959 107.228H357.802V114ZM367.763 114.16C368.255 114.16 368.711 114.037 369.093 113.914L368.834 112.867C368.637 112.953 368.341 113.027 368.108 113.027C367.406 113.027 367.123 112.609 367.123 111.796V108.361H368.883V107.228H367.123V105.357H365.928L365.768 107.228L364.722 107.302V108.361H365.707V111.784C365.707 113.212 366.236 114.16 367.763 114.16Z" fill="black"/>
<path d="M436.194 114H437.622V110.565H438.989C440.959 110.565 442.4 109.654 442.4 107.672C442.4 105.628 440.959 104.938 438.94 104.938H436.194V114ZM437.622 109.42V106.083H438.804C440.245 106.083 440.996 106.477 440.996 107.672C440.996 108.866 440.306 109.42 438.854 109.42H437.622ZM444.043 114H445.446V109.777C445.877 108.706 446.542 108.324 447.096 108.324C447.367 108.324 447.539 108.361 447.773 108.435L448.032 107.204C447.822 107.105 447.601 107.056 447.268 107.056C446.542 107.056 445.828 107.573 445.348 108.447H445.311L445.2 107.228H444.043V114ZM451.768 114.16C452.654 114.16 453.43 113.865 454.058 113.446L453.565 112.547C453.073 112.867 452.556 113.052 451.952 113.052C450.783 113.052 449.97 112.276 449.859 110.984H454.255C454.292 110.824 454.316 110.54 454.316 110.269C454.316 108.349 453.356 107.056 451.558 107.056C449.97 107.056 448.468 108.423 448.468 110.627C448.468 112.855 449.933 114.16 451.768 114.16ZM449.847 110.011C449.982 108.817 450.733 108.164 451.583 108.164C452.568 108.164 453.097 108.841 453.097 110.011H449.847ZM457.744 114.16C459.419 114.16 460.318 113.237 460.318 112.104C460.318 110.824 459.271 110.405 458.323 110.048C457.584 109.777 456.882 109.555 456.882 108.977C456.882 108.509 457.227 108.139 457.966 108.139C458.532 108.139 459.012 108.386 459.48 108.73L460.145 107.856C459.591 107.425 458.852 107.056 457.941 107.056C456.452 107.056 455.54 107.906 455.54 109.038C455.54 110.183 456.575 110.663 457.473 111.008C458.212 111.291 458.976 111.562 458.976 112.178C458.976 112.695 458.594 113.089 457.781 113.089C457.055 113.089 456.464 112.793 455.861 112.313L455.196 113.224C455.848 113.766 456.809 114.16 457.744 114.16ZM464.645 114.16C465.531 114.16 466.307 113.865 466.935 113.446L466.442 112.547C465.95 112.867 465.433 113.052 464.829 113.052C463.66 113.052 462.847 112.276 462.736 110.984H467.132C467.169 110.824 467.193 110.54 467.193 110.269C467.193 108.349 466.233 107.056 464.435 107.056C462.847 107.056 461.345 108.423 461.345 110.627C461.345 112.855 462.81 114.16 464.645 114.16ZM462.724 110.011C462.86 108.817 463.611 108.164 464.46 108.164C465.445 108.164 465.974 108.841 465.974 110.011H462.724ZM468.787 114H470.19V109.198C470.794 108.595 471.225 108.275 471.853 108.275C472.653 108.275 472.998 108.743 472.998 109.912V114H474.413V109.74C474.413 108.016 473.773 107.056 472.333 107.056C471.409 107.056 470.72 107.561 470.092 108.164H470.055L469.944 107.228H468.787V114ZM478.748 114.16C479.24 114.16 479.696 114.037 480.077 113.914L479.819 112.867C479.622 112.953 479.326 113.027 479.092 113.027C478.391 113.027 478.107 112.609 478.107 111.796V108.361H479.868V107.228H478.107V105.357H476.913L476.753 107.228L475.707 107.302V108.361H476.692V111.784C476.692 113.212 477.221 114.16 478.748 114.16ZM482.651 114.16C483.464 114.16 484.19 113.754 484.806 113.224H484.843L484.966 114H486.123V109.925C486.123 108.127 485.348 107.056 483.661 107.056C482.578 107.056 481.629 107.499 480.928 107.942L481.457 108.903C482.036 108.533 482.701 108.213 483.415 108.213C484.412 108.213 484.695 108.903 484.707 109.691C481.888 109.999 480.657 110.75 480.657 112.202C480.657 113.397 481.482 114.16 482.651 114.16ZM483.082 113.04C482.479 113.04 482.023 112.769 482.023 112.104C482.023 111.341 482.701 110.836 484.707 110.59V112.252C484.153 112.756 483.673 113.04 483.082 113.04ZM490.206 114.16C490.698 114.16 491.154 114.037 491.536 113.914L491.277 112.867C491.08 112.953 490.785 113.027 490.551 113.027C489.849 113.027 489.566 112.609 489.566 111.796V108.361H491.326V107.228H489.566V105.357H488.371L488.211 107.228L487.165 107.302V108.361H488.15V111.784C488.15 113.212 488.679 114.16 490.206 114.16ZM492.81 114H494.213V107.228H492.81V114ZM493.512 105.96C494.029 105.96 494.423 105.616 494.423 105.123C494.423 104.618 494.029 104.286 493.512 104.286C492.994 104.286 492.613 104.618 492.613 105.123C492.613 105.616 492.994 105.96 493.512 105.96ZM499.053 114.16C500.728 114.16 502.242 112.867 502.242 110.627C502.242 108.361 500.728 107.056 499.053 107.056C497.379 107.056 495.864 108.361 495.864 110.627C495.864 112.867 497.379 114.16 499.053 114.16ZM499.053 113.003C497.994 113.003 497.33 112.055 497.33 110.627C497.33 109.186 497.994 108.226 499.053 108.226C500.124 108.226 500.789 109.186 500.789 110.627C500.789 112.055 500.124 113.003 499.053 113.003ZM503.907 114H505.311V109.198C505.914 108.595 506.345 108.275 506.973 108.275C507.773 108.275 508.118 108.743 508.118 109.912V114H509.534V109.74C509.534 108.016 508.894 107.056 507.453 107.056C506.53 107.056 505.84 107.561 505.212 108.164H505.176L505.065 107.228H503.907V114Z" fill="black"/>
<path d="M600.194 114H601.622V104.938H600.194V114ZM603.871 114H605.274V109.198C605.84 108.583 606.345 108.275 606.801 108.275C607.576 108.275 607.934 108.743 607.934 109.912V114H609.349V109.198C609.916 108.583 610.408 108.275 610.876 108.275C611.639 108.275 612.009 108.743 612.009 109.912V114H613.425V109.74C613.425 108.016 612.76 107.056 611.344 107.056C610.494 107.056 609.805 107.585 609.14 108.3C608.845 107.524 608.278 107.056 607.269 107.056C606.431 107.056 605.754 107.561 605.176 108.176H605.139L605.028 107.228H603.871V114ZM617.074 114.16C617.886 114.16 618.613 113.754 619.228 113.224H619.265L619.388 114H620.546V109.925C620.546 108.127 619.77 107.056 618.083 107.056C617 107.056 616.052 107.499 615.35 107.942L615.879 108.903C616.458 108.533 617.123 108.213 617.837 108.213C618.834 108.213 619.118 108.903 619.13 109.691C616.31 109.999 615.079 110.75 615.079 112.202C615.079 113.397 615.904 114.16 617.074 114.16ZM617.505 113.04C616.901 113.04 616.446 112.769 616.446 112.104C616.446 111.341 617.123 110.836 619.13 110.59V112.252C618.576 112.756 618.096 113.04 617.505 113.04ZM624.87 117.041C627.037 117.041 628.415 115.982 628.415 114.677C628.415 113.52 627.578 113.027 625.978 113.027H624.734C623.872 113.027 623.601 112.769 623.601 112.363C623.601 112.042 623.749 111.845 623.971 111.648C624.266 111.784 624.611 111.858 624.919 111.858C626.335 111.858 627.455 111.008 627.455 109.531C627.455 109.014 627.27 108.558 627.012 108.287H628.305V107.228H625.904C625.645 107.13 625.301 107.056 624.919 107.056C623.515 107.056 622.296 107.955 622.296 109.494C622.296 110.294 622.727 110.934 623.183 111.291V111.341C622.814 111.611 622.432 112.067 622.432 112.596C622.432 113.15 622.703 113.508 623.047 113.717V113.778C622.42 114.16 622.062 114.689 622.062 115.256C622.062 116.438 623.244 117.041 624.87 117.041ZM624.919 110.947C624.217 110.947 623.638 110.393 623.638 109.494C623.638 108.57 624.205 108.053 624.919 108.053C625.633 108.053 626.199 108.583 626.199 109.494C626.199 110.393 625.621 110.947 624.919 110.947ZM625.079 116.105C623.959 116.105 623.269 115.711 623.269 115.047C623.269 114.702 623.441 114.357 623.848 114.062C624.131 114.123 624.439 114.16 624.759 114.16H625.781C626.606 114.16 627.049 114.332 627.049 114.899C627.049 115.527 626.261 116.105 625.079 116.105ZM632.288 114.16C633.174 114.16 633.95 113.865 634.578 113.446L634.085 112.547C633.593 112.867 633.076 113.052 632.473 113.052C631.303 113.052 630.49 112.276 630.38 110.984H634.775C634.812 110.824 634.836 110.54 634.836 110.269C634.836 108.349 633.876 107.056 632.079 107.056C630.49 107.056 628.988 108.423 628.988 110.627C628.988 112.855 630.453 114.16 632.288 114.16ZM630.367 110.011C630.503 108.817 631.254 108.164 632.103 108.164C633.088 108.164 633.618 108.841 633.618 110.011H630.367Z" fill="black"/>
<path d="M728.728 111.16C729.897 111.16 730.821 110.692 731.547 109.855L730.784 108.956C730.242 109.547 729.602 109.917 728.777 109.917C727.176 109.917 726.167 108.599 726.167 106.445C726.167 104.315 727.25 103.01 728.814 103.01C729.553 103.01 730.119 103.342 730.587 103.822L731.363 102.911C730.809 102.308 729.922 101.766 728.789 101.766C726.499 101.766 724.702 103.539 724.702 106.494C724.702 109.461 726.45 111.16 728.728 111.16ZM734.52 107.294L734.89 106.075C735.185 105.09 735.468 104.093 735.727 103.059H735.776C736.059 104.081 736.33 105.09 736.638 106.075L736.995 107.294H734.52ZM738.103 111H739.618L736.613 101.938H734.964L731.96 111H733.412L734.188 108.414H737.34L738.103 111ZM740.813 111H743.238C745.947 111 747.535 109.375 747.535 106.432C747.535 103.477 745.947 101.938 743.164 101.938H740.813V111ZM742.241 109.83V103.096H743.066C745.011 103.096 746.058 104.167 746.058 106.432C746.058 108.685 745.011 109.83 743.066 109.83H742.241ZM752.187 111H754.612C757.321 111 758.909 109.375 758.909 106.432C758.909 103.477 757.321 101.938 754.538 101.938H752.187V111ZM753.615 109.83V103.096H754.44C756.385 103.096 757.432 104.167 757.432 106.432C757.432 108.685 756.385 109.83 754.44 109.83H753.615ZM760.673 111H762.076V106.777C762.507 105.706 763.172 105.324 763.726 105.324C763.997 105.324 764.169 105.361 764.403 105.435L764.662 104.204C764.452 104.105 764.231 104.056 763.898 104.056C763.172 104.056 762.458 104.573 761.978 105.447H761.941L761.83 104.228H760.673V111ZM766.962 111.16C767.775 111.16 768.501 110.754 769.117 110.224H769.154L769.277 111H770.434V106.925C770.434 105.127 769.659 104.056 767.972 104.056C766.888 104.056 765.94 104.499 765.239 104.942L765.768 105.903C766.347 105.533 767.011 105.213 767.726 105.213C768.723 105.213 769.006 105.903 769.018 106.691C766.199 106.999 764.968 107.75 764.968 109.202C764.968 110.397 765.793 111.16 766.962 111.16ZM767.393 110.04C766.79 110.04 766.334 109.769 766.334 109.104C766.334 108.341 767.011 107.836 769.018 107.59V109.252C768.464 109.756 767.984 110.04 767.393 110.04ZM773.539 111H775.177L776.002 107.663C776.174 107.023 776.297 106.395 776.433 105.694H776.494C776.642 106.395 776.765 107.011 776.925 107.651L777.787 111H779.486L781.234 104.228H779.905L779.03 107.897C778.883 108.55 778.772 109.178 778.636 109.818H778.587C778.427 109.178 778.292 108.55 778.132 107.897L777.159 104.228H775.842L774.894 107.897C774.734 108.538 774.598 109.178 774.45 109.818H774.401C774.278 109.178 774.167 108.55 774.032 107.897L773.133 104.228H771.705L773.539 111ZM782.639 111H784.043V104.228H782.639V111ZM783.341 102.96C783.858 102.96 784.252 102.616 784.252 102.123C784.252 101.618 783.858 101.286 783.341 101.286C782.824 101.286 782.442 101.618 782.442 102.123C782.442 102.616 782.824 102.96 783.341 102.96ZM786.174 111H787.578V106.198C788.181 105.595 788.612 105.275 789.24 105.275C790.04 105.275 790.385 105.743 790.385 106.912V111H791.801V106.74C791.801 105.016 791.161 104.056 789.72 104.056C788.797 104.056 788.107 104.561 787.479 105.164H787.442L787.332 104.228H786.174V111ZM796.172 114.041C798.339 114.041 799.718 112.982 799.718 111.677C799.718 110.52 798.881 110.027 797.28 110.027H796.036C795.175 110.027 794.904 109.769 794.904 109.363C794.904 109.042 795.051 108.845 795.273 108.648C795.569 108.784 795.913 108.858 796.221 108.858C797.637 108.858 798.757 108.008 798.757 106.531C798.757 106.014 798.573 105.558 798.314 105.287H799.607V104.228H797.206C796.948 104.13 796.603 104.056 796.221 104.056C794.818 104.056 793.599 104.955 793.599 106.494C793.599 107.294 794.03 107.934 794.485 108.291V108.341C794.116 108.611 793.734 109.067 793.734 109.596C793.734 110.15 794.005 110.508 794.35 110.717V110.778C793.722 111.16 793.365 111.689 793.365 112.256C793.365 113.438 794.547 114.041 796.172 114.041ZM796.221 107.947C795.519 107.947 794.941 107.393 794.941 106.494C794.941 105.57 795.507 105.053 796.221 105.053C796.935 105.053 797.502 105.583 797.502 106.494C797.502 107.393 796.923 107.947 796.221 107.947ZM796.381 113.105C795.261 113.105 794.571 112.711 794.571 112.047C794.571 111.702 794.744 111.357 795.15 111.062C795.433 111.123 795.741 111.16 796.061 111.16H797.083C797.908 111.16 798.351 111.332 798.351 111.899C798.351 112.527 797.563 113.105 796.381 113.105Z" fill="black"/>
<g clip-path="url(#clip0_26_89)">
<path d="M353.048 41.3871V26.6233H313.315V82.4954H319.523" fill="white"/>
<path d="M353.048 41.3871V26.6233H313.315V82.4954H319.523" stroke="#333333" stroke-width="1.24659" stroke-miterlimit="10"/>
<path opacity="0.1" d="M350.758 28.9128H315.604V80.2059H350.758V28.9128Z" fill="#397AF6"/>
<path d="M359.256 47.4164V88.4957H319.523V32.6235H344.592L359.256 47.4164Z" fill="white" stroke="#333333" stroke-width="1.24659" stroke-miterlimit="10"/>
<path d="M359.256 47.4372H344.592V32.6235L359.256 47.4372Z" fill="white" stroke="#333333" stroke-width="1.24659" stroke-linejoin="round"/>
<path d="M334.802 40.6516H324.351V43.3983H334.802V40.6516Z" fill="url(#paint1_linear_26_89)"/>
<path d="M341.409 50.2836H324.351V53.0302H341.409V50.2836Z" fill="url(#paint2_linear_26_89)"/>
<path d="M354.428 59.9197H324.351V62.6663H354.428V59.9197Z" fill="url(#paint3_linear_26_89)"/>
<path d="M354.428 69.5559H324.351V72.3026H354.428V69.5559Z" fill="url(#paint4_linear_26_89)"/>
<path d="M354.428 79.1879H324.351V81.9345H354.428V79.1879Z" fill="url(#paint5_linear_26_89)"/>
</g>
<g clip-path="url(#clip1_26_89)">
<path d="M779.048 41.3871V26.6233H739.315V82.4954H745.523" fill="white"/>
<path d="M779.048 41.3871V26.6233H739.315V82.4954H745.523" stroke="#333333" stroke-width="1.24659" stroke-miterlimit="10"/>
<path opacity="0.1" d="M776.757 28.9128H741.604V80.2059H776.757V28.9128Z" fill="#397AF6"/>
<path d="M785.256 47.4164V88.4957H745.523V32.6235H770.592L785.256 47.4164Z" fill="white" stroke="#3A3A3A" stroke-width="1.24659" stroke-miterlimit="10"/>
<path d="M785.255 47.4372H770.591V32.6235L785.255 47.4372Z" fill="white" stroke="#3A3A3A" stroke-width="1.24659" stroke-linejoin="round"/>
<path d="M764.457 41.4633L764.532 41.463C764.762 41.4622 764.983 41.5529 765.147 41.7152C765.31 41.8775 765.402 42.0981 765.403 42.3285L765.409 43.9531L763.593 43.9595L763.587 42.3348C763.587 42.2204 763.609 42.107 763.653 42.0012C763.696 41.8954 763.76 41.7993 763.841 41.7183C763.922 41.6374 764.018 41.5731 764.123 41.5294C764.229 41.4856 764.342 41.4631 764.457 41.4633V41.4633Z" fill="white" stroke="#3A3A3A" stroke-width="1.24659" stroke-linecap="round" stroke-linejoin="round"/>
<path d="M766.901 48.6547L764.549 50.1631L762.193 48.6714L762.176 43.9634L766.884 43.9468L766.901 48.6547Z" fill="white" stroke="#3A3A3A" stroke-width="1.24659" stroke-linecap="round" stroke-linejoin="round"/>
<path d="M757.224 69.3065L762.21 48.6547L758.055 65.92C758.377 66.009 758.713 66.0324 759.045 65.9887C759.376 65.9451 759.695 65.8353 759.983 65.6659C760.271 65.4965 760.522 65.271 760.721 65.0027C760.92 64.7344 761.063 64.4288 761.142 64.104L764.566 50.1464" stroke="#3A3A3A" stroke-width="1.24659" stroke-linecap="round" stroke-linejoin="round"/>
<path d="M772.008 69.2691L766.897 48.6547L771.173 65.8908C770.851 65.9821 770.515 66.0078 770.183 65.9664C769.852 65.925 769.532 65.8174 769.243 65.6499C768.953 65.4824 768.701 65.2586 768.5 64.9916C768.299 64.7246 768.154 64.4199 768.073 64.0957L764.549 50.163" stroke="#3A3A3A" stroke-width="1.24659" stroke-linecap="round" stroke-linejoin="round"/>
<path d="M757.195 60.5347L771.979 60.4849" stroke="#3A3A3A" stroke-width="1.24659" stroke-linecap="round" stroke-linejoin="round"/>
<path d="M764.62 58.7487L764.558 58.7489C764.154 58.7503 763.828 59.0789 763.829 59.4828L763.837 61.5355C763.838 61.9394 764.166 62.2657 764.57 62.2643L764.633 62.264C765.037 62.2626 765.363 61.9341 765.362 61.5302L765.354 59.4775C765.353 59.0736 765.024 58.7473 764.62 58.7487Z" fill="white" stroke="#3A3A3A" stroke-width="1.24659" stroke-linecap="round" stroke-linejoin="round"/>
<path d="M780.597 75.0409H750.459C750.041 75.0409 749.703 75.3795 749.703 75.7972V82.5745C749.703 82.9921 750.041 83.3307 750.459 83.3307H780.597C781.015 83.3307 781.354 82.9921 781.354 82.5745V75.7972C781.354 75.3795 781.015 75.0409 780.597 75.0409Z" fill="url(#paint6_linear_26_89)" stroke="#3A3A3A" stroke-width="1.24659" stroke-miterlimit="10"/>
<path d="M760.003 81.5062V77.6422H761.094C761.43 77.6422 761.727 77.7165 761.985 77.8651C762.244 78.0137 762.443 78.2252 762.583 78.4994C762.724 78.7736 762.796 79.0885 762.797 79.4442V79.691C762.797 80.0554 762.727 80.3748 762.585 80.649C762.445 80.9233 762.245 81.1338 761.983 81.2806C761.723 81.4275 761.419 81.5027 761.072 81.5062H760.003ZM760.512 78.0615V81.0896H761.049C761.441 81.0896 761.747 80.9675 761.964 80.7233C762.184 80.4792 762.293 80.1315 762.293 79.6804V79.4548C762.293 79.016 762.19 78.6754 761.983 78.433C761.778 78.1889 761.486 78.065 761.107 78.0615H760.512ZM764.403 80.2881L764.477 80.7976L764.586 80.3385L765.351 77.6422H765.78L766.526 80.3385L766.632 80.8056L766.715 80.2854L767.314 77.6422H767.827L766.89 81.5062H766.425L765.629 78.6905L765.568 78.3959L765.507 78.6905L764.682 81.5062H764.217L763.283 77.6422H763.793L764.403 80.2881ZM771.247 80.9993C771.116 81.1869 770.933 81.3275 770.698 81.4213C770.465 81.5133 770.192 81.5593 769.881 81.5593C769.566 81.5593 769.286 81.4859 769.042 81.339C768.798 81.1904 768.609 80.9799 768.474 80.7074C768.341 80.4349 768.273 80.1191 768.27 79.76V79.4229C768.27 78.8409 768.405 78.3897 768.676 78.0695C768.948 77.7492 769.33 77.5891 769.822 77.5891C770.226 77.5891 770.55 77.6926 770.796 77.8996C771.042 78.1048 771.193 78.3968 771.247 78.7754H770.738C770.642 78.2641 770.338 78.0084 769.825 78.0084C769.483 78.0084 769.224 78.1287 769.047 78.3693C768.872 78.6082 768.784 78.955 768.782 79.4097V79.7255C768.782 80.1589 768.881 80.5039 769.079 80.7605C769.277 81.0153 769.545 81.1426 769.883 81.1426C770.074 81.1426 770.242 81.1214 770.385 81.079C770.528 81.0365 770.647 80.9648 770.741 80.864V79.9962H769.846V79.5822H771.247V80.9993Z" fill="white"/>
</g>
<g clip-path="url(#clip2_26_89)">
<path d="M490.05 41.3871V26.6233H450.317V82.4954H456.525" fill="white"/>
<path d="M490.05 41.3871V26.6233H450.317V82.4954H456.525" stroke="#333333" stroke-width="1.24659" stroke-miterlimit="10"/>
<path opacity="0.1" d="M487.759 28.9128H452.605V80.2059H487.759V28.9128Z" fill="#397AF6"/>
<path d="M496.256 47.4164V88.4957H456.523V32.6235H481.592L496.256 47.4164Z" fill="white" stroke="#3A3A3A" stroke-width="1.24659" stroke-miterlimit="10"/>
<path d="M496.256 47.4372H481.592V32.6235L496.256 47.4372Z" fill="white" stroke="#3A3A3A" stroke-width="1.24659" stroke-linejoin="round"/>
<path d="M491.599 75.0409H461.461C461.043 75.0409 460.704 75.3795 460.704 75.7972V82.5745C460.704 82.9921 461.043 83.3307 461.461 83.3307H491.599C492.017 83.3307 492.355 82.9921 492.355 82.5745V75.7972C492.355 75.3795 492.017 75.0409 491.599 75.0409Z" fill="url(#paint7_linear_26_89)" stroke="#3A3A3A" stroke-width="1.24659" stroke-miterlimit="10"/>
<path d="M472.846 79.9935V81.5062H472.337V77.6422H473.762C474.185 77.6422 474.516 77.7501 474.755 77.966C474.995 78.1818 475.116 78.4675 475.116 78.8232C475.116 79.1982 474.998 79.4875 474.763 79.691C474.529 79.8927 474.194 79.9935 473.757 79.9935H472.846ZM472.846 79.5769H473.762C474.035 79.5769 474.243 79.5132 474.388 79.3858C474.533 79.2566 474.606 79.0709 474.606 78.8285C474.606 78.5985 474.533 78.4145 474.388 78.2765C474.243 78.1385 474.044 78.0668 473.791 78.0615H472.846V79.5769ZM478.436 78.0615H477.194V81.5062H476.687V78.0615H475.447V77.6422H478.436V78.0615ZM480.269 79.123L481.196 77.6422H481.795L480.575 79.5583L481.825 81.5062H481.219L480.269 79.9988L479.314 81.5062H478.712L479.964 79.5583L478.741 77.6422H479.338L480.269 79.123Z" fill="white"/>
<path d="M481.122 69.6681C481.011 69.6688 480.902 69.6399 480.805 69.5844C480.709 69.5289 480.629 69.4488 480.574 69.3523L478.409 65.5003C478.369 65.4288 478.343 65.3501 478.334 65.2687C478.324 65.1873 478.33 65.1049 478.353 65.026C478.375 64.947 478.412 64.8733 478.463 64.8089C478.514 64.7444 478.577 64.6906 478.648 64.6505C478.719 64.6104 478.798 64.5848 478.88 64.5751C478.961 64.5654 479.043 64.5718 479.122 64.594C479.201 64.6162 479.275 64.6537 479.339 64.7044C479.404 64.7551 479.458 64.818 479.498 64.8895L481.663 68.7414C481.739 68.8834 481.757 69.0499 481.713 69.2051C481.669 69.3603 481.566 69.4921 481.426 69.5724C481.334 69.6295 481.23 69.6625 481.122 69.6681V69.6681ZM471.47 69.6681C471.361 69.6686 471.254 69.6404 471.16 69.5864C471.065 69.5325 470.987 69.4546 470.932 69.3607C470.877 69.2668 470.848 69.1601 470.848 69.0514C470.847 68.9427 470.876 68.8357 470.929 68.7414L473.094 64.8895C473.175 64.7451 473.31 64.6388 473.47 64.594C473.629 64.5492 473.8 64.5695 473.944 64.6505C474.089 64.7315 474.195 64.8666 474.24 65.026C474.284 65.1853 474.264 65.356 474.183 65.5003L472.014 69.3523C471.96 69.4497 471.88 69.5305 471.784 69.5861C471.687 69.6418 471.577 69.6701 471.466 69.6681H471.47Z" fill="#3A3A3A"/>
<path d="M476.298 54.8253C476.133 54.8253 475.974 54.7597 475.857 54.6428C475.74 54.5259 475.675 54.3673 475.675 54.202V52.8682C475.675 52.7029 475.74 52.5444 475.857 52.4275C475.974 52.3106 476.133 52.2449 476.298 52.2449C476.463 52.2449 476.622 52.3106 476.739 52.4275C476.856 52.5444 476.921 52.7029 476.921 52.8682V54.202C476.921 54.3673 476.856 54.5259 476.739 54.6428C476.622 54.7597 476.463 54.8253 476.298 54.8253V54.8253Z" fill="#3A3A3A"/>
<path d="M486.357 65.8202H466.225C466.059 65.8191 465.901 65.7525 465.784 65.635C465.667 65.5174 465.602 65.3584 465.602 65.1928V54.2019C465.602 54.0366 465.667 53.8781 465.784 53.7612C465.901 53.6443 466.06 53.5786 466.225 53.5786H486.357C486.523 53.5786 486.681 53.6443 486.798 53.7612C486.915 53.8781 486.981 54.0366 486.981 54.2019V65.1928C486.981 65.3584 486.915 65.5174 486.798 65.635C486.681 65.7525 486.523 65.8191 486.357 65.8202ZM466.848 64.5736H485.734V54.8294H466.848V64.5736Z" fill="#3A3A3A"/>
<path d="M479.711 63.032C479.546 63.032 479.387 62.9664 479.27 62.8495C479.153 62.7326 479.088 62.5741 479.088 62.4087V60.8422C479.105 60.6893 479.178 60.5482 479.293 60.4458C479.408 60.3434 479.557 60.2869 479.711 60.2869C479.865 60.2869 480.013 60.3434 480.128 60.4458C480.243 60.5482 480.316 60.6893 480.334 60.8422V62.4087C480.333 62.5737 480.267 62.7317 480.15 62.8483C480.034 62.965 479.876 63.031 479.711 63.032V63.032Z" fill="#3A3A3A"/>
<path d="M474.952 57.7133H468.827C468.662 57.7133 468.503 57.6475 468.387 57.5307C468.27 57.4138 468.204 57.2553 468.204 57.09C468.204 56.9247 468.27 56.7661 468.387 56.6492C468.503 56.5323 468.662 56.4667 468.827 56.4667H474.952C475.117 56.4667 475.276 56.5323 475.393 56.6492C475.51 56.7661 475.575 56.9247 475.575 57.09C475.575 57.2553 475.51 57.4138 475.393 57.5307C475.276 57.6475 475.117 57.7133 474.952 57.7133V57.7133Z" fill="#3A3A3A"/>
<path d="M472.567 60.3643H468.827C468.662 60.3643 468.503 60.2987 468.387 60.1818C468.27 60.0649 468.204 59.9063 468.204 59.741C468.204 59.5757 468.27 59.4172 468.387 59.3003C468.503 59.1834 468.662 59.1177 468.827 59.1177H472.567C472.732 59.1177 472.891 59.1834 473.008 59.3003C473.125 59.4172 473.19 59.5757 473.19 59.741C473.19 59.9063 473.125 60.0649 473.008 60.1818C472.891 60.2987 472.732 60.3643 472.567 60.3643Z" fill="#3A3A3A"/>
<path d="M468.827 63.032C468.662 63.032 468.503 62.9664 468.387 62.8495C468.27 62.7326 468.204 62.574 468.204 62.4087C468.204 62.2434 468.27 62.0849 468.387 61.968C468.503 61.8511 468.662 61.7854 468.827 61.7854H476.394C476.559 61.7854 476.718 61.8511 476.835 61.968C476.952 62.0849 477.017 62.2434 477.017 62.4087C477.017 62.574 476.952 62.7326 476.835 62.8495C476.718 62.9664 476.559 63.032 476.394 63.032H468.831H468.827Z" fill="#3A3A3A"/>
</g>
<g clip-path="url(#clip3_26_89)">
<path d="M601.078 40.8313H586.314V80.5643H642.186V74.3563" fill="white"/>
<path d="M601.078 40.8313H586.314V80.5643H642.186V74.3563" stroke="#333333" stroke-width="1.24659" stroke-miterlimit="10"/>
<path opacity="0.1" d="M639.897 43.1208H588.604V78.2747H639.897V43.1208Z" fill="#397AF6"/>
<path d="M607.106 34.6233H648.186V74.3563H592.314V49.2915L607.106 34.6233Z" fill="white" stroke="#333333" stroke-width="1.24659" stroke-miterlimit="10"/>
<path d="M607.127 34.6233V49.2915H592.314L607.127 34.6233Z" fill="white" stroke="#333333" stroke-width="1.24659" stroke-linejoin="round"/>
<path d="M615.75 47.1931C615.15 47.1964 614.563 47.0217 614.063 46.6911C613.563 46.3604 613.172 45.8887 612.94 45.3357C612.708 44.7827 612.645 44.1733 612.76 43.5847C612.875 42.9961 613.162 42.4548 613.584 42.0293C614.007 41.6039 614.546 41.3134 615.134 41.1947C615.722 41.076 616.331 41.1344 616.886 41.3625C617.44 41.5907 617.915 41.9783 618.249 42.4762C618.583 42.9742 618.762 43.5601 618.763 44.1597C618.764 44.5568 618.688 44.9504 618.537 45.3178C618.387 45.6852 618.165 46.0193 617.885 46.301C617.605 46.5827 617.273 46.8065 616.906 46.9596C616.54 47.1127 616.147 47.192 615.75 47.1931V47.1931ZM615.75 42.4104C615.401 42.4063 615.059 42.5061 614.767 42.6971C614.475 42.8881 614.247 43.1616 614.111 43.4829C613.975 43.8042 613.937 44.1586 614.004 44.5011C614.07 44.8437 614.236 45.1589 614.482 45.4064C614.728 45.654 615.042 45.8228 615.384 45.8914C615.726 45.9599 616.081 45.9252 616.403 45.7915C616.725 45.6578 617 45.4312 617.193 45.1406C617.386 44.8501 617.489 44.5086 617.487 44.1597C617.489 43.9306 617.445 43.7035 617.358 43.4913C617.272 43.2791 617.144 43.0861 616.983 42.9235C616.821 42.7609 616.629 42.6318 616.418 42.5438C616.206 42.4557 615.979 42.4104 615.75 42.4104V42.4104Z" fill="#3A3A3A"/>
<path d="M636.86 56.0978H613.474C613.354 56.0976 613.236 56.0632 613.134 55.9987C613.033 55.9342 612.952 55.8423 612.9 55.7335C612.849 55.6247 612.83 55.5036 612.844 55.3842C612.859 55.2648 612.907 55.152 612.984 55.059L620.737 45.6556C620.841 45.5298 620.989 45.4484 621.15 45.4283C621.312 45.4082 621.475 45.4509 621.606 45.5475L624.805 47.9036L631.483 42.0488C631.547 41.9922 631.621 41.949 631.702 41.9219C631.782 41.8948 631.868 41.8842 631.953 41.8909C632.116 41.9093 632.265 41.9915 632.368 42.1194L637.317 48.0241C637.414 48.1408 637.467 48.2879 637.467 48.4396V55.4828C637.467 55.5665 637.451 55.6494 637.419 55.7268C637.388 55.8042 637.341 55.8745 637.282 55.9337C637.223 55.9928 637.152 56.0396 637.075 56.0713C636.998 56.1031 636.915 56.1192 636.831 56.1186L636.86 56.0978ZM614.837 54.8264H636.237V48.6515L631.857 43.4201L625.283 49.1834C625.175 49.28 625.036 49.336 624.89 49.3421C624.745 49.3482 624.602 49.3039 624.486 49.2167L621.361 46.9147L614.837 54.8264Z" fill="#3A3A3A"/>
<path d="M641.126 61.0094H610.988C610.57 61.0094 610.232 61.348 610.232 61.7657V68.543C610.232 68.9606 610.57 69.2992 610.988 69.2992H641.126C641.544 69.2992 641.883 68.9606 641.883 68.543V61.7657C641.883 61.348 641.544 61.0094 641.126 61.0094Z" fill="url(#paint8_linear_26_89)" stroke="#333333" stroke-width="1.24659" stroke-miterlimit="10"/>
<path d="M619.399 67.2217C619.399 67.1368 619.423 67.066 619.473 67.0094C619.524 66.9528 619.6 66.9245 619.701 66.9245C619.802 66.9245 619.878 66.9528 619.929 67.0094C619.982 67.066 620.009 67.1368 620.009 67.2217C620.009 67.3031 619.982 67.3712 619.929 67.426C619.878 67.4809 619.802 67.5083 619.701 67.5083C619.6 67.5083 619.524 67.4809 619.473 67.426C619.423 67.3712 619.399 67.3031 619.399 67.2217ZM622.517 63.6151H623.029V66.3512C623.029 66.721 622.918 67.0103 622.695 67.219C622.474 67.4278 622.178 67.5322 621.808 67.5322C621.424 67.5322 621.125 67.434 620.911 67.2376C620.697 67.0412 620.59 66.7661 620.59 66.4123H621.1C621.1 66.6334 621.16 66.8059 621.28 66.9298C621.402 67.0536 621.578 67.1155 621.808 67.1155C622.019 67.1155 622.189 67.0492 622.318 66.9165C622.449 66.7838 622.515 66.598 622.517 66.3592V63.6151ZM624.406 65.9664V67.4791H623.897V63.6151H625.322C625.745 63.6151 626.076 63.723 626.315 63.9389C626.555 64.1547 626.676 64.4404 626.676 64.7961C626.676 65.1711 626.558 65.4604 626.323 65.6639C626.089 65.8656 625.754 65.9664 625.317 65.9664H624.406ZM624.406 65.5498H625.322C625.595 65.5498 625.803 65.4861 625.948 65.3587C626.093 65.2295 626.166 65.0438 626.166 64.8014C626.166 64.5714 626.093 64.3874 625.948 64.2494C625.803 64.1114 625.604 64.0397 625.351 64.0344H624.406V65.5498ZM630.179 66.9722C630.048 67.1598 629.865 67.3004 629.629 67.3942C629.396 67.4862 629.123 67.5322 628.812 67.5322C628.497 67.5322 628.217 67.4588 627.973 67.3119C627.729 67.1633 627.54 66.9528 627.405 66.6803C627.273 66.4078 627.205 66.092 627.201 65.7329V65.3958C627.201 64.8138 627.336 64.3626 627.607 64.0424C627.88 63.7221 628.262 63.562 628.754 63.562C629.157 63.562 629.482 63.6655 629.728 63.8725C629.973 64.0777 630.124 64.3697 630.179 64.7483H629.669C629.574 64.237 629.269 63.9813 628.756 63.9813C628.415 63.9813 628.156 64.1016 627.979 64.3422C627.803 64.5811 627.715 64.9279 627.713 65.3826V65.6984C627.713 66.1318 627.812 66.4768 628.01 66.7334C628.209 66.9882 628.477 67.1155 628.815 67.1155C629.006 67.1155 629.173 67.0943 629.316 67.0519C629.459 67.0094 629.578 66.9377 629.672 66.8369V65.9691H628.777V65.5551H630.179V66.9722Z" fill="white"/>
</g>
<defs>
<linearGradient id="paint0_linear_26_89" x1="1647" y1="130" x2="1636.66" y2="265.352" gradientUnits="userSpaceOnUse">
<stop stop-color="#F3F7FF"/>
<stop offset="1" stop-color="#DEEEFE"/>
</linearGradient>
<linearGradient id="paint1_linear_26_89" x1="324.351" y1="42.0256" x2="334.802" y2="42.0256" gradientUnits="userSpaceOnUse">
<stop stop-color="#3B94E2"/>
<stop offset="0.3125" stop-color="#2BB1FF"/>
</linearGradient>
<linearGradient id="paint2_linear_26_89" x1="324.351" y1="51.6576" x2="341.409" y2="51.6576" gradientUnits="userSpaceOnUse">
<stop stop-color="#3B94E2"/>
<stop offset="0.3125" stop-color="#2BB1FF"/>
</linearGradient>
<linearGradient id="paint3_linear_26_89" x1="324.351" y1="61.2937" x2="354.428" y2="61.2937" gradientUnits="userSpaceOnUse">
<stop stop-color="#3B94E2"/>
<stop offset="0.3125" stop-color="#2BB1FF"/>
</linearGradient>
<linearGradient id="paint4_linear_26_89" x1="324.351" y1="70.9299" x2="354.428" y2="70.9299" gradientUnits="userSpaceOnUse">
<stop stop-color="#3B94E2"/>
<stop offset="0.3125" stop-color="#2BB1FF"/>
</linearGradient>
<linearGradient id="paint5_linear_26_89" x1="324.351" y1="80.5619" x2="354.428" y2="80.5619" gradientUnits="userSpaceOnUse">
<stop stop-color="#3B94E2"/>
<stop offset="0.3125" stop-color="#2BB1FF"/>
</linearGradient>
<linearGradient id="paint6_linear_26_89" x1="749.703" y1="79.1879" x2="781.354" y2="79.1879" gradientUnits="userSpaceOnUse">
<stop stop-color="#3B94E2"/>
<stop offset="0.3125" stop-color="#2BB1FF"/>
</linearGradient>
<linearGradient id="paint7_linear_26_89" x1="460.704" y1="79.1879" x2="492.355" y2="79.1879" gradientUnits="userSpaceOnUse">
<stop stop-color="#3B94E2"/>
<stop offset="0.3125" stop-color="#2BB1FF"/>
</linearGradient>
<linearGradient id="paint8_linear_26_89" x1="610.232" y1="65.1564" x2="641.883" y2="65.1564" gradientUnits="userSpaceOnUse">
<stop stop-color="#3B94E2"/>
<stop offset="0.3125" stop-color="#2BB1FF"/>
</linearGradient>
<clipPath id="clip0_26_89">
<rect width="47.1876" height="63.119" fill="white" transform="translate(312.691 26)"/>
</clipPath>
<clipPath id="clip1_26_89">
<rect width="47.1876" height="63.119" fill="white" transform="translate(738.691 26)"/>
</clipPath>
<clipPath id="clip2_26_89">
<rect width="47.1876" height="63.119" fill="white" transform="translate(449.691 26)"/>
</clipPath>
<clipPath id="clip3_26_89">
<rect width="63.119" height="47.1876" fill="white" transform="translate(585.691 34)"/>
</clipPath>
</defs>
</svg>
