<svg width="159" height="82" viewBox="0 0 159 82" fill="none" xmlns="http://www.w3.org/2000/svg">
<g clip-path="url(#clip0_755_23003)">
<path d="M50 20.989C50 18.7758 50.7315 17.0663 52.0876 14.9393L58.0164 5.61292H63.8317L58.6077 13.339C58.8167 13.2647 59.037 13.2266 59.259 13.2264C63.7482 13.2264 67.4458 16.3374 67.4458 20.9558C67.4458 25.6339 63.5511 28.9669 58.7212 28.9669C53.8913 28.9669 50 25.8592 50 20.989ZM62.4489 21.0155C62.4489 18.9713 61.0092 17.3711 58.7212 17.3711C56.4332 17.3711 54.9902 18.9713 54.9902 21.0155C54.9902 23.0596 56.4299 24.6599 58.7146 24.6599C60.9992 24.6599 62.4489 23.0596 62.4489 21.0155ZM86.722 17.0132C86.722 24.9912 82.9409 28.9967 77.9139 28.9967C72.887 28.9967 69.1059 24.9912 69.1059 17.0132C69.1059 9.03534 72.8903 5 77.9139 5C82.9376 5 86.722 9.00221 86.722 17.0132ZM73.9625 17.0132C73.9625 22.1916 75.656 24.5439 77.9139 24.5439C80.1719 24.5439 81.8687 22.1916 81.8687 17.0132C81.8687 11.8349 80.1752 9.44947 77.9139 9.44947C75.6526 9.44947 73.9658 11.8018 73.9658 17.0132H73.9625Z" fill="#00AAFF"/>
<path d="M94.5982 17.6195C94.5982 19.3026 93.3423 20.5318 91.5252 20.5318C89.7081 20.5318 88.4656 19.3026 88.4656 17.6195C88.4656 15.9365 89.7182 14.6941 91.5252 14.6941C93.3322 14.6941 94.5982 15.9199 94.5982 17.6195ZM92.1498 27.2805H90.0622L98.3191 14.9194H100.417L92.1498 27.2805ZM90.3461 17.6195C90.341 17.7745 90.368 17.9288 90.4254 18.073C90.4829 18.2172 90.5696 18.3482 90.6801 18.4578C90.7906 18.5674 90.9226 18.6534 91.068 18.7104C91.2134 18.7674 91.369 18.7941 91.5252 18.7891C91.6813 18.7942 91.8367 18.7674 91.9819 18.7104C92.1271 18.6533 92.2589 18.5673 92.3692 18.4576C92.4795 18.348 92.5658 18.217 92.6229 18.0728C92.68 17.9286 92.7065 17.7743 92.7009 17.6195C92.7061 17.465 92.6791 17.3111 92.6219 17.1673C92.5646 17.0235 92.4782 16.893 92.3679 16.7836C92.2577 16.6743 92.1261 16.5886 91.9811 16.5318C91.8361 16.475 91.681 16.4483 91.5252 16.4533C91.3693 16.4483 91.2139 16.475 91.0688 16.5318C90.9237 16.5885 90.7918 16.6742 90.6813 16.7835C90.5709 16.8927 90.4841 17.0233 90.4265 17.1671C90.3688 17.3109 90.3415 17.4649 90.3461 17.6195ZM102 24.577C102 26.2634 100.744 27.4892 98.9237 27.4892C97.1033 27.4892 95.8674 26.2634 95.8674 24.577C95.8674 22.8907 97.12 21.6516 98.9237 21.6516C100.727 21.6516 102 22.884 102 24.5803V24.577ZM97.748 24.577C97.7424 24.7318 97.769 24.8861 97.826 25.0303C97.8831 25.1744 97.9694 25.3054 98.0797 25.4151C98.19 25.5248 98.3218 25.6108 98.467 25.6678C98.6122 25.7249 98.7676 25.7516 98.9237 25.7465C99.0799 25.7516 99.2355 25.7248 99.3809 25.6679C99.5262 25.6109 99.6583 25.5249 99.7688 25.4153C99.8793 25.3057 99.966 25.1747 100.023 25.0305C100.081 24.8863 100.108 24.732 100.103 24.577C100.107 24.4223 100.08 24.2684 100.022 24.1246C99.9648 23.9808 99.878 23.8502 99.7676 23.741C99.6571 23.6317 99.5252 23.546 99.3801 23.4892C99.235 23.4325 99.0796 23.4058 98.9237 23.4108C98.7674 23.4053 98.6115 23.4317 98.4659 23.4885C98.3204 23.5453 98.1881 23.6313 98.0775 23.741C97.9669 23.8507 97.8802 23.9819 97.8229 24.1263C97.7657 24.2707 97.739 24.4253 97.7446 24.5803L97.748 24.577Z" fill="#00AAFF"/>
</g>
<circle opacity="0.1" cx="17" cy="17" r="17" fill="#397AF6"/>
<path fill-rule="evenodd" clip-rule="evenodd" d="M15.5092 0.0541382L16.1205 17.5765L10.3776 32.6515C4.27885 30.0696 0 24.0293 0 16.9897C0 8.10314 6.81855 0.809158 15.5092 0.0541382Z" fill="#31A8F6"/>
<path d="M5.1625 60H3.2125V54.9375H5.1625V60ZM7.7875 56.8625H6.3625V53.9125H2.0125V61.025H6.3625V57.9125H7.7875V63.425H8.9875V52.8875H7.7875V56.8625ZM10.05 52.675V63.95H11.275V52.675H10.05ZM22.4365 52.6875H21.149V60.9375H22.4365V52.6875ZM19.974 58.1375C18.2365 57.5375 17.249 56.025 17.249 54.425V53.3H15.9365V54.425C15.9365 56.075 14.949 57.6875 13.174 58.3375L13.8365 59.375C15.1615 58.875 16.099 57.85 16.6115 56.5875C17.099 57.7625 18.024 58.6875 19.3115 59.1625L19.974 58.1375ZM16.3615 62.7V60.1625H15.0615V63.75H22.7615V62.7H16.3615ZM28.6855 54.85H31.1355V53.8H24.948V54.85H27.3855V55.7625C27.3855 57.8 26.248 59.95 24.5105 60.7875L25.273 61.8125C26.5855 61.1375 27.5605 59.7625 28.0605 58.1625C28.5605 59.675 29.523 60.95 30.8105 61.575L31.5605 60.5625C29.8105 59.75 28.6855 57.675 28.6855 55.7625V54.85ZM32.7105 52.6625V56.7H30.4855V57.7625H32.7105V63.975H33.998V52.6625H32.7105ZM38.6721 60.35C37.8971 60.35 37.4221 59.3375 37.4221 57.55C37.4221 55.7625 37.8971 54.7625 38.6721 54.7625C39.4471 54.7625 39.9221 55.7625 39.9221 57.55C39.9221 59.3375 39.4471 60.35 38.6721 60.35ZM42.2846 56.95H41.0721C40.9346 54.8375 40.0221 53.55 38.6721 53.55C37.2096 53.55 36.2471 55.075 36.2471 57.55C36.2471 60.025 37.2096 61.5625 38.6721 61.5625C40.0471 61.5625 40.9721 60.2125 41.0846 58.0125H42.2846V63.425H43.4846V52.8875H42.2846V56.95ZM44.5471 52.675V63.95H45.7721V52.675H44.5471ZM52.8662 56.3625H58.2162V58.2125H52.8662V56.3625ZM56.1787 61.525V59.25H59.4912V53.425H58.2162V55.325H52.8662V53.425H51.5912V59.25H54.8912V61.525H50.4412V62.5875H60.6662V61.525H56.1787ZM63.3402 56.25C63.3402 55.225 64.0902 54.55 65.0777 54.55C66.0652 54.55 66.8277 55.225 66.8277 56.25C66.8277 57.2875 66.0652 57.9625 65.0777 57.9625C64.0902 57.9625 63.3402 57.2875 63.3402 56.25ZM68.0902 56.25C68.0902 54.6 66.7902 53.4375 65.0777 53.4375C63.3777 53.4375 62.0777 54.6 62.0777 56.25C62.0777 57.9 63.3777 59.075 65.0777 59.075C66.7902 59.075 68.0902 57.9 68.0902 56.25ZM64.9027 60.1H63.6027V63.75H71.2027V62.7H64.9027V60.1ZM70.7527 56.025V52.675H69.4652V60.95H70.7527V57.0875H72.3527V56.025H70.7527ZM82.3094 55.5125V56.5625H84.3094V59.4H85.5969V52.675H84.3094V55.5125H82.3094ZM82.9594 58.025C81.2719 57.4375 80.3094 56.0375 80.3094 54.625V54.475H82.6594V53.4375H76.6219V54.475H79.0094V54.6375C79.0094 56.1875 77.9969 57.6875 76.2469 58.3125L76.9094 59.3375C78.2469 58.8625 79.1969 57.8625 79.6969 56.625C80.1719 57.7125 81.0719 58.6 82.3219 59.0375L82.9594 58.025ZM81.8469 62.975C80.2344 62.975 79.3219 62.575 79.3219 61.8375C79.3219 61.1 80.2344 60.7 81.8469 60.7C83.4344 60.7 84.3594 61.1 84.3594 61.8375C84.3594 62.575 83.4344 62.975 81.8469 62.975ZM81.8469 59.7C79.4844 59.7 78.0344 60.5 78.0344 61.8375C78.0344 63.1875 79.4844 63.975 81.8469 63.975C84.1969 63.975 85.6469 63.1875 85.6469 61.8375C85.6469 60.5 84.1969 59.7 81.8469 59.7ZM93.3334 58.1375C91.9209 57.625 91.1834 56.4375 91.1834 55.175V55.0875H93.0334V54.0625H91.1834V52.7875H89.9459V54.0625H88.0459V55.0875H89.9459V55.175C89.9459 56.5 89.2209 57.775 87.7834 58.3375L88.3959 59.3C89.4709 58.8625 90.1959 58.05 90.5834 57.05C90.9959 57.975 91.7084 58.7 92.7459 59.1L93.3334 58.1375ZM89.6459 61.1875H96.0084V63.975H97.2959V60.15H89.6459V61.1875ZM96.0709 52.6875V55.6125H94.9084V52.875H93.6959V59.5375H94.9084V56.6625H96.0709V59.6H97.2959V52.6875H96.0709ZM107.232 52.6625V63.9875H108.532V52.6625H107.232ZM102.52 53.5C100.845 53.5 99.6199 55.05 99.6199 57.475C99.6199 59.925 100.845 61.4625 102.52 61.4625C104.207 61.4625 105.432 59.925 105.432 57.475C105.432 55.05 104.207 53.5 102.52 53.5ZM102.52 54.6625C103.507 54.6625 104.195 55.725 104.195 57.475C104.195 59.25 103.507 60.3125 102.52 60.3125C101.545 60.3125 100.857 59.25 100.857 57.475C100.857 55.725 101.545 54.6625 102.52 54.6625ZM120.264 58.025C118.577 57.4375 117.614 56.025 117.614 54.625V54.4125H119.964V53.375H113.927V54.4125H116.314V54.6375C116.314 56.1625 115.289 57.65 113.539 58.25L114.202 59.2625C115.539 58.8 116.489 57.825 116.989 56.6125C117.477 57.7 118.377 58.5875 119.627 59.025L120.264 58.025ZM115.289 61.0125H121.614V63.9625H122.902V59.975H115.289V61.0125ZM121.614 52.6625V55.5H119.639V56.5625H121.614V59.4125H122.902V52.6625H121.614ZM130.126 62.975C128.476 62.975 127.551 62.625 127.551 61.9375C127.551 61.2625 128.476 60.9 130.126 60.9C131.776 60.9 132.713 61.2625 132.713 61.9375C132.713 62.625 131.776 62.975 130.126 62.975ZM130.126 59.9125C127.701 59.9125 126.238 60.65 126.238 61.9375C126.238 63.2375 127.701 63.9625 130.126 63.9625C132.563 63.9625 134.013 63.2375 134.013 61.9375C134.013 60.65 132.563 59.9125 130.126 59.9125ZM128.751 57.0125C129.163 57.075 129.651 57.1125 130.151 57.1125C130.651 57.1125 131.113 57.075 131.526 57.0125V58.1625H128.751V57.0125ZM130.151 53.8625C131.826 53.8625 132.838 54.2625 132.838 54.9875C132.838 55.7125 131.826 56.125 130.151 56.125C128.463 56.125 127.451 55.7125 127.451 54.9875C127.451 54.2625 128.463 53.8625 130.151 53.8625ZM132.813 58.1625V56.675C133.676 56.3 134.176 55.725 134.176 54.9875C134.176 53.6625 132.613 52.8625 130.151 52.8625C127.676 52.8625 126.126 53.6625 126.126 54.9875C126.126 55.725 126.613 56.3 127.463 56.6625V58.1625H125.038V59.1875H135.251V58.1625H132.813ZM140.912 58.45H143.212V57.4125H138.675V54.75H143.162V53.7H137.387V58.45H139.625V60.5375C138.562 60.5625 137.537 60.575 136.6 60.575L136.762 61.6375C138.887 61.65 141.512 61.6125 143.95 61.225L143.85 60.275C142.912 60.3875 141.912 60.45 140.912 60.4875V58.45ZM144.537 52.65V63.9875H145.837V52.65H144.537ZM152.211 54.8625H154.724V53.8H148.399V54.8625H150.911V55.9375C150.911 57.875 149.749 59.975 147.999 60.7875L148.736 61.8125C150.061 61.175 151.074 59.8375 151.574 58.2625C152.099 59.725 153.111 60.95 154.424 61.525L155.136 60.5125C153.374 59.7625 152.211 57.8125 152.211 55.9375V54.8625ZM156.036 52.675V63.9625H157.336V52.675H156.036ZM3.025 71.9C3.025 70.9625 3.7625 70.325 4.7375 70.325C5.7125 70.325 6.45 70.9625 6.45 71.9C6.45 72.825 5.7125 73.4625 4.7375 73.4625C3.7625 73.4625 3.025 72.825 3.025 71.9ZM7.7 71.9C7.7 70.3625 6.4375 69.275 4.7375 69.275C3.0375 69.275 1.775 70.3625 1.775 71.9C1.775 73.425 3.0375 74.525 4.7375 74.525C6.4375 74.525 7.7 73.425 7.7 71.9ZM3.975 75.425H2.725V79.675H3.3125C4.225 79.675 5.2 79.625 6.225 79.275L6.0125 78.25C5.3375 78.475 4.625 78.575 3.975 78.6125V75.425ZM8.65 79.075C8.075 79.075 7.65 78.8125 7.65 78.375C7.65 77.925 8.075 77.675 8.65 77.675C9.2125 77.675 9.6375 77.925 9.6375 78.375C9.6375 78.8125 9.2125 79.075 8.65 79.075ZM8.65 76.775C7.4 76.775 6.5125 77.4 6.5125 78.375C6.5125 79.35 7.4 79.975 8.65 79.975C9.8875 79.975 10.775 79.35 10.775 78.375C10.775 77.4 9.8875 76.775 8.65 76.775ZM9.275 74.5625H8.025V75.4875H5.8125V76.425H11.475V75.4875H9.275V74.5625ZM10.45 71.125V68.675H9.1625V74.2625H10.45V72.1875H12.05V71.125H10.45ZM18.2365 70.0625C19.8865 70.0625 20.924 70.525 20.924 71.3125C20.924 72.1125 19.8865 72.575 18.2365 72.575C16.574 72.575 15.5365 72.1125 15.5365 71.3125C15.5365 70.525 16.574 70.0625 18.2365 70.0625ZM18.2365 73.6125C20.674 73.6125 22.2615 72.75 22.2615 71.3125C22.2615 69.8875 20.674 69.025 18.2365 69.025C15.799 69.025 14.2115 69.8875 14.2115 71.3125C14.2115 72.75 15.799 73.6125 18.2365 73.6125ZM15.7115 76.4625H14.4115V79.75H22.199V78.7H15.7115V76.4625ZM13.124 74.525V75.575H23.3365V74.525H13.124ZM34.0057 73.8375C32.3307 73.2875 31.3682 71.9125 31.3682 70.4625V69.25H30.0682V70.3625C30.0682 71.9875 29.1057 73.525 27.3307 74.1375L28.0182 75.1625C29.3182 74.6875 30.2432 73.7125 30.7432 72.4875C31.2182 73.55 32.1182 74.4125 33.3307 74.85L34.0057 73.8375ZM32.6182 78.95C31.0432 78.95 30.1307 78.5625 30.1307 77.8375C30.1307 77.1375 31.0432 76.7375 32.6182 76.7375C34.1932 76.7375 35.1057 77.1375 35.1057 77.8375C35.1057 78.5625 34.1932 78.95 32.6182 78.95ZM32.6182 75.725C30.2932 75.725 28.8557 76.5125 28.8557 77.8375C28.8557 79.175 30.2932 79.9625 32.6182 79.9625C34.9557 79.9625 36.3807 79.175 36.3807 77.8375C36.3807 76.5125 34.9557 75.725 32.6182 75.725ZM36.2557 71.4625V68.6625H34.9682V75.45H36.2557V72.525H37.8557V71.4625H36.2557ZM40.5797 73.9H43.6422V72.8875H40.5797V70.95H43.8422V69.9125H39.3422V77.2625H40.1047C41.8672 77.2625 42.9672 77.225 44.2672 76.9875L44.1547 75.9375C43.0047 76.1375 42.0297 76.1875 40.5797 76.2V73.9ZM47.3547 68.675V73.1375H46.0922V68.8875H44.8922V79.425H46.0922V74.1875H47.3547V79.95H48.5797V68.675H47.3547ZM65.7064 69.5875H61.8064V68.5375H60.5064V69.5875H56.5564V70.575H65.7064V69.5875ZM57.1564 77.8125H63.6564V79.975H64.9564V76.8125H57.1564V77.8125ZM58.7689 72.6C58.7689 72.1 59.5689 71.85 61.1564 71.85C62.7314 71.85 63.5314 72.1 63.5314 72.6C63.5314 73.1 62.7314 73.35 61.1564 73.35C59.5689 73.35 58.7689 73.1 58.7689 72.6ZM61.8064 75.025V74.225C63.7439 74.125 64.8564 73.5625 64.8564 72.6C64.8564 71.525 63.5064 70.95 61.1564 70.95C58.7939 70.95 57.4439 71.525 57.4439 72.6C57.4439 73.5625 58.5564 74.125 60.5064 74.225V75.025H56.0439V76.0375H66.2564V75.025H61.8064ZM72.6555 70.0625C74.3055 70.0625 75.343 70.525 75.343 71.3125C75.343 72.1125 74.3055 72.575 72.6555 72.575C70.993 72.575 69.9555 72.1125 69.9555 71.3125C69.9555 70.525 70.993 70.0625 72.6555 70.0625ZM72.6555 73.6125C75.093 73.6125 76.6805 72.75 76.6805 71.3125C76.6805 69.8875 75.093 69.025 72.6555 69.025C70.218 69.025 68.6305 69.8875 68.6305 71.3125C68.6305 72.75 70.218 73.6125 72.6555 73.6125ZM70.1305 76.4625H68.8305V79.75H76.618V78.7H70.1305V76.4625ZM67.543 74.525V75.575H77.7555V74.525H67.543ZM88.5746 74.025C86.8871 73.4375 85.9246 72.025 85.9246 70.625V70.4125H88.2746V69.375H82.2371V70.4125H84.6246V70.6375C84.6246 72.1625 83.5996 73.65 81.8496 74.25L82.5121 75.2625C83.8496 74.8 84.7996 73.825 85.2996 72.6125C85.7871 73.7 86.6871 74.5875 87.9371 75.025L88.5746 74.025ZM83.5996 77.0125H89.9246V79.9625H91.2121V75.975H83.5996V77.0125ZM89.9246 68.6625V71.5H87.9496V72.5625H89.9246V75.4125H91.2121V68.6625H89.9246ZM98.4361 78.975C96.7861 78.975 95.8611 78.625 95.8611 77.9375C95.8611 77.2625 96.7861 76.9 98.4361 76.9C100.086 76.9 101.024 77.2625 101.024 77.9375C101.024 78.625 100.086 78.975 98.4361 78.975ZM98.4361 75.9125C96.0111 75.9125 94.5486 76.65 94.5486 77.9375C94.5486 79.2375 96.0111 79.9625 98.4361 79.9625C100.874 79.9625 102.324 79.2375 102.324 77.9375C102.324 76.65 100.874 75.9125 98.4361 75.9125ZM97.0611 73.0125C97.4736 73.075 97.9611 73.1125 98.4611 73.1125C98.9611 73.1125 99.4236 73.075 99.8361 73.0125V74.1625H97.0611V73.0125ZM98.4611 69.8625C100.136 69.8625 101.149 70.2625 101.149 70.9875C101.149 71.7125 100.136 72.125 98.4611 72.125C96.7736 72.125 95.7611 71.7125 95.7611 70.9875C95.7611 70.2625 96.7736 69.8625 98.4611 69.8625ZM101.124 74.1625V72.675C101.986 72.3 102.486 71.725 102.486 70.9875C102.486 69.6625 100.924 68.8625 98.4611 68.8625C95.9861 68.8625 94.4361 69.6625 94.4361 70.9875C94.4361 71.725 94.9236 72.3 95.7736 72.6625V74.1625H93.3486V75.1875H103.561V74.1625H101.124ZM113.468 74.6375C113.53 74.275 113.568 73.9 113.568 73.475C113.568 73 113.518 72.575 113.43 72.1625H115.743V74.6375H113.468ZM110.705 76.3125C109.743 76.3125 109.068 75.25 109.068 73.475C109.068 71.725 109.743 70.6625 110.705 70.6625C111.68 70.6625 112.343 71.725 112.343 73.475C112.343 75.25 111.68 76.3125 110.705 76.3125ZM115.743 68.6625V71.1H113.08C112.568 70.0875 111.73 69.5 110.705 69.5C109.043 69.5 107.855 71.05 107.855 73.475C107.855 75.925 109.043 77.4625 110.705 77.4625C111.78 77.4625 112.668 76.8125 113.143 75.7H115.743V79.9875H117.043V68.6625H115.743ZM126.842 73.0125H121.679V71.575H126.842V73.0125ZM128.129 69.1125H126.842V70.5375H121.679V69.1125H120.392V74.05H128.129V69.1125ZM129.392 75.275H119.154V76.3125H123.592V79.975H124.879V76.3125H129.392V75.275ZM135.973 77.95H142.398V75.2625H134.673V76.2375H141.136V77.0375H134.698V79.8625H142.723V78.875H135.973V77.95ZM136.036 70.025H141.098V71.5H136.036V70.025ZM139.198 73.4625V72.5125H142.361V69.025H134.761V72.5125H137.911V73.4625H133.461V74.4875H143.686V73.4625H139.198ZM146.697 73.875H150.56V69.675H145.397V70.725H149.285V72.8375H145.422V77.3H146.347C148.435 77.3 149.947 77.225 151.685 76.9125L151.547 75.8625C149.96 76.15 148.547 76.225 146.697 76.2375V73.875ZM155.472 73.0625H153.735V68.65H152.435V79.975H153.735V74.1375H155.472V73.0625Z" fill="black"/>
<defs>
<clipPath id="clip0_755_23003">
<rect width="52" height="24" fill="white" transform="translate(50 5)"/>
</clipPath>
</defs>
</svg>
