<svg width="1098" height="130" viewBox="0 0 1098 130" fill="none" xmlns="http://www.w3.org/2000/svg">
<rect x="1098" y="130" width="1098" height="130" rx="20" transform="rotate(-180 1098 130)" fill="url(#paint0_linear_209_376)" fill-opacity="0.1"/>
<g clip-path="url(#clip0_209_376)">
<path d="M264.77 46.7015C264.563 46.7766 264.346 46.8149 264.126 46.8147C259.67 46.8147 256 43.689 256 39.0488C256 34.1523 259.896 31 264.66 31C269.425 31 273.317 34.1257 273.317 39.0189C273.317 41.2424 272.591 42.9601 271.245 45.0971L265.36 54.4674H259.587L264.77 46.7015ZM268.357 38.9922C268.357 36.9384 266.928 35.3307 264.66 35.3307C262.392 35.3307 260.96 36.9351 260.96 38.9922C260.96 41.0494 262.389 42.6538 264.66 42.6538C266.931 42.6538 268.357 41.046 268.357 38.9922ZM275.111 46.9811C275.111 44.7609 275.84 43.0433 277.183 40.9062L283.068 31.5359H288.841L283.658 39.3018C283.865 39.2268 284.082 39.1885 284.302 39.1886C288.758 39.1886 292.428 42.311 292.428 46.9545C292.428 51.6513 288.562 55 283.771 55C278.98 55 275.111 51.8777 275.111 46.9811ZM287.468 47.0111C287.468 44.9573 286.039 43.3495 283.771 43.3495C281.503 43.3495 280.084 44.9573 280.084 47.0111C280.084 49.0649 281.513 50.6727 283.784 50.6727C286.056 50.6727 287.468 49.0649 287.468 47.0111Z" fill="#00AAFF"/>
<path d="M299.646 43.5856C299.646 45.2766 298.403 46.5116 296.596 46.5116C294.789 46.5116 293.559 45.2766 293.559 43.5856C293.559 41.8947 294.805 40.6431 296.596 40.6431C298.386 40.6431 299.646 41.8913 299.646 43.5856ZM297.226 53.3055H295.147L303.343 40.8861H305.422L297.226 53.3055ZM295.435 43.5856C295.43 43.7409 295.457 43.8955 295.514 44.04C295.571 44.1845 295.656 44.3157 295.766 44.4255C295.875 44.5353 296.006 44.6215 296.15 44.6785C296.294 44.7356 296.448 44.7624 296.602 44.7573C296.757 44.7624 296.911 44.7356 297.055 44.6786C297.199 44.6215 297.33 44.5354 297.44 44.4257C297.55 44.3159 297.636 44.1847 297.693 44.0402C297.75 43.8958 297.777 43.7411 297.773 43.5856C297.778 43.43 297.751 43.2749 297.694 43.13C297.637 42.9852 297.551 42.8536 297.441 42.7434C297.332 42.6333 297.201 42.5469 297.056 42.4897C296.912 42.4324 296.757 42.4055 296.602 42.4106C296.447 42.4055 296.293 42.4324 296.149 42.4897C296.005 42.547 295.874 42.6334 295.765 42.7436C295.655 42.8538 295.569 42.9854 295.513 43.1303C295.456 43.2751 295.43 43.4301 295.435 43.5856ZM307 50.5759C307 52.2669 305.757 53.5019 303.95 53.5019C302.143 53.5019 300.913 52.2669 300.913 50.5759C300.913 48.8849 302.159 47.65 303.956 47.65C305.753 47.65 307 48.885 307 50.5926V50.5759ZM302.779 50.5759C302.772 50.7334 302.798 50.8907 302.854 51.0378C302.911 51.1849 302.997 51.3186 303.108 51.4305C303.218 51.5425 303.351 51.6302 303.497 51.6882C303.643 51.7463 303.799 51.7733 303.956 51.7676C304.111 51.7713 304.264 51.7434 304.407 51.6855C304.55 51.6276 304.68 51.5411 304.789 51.4311C304.897 51.3211 304.982 51.19 305.039 51.0458C305.095 50.9016 305.122 50.7474 305.117 50.5926C305.122 50.4378 305.095 50.2835 305.039 50.1394C304.982 49.9952 304.897 49.8641 304.789 49.7541C304.68 49.6441 304.55 49.5575 304.407 49.4996C304.264 49.4418 304.111 49.4138 303.956 49.4175C303.801 49.412 303.646 49.4386 303.501 49.4956C303.356 49.5526 303.224 49.6388 303.114 49.749C303.004 49.8591 302.917 49.9908 302.86 50.1359C302.802 50.281 302.775 50.4364 302.779 50.5926V50.5759Z" fill="#00AAFF"/>
</g>
<circle opacity="0.1" cx="223" cy="43" r="17" fill="#397AF6"/>
<path fill-rule="evenodd" clip-rule="evenodd" d="M222.414 26V42.9902L234.724 30.6798C237.974 33.7762 240 38.1466 240 42.9901C240 52.3789 232.389 59.9901 223 59.9901C213.611 59.9901 206 52.3789 206 42.9901C206 33.7974 213.296 26.309 222.414 26Z" fill="#31A8F6"/>
<path d="M209.1 89.1625C210.05 89.1625 210.725 88.6875 211.35 87.9625H211.388L211.5 89H212.675V82.125H211.238V86.9C210.663 87.625 210.225 87.925 209.588 87.925C208.775 87.925 208.438 87.4625 208.438 86.275V82.125H207V86.45C207 88.2 207.638 89.1625 209.1 89.1625ZM216.701 89.1625C218.401 89.1625 219.314 88.225 219.314 87.075C219.314 85.775 218.251 85.35 217.289 84.9875C216.539 84.7125 215.826 84.4875 215.826 83.9C215.826 83.425 216.176 83.05 216.926 83.05C217.501 83.05 217.989 83.3 218.464 83.65L219.139 82.7625C218.576 82.325 217.826 81.95 216.901 81.95C215.389 81.95 214.464 82.8125 214.464 83.9625C214.464 85.125 215.514 85.6125 216.426 85.9625C217.176 86.25 217.951 86.525 217.951 87.15C217.951 87.675 217.564 88.075 216.739 88.075C216.001 88.075 215.401 87.775 214.789 87.2875L214.114 88.2125C214.776 88.7625 215.751 89.1625 216.701 89.1625ZM223.707 89.1625C224.607 89.1625 225.395 88.8625 226.032 88.4375L225.532 87.525C225.032 87.85 224.507 88.0375 223.895 88.0375C222.707 88.0375 221.882 87.25 221.77 85.9375H226.232C226.27 85.775 226.295 85.4875 226.295 85.2125C226.295 83.2625 225.32 81.95 223.495 81.95C221.882 81.95 220.357 83.3375 220.357 85.575C220.357 87.8375 221.845 89.1625 223.707 89.1625ZM221.757 84.95C221.895 83.7375 222.657 83.075 223.52 83.075C224.52 83.075 225.057 83.7625 225.057 84.95H221.757ZM230.72 89H232.145V84.125C232.72 83.5 233.233 83.1875 233.695 83.1875C234.483 83.1875 234.845 83.6625 234.845 84.85V89H236.283V84.125C236.858 83.5 237.358 83.1875 237.833 83.1875C238.608 83.1875 238.983 83.6625 238.983 84.85V89H240.42V84.675C240.42 82.925 239.745 81.95 238.308 81.95C237.445 81.95 236.745 82.4875 236.07 83.2125C235.77 82.425 235.195 81.95 234.17 81.95C233.32 81.95 232.633 82.4625 232.045 83.0875H232.008L231.895 82.125H230.72V89ZM245.363 89.1625C246.263 89.1625 247.05 88.8625 247.688 88.4375L247.188 87.525C246.688 87.85 246.163 88.0375 245.55 88.0375C244.363 88.0375 243.538 87.25 243.425 85.9375H247.888C247.925 85.775 247.95 85.4875 247.95 85.2125C247.95 83.2625 246.975 81.95 245.15 81.95C243.538 81.95 242.013 83.3375 242.013 85.575C242.013 87.8375 243.5 89.1625 245.363 89.1625ZM243.413 84.95C243.55 83.7375 244.313 83.075 245.175 83.075C246.175 83.075 246.713 83.7625 246.713 84.95H243.413ZM251.43 89.1625C253.13 89.1625 254.043 88.225 254.043 87.075C254.043 85.775 252.98 85.35 252.018 84.9875C251.268 84.7125 250.555 84.4875 250.555 83.9C250.555 83.425 250.905 83.05 251.655 83.05C252.23 83.05 252.718 83.3 253.193 83.65L253.868 82.7625C253.305 82.325 252.555 81.95 251.63 81.95C250.118 81.95 249.193 82.8125 249.193 83.9625C249.193 85.125 250.243 85.6125 251.155 85.9625C251.905 86.25 252.68 86.525 252.68 87.15C252.68 87.675 252.293 88.075 251.468 88.075C250.73 88.075 250.13 87.775 249.518 87.2875L248.843 88.2125C249.505 88.7625 250.48 89.1625 251.43 89.1625ZM257.436 89.1625C259.136 89.1625 260.049 88.225 260.049 87.075C260.049 85.775 258.986 85.35 258.024 84.9875C257.274 84.7125 256.561 84.4875 256.561 83.9C256.561 83.425 256.911 83.05 257.661 83.05C258.236 83.05 258.724 83.3 259.199 83.65L259.874 82.7625C259.311 82.325 258.561 81.95 257.636 81.95C256.124 81.95 255.199 82.8125 255.199 83.9625C255.199 85.125 256.249 85.6125 257.161 85.9625C257.911 86.25 258.686 86.525 258.686 87.15C258.686 87.675 258.299 88.075 257.474 88.075C256.736 88.075 256.136 87.775 255.524 87.2875L254.849 88.2125C255.511 88.7625 256.486 89.1625 257.436 89.1625ZM264.442 89.1625C265.342 89.1625 266.13 88.8625 266.767 88.4375L266.267 87.525C265.767 87.85 265.242 88.0375 264.63 88.0375C263.442 88.0375 262.617 87.25 262.505 85.9375H266.967C267.005 85.775 267.03 85.4875 267.03 85.2125C267.03 83.2625 266.055 81.95 264.23 81.95C262.617 81.95 261.092 83.3375 261.092 85.575C261.092 87.8375 262.58 89.1625 264.442 89.1625ZM262.492 84.95C262.63 83.7375 263.392 83.075 264.255 83.075C265.255 83.075 265.792 83.7625 265.792 84.95H262.492ZM268.648 89H270.073V84.125C270.685 83.5125 271.123 83.1875 271.76 83.1875C272.573 83.1875 272.923 83.6625 272.923 84.85V89H274.36V84.675C274.36 82.925 273.71 81.95 272.248 81.95C271.31 81.95 270.61 82.4625 269.973 83.075H269.935L269.823 82.125H268.648V89ZM278.798 92.0875C280.998 92.0875 282.398 91.0125 282.398 89.6875C282.398 88.5125 281.548 88.0125 279.923 88.0125H278.66C277.785 88.0125 277.51 87.75 277.51 87.3375C277.51 87.0125 277.66 86.8125 277.885 86.6125C278.185 86.75 278.535 86.825 278.848 86.825C280.285 86.825 281.423 85.9625 281.423 84.4625C281.423 83.9375 281.235 83.475 280.973 83.2H282.285V82.125H279.848C279.585 82.025 279.235 81.95 278.848 81.95C277.423 81.95 276.185 82.8625 276.185 84.425C276.185 85.2375 276.623 85.8875 277.085 86.25V86.3C276.71 86.575 276.323 87.0375 276.323 87.575C276.323 88.1375 276.598 88.5 276.948 88.7125V88.775C276.31 89.1625 275.948 89.7 275.948 90.275C275.948 91.475 277.148 92.0875 278.798 92.0875ZM278.848 85.9C278.135 85.9 277.548 85.3375 277.548 84.425C277.548 83.4875 278.123 82.9625 278.848 82.9625C279.573 82.9625 280.148 83.5 280.148 84.425C280.148 85.3375 279.56 85.9 278.848 85.9ZM279.01 91.1375C277.873 91.1375 277.173 90.7375 277.173 90.0625C277.173 89.7125 277.348 89.3625 277.76 89.0625C278.048 89.125 278.36 89.1625 278.685 89.1625H279.723C280.56 89.1625 281.01 89.3375 281.01 89.9125C281.01 90.55 280.21 91.1375 279.01 91.1375ZM286.329 89.1625C287.229 89.1625 288.017 88.8625 288.654 88.4375L288.154 87.525C287.654 87.85 287.129 88.0375 286.517 88.0375C285.329 88.0375 284.504 87.25 284.392 85.9375H288.854C288.892 85.775 288.917 85.4875 288.917 85.2125C288.917 83.2625 287.942 81.95 286.117 81.95C284.504 81.95 282.979 83.3375 282.979 85.575C282.979 87.8375 284.467 89.1625 286.329 89.1625ZM284.379 84.95C284.517 83.7375 285.279 83.075 286.142 83.075C287.142 83.075 287.679 83.7625 287.679 84.95H284.379ZM290.535 89H291.96V84.7125C292.397 83.625 293.072 83.2375 293.635 83.2375C293.91 83.2375 294.085 83.275 294.322 83.35L294.585 82.1C294.372 82 294.147 81.95 293.81 81.95C293.072 81.95 292.347 82.475 291.86 83.3625H291.822L291.71 82.125H290.535V89ZM297.439 89.1625C299.139 89.1625 300.051 88.225 300.051 87.075C300.051 85.775 298.989 85.35 298.026 84.9875C297.276 84.7125 296.564 84.4875 296.564 83.9C296.564 83.425 296.914 83.05 297.664 83.05C298.239 83.05 298.726 83.3 299.201 83.65L299.876 82.7625C299.314 82.325 298.564 81.95 297.639 81.95C296.126 81.95 295.201 82.8125 295.201 83.9625C295.201 85.125 296.251 85.6125 297.164 85.9625C297.914 86.25 298.689 86.525 298.689 87.15C298.689 87.675 298.301 88.075 297.476 88.075C296.739 88.075 296.139 87.775 295.526 87.2875L294.851 88.2125C295.514 88.7625 296.489 89.1625 297.439 89.1625ZM306.015 89.1625C306.84 89.1625 307.577 88.75 308.202 88.2125H308.24L308.365 89H309.54V84.8625C309.54 83.0375 308.752 81.95 307.04 81.95C305.94 81.95 304.977 82.4 304.265 82.85L304.802 83.825C305.39 83.45 306.065 83.125 306.79 83.125C307.802 83.125 308.09 83.825 308.102 84.625C305.24 84.9375 303.99 85.7 303.99 87.175C303.99 88.3875 304.827 89.1625 306.015 89.1625ZM306.452 88.025C305.84 88.025 305.377 87.75 305.377 87.075C305.377 86.3 306.065 85.7875 308.102 85.5375V87.225C307.54 87.7375 307.052 88.025 306.452 88.025ZM313.442 89.1625C315.142 89.1625 316.055 88.225 316.055 87.075C316.055 85.775 314.992 85.35 314.03 84.9875C313.28 84.7125 312.567 84.4875 312.567 83.9C312.567 83.425 312.917 83.05 313.667 83.05C314.242 83.05 314.73 83.3 315.205 83.65L315.88 82.7625C315.317 82.325 314.567 81.95 313.642 81.95C312.13 81.95 311.205 82.8125 311.205 83.9625C311.205 85.125 312.255 85.6125 313.167 85.9625C313.917 86.25 314.692 86.525 314.692 87.15C314.692 87.675 314.305 88.075 313.48 88.075C312.742 88.075 312.142 87.775 311.53 87.2875L310.855 88.2125C311.517 88.7625 312.492 89.1625 313.442 89.1625ZM322.018 89.1625C322.843 89.1625 323.581 88.75 324.206 88.2125H324.243L324.368 89H325.543V84.8625C325.543 83.0375 324.756 81.95 323.043 81.95C321.943 81.95 320.981 82.4 320.268 82.85L320.806 83.825C321.393 83.45 322.068 83.125 322.793 83.125C323.806 83.125 324.093 83.825 324.106 84.625C321.243 84.9375 319.993 85.7 319.993 87.175C319.993 88.3875 320.831 89.1625 322.018 89.1625ZM322.456 88.025C321.843 88.025 321.381 87.75 321.381 87.075C321.381 86.3 322.068 85.7875 324.106 85.5375V87.225C323.543 87.7375 323.056 88.025 322.456 88.025ZM332.703 89.1625C333.203 89.1625 333.666 89.0375 334.053 88.9125L333.791 87.85C333.591 87.9375 333.291 88.0125 333.053 88.0125C332.341 88.0125 332.053 87.5875 332.053 86.7625V83.275H333.841V82.125H332.053V80.225H330.841L330.678 82.125L329.616 82.2V83.275H330.616V86.75C330.616 88.2 331.153 89.1625 332.703 89.1625ZM337.889 89.1625C339.589 89.1625 341.127 87.85 341.127 85.575C341.127 83.275 339.589 81.95 337.889 81.95C336.189 81.95 334.652 83.275 334.652 85.575C334.652 87.85 336.189 89.1625 337.889 89.1625ZM337.889 87.9875C336.814 87.9875 336.139 87.025 336.139 85.575C336.139 84.1125 336.814 83.1375 337.889 83.1375C338.977 83.1375 339.652 84.1125 339.652 85.575C339.652 87.025 338.977 87.9875 337.889 87.9875ZM345.567 89.1625C347.267 89.1625 348.805 87.85 348.805 85.575C348.805 83.275 347.267 81.95 345.567 81.95C343.867 81.95 342.33 83.275 342.33 85.575C342.33 87.85 343.867 89.1625 345.567 89.1625ZM345.567 87.9875C344.492 87.9875 343.817 87.025 343.817 85.575C343.817 84.1125 344.492 83.1375 345.567 83.1375C346.655 83.1375 347.33 84.1125 347.33 85.575C347.33 87.025 346.655 87.9875 345.567 87.9875ZM351.921 89.1625C352.271 89.1625 352.521 89.1125 352.696 89.05L352.508 87.9625C352.383 87.9875 352.333 87.9875 352.271 87.9875C352.096 87.9875 351.921 87.85 351.921 87.4625V79.0375H350.496V87.3875C350.496 88.5 350.883 89.1625 351.921 89.1625ZM213.52 95.1125C213.208 94.975 212.77 94.875 212.308 94.875C210.77 94.875 210.133 95.85 210.133 97.2625V98.125L209.195 98.2V99.275H210.133V105H211.57V99.275H212.958V98.125H211.57V97.25C211.57 96.4125 211.87 96.0125 212.483 96.0125C212.72 96.0125 212.983 96.075 213.233 96.1875L213.52 95.1125ZM216.82 105.163C218.52 105.163 220.057 103.85 220.057 101.575C220.057 99.275 218.52 97.95 216.82 97.95C215.12 97.95 213.582 99.275 213.582 101.575C213.582 103.85 215.12 105.163 216.82 105.163ZM216.82 103.987C215.745 103.987 215.07 103.025 215.07 101.575C215.07 100.112 215.745 99.1375 216.82 99.1375C217.907 99.1375 218.582 100.112 218.582 101.575C218.582 103.025 217.907 103.987 216.82 103.987ZM221.748 105H223.173V100.712C223.611 99.625 224.286 99.2375 224.848 99.2375C225.123 99.2375 225.298 99.275 225.536 99.35L225.798 98.1C225.586 98 225.361 97.95 225.023 97.95C224.286 97.95 223.561 98.475 223.073 99.3625H223.036L222.923 98.125H221.748V105ZM232.871 105.163C234.421 105.163 235.833 103.812 235.833 101.45C235.833 99.3375 234.846 97.95 233.108 97.95C232.383 97.95 231.646 98.3375 231.058 98.85L231.096 97.675V95.0375H229.671V105H230.796L230.933 104.287H230.971C231.558 104.85 232.246 105.163 232.871 105.163ZM232.596 103.975C232.171 103.975 231.621 103.812 231.096 103.35V99.9875C231.671 99.425 232.196 99.15 232.733 99.15C233.883 99.15 234.346 100.037 234.346 101.475C234.346 103.087 233.596 103.975 232.596 103.975ZM239.544 105.163C240.494 105.163 241.169 104.687 241.794 103.962H241.832L241.944 105H243.119V98.125H241.682V102.9C241.107 103.625 240.669 103.925 240.032 103.925C239.219 103.925 238.882 103.462 238.882 102.275V98.125H237.444V102.45C237.444 104.2 238.082 105.163 239.544 105.163ZM247.146 105.163C248.846 105.163 249.758 104.225 249.758 103.075C249.758 101.775 248.696 101.35 247.733 100.987C246.983 100.712 246.271 100.487 246.271 99.9C246.271 99.425 246.621 99.05 247.371 99.05C247.946 99.05 248.433 99.3 248.908 99.65L249.583 98.7625C249.021 98.325 248.271 97.95 247.346 97.95C245.833 97.95 244.908 98.8125 244.908 99.9625C244.908 101.125 245.958 101.612 246.871 101.962C247.621 102.25 248.396 102.525 248.396 103.15C248.396 103.675 248.008 104.075 247.183 104.075C246.446 104.075 245.846 103.775 245.233 103.287L244.558 104.212C245.221 104.762 246.196 105.163 247.146 105.163ZM251.289 105H252.714V98.125H251.289V105ZM252.002 96.8375C252.527 96.8375 252.927 96.4875 252.927 95.9875C252.927 95.475 252.527 95.1375 252.002 95.1375C251.477 95.1375 251.089 95.475 251.089 95.9875C251.089 96.4875 251.477 96.8375 252.002 96.8375ZM254.878 105H256.303V100.125C256.916 99.5125 257.353 99.1875 257.991 99.1875C258.803 99.1875 259.153 99.6625 259.153 100.85V105H260.591V100.675C260.591 98.925 259.941 97.95 258.478 97.95C257.541 97.95 256.841 98.4625 256.203 99.075H256.166L256.053 98.125H254.878V105ZM265.541 105.163C266.441 105.163 267.228 104.862 267.866 104.437L267.366 103.525C266.866 103.85 266.341 104.037 265.728 104.037C264.541 104.037 263.716 103.25 263.603 101.937H268.066C268.103 101.775 268.128 101.487 268.128 101.212C268.128 99.2625 267.153 97.95 265.328 97.95C263.716 97.95 262.191 99.3375 262.191 101.575C262.191 103.837 263.678 105.163 265.541 105.163ZM263.591 100.95C263.728 99.7375 264.491 99.075 265.353 99.075C266.353 99.075 266.891 99.7625 266.891 100.95H263.591ZM271.609 105.163C273.309 105.163 274.221 104.225 274.221 103.075C274.221 101.775 273.159 101.35 272.196 100.987C271.446 100.712 270.734 100.487 270.734 99.9C270.734 99.425 271.084 99.05 271.834 99.05C272.409 99.05 272.896 99.3 273.371 99.65L274.046 98.7625C273.484 98.325 272.734 97.95 271.809 97.95C270.296 97.95 269.371 98.8125 269.371 99.9625C269.371 101.125 270.421 101.612 271.334 101.962C272.084 102.25 272.859 102.525 272.859 103.15C272.859 103.675 272.471 104.075 271.646 104.075C270.909 104.075 270.309 103.775 269.696 103.287L269.021 104.212C269.684 104.762 270.659 105.163 271.609 105.163ZM277.615 105.163C279.315 105.163 280.227 104.225 280.227 103.075C280.227 101.775 279.165 101.35 278.202 100.987C277.452 100.712 276.74 100.487 276.74 99.9C276.74 99.425 277.09 99.05 277.84 99.05C278.415 99.05 278.902 99.3 279.377 99.65L280.052 98.7625C279.49 98.325 278.74 97.95 277.815 97.95C276.302 97.95 275.377 98.8125 275.377 99.9625C275.377 101.125 276.427 101.612 277.34 101.962C278.09 102.25 278.865 102.525 278.865 103.15C278.865 103.675 278.477 104.075 277.652 104.075C276.915 104.075 276.315 103.775 275.702 103.287L275.027 104.212C275.69 104.762 276.665 105.163 277.615 105.163ZM287.366 105.163C288.153 105.163 288.966 104.875 289.591 104.312L289.003 103.362C288.591 103.712 288.078 103.987 287.503 103.987C286.353 103.987 285.566 103.025 285.566 101.575C285.566 100.112 286.391 99.1375 287.541 99.1375C288.016 99.1375 288.403 99.3375 288.778 99.675L289.491 98.7375C288.991 98.3 288.353 97.95 287.478 97.95C285.666 97.95 284.078 99.275 284.078 101.575C284.078 103.85 285.503 105.163 287.366 105.163ZM293.443 105.163C295.143 105.163 296.681 103.85 296.681 101.575C296.681 99.275 295.143 97.95 293.443 97.95C291.743 97.95 290.206 99.275 290.206 101.575C290.206 103.85 291.743 105.163 293.443 105.163ZM293.443 103.987C292.368 103.987 291.693 103.025 291.693 101.575C291.693 100.112 292.368 99.1375 293.443 99.1375C294.531 99.1375 295.206 100.112 295.206 101.575C295.206 103.025 294.531 103.987 293.443 103.987ZM298.372 105H299.797V100.125C300.372 99.5 300.884 99.1875 301.347 99.1875C302.134 99.1875 302.497 99.6625 302.497 100.85V105H303.934V100.125C304.509 99.5 305.009 99.1875 305.484 99.1875C306.259 99.1875 306.634 99.6625 306.634 100.85V105H308.072V100.675C308.072 98.925 307.397 97.95 305.959 97.95C305.097 97.95 304.397 98.4875 303.722 99.2125C303.422 98.425 302.847 97.95 301.822 97.95C300.972 97.95 300.284 98.4625 299.697 99.0875H299.659L299.547 98.125H298.372V105ZM310.151 105H311.576V100.125C312.151 99.5 312.664 99.1875 313.126 99.1875C313.914 99.1875 314.276 99.6625 314.276 100.85V105H315.714V100.125C316.289 99.5 316.789 99.1875 317.264 99.1875C318.039 99.1875 318.414 99.6625 318.414 100.85V105H319.851V100.675C319.851 98.925 319.176 97.95 317.739 97.95C316.876 97.95 316.176 98.4875 315.501 99.2125C315.201 98.425 314.626 97.95 313.601 97.95C312.751 97.95 312.064 98.4625 311.476 99.0875H311.439L311.326 98.125H310.151V105ZM323.944 105.163C324.894 105.163 325.569 104.687 326.194 103.962H326.231L326.344 105H327.519V98.125H326.081V102.9C325.506 103.625 325.069 103.925 324.431 103.925C323.619 103.925 323.281 103.462 323.281 102.275V98.125H321.844V102.45C321.844 104.2 322.481 105.163 323.944 105.163ZM329.683 105H331.108V100.125C331.72 99.5125 332.158 99.1875 332.795 99.1875C333.608 99.1875 333.958 99.6625 333.958 100.85V105H335.395V100.675C335.395 98.925 334.745 97.95 333.283 97.95C332.345 97.95 331.645 98.4625 331.008 99.075H330.97L330.858 98.125H329.683V105ZM337.483 105H338.908V98.125H337.483V105ZM338.196 96.8375C338.721 96.8375 339.121 96.4875 339.121 95.9875C339.121 95.475 338.721 95.1375 338.196 95.1375C337.671 95.1375 337.283 95.475 337.283 95.9875C337.283 96.4875 337.671 96.8375 338.196 96.8375ZM343.872 105.163C344.659 105.163 345.472 104.875 346.097 104.312L345.509 103.362C345.097 103.712 344.584 103.987 344.009 103.987C342.859 103.987 342.072 103.025 342.072 101.575C342.072 100.112 342.897 99.1375 344.047 99.1375C344.522 99.1375 344.909 99.3375 345.284 99.675L345.997 98.7375C345.497 98.3 344.859 97.95 343.984 97.95C342.172 97.95 340.584 99.275 340.584 101.575C340.584 103.85 342.009 105.163 343.872 105.163ZM349.02 105.163C349.845 105.163 350.583 104.75 351.208 104.212H351.245L351.37 105H352.545V100.862C352.545 99.0375 351.758 97.95 350.045 97.95C348.945 97.95 347.983 98.4 347.27 98.85L347.808 99.825C348.395 99.45 349.07 99.125 349.795 99.125C350.808 99.125 351.095 99.825 351.108 100.625C348.245 100.937 346.995 101.7 346.995 103.175C346.995 104.387 347.833 105.163 349.02 105.163ZM349.458 104.025C348.845 104.025 348.383 103.75 348.383 103.075C348.383 102.3 349.07 101.788 351.108 101.537V103.225C350.545 103.737 350.058 104.025 349.458 104.025ZM356.69 105.163C357.19 105.163 357.653 105.038 358.04 104.912L357.778 103.85C357.578 103.937 357.278 104.012 357.04 104.012C356.328 104.012 356.04 103.587 356.04 102.762V99.275H357.828V98.125H356.04V96.225H354.828L354.665 98.125L353.603 98.2V99.275H354.603V102.75C354.603 104.2 355.14 105.163 356.69 105.163ZM359.334 105H360.759V98.125H359.334V105ZM360.046 96.8375C360.571 96.8375 360.971 96.4875 360.971 95.9875C360.971 95.475 360.571 95.1375 360.046 95.1375C359.521 95.1375 359.134 95.475 359.134 95.9875C359.134 96.4875 359.521 96.8375 360.046 96.8375ZM365.672 105.163C367.372 105.163 368.91 103.85 368.91 101.575C368.91 99.275 367.372 97.95 365.672 97.95C363.972 97.95 362.435 99.275 362.435 101.575C362.435 103.85 363.972 105.163 365.672 105.163ZM365.672 103.987C364.597 103.987 363.922 103.025 363.922 101.575C363.922 100.112 364.597 99.1375 365.672 99.1375C366.76 99.1375 367.435 100.112 367.435 101.575C367.435 103.025 366.76 103.987 365.672 103.987ZM370.601 105H372.026V100.125C372.638 99.5125 373.076 99.1875 373.713 99.1875C374.526 99.1875 374.876 99.6625 374.876 100.85V105H376.313V100.675C376.313 98.925 375.663 97.95 374.201 97.95C373.263 97.95 372.563 98.4625 371.926 99.075H371.888L371.776 98.125H370.601V105Z" fill="black"/>
<g clip-path="url(#clip1_209_376)">
<path d="M498.376 48.96H488V44.8161L496.93 31.0142H503.253V44.8292H506.273V48.96H503.253V53.4823H498.376V48.96ZM498.376 44.8227V36.163L492.931 44.8161L498.376 44.8227ZM507.769 46.9174H512.844C513.042 48.712 514.092 49.7594 516.219 49.7594C518.346 49.7594 519.594 48.2422 519.594 46.1702C519.594 44.0983 518.346 42.6137 516.135 42.6137C515.505 42.5855 514.878 42.7093 514.309 42.974C513.74 43.2387 513.247 43.6361 512.875 44.1309H508.185L508.856 31.0044H523.458V35.2788H513.545L513.287 39.4977C514.415 38.8599 515.7 38.5349 517.004 38.5579C521.54 38.5579 524.602 41.3999 524.602 46.1702C524.602 50.9406 520.973 54.0011 516.216 54.0011C511.191 54.0011 508.128 51.244 507.759 46.9109L507.769 46.9174Z" fill="#00AAFF"/>
<path d="M532.563 42.8215C532.563 44.4791 531.305 45.6896 529.477 45.6896C527.648 45.6896 526.407 44.4791 526.407 42.8215C526.407 41.164 527.665 39.9404 529.477 39.9404C531.288 39.9404 532.563 41.1477 532.563 42.8215ZM530.117 52.3361H528.004L536.296 40.1493H538.4L530.117 52.3361ZM528.306 42.8215C528.3 42.974 528.327 43.1259 528.384 43.2679C528.441 43.4099 528.528 43.5389 528.639 43.6469C528.75 43.755 528.882 43.8397 529.028 43.8958C529.174 43.952 529.33 43.9784 529.487 43.9733C529.643 43.9783 529.8 43.952 529.946 43.8958C530.092 43.8397 530.224 43.7551 530.335 43.6471C530.446 43.5391 530.533 43.4102 530.591 43.2682C530.649 43.1262 530.676 42.9742 530.671 42.8215C530.675 42.6692 530.648 42.5176 530.59 42.3759C530.532 42.2343 530.445 42.1058 530.334 41.9981C530.223 41.8905 530.091 41.8062 529.945 41.7502C529.799 41.6943 529.643 41.668 529.487 41.673C529.329 41.6666 529.172 41.6919 529.026 41.7473C528.879 41.8026 528.745 41.8868 528.634 41.9946C528.522 42.1024 528.434 42.2315 528.376 42.3738C528.318 42.5161 528.29 42.6685 528.296 42.8215H528.306ZM540.007 49.6736C540.007 51.3311 538.749 52.5417 536.92 52.5417C535.092 52.5417 533.848 51.3311 533.848 49.6736C533.848 48.016 535.109 46.7892 536.92 46.7892C538.732 46.7892 539.997 48.0063 539.997 49.6801L540.007 49.6736ZM535.736 49.6736C535.732 49.8259 535.759 49.9776 535.817 50.1192C535.875 50.2608 535.962 50.3894 536.073 50.497C536.184 50.6046 536.316 50.689 536.462 50.7449C536.608 50.8008 536.764 50.8271 536.92 50.8221C537.077 50.8271 537.233 50.8008 537.378 50.7449C537.524 50.6889 537.656 50.6045 537.767 50.4968C537.878 50.3892 537.964 50.2606 538.022 50.1189C538.079 49.9773 538.106 49.8258 538.101 49.6736C538.107 49.5211 538.08 49.3692 538.023 49.2272C537.966 49.0852 537.879 48.9562 537.768 48.8482C537.657 48.7402 537.525 48.6555 537.379 48.5993C537.233 48.5432 537.077 48.5168 536.92 48.5218C536.762 48.5154 536.604 48.5409 536.456 48.5968C536.309 48.6527 536.175 48.7377 536.062 48.8465C535.95 48.9554 535.862 49.0856 535.805 49.2291C535.747 49.3725 535.72 49.5261 535.726 49.6801L535.736 49.6736Z" fill="#00AAFF"/>
</g>
<circle opacity="0.1" cx="455" cy="43" r="17" fill="#397AF6"/>
<path fill-rule="evenodd" clip-rule="evenodd" d="M454.414 26V43.2834L464.325 57.2065C461.648 58.9663 458.443 59.9901 455 59.9901C445.611 59.9901 438 52.3789 438 42.9901C438 33.7974 445.296 26.309 454.414 26Z" fill="#31A8F6"/>
<path d="M440.95 89.1625C442.65 89.1625 443.563 88.225 443.563 87.075C443.563 85.775 442.5 85.35 441.538 84.9875C440.788 84.7125 440.075 84.4875 440.075 83.9C440.075 83.425 440.425 83.05 441.175 83.05C441.75 83.05 442.238 83.3 442.713 83.65L443.388 82.7625C442.825 82.325 442.075 81.95 441.15 81.95C439.638 81.95 438.713 82.8125 438.713 83.9625C438.713 85.125 439.763 85.6125 440.675 85.9625C441.425 86.25 442.2 86.525 442.2 87.15C442.2 87.675 441.813 88.075 440.988 88.075C440.25 88.075 439.65 87.775 439.038 87.2875L438.363 88.2125C439.025 88.7625 440 89.1625 440.95 89.1625ZM445.093 89H446.518V84.125C447.131 83.5125 447.568 83.1875 448.206 83.1875C449.018 83.1875 449.368 83.6625 449.368 84.85V89H450.806V84.675C450.806 82.925 450.156 81.95 448.693 81.95C447.756 81.95 447.068 82.4625 446.468 83.0375L446.518 81.675V79.0375H445.093V89ZM454.482 89.1625C455.307 89.1625 456.045 88.75 456.67 88.2125H456.707L456.832 89H458.007V84.8625C458.007 83.0375 457.22 81.95 455.507 81.95C454.407 81.95 453.445 82.4 452.732 82.85L453.27 83.825C453.857 83.45 454.532 83.125 455.257 83.125C456.27 83.125 456.557 83.825 456.57 84.625C453.707 84.9375 452.457 85.7 452.457 87.175C452.457 88.3875 453.295 89.1625 454.482 89.1625ZM454.92 88.025C454.307 88.025 453.845 87.75 453.845 87.075C453.845 86.3 454.532 85.7875 456.57 85.5375V87.225C456.007 87.7375 455.52 88.025 454.92 88.025ZM460.047 89H461.472V84.7125C461.909 83.625 462.584 83.2375 463.147 83.2375C463.422 83.2375 463.597 83.275 463.834 83.35L464.097 82.1C463.884 82 463.659 81.95 463.322 81.95C462.584 81.95 461.859 82.475 461.372 83.3625H461.334L461.222 82.125H460.047V89ZM467.89 89.1625C468.79 89.1625 469.577 88.8625 470.215 88.4375L469.715 87.525C469.215 87.85 468.69 88.0375 468.077 88.0375C466.89 88.0375 466.065 87.25 465.952 85.9375H470.415C470.452 85.775 470.477 85.4875 470.477 85.2125C470.477 83.2625 469.502 81.95 467.677 81.95C466.065 81.95 464.54 83.3375 464.54 85.575C464.54 87.8375 466.027 89.1625 467.89 89.1625ZM465.94 84.95C466.077 83.7375 466.84 83.075 467.702 83.075C468.702 83.075 469.24 83.7625 469.24 84.95H465.94ZM476.528 89.1625C477.353 89.1625 478.09 88.75 478.715 88.2125H478.753L478.878 89H480.053V84.8625C480.053 83.0375 479.265 81.95 477.553 81.95C476.453 81.95 475.49 82.4 474.778 82.85L475.315 83.825C475.903 83.45 476.578 83.125 477.303 83.125C478.315 83.125 478.603 83.825 478.615 84.625C475.753 84.9375 474.503 85.7 474.503 87.175C474.503 88.3875 475.34 89.1625 476.528 89.1625ZM476.965 88.025C476.353 88.025 475.89 87.75 475.89 87.075C475.89 86.3 476.578 85.7875 478.615 85.5375V87.225C478.053 87.7375 477.565 88.025 476.965 88.025ZM486.013 89H487.675L488.513 85.6125C488.688 84.9625 488.813 84.325 488.95 83.6125H489.013C489.163 84.325 489.288 84.95 489.45 85.6L490.325 89H492.05L493.825 82.125H492.475L491.588 85.85C491.438 86.5125 491.325 87.15 491.188 87.8H491.138C490.975 87.15 490.838 86.5125 490.675 85.85L489.688 82.125H488.35L487.388 85.85C487.225 86.5 487.088 87.15 486.938 87.8H486.888C486.763 87.15 486.65 86.5125 486.513 85.85L485.6 82.125H484.15L486.013 89ZM495.252 89H496.677V84.7125C497.115 83.625 497.79 83.2375 498.352 83.2375C498.627 83.2375 498.802 83.275 499.04 83.35L499.302 82.1C499.09 82 498.865 81.95 498.527 81.95C497.79 81.95 497.065 82.475 496.577 83.3625H496.54L496.427 82.125H495.252V89ZM502.983 89.1625C504.683 89.1625 506.22 87.85 506.22 85.575C506.22 83.275 504.683 81.95 502.983 81.95C501.283 81.95 499.745 83.275 499.745 85.575C499.745 87.85 501.283 89.1625 502.983 89.1625ZM502.983 87.9875C501.908 87.9875 501.233 87.025 501.233 85.575C501.233 84.1125 501.908 83.1375 502.983 83.1375C504.07 83.1375 504.745 84.1125 504.745 85.575C504.745 87.025 504.07 87.9875 502.983 87.9875ZM507.911 89H509.336V84.125C509.948 83.5125 510.386 83.1875 511.023 83.1875C511.836 83.1875 512.186 83.6625 512.186 84.85V89H513.623V84.675C513.623 82.925 512.973 81.95 511.511 81.95C510.573 81.95 509.873 82.4625 509.236 83.075H509.198L509.086 82.125H507.911V89ZM518.061 92.0875C520.261 92.0875 521.661 91.0125 521.661 89.6875C521.661 88.5125 520.811 88.0125 519.186 88.0125H517.924C517.049 88.0125 516.774 87.75 516.774 87.3375C516.774 87.0125 516.924 86.8125 517.149 86.6125C517.449 86.75 517.799 86.825 518.111 86.825C519.549 86.825 520.686 85.9625 520.686 84.4625C520.686 83.9375 520.499 83.475 520.236 83.2H521.549V82.125H519.111C518.849 82.025 518.499 81.95 518.111 81.95C516.686 81.95 515.449 82.8625 515.449 84.425C515.449 85.2375 515.886 85.8875 516.349 86.25V86.3C515.974 86.575 515.586 87.0375 515.586 87.575C515.586 88.1375 515.861 88.5 516.211 88.7125V88.775C515.574 89.1625 515.211 89.7 515.211 90.275C515.211 91.475 516.411 92.0875 518.061 92.0875ZM518.111 85.9C517.399 85.9 516.811 85.3375 516.811 84.425C516.811 83.4875 517.386 82.9625 518.111 82.9625C518.836 82.9625 519.411 83.5 519.411 84.425C519.411 85.3375 518.824 85.9 518.111 85.9ZM518.274 91.1375C517.136 91.1375 516.436 90.7375 516.436 90.0625C516.436 89.7125 516.611 89.3625 517.024 89.0625C517.311 89.125 517.624 89.1625 517.949 89.1625H518.986C519.824 89.1625 520.274 89.3375 520.274 89.9125C520.274 90.55 519.474 91.1375 518.274 91.1375ZM528.12 89.1625C528.895 89.1625 529.608 88.75 530.12 88.225H530.158L530.283 89H531.458V79.0375H530.02V81.5875L530.083 82.725C529.52 82.25 529.02 81.95 528.233 81.95C526.695 81.95 525.283 83.3375 525.283 85.575C525.283 87.85 526.395 89.1625 528.12 89.1625ZM528.458 87.975C527.383 87.975 526.77 87.1125 526.77 85.55C526.77 84.0625 527.545 83.15 528.508 83.15C529.02 83.15 529.508 83.3125 530.02 83.775V87.1375C529.52 87.7125 529.033 87.975 528.458 87.975ZM536.369 89.1625C538.069 89.1625 539.606 87.85 539.606 85.575C539.606 83.275 538.069 81.95 536.369 81.95C534.669 81.95 533.131 83.275 533.131 85.575C533.131 87.85 534.669 89.1625 536.369 89.1625ZM536.369 87.9875C535.294 87.9875 534.619 87.025 534.619 85.575C534.619 84.1125 535.294 83.1375 536.369 83.1375C537.456 83.1375 538.131 84.1125 538.131 85.575C538.131 87.025 537.456 87.9875 536.369 87.9875ZM544.097 89.1625C544.884 89.1625 545.697 88.875 546.322 88.3125L545.734 87.3625C545.322 87.7125 544.809 87.9875 544.234 87.9875C543.084 87.9875 542.297 87.025 542.297 85.575C542.297 84.1125 543.122 83.1375 544.272 83.1375C544.747 83.1375 545.134 83.3375 545.509 83.675L546.222 82.7375C545.722 82.3 545.084 81.95 544.209 81.95C542.397 81.95 540.809 83.275 540.809 85.575C540.809 87.85 542.234 89.1625 544.097 89.1625ZM549.767 89.1625C550.717 89.1625 551.392 88.6875 552.017 87.9625H552.054L552.167 89H553.342V82.125H551.904V86.9C551.329 87.625 550.892 87.925 550.254 87.925C549.442 87.925 549.104 87.4625 549.104 86.275V82.125H547.667V86.45C547.667 88.2 548.304 89.1625 549.767 89.1625ZM555.506 89H556.931V84.125C557.506 83.5 558.018 83.1875 558.481 83.1875C559.268 83.1875 559.631 83.6625 559.631 84.85V89H561.068V84.125C561.643 83.5 562.143 83.1875 562.618 83.1875C563.393 83.1875 563.768 83.6625 563.768 84.85V89H565.206V84.675C565.206 82.925 564.531 81.95 563.093 81.95C562.231 81.95 561.531 82.4875 560.856 83.2125C560.556 82.425 559.981 81.95 558.956 81.95C558.106 81.95 557.418 82.4625 556.831 83.0875H556.793L556.681 82.125H555.506V89ZM570.148 89.1625C571.048 89.1625 571.836 88.8625 572.473 88.4375L571.973 87.525C571.473 87.85 570.948 88.0375 570.336 88.0375C569.148 88.0375 568.323 87.25 568.211 85.9375H572.673C572.711 85.775 572.736 85.4875 572.736 85.2125C572.736 83.2625 571.761 81.95 569.936 81.95C568.323 81.95 566.798 83.3375 566.798 85.575C566.798 87.8375 568.286 89.1625 570.148 89.1625ZM568.198 84.95C568.336 83.7375 569.098 83.075 569.961 83.075C570.961 83.075 571.498 83.7625 571.498 84.95H568.198ZM574.354 89H575.779V84.125C576.391 83.5125 576.829 83.1875 577.466 83.1875C578.279 83.1875 578.629 83.6625 578.629 84.85V89H580.066V84.675C580.066 82.925 579.416 81.95 577.954 81.95C577.016 81.95 576.316 82.4625 575.679 83.075H575.641L575.529 82.125H574.354V89ZM584.466 89.1625C584.966 89.1625 585.429 89.0375 585.816 88.9125L585.554 87.85C585.354 87.9375 585.054 88.0125 584.816 88.0125C584.104 88.0125 583.816 87.5875 583.816 86.7625V83.275H585.604V82.125H583.816V80.225H582.604L582.441 82.125L581.379 82.2V83.275H582.379V86.75C582.379 88.2 582.916 89.1625 584.466 89.1625ZM439.088 105H440.513V100.125C441.088 99.5 441.6 99.1875 442.063 99.1875C442.85 99.1875 443.213 99.6625 443.213 100.85V105H444.65V100.125C445.225 99.5 445.725 99.1875 446.2 99.1875C446.975 99.1875 447.35 99.6625 447.35 100.85V105H448.788V100.675C448.788 98.925 448.113 97.95 446.675 97.95C445.812 97.95 445.113 98.4875 444.438 99.2125C444.138 98.425 443.563 97.95 442.538 97.95C441.688 97.95 441 98.4625 440.413 99.0875H440.375L440.263 98.125H439.088V105ZM453.617 105.163C455.317 105.163 456.855 103.85 456.855 101.575C456.855 99.275 455.317 97.95 453.617 97.95C451.917 97.95 450.38 99.275 450.38 101.575C450.38 103.85 451.917 105.163 453.617 105.163ZM453.617 103.987C452.542 103.987 451.867 103.025 451.867 101.575C451.867 100.112 452.542 99.1375 453.617 99.1375C454.705 99.1375 455.38 100.112 455.38 101.575C455.38 103.025 454.705 103.987 453.617 103.987ZM458.546 105H459.971V100.712C460.408 99.625 461.083 99.2375 461.646 99.2375C461.921 99.2375 462.096 99.275 462.333 99.35L462.596 98.1C462.383 98 462.158 97.95 461.821 97.95C461.083 97.95 460.358 98.475 459.871 99.3625H459.833L459.721 98.125H458.546V105ZM466.388 105.163C467.288 105.163 468.076 104.862 468.713 104.437L468.213 103.525C467.713 103.85 467.188 104.037 466.576 104.037C465.388 104.037 464.563 103.25 464.451 101.937H468.913C468.951 101.775 468.976 101.487 468.976 101.212C468.976 99.2625 468.001 97.95 466.176 97.95C464.563 97.95 463.038 99.3375 463.038 101.575C463.038 103.837 464.526 105.163 466.388 105.163ZM464.438 100.95C464.576 99.7375 465.338 99.075 466.201 99.075C467.201 99.075 467.738 99.7625 467.738 100.95H464.438ZM475.714 105.163C476.214 105.163 476.676 105.038 477.064 104.912L476.801 103.85C476.601 103.937 476.301 104.012 476.064 104.012C475.351 104.012 475.064 103.587 475.064 102.762V99.275H476.851V98.125H475.064V96.225H473.851L473.689 98.125L472.626 98.2V99.275H473.626V102.75C473.626 104.2 474.164 105.163 475.714 105.163ZM478.358 105H479.783V100.125C480.395 99.5125 480.833 99.1875 481.47 99.1875C482.283 99.1875 482.633 99.6625 482.633 100.85V105H484.07V100.675C484.07 98.925 483.42 97.95 481.958 97.95C481.02 97.95 480.333 98.4625 479.733 99.0375L479.783 97.675V95.0375H478.358V105ZM487.746 105.163C488.571 105.163 489.309 104.75 489.934 104.212H489.971L490.096 105H491.271V100.862C491.271 99.0375 490.484 97.95 488.771 97.95C487.671 97.95 486.709 98.4 485.996 98.85L486.534 99.825C487.121 99.45 487.796 99.125 488.521 99.125C489.534 99.125 489.821 99.825 489.834 100.625C486.971 100.937 485.721 101.7 485.721 103.175C485.721 104.387 486.559 105.163 487.746 105.163ZM488.184 104.025C487.571 104.025 487.109 103.75 487.109 103.075C487.109 102.3 487.796 101.788 489.834 101.537V103.225C489.271 103.737 488.784 104.025 488.184 104.025ZM493.311 105H494.736V100.125C495.349 99.5125 495.786 99.1875 496.424 99.1875C497.236 99.1875 497.586 99.6625 497.586 100.85V105H499.024V100.675C499.024 98.925 498.374 97.95 496.911 97.95C495.974 97.95 495.274 98.4625 494.636 99.075H494.599L494.486 98.125H493.311V105ZM506.669 105.163C508.369 105.163 509.907 103.85 509.907 101.575C509.907 99.275 508.369 97.95 506.669 97.95C504.969 97.95 503.432 99.275 503.432 101.575C503.432 103.85 504.969 105.163 506.669 105.163ZM506.669 103.987C505.594 103.987 504.919 103.025 504.919 101.575C504.919 100.112 505.594 99.1375 506.669 99.1375C507.757 99.1375 508.432 100.112 508.432 101.575C508.432 103.025 507.757 103.987 506.669 103.987ZM511.597 105H513.022V100.125C513.635 99.5125 514.072 99.1875 514.71 99.1875C515.522 99.1875 515.872 99.6625 515.872 100.85V105H517.31V100.675C517.31 98.925 516.66 97.95 515.197 97.95C514.26 97.95 513.56 98.4625 512.922 99.075H512.885L512.772 98.125H511.597V105ZM522.198 105.163C522.985 105.163 523.798 104.875 524.423 104.312L523.835 103.362C523.423 103.712 522.91 103.987 522.335 103.987C521.185 103.987 520.398 103.025 520.398 101.575C520.398 100.112 521.223 99.1375 522.373 99.1375C522.848 99.1375 523.235 99.3375 523.61 99.675L524.323 98.7375C523.823 98.3 523.185 97.95 522.31 97.95C520.498 97.95 518.91 99.275 518.91 101.575C518.91 103.85 520.335 105.163 522.198 105.163ZM528.388 105.163C529.288 105.163 530.075 104.862 530.713 104.437L530.213 103.525C529.713 103.85 529.188 104.037 528.575 104.037C527.388 104.037 526.563 103.25 526.45 101.937H530.913C530.95 101.775 530.975 101.487 530.975 101.212C530.975 99.2625 530 97.95 528.175 97.95C526.563 97.95 525.038 99.3375 525.038 101.575C525.038 103.837 526.525 105.163 528.388 105.163ZM526.438 100.95C526.575 99.7375 527.338 99.075 528.2 99.075C529.2 99.075 529.738 99.7625 529.738 100.95H526.438ZM537.026 105.163C537.851 105.163 538.588 104.75 539.213 104.212H539.251L539.376 105H540.551V100.862C540.551 99.0375 539.763 97.95 538.051 97.95C536.951 97.95 535.988 98.4 535.276 98.85L535.813 99.825C536.401 99.45 537.076 99.125 537.801 99.125C538.813 99.125 539.101 99.825 539.113 100.625C536.251 100.937 535.001 101.7 535.001 103.175C535.001 104.387 535.838 105.163 537.026 105.163ZM537.463 104.025C536.851 104.025 536.388 103.75 536.388 103.075C536.388 102.3 537.076 101.788 539.113 101.537V103.225C538.551 103.737 538.063 104.025 537.463 104.025ZM545.399 105H546.824V100.125C547.399 99.5 547.911 99.1875 548.374 99.1875C549.161 99.1875 549.524 99.6625 549.524 100.85V105H550.961V100.125C551.536 99.5 552.036 99.1875 552.511 99.1875C553.286 99.1875 553.661 99.6625 553.661 100.85V105H555.099V100.675C555.099 98.925 554.424 97.95 552.986 97.95C552.124 97.95 551.424 98.4875 550.749 99.2125C550.449 98.425 549.874 97.95 548.849 97.95C547.999 97.95 547.311 98.4625 546.724 99.0875H546.686L546.574 98.125H545.399V105ZM559.928 105.163C561.628 105.163 563.166 103.85 563.166 101.575C563.166 99.275 561.628 97.95 559.928 97.95C558.228 97.95 556.691 99.275 556.691 101.575C556.691 103.85 558.228 105.163 559.928 105.163ZM559.928 103.987C558.853 103.987 558.178 103.025 558.178 101.575C558.178 100.112 558.853 99.1375 559.928 99.1375C561.016 99.1375 561.691 100.112 561.691 101.575C561.691 103.025 561.016 103.987 559.928 103.987ZM564.857 105H566.282V100.125C566.894 99.5125 567.332 99.1875 567.969 99.1875C568.782 99.1875 569.132 99.6625 569.132 100.85V105H570.569V100.675C570.569 98.925 569.919 97.95 568.457 97.95C567.519 97.95 566.819 98.4625 566.182 99.075H566.144L566.032 98.125H564.857V105ZM574.969 105.163C575.469 105.163 575.932 105.038 576.319 104.912L576.057 103.85C575.857 103.937 575.557 104.012 575.319 104.012C574.607 104.012 574.319 103.587 574.319 102.762V99.275H576.107V98.125H574.319V96.225H573.107L572.944 98.125L571.882 98.2V99.275H572.882V102.75C572.882 104.2 573.419 105.163 574.969 105.163ZM577.613 105H579.038V100.125C579.65 99.5125 580.088 99.1875 580.725 99.1875C581.538 99.1875 581.888 99.6625 581.888 100.85V105H583.325V100.675C583.325 98.925 582.675 97.95 581.213 97.95C580.275 97.95 579.588 98.4625 578.988 99.0375L579.038 97.675V95.0375H577.613V105Z" fill="black"/>
<g clip-path="url(#clip2_209_376)">
<path d="M697 46.989C697 44.7758 697.732 43.0663 699.088 40.9393L705.016 31.6129H710.832L705.608 39.339C705.817 39.2647 706.037 39.2266 706.259 39.2264C710.748 39.2264 714.446 42.3374 714.446 46.9558C714.446 51.6339 710.551 54.9669 705.721 54.9669C700.891 54.9669 697 51.8592 697 46.989ZM709.449 47.0155C709.449 44.9713 708.009 43.3711 705.721 43.3711C703.433 43.3711 701.99 44.9713 701.99 47.0155C701.99 49.0596 703.43 50.6599 705.715 50.6599C707.999 50.6599 709.449 49.0596 709.449 47.0155ZM733.722 43.0132C733.722 50.9912 729.941 54.9967 724.914 54.9967C719.887 54.9967 716.106 50.9912 716.106 43.0132C716.106 35.0353 719.89 31 724.914 31C729.938 31 733.722 35.0022 733.722 43.0132ZM720.962 43.0132C720.962 48.1916 722.656 50.5439 724.914 50.5439C727.172 50.5439 728.869 48.1916 728.869 43.0132C728.869 37.8349 727.175 35.4495 724.914 35.4495C722.653 35.4495 720.966 37.8018 720.966 43.0132H720.962Z" fill="#00AAFF"/>
<path d="M741.598 43.6198C741.598 45.3028 740.342 46.532 738.525 46.532C736.708 46.532 735.465 45.3028 735.465 43.6198C735.465 41.9367 736.718 40.6943 738.525 40.6943C740.332 40.6943 741.598 41.9202 741.598 43.6198ZM739.15 53.2808H737.062L745.319 40.9196H747.417L739.15 53.2808ZM737.346 43.6198C737.341 43.7747 737.368 43.9291 737.425 44.0733C737.483 44.2175 737.569 44.3484 737.68 44.458C737.79 44.5677 737.923 44.6536 738.068 44.7106C738.213 44.7676 738.369 44.7944 738.525 44.7893C738.681 44.7944 738.837 44.7676 738.982 44.7106C739.127 44.6536 739.259 44.5676 739.369 44.4579C739.479 44.3482 739.566 44.2172 739.623 44.073C739.68 43.9289 739.706 43.7746 739.701 43.6198C739.706 43.4653 739.679 43.3114 739.622 43.1676C739.564 43.0238 739.478 42.8932 739.368 42.7839C739.258 42.6746 739.126 42.5888 738.981 42.532C738.836 42.4752 738.681 42.4485 738.525 42.4536C738.369 42.4485 738.214 42.4752 738.069 42.532C737.924 42.5888 737.792 42.6744 737.681 42.7837C737.571 42.893 737.484 43.0235 737.426 43.1673C737.369 43.3111 737.341 43.4651 737.346 43.6198V43.6198ZM749 50.5773C749 52.2636 747.744 53.4895 745.924 53.4895C744.103 53.4895 742.867 52.2636 742.867 50.5773C742.867 48.8909 744.12 47.6518 745.924 47.6518C747.727 47.6518 749 48.8843 749 50.5806V50.5773ZM744.748 50.5773C744.742 50.7321 744.769 50.8863 744.826 51.0305C744.883 51.1747 744.969 51.3057 745.08 51.4154C745.19 51.525 745.322 51.6111 745.467 51.6681C745.612 51.7251 745.768 51.7519 745.924 51.7468C746.08 51.7519 746.235 51.7251 746.381 51.6681C746.526 51.6111 746.658 51.5252 746.769 51.4155C746.879 51.3059 746.966 51.1749 747.023 51.0308C747.081 50.8866 747.108 50.7322 747.103 50.5773C747.107 50.4226 747.08 50.2686 747.022 50.1248C746.965 49.981 746.878 49.8505 746.767 49.7412C746.657 49.6319 746.525 49.5463 746.38 49.4895C746.235 49.4327 746.08 49.406 745.924 49.4111C745.767 49.4055 745.611 49.432 745.466 49.4888C745.32 49.5456 745.188 49.6315 745.077 49.7412C744.967 49.851 744.88 49.9821 744.823 50.1265C744.766 50.2709 744.739 50.4255 744.744 50.5806L744.748 50.5773Z" fill="#00AAFF"/>
</g>
<circle opacity="0.1" cx="664" cy="43" r="17" fill="#397AF6"/>
<path fill-rule="evenodd" clip-rule="evenodd" d="M662.509 26.0542L663.12 43.5766L657.378 58.6516C651.279 56.0696 647 50.0294 647 42.9897C647 34.1032 653.819 26.8092 662.509 26.0542Z" fill="#31A8F6"/>
<path d="M649.088 89H650.513V84.125C651.125 83.5125 651.563 83.1875 652.2 83.1875C653.013 83.1875 653.363 83.6625 653.363 84.85V89H654.8V84.675C654.8 82.925 654.15 81.95 652.688 81.95C651.75 81.95 651.063 82.4625 650.463 83.0375L650.513 81.675V79.0375H649.088V89ZM658.476 89.1625C659.301 89.1625 660.039 88.75 660.664 88.2125H660.701L660.826 89H662.001V84.8625C662.001 83.0375 661.214 81.95 659.501 81.95C658.401 81.95 657.439 82.4 656.726 82.85L657.264 83.825C657.851 83.45 658.526 83.125 659.251 83.125C660.264 83.125 660.551 83.825 660.564 84.625C657.701 84.9375 656.451 85.7 656.451 87.175C656.451 88.3875 657.289 89.1625 658.476 89.1625ZM658.914 88.025C658.301 88.025 657.839 87.75 657.839 87.075C657.839 86.3 658.526 85.7875 660.564 85.5375V87.225C660.001 87.7375 659.514 88.025 658.914 88.025ZM665.554 89H667.216L669.591 82.125H668.191L667.016 85.825C666.829 86.5 666.616 87.2 666.416 87.875H666.366C666.166 87.2 665.954 86.5 665.766 85.825L664.591 82.125H663.116L665.554 89ZM673.642 89.1625C674.542 89.1625 675.329 88.8625 675.967 88.4375L675.467 87.525C674.967 87.85 674.442 88.0375 673.829 88.0375C672.642 88.0375 671.817 87.25 671.704 85.9375H676.167C676.204 85.775 676.229 85.4875 676.229 85.2125C676.229 83.2625 675.254 81.95 673.429 81.95C671.817 81.95 670.292 83.3375 670.292 85.575C670.292 87.8375 671.779 89.1625 673.642 89.1625ZM671.692 84.95C671.829 83.7375 672.592 83.075 673.454 83.075C674.454 83.075 674.992 83.7625 674.992 84.95H671.692ZM680.655 89H682.08V84.125C682.692 83.5125 683.13 83.1875 683.767 83.1875C684.58 83.1875 684.93 83.6625 684.93 84.85V89H686.367V84.675C686.367 82.925 685.717 81.95 684.255 81.95C683.317 81.95 682.617 82.4625 681.98 83.075H681.942L681.83 82.125H680.655V89ZM691.205 89.1625C692.905 89.1625 694.443 87.85 694.443 85.575C694.443 83.275 692.905 81.95 691.205 81.95C689.505 81.95 687.968 83.275 687.968 85.575C687.968 87.85 689.505 89.1625 691.205 89.1625ZM691.205 87.9875C690.13 87.9875 689.455 87.025 689.455 85.575C689.455 84.1125 690.13 83.1375 691.205 83.1375C692.293 83.1375 692.968 84.1125 692.968 85.575C692.968 87.025 692.293 87.9875 691.205 87.9875ZM700.804 89.1625C702.504 89.1625 703.416 88.225 703.416 87.075C703.416 85.775 702.354 85.35 701.391 84.9875C700.641 84.7125 699.929 84.4875 699.929 83.9C699.929 83.425 700.279 83.05 701.029 83.05C701.604 83.05 702.091 83.3 702.566 83.65L703.241 82.7625C702.679 82.325 701.929 81.95 701.004 81.95C699.491 81.95 698.566 82.8125 698.566 83.9625C698.566 85.125 699.616 85.6125 700.529 85.9625C701.279 86.25 702.054 86.525 702.054 87.15C702.054 87.675 701.666 88.075 700.841 88.075C700.104 88.075 699.504 87.775 698.891 87.2875L698.216 88.2125C698.879 88.7625 699.854 89.1625 700.804 89.1625ZM707.809 89.1625C708.709 89.1625 709.497 88.8625 710.134 88.4375L709.634 87.525C709.134 87.85 708.609 88.0375 707.997 88.0375C706.809 88.0375 705.984 87.25 705.872 85.9375H710.334C710.372 85.775 710.397 85.4875 710.397 85.2125C710.397 83.2625 709.422 81.95 707.597 81.95C705.984 81.95 704.459 83.3375 704.459 85.575C704.459 87.8375 705.947 89.1625 707.809 89.1625ZM705.859 84.95C705.997 83.7375 706.759 83.075 707.622 83.075C708.622 83.075 709.159 83.7625 709.159 84.95H705.859ZM714.815 89.1625C715.602 89.1625 716.415 88.875 717.04 88.3125L716.452 87.3625C716.04 87.7125 715.527 87.9875 714.952 87.9875C713.802 87.9875 713.015 87.025 713.015 85.575C713.015 84.1125 713.84 83.1375 714.99 83.1375C715.465 83.1375 715.852 83.3375 716.227 83.675L716.94 82.7375C716.44 82.3 715.802 81.95 714.927 81.95C713.115 81.95 711.527 83.275 711.527 85.575C711.527 87.85 712.952 89.1625 714.815 89.1625ZM720.485 89.1625C721.435 89.1625 722.11 88.6875 722.735 87.9625H722.772L722.885 89H724.06V82.125H722.622V86.9C722.047 87.625 721.61 87.925 720.972 87.925C720.16 87.925 719.822 87.4625 719.822 86.275V82.125H718.385V86.45C718.385 88.2 719.022 89.1625 720.485 89.1625ZM726.224 89H727.649V84.7125C728.086 83.625 728.761 83.2375 729.324 83.2375C729.599 83.2375 729.774 83.275 730.011 83.35L730.274 82.1C730.061 82 729.836 81.95 729.499 81.95C728.761 81.95 728.036 82.475 727.549 83.3625H727.511L727.399 82.125H726.224V89ZM731.338 89H732.763V82.125H731.338V89ZM732.051 80.8375C732.576 80.8375 732.976 80.4875 732.976 79.9875C732.976 79.475 732.576 79.1375 732.051 79.1375C731.526 79.1375 731.138 79.475 731.138 79.9875C731.138 80.4875 731.526 80.8375 732.051 80.8375ZM737.24 89.1625C737.74 89.1625 738.202 89.0375 738.59 88.9125L738.327 87.85C738.127 87.9375 737.827 88.0125 737.59 88.0125C736.877 88.0125 736.59 87.5875 736.59 86.7625V83.275H738.377V82.125H736.59V80.225H735.377L735.215 82.125L734.152 82.2V83.275H735.152V86.75C735.152 88.2 735.69 89.1625 737.24 89.1625ZM745.433 82.125H744.033L742.933 85.6625L742.396 87.6H742.333C742.121 86.9625 741.908 86.275 741.708 85.6625L740.433 82.125H738.958L741.683 88.95L741.546 89.425C741.296 90.1625 740.858 90.7125 740.108 90.7125C739.933 90.7125 739.733 90.65 739.608 90.6125L739.333 91.7375C739.571 91.825 739.846 91.875 740.196 91.875C741.646 91.875 742.371 90.8875 742.908 89.4125L745.433 82.125ZM749.49 91.7875H750.915V89.5625L750.878 88.3875C751.465 88.8875 752.078 89.1625 752.69 89.1625C754.24 89.1625 755.653 87.8125 755.653 85.45C755.653 83.3375 754.678 81.95 752.928 81.95C752.165 81.95 751.415 82.375 750.815 82.875H750.778L750.665 82.125H749.49V91.7875ZM752.415 87.975C751.99 87.975 751.453 87.8125 750.915 87.35V83.9875C751.503 83.425 752.015 83.15 752.553 83.15C753.703 83.15 754.165 84.0375 754.165 85.475C754.165 87.0875 753.415 87.975 752.415 87.975ZM760.114 89.1625C761.814 89.1625 763.351 87.85 763.351 85.575C763.351 83.275 761.814 81.95 760.114 81.95C758.414 81.95 756.876 83.275 756.876 85.575C756.876 87.85 758.414 89.1625 760.114 89.1625ZM760.114 87.9875C759.039 87.9875 758.364 87.025 758.364 85.575C758.364 84.1125 759.039 83.1375 760.114 83.1375C761.201 83.1375 761.876 84.1125 761.876 85.575C761.876 87.025 761.201 87.9875 760.114 87.9875ZM766.467 89.1625C766.817 89.1625 767.067 89.1125 767.242 89.05L767.055 87.9625C766.93 87.9875 766.88 87.9875 766.817 87.9875C766.642 87.9875 766.467 87.85 766.467 87.4625V79.0375H765.042V87.3875C765.042 88.5 765.43 89.1625 766.467 89.1625ZM768.765 89H770.19V82.125H768.765V89ZM769.478 80.8375C770.003 80.8375 770.403 80.4875 770.403 79.9875C770.403 79.475 770.003 79.1375 769.478 79.1375C768.953 79.1375 768.565 79.475 768.565 79.9875C768.565 80.4875 768.953 80.8375 769.478 80.8375ZM775.154 89.1625C775.942 89.1625 776.754 88.875 777.379 88.3125L776.792 87.3625C776.379 87.7125 775.867 87.9875 775.292 87.9875C774.142 87.9875 773.354 87.025 773.354 85.575C773.354 84.1125 774.179 83.1375 775.329 83.1375C775.804 83.1375 776.192 83.3375 776.567 83.675L777.279 82.7375C776.779 82.3 776.142 81.95 775.267 81.95C773.454 81.95 771.867 83.275 771.867 85.575C771.867 87.85 773.292 89.1625 775.154 89.1625ZM784.435 82.125H783.035L781.935 85.6625L781.397 87.6H781.335C781.122 86.9625 780.91 86.275 780.71 85.6625L779.435 82.125H777.96L780.685 88.95L780.547 89.425C780.297 90.1625 779.86 90.7125 779.11 90.7125C778.935 90.7125 778.735 90.65 778.61 90.6125L778.335 91.7375C778.572 91.825 778.847 91.875 779.197 91.875C780.647 91.875 781.372 90.8875 781.91 89.4125L784.435 82.125ZM790.117 89.1625C790.942 89.1625 791.679 88.75 792.304 88.2125H792.342L792.467 89H793.642V84.8625C793.642 83.0375 792.854 81.95 791.142 81.95C790.042 81.95 789.079 82.4 788.367 82.85L788.904 83.825C789.492 83.45 790.167 83.125 790.892 83.125C791.904 83.125 792.192 83.825 792.204 84.625C789.342 84.9375 788.092 85.7 788.092 87.175C788.092 88.3875 788.929 89.1625 790.117 89.1625ZM790.554 88.025C789.942 88.025 789.479 87.75 789.479 87.075C789.479 86.3 790.167 85.7875 792.204 85.5375V87.225C791.642 87.7375 791.154 88.025 790.554 88.025ZM795.682 91.7875H797.107V89.5625L797.069 88.3875C797.657 88.8875 798.269 89.1625 798.882 89.1625C800.432 89.1625 801.844 87.8125 801.844 85.45C801.844 83.3375 800.869 81.95 799.119 81.95C798.357 81.95 797.607 82.375 797.007 82.875H796.969L796.857 82.125H795.682V91.7875ZM798.607 87.975C798.182 87.975 797.644 87.8125 797.107 87.35V83.9875C797.694 83.425 798.207 83.15 798.744 83.15C799.894 83.15 800.357 84.0375 800.357 85.475C800.357 87.0875 799.607 87.975 798.607 87.975ZM803.555 91.7875H804.98V89.5625L804.943 88.3875C805.53 88.8875 806.143 89.1625 806.755 89.1625C808.305 89.1625 809.718 87.8125 809.718 85.45C809.718 83.3375 808.743 81.95 806.993 81.95C806.23 81.95 805.48 82.375 804.88 82.875H804.843L804.73 82.125H803.555V91.7875ZM806.48 87.975C806.055 87.975 805.518 87.8125 804.98 87.35V83.9875C805.568 83.425 806.08 83.15 806.618 83.15C807.768 83.15 808.23 84.0375 808.23 85.475C808.23 87.0875 807.48 87.975 806.48 87.975ZM812.854 89.1625C813.204 89.1625 813.454 89.1125 813.629 89.05L813.441 87.9625C813.316 87.9875 813.266 87.9875 813.204 87.9875C813.029 87.9875 812.854 87.85 812.854 87.4625V79.0375H811.429V87.3875C811.429 88.5 811.816 89.1625 812.854 89.1625ZM815.152 89H816.577V82.125H815.152V89ZM815.864 80.8375C816.389 80.8375 816.789 80.4875 816.789 79.9875C816.789 79.475 816.389 79.1375 815.864 79.1375C815.339 79.1375 814.952 79.475 814.952 79.9875C814.952 80.4875 815.339 80.8375 815.864 80.8375ZM821.603 89.1625C822.503 89.1625 823.291 88.8625 823.928 88.4375L823.428 87.525C822.928 87.85 822.403 88.0375 821.791 88.0375C820.603 88.0375 819.778 87.25 819.666 85.9375H824.128C824.166 85.775 824.191 85.4875 824.191 85.2125C824.191 83.2625 823.216 81.95 821.391 81.95C819.778 81.95 818.253 83.3375 818.253 85.575C818.253 87.8375 819.741 89.1625 821.603 89.1625ZM819.653 84.95C819.791 83.7375 820.553 83.075 821.416 83.075C822.416 83.075 822.953 83.7625 822.953 84.95H819.653ZM828.184 89.1625C828.959 89.1625 829.671 88.75 830.184 88.225H830.221L830.346 89H831.521V79.0375H830.084V81.5875L830.146 82.725C829.584 82.25 829.084 81.95 828.296 81.95C826.759 81.95 825.346 83.3375 825.346 85.575C825.346 87.85 826.459 89.1625 828.184 89.1625ZM828.521 87.975C827.446 87.975 826.834 87.1125 826.834 85.55C826.834 84.0625 827.609 83.15 828.571 83.15C829.084 83.15 829.571 83.3125 830.084 83.775V87.1375C829.584 87.7125 829.096 87.975 828.521 87.975ZM838.802 89.1625C839.302 89.1625 839.765 89.0375 840.152 88.9125L839.89 87.85C839.69 87.9375 839.39 88.0125 839.152 88.0125C838.44 88.0125 838.152 87.5875 838.152 86.7625V83.275H839.94V82.125H838.152V80.225H836.94L836.777 82.125L835.715 82.2V83.275H836.715V86.75C836.715 88.2 837.252 89.1625 838.802 89.1625ZM843.988 89.1625C845.688 89.1625 847.226 87.85 847.226 85.575C847.226 83.275 845.688 81.95 843.988 81.95C842.288 81.95 840.751 83.275 840.751 85.575C840.751 87.85 842.288 89.1625 843.988 89.1625ZM843.988 87.9875C842.913 87.9875 842.238 87.025 842.238 85.575C842.238 84.1125 842.913 83.1375 843.988 83.1375C845.076 83.1375 845.751 84.1125 845.751 85.575C845.751 87.025 845.076 87.9875 843.988 87.9875ZM853.349 89.1625C854.174 89.1625 854.912 88.75 855.537 88.2125H855.574L855.699 89H856.874V84.8625C856.874 83.0375 856.087 81.95 854.374 81.95C853.274 81.95 852.312 82.4 851.599 82.85L852.137 83.825C852.724 83.45 853.399 83.125 854.124 83.125C855.137 83.125 855.424 83.825 855.437 84.625C852.574 84.9375 851.324 85.7 851.324 87.175C851.324 88.3875 852.162 89.1625 853.349 89.1625ZM853.787 88.025C853.174 88.025 852.712 87.75 852.712 87.075C852.712 86.3 853.399 85.7875 855.437 85.5375V87.225C854.874 87.7375 854.387 88.025 853.787 88.025ZM861.722 89H863.147V84.125C863.722 83.5 864.234 83.1875 864.697 83.1875C865.484 83.1875 865.847 83.6625 865.847 84.85V89H867.284V84.125C867.859 83.5 868.359 83.1875 868.834 83.1875C869.609 83.1875 869.984 83.6625 869.984 84.85V89H871.422V84.675C871.422 82.925 870.747 81.95 869.309 81.95C868.447 81.95 867.747 82.4875 867.072 83.2125C866.772 82.425 866.197 81.95 865.172 81.95C864.322 81.95 863.634 82.4625 863.047 83.0875H863.009L862.897 82.125H861.722V89ZM876.364 89.1625C877.264 89.1625 878.052 88.8625 878.689 88.4375L878.189 87.525C877.689 87.85 877.164 88.0375 876.552 88.0375C875.364 88.0375 874.539 87.25 874.427 85.9375H878.889C878.927 85.775 878.952 85.4875 878.952 85.2125C878.952 83.2625 877.977 81.95 876.152 81.95C874.539 81.95 873.014 83.3375 873.014 85.575C873.014 87.8375 874.502 89.1625 876.364 89.1625ZM874.414 84.95C874.552 83.7375 875.314 83.075 876.177 83.075C877.177 83.075 877.714 83.7625 877.714 84.95H874.414ZM882.432 89.1625C884.132 89.1625 885.044 88.225 885.044 87.075C885.044 85.775 883.982 85.35 883.019 84.9875C882.269 84.7125 881.557 84.4875 881.557 83.9C881.557 83.425 881.907 83.05 882.657 83.05C883.232 83.05 883.719 83.3 884.194 83.65L884.869 82.7625C884.307 82.325 883.557 81.95 882.632 81.95C881.119 81.95 880.194 82.8125 880.194 83.9625C880.194 85.125 881.244 85.6125 882.157 85.9625C882.907 86.25 883.682 86.525 883.682 87.15C883.682 87.675 883.294 88.075 882.469 88.075C881.732 88.075 881.132 87.775 880.519 87.2875L879.844 88.2125C880.507 88.7625 881.482 89.1625 882.432 89.1625ZM888.438 89.1625C890.138 89.1625 891.05 88.225 891.05 87.075C891.05 85.775 889.988 85.35 889.025 84.9875C888.275 84.7125 887.563 84.4875 887.563 83.9C887.563 83.425 887.913 83.05 888.663 83.05C889.238 83.05 889.725 83.3 890.2 83.65L890.875 82.7625C890.313 82.325 889.563 81.95 888.638 81.95C887.125 81.95 886.2 82.8125 886.2 83.9625C886.2 85.125 887.25 85.6125 888.163 85.9625C888.913 86.25 889.688 86.525 889.688 87.15C889.688 87.675 889.3 88.075 888.475 88.075C887.738 88.075 887.138 87.775 886.525 87.2875L885.85 88.2125C886.513 88.7625 887.488 89.1625 888.438 89.1625ZM895.444 89.1625C896.344 89.1625 897.131 88.8625 897.769 88.4375L897.269 87.525C896.769 87.85 896.244 88.0375 895.631 88.0375C894.444 88.0375 893.619 87.25 893.506 85.9375H897.969C898.006 85.775 898.031 85.4875 898.031 85.2125C898.031 83.2625 897.056 81.95 895.231 81.95C893.619 81.95 892.094 83.3375 892.094 85.575C892.094 87.8375 893.581 89.1625 895.444 89.1625ZM893.494 84.95C893.631 83.7375 894.394 83.075 895.256 83.075C896.256 83.075 896.794 83.7625 896.794 84.95H893.494ZM899.649 89H901.074V84.125C901.687 83.5125 902.124 83.1875 902.762 83.1875C903.574 83.1875 903.924 83.6625 903.924 84.85V89H905.362V84.675C905.362 82.925 904.712 81.95 903.249 81.95C902.312 81.95 901.612 82.4625 900.974 83.075H900.937L900.824 82.125H899.649V89ZM909.799 92.0875C911.999 92.0875 913.399 91.0125 913.399 89.6875C913.399 88.5125 912.549 88.0125 910.924 88.0125H909.662C908.787 88.0125 908.512 87.75 908.512 87.3375C908.512 87.0125 908.662 86.8125 908.887 86.6125C909.187 86.75 909.537 86.825 909.849 86.825C911.287 86.825 912.424 85.9625 912.424 84.4625C912.424 83.9375 912.237 83.475 911.974 83.2H913.287V82.125H910.849C910.587 82.025 910.237 81.95 909.849 81.95C908.424 81.95 907.187 82.8625 907.187 84.425C907.187 85.2375 907.624 85.8875 908.087 86.25V86.3C907.712 86.575 907.324 87.0375 907.324 87.575C907.324 88.1375 907.599 88.5 907.949 88.7125V88.775C907.312 89.1625 906.949 89.7 906.949 90.275C906.949 91.475 908.149 92.0875 909.799 92.0875ZM909.849 85.9C909.137 85.9 908.549 85.3375 908.549 84.425C908.549 83.4875 909.124 82.9625 909.849 82.9625C910.574 82.9625 911.149 83.5 911.149 84.425C911.149 85.3375 910.562 85.9 909.849 85.9ZM910.012 91.1375C908.874 91.1375 908.174 90.7375 908.174 90.0625C908.174 89.7125 908.349 89.3625 908.762 89.0625C909.049 89.125 909.362 89.1625 909.687 89.1625H910.724C911.562 89.1625 912.012 89.3375 912.012 89.9125C912.012 90.55 911.212 91.1375 910.012 91.1375ZM917.331 89.1625C918.231 89.1625 919.018 88.8625 919.656 88.4375L919.156 87.525C918.656 87.85 918.131 88.0375 917.518 88.0375C916.331 88.0375 915.506 87.25 915.393 85.9375H919.856C919.893 85.775 919.918 85.4875 919.918 85.2125C919.918 83.2625 918.943 81.95 917.118 81.95C915.506 81.95 913.981 83.3375 913.981 85.575C913.981 87.8375 915.468 89.1625 917.331 89.1625ZM915.381 84.95C915.518 83.7375 916.281 83.075 917.143 83.075C918.143 83.075 918.681 83.7625 918.681 84.95H915.381ZM921.536 89H922.961V84.7125C923.399 83.625 924.074 83.2375 924.636 83.2375C924.911 83.2375 925.086 83.275 925.324 83.35L925.586 82.1C925.374 82 925.149 81.95 924.811 81.95C924.074 81.95 923.349 82.475 922.861 83.3625H922.824L922.711 82.125H921.536V89ZM651.838 105.163C653.538 105.163 655.075 103.85 655.075 101.575C655.075 99.275 653.538 97.95 651.838 97.95C650.138 97.95 648.6 99.275 648.6 101.575C648.6 103.85 650.138 105.163 651.838 105.163ZM651.838 103.987C650.763 103.987 650.088 103.025 650.088 101.575C650.088 100.112 650.763 99.1375 651.838 99.1375C652.925 99.1375 653.6 100.112 653.6 101.575C653.6 103.025 652.925 103.987 651.838 103.987ZM656.766 105H658.191V100.712C658.628 99.625 659.303 99.2375 659.866 99.2375C660.141 99.2375 660.316 99.275 660.553 99.35L660.816 98.1C660.603 98 660.378 97.95 660.041 97.95C659.303 97.95 658.578 98.475 658.091 99.3625H658.053L657.941 98.125H656.766V105ZM667.063 105.163C667.838 105.163 668.551 104.75 669.063 104.225H669.101L669.226 105H670.401V95.0375H668.963V97.5875L669.026 98.725C668.463 98.25 667.963 97.95 667.176 97.95C665.638 97.95 664.226 99.3375 664.226 101.575C664.226 103.85 665.338 105.163 667.063 105.163ZM667.401 103.975C666.326 103.975 665.713 103.112 665.713 101.55C665.713 100.062 666.488 99.15 667.451 99.15C667.963 99.15 668.451 99.3125 668.963 99.775V103.137C668.463 103.712 667.976 103.975 667.401 103.975ZM675.312 105.163C677.012 105.163 678.549 103.85 678.549 101.575C678.549 99.275 677.012 97.95 675.312 97.95C673.612 97.95 672.074 99.275 672.074 101.575C672.074 103.85 673.612 105.163 675.312 105.163ZM675.312 103.987C674.237 103.987 673.562 103.025 673.562 101.575C673.562 100.112 674.237 99.1375 675.312 99.1375C676.399 99.1375 677.074 100.112 677.074 101.575C677.074 103.025 676.399 103.987 675.312 103.987ZM683.047 105H684.472V100.125C685.085 99.5125 685.522 99.1875 686.16 99.1875C686.972 99.1875 687.322 99.6625 687.322 100.85V105H688.76V100.675C688.76 98.925 688.11 97.95 686.647 97.95C685.71 97.95 685.01 98.4625 684.372 99.075H684.335L684.222 98.125H683.047V105ZM693.598 105.163C695.298 105.163 696.835 103.85 696.835 101.575C696.835 99.275 695.298 97.95 693.598 97.95C691.898 97.95 690.36 99.275 690.36 101.575C690.36 103.85 691.898 105.163 693.598 105.163ZM693.598 103.987C692.523 103.987 691.848 103.025 691.848 101.575C691.848 100.112 692.523 99.1375 693.598 99.1375C694.685 99.1375 695.36 100.112 695.36 101.575C695.36 103.025 694.685 103.987 693.598 103.987ZM700.546 105.163C701.046 105.163 701.508 105.038 701.896 104.912L701.633 103.85C701.433 103.937 701.133 104.012 700.896 104.012C700.183 104.012 699.896 103.587 699.896 102.762V99.275H701.683V98.125H699.896V96.225H698.683L698.521 98.125L697.458 98.2V99.275H698.458V102.75C698.458 104.2 698.996 105.163 700.546 105.163ZM705.997 105H707.397V103.225L708.559 101.887L710.422 105H711.984L709.384 100.912L711.722 98.125H710.134L707.434 101.462H707.397V95.0375H705.997V105ZM713.187 105H714.612V100.125C715.224 99.5125 715.662 99.1875 716.299 99.1875C717.112 99.1875 717.462 99.6625 717.462 100.85V105H718.899V100.675C718.899 98.925 718.249 97.95 716.787 97.95C715.849 97.95 715.149 98.4625 714.512 99.075H714.474L714.362 98.125H713.187V105ZM723.737 105.163C725.437 105.163 726.974 103.85 726.974 101.575C726.974 99.275 725.437 97.95 723.737 97.95C722.037 97.95 720.499 99.275 720.499 101.575C720.499 103.85 722.037 105.163 723.737 105.163ZM723.737 103.987C722.662 103.987 721.987 103.025 721.987 101.575C721.987 100.112 722.662 99.1375 723.737 99.1375C724.824 99.1375 725.499 100.112 725.499 101.575C725.499 103.025 724.824 103.987 723.737 103.987ZM729.704 105H731.367L732.204 101.612C732.379 100.962 732.504 100.325 732.642 99.6125H732.704C732.854 100.325 732.979 100.95 733.142 101.6L734.017 105H735.742L737.517 98.125H736.167L735.279 101.85C735.129 102.512 735.017 103.15 734.879 103.8H734.829C734.667 103.15 734.529 102.512 734.367 101.85L733.379 98.125H732.042L731.079 101.85C730.917 102.5 730.779 103.15 730.629 103.8H730.579C730.454 103.15 730.342 102.512 730.204 101.85L729.292 98.125H727.842L729.704 105ZM742.864 105H744.526L745.364 101.612C745.539 100.962 745.664 100.325 745.801 99.6125H745.864C746.014 100.325 746.139 100.95 746.301 101.6L747.176 105H748.901L750.676 98.125H749.326L748.439 101.85C748.289 102.512 748.176 103.15 748.039 103.8H747.989C747.826 103.15 747.689 102.512 747.526 101.85L746.539 98.125H745.201L744.239 101.85C744.076 102.5 743.939 103.15 743.789 103.8H743.739C743.614 103.15 743.501 102.512 743.364 101.85L742.451 98.125H741.001L742.864 105ZM752.103 105H753.528V100.125C754.14 99.5125 754.578 99.1875 755.215 99.1875C756.028 99.1875 756.378 99.6625 756.378 100.85V105H757.815V100.675C757.815 98.925 757.165 97.95 755.703 97.95C754.765 97.95 754.078 98.4625 753.478 99.0375L753.528 97.675V95.0375H752.103V105ZM762.729 105.163C763.629 105.163 764.416 104.862 765.054 104.437L764.554 103.525C764.054 103.85 763.529 104.037 762.916 104.037C761.729 104.037 760.904 103.25 760.791 101.937H765.254C765.291 101.775 765.316 101.487 765.316 101.212C765.316 99.2625 764.341 97.95 762.516 97.95C760.904 97.95 759.379 99.3375 759.379 101.575C759.379 103.837 760.866 105.163 762.729 105.163ZM760.779 100.95C760.916 99.7375 761.679 99.075 762.541 99.075C763.541 99.075 764.079 99.7625 764.079 100.95H760.779ZM769.112 105.163C769.612 105.163 770.075 105.038 770.462 104.912L770.2 103.85C770 103.937 769.7 104.012 769.462 104.012C768.75 104.012 768.462 103.587 768.462 102.762V99.275H770.25V98.125H768.462V96.225H767.25L767.087 98.125L766.025 98.2V99.275H767.025V102.75C767.025 104.2 767.562 105.163 769.112 105.163ZM771.756 105H773.181V100.125C773.793 99.5125 774.231 99.1875 774.868 99.1875C775.681 99.1875 776.031 99.6625 776.031 100.85V105H777.468V100.675C777.468 98.925 776.818 97.95 775.356 97.95C774.418 97.95 773.731 98.4625 773.131 99.0375L773.181 97.675V95.0375H771.756V105ZM782.382 105.163C783.282 105.163 784.07 104.862 784.707 104.437L784.207 103.525C783.707 103.85 783.182 104.037 782.57 104.037C781.382 104.037 780.557 103.25 780.445 101.937H784.907C784.945 101.775 784.97 101.487 784.97 101.212C784.97 99.2625 783.995 97.95 782.17 97.95C780.557 97.95 779.032 99.3375 779.032 101.575C779.032 103.837 780.52 105.163 782.382 105.163ZM780.432 100.95C780.57 99.7375 781.332 99.075 782.195 99.075C783.195 99.075 783.732 99.7625 783.732 100.95H780.432ZM786.588 105H788.013V100.712C788.45 99.625 789.125 99.2375 789.688 99.2375C789.963 99.2375 790.138 99.275 790.375 99.35L790.638 98.1C790.425 98 790.2 97.95 789.863 97.95C789.125 97.95 788.4 98.475 787.913 99.3625H787.875L787.763 98.125H786.588V105ZM794.51 105H795.935V98.125H794.51V105ZM795.222 96.8375C795.747 96.8375 796.147 96.4875 796.147 95.9875C796.147 95.475 795.747 95.1375 795.222 95.1375C794.697 95.1375 794.31 95.475 794.31 95.9875C794.31 96.4875 794.697 96.8375 795.222 96.8375ZM800.411 105.163C800.911 105.163 801.374 105.038 801.761 104.912L801.499 103.85C801.299 103.937 800.999 104.012 800.761 104.012C800.049 104.012 799.761 103.587 799.761 102.762V99.275H801.549V98.125H799.761V96.225H798.549L798.386 98.125L797.324 98.2V99.275H798.324V102.75C798.324 104.2 798.861 105.163 800.411 105.163ZM805.862 105H807.287V98.125H805.862V105ZM806.575 96.8375C807.1 96.8375 807.5 96.4875 807.5 95.9875C807.5 95.475 807.1 95.1375 806.575 95.1375C806.05 95.1375 805.662 95.475 805.662 95.9875C805.662 96.4875 806.05 96.8375 806.575 96.8375ZM811.314 105.163C813.014 105.163 813.926 104.225 813.926 103.075C813.926 101.775 812.864 101.35 811.901 100.987C811.151 100.712 810.439 100.487 810.439 99.9C810.439 99.425 810.789 99.05 811.539 99.05C812.114 99.05 812.601 99.3 813.076 99.65L813.751 98.7625C813.189 98.325 812.439 97.95 811.514 97.95C810.001 97.95 809.076 98.8125 809.076 99.9625C809.076 101.125 810.126 101.612 811.039 101.962C811.789 102.25 812.564 102.525 812.564 103.15C812.564 103.675 812.176 104.075 811.351 104.075C810.614 104.075 810.014 103.775 809.401 103.287L808.726 104.212C809.389 104.762 810.364 105.163 811.314 105.163ZM819.89 105.163C820.715 105.163 821.452 104.75 822.077 104.212H822.115L822.24 105H823.415V100.862C823.415 99.0375 822.627 97.95 820.915 97.95C819.815 97.95 818.852 98.4 818.14 98.85L818.677 99.825C819.265 99.45 819.94 99.125 820.665 99.125C821.677 99.125 821.965 99.825 821.977 100.625C819.115 100.937 817.865 101.7 817.865 103.175C817.865 104.387 818.702 105.163 819.89 105.163ZM820.327 104.025C819.715 104.025 819.252 103.75 819.252 103.075C819.252 102.3 819.94 101.788 821.977 101.537V103.225C821.415 103.737 820.927 104.025 820.327 104.025ZM825.455 107.788H826.88V105.563L826.842 104.387C827.43 104.887 828.042 105.163 828.655 105.163C830.205 105.163 831.617 103.812 831.617 101.45C831.617 99.3375 830.642 97.95 828.892 97.95C828.13 97.95 827.38 98.375 826.78 98.875H826.742L826.63 98.125H825.455V107.788ZM828.38 103.975C827.955 103.975 827.417 103.812 826.88 103.35V99.9875C827.467 99.425 827.98 99.15 828.517 99.15C829.667 99.15 830.13 100.037 830.13 101.475C830.13 103.087 829.38 103.975 828.38 103.975ZM833.328 107.788H834.753V105.563L834.716 104.387C835.303 104.887 835.916 105.163 836.528 105.163C838.078 105.163 839.491 103.812 839.491 101.45C839.491 99.3375 838.516 97.95 836.766 97.95C836.003 97.95 835.253 98.375 834.653 98.875H834.616L834.503 98.125H833.328V107.788ZM836.253 103.975C835.828 103.975 835.291 103.812 834.753 103.35V99.9875C835.341 99.425 835.853 99.15 836.391 99.15C837.541 99.15 838.003 100.037 838.003 101.475C838.003 103.087 837.253 103.975 836.253 103.975ZM842.627 105.163C842.977 105.163 843.227 105.113 843.402 105.05L843.214 103.962C843.089 103.987 843.039 103.987 842.977 103.987C842.802 103.987 842.627 103.85 842.627 103.462V95.0375H841.202V103.387C841.202 104.5 841.589 105.163 842.627 105.163ZM844.925 105H846.35V98.125H844.925V105ZM845.637 96.8375C846.162 96.8375 846.562 96.4875 846.562 95.9875C846.562 95.475 846.162 95.1375 845.637 95.1375C845.112 95.1375 844.725 95.475 844.725 95.9875C844.725 96.4875 845.112 96.8375 845.637 96.8375ZM851.314 105.163C852.101 105.163 852.914 104.875 853.539 104.312L852.951 103.362C852.539 103.712 852.026 103.987 851.451 103.987C850.301 103.987 849.514 103.025 849.514 101.575C849.514 100.112 850.339 99.1375 851.489 99.1375C851.964 99.1375 852.351 99.3375 852.726 99.675L853.439 98.7375C852.939 98.3 852.301 97.95 851.426 97.95C849.614 97.95 848.026 99.275 848.026 101.575C848.026 103.85 849.451 105.163 851.314 105.163ZM856.462 105.163C857.287 105.163 858.025 104.75 858.65 104.212H858.687L858.812 105H859.987V100.862C859.987 99.0375 859.2 97.95 857.487 97.95C856.387 97.95 855.425 98.4 854.712 98.85L855.25 99.825C855.837 99.45 856.512 99.125 857.237 99.125C858.25 99.125 858.537 99.825 858.55 100.625C855.687 100.937 854.437 101.7 854.437 103.175C854.437 104.387 855.275 105.163 856.462 105.163ZM856.9 104.025C856.287 104.025 855.825 103.75 855.825 103.075C855.825 102.3 856.512 101.788 858.55 101.537V103.225C857.987 103.737 857.5 104.025 856.9 104.025ZM865.227 105.163C866.777 105.163 868.189 103.812 868.189 101.45C868.189 99.3375 867.202 97.95 865.464 97.95C864.739 97.95 864.002 98.3375 863.414 98.85L863.452 97.675V95.0375H862.027V105H863.152L863.289 104.287H863.327C863.914 104.85 864.602 105.163 865.227 105.163ZM864.952 103.975C864.527 103.975 863.977 103.812 863.452 103.35V99.9875C864.027 99.425 864.552 99.15 865.089 99.15C866.239 99.15 866.702 100.037 866.702 101.475C866.702 103.087 865.952 103.975 864.952 103.975ZM871.313 105.163C871.663 105.163 871.913 105.113 872.088 105.05L871.901 103.962C871.776 103.987 871.726 103.987 871.663 103.987C871.488 103.987 871.313 103.85 871.313 103.462V95.0375H869.888V103.387C869.888 104.5 870.276 105.163 871.313 105.163ZM876.474 105.163C877.374 105.163 878.161 104.862 878.799 104.437L878.299 103.525C877.799 103.85 877.274 104.037 876.661 104.037C875.474 104.037 874.649 103.25 874.536 101.937H878.999C879.036 101.775 879.061 101.487 879.061 101.212C879.061 99.2625 878.086 97.95 876.261 97.95C874.649 97.95 873.124 99.3375 873.124 101.575C873.124 103.837 874.611 105.163 876.474 105.163ZM874.524 100.95C874.661 99.7375 875.424 99.075 876.286 99.075C877.286 99.075 877.824 99.7625 877.824 100.95H874.524ZM886.237 105.163C887.937 105.163 889.474 103.85 889.474 101.575C889.474 99.275 887.937 97.95 886.237 97.95C884.537 97.95 882.999 99.275 882.999 101.575C882.999 103.85 884.537 105.163 886.237 105.163ZM886.237 103.987C885.162 103.987 884.487 103.025 884.487 101.575C884.487 100.112 885.162 99.1375 886.237 99.1375C887.324 99.1375 887.999 100.112 887.999 101.575C887.999 103.025 887.324 103.987 886.237 103.987ZM891.165 105H892.59V100.712C893.028 99.625 893.703 99.2375 894.265 99.2375C894.54 99.2375 894.715 99.275 894.953 99.35L895.215 98.1C895.003 98 894.778 97.95 894.44 97.95C893.703 97.95 892.978 98.475 892.49 99.3625H892.453L892.34 98.125H891.165V105ZM899.088 105H900.513V100.125C901.125 99.5125 901.563 99.1875 902.2 99.1875C903.013 99.1875 903.363 99.6625 903.363 100.85V105H904.8V100.675C904.8 98.925 904.15 97.95 902.688 97.95C901.75 97.95 901.05 98.4625 900.413 99.075H900.375L900.263 98.125H899.088V105ZM909.638 105.163C911.338 105.163 912.875 103.85 912.875 101.575C912.875 99.275 911.338 97.95 909.638 97.95C907.938 97.95 906.4 99.275 906.4 101.575C906.4 103.85 907.938 105.163 909.638 105.163ZM909.638 103.987C908.563 103.987 907.888 103.025 907.888 101.575C907.888 100.112 908.563 99.1375 909.638 99.1375C910.725 99.1375 911.4 100.112 911.4 101.575C911.4 103.025 910.725 103.987 909.638 103.987ZM916.586 105.163C917.086 105.163 917.548 105.038 917.936 104.912L917.673 103.85C917.473 103.937 917.173 104.012 916.936 104.012C916.223 104.012 915.936 103.587 915.936 102.762V99.275H917.723V98.125H915.936V96.225H914.723L914.561 98.125L913.498 98.2V99.275H914.498V102.75C914.498 104.2 915.036 105.163 916.586 105.163Z" fill="black"/>
<defs>
<linearGradient id="paint0_linear_209_376" x1="1647" y1="130" x2="1636.66" y2="265.352" gradientUnits="userSpaceOnUse">
<stop stop-color="#F3F7FF"/>
<stop offset="1" stop-color="#DEEEFE"/>
</linearGradient>
<clipPath id="clip0_209_376">
<rect width="51" height="24" fill="white" transform="translate(256 31)"/>
</clipPath>
<clipPath id="clip1_209_376">
<rect width="52" height="23" fill="white" transform="translate(488 31)"/>
</clipPath>
<clipPath id="clip2_209_376">
<rect width="52" height="24" fill="white" transform="translate(697 31)"/>
</clipPath>
</defs>
</svg>
