<svg width="523" height="89" viewBox="0 0 523 89" fill="none" xmlns="http://www.w3.org/2000/svg">
<rect opacity="0.1" x="113.758" y="19.3174" width="67.9685" height="68.684" rx="10.935" fill="#397AF6"/>
<rect opacity="0.1" x="340.558" y="19.3174" width="68.684" height="68.684" rx="10.935" fill="#397AF6"/>
<rect opacity="0.25" width="68.684" height="68.684" rx="10.935" fill="#397AF6"/>
<rect opacity="0.25" x="454.316" width="68.684" height="68.684" rx="10.935" fill="#397AF6"/>
<rect opacity="0.25" x="227.516" width="67.9685" height="68.684" rx="10.935" fill="#397AF6"/>
<g clip-path="url(#clip0_752_16680)">
<path d="M47.2317 26.7836L51.5131 30.0491V30.1164C50.8054 30.4676 50.1699 30.9416 49.4983 31.3542C48.7327 31.8264 47.9755 32.313 47.2149 32.7928C47.0814 32.7088 47.0697 32.5743 47.068 32.4399C47.0546 30.6685 47.0512 28.897 47.068 27.1256C47.0756 26.9937 47.0814 26.8525 47.2317 26.7836Z" fill="#64B4F5"/>
<path d="M47.2315 26.7836L47.219 32.7928L37.1753 39.1869C36.5179 38.8298 35.9219 38.3768 35.2981 37.9684C34.4822 37.434 34.2395 37.434 33.4219 37.9684C32.7981 38.3768 32.2029 38.8306 31.5439 39.1852C31.376 39.2634 31.2434 39.1777 31.1099 39.0936C29.1866 37.8802 27.2743 36.6508 25.3543 35.4315C24.216 34.7088 23.0788 33.9838 21.9426 33.2567C21.7219 33.1155 21.407 33.039 21.3919 32.6861C21.3569 32.5106 21.338 32.3323 21.3357 32.1533C21.3357 30.5875 21.3357 29.0225 21.3357 27.4583C21.3357 27.2205 21.3516 26.9886 21.4902 26.7861C21.4902 24.3497 21.4924 21.9127 21.4969 19.4752C21.4969 18.0836 22.4144 17.171 23.8105 17.171H44.9103C46.3073 17.171 47.2232 18.0836 47.2248 19.4743C47.2276 21.9113 47.2299 24.3477 47.2315 26.7836Z" fill="#F9F9F9"/>
<path d="M21.5003 32.7937C20.245 31.9981 18.9894 31.2032 17.7335 30.4088C17.5656 30.3029 17.4137 30.1684 17.2139 30.1197C17.2139 30.0407 17.2693 30.0021 17.3213 29.9626C18.7087 28.9021 20.0973 27.8424 21.4869 26.7836C21.4958 28.7869 21.5003 30.7903 21.5003 32.7937Z" fill="#64B4F5"/>
<path d="M34.3614 21.4642C36.8396 21.4642 39.3175 21.4642 41.7952 21.4642C42.6766 21.4642 43.2038 22.2978 42.8026 23.0399C42.5927 23.4281 42.2502 23.6079 41.8111 23.6079H38.731C34.8346 23.6079 30.9388 23.6079 27.0436 23.6079C26.7338 23.6079 26.4425 23.5701 26.1932 23.3701C26.0196 23.2318 25.8933 23.0429 25.8319 22.8295C25.7704 22.6162 25.7768 22.389 25.8502 22.1794C25.9235 21.9699 26.0602 21.7883 26.2412 21.66C26.4223 21.5317 26.6387 21.463 26.8606 21.4634C27.9519 21.455 29.0483 21.4634 30.1421 21.4634L34.3614 21.4642Z" fill="#8FA3AD"/>
<path d="M34.3617 27.9004C31.8835 27.9004 29.4087 27.9004 26.9271 27.9004C26.0457 27.9004 25.5185 27.0685 25.9197 26.3256C26.1296 25.9365 26.4713 25.7567 26.9103 25.7567H29.9241C33.8418 25.7567 37.7594 25.7567 41.677 25.7567C41.9877 25.7567 42.279 25.7945 42.5275 25.9945C42.7012 26.1326 42.8278 26.3215 42.8895 26.5348C42.9512 26.7482 42.945 26.9755 42.8719 27.1851C42.7987 27.3948 42.6621 27.5765 42.4811 27.705C42.3001 27.8335 42.0836 27.9024 41.8617 27.9021C40.7897 27.9105 39.7185 27.9021 38.6465 27.9021L34.3617 27.9004Z" fill="#8FA3AD"/>
<path d="M31.1101 32.1954C29.7372 32.1954 28.3661 32.1954 26.9966 32.1954C26.2855 32.1954 25.7952 31.7584 25.791 31.1307C25.7868 30.503 26.2788 30.0517 26.9823 30.0509C29.761 30.0509 32.5397 30.0509 35.3185 30.0509C36.0211 30.0509 36.5131 30.5038 36.5072 31.1332C36.5013 31.7627 36.0119 32.1946 35.2992 32.1954C33.9022 32.1977 32.5059 32.1977 31.1101 32.1954Z" fill="#8FA3AD"/>
<path d="M51.5132 48.9643C50.9886 48.3173 50.254 47.9492 49.5824 47.4988C45.5579 44.803 41.53 42.1139 37.4987 39.4315C37.3879 39.3584 37.2863 39.2711 37.1797 39.1904C37.168 38.9652 37.3527 38.8912 37.4971 38.7988C38.5207 38.1416 39.5457 37.4873 40.5721 36.8358C41.9556 35.9562 43.3385 35.0755 44.7209 34.1937C45.531 33.6803 46.3344 33.1559 47.1554 32.6534C47.5752 32.4425 47.9429 32.1576 48.3366 31.9097C49.2114 31.3573 50.0841 30.8027 50.955 30.2458C51.1178 30.1416 51.2908 29.9467 51.5216 30.1198L51.5132 48.9643Z" fill="#1E87E4"/>
<path d="M21.5007 32.7938C24.7468 34.8593 27.9928 36.9243 31.2388 38.9887C31.3396 39.0534 31.4067 39.1745 31.5377 39.1862C31.4328 39.2703 31.3312 39.3543 31.2204 39.4291C26.8114 42.377 22.3962 45.3226 17.9748 48.2661C17.6802 48.4618 17.4611 48.7198 17.2193 48.9618C17.2193 48.8728 17.2092 48.7837 17.2092 48.6946C17.2092 42.5814 17.2092 36.468 17.2092 30.3543C17.2092 30.2761 17.2151 30.198 17.2176 30.1198C17.4367 29.9644 17.6038 30.1291 17.7608 30.2299C18.5566 30.7392 19.3558 31.2434 20.1508 31.7543C20.4589 31.9535 20.772 32.1442 21.0801 32.3425C21.2632 32.4462 21.4101 32.6037 21.5007 32.7938Z" fill="#1E87E4"/>
<path d="M51.5135 48.9643V49.8333C51.4295 50.266 51.3456 50.6736 51.0005 51.0206C50.6555 51.3677 50.2559 51.4198 49.8387 51.5106H18.884C18.3963 51.4366 17.9531 51.3022 17.6063 50.8988C17.2848 50.5249 17.2042 50.0963 17.1782 49.6383C17.1656 49.4282 17.1782 49.2181 17.1782 49.0064C17.2848 48.6358 17.519 48.3778 17.8397 48.166C22.237 45.2383 26.6303 42.3066 31.0198 39.3711C31.1759 39.2669 31.3556 39.203 31.4857 39.0526C32.1254 38.6475 32.7592 38.2316 33.3762 37.7921C34.0478 37.319 34.6783 37.3148 35.3432 37.7921C35.9568 38.2341 36.6116 38.6164 37.2194 39.0685C38.2268 39.7022 39.209 40.3778 40.1996 41.0383C43.7182 43.384 47.2357 45.7296 50.752 48.0753C51.0962 48.3089 51.4052 48.545 51.5135 48.9643Z" fill="#2195F2"/>
</g>
<g clip-path="url(#clip1_752_16680)">
<path d="M274.701 51.5131H248.299C246.717 51.3346 245.656 50.4309 244.963 49.0151C244.788 48.6582 244.762 48.2728 244.687 47.8954V30.116C244.788 30.0286 244.919 29.9848 245.052 29.9938C245.172 29.9938 245.292 29.9938 245.413 29.9938C256.137 29.9938 266.862 29.9938 277.587 29.9938C277.833 29.9938 278.095 29.9313 278.313 30.1169V47.8249C278.149 49.4308 277.256 50.5014 275.893 51.2151C275.515 51.4167 275.105 51.4426 274.701 51.5131Z" fill="#F9F9F9"/>
<path d="M278.318 30.116C278.175 30.116 278.034 30.116 277.891 30.116H245.113C244.971 30.116 244.828 30.116 244.687 30.116V25.2199C244.732 24.1378 245.2 23.2572 245.96 22.5364C246.73 21.7928 247.746 21.3729 248.805 21.3605C249.175 21.3516 249.546 21.3552 249.916 21.3605C250.056 21.3605 250.203 21.3498 250.311 21.4765C250.398 21.6308 250.378 21.8012 250.379 21.9672C250.379 22.6925 250.369 23.4178 250.385 24.1431C250.398 24.7676 250.61 25.277 251.22 25.5339C251.382 25.6034 251.555 25.6395 251.73 25.6401C252.179 25.6401 252.627 25.6508 253.074 25.6401C253.819 25.6187 254.349 25.0763 254.359 24.3189C254.369 23.5159 254.359 22.713 254.359 21.9101C254.359 21.7361 254.335 21.547 254.495 21.415C254.647 21.332 254.813 21.3418 254.977 21.3418C259.318 21.3418 263.66 21.3418 268.001 21.3418C268.164 21.3418 268.33 21.332 268.484 21.4069C268.654 21.5309 268.63 21.7201 268.631 21.8949C268.638 22.6756 268.631 23.4571 268.631 24.2386C268.637 25.1004 269.156 25.633 270.001 25.6446C270.373 25.6499 270.745 25.6446 271.116 25.6446C272.055 25.6366 272.576 25.1262 272.606 24.1592C272.627 23.4794 272.606 22.7978 272.613 22.1171C272.613 21.9074 272.582 21.6915 272.674 21.4926C272.708 21.4479 272.752 21.413 272.803 21.3914C272.854 21.3698 272.91 21.3622 272.964 21.3695C273.596 21.3748 274.231 21.307 274.859 21.4346C276.456 21.7584 277.537 22.7139 278.146 24.2439C278.271 24.558 278.234 24.8996 278.305 25.2253L278.318 30.116Z" fill="#2195F2"/>
<path d="M268.514 21.4462C268.514 20.6325 268.547 19.8171 268.502 19.007C268.453 18.1229 268.756 17.5002 269.578 17.171H271.614C272.414 17.3664 272.794 17.8134 272.83 18.6734C272.865 19.4888 272.841 20.3051 272.838 21.1214C272.843 21.1829 272.837 21.2449 272.818 21.3037C272.8 21.3625 272.77 21.417 272.731 21.464C272.731 22.3668 272.731 23.2706 272.731 24.1743C272.726 24.9603 272.366 25.5384 271.658 25.6909C270.951 25.8435 270.227 25.8123 269.515 25.6909C269.018 25.6098 268.491 24.9032 268.516 24.3215C268.556 23.366 268.518 22.4052 268.514 21.4462Z" fill="#1976D1"/>
<path d="M253.42 17.1711C253.602 17.2608 253.777 17.3634 253.944 17.478C254.117 17.6076 254.255 17.7779 254.349 17.9744C254.442 18.1708 254.487 18.3874 254.481 18.6056C254.481 19.5525 254.481 20.4993 254.481 21.4462C254.477 22.4276 254.473 23.4089 254.469 24.3903C254.459 24.7493 254.315 25.0909 254.066 25.3448C253.817 25.5987 253.483 25.7456 253.131 25.7552C252.694 25.7606 252.258 25.7552 251.821 25.7552C250.871 25.7552 250.274 25.1503 250.268 24.1735C250.262 23.2697 250.268 22.366 250.268 21.4631C250.16 21.3463 250.159 21.1955 250.159 21.0536C250.159 20.2927 250.151 19.5326 250.159 18.7725C250.156 18.4012 250.258 18.0369 250.453 17.7233C250.675 17.3754 251.004 17.2344 251.382 17.1702L253.42 17.1711Z" fill="#1976D1"/>
<path d="M261.524 41.5139C262.094 41.5139 262.66 41.5139 263.232 41.5139C263.844 41.5139 264.302 41.9439 264.312 42.5737C264.331 43.7692 264.331 44.9653 264.312 46.1619C264.302 46.7802 263.825 47.2164 263.217 47.2182C262.09 47.2182 260.963 47.2182 259.836 47.2182C259.152 47.2182 258.7 46.7864 258.686 46.0781C258.67 44.9153 258.67 43.7529 258.686 42.5907C258.695 41.9448 259.152 41.5201 259.783 41.513H261.523L261.524 41.5139Z" fill="#8FC9F8"/>
<path d="M261.509 32.92C262.078 32.92 262.645 32.9137 263.215 32.92C263.851 32.928 264.297 33.358 264.304 34.0066C264.318 35.1795 264.318 36.3523 264.304 37.5252C264.296 38.1934 263.845 38.6305 263.196 38.6323C262.069 38.6371 260.942 38.6371 259.816 38.6323C259.177 38.6323 258.709 38.2112 258.698 37.5707C258.677 36.3645 258.677 35.1583 258.698 33.9522C258.709 33.3375 259.16 32.9289 259.769 32.9208C260.35 32.9137 260.933 32.92 261.509 32.92Z" fill="#2195F2"/>
<path d="M251.681 32.9191C252.249 32.9191 252.816 32.9191 253.387 32.9191C254.055 32.9262 254.48 33.3473 254.484 34.0209C254.491 35.1931 254.491 36.3657 254.484 37.5386C254.48 38.1889 254.047 38.6288 253.407 38.6314C252.259 38.638 251.111 38.638 249.962 38.6314C249.339 38.6314 248.895 38.1675 248.892 37.5243C248.887 36.3508 248.887 35.1783 248.892 34.0066C248.892 33.3741 249.329 32.936 249.94 32.9191H251.679H251.681Z" fill="#2195F2"/>
<path d="M271.32 32.919C271.888 32.919 272.455 32.919 273.025 32.919C273.677 32.9271 274.106 33.3714 274.109 34.0414C274.113 35.1916 274.113 36.3419 274.109 37.4921C274.109 38.18 273.672 38.6287 273.003 38.6314C271.877 38.6362 270.75 38.6362 269.624 38.6314C268.951 38.6314 268.518 38.1907 268.515 37.502C268.51 36.3404 268.51 35.1788 268.515 34.0173C268.515 33.3526 268.934 32.9342 269.579 32.9182H271.319L271.32 32.919Z" fill="#2195F2"/>
<path d="M251.713 41.505C252.271 41.505 252.828 41.5006 253.387 41.505C254.055 41.5113 254.48 41.9324 254.484 42.6059C254.491 43.7782 254.491 44.9508 254.484 46.1237C254.48 46.774 254.047 47.2139 253.408 47.2174C252.259 47.2228 251.111 47.2228 249.963 47.2174C249.339 47.2174 248.895 46.7526 248.892 46.1103C248.887 44.9374 248.887 43.7648 248.892 42.5926C248.892 41.96 249.329 41.522 249.94 41.505H251.711H251.713Z" fill="#2195F2"/>
</g>
<g clip-path="url(#clip2_752_16680)">
<path d="M470.772 48.3685V29.5658C470.844 29.5658 470.908 29.5576 470.986 29.5576H506.883C506.996 29.5576 507.11 29.5699 507.225 29.5768C507.233 29.6587 507.241 29.7052 507.241 29.7517C507.241 35.7919 507.249 41.8308 507.225 47.8711C507.215 48.4053 507.089 48.9308 506.856 49.4112C506.16 50.842 504.966 51.5116 503.382 51.5116C493.802 51.5116 484.225 51.5116 474.649 51.5116C474.512 51.5116 474.387 51.5116 474.258 51.5116C473.759 51.4855 473.271 51.357 472.823 51.1339C472.376 50.9108 471.979 50.598 471.657 50.2147C471.183 49.6749 470.957 49.0327 470.772 48.3685Z" fill="#F9F9F9"/>
<path d="M473.979 17.171H504.041C504.06 17.1847 504.078 17.2079 504.098 17.2107C505.973 17.484 507.313 19.1471 507.26 21.2106C507.203 23.3889 507.247 25.5714 507.247 27.751V28.161H471.269C471.104 28.161 470.938 28.1747 470.772 28.1815V20.3182C470.799 20.2683 470.821 20.2156 470.837 20.1611C471.005 19.3147 471.461 18.5533 472.127 18.0074C472.668 17.5496 473.308 17.3309 473.979 17.171ZM503.615 22.6865C503.614 22.323 503.505 21.9681 503.303 21.6664C503.101 21.3648 502.815 21.13 502.48 20.9919C502.145 20.8537 501.776 20.8184 501.421 20.8902C501.066 20.9621 500.74 21.138 500.485 21.3957C500.229 21.6534 500.056 21.9812 499.986 22.3379C499.916 22.6946 499.954 23.064 500.093 23.3995C500.232 23.7349 500.468 24.0214 500.769 24.2226C501.071 24.4239 501.425 24.5308 501.787 24.53C502.272 24.5257 502.736 24.3298 503.078 23.9847C503.42 23.6397 503.613 23.1732 503.615 22.6865ZM494.491 24.5286C494.854 24.5278 495.208 24.4192 495.509 24.2164C495.81 24.0137 496.045 23.7259 496.183 23.3895C496.321 23.0531 496.357 22.6831 496.286 22.3263C496.214 21.9694 496.039 21.6418 495.783 21.3848C495.526 21.1278 495.199 20.9529 494.843 20.8822C494.488 20.8115 494.119 20.8482 493.784 20.9876C493.449 21.1271 493.163 21.363 492.962 21.6656C492.76 21.9682 492.653 22.324 492.653 22.6879C492.656 23.1759 492.85 23.6432 493.194 23.9883C493.538 24.3334 494.003 24.5285 494.49 24.5314L494.491 24.5286ZM489.01 22.722C489.016 22.3591 488.914 22.0026 488.719 21.6975C488.523 21.3925 488.241 21.1524 487.909 21.0078C487.578 20.8632 487.211 20.8204 486.855 20.8849C486.499 20.9494 486.17 21.1183 485.91 21.3702C485.649 21.6221 485.469 21.9458 485.392 22.3004C485.315 22.655 485.344 23.0246 485.476 23.3625C485.608 23.7004 485.837 23.9915 486.133 24.1991C486.43 24.4066 486.781 24.5213 487.143 24.5286C487.384 24.5341 487.623 24.4916 487.848 24.4038C488.072 24.3159 488.277 24.1843 488.45 24.0166C488.624 23.8489 488.762 23.6484 488.858 23.4267C488.954 23.205 489.005 22.9664 489.009 22.7248L489.01 22.722Z" fill="#1E87E4"/>
<path d="M487.388 40.6173L487.233 40.1978C486.898 39.2685 486.563 38.3397 486.229 37.4114C486.116 37.0998 485.901 36.9221 485.566 36.9536C485.424 36.9602 485.289 37.0199 485.188 37.121C485.088 37.2221 485.028 37.3574 485.021 37.5002C485.018 37.6578 485.048 37.8143 485.11 37.9594C485.655 39.4872 486.199 41.0123 486.744 42.5401C486.854 42.849 487.016 43.0977 487.375 43.1072C487.756 43.1168 487.926 42.8613 488.039 42.5374C488.359 41.6263 488.682 40.7194 489.01 39.8165C489.044 39.7222 489.093 39.6334 489.161 39.4872C489.228 39.6607 489.271 39.7701 489.312 39.8821C489.643 40.7991 489.976 41.7147 490.302 42.6344C490.409 42.9309 490.602 43.1113 490.922 43.1059C491.057 43.1059 491.189 43.0609 491.296 42.9777C491.403 42.8946 491.479 42.7782 491.513 42.6467C492.085 41.0519 492.662 39.4585 493.23 37.8637C493.376 37.4537 493.23 37.1189 492.876 36.9905C492.522 36.862 492.21 37.0369 492.059 37.4469C491.859 37.9826 491.671 38.5237 491.476 39.0635C491.301 39.5487 491.123 40.0338 490.919 40.5927C490.858 40.4561 490.825 40.3946 490.802 40.3317C490.451 39.356 490.101 38.3807 489.752 37.4059C489.714 37.2763 489.635 37.1626 489.527 37.0818C489.419 37.0009 489.288 36.9572 489.153 36.9572C489.018 36.9572 488.887 37.0009 488.779 37.0818C488.671 37.1626 488.592 37.2763 488.554 37.4059C488.463 37.6692 488.368 37.9329 488.269 38.1971L487.388 40.6173ZM496.624 40.6173C496.547 40.4178 496.494 40.2839 496.445 40.1486C496.124 39.2535 495.808 38.357 495.484 37.4647C495.333 37.0547 495.011 36.8675 494.667 36.9809C494.302 37.1025 494.153 37.4496 494.306 37.8787C494.864 39.4517 495.431 41.0218 495.989 42.5961C496.098 42.9036 496.282 43.1086 496.62 43.1059C496.957 43.1031 497.137 42.8831 497.243 42.5811C497.516 41.8122 497.788 41.0432 498.06 40.2743C498.152 40.0174 498.252 39.7619 498.371 39.4448C498.763 40.5381 499.135 41.5521 499.496 42.5743C499.602 42.8777 499.768 43.099 500.111 43.1059C500.454 43.1127 500.646 42.8858 500.759 42.5688C501.304 41.0177 501.87 39.4708 502.425 37.9225C502.588 37.4674 502.455 37.1162 502.083 36.985C501.733 36.8634 501.417 37.0519 501.258 37.492C500.92 38.4199 500.588 39.3492 500.253 40.2784C500.22 40.37 500.178 40.4588 500.117 40.5968C500.043 40.4014 499.991 40.2661 499.942 40.1295C499.621 39.2348 499.3 38.3397 498.981 37.4441C498.877 37.1544 498.692 36.9577 498.369 36.9549C498.047 36.9522 497.856 37.1408 497.753 37.4319L497.668 37.6737C497.337 38.6276 496.993 39.5869 496.624 40.6132V40.6173ZM479.919 39.4517C479.977 39.5979 480.016 39.6867 480.048 39.7769C480.383 40.7048 480.729 41.6327 481.051 42.5647C481.161 42.8804 481.337 43.1113 481.696 43.1113C482.035 43.1113 482.207 42.8899 482.316 42.5852C482.868 41.0218 483.432 39.4626 483.988 37.9019C484.142 37.4674 484.007 37.1244 483.649 36.9932C483.291 36.862 482.968 37.0506 482.815 37.4865C482.532 38.2655 482.258 39.0485 481.978 39.8288C481.889 40.0734 481.794 40.3153 481.681 40.6146C481.601 40.3987 481.545 40.2511 481.492 40.1021C481.179 39.2316 480.861 38.3611 480.554 37.4865C480.447 37.1831 480.281 36.9631 479.935 36.9604C479.589 36.9576 479.391 37.179 479.293 37.507C479.272 37.5781 479.243 37.6437 479.219 37.7134C478.876 38.67 478.538 39.6156 478.176 40.6105C478.123 40.4902 478.083 40.4165 478.056 40.3372C477.717 39.397 477.375 38.4554 477.04 37.5152C476.873 37.0519 476.551 36.862 476.19 37.0014C475.83 37.1408 475.708 37.4838 475.873 37.9498C476.114 38.6276 476.357 39.3045 476.602 39.9805C476.918 40.8651 477.235 41.7489 477.555 42.6317C477.658 42.9214 477.845 43.1154 478.168 43.1168C478.49 43.1182 478.678 42.9241 478.783 42.6344C478.813 42.5538 478.839 42.4731 478.868 42.3925L479.919 39.4517Z" fill="#8FA3AD"/>
</g>
<g clip-path="url(#clip3_752_16680)">
<path d="M379.334 36.4883C380.032 36.7116 380.727 36.9448 381.428 37.1561C384.15 37.9787 386.875 38.7979 389.601 39.6138C389.709 39.6457 389.812 39.6836 389.924 39.7214V67.6611L386.881 68.58C384.422 69.3201 381.963 70.0563 379.503 70.7885C379.316 70.8448 379.117 70.8448 378.93 70.7885C372.82 68.758 366.713 66.7216 360.609 64.6791C360.485 64.6449 360.374 64.5757 360.288 64.4798L379.179 66.6724V42.9425L366.322 45.0873V45.4979C366.322 50.9728 366.322 56.4476 366.322 61.9224C366.34 62.0337 366.313 62.1474 366.248 62.2389C366.182 62.3304 366.083 62.3922 365.972 62.4108C364.052 63.0367 362.137 63.6805 360.223 64.3183L359.876 64.426V64.0373C359.876 57.4874 359.876 50.9382 359.876 44.3897C359.861 44.2727 359.889 44.1541 359.957 44.0574C360.024 43.9607 360.125 43.8929 360.24 43.8674C366.452 41.4582 372.662 39.0417 378.868 36.6179C378.96 36.582 379.045 36.5322 379.135 36.4883H379.334Z" fill="#2195F2"/>
</g>
<g clip-path="url(#clip4_752_16680)">
<path d="M156.8 44.325V45.9658L161.107 44.4633V62.9445C161.099 65.0435 159.751 67.2223 158.102 67.7942L148.553 71.125C146.903 71.6969 145.569 70.4464 145.581 68.3474V67.8493L144.286 68.3005V68.7951C144.274 71.8118 146.187 73.592 148.55 72.7799L158.099 69.4479C160.462 68.6275 162.395 65.517 162.407 62.5015V42.369L156.8 44.325Z" fill="#2195F2"/>
<path d="M148.588 48.8337C146.938 49.4045 145.59 51.5762 145.582 53.6764V67.8575L152.491 65.4467C154.854 64.6263 156.786 61.5158 156.798 58.5003V45.9694L148.588 48.8337Z" fill="#2195F2"/>
<path d="M144.288 54.1252C144.3 51.1155 146.232 48.0039 148.596 47.1847L156.797 44.325V38.369L142.983 43.1847C140.62 44.0051 138.688 47.1155 138.676 50.1252V64.7997C138.664 67.8153 140.578 69.5955 142.94 68.7775L144.285 68.3087L144.288 54.1252Z" fill="#2195F2"/>
<path d="M138.68 62.6368L137.346 63.1056C135.696 63.6764 134.361 62.427 134.375 60.3268V45.6535C134.383 43.5532 135.731 41.3816 137.38 40.8096L149.895 36.4393V40.7756L151.195 40.3232V34.3461L137.382 39.1618C135.018 39.9822 133.086 43.0927 133.074 46.1012V60.7757C133.062 63.7912 134.976 65.5727 137.339 64.7535L138.678 64.2847L138.68 62.6368Z" fill="#1976D1"/>
</g>
<defs>
<clipPath id="clip0_752_16680">
<rect width="34.342" height="34.342" fill="white" transform="translate(17.1714 17.171)"/>
</clipPath>
<clipPath id="clip1_752_16680">
<rect width="33.6265" height="34.342" fill="white" transform="translate(244.687 17.171)"/>
</clipPath>
<clipPath id="clip2_752_16680">
<rect width="36.4884" height="34.342" fill="white" transform="translate(470.772 17.171)"/>
</clipPath>
<clipPath id="clip3_752_16680">
<rect width="30.0493" height="34.342" fill="white" transform="translate(359.875 36.4884)"/>
</clipPath>
<clipPath id="clip4_752_16680">
<rect width="29.3338" height="38.6347" fill="white" transform="translate(133.076 34.342)"/>
</clipPath>
</defs>
</svg>
