<svg width="30" height="39" viewBox="0 0 30 39" fill="none" xmlns="http://www.w3.org/2000/svg">
<g clip-path="url(#clip0_755_23414)">
<path d="M23.8006 10.325V11.9658L28.108 10.4633V28.9445C28.0996 31.0435 26.7518 33.2223 25.1021 33.7942L15.5531 37.125C13.9034 37.6969 12.5698 36.4464 12.5817 34.3474V33.8493L11.2862 34.3005V34.7951C11.2743 37.8118 13.1879 39.592 15.5507 38.7799L25.0997 35.4479C27.4626 34.6275 29.3952 31.517 29.4071 28.5015V8.36896L23.8006 10.325Z" fill="#2195F2"/>
<path d="M15.588 14.8337C13.9383 15.4045 12.5905 17.5762 12.5822 19.6764V33.8575L19.4913 31.4467C21.8542 30.6263 23.7868 27.5158 23.7987 24.5003V11.9694L15.588 14.8337Z" fill="#2195F2"/>
<path d="M11.2888 20.1252C11.3007 17.1155 13.2322 14.0039 15.5962 13.1847L23.7973 10.325V4.36896L9.98381 9.18469C7.62094 10.0051 5.68833 13.1155 5.67645 16.1252V30.7997C5.66456 33.8153 7.57814 35.5955 9.941 34.7775L11.2853 34.3087L11.2888 20.1252Z" fill="#2195F2"/>
<path d="M5.68003 28.6368L4.34646 29.1056C2.69673 29.6764 1.36197 28.427 1.37505 26.3268V11.6535C1.38337 9.55324 2.7312 7.38156 4.38093 6.80963L16.8953 2.43926V6.77564L18.1956 6.32323V0.346069L4.38212 5.1618C2.01807 5.98219 0.0866478 9.09266 0.0747621 12.1012V26.7757C0.0628764 29.7912 1.97648 31.5727 4.33935 30.7535L5.67884 30.2847L5.68003 28.6368Z" fill="#1976D1"/>
</g>
<defs>
<clipPath id="clip0_755_23414">
<rect width="29.3338" height="38.6347" fill="white" transform="translate(0.0761719 0.34198)"/>
</clipPath>
</defs>
</svg>
