<svg width="590" height="82" viewBox="0 0 590 82" fill="none" xmlns="http://www.w3.org/2000/svg">
<g clip-path="url(#clip0_752_16279)">
<path d="M481 20.989C481 18.7758 481.731 17.0663 483.088 14.9393L489.016 5.61292H494.832L489.608 13.339C489.817 13.2647 490.037 13.2266 490.259 13.2264C494.748 13.2264 498.446 16.3374 498.446 20.9558C498.446 25.6339 494.551 28.9669 489.721 28.9669C484.891 28.9669 481 25.8592 481 20.989ZM493.449 21.0155C493.449 18.9713 492.009 17.3711 489.721 17.3711C487.433 17.3711 485.99 18.9713 485.99 21.0155C485.99 23.0596 487.43 24.6599 489.715 24.6599C491.999 24.6599 493.449 23.0596 493.449 21.0155ZM517.722 17.0132C517.722 24.9912 513.941 28.9967 508.914 28.9967C503.887 28.9967 500.106 24.9912 500.106 17.0132C500.106 9.03534 503.89 5 508.914 5C513.938 5 517.722 9.00221 517.722 17.0132ZM504.962 17.0132C504.962 22.1916 506.656 24.5439 508.914 24.5439C511.172 24.5439 512.869 22.1916 512.869 17.0132C512.869 11.8349 511.175 9.44947 508.914 9.44947C506.653 9.44947 504.966 11.8018 504.966 17.0132H504.962Z" fill="#00AAFF"/>
<path d="M525.598 17.6195C525.598 19.3026 524.342 20.5318 522.525 20.5318C520.708 20.5318 519.465 19.3026 519.465 17.6195C519.465 15.9365 520.718 14.6941 522.525 14.6941C524.332 14.6941 525.598 15.9199 525.598 17.6195ZM523.15 27.2805H521.062L529.319 14.9194H531.417L523.15 27.2805ZM521.346 17.6195C521.341 17.7745 521.368 17.9288 521.425 18.073C521.483 18.2172 521.569 18.3482 521.68 18.4578C521.79 18.5674 521.923 18.6534 522.068 18.7104C522.213 18.7674 522.369 18.7941 522.525 18.7891C522.681 18.7942 522.837 18.7674 522.982 18.7104C523.127 18.6533 523.259 18.5673 523.369 18.4576C523.479 18.348 523.566 18.217 523.623 18.0728C523.68 17.9286 523.706 17.7743 523.701 17.6195C523.706 17.465 523.679 17.3111 523.622 17.1673C523.564 17.0235 523.478 16.893 523.368 16.7836C523.258 16.6743 523.126 16.5886 522.981 16.5318C522.836 16.475 522.681 16.4483 522.525 16.4533C522.369 16.4483 522.214 16.475 522.069 16.5318C521.924 16.5885 521.792 16.6742 521.681 16.7835C521.571 16.8927 521.484 17.0233 521.426 17.1671C521.369 17.3109 521.341 17.4649 521.346 17.6195V17.6195ZM533 24.577C533 26.2634 531.744 27.4892 529.924 27.4892C528.103 27.4892 526.867 26.2634 526.867 24.577C526.867 22.8907 528.12 21.6516 529.924 21.6516C531.727 21.6516 533 22.884 533 24.5803V24.577ZM528.748 24.577C528.742 24.7318 528.769 24.8861 528.826 25.0303C528.883 25.1744 528.969 25.3054 529.08 25.4151C529.19 25.5248 529.322 25.6108 529.467 25.6678C529.612 25.7249 529.768 25.7516 529.924 25.7465C530.08 25.7516 530.235 25.7248 530.381 25.6679C530.526 25.6109 530.658 25.5249 530.769 25.4153C530.879 25.3057 530.966 25.1747 531.023 25.0305C531.081 24.8863 531.108 24.732 531.103 24.577C531.107 24.4223 531.08 24.2684 531.022 24.1246C530.965 23.9808 530.878 23.8502 530.767 23.741C530.657 23.6317 530.525 23.546 530.38 23.4892C530.235 23.4325 530.08 23.4058 529.924 23.4108C529.767 23.4053 529.611 23.4317 529.466 23.4885C529.32 23.5453 529.188 23.6313 529.077 23.741C528.967 23.8507 528.88 23.9819 528.823 24.1263C528.766 24.2707 528.739 24.4253 528.745 24.5803L528.748 24.577Z" fill="#00AAFF"/>
</g>
<g clip-path="url(#clip1_752_16279)">
<path d="M58.7697 20.7015C58.5635 20.7766 58.3458 20.8149 58.1264 20.8147C53.6703 20.8147 50 17.689 50 13.0488C50 8.15229 53.8958 5 58.6603 5C63.4247 5 67.3172 8.12566 67.3172 13.0189C67.3172 15.2424 66.5911 16.9601 65.245 19.0971L59.3598 28.4674H53.5874L58.7697 20.7015ZM62.3571 12.9922C62.3571 10.9384 60.9281 9.33065 58.6603 9.33065C56.3924 9.33065 54.9601 10.9351 54.9601 12.9922C54.9601 15.0494 56.3891 16.6538 58.6603 16.6538C60.9314 16.6538 62.3571 15.046 62.3571 12.9922ZM69.1109 20.9811C69.1109 18.7609 69.8403 17.0433 71.1831 14.9062L77.0683 5.53592H82.8407L77.6584 13.3018C77.8646 13.2268 78.0823 13.1885 78.3017 13.1886C82.7578 13.1886 86.4281 16.311 86.4281 20.9545C86.4281 25.6513 82.5622 29 77.7712 29C72.9802 29 69.1109 25.8777 69.1109 20.9811ZM81.468 21.0111C81.468 18.9573 80.039 17.3495 77.7712 17.3495C75.5033 17.3495 74.0843 18.9573 74.0843 21.0111C74.0843 23.0649 75.5133 24.6727 77.7844 24.6727C80.0556 24.6727 81.468 23.0649 81.468 21.0111Z" fill="#00AAFF"/>
<path d="M93.6461 17.5858C93.6461 19.2768 92.4027 20.5118 90.5957 20.5118C88.7888 20.5118 87.5587 19.2768 87.5587 17.5858C87.5587 15.8948 88.8053 14.6432 90.5957 14.6432C92.3861 14.6432 93.6461 15.8915 93.6461 17.5858ZM91.2257 27.3057H89.1468L97.3429 14.8862H99.4218L91.2257 27.3057ZM89.4353 17.5858C89.4302 17.7411 89.4569 17.8957 89.5138 18.0402C89.5706 18.1846 89.6564 18.3158 89.7658 18.4257C89.8752 18.5355 90.0059 18.6216 90.1498 18.6787C90.2937 18.7358 90.4477 18.7626 90.6024 18.7575C90.7572 18.7626 90.9113 18.7358 91.0554 18.6787C91.1995 18.6217 91.3304 18.5356 91.44 18.4258C91.5497 18.3161 91.6358 18.1849 91.693 18.0404C91.7502 17.8959 91.7774 17.7412 91.7728 17.5858C91.7778 17.4301 91.751 17.2751 91.694 17.1302C91.637 16.9853 91.551 16.8538 91.4413 16.7436C91.3315 16.6335 91.2005 16.5471 91.0562 16.4899C90.9119 16.4326 90.7574 16.4057 90.6024 16.4108C90.4475 16.4057 90.2931 16.4326 90.149 16.4899C90.0049 16.5472 89.874 16.6336 89.7646 16.7438C89.6551 16.854 89.5694 16.9856 89.5128 17.1304C89.4561 17.2753 89.4298 17.4303 89.4353 17.5858ZM101 24.5761C101 26.2671 99.7566 27.5021 97.9497 27.5021C96.1427 27.5021 94.9126 26.2671 94.9126 24.5761C94.9126 22.8851 96.1593 21.6502 97.9563 21.6502C99.7533 21.6502 101 22.8851 101 24.5928V24.5761ZM96.7793 24.5761C96.7723 24.7336 96.7979 24.8909 96.8545 25.038C96.911 25.185 96.9973 25.3188 97.1079 25.4307C97.2184 25.5427 97.3509 25.6304 97.4969 25.6884C97.6429 25.7464 97.7994 25.7735 97.9563 25.7678C98.1105 25.7715 98.2639 25.7436 98.407 25.6857C98.5502 25.6278 98.68 25.5412 98.7886 25.4312C98.8973 25.3212 98.9824 25.1901 99.0388 25.046C99.0952 24.9018 99.1217 24.7476 99.1167 24.5928C99.1217 24.4379 99.0952 24.2837 99.0388 24.1395C98.9824 23.9954 98.8973 23.8643 98.7886 23.7543C98.68 23.6443 98.5502 23.5577 98.407 23.4998C98.2639 23.442 98.1105 23.414 97.9563 23.4177C97.8008 23.4122 97.6458 23.4387 97.501 23.4958C97.3561 23.5528 97.2245 23.639 97.1141 23.7491C97.0038 23.8593 96.9172 23.991 96.8596 24.1361C96.802 24.2812 96.7746 24.4366 96.7793 24.5928V24.5761Z" fill="#00AAFF"/>
</g>
<circle opacity="0.1" cx="17" cy="17" r="17" fill="#397AF6"/>
<path fill-rule="evenodd" clip-rule="evenodd" d="M16.4138 -7.11714e-05V16.9902L28.7242 4.67971C31.9745 7.77613 34 12.1465 34 16.99C34 26.3789 26.3888 33.99 17 33.99C7.61116 33.99 0 26.3789 0 16.99C0 7.79738 7.29637 0.308902 16.4138 -7.11714e-05Z" fill="#31A8F6"/>
<circle opacity="0.1" cx="448" cy="17" r="17" fill="#397AF6"/>
<path fill-rule="evenodd" clip-rule="evenodd" d="M446.509 0.0540761L447.12 17.5765L441.378 32.6515C435.279 30.0695 431 24.0292 431 16.9896C431 8.10308 437.819 0.809096 446.509 0.0540761Z" fill="#31A8F6"/>
<path d="M4.5875 53.6125H3.3V55.4625C3.3 57.55 2.2 59.6875 0.4375 60.55L1.225 61.5875C2.5125 60.925 3.4625 59.6125 3.95 58.05C4.4375 59.525 5.3375 60.75 6.55 61.375L7.3375 60.35C5.6375 59.5125 4.5875 57.475 4.5875 55.4625V53.6125ZM11.1375 57.15H9.375V52.675H8.0875V63.9625H9.375V58.2125H11.1375V57.15ZM13.924 53.975H12.6365V61.1125H13.3865C14.5615 61.1125 15.8615 61.05 17.374 60.775L17.2365 59.675C16.0115 59.9 14.924 59.9875 13.924 60.0125V53.975ZM20.5115 52.675V57.1625H19.174V52.9H17.9615V63.4H19.174V58.225H20.5115V63.9625H21.7365V52.675H20.5115ZM26.173 60.35C25.398 60.35 24.923 59.3375 24.923 57.55C24.923 55.7625 25.398 54.7625 26.173 54.7625C26.948 54.7625 27.423 55.7625 27.423 57.55C27.423 59.3375 26.948 60.35 26.173 60.35ZM29.7855 56.95H28.573C28.4355 54.8375 27.523 53.55 26.173 53.55C24.7105 53.55 23.748 55.075 23.748 57.55C23.748 60.025 24.7105 61.5625 26.173 61.5625C27.548 61.5625 28.473 60.2125 28.5855 58.0125H29.7855V63.425H30.9855V52.8875H29.7855V56.95ZM32.048 52.675V63.95H33.273V52.675H32.048ZM39.2221 53.5875H37.9221V55.45C37.9221 57.5625 36.8221 59.7375 35.0596 60.6L35.8721 61.625C37.1596 60.9625 38.0846 59.65 38.5846 58.05C39.0721 59.5625 39.9846 60.8 41.2596 61.4375L42.0221 60.4C40.2971 59.6 39.2221 57.55 39.2221 55.45V53.5875ZM43.2096 52.65V56.3625H40.7971V57.4125H43.2096V63.975H44.5096V52.65H43.2096ZM50.0412 53.8V54.85H53.8662C53.8287 55.475 53.7162 56.0625 53.5662 56.625L49.4537 56.875L49.6412 57.975L53.1662 57.65C52.5037 59.0375 51.3162 60.2125 49.4037 61.1875L50.1037 62.1875C54.1162 60.1375 55.1537 57.1625 55.1537 53.8H50.0412ZM57.4912 52.675V57.1125H55.1162V58.175H57.4912V63.975H58.7912V52.675H57.4912ZM68.6152 56.6875H63.4527V54.275H68.6152V56.6875ZM69.8902 53.25H62.1777V57.7125H69.8902V53.25ZM71.1652 59.1H60.9277V60.1375H63.4277V64.025H64.7152V60.1375H67.4152V64.025H68.6902V60.1375H71.1652V59.1ZM74.3768 53.775H73.1018V61.1125H74.0643C75.8143 61.1125 77.6393 60.975 79.5768 60.575L79.4393 59.5C77.6643 59.8625 75.9768 60 74.3768 60.0125V53.775ZM80.4768 52.675V63.9625H81.7643V52.675H80.4768ZM90.0133 57.0375H88.5133C88.7883 56.075 88.8883 55.05 88.8883 53.975H84.5258V55.0125H87.6508C87.6133 55.5625 87.5258 56.075 87.4008 56.5875L83.9758 56.7875L84.1508 57.9L87.0508 57.5875C86.5133 58.825 85.5383 59.875 83.9508 60.775L84.6758 61.675C86.4383 60.675 87.5008 59.45 88.1258 58.0875H90.0133V63.4125H91.2133V52.9375H90.0133V57.0375ZM92.3508 52.6625V63.9625H93.5883V52.6625H92.3508ZM103.425 52.6625V63.9875H104.725V52.6625H103.425ZM98.7123 53.5C97.0373 53.5 95.8123 55.05 95.8123 57.475C95.8123 59.925 97.0373 61.4625 98.7123 61.4625C100.4 61.4625 101.625 59.925 101.625 57.475C101.625 55.05 100.4 53.5 98.7123 53.5ZM98.7123 54.6625C99.6998 54.6625 100.387 55.725 100.387 57.475C100.387 59.25 99.6998 60.3125 98.7123 60.3125C97.7373 60.3125 97.0498 59.25 97.0498 57.475C97.0498 55.725 97.7373 54.6625 98.7123 54.6625ZM114.999 61.075H116.286V52.675H114.999V54.25H112.899V55.3H114.999V56.5125H112.899V57.55H114.999V61.075ZM113.586 58.5125C111.899 57.8625 110.961 56.3 110.961 54.7V53.3H109.649V54.7C109.649 56.4 108.674 58.0125 106.911 58.6625L107.611 59.675C108.899 59.1625 109.836 58.1625 110.324 56.8875C110.799 58.0625 111.686 59.025 112.874 59.525L113.586 58.5125ZM110.236 62.7V60.2625H108.936V63.75H116.549V62.7H110.236ZM6.375 77.55V74.8875H9.7125V73.85H3.175V70.5625H9.6125V69.525H1.8875V74.8875H5.0875V77.55H0.6375V78.6125H10.8625V77.55H6.375ZM22.349 74.1875H20.774C21.0615 72.5875 21.0615 71.4125 21.0615 70.35V69.3625H13.3615V70.4H19.799C19.799 71.4375 19.799 72.6125 19.474 74.1875H12.1365V75.25H16.549V79.9625H17.849V75.25H22.349V74.1875ZM29.373 77.575V75.65H32.898V74.6125H26.1355V73.0375H32.648V69.4625H24.848V70.5H31.373V72.0125H24.873V75.65H28.0855V77.575H23.6355V78.6375H33.8605V77.575H29.373ZM41.4672 76H39.5172V70.9375H41.4672V76ZM44.0922 72.8625H42.6672V69.9125H38.3172V77.025H42.6672V73.9125H44.0922V79.425H45.2922V68.8875H44.0922V72.8625ZM46.3547 68.675V79.95H47.5797V68.675H46.3547ZM58.7412 68.6875H57.4537V76.9375H58.7412V68.6875ZM56.2787 74.1375C54.5412 73.5375 53.5537 72.025 53.5537 70.425V69.3H52.2412V70.425C52.2412 72.075 51.2537 73.6875 49.4787 74.3375L50.1412 75.375C51.4662 74.875 52.4037 73.85 52.9162 72.5875C53.4037 73.7625 54.3287 74.6875 55.6162 75.1625L56.2787 74.1375ZM52.6662 78.7V76.1625H51.3662V79.75H59.0662V78.7H52.6662ZM64.9902 70.85H67.4402V69.8H61.2527V70.85H63.6902V71.7625C63.6902 73.8 62.5527 75.95 60.8152 76.7875L61.5777 77.8125C62.8902 77.1375 63.8652 75.7625 64.3652 74.1625C64.8652 75.675 65.8277 76.95 67.1152 77.575L67.8652 76.5625C66.1152 75.75 64.9902 73.675 64.9902 71.7625V70.85ZM69.0152 68.6625V72.7H66.7902V73.7625H69.0152V79.975H70.3027V68.6625H69.0152ZM80.1018 70.6H73.7393V73.1375H81.5768V72.2375H75.0018V71.4375H81.3768V68.95H73.7143V69.8375H80.1018V70.6ZM74.9143 78.0875H81.4143V75.5625H73.6143V76.45H80.1393V77.25H73.6393V79.8375H81.7518V78.95H74.9143V78.0875ZM72.4268 73.85V74.8H82.6643V73.85H72.4268ZM90.6959 69.6125H89.4084V71.4625C89.4084 73.55 88.3084 75.6875 86.5459 76.55L87.3334 77.5875C88.6209 76.925 89.5709 75.6125 90.0584 74.05C90.5459 75.525 91.4459 76.75 92.6584 77.375L93.4459 76.35C91.7459 75.5125 90.6959 73.475 90.6959 71.4625V69.6125ZM97.2459 73.15H95.4834V68.675H94.1959V79.9625H95.4834V74.2125H97.2459V73.15ZM103.32 78.975C101.67 78.975 100.745 78.625 100.745 77.9375C100.745 77.2625 101.67 76.9 103.32 76.9C104.97 76.9 105.907 77.2625 105.907 77.9375C105.907 78.625 104.97 78.975 103.32 78.975ZM103.32 75.9125C100.895 75.9125 99.4324 76.65 99.4324 77.9375C99.4324 79.2375 100.895 79.9625 103.32 79.9625C105.757 79.9625 107.207 79.2375 107.207 77.9375C107.207 76.65 105.757 75.9125 103.32 75.9125ZM101.945 73.0125C102.357 73.075 102.845 73.1125 103.345 73.1125C103.845 73.1125 104.307 73.075 104.72 73.0125V74.1625H101.945V73.0125ZM103.345 69.8625C105.02 69.8625 106.032 70.2625 106.032 70.9875C106.032 71.7125 105.02 72.125 103.345 72.125C101.657 72.125 100.645 71.7125 100.645 70.9875C100.645 70.2625 101.657 69.8625 103.345 69.8625ZM106.007 74.1625V72.675C106.87 72.3 107.37 71.725 107.37 70.9875C107.37 69.6625 105.807 68.8625 103.345 68.8625C100.87 68.8625 99.3199 69.6625 99.3199 70.9875C99.3199 71.725 99.8074 72.3 100.657 72.6625V74.1625H98.2324V75.1875H108.445V74.1625H106.007Z" fill="black"/>
<g clip-path="url(#clip2_752_16279)">
<path d="M292.376 22.9599H282V18.816L290.93 5.01406H297.253V18.8291H300.273V22.9599H297.253V27.4822H292.376V22.9599ZM292.376 18.8225V10.1629L286.931 18.816L292.376 18.8225ZM301.769 20.9173H306.844C307.042 22.7119 308.092 23.7593 310.219 23.7593C312.346 23.7593 313.594 22.242 313.594 20.1701C313.594 18.0982 312.346 16.6136 310.135 16.6136C309.505 16.5854 308.878 16.7091 308.309 16.9738C307.74 17.2386 307.247 17.636 306.875 18.1308H302.185L302.856 5.00427H317.458V9.27864H307.545L307.287 13.4975C308.415 12.8598 309.7 12.5348 311.004 12.5578C315.54 12.5578 318.602 15.3998 318.602 20.1701C318.602 24.9404 314.973 28.001 310.216 28.001C305.191 28.001 302.128 25.2439 301.759 20.9108L301.769 20.9173Z" fill="#00AAFF"/>
<path d="M326.563 16.8214C326.563 18.479 325.305 19.6895 323.477 19.6895C321.648 19.6895 320.407 18.479 320.407 16.8214C320.407 15.1639 321.665 13.9403 323.477 13.9403C325.288 13.9403 326.563 15.1476 326.563 16.8214ZM324.117 26.336H322.004L330.296 14.1491H332.4L324.117 26.336ZM322.306 16.8214C322.3 16.9739 322.327 17.1258 322.384 17.2678C322.441 17.4098 322.528 17.5388 322.639 17.6468C322.75 17.7548 322.882 17.8396 323.028 17.8957C323.174 17.9519 323.33 17.9782 323.487 17.9732C323.643 17.9782 323.8 17.9518 323.946 17.8957C324.092 17.8396 324.224 17.7549 324.335 17.647C324.446 17.539 324.533 17.41 324.591 17.268C324.649 17.126 324.676 16.974 324.671 16.8214C324.675 16.6691 324.648 16.5174 324.59 16.3758C324.532 16.2342 324.445 16.1056 324.334 15.998C324.223 15.8904 324.091 15.806 323.945 15.7501C323.799 15.6942 323.643 15.6679 323.487 15.6729C323.329 15.6665 323.172 15.6918 323.026 15.7471C322.879 15.8025 322.745 15.8867 322.634 15.9945C322.522 16.1023 322.434 16.2314 322.376 16.3737C322.318 16.516 322.29 16.6684 322.296 16.8214H322.306ZM334.007 23.6735C334.007 25.331 332.749 26.5415 330.92 26.5415C329.092 26.5415 327.848 25.331 327.848 23.6735C327.848 22.0159 329.109 20.7891 330.92 20.7891C332.732 20.7891 333.997 22.0061 333.997 23.68L334.007 23.6735ZM329.736 23.6735C329.732 23.8258 329.759 23.9774 329.817 24.1191C329.875 24.2607 329.962 24.3893 330.073 24.4969C330.184 24.6045 330.316 24.6888 330.462 24.7448C330.608 24.8007 330.764 24.827 330.92 24.822C331.077 24.827 331.233 24.8007 331.378 24.7447C331.524 24.6888 331.656 24.6044 331.767 24.4967C331.878 24.389 331.964 24.2604 332.022 24.1188C332.079 23.9772 332.106 23.8256 332.101 23.6735C332.107 23.521 332.08 23.3691 332.023 23.2271C331.966 23.0851 331.879 22.9561 331.768 22.8481C331.657 22.74 331.525 22.6553 331.379 22.5992C331.233 22.543 331.077 22.5166 330.92 22.5217C330.762 22.5152 330.604 22.5408 330.457 22.5967C330.309 22.6526 330.175 22.7376 330.062 22.8464C329.95 22.9552 329.862 23.0855 329.805 23.229C329.747 23.3724 329.72 23.526 329.726 23.68L329.736 23.6735Z" fill="#00AAFF"/>
</g>
<circle opacity="0.1" cx="249" cy="17" r="17" fill="#397AF6"/>
<path fill-rule="evenodd" clip-rule="evenodd" d="M248.414 -7.10421e-05V17.2833L258.325 31.2064C255.648 32.9662 252.443 33.99 249 33.99C239.611 33.99 232 26.3789 232 16.99C232 7.79738 239.296 0.308902 248.414 -7.10421e-05Z" fill="#31A8F6"/>
<path d="M239.313 53.9625H236.625V52.6625H235.338V53.9625H232.65V54.9875H239.313V53.9625ZM234.475 57.65C234.475 56.9375 235.088 56.5125 235.975 56.5125C236.875 56.5125 237.488 56.9375 237.488 57.65C237.488 58.3625 236.875 58.7875 235.975 58.7875C235.088 58.7875 234.475 58.3625 234.475 57.65ZM238.713 57.65C238.713 56.375 237.6 55.5125 235.975 55.5125C234.363 55.5125 233.238 56.375 233.238 57.65C233.238 58.9375 234.363 59.7875 235.975 59.7875C237.6 59.7875 238.713 58.9375 238.713 57.65ZM235.6 60.4875H234.3V63.75H241.9V62.7H235.6V60.4875ZM241.45 56.275V52.675H240.163V61.1375H241.45V57.3375H243.05V56.275H241.45ZM250.599 56.575C249.199 56.8625 247.937 56.9375 245.862 56.95V54.325H249.599V53.3H244.574V57.9875H245.487C247.849 57.9875 249.212 57.9125 250.749 57.5875L250.599 56.575ZM246.949 61.7875H252.949V58.8375H245.662V59.875H251.674V60.8125H245.687V63.825H253.324V62.8H246.949V61.7875ZM252.949 54.9375V52.675H251.662V58.325H252.949V56H254.549V54.9375H252.949ZM258.173 60.35C257.398 60.35 256.923 59.3375 256.923 57.55C256.923 55.7625 257.398 54.7625 258.173 54.7625C258.948 54.7625 259.423 55.7625 259.423 57.55C259.423 59.3375 258.948 60.35 258.173 60.35ZM261.786 56.95H260.573C260.436 54.8375 259.523 53.55 258.173 53.55C256.711 53.55 255.748 55.075 255.748 57.55C255.748 60.025 256.711 61.5625 258.173 61.5625C259.548 61.5625 260.473 60.2125 260.586 58.0125H261.786V63.425H262.986V52.8875H261.786V56.95ZM264.048 52.675V63.95H265.273V52.675H264.048ZM276.617 53.9625H273.93V52.6625H272.642V53.9625H269.955V54.9875H276.617V53.9625ZM271.78 57.65C271.78 56.9375 272.392 56.5125 273.28 56.5125C274.18 56.5125 274.792 56.9375 274.792 57.65C274.792 58.3625 274.18 58.7875 273.28 58.7875C272.392 58.7875 271.78 58.3625 271.78 57.65ZM276.017 57.65C276.017 56.375 274.905 55.5125 273.28 55.5125C271.667 55.5125 270.542 56.375 270.542 57.65C270.542 58.9375 271.667 59.7875 273.28 59.7875C274.905 59.7875 276.017 58.9375 276.017 57.65ZM272.905 60.4875H271.605V63.75H279.205V62.7H272.905V60.4875ZM278.755 56.275V52.675H277.467V61.1375H278.755V57.3375H280.355V56.275H278.755ZM288.699 58.1375H286.036V56.3H288.699V58.1375ZM289.961 56.825H292.311V61.0375H293.599V52.675H292.311V55.775H289.961V53.425H288.699V55.2875H286.036V53.425H284.761V59.1875H289.961V56.825ZM287.549 62.7V60.2125H286.249V63.75H293.861V62.7H287.549ZM306.543 52.6625V63.9875H307.843V52.6625H306.543ZM301.83 53.5C300.155 53.5 298.93 55.05 298.93 57.475C298.93 59.925 300.155 61.4625 301.83 61.4625C303.518 61.4625 304.743 59.925 304.743 57.475C304.743 55.05 303.518 53.5 301.83 53.5ZM301.83 54.6625C302.818 54.6625 303.505 55.725 303.505 57.475C303.505 59.25 302.818 60.3125 301.83 60.3125C300.855 60.3125 300.168 59.25 300.168 57.475C300.168 55.725 300.855 54.6625 301.83 54.6625ZM316.617 57.8375C314.942 57.2875 313.979 55.9125 313.979 54.4625V53.25H312.679V54.3625C312.679 55.9875 311.717 57.525 309.942 58.1375L310.629 59.1625C311.929 58.6875 312.854 57.7125 313.354 56.4875C313.829 57.55 314.729 58.4125 315.942 58.85L316.617 57.8375ZM315.229 62.95C313.654 62.95 312.742 62.5625 312.742 61.8375C312.742 61.1375 313.654 60.7375 315.229 60.7375C316.804 60.7375 317.717 61.1375 317.717 61.8375C317.717 62.5625 316.804 62.95 315.229 62.95ZM315.229 59.725C312.904 59.725 311.467 60.5125 311.467 61.8375C311.467 63.175 312.904 63.9625 315.229 63.9625C317.567 63.9625 318.992 63.175 318.992 61.8375C318.992 60.5125 317.567 59.725 315.229 59.725ZM318.867 55.4625V52.6625H317.579V59.45H318.867V56.525H320.467V55.4625H318.867ZM240.275 72.225H235.188V70.2H240.275V72.225ZM241.538 69.175H233.925V73.25H241.538V69.175ZM235.163 76.4875H233.875V79.75H241.725V78.7H235.163V76.4875ZM232.625 74.3625V75.4H237.2V77.5125H238.488V75.4H242.863V74.3625H232.625ZM248.224 69.5875H246.924V71.45C246.924 73.5625 245.824 75.7375 244.062 76.6L244.874 77.625C246.162 76.9625 247.087 75.65 247.587 74.05C248.074 75.5625 248.987 76.8 250.262 77.4375L251.024 76.4C249.299 75.6 248.224 73.55 248.224 71.45V69.5875ZM252.212 68.65V72.3625H249.799V73.4125H252.212V79.975H253.512V68.65H252.212ZM263.298 70.6H256.936V73.1375H264.773V72.2375H258.198V71.4375H264.573V68.95H256.911V69.8375H263.298V70.6ZM258.111 78.0875H264.611V75.5625H256.811V76.45H263.336V77.25H256.836V79.8375H264.948V78.95H258.111V78.0875ZM255.623 73.85V74.8H265.861V73.85H255.623ZM276.592 73.325C274.867 72.825 273.892 71.6125 273.892 70.35V70.2875H276.242V69.25H270.18V70.2875H272.58V70.35C272.58 71.75 271.567 73.075 269.792 73.6L270.405 74.6C271.78 74.1875 272.755 73.3125 273.267 72.175C273.767 73.175 274.705 73.95 275.992 74.325L276.592 73.325ZM272.755 77.825H278.755V74.9625H271.467V75.95H277.48V76.9H271.492V79.8625H279.13V78.8625H272.755V77.825ZM278.755 71.025V68.675H277.467V74.475H278.755V72.0875H280.342V71.025H278.755ZM287.191 75.825H285.879V76.1125C285.879 77.4625 284.416 78.6 282.179 78.9125L282.654 79.9C284.441 79.6375 285.841 78.8625 286.541 77.7375C287.229 78.8625 288.629 79.6375 290.429 79.9L290.904 78.9125C288.641 78.6 287.191 77.4625 287.191 76.1125V75.825ZM283.991 70.15H289.079V71.9625H283.991V70.15ZM287.179 74.1625V73H290.341V69.125H282.729V73H285.891V74.1625H281.429V75.1875H291.654V74.1625H287.179ZM304.373 73.1625C304.685 72 304.685 71.0625 304.685 70.1625V69.2125H296.935V70.25H303.41C303.41 71.1 303.398 71.9125 303.11 73.025L304.373 73.1625ZM300.81 78.975C299.135 78.975 298.11 78.5625 298.11 77.85C298.11 77.15 299.135 76.7375 300.81 76.7375C302.473 76.7375 303.473 77.15 303.473 77.85C303.473 78.5625 302.473 78.975 300.81 78.975ZM300.81 75.75C298.373 75.75 296.835 76.55 296.835 77.85C296.835 79.1625 298.373 79.9625 300.81 79.9625C303.21 79.9625 304.76 79.1625 304.76 77.85C304.76 76.55 303.21 75.75 300.81 75.75ZM301.06 73.8375V71.7625H299.76V73.8375H295.76V74.875H305.935V73.8375H301.06ZM312.334 70.125C313.947 70.125 315.009 70.675 315.009 71.575C315.009 72.4875 313.947 73.0375 312.334 73.0375C310.709 73.0375 309.647 72.4875 309.647 71.575C309.647 70.675 310.709 70.125 312.334 70.125ZM312.334 74.075C314.709 74.075 316.334 73.1 316.334 71.575C316.334 70.0625 314.709 69.0875 312.334 69.0875C309.947 69.0875 308.322 70.0625 308.322 71.575C308.322 73.1 309.947 74.075 312.334 74.075ZM317.472 75.0375H307.234V76.1H309.734V79.9625H311.047V76.1H313.622V79.9625H314.934V76.1H317.484L317.472 75.0375Z" fill="black"/>
<path d="M436.163 60H434.213V54.9375H436.163V60ZM438.788 56.8625H437.363V53.9125H433.013V61.025H437.363V57.9125H438.788V63.425H439.988V52.8875H438.788V56.8625ZM441.05 52.675V63.95H442.275V52.675H441.05ZM453.437 52.6875H452.149V60.9375H453.437V52.6875ZM450.974 58.1375C449.237 57.5375 448.249 56.025 448.249 54.425V53.3H446.937V54.425C446.937 56.075 445.949 57.6875 444.174 58.3375L444.837 59.375C446.162 58.875 447.099 57.85 447.612 56.5875C448.099 57.7625 449.024 58.6875 450.312 59.1625L450.974 58.1375ZM447.362 62.7V60.1625H446.062V63.75H453.762V62.7H447.362ZM459.686 54.85H462.136V53.8H455.948V54.85H458.386V55.7625C458.386 57.8 457.248 59.95 455.511 60.7875L456.273 61.8125C457.586 61.1375 458.561 59.7625 459.061 58.1625C459.561 59.675 460.523 60.95 461.811 61.575L462.561 60.5625C460.811 59.75 459.686 57.675 459.686 55.7625V54.85ZM463.711 52.6625V56.7H461.486V57.7625H463.711V63.975H464.998V52.6625H463.711ZM469.672 60.35C468.897 60.35 468.422 59.3375 468.422 57.55C468.422 55.7625 468.897 54.7625 469.672 54.7625C470.447 54.7625 470.922 55.7625 470.922 57.55C470.922 59.3375 470.447 60.35 469.672 60.35ZM473.285 56.95H472.072C471.935 54.8375 471.022 53.55 469.672 53.55C468.21 53.55 467.247 55.075 467.247 57.55C467.247 60.025 468.21 61.5625 469.672 61.5625C471.047 61.5625 471.972 60.2125 472.085 58.0125H473.285V63.425H474.485V52.8875H473.285V56.95ZM475.547 52.675V63.95H476.772V52.675H475.547ZM483.866 56.3625H489.216V58.2125H483.866V56.3625ZM487.179 61.525V59.25H490.491V53.425H489.216V55.325H483.866V53.425H482.591V59.25H485.891V61.525H481.441V62.5875H491.666V61.525H487.179ZM494.34 56.25C494.34 55.225 495.09 54.55 496.078 54.55C497.065 54.55 497.828 55.225 497.828 56.25C497.828 57.2875 497.065 57.9625 496.078 57.9625C495.09 57.9625 494.34 57.2875 494.34 56.25ZM499.09 56.25C499.09 54.6 497.79 53.4375 496.078 53.4375C494.378 53.4375 493.078 54.6 493.078 56.25C493.078 57.9 494.378 59.075 496.078 59.075C497.79 59.075 499.09 57.9 499.09 56.25ZM495.903 60.1H494.603V63.75H502.203V62.7H495.903V60.1ZM501.753 56.025V52.675H500.465V60.95H501.753V57.0875H503.353V56.025H501.753ZM513.309 55.5125V56.5625H515.309V59.4H516.597V52.675H515.309V55.5125H513.309ZM513.959 58.025C512.272 57.4375 511.309 56.0375 511.309 54.625V54.475H513.659V53.4375H507.622V54.475H510.009V54.6375C510.009 56.1875 508.997 57.6875 507.247 58.3125L507.909 59.3375C509.247 58.8625 510.197 57.8625 510.697 56.625C511.172 57.7125 512.072 58.6 513.322 59.0375L513.959 58.025ZM512.847 62.975C511.234 62.975 510.322 62.575 510.322 61.8375C510.322 61.1 511.234 60.7 512.847 60.7C514.434 60.7 515.359 61.1 515.359 61.8375C515.359 62.575 514.434 62.975 512.847 62.975ZM512.847 59.7C510.484 59.7 509.034 60.5 509.034 61.8375C509.034 63.1875 510.484 63.975 512.847 63.975C515.197 63.975 516.647 63.1875 516.647 61.8375C516.647 60.5 515.197 59.7 512.847 59.7ZM524.333 58.1375C522.921 57.625 522.183 56.4375 522.183 55.175V55.0875H524.033V54.0625H522.183V52.7875H520.946V54.0625H519.046V55.0875H520.946V55.175C520.946 56.5 520.221 57.775 518.783 58.3375L519.396 59.3C520.471 58.8625 521.196 58.05 521.583 57.05C521.996 57.975 522.708 58.7 523.746 59.1L524.333 58.1375ZM520.646 61.1875H527.008V63.975H528.296V60.15H520.646V61.1875ZM527.071 52.6875V55.6125H525.908V52.875H524.696V59.5375H525.908V56.6625H527.071V59.6H528.296V52.6875H527.071ZM538.232 52.6625V63.9875H539.532V52.6625H538.232ZM533.52 53.5C531.845 53.5 530.62 55.05 530.62 57.475C530.62 59.925 531.845 61.4625 533.52 61.4625C535.207 61.4625 536.432 59.925 536.432 57.475C536.432 55.05 535.207 53.5 533.52 53.5ZM533.52 54.6625C534.507 54.6625 535.195 55.725 535.195 57.475C535.195 59.25 534.507 60.3125 533.52 60.3125C532.545 60.3125 531.857 59.25 531.857 57.475C531.857 55.725 532.545 54.6625 533.52 54.6625ZM551.264 58.025C549.577 57.4375 548.614 56.025 548.614 54.625V54.4125H550.964V53.375H544.927V54.4125H547.314V54.6375C547.314 56.1625 546.289 57.65 544.539 58.25L545.202 59.2625C546.539 58.8 547.489 57.825 547.989 56.6125C548.477 57.7 549.377 58.5875 550.627 59.025L551.264 58.025ZM546.289 61.0125H552.614V63.9625H553.902V59.975H546.289V61.0125ZM552.614 52.6625V55.5H550.639V56.5625H552.614V59.4125H553.902V52.6625H552.614ZM561.126 62.975C559.476 62.975 558.551 62.625 558.551 61.9375C558.551 61.2625 559.476 60.9 561.126 60.9C562.776 60.9 563.713 61.2625 563.713 61.9375C563.713 62.625 562.776 62.975 561.126 62.975ZM561.126 59.9125C558.701 59.9125 557.238 60.65 557.238 61.9375C557.238 63.2375 558.701 63.9625 561.126 63.9625C563.563 63.9625 565.013 63.2375 565.013 61.9375C565.013 60.65 563.563 59.9125 561.126 59.9125ZM559.751 57.0125C560.163 57.075 560.651 57.1125 561.151 57.1125C561.651 57.1125 562.113 57.075 562.526 57.0125V58.1625H559.751V57.0125ZM561.151 53.8625C562.826 53.8625 563.838 54.2625 563.838 54.9875C563.838 55.7125 562.826 56.125 561.151 56.125C559.463 56.125 558.451 55.7125 558.451 54.9875C558.451 54.2625 559.463 53.8625 561.151 53.8625ZM563.813 58.1625V56.675C564.676 56.3 565.176 55.725 565.176 54.9875C565.176 53.6625 563.613 52.8625 561.151 52.8625C558.676 52.8625 557.126 53.6625 557.126 54.9875C557.126 55.725 557.613 56.3 558.463 56.6625V58.1625H556.038V59.1875H566.251V58.1625H563.813ZM571.912 58.45H574.212V57.4125H569.675V54.75H574.162V53.7H568.387V58.45H570.625V60.5375C569.562 60.5625 568.537 60.575 567.6 60.575L567.762 61.6375C569.887 61.65 572.512 61.6125 574.95 61.225L574.85 60.275C573.912 60.3875 572.912 60.45 571.912 60.4875V58.45ZM575.537 52.65V63.9875H576.837V52.65H575.537ZM583.211 54.8625H585.724V53.8H579.399V54.8625H581.911V55.9375C581.911 57.875 580.749 59.975 578.999 60.7875L579.736 61.8125C581.061 61.175 582.074 59.8375 582.574 58.2625C583.099 59.725 584.111 60.95 585.424 61.525L586.136 60.5125C584.374 59.7625 583.211 57.8125 583.211 55.9375V54.8625ZM587.036 52.675V63.9625H588.336V52.675H587.036ZM434.025 71.9C434.025 70.9625 434.763 70.325 435.738 70.325C436.713 70.325 437.45 70.9625 437.45 71.9C437.45 72.825 436.713 73.4625 435.738 73.4625C434.763 73.4625 434.025 72.825 434.025 71.9ZM438.7 71.9C438.7 70.3625 437.438 69.275 435.738 69.275C434.038 69.275 432.775 70.3625 432.775 71.9C432.775 73.425 434.038 74.525 435.738 74.525C437.438 74.525 438.7 73.425 438.7 71.9ZM434.975 75.425H433.725V79.675H434.313C435.225 79.675 436.2 79.625 437.225 79.275L437.013 78.25C436.338 78.475 435.625 78.575 434.975 78.6125V75.425ZM439.65 79.075C439.075 79.075 438.65 78.8125 438.65 78.375C438.65 77.925 439.075 77.675 439.65 77.675C440.213 77.675 440.638 77.925 440.638 78.375C440.638 78.8125 440.213 79.075 439.65 79.075ZM439.65 76.775C438.4 76.775 437.513 77.4 437.513 78.375C437.513 79.35 438.4 79.975 439.65 79.975C440.888 79.975 441.775 79.35 441.775 78.375C441.775 77.4 440.888 76.775 439.65 76.775ZM440.275 74.5625H439.025V75.4875H436.813V76.425H442.475V75.4875H440.275V74.5625ZM441.45 71.125V68.675H440.163V74.2625H441.45V72.1875H443.05V71.125H441.45ZM449.237 70.0625C450.887 70.0625 451.924 70.525 451.924 71.3125C451.924 72.1125 450.887 72.575 449.237 72.575C447.574 72.575 446.537 72.1125 446.537 71.3125C446.537 70.525 447.574 70.0625 449.237 70.0625ZM449.237 73.6125C451.674 73.6125 453.262 72.75 453.262 71.3125C453.262 69.8875 451.674 69.025 449.237 69.025C446.799 69.025 445.212 69.8875 445.212 71.3125C445.212 72.75 446.799 73.6125 449.237 73.6125ZM446.712 76.4625H445.412V79.75H453.199V78.7H446.712V76.4625ZM444.124 74.525V75.575H454.337V74.525H444.124ZM465.006 73.8375C463.331 73.2875 462.368 71.9125 462.368 70.4625V69.25H461.068V70.3625C461.068 71.9875 460.106 73.525 458.331 74.1375L459.018 75.1625C460.318 74.6875 461.243 73.7125 461.743 72.4875C462.218 73.55 463.118 74.4125 464.331 74.85L465.006 73.8375ZM463.618 78.95C462.043 78.95 461.131 78.5625 461.131 77.8375C461.131 77.1375 462.043 76.7375 463.618 76.7375C465.193 76.7375 466.106 77.1375 466.106 77.8375C466.106 78.5625 465.193 78.95 463.618 78.95ZM463.618 75.725C461.293 75.725 459.856 76.5125 459.856 77.8375C459.856 79.175 461.293 79.9625 463.618 79.9625C465.956 79.9625 467.381 79.175 467.381 77.8375C467.381 76.5125 465.956 75.725 463.618 75.725ZM467.256 71.4625V68.6625H465.968V75.45H467.256V72.525H468.856V71.4625H467.256ZM471.58 73.9H474.642V72.8875H471.58V70.95H474.842V69.9125H470.342V77.2625H471.105C472.867 77.2625 473.967 77.225 475.267 76.9875L475.155 75.9375C474.005 76.1375 473.03 76.1875 471.58 76.2V73.9ZM478.355 68.675V73.1375H477.092V68.8875H475.892V79.425H477.092V74.1875H478.355V79.95H479.58V68.675H478.355ZM496.706 69.5875H492.806V68.5375H491.506V69.5875H487.556V70.575H496.706V69.5875ZM488.156 77.8125H494.656V79.975H495.956V76.8125H488.156V77.8125ZM489.769 72.6C489.769 72.1 490.569 71.85 492.156 71.85C493.731 71.85 494.531 72.1 494.531 72.6C494.531 73.1 493.731 73.35 492.156 73.35C490.569 73.35 489.769 73.1 489.769 72.6ZM492.806 75.025V74.225C494.744 74.125 495.856 73.5625 495.856 72.6C495.856 71.525 494.506 70.95 492.156 70.95C489.794 70.95 488.444 71.525 488.444 72.6C488.444 73.5625 489.556 74.125 491.506 74.225V75.025H487.044V76.0375H497.256V75.025H492.806ZM503.655 70.0625C505.305 70.0625 506.343 70.525 506.343 71.3125C506.343 72.1125 505.305 72.575 503.655 72.575C501.993 72.575 500.955 72.1125 500.955 71.3125C500.955 70.525 501.993 70.0625 503.655 70.0625ZM503.655 73.6125C506.093 73.6125 507.68 72.75 507.68 71.3125C507.68 69.8875 506.093 69.025 503.655 69.025C501.218 69.025 499.63 69.8875 499.63 71.3125C499.63 72.75 501.218 73.6125 503.655 73.6125ZM501.13 76.4625H499.83V79.75H507.618V78.7H501.13V76.4625ZM498.543 74.525V75.575H508.755V74.525H498.543ZM519.575 74.025C517.887 73.4375 516.925 72.025 516.925 70.625V70.4125H519.275V69.375H513.237V70.4125H515.625V70.6375C515.625 72.1625 514.6 73.65 512.85 74.25L513.512 75.2625C514.85 74.8 515.8 73.825 516.3 72.6125C516.787 73.7 517.687 74.5875 518.937 75.025L519.575 74.025ZM514.6 77.0125H520.925V79.9625H522.212V75.975H514.6V77.0125ZM520.925 68.6625V71.5H518.95V72.5625H520.925V75.4125H522.212V68.6625H520.925ZM529.436 78.975C527.786 78.975 526.861 78.625 526.861 77.9375C526.861 77.2625 527.786 76.9 529.436 76.9C531.086 76.9 532.024 77.2625 532.024 77.9375C532.024 78.625 531.086 78.975 529.436 78.975ZM529.436 75.9125C527.011 75.9125 525.549 76.65 525.549 77.9375C525.549 79.2375 527.011 79.9625 529.436 79.9625C531.874 79.9625 533.324 79.2375 533.324 77.9375C533.324 76.65 531.874 75.9125 529.436 75.9125ZM528.061 73.0125C528.474 73.075 528.961 73.1125 529.461 73.1125C529.961 73.1125 530.424 73.075 530.836 73.0125V74.1625H528.061V73.0125ZM529.461 69.8625C531.136 69.8625 532.149 70.2625 532.149 70.9875C532.149 71.7125 531.136 72.125 529.461 72.125C527.774 72.125 526.761 71.7125 526.761 70.9875C526.761 70.2625 527.774 69.8625 529.461 69.8625ZM532.124 74.1625V72.675C532.986 72.3 533.486 71.725 533.486 70.9875C533.486 69.6625 531.924 68.8625 529.461 68.8625C526.986 68.8625 525.436 69.6625 525.436 70.9875C525.436 71.725 525.924 72.3 526.774 72.6625V74.1625H524.349V75.1875H534.561V74.1625H532.124ZM544.468 74.6375C544.53 74.275 544.568 73.9 544.568 73.475C544.568 73 544.518 72.575 544.43 72.1625H546.743V74.6375H544.468ZM541.705 76.3125C540.743 76.3125 540.068 75.25 540.068 73.475C540.068 71.725 540.743 70.6625 541.705 70.6625C542.68 70.6625 543.343 71.725 543.343 73.475C543.343 75.25 542.68 76.3125 541.705 76.3125ZM546.743 68.6625V71.1H544.08C543.568 70.0875 542.73 69.5 541.705 69.5C540.043 69.5 538.855 71.05 538.855 73.475C538.855 75.925 540.043 77.4625 541.705 77.4625C542.78 77.4625 543.668 76.8125 544.143 75.7H546.743V79.9875H548.043V68.6625H546.743ZM557.842 73.0125H552.679V71.575H557.842V73.0125ZM559.129 69.1125H557.842V70.5375H552.679V69.1125H551.392V74.05H559.129V69.1125ZM560.392 75.275H550.154V76.3125H554.592V79.975H555.879V76.3125H560.392V75.275ZM566.973 77.95H573.398V75.2625H565.673V76.2375H572.136V77.0375H565.698V79.8625H573.723V78.875H566.973V77.95ZM567.036 70.025H572.098V71.5H567.036V70.025ZM570.198 73.4625V72.5125H573.361V69.025H565.761V72.5125H568.911V73.4625H564.461V74.4875H574.686V73.4625H570.198ZM577.697 73.875H581.56V69.675H576.397V70.725H580.285V72.8375H576.422V77.3H577.347C579.435 77.3 580.947 77.225 582.685 76.9125L582.547 75.8625C580.96 76.15 579.547 76.225 577.697 76.2375V73.875ZM586.472 73.0625H584.735V68.65H583.435V79.975H584.735V74.1375H586.472V73.0625Z" fill="black"/>
<defs>
<clipPath id="clip0_752_16279">
<rect width="52" height="24" fill="white" transform="translate(481 5)"/>
</clipPath>
<clipPath id="clip1_752_16279">
<rect width="51" height="24" fill="white" transform="translate(50 5)"/>
</clipPath>
<clipPath id="clip2_752_16279">
<rect width="52" height="23" fill="white" transform="translate(282 5)"/>
</clipPath>
</defs>
</svg>
