<svg width="37" height="35" viewBox="0 0 37 35" fill="none" xmlns="http://www.w3.org/2000/svg">
<g clip-path="url(#clip0_755_23408)">
<path d="M0.212769 31.3685V12.5658C0.284942 12.5658 0.348954 12.5576 0.426574 12.5576H36.3239C36.437 12.5576 36.5513 12.5699 36.6657 12.5768C36.6739 12.6588 36.6821 12.7052 36.6821 12.7517C36.6821 18.7919 36.6902 24.8309 36.6657 30.8711C36.6556 31.4053 36.5297 31.9308 36.2967 32.4112C35.6008 33.842 34.4066 34.5117 32.8228 34.5117C23.2433 34.5117 13.6656 34.5117 4.0897 34.5117C3.95352 34.5117 3.82824 34.5117 3.69887 34.5117C3.19998 34.4856 2.71175 34.357 2.26437 34.1339C1.81698 33.9109 1.41997 33.598 1.09791 33.2148C0.62402 32.675 0.397968 32.0327 0.212769 31.3685Z" fill="#F9F9F9"/>
<path d="M3.41984 0.171021H33.4821C33.5011 0.184686 33.5188 0.207923 33.5393 0.210656C35.4144 0.483971 36.7544 2.14708 36.7013 4.2106C36.6441 6.38892 36.6877 8.57136 36.6877 10.751V11.161H0.709937C0.545164 11.161 0.379025 11.1747 0.212891 11.1815V3.31824C0.240055 3.26828 0.261959 3.21561 0.278252 3.16108C0.445966 2.31472 0.901905 1.55329 1.56785 1.00736C2.10847 0.549561 2.7485 0.33091 3.41984 0.171021ZM33.0558 5.68651C33.0547 5.32304 32.9463 4.96805 32.7442 4.66642C32.5422 4.36479 32.2555 4.13005 31.9205 3.99189C31.5855 3.85373 31.2172 3.81836 30.8621 3.89023C30.5071 3.9621 30.1812 4.13799 29.9258 4.39567C29.6704 4.65335 29.4968 4.98125 29.427 5.33791C29.3572 5.69458 29.3944 6.06401 29.5338 6.39947C29.6732 6.73494 29.9086 7.02139 30.2103 7.22262C30.5119 7.42385 30.8662 7.53083 31.2284 7.53002C31.7134 7.52571 32.1771 7.3298 32.5192 6.98474C32.8613 6.63967 33.0541 6.17324 33.0558 5.68651ZM23.932 7.52865C24.2946 7.52784 24.6489 7.41919 24.95 7.21643C25.2511 7.01367 25.4856 6.72591 25.6238 6.38948C25.762 6.05305 25.7977 5.68305 25.7265 5.32625C25.6553 4.96945 25.4802 4.64184 25.2235 4.38481C24.9668 4.12779 24.64 3.95287 24.2843 3.88217C23.9286 3.81148 23.56 3.84817 23.225 3.98762C22.8901 4.12706 22.6039 4.36299 22.4025 4.66562C22.2011 4.96824 22.0937 5.32398 22.0937 5.68788C22.0965 6.17592 22.291 6.64315 22.6349 6.98826C22.9788 7.33336 23.4443 7.52852 23.9307 7.53139L23.932 7.52865ZM18.451 5.72204C18.4568 5.35915 18.3554 5.00264 18.1595 4.69755C17.9636 4.39245 17.682 4.15244 17.3503 4.0078C17.0186 3.86317 16.6516 3.82041 16.2957 3.88491C15.9398 3.94941 15.6109 4.11829 15.3506 4.37022C15.0902 4.62214 14.9101 4.94583 14.8329 5.30041C14.7558 5.65499 14.785 6.02457 14.917 6.36249C15.0489 6.70041 15.2777 6.99153 15.5744 7.19908C15.8711 7.40663 16.2224 7.52131 16.584 7.52865C16.8247 7.53409 17.0642 7.49164 17.2886 7.40375C17.5129 7.31587 17.7177 7.18429 17.8911 7.0166C18.0646 6.84891 18.2032 6.64843 18.299 6.42672C18.3949 6.205 18.4461 5.96644 18.4496 5.72478L18.451 5.72204Z" fill="#1E87E4"/>
<path d="M16.829 23.6173L16.6737 23.1978C16.3387 22.2685 16.0042 21.3397 15.6701 20.4114C15.5571 20.0998 15.3419 19.9221 15.0069 19.9536C14.8646 19.9602 14.7299 20.0199 14.6291 20.121C14.5284 20.2221 14.4689 20.3574 14.4622 20.5002C14.459 20.6578 14.4892 20.8143 14.5507 20.9594C15.0955 22.4872 15.6402 24.0123 16.1849 25.5401C16.2952 25.849 16.4572 26.0977 16.8154 26.1072C17.1966 26.1168 17.3669 25.8613 17.4799 25.5374C17.7995 24.6263 18.1231 23.7194 18.4508 22.8165C18.4849 22.7222 18.5339 22.6334 18.602 22.4872C18.6687 22.6607 18.7123 22.7701 18.7531 22.8821C19.084 23.7991 19.4163 24.7147 19.7431 25.6344C19.8494 25.9309 20.0427 26.1113 20.3627 26.1059C20.498 26.1059 20.6295 26.0609 20.7365 25.9777C20.8435 25.8946 20.9199 25.7782 20.9537 25.6467C21.5257 24.0519 22.1031 22.4585 22.6709 20.8637C22.8166 20.4537 22.6709 20.1189 22.3169 19.9905C21.9628 19.862 21.651 20.0369 21.4998 20.4469C21.2996 20.9826 21.1117 21.5237 20.917 22.0635C20.7413 22.5487 20.5643 23.0338 20.36 23.5927C20.2987 23.4561 20.2661 23.3946 20.2429 23.3317C19.8916 22.356 19.5416 21.3807 19.193 20.4059C19.1546 20.2763 19.0756 20.1626 18.9676 20.0818C18.8596 20.0009 18.7285 19.9572 18.5938 19.9572C18.4591 19.9572 18.328 20.0009 18.22 20.0818C18.1121 20.1626 18.033 20.2763 17.9946 20.4059C17.9039 20.6692 17.809 20.9329 17.71 21.1971L16.829 23.6173ZM26.0644 23.6173C25.9882 23.4178 25.9351 23.2839 25.886 23.1486C25.5647 22.2535 25.2487 21.357 24.9246 20.4647C24.7735 20.0547 24.4521 19.8675 24.1076 19.9809C23.7426 20.1025 23.5942 20.4496 23.7467 20.8787C24.305 22.4517 24.8715 24.0218 25.4298 25.5961C25.5388 25.9036 25.7226 26.1086 26.0603 26.1059C26.3981 26.1031 26.5778 25.8831 26.684 25.5811C26.9564 24.8122 27.2288 24.0432 27.5011 23.2743C27.5923 23.0174 27.6931 22.7619 27.8116 22.4448C28.2037 23.5381 28.5755 24.5521 28.9364 25.5743C29.0426 25.8777 29.2087 26.099 29.5519 26.1059C29.8951 26.1127 30.0871 25.8858 30.2001 25.5688C30.7448 24.0177 31.3113 22.4708 31.8655 20.9225C32.0289 20.4674 31.8955 20.1162 31.5237 19.985C31.1737 19.8634 30.8578 20.0519 30.6985 20.492C30.3608 21.4199 30.0285 22.3492 29.6935 23.2784C29.6608 23.37 29.6186 23.4588 29.5573 23.5968C29.4838 23.4014 29.4321 23.2661 29.383 23.1295C29.0617 22.2348 28.7412 21.3397 28.4217 20.4441C28.3182 20.1544 28.1329 19.9577 27.8102 19.9549C27.4875 19.9522 27.2968 20.1408 27.1933 20.4319L27.1089 20.6737C26.778 21.6276 26.4335 22.5869 26.0644 23.6132V23.6173ZM9.35972 22.4517C9.41827 22.5979 9.4564 22.6867 9.48908 22.7769C9.82407 23.7048 10.17 24.6327 10.4913 25.5647C10.6016 25.8804 10.7773 26.1113 11.1368 26.1113C11.4759 26.1113 11.6475 25.8899 11.7564 25.5852C12.3093 24.0218 12.8731 22.4626 13.4287 20.9019C13.5825 20.4674 13.4477 20.1244 13.0896 19.9932C12.7314 19.862 12.4087 20.0506 12.2562 20.4865C11.9729 21.2655 11.6992 22.0485 11.4187 22.8288C11.3302 23.0734 11.2349 23.3153 11.1218 23.6146C11.0415 23.3987 10.9856 23.2511 10.9325 23.1021C10.6193 22.2316 10.3021 21.3611 9.9943 20.4865C9.88808 20.1831 9.72194 19.9631 9.37606 19.9604C9.03017 19.9576 8.83136 20.179 8.73331 20.507C8.71288 20.5781 8.68428 20.6437 8.65977 20.7134C8.31661 21.67 7.97888 22.6156 7.61666 23.6105C7.56355 23.4902 7.52406 23.4165 7.49682 23.3372C7.15774 22.397 6.81595 21.4554 6.48095 20.5152C6.31346 20.0519 5.99208 19.862 5.63122 20.0014C5.27035 20.1408 5.14916 20.4838 5.31393 20.9498C5.55451 21.6276 5.79735 22.3045 6.04247 22.9805C6.3584 23.8651 6.67614 24.7489 6.9957 25.6317C7.0992 25.9214 7.28576 26.1154 7.60849 26.1168C7.93123 26.1182 8.11916 25.9241 8.22401 25.6344C8.25397 25.5538 8.27984 25.4731 8.30844 25.3925L9.35972 22.4517Z" fill="#8FA3AD"/>
</g>
<defs>
<clipPath id="clip0_755_23408">
<rect width="36.4884" height="34.342" fill="white" transform="translate(0.212891 0.171021)"/>
</clipPath>
</defs>
</svg>
