<svg width="1098" height="130" viewBox="0 0 1098 130" fill="none" xmlns="http://www.w3.org/2000/svg">
<path d="M20 130L1078 130C1089.05 130 1098 121.046 1098 110V20C1098 8.95431 1089.05 0 1078 0L20 0C8.95435 0 0 8.95431 0 20V110C0 121.046 8.95435 130 20 130Z" fill="url(#paint0_linear_209_433)" fill-opacity="0.1"/>
<path d="M309.194 114H310.622V110.565H311.989C313.959 110.565 315.4 109.654 315.4 107.672C315.4 105.628 313.959 104.938 311.94 104.938H309.194V114ZM310.622 109.42V106.083H311.804C313.245 106.083 313.996 106.477 313.996 107.672C313.996 108.866 313.306 109.42 311.854 109.42H310.622ZM318.446 114.16C318.791 114.16 319.037 114.111 319.21 114.049L319.025 112.978C318.902 113.003 318.853 113.003 318.791 113.003C318.619 113.003 318.446 112.867 318.446 112.486V104.187H317.043V112.412C317.043 113.508 317.424 114.16 318.446 114.16ZM322.31 114.16C323.123 114.16 323.849 113.754 324.465 113.224H324.502L324.625 114H325.782V109.925C325.782 108.127 325.007 107.056 323.32 107.056C322.237 107.056 321.288 107.499 320.587 107.942L321.116 108.903C321.695 108.533 322.36 108.213 323.074 108.213C324.071 108.213 324.354 108.903 324.366 109.691C321.547 109.999 320.316 110.75 320.316 112.202C320.316 113.397 321.141 114.16 322.31 114.16ZM322.741 113.04C322.138 113.04 321.682 112.769 321.682 112.104C321.682 111.341 322.36 110.836 324.366 110.59V112.252C323.812 112.756 323.332 113.04 322.741 113.04ZM327.792 114H329.195V109.198C329.798 108.595 330.229 108.275 330.857 108.275C331.658 108.275 332.002 108.743 332.002 109.912V114H333.418V109.74C333.418 108.016 332.778 107.056 331.337 107.056C330.414 107.056 329.725 107.561 329.097 108.164H329.06L328.949 107.228H327.792V114ZM338.294 114.16C339.181 114.16 339.956 113.865 340.584 113.446L340.092 112.547C339.599 112.867 339.082 113.052 338.479 113.052C337.309 113.052 336.497 112.276 336.386 110.984H340.781C340.818 110.824 340.843 110.54 340.843 110.269C340.843 108.349 339.882 107.056 338.085 107.056C336.497 107.056 334.994 108.423 334.994 110.627C334.994 112.855 336.46 114.16 338.294 114.16ZM336.373 110.011C336.509 108.817 337.26 108.164 338.109 108.164C339.094 108.164 339.624 108.841 339.624 110.011H336.373ZM345.436 107.228L344.512 107.302V108.361H345.436V114H346.851V108.361H348.218V107.228H346.851V106.367C346.851 105.542 347.147 105.148 347.75 105.148C347.984 105.148 348.243 105.209 348.489 105.32L348.772 104.261C348.464 104.126 348.033 104.027 347.578 104.027C346.063 104.027 345.436 104.988 345.436 106.379V107.228ZM350.41 105.96C350.927 105.96 351.321 105.616 351.321 105.123C351.321 104.618 350.927 104.286 350.41 104.286C349.892 104.286 349.498 104.618 349.498 105.123C349.498 105.616 349.892 105.96 350.41 105.96ZM349.695 114H351.111V107.228H349.695V114ZM354.649 114.16C354.994 114.16 355.24 114.111 355.412 114.049L355.227 112.978C355.104 113.003 355.055 113.003 354.994 113.003C354.821 113.003 354.649 112.867 354.649 112.486V104.187H353.245V112.412C353.245 113.508 353.627 114.16 354.649 114.16ZM359.732 114.16C360.618 114.16 361.394 113.865 362.022 113.446L361.529 112.547C361.037 112.867 360.52 113.052 359.917 113.052C358.747 113.052 357.934 112.276 357.823 110.984H362.219C362.256 110.824 362.28 110.54 362.28 110.269C362.28 108.349 361.32 107.056 359.523 107.056C357.934 107.056 356.432 108.423 356.432 110.627C356.432 112.855 357.897 114.16 359.732 114.16ZM357.811 110.011C357.947 108.817 358.698 108.164 359.547 108.164C360.532 108.164 361.062 108.841 361.062 110.011H357.811ZM365.708 114.16C367.383 114.16 368.282 113.237 368.282 112.104C368.282 110.824 367.235 110.405 366.287 110.048C365.548 109.777 364.847 109.555 364.847 108.977C364.847 108.509 365.191 108.139 365.93 108.139C366.496 108.139 366.977 108.386 367.444 108.73L368.109 107.856C367.555 107.425 366.817 107.056 365.905 107.056C364.416 107.056 363.505 107.906 363.505 109.038C363.505 110.183 364.539 110.663 365.438 111.008C366.176 111.291 366.94 111.562 366.94 112.178C366.94 112.695 366.558 113.089 365.745 113.089C365.019 113.089 364.428 112.793 363.825 112.313L363.16 113.224C363.812 113.766 364.773 114.16 365.708 114.16Z" fill="black"/>
<path d="M451.19 114H452.619V110.565H453.985C455.955 110.565 457.396 109.654 457.396 107.672C457.396 105.628 455.955 104.938 453.936 104.938H451.19V114ZM452.619 109.42V106.083H453.801C455.241 106.083 455.992 106.477 455.992 107.672C455.992 108.866 455.303 109.42 453.85 109.42H452.619ZM459.162 114H460.59V110.565H461.957C463.927 110.565 465.367 109.654 465.367 107.672C465.367 105.628 463.927 104.938 461.907 104.938H459.162V114ZM460.59 109.42V106.083H461.772C463.213 106.083 463.964 106.477 463.964 107.672C463.964 108.866 463.274 109.42 461.821 109.42H460.59ZM468.68 114H470.108V106.133H472.78V104.938H466.02V106.133H468.68V114ZM477.224 107.228L476.3 107.302V108.361H477.224V114H478.64V108.361H480.006V107.228H478.64V106.367C478.64 105.542 478.935 105.148 479.538 105.148C479.772 105.148 480.031 105.209 480.277 105.32L480.56 104.261C480.252 104.126 479.822 104.027 479.366 104.027C477.852 104.027 477.224 104.988 477.224 106.379V107.228ZM482.198 105.96C482.715 105.96 483.109 105.616 483.109 105.123C483.109 104.618 482.715 104.286 482.198 104.286C481.681 104.286 481.287 104.618 481.287 105.123C481.287 105.616 481.681 105.96 482.198 105.96ZM481.484 114H482.9V107.228H481.484V114ZM486.437 114.16C486.782 114.16 487.028 114.111 487.2 114.049L487.016 112.978C486.893 113.003 486.843 113.003 486.782 113.003C486.609 113.003 486.437 112.867 486.437 112.486V104.187H485.033V112.412C485.033 113.508 485.415 114.16 486.437 114.16ZM491.52 114.16C492.407 114.16 493.182 113.865 493.81 113.446L493.318 112.547C492.825 112.867 492.308 113.052 491.705 113.052C490.535 113.052 489.722 112.276 489.612 110.984H494.007C494.044 110.824 494.069 110.54 494.069 110.269C494.069 108.349 493.108 107.056 491.311 107.056C489.722 107.056 488.22 108.423 488.22 110.627C488.22 112.855 489.686 114.16 491.52 114.16ZM489.599 110.011C489.735 108.817 490.486 108.164 491.335 108.164C492.32 108.164 492.85 108.841 492.85 110.011H489.599ZM497.497 114.16C499.171 114.16 500.07 113.237 500.07 112.104C500.07 110.824 499.023 110.405 498.075 110.048C497.337 109.777 496.635 109.555 496.635 108.977C496.635 108.509 496.98 108.139 497.718 108.139C498.285 108.139 498.765 108.386 499.233 108.73L499.897 107.856C499.343 107.425 498.605 107.056 497.694 107.056C496.204 107.056 495.293 107.906 495.293 109.038C495.293 110.183 496.327 110.663 497.226 111.008C497.965 111.291 498.728 111.562 498.728 112.178C498.728 112.695 498.346 113.089 497.534 113.089C496.807 113.089 496.216 112.793 495.613 112.313L494.948 113.224C495.601 113.766 496.561 114.16 497.497 114.16Z" fill="black"/>
<path d="M585.273 114H587.699C590.407 114 591.996 112.375 591.996 109.432C591.996 106.477 590.407 104.938 587.625 104.938H585.273V114ZM586.702 112.83V106.096H587.526C589.472 106.096 590.518 107.167 590.518 109.432C590.518 111.685 589.472 112.83 587.526 112.83H586.702ZM596.578 114.16C597.465 114.16 598.241 113.865 598.869 113.446L598.376 112.547C597.884 112.867 597.366 113.052 596.763 113.052C595.594 113.052 594.781 112.276 594.67 110.984H599.065C599.102 110.824 599.127 110.54 599.127 110.269C599.127 108.349 598.167 107.056 596.369 107.056C594.781 107.056 593.279 108.423 593.279 110.627C593.279 112.855 594.744 114.16 596.578 114.16ZM594.658 110.011C594.793 108.817 595.544 108.164 596.394 108.164C597.379 108.164 597.908 108.841 597.908 110.011H594.658ZM602.555 114.16C604.23 114.16 605.128 113.237 605.128 112.104C605.128 110.824 604.082 110.405 603.134 110.048C602.395 109.777 601.693 109.555 601.693 108.977C601.693 108.509 602.038 108.139 602.777 108.139C603.343 108.139 603.823 108.386 604.291 108.73L604.956 107.856C604.402 107.425 603.663 107.056 602.752 107.056C601.262 107.056 600.351 107.906 600.351 109.038C600.351 110.183 601.385 110.663 602.284 111.008C603.023 111.291 603.786 111.562 603.786 112.178C603.786 112.695 603.405 113.089 602.592 113.089C601.866 113.089 601.275 112.793 600.671 112.313L600.007 113.224C600.659 113.766 601.619 114.16 602.555 114.16ZM606.636 114H608.04V107.228H606.636V114ZM607.338 105.96C607.855 105.96 608.249 105.616 608.249 105.123C608.249 104.618 607.855 104.286 607.338 104.286C606.821 104.286 606.439 104.618 606.439 105.123C606.439 105.616 606.821 105.96 607.338 105.96ZM612.486 117.041C614.653 117.041 616.032 115.982 616.032 114.677C616.032 113.52 615.194 113.027 613.594 113.027H612.35C611.488 113.027 611.218 112.769 611.218 112.363C611.218 112.042 611.365 111.845 611.587 111.648C611.882 111.784 612.227 111.858 612.535 111.858C613.951 111.858 615.071 111.008 615.071 109.531C615.071 109.014 614.887 108.558 614.628 108.287H615.921V107.228H613.52C613.261 107.13 612.917 107.056 612.535 107.056C611.131 107.056 609.912 107.955 609.912 109.494C609.912 110.294 610.343 110.934 610.799 111.291V111.341C610.43 111.611 610.048 112.067 610.048 112.596C610.048 113.15 610.319 113.508 610.663 113.717V113.778C610.036 114.16 609.679 114.689 609.679 115.256C609.679 116.438 610.86 117.041 612.486 117.041ZM612.535 110.947C611.833 110.947 611.254 110.393 611.254 109.494C611.254 108.57 611.821 108.053 612.535 108.053C613.249 108.053 613.815 108.583 613.815 109.494C613.815 110.393 613.237 110.947 612.535 110.947ZM612.695 116.105C611.575 116.105 610.885 115.711 610.885 115.047C610.885 114.702 611.057 114.357 611.464 114.062C611.747 114.123 612.055 114.16 612.375 114.16H613.397C614.222 114.16 614.665 114.332 614.665 114.899C614.665 115.527 613.877 116.105 612.695 116.105ZM617.289 114H618.692V109.198C619.296 108.595 619.727 108.275 620.355 108.275C621.155 108.275 621.5 108.743 621.5 109.912V114H622.915V109.74C622.915 108.016 622.275 107.056 620.835 107.056C619.911 107.056 619.222 107.561 618.594 108.164H618.557L618.446 107.228H617.289V114ZM627.971 107.228L627.048 107.302V108.361H627.971V114H629.387V108.361H630.754V107.228H629.387V106.367C629.387 105.542 629.683 105.148 630.286 105.148C630.52 105.148 630.778 105.209 631.025 105.32L631.308 104.261C631 104.126 630.569 104.027 630.113 104.027C628.599 104.027 627.971 104.988 627.971 106.379V107.228ZM632.945 105.96C633.462 105.96 633.856 105.616 633.856 105.123C633.856 104.618 633.462 104.286 632.945 104.286C632.428 104.286 632.034 104.618 632.034 105.123C632.034 105.616 632.428 105.96 632.945 105.96ZM632.231 114H633.647V107.228H632.231V114ZM637.185 114.16C637.529 114.16 637.775 114.111 637.948 114.049L637.763 112.978C637.64 113.003 637.591 113.003 637.529 113.003C637.357 113.003 637.185 112.867 637.185 112.486V104.187H635.781V112.412C635.781 113.508 636.163 114.16 637.185 114.16ZM642.268 114.16C643.154 114.16 643.93 113.865 644.558 113.446L644.065 112.547C643.573 112.867 643.056 113.052 642.452 113.052C641.283 113.052 640.47 112.276 640.359 110.984H644.755C644.791 110.824 644.816 110.54 644.816 110.269C644.816 108.349 643.856 107.056 642.058 107.056C640.47 107.056 638.968 108.423 638.968 110.627C638.968 112.855 640.433 114.16 642.268 114.16ZM640.347 110.011C640.482 108.817 641.233 108.164 642.083 108.164C643.068 108.164 643.597 108.841 643.597 110.011H640.347ZM648.244 114.16C649.919 114.16 650.817 113.237 650.817 112.104C650.817 110.824 649.771 110.405 648.823 110.048C648.084 109.777 647.382 109.555 647.382 108.977C647.382 108.509 647.727 108.139 648.466 108.139C649.032 108.139 649.512 108.386 649.98 108.73L650.645 107.856C650.091 107.425 649.352 107.056 648.441 107.056C646.951 107.056 646.04 107.906 646.04 109.038C646.04 110.183 647.075 110.663 647.973 111.008C648.712 111.291 649.475 111.562 649.475 112.178C649.475 112.695 649.094 113.089 648.281 113.089C647.555 113.089 646.964 112.793 646.36 112.313L645.696 113.224C646.348 113.766 647.308 114.16 648.244 114.16Z" fill="black"/>
<path d="M715.78 114.16C717.762 114.16 718.969 112.978 718.969 111.525C718.969 110.196 718.193 109.531 717.122 109.075L715.878 108.546C715.14 108.25 714.413 107.955 714.413 107.179C714.413 106.453 715.016 106.01 715.94 106.01C716.74 106.01 717.368 106.317 717.934 106.822L718.685 105.911C717.996 105.209 716.999 104.766 715.94 104.766C714.216 104.766 712.96 105.837 712.96 107.265C712.96 108.583 713.933 109.272 714.807 109.642L716.063 110.183C716.9 110.553 717.516 110.811 717.516 111.636C717.516 112.399 716.9 112.917 715.804 112.917C714.93 112.917 714.044 112.498 713.391 111.845L712.554 112.83C713.379 113.668 714.536 114.16 715.78 114.16ZM720.562 116.746H721.965V114.554L721.928 113.397C722.507 113.889 723.11 114.16 723.714 114.16C725.24 114.16 726.632 112.83 726.632 110.503C726.632 108.423 725.671 107.056 723.948 107.056C723.197 107.056 722.458 107.475 721.867 107.967H721.83L721.719 107.228H720.562V116.746ZM723.443 112.99C723.024 112.99 722.495 112.83 721.965 112.375V109.063C722.544 108.509 723.049 108.238 723.578 108.238C724.711 108.238 725.166 109.112 725.166 110.528C725.166 112.116 724.428 112.99 723.443 112.99ZM731.136 114.16C732.023 114.16 732.798 113.865 733.426 113.446L732.934 112.547C732.441 112.867 731.924 113.052 731.321 113.052C730.151 113.052 729.339 112.276 729.228 110.984H733.623C733.66 110.824 733.685 110.54 733.685 110.269C733.685 108.349 732.725 107.056 730.927 107.056C729.339 107.056 727.837 108.423 727.837 110.627C727.837 112.855 729.302 114.16 731.136 114.16ZM729.216 110.011C729.351 108.817 730.102 108.164 730.952 108.164C731.937 108.164 732.466 108.841 732.466 110.011H729.216ZM738.036 114.16C738.812 114.16 739.612 113.877 740.228 113.323L739.649 112.387C739.243 112.732 738.738 113.003 738.172 113.003C737.039 113.003 736.263 112.055 736.263 110.627C736.263 109.186 737.076 108.226 738.209 108.226C738.677 108.226 739.058 108.423 739.428 108.755L740.129 107.832C739.637 107.401 739.009 107.056 738.147 107.056C736.362 107.056 734.798 108.361 734.798 110.627C734.798 112.867 736.202 114.16 738.036 114.16ZM741.639 114H743.042V107.228H741.639V114ZM742.341 105.96C742.858 105.96 743.252 105.616 743.252 105.123C743.252 104.618 742.858 104.286 742.341 104.286C741.824 104.286 741.442 104.618 741.442 105.123C741.442 105.616 741.824 105.96 742.341 105.96ZM746.774 114.16C747.587 114.16 748.313 113.754 748.929 113.224H748.966L749.089 114H750.246V109.925C750.246 108.127 749.471 107.056 747.784 107.056C746.7 107.056 745.752 107.499 745.051 107.942L745.58 108.903C746.159 108.533 746.824 108.213 747.538 108.213C748.535 108.213 748.818 108.903 748.83 109.691C746.011 109.999 744.78 110.75 744.78 112.202C744.78 113.397 745.605 114.16 746.774 114.16ZM747.205 113.04C746.602 113.04 746.146 112.769 746.146 112.104C746.146 111.341 746.824 110.836 748.83 110.59V112.252C748.276 112.756 747.796 113.04 747.205 113.04ZM753.659 114.16C754.004 114.16 754.25 114.111 754.422 114.049L754.238 112.978C754.115 113.003 754.065 113.003 754.004 113.003C753.831 113.003 753.659 112.867 753.659 112.486V104.187H752.256V112.412C752.256 113.508 752.637 114.16 753.659 114.16ZM762.259 104.261C761.951 104.126 761.52 104.027 761.064 104.027C759.55 104.027 758.922 104.988 758.922 106.379V107.228L757.999 107.302V108.361H758.922V114H760.338V108.361H761.705V107.228H760.338V106.367C760.338 105.542 760.633 105.148 761.237 105.148C761.471 105.148 761.729 105.209 761.975 105.32L762.259 104.261ZM765.509 114.16C767.183 114.16 768.698 112.867 768.698 110.627C768.698 108.361 767.183 107.056 765.509 107.056C763.834 107.056 762.32 108.361 762.32 110.627C762.32 112.867 763.834 114.16 765.509 114.16ZM765.509 113.003C764.45 113.003 763.785 112.055 763.785 110.627C763.785 109.186 764.45 108.226 765.509 108.226C766.58 108.226 767.245 109.186 767.245 110.627C767.245 112.055 766.58 113.003 765.509 113.003ZM770.363 114H771.766V109.777C772.197 108.706 772.862 108.324 773.416 108.324C773.687 108.324 773.859 108.361 774.093 108.435L774.352 107.204C774.143 107.105 773.921 107.056 773.589 107.056C772.862 107.056 772.148 107.573 771.668 108.447H771.631L771.52 107.228H770.363V114ZM775.401 114H776.804V109.198C777.371 108.583 777.875 108.275 778.331 108.275C779.107 108.275 779.464 108.743 779.464 109.912V114H780.879V109.198C781.446 108.583 781.938 108.275 782.406 108.275C783.17 108.275 783.539 108.743 783.539 109.912V114H784.955V109.74C784.955 108.016 784.29 107.056 782.874 107.056C782.024 107.056 781.335 107.585 780.67 108.3C780.375 107.524 779.808 107.056 778.799 107.056C777.962 107.056 777.284 107.561 776.706 108.176H776.669L776.558 107.228H775.401V114ZM788.604 114.16C789.416 114.16 790.143 113.754 790.758 113.224H790.795L790.918 114H792.076V109.925C792.076 108.127 791.3 107.056 789.613 107.056C788.53 107.056 787.582 107.499 786.88 107.942L787.41 108.903C787.988 108.533 788.653 108.213 789.367 108.213C790.364 108.213 790.648 108.903 790.66 109.691C787.84 109.999 786.609 110.75 786.609 112.202C786.609 113.397 787.434 114.16 788.604 114.16ZM789.035 113.04C788.431 113.04 787.976 112.769 787.976 112.104C787.976 111.341 788.653 110.836 790.66 110.59V112.252C790.106 112.756 789.626 113.04 789.035 113.04ZM796.158 114.16C796.651 114.16 797.106 114.037 797.488 113.914L797.23 112.867C797.033 112.953 796.737 113.027 796.503 113.027C795.801 113.027 795.518 112.609 795.518 111.796V108.361H797.279V107.228H795.518V105.357H794.324L794.164 107.228L793.117 107.302V108.361H794.102V111.784C794.102 113.212 794.632 114.16 796.158 114.16ZM801.761 107.228L800.838 107.302V108.361H801.761V114H803.177V108.361H804.544V107.228H803.177V106.367C803.177 105.542 803.473 105.148 804.076 105.148C804.31 105.148 804.569 105.209 804.815 105.32L805.098 104.261C804.79 104.126 804.359 104.027 803.904 104.027C802.389 104.027 801.761 104.988 801.761 106.379V107.228ZM806.736 105.96C807.253 105.96 807.647 105.616 807.647 105.123C807.647 104.618 807.253 104.286 806.736 104.286C806.218 104.286 805.824 104.618 805.824 105.123C805.824 105.616 806.218 105.96 806.736 105.96ZM806.021 114H807.437V107.228H806.021V114ZM810.975 114.16C811.32 114.16 811.566 114.111 811.738 114.049L811.553 112.978C811.43 113.003 811.381 113.003 811.32 113.003C811.147 113.003 810.975 112.867 810.975 112.486V104.187H809.571V112.412C809.571 113.508 809.953 114.16 810.975 114.16ZM816.058 114.16C816.944 114.16 817.72 113.865 818.348 113.446L817.855 112.547C817.363 112.867 816.846 113.052 816.243 113.052C815.073 113.052 814.26 112.276 814.149 110.984H818.545C818.582 110.824 818.606 110.54 818.606 110.269C818.606 108.349 817.646 107.056 815.849 107.056C814.26 107.056 812.758 108.423 812.758 110.627C812.758 112.855 814.223 114.16 816.058 114.16ZM814.137 110.011C814.273 108.817 815.024 108.164 815.873 108.164C816.858 108.164 817.388 108.841 817.388 110.011H814.137ZM822.034 114.16C823.709 114.16 824.608 113.237 824.608 112.104C824.608 110.824 823.561 110.405 822.613 110.048C821.874 109.777 821.173 109.555 821.173 108.977C821.173 108.509 821.517 108.139 822.256 108.139C822.822 108.139 823.303 108.386 823.77 108.73L824.435 107.856C823.881 107.425 823.143 107.056 822.231 107.056C820.742 107.056 819.831 107.906 819.831 109.038C819.831 110.183 820.865 110.663 821.764 111.008C822.502 111.291 823.266 111.562 823.266 112.178C823.266 112.695 822.884 113.089 822.071 113.089C821.345 113.089 820.754 112.793 820.151 112.313L819.486 113.224C820.138 113.766 821.099 114.16 822.034 114.16Z" fill="black"/>
<path d="M353.047 41.3871V26.6233H313.314V82.4954H319.522" fill="white"/>
<path d="M353.047 41.3871V26.6233H313.314V82.4954H319.522" stroke="#333333" stroke-width="1.24659" stroke-miterlimit="10"/>
<path opacity="0.1" d="M350.758 28.9128H315.604V80.2059H350.758V28.9128Z" fill="#397AF6"/>
<path d="M359.255 47.4164V88.4957H319.522V32.6235H344.591L359.255 47.4164Z" fill="white" stroke="#333333" stroke-width="1.24659" stroke-miterlimit="10"/>
<path d="M359.256 47.4372H344.592V32.6235L359.256 47.4372Z" fill="white" stroke="#333333" stroke-width="1.24659" stroke-linejoin="round"/>
<path d="M334.802 40.6516H324.352V43.3983H334.802V40.6516Z" fill="url(#paint1_linear_209_433)"/>
<path d="M341.409 50.2834H324.352V53.0301H341.409V50.2834Z" fill="url(#paint2_linear_209_433)"/>
<path d="M354.428 59.9197H324.352V62.6663H354.428V59.9197Z" fill="url(#paint3_linear_209_433)"/>
<path d="M354.428 69.5559H324.352V72.3026H354.428V69.5559Z" fill="url(#paint4_linear_209_433)"/>
<path d="M354.428 79.188H324.352V81.9346H354.428V79.188Z" fill="url(#paint5_linear_209_433)"/>
<path d="M779.048 41.3871V26.6233H739.315V82.4954H745.523" fill="white"/>
<path d="M779.048 41.3871V26.6233H739.315V82.4954H745.523" stroke="#333333" stroke-width="1.24659" stroke-miterlimit="10"/>
<path opacity="0.1" d="M776.757 28.9128H741.604V80.2059H776.757V28.9128Z" fill="#397AF6"/>
<path d="M785.255 47.4164V88.4957H745.522V32.6235H770.591L785.255 47.4164Z" fill="white" stroke="#3A3A3A" stroke-width="1.24659" stroke-miterlimit="10"/>
<path d="M785.255 47.4372H770.591V32.6235L785.255 47.4372Z" fill="white" stroke="#3A3A3A" stroke-width="1.24659" stroke-linejoin="round"/>
<path d="M764.457 41.4632L764.531 41.4629C764.762 41.4621 764.983 41.5528 765.146 41.7151C765.31 41.8774 765.402 42.098 765.403 42.3284L765.409 43.953L763.593 43.9594L763.587 42.3347C763.587 42.2203 763.609 42.1069 763.652 42.0011C763.696 41.8953 763.76 41.7992 763.841 41.7182C763.922 41.6373 764.018 41.573 764.123 41.5293C764.229 41.4855 764.342 41.463 764.457 41.4632Z" fill="white" stroke="#3A3A3A" stroke-width="1.24659" stroke-linecap="round" stroke-linejoin="round"/>
<path d="M766.901 48.6548L764.549 50.1631L762.193 48.6714L762.176 43.9634L766.884 43.9468L766.901 48.6548Z" fill="white" stroke="#3A3A3A" stroke-width="1.24659" stroke-linecap="round" stroke-linejoin="round"/>
<path d="M757.224 69.3066L762.21 48.6548L758.055 65.9201C758.377 66.0091 758.713 66.0325 759.045 65.9888C759.376 65.9452 759.695 65.8354 759.983 65.666C760.271 65.4966 760.522 65.2711 760.721 65.0028C760.92 64.7345 761.063 64.4289 761.142 64.1041L764.566 50.1465" stroke="#3A3A3A" stroke-width="1.24659" stroke-linecap="round" stroke-linejoin="round"/>
<path d="M772.008 69.2692L766.897 48.6548L771.173 65.8909C770.851 65.9822 770.515 66.0079 770.183 65.9665C769.852 65.9251 769.532 65.8175 769.243 65.65C768.954 65.4825 768.701 65.2587 768.5 64.9917C768.299 64.7247 768.154 64.42 768.073 64.0958L764.549 50.1631" stroke="#3A3A3A" stroke-width="1.24659" stroke-linecap="round" stroke-linejoin="round"/>
<path d="M757.194 60.5348L771.979 60.4849" stroke="#3A3A3A" stroke-width="1.24659" stroke-linecap="round" stroke-linejoin="round"/>
<path d="M764.62 58.7488L764.558 58.749C764.154 58.7504 763.828 59.079 763.829 59.4829L763.836 61.5355C763.838 61.9394 764.166 62.2657 764.57 62.2643L764.633 62.2641C765.037 62.2627 765.363 61.9341 765.361 61.5302L765.354 59.4775C765.353 59.0736 765.024 58.7473 764.62 58.7488Z" fill="white" stroke="#3A3A3A" stroke-width="1.24659" stroke-linecap="round" stroke-linejoin="round"/>
<path d="M780.597 75.0408H750.459C750.041 75.0408 749.703 75.3794 749.703 75.7971V82.5744C749.703 82.9921 750.041 83.3307 750.459 83.3307H780.597C781.015 83.3307 781.354 82.9921 781.354 82.5744V75.7971C781.354 75.3794 781.015 75.0408 780.597 75.0408Z" fill="url(#paint6_linear_209_433)" stroke="#3A3A3A" stroke-width="1.24659" stroke-miterlimit="10"/>
<path d="M760.003 81.5062V77.6422H761.093C761.43 77.6422 761.727 77.7165 761.985 77.8651C762.243 78.0137 762.442 78.2252 762.582 78.4994C762.724 78.7736 762.795 79.0885 762.797 79.4442V79.691C762.797 80.0554 762.726 80.3748 762.585 80.649C762.445 80.9233 762.244 81.1338 761.982 81.2806C761.722 81.4275 761.419 81.5027 761.072 81.5062H760.003ZM760.512 78.0615V81.0896H761.048C761.441 81.0896 761.746 80.9675 761.964 80.7233C762.183 80.4792 762.293 80.1315 762.293 79.6804V79.4548C762.293 79.016 762.189 78.6754 761.982 78.433C761.777 78.1889 761.485 78.065 761.107 78.0615H760.512ZM764.403 80.2881L764.477 80.7976L764.586 80.3385L765.35 77.6422H765.78L766.526 80.3385L766.632 80.8056L766.714 80.2854L767.314 77.6422H767.826L766.89 81.5062H766.425L765.629 78.6905L765.568 78.3959L765.507 78.6905L764.681 81.5062H764.217L763.283 77.6422H763.792L764.403 80.2881ZM771.247 80.9993C771.116 81.1869 770.933 81.3275 770.698 81.4213C770.464 81.5133 770.192 81.5593 769.88 81.5593C769.565 81.5593 769.286 81.4859 769.042 81.339C768.798 81.1904 768.608 80.9799 768.474 80.7074C768.341 80.4349 768.273 80.1191 768.27 79.76V79.4229C768.27 78.8409 768.405 78.3897 768.676 78.0695C768.948 77.7492 769.33 77.5891 769.822 77.5891C770.225 77.5891 770.55 77.6926 770.796 77.8996C771.042 78.1048 771.192 78.3968 771.247 78.7754H770.738C770.642 78.2641 770.338 78.0084 769.825 78.0084C769.483 78.0084 769.224 78.1287 769.047 78.3693C768.872 78.6082 768.783 78.955 768.782 79.4097V79.7255C768.782 80.1589 768.881 80.5039 769.079 80.7605C769.277 81.0153 769.545 81.1426 769.883 81.1426C770.074 81.1426 770.241 81.1214 770.385 81.079C770.528 81.0365 770.647 80.9648 770.74 80.864V79.9962H769.846V79.5822H771.247V80.9993Z" fill="white"/>
<path d="M490.049 41.3871V26.6233H450.316V82.4954H456.524" fill="white"/>
<path d="M490.049 41.3871V26.6233H450.316V82.4954H456.524" stroke="#333333" stroke-width="1.24659" stroke-miterlimit="10"/>
<path opacity="0.1" d="M487.759 28.9128H452.605V80.2059H487.759V28.9128Z" fill="#397AF6"/>
<path d="M496.256 47.4164V88.4957H456.523V32.6235H481.592L496.256 47.4164Z" fill="white" stroke="#3A3A3A" stroke-width="1.24659" stroke-miterlimit="10"/>
<path d="M496.256 47.4372H481.592V32.6235L496.256 47.4372Z" fill="white" stroke="#3A3A3A" stroke-width="1.24659" stroke-linejoin="round"/>
<path d="M491.599 75.0408H461.46C461.043 75.0408 460.704 75.3794 460.704 75.7971V82.5744C460.704 82.9921 461.043 83.3307 461.46 83.3307H491.599C492.016 83.3307 492.355 82.9921 492.355 82.5744V75.7971C492.355 75.3794 492.016 75.0408 491.599 75.0408Z" fill="url(#paint7_linear_209_433)" stroke="#3A3A3A" stroke-width="1.24659" stroke-miterlimit="10"/>
<path d="M472.846 79.9934V81.5061H472.337V77.6421H473.762C474.185 77.6421 474.516 77.75 474.754 77.9659C474.995 78.1817 475.115 78.4674 475.115 78.8231C475.115 79.1981 474.998 79.4874 474.762 79.6909C474.529 79.8926 474.194 79.9934 473.757 79.9934H472.846ZM472.846 79.5768H473.762C474.034 79.5768 474.243 79.5131 474.388 79.3857C474.533 79.2565 474.606 79.0708 474.606 78.8284C474.606 78.5984 474.533 78.4144 474.388 78.2764C474.243 78.1384 474.044 78.0667 473.791 78.0614H472.846V79.5768ZM478.435 78.0614H477.193V81.5061H476.686V78.0614H475.447V77.6421H478.435V78.0614ZM480.269 79.1229L481.195 77.6421H481.795L480.574 79.5582L481.824 81.5061H481.219L480.269 79.9987L479.314 81.5061H478.711L479.964 79.5582L478.74 77.6421H479.338L480.269 79.1229Z" fill="white"/>
<path d="M481.122 69.6682C481.011 69.6689 480.902 69.64 480.805 69.5845C480.709 69.529 480.629 69.4489 480.574 69.3524L478.409 65.5004C478.369 65.4289 478.343 65.3502 478.333 65.2688C478.324 65.1874 478.33 65.105 478.352 65.0261C478.375 64.9471 478.412 64.8734 478.463 64.809C478.513 64.7445 478.576 64.6907 478.648 64.6506C478.719 64.6105 478.798 64.5849 478.879 64.5752C478.961 64.5655 479.043 64.5719 479.122 64.5941C479.201 64.6163 479.275 64.6538 479.339 64.7045C479.404 64.7552 479.457 64.8181 479.498 64.8896L481.663 68.7415C481.739 68.8835 481.757 69.05 481.713 69.2052C481.669 69.3604 481.566 69.4922 481.426 69.5725C481.334 69.6296 481.23 69.6626 481.122 69.6682ZM471.47 69.6682C471.361 69.6687 471.254 69.6405 471.16 69.5865C471.065 69.5326 470.987 69.4547 470.932 69.3608C470.877 69.2669 470.848 69.1602 470.848 69.0515C470.847 68.9428 470.875 68.8358 470.929 68.7415L473.094 64.8896C473.175 64.7452 473.31 64.6389 473.47 64.5941C473.629 64.5493 473.8 64.5696 473.944 64.6506C474.088 64.7316 474.195 64.8667 474.24 65.0261C474.284 65.1854 474.264 65.3561 474.183 65.5004L472.014 69.3524C471.96 69.4498 471.88 69.5306 471.783 69.5862C471.687 69.6419 471.577 69.6702 471.465 69.6682H471.47Z" fill="#3A3A3A"/>
<path d="M476.298 54.8253C476.133 54.8253 475.974 54.7597 475.857 54.6428C475.74 54.5259 475.675 54.3674 475.675 54.202V52.8682C475.675 52.7029 475.74 52.5444 475.857 52.4275C475.974 52.3106 476.133 52.2449 476.298 52.2449C476.463 52.2449 476.622 52.3106 476.739 52.4275C476.856 52.5444 476.921 52.7029 476.921 52.8682V54.202C476.921 54.3674 476.856 54.5259 476.739 54.6428C476.622 54.7597 476.463 54.8253 476.298 54.8253Z" fill="#3A3A3A"/>
<path d="M486.357 65.8202H466.225C466.059 65.8191 465.901 65.7525 465.784 65.6349C465.667 65.5174 465.602 65.3584 465.602 65.1927V54.2019C465.602 54.0366 465.667 53.8781 465.784 53.7612C465.901 53.6443 466.06 53.5786 466.225 53.5786H486.357C486.523 53.5786 486.681 53.6443 486.798 53.7612C486.915 53.8781 486.981 54.0366 486.981 54.2019V65.1927C486.981 65.3584 486.915 65.5174 486.798 65.6349C486.681 65.7525 486.523 65.8191 486.357 65.8202ZM466.848 64.5736H485.734V54.8293H466.848V64.5736Z" fill="#3A3A3A"/>
<path d="M479.711 63.0321C479.545 63.0321 479.387 62.9665 479.27 62.8496C479.153 62.7327 479.087 62.5741 479.087 62.4088V60.8422C479.105 60.6893 479.178 60.5483 479.293 60.4459C479.408 60.3435 479.557 60.2869 479.711 60.2869C479.865 60.2869 480.013 60.3435 480.128 60.4459C480.243 60.5483 480.316 60.6893 480.334 60.8422V62.4088C480.333 62.5738 480.267 62.7317 480.15 62.8484C480.034 62.965 479.876 63.031 479.711 63.0321Z" fill="#3A3A3A"/>
<path d="M474.952 57.7134H468.827C468.662 57.7134 468.504 57.6476 468.387 57.5308C468.27 57.4139 468.204 57.2554 468.204 57.0901C468.204 56.9248 468.27 56.7662 468.387 56.6493C468.504 56.5324 468.662 56.4668 468.827 56.4668H474.952C475.118 56.4668 475.276 56.5324 475.393 56.6493C475.51 56.7662 475.576 56.9248 475.576 57.0901C475.576 57.2554 475.51 57.4139 475.393 57.5308C475.276 57.6476 475.118 57.7134 474.952 57.7134Z" fill="#3A3A3A"/>
<path d="M472.567 60.3643H468.827C468.662 60.3643 468.504 60.2987 468.387 60.1818C468.27 60.0649 468.204 59.9063 468.204 59.741C468.204 59.5757 468.27 59.4172 468.387 59.3003C468.504 59.1835 468.662 59.1177 468.827 59.1177H472.567C472.732 59.1177 472.891 59.1835 473.008 59.3003C473.125 59.4172 473.19 59.5757 473.19 59.741C473.19 59.9063 473.125 60.0649 473.008 60.1818C472.891 60.2987 472.732 60.3643 472.567 60.3643Z" fill="#3A3A3A"/>
<path d="M468.827 63.032C468.662 63.032 468.504 62.9664 468.387 62.8495C468.27 62.7326 468.204 62.574 468.204 62.4087C468.204 62.2434 468.27 62.0849 468.387 61.968C468.504 61.8511 468.662 61.7854 468.827 61.7854H476.394C476.559 61.7854 476.718 61.8511 476.835 61.968C476.952 62.0849 477.017 62.2434 477.017 62.4087C477.017 62.574 476.952 62.7326 476.835 62.8495C476.718 62.9664 476.559 63.032 476.394 63.032H468.832H468.827Z" fill="#3A3A3A"/>
<path d="M601.078 40.8313H586.314V80.5643H642.186V74.3563" fill="white"/>
<path d="M601.078 40.8313H586.314V80.5643H642.186V74.3563" stroke="#333333" stroke-width="1.24659" stroke-miterlimit="10"/>
<path opacity="0.1" d="M639.897 43.1208H588.604V78.2746H639.897V43.1208Z" fill="#397AF6"/>
<path d="M607.106 34.6233H648.186V74.3563H592.313V49.2915L607.106 34.6233Z" fill="white" stroke="#333333" stroke-width="1.24659" stroke-miterlimit="10"/>
<path d="M607.127 34.6233V49.2915H592.313L607.127 34.6233Z" fill="white" stroke="#333333" stroke-width="1.24659" stroke-linejoin="round"/>
<path d="M615.75 47.1931C615.15 47.1964 614.563 47.0217 614.063 46.691C613.563 46.3603 613.172 45.8886 612.94 45.3357C612.708 44.7827 612.645 44.1733 612.76 43.5847C612.875 42.9961 613.161 42.4547 613.584 42.0293C614.007 41.6038 614.546 41.3134 615.134 41.1947C615.721 41.076 616.331 41.1343 616.886 41.3625C617.44 41.5906 617.915 41.9782 618.249 42.4762C618.583 42.9741 618.762 43.56 618.763 44.1597C618.764 44.5567 618.688 44.9503 618.537 45.3177C618.386 45.6851 618.165 46.0192 617.885 46.3009C617.605 46.5827 617.273 46.8065 616.906 46.9595C616.54 47.1126 616.147 47.192 615.75 47.1931ZM615.75 42.4103C615.401 42.4062 615.059 42.506 614.767 42.697C614.475 42.888 614.246 43.1615 614.111 43.4828C613.975 43.8041 613.937 44.1585 614.003 44.5011C614.07 44.8436 614.236 45.1588 614.482 45.4064C614.728 45.6539 615.042 45.8227 615.384 45.8913C615.726 45.9599 616.08 45.9251 616.403 45.7915C616.725 45.6578 617 45.4312 617.193 45.1406C617.386 44.85 617.488 44.5085 617.487 44.1597C617.488 43.9305 617.445 43.7034 617.358 43.4912C617.272 43.2791 617.144 43.086 616.983 42.9234C616.821 42.7608 616.629 42.6318 616.418 42.5437C616.206 42.4557 615.979 42.4103 615.75 42.4103Z" fill="#3A3A3A"/>
<path d="M636.86 56.0979H613.474C613.353 56.0976 613.236 56.0633 613.134 55.9988C613.033 55.9343 612.951 55.8423 612.9 55.7336C612.849 55.6248 612.829 55.5037 612.844 55.3843C612.859 55.2649 612.907 55.1521 612.983 55.059L620.737 45.6556C620.841 45.5299 620.988 45.4485 621.15 45.4284C621.312 45.4083 621.475 45.451 621.606 45.5476L624.805 47.9036L631.483 42.0489C631.546 41.9923 631.621 41.9491 631.701 41.922C631.782 41.8948 631.868 41.8842 631.952 41.8909C632.116 41.9094 632.265 41.9915 632.368 42.1195L637.317 48.0241C637.414 48.1409 637.467 48.2879 637.466 48.4397V55.4829C637.467 55.5665 637.451 55.6495 637.419 55.7269C637.387 55.8043 637.341 55.8746 637.281 55.9337C637.222 55.9929 637.152 56.0396 637.075 56.0714C636.997 56.1031 636.914 56.1192 636.831 56.1187L636.86 56.0979ZM614.837 54.8264H636.236V48.6516L631.857 43.4201L625.283 49.1835C625.174 49.2801 625.036 49.3361 624.89 49.3422C624.745 49.3482 624.602 49.304 624.485 49.2168L621.361 46.9147L614.837 54.8264Z" fill="#3A3A3A"/>
<path d="M641.127 61.0095H610.988C610.571 61.0095 610.232 61.3481 610.232 61.7657V68.543C610.232 68.9607 610.571 69.2993 610.988 69.2993H641.127C641.544 69.2993 641.883 68.9607 641.883 68.543V61.7657C641.883 61.3481 641.544 61.0095 641.127 61.0095Z" fill="url(#paint8_linear_209_433)" stroke="#333333" stroke-width="1.24659" stroke-miterlimit="10"/>
<path d="M619.399 67.2217C619.399 67.1368 619.424 67.066 619.473 67.0094C619.524 66.9528 619.6 66.9245 619.701 66.9245C619.802 66.9245 619.878 66.9528 619.93 67.0094C619.983 67.066 620.009 67.1368 620.009 67.2217C620.009 67.3031 619.983 67.3712 619.93 67.4261C619.878 67.4809 619.802 67.5084 619.701 67.5084C619.6 67.5084 619.524 67.4809 619.473 67.4261C619.424 67.3712 619.399 67.3031 619.399 67.2217ZM622.517 63.6151H623.029V66.3513C623.029 66.721 622.918 67.0103 622.695 67.2191C622.474 67.4279 622.178 67.5322 621.808 67.5322C621.425 67.5322 621.126 67.434 620.911 67.2377C620.697 67.0413 620.59 66.7662 620.59 66.4123H621.1C621.1 66.6335 621.16 66.806 621.28 66.9298C621.402 67.0537 621.578 67.1156 621.808 67.1156C622.019 67.1156 622.189 67.0492 622.318 66.9165C622.449 66.7839 622.515 66.5981 622.517 66.3592V63.6151ZM624.407 65.9665V67.4792H623.897V63.6151H625.322C625.745 63.6151 626.076 63.723 626.315 63.9389C626.555 64.1547 626.676 64.4405 626.676 64.7961C626.676 65.1712 626.558 65.4605 626.323 65.6639C626.089 65.8656 625.754 65.9665 625.317 65.9665H624.407ZM624.407 65.5498H625.322C625.595 65.5498 625.803 65.4861 625.949 65.3587C626.094 65.2296 626.166 65.0438 626.166 64.8014C626.166 64.5714 626.094 64.3874 625.949 64.2494C625.803 64.1114 625.604 64.0397 625.351 64.0344H624.407V65.5498ZM630.179 66.9723C630.048 67.1598 629.865 67.3005 629.629 67.3942C629.396 67.4862 629.123 67.5322 628.812 67.5322C628.497 67.5322 628.218 67.4588 627.973 67.312C627.729 67.1634 627.54 66.9528 627.405 66.6803C627.273 66.4079 627.205 66.0921 627.201 65.7329V65.3959C627.201 64.8138 627.336 64.3626 627.607 64.0424C627.88 63.7222 628.262 63.562 628.754 63.562C629.157 63.562 629.482 63.6655 629.728 63.8726C629.974 64.0778 630.124 64.3697 630.179 64.7483H629.669C629.574 64.237 629.269 63.9814 628.756 63.9814C628.415 63.9814 628.156 64.1017 627.979 64.3423C627.804 64.5811 627.715 64.9279 627.713 65.3826V65.6984C627.713 66.1319 627.812 66.4769 628.011 66.7334C628.209 66.9882 628.477 67.1156 628.815 67.1156C629.006 67.1156 629.173 67.0944 629.316 67.0519C629.46 67.0094 629.578 66.9378 629.672 66.8369V65.9691H628.778V65.5551H630.179V66.9723Z" fill="white"/>
<defs>
<linearGradient id="paint0_linear_209_433" x1="549" y1="130" x2="559.34" y2="-5.352" gradientUnits="userSpaceOnUse">
<stop stop-color="#F3F7FF"/>
<stop offset="1" stop-color="#DEEEFE"/>
</linearGradient>
<linearGradient id="paint1_linear_209_433" x1="324.352" y1="42.0256" x2="334.802" y2="42.0256" gradientUnits="userSpaceOnUse">
<stop stop-color="#3B94E2"/>
<stop offset="0.3125" stop-color="#2BB1FF"/>
</linearGradient>
<linearGradient id="paint2_linear_209_433" x1="324.352" y1="51.6574" x2="341.409" y2="51.6574" gradientUnits="userSpaceOnUse">
<stop stop-color="#3B94E2"/>
<stop offset="0.3125" stop-color="#2BB1FF"/>
</linearGradient>
<linearGradient id="paint3_linear_209_433" x1="324.352" y1="61.2937" x2="354.428" y2="61.2937" gradientUnits="userSpaceOnUse">
<stop stop-color="#3B94E2"/>
<stop offset="0.3125" stop-color="#2BB1FF"/>
</linearGradient>
<linearGradient id="paint4_linear_209_433" x1="324.352" y1="70.93" x2="354.428" y2="70.93" gradientUnits="userSpaceOnUse">
<stop stop-color="#3B94E2"/>
<stop offset="0.3125" stop-color="#2BB1FF"/>
</linearGradient>
<linearGradient id="paint5_linear_209_433" x1="324.352" y1="80.562" x2="354.428" y2="80.562" gradientUnits="userSpaceOnUse">
<stop stop-color="#3B94E2"/>
<stop offset="0.3125" stop-color="#2BB1FF"/>
</linearGradient>
<linearGradient id="paint6_linear_209_433" x1="749.703" y1="79.1878" x2="781.354" y2="79.1878" gradientUnits="userSpaceOnUse">
<stop stop-color="#3B94E2"/>
<stop offset="0.3125" stop-color="#2BB1FF"/>
</linearGradient>
<linearGradient id="paint7_linear_209_433" x1="460.704" y1="79.1878" x2="492.355" y2="79.1878" gradientUnits="userSpaceOnUse">
<stop stop-color="#3B94E2"/>
<stop offset="0.3125" stop-color="#2BB1FF"/>
</linearGradient>
<linearGradient id="paint8_linear_209_433" x1="610.232" y1="65.1564" x2="641.883" y2="65.1564" gradientUnits="userSpaceOnUse">
<stop stop-color="#3B94E2"/>
<stop offset="0.3125" stop-color="#2BB1FF"/>
</linearGradient>
</defs>
</svg>
