<svg width="35" height="35" viewBox="0 0 35 35" fill="none" xmlns="http://www.w3.org/2000/svg">
<g clip-path="url(#clip0_755_23388)">
<path d="M30.2322 9.78357L34.5136 13.0491V13.1164C33.8059 13.4676 33.1704 13.9416 32.4988 14.3542C31.7332 14.8264 30.976 15.313 30.2154 15.7928C30.0819 15.7088 30.0702 15.5743 30.0685 15.4399C30.0551 13.6685 30.0517 11.897 30.0685 10.1256C30.0761 9.99366 30.0819 9.85248 30.2322 9.78357Z" fill="#64B4F5"/>
<path d="M30.2322 9.78355L30.2196 15.7928L20.1759 22.1869C19.5185 21.8298 18.9225 21.3768 18.2988 20.9684C17.4828 20.434 17.2402 20.434 16.4225 20.9684C15.7987 21.3768 15.2035 21.8306 14.5445 22.1852C14.3766 22.2634 14.244 22.1777 14.1105 22.0936C12.1872 20.8802 10.2749 19.6508 8.35496 18.4315C7.21661 17.7088 6.07937 16.9838 4.94326 16.2567C4.72247 16.1155 4.40765 16.039 4.39254 15.6861C4.35747 15.5106 4.33865 15.3323 4.3363 15.1533C4.3363 13.5875 4.3363 12.0225 4.3363 10.4583C4.3363 10.2205 4.35225 9.9886 4.49077 9.78607C4.49077 7.34966 4.493 4.91269 4.49748 2.47515C4.49748 1.08356 5.41505 0.170959 6.81113 0.170959H27.911C29.3079 0.170959 30.2238 1.08356 30.2254 2.47431C30.2282 4.91129 30.2305 7.3477 30.2322 9.78355Z" fill="#F9F9F9"/>
<path d="M4.50094 15.7937C3.24562 14.9981 1.99001 14.2032 0.73413 13.4088C0.566231 13.3029 0.414277 13.1684 0.214478 13.1197C0.214478 13.0407 0.269887 13.0021 0.321935 12.9626C1.70934 11.9021 3.09786 10.8424 4.4875 9.78357C4.49646 11.7869 4.50094 13.7903 4.50094 15.7937Z" fill="#64B4F5"/>
<path d="M17.3621 4.46423C19.8402 4.46423 22.3182 4.46423 24.7958 4.46423C25.6772 4.46423 26.2045 5.29784 25.8032 6.03986C25.5933 6.42809 25.2508 6.60793 24.8117 6.60793H21.7316C17.8353 6.60793 13.9394 6.60793 10.0442 6.60793C9.73442 6.60793 9.44312 6.57012 9.19379 6.37013C9.02023 6.23184 8.89396 6.04291 8.83249 5.82955C8.77103 5.61619 8.77741 5.38898 8.85076 5.17942C8.92412 4.96986 9.06079 4.78834 9.24185 4.66004C9.4229 4.53174 9.63935 4.463 9.86118 4.46339C10.9525 4.45499 12.0489 4.46339 13.1428 4.46339L17.3621 4.46423Z" fill="#8FA3AD"/>
<path d="M17.3622 10.9004C14.884 10.9004 12.4092 10.9004 9.92762 10.9004C9.04615 10.9004 8.51895 10.0685 8.92023 9.32563C9.1301 8.93655 9.47177 8.75671 9.91083 8.75671H12.9246C16.8423 8.75671 20.7599 8.75671 24.6775 8.75671C24.9881 8.75671 25.2795 8.79454 25.5279 8.99454C25.7017 9.13264 25.8283 9.32148 25.89 9.53483C25.9517 9.74818 25.9455 9.97546 25.8723 10.1851C25.7992 10.3948 25.6626 10.5765 25.4816 10.705C25.3006 10.8335 25.0841 10.9024 24.8622 10.9021C23.7902 10.9105 22.719 10.9021 21.647 10.9021L17.3622 10.9004Z" fill="#8FA3AD"/>
<path d="M14.1106 15.1954C12.7377 15.1954 11.3665 15.1954 9.99704 15.1954C9.28599 15.1954 8.79573 14.7584 8.79153 14.1307C8.78733 13.503 9.27928 13.0517 9.98278 13.0509C12.7615 13.0509 15.5402 13.0509 18.319 13.0509C19.0216 13.0509 19.5136 13.5038 19.5077 14.1332C19.5018 14.7627 19.0124 15.1946 18.2996 15.1954C16.9027 15.1977 15.5064 15.1977 14.1106 15.1954Z" fill="#8FA3AD"/>
<path d="M34.5137 31.9643C33.9891 31.3173 33.2545 30.9492 32.5829 30.4988C28.5584 27.803 24.5305 25.1139 20.4992 22.4315C20.3884 22.3584 20.2868 22.2711 20.1802 22.1904C20.1685 21.9652 20.3532 21.8912 20.4976 21.7988C21.5212 21.1416 22.5462 20.4873 23.5726 19.8358C24.9561 18.9562 26.339 18.0755 27.7214 17.1937C28.5315 16.6803 29.3349 16.1559 30.1559 15.6534C30.5757 15.4425 30.9434 15.1576 31.3371 14.9097C32.2118 14.3573 33.0846 13.8027 33.9555 13.2458C34.1183 13.1416 34.2913 12.9467 34.5221 13.1198L34.5137 31.9643Z" fill="#1E87E4"/>
<path d="M4.50121 15.7938C7.74725 17.8593 10.9933 19.9243 14.2393 21.9887C14.3401 22.0534 14.4072 22.1745 14.5382 22.1862C14.4333 22.2703 14.3317 22.3543 14.2209 22.4291C9.81185 25.377 5.39667 28.3226 0.975334 31.2661C0.680672 31.4618 0.461564 31.7198 0.21979 31.9618C0.21979 31.8728 0.209717 31.7837 0.209717 31.6946C0.209717 25.5814 0.209717 19.468 0.209717 13.3543C0.209717 13.2761 0.215591 13.198 0.21811 13.1198C0.437217 12.9644 0.604274 13.1291 0.761259 13.2299C1.5571 13.7392 2.3563 14.2434 3.15131 14.7543C3.4594 14.9535 3.77253 15.1442 4.08062 15.3425C4.26372 15.4462 4.41055 15.6037 4.50121 15.7938Z" fill="#1E87E4"/>
<path d="M34.5138 31.9643V32.8333C34.4299 33.266 34.3459 33.6736 34.0009 34.0206C33.6559 34.3677 33.2563 34.4198 32.8391 34.5106H1.88442C1.39667 34.4366 0.95342 34.3022 0.60671 33.8988C0.285184 33.5249 0.204595 33.0963 0.17857 32.6383C0.165978 32.4282 0.17857 32.2181 0.17857 32.0064C0.285186 31.6358 0.519405 31.3778 0.840091 31.166C5.23736 28.2383 9.6307 25.3066 14.0201 22.3711C14.1763 22.2669 14.3559 22.203 14.486 22.0526C15.1257 21.6475 15.7596 21.2316 16.3766 20.7921C17.0482 20.319 17.6786 20.3148 18.3435 20.7921C18.9572 21.2341 19.612 21.6164 20.2198 22.0685C21.2272 22.7022 22.2094 23.3778 23.2 24.0383C26.7186 26.384 30.2361 28.7296 33.7524 31.0753C34.0966 31.3089 34.4055 31.545 34.5138 31.9643Z" fill="#2195F2"/>
</g>
<defs>
<clipPath id="clip0_755_23388">
<rect width="34.342" height="34.342" fill="white" transform="translate(0.171875 0.171021)"/>
</clipPath>
</defs>
</svg>
