<svg width="1098" height="130" viewBox="0 0 1098 130" fill="none" xmlns="http://www.w3.org/2000/svg">
<rect x="1098" y="130" width="1098" height="130" rx="20" transform="rotate(-180 1098 130)" fill="url(#paint0_linear_26_88)" fill-opacity="0.1"/>
<g clip-path="url(#clip0_26_88)">
<path d="M299.77 44.7015C299.563 44.7766 299.346 44.8149 299.126 44.8147C294.67 44.8147 291 41.689 291 37.0488C291 32.1523 294.896 29 299.66 29C304.425 29 308.317 32.1257 308.317 37.0189C308.317 39.2424 307.591 40.9601 306.245 43.0971L300.36 52.4674H294.587L299.77 44.7015ZM303.357 36.9922C303.357 34.9384 301.928 33.3307 299.66 33.3307C297.392 33.3307 295.96 34.9351 295.96 36.9922C295.96 39.0494 297.389 40.6538 299.66 40.6538C301.931 40.6538 303.357 39.046 303.357 36.9922ZM310.111 44.9811C310.111 42.7609 310.84 41.0433 312.183 38.9062L318.068 29.5359H323.841L318.658 37.3018C318.865 37.2268 319.082 37.1885 319.302 37.1886C323.758 37.1886 327.428 40.311 327.428 44.9545C327.428 49.6513 323.562 53 318.771 53C313.98 53 310.111 49.8777 310.111 44.9811ZM322.468 45.0111C322.468 42.9573 321.039 41.3495 318.771 41.3495C316.503 41.3495 315.084 42.9573 315.084 45.0111C315.084 47.0649 316.513 48.6727 318.784 48.6727C321.056 48.6727 322.468 47.0649 322.468 45.0111Z" fill="#00AAFF"/>
<path d="M334.646 41.5859C334.646 43.2769 333.403 44.5118 331.596 44.5118C329.789 44.5118 328.559 43.2769 328.559 41.5859C328.559 39.8949 329.805 38.6433 331.596 38.6433C333.386 38.6433 334.646 39.8916 334.646 41.5859ZM332.226 51.3057H330.147L338.343 38.8863H340.422L332.226 51.3057ZM330.435 41.5859C330.43 41.7411 330.457 41.8958 330.514 42.0402C330.571 42.1847 330.656 42.3159 330.766 42.4257C330.875 42.5356 331.006 42.6217 331.15 42.6788C331.294 42.7359 331.448 42.7627 331.602 42.7576C331.757 42.7627 331.911 42.7358 332.055 42.6788C332.199 42.6218 332.33 42.5357 332.44 42.4259C332.55 42.3161 332.636 42.185 332.693 42.0405C332.75 41.896 332.777 41.7413 332.773 41.5859C332.778 41.4302 332.751 41.2751 332.694 41.1303C332.637 40.9854 332.551 40.8538 332.441 40.7437C332.332 40.6335 332.201 40.5472 332.056 40.4899C331.912 40.4327 331.757 40.4058 331.602 40.4109C331.447 40.4057 331.293 40.4327 331.149 40.4899C331.005 40.5472 330.874 40.6336 330.765 40.7438C330.655 40.854 330.569 40.9857 330.513 41.1305C330.456 41.2754 330.43 41.4304 330.435 41.5859ZM342 48.5762C342 50.2672 340.757 51.5021 338.95 51.5021C337.143 51.5021 335.913 50.2672 335.913 48.5762C335.913 46.8852 337.159 45.6502 338.956 45.6502C340.753 45.6502 342 46.8852 342 48.5928V48.5762ZM337.779 48.5762C337.772 48.7337 337.798 48.8909 337.854 49.038C337.911 49.1851 337.997 49.3188 338.108 49.4308C338.218 49.5427 338.351 49.6305 338.497 49.6885C338.643 49.7465 338.799 49.7735 338.956 49.7679C339.111 49.7716 339.264 49.7436 339.407 49.6858C339.55 49.6279 339.68 49.5413 339.789 49.4313C339.897 49.3213 339.982 49.1902 340.039 49.046C340.095 48.9019 340.122 48.7476 340.117 48.5928C340.122 48.438 340.095 48.2838 340.039 48.1396C339.982 47.9954 339.897 47.8643 339.789 47.7543C339.68 47.6443 339.55 47.5578 339.407 47.4999C339.264 47.442 339.111 47.4141 338.956 47.4178C338.801 47.4123 338.646 47.4388 338.501 47.4958C338.356 47.5528 338.224 47.6391 338.114 47.7492C338.004 47.8593 337.917 47.991 337.86 48.1361C337.802 48.2813 337.775 48.4367 337.779 48.5928V48.5762Z" fill="#00AAFF"/>
</g>
<circle opacity="0.1" cx="258" cy="41" r="17" fill="#397AF6"/>
<path fill-rule="evenodd" clip-rule="evenodd" d="M257.414 23.9999V40.9902L269.724 28.6797C272.974 31.7761 275 36.1465 275 40.99C275 50.3789 267.389 57.99 258 57.99C248.611 57.99 241 50.3789 241 40.99C241 31.7974 248.296 24.3089 257.414 23.9999Z" fill="#31A8F6"/>
<path d="M244.1 87.1625C245.05 87.1625 245.725 86.6875 246.35 85.9625H246.388L246.5 87H247.675V80.125H246.238V84.9C245.663 85.625 245.225 85.925 244.588 85.925C243.775 85.925 243.438 85.4625 243.438 84.275V80.125H242V84.45C242 86.2 242.638 87.1625 244.1 87.1625ZM251.701 87.1625C253.401 87.1625 254.314 86.225 254.314 85.075C254.314 83.775 253.251 83.35 252.289 82.9875C251.539 82.7125 250.826 82.4875 250.826 81.9C250.826 81.425 251.176 81.05 251.926 81.05C252.501 81.05 252.989 81.3 253.464 81.65L254.139 80.7625C253.576 80.325 252.826 79.95 251.901 79.95C250.389 79.95 249.464 80.8125 249.464 81.9625C249.464 83.125 250.514 83.6125 251.426 83.9625C252.176 84.25 252.951 84.525 252.951 85.15C252.951 85.675 252.564 86.075 251.739 86.075C251.001 86.075 250.401 85.775 249.789 85.2875L249.114 86.2125C249.776 86.7625 250.751 87.1625 251.701 87.1625ZM258.707 87.1625C259.607 87.1625 260.395 86.8625 261.032 86.4375L260.532 85.525C260.032 85.85 259.507 86.0375 258.895 86.0375C257.707 86.0375 256.882 85.25 256.77 83.9375H261.232C261.27 83.775 261.295 83.4875 261.295 83.2125C261.295 81.2625 260.32 79.95 258.495 79.95C256.882 79.95 255.357 81.3375 255.357 83.575C255.357 85.8375 256.845 87.1625 258.707 87.1625ZM256.757 82.95C256.895 81.7375 257.657 81.075 258.52 81.075C259.52 81.075 260.057 81.7625 260.057 82.95H256.757ZM265.72 87H267.145V82.125C267.72 81.5 268.233 81.1875 268.695 81.1875C269.483 81.1875 269.845 81.6625 269.845 82.85V87H271.283V82.125C271.858 81.5 272.358 81.1875 272.833 81.1875C273.608 81.1875 273.983 81.6625 273.983 82.85V87H275.42V82.675C275.42 80.925 274.745 79.95 273.308 79.95C272.445 79.95 271.745 80.4875 271.07 81.2125C270.77 80.425 270.195 79.95 269.17 79.95C268.32 79.95 267.633 80.4625 267.045 81.0875H267.008L266.895 80.125H265.72V87ZM280.363 87.1625C281.263 87.1625 282.05 86.8625 282.688 86.4375L282.188 85.525C281.688 85.85 281.163 86.0375 280.55 86.0375C279.363 86.0375 278.538 85.25 278.425 83.9375H282.888C282.925 83.775 282.95 83.4875 282.95 83.2125C282.95 81.2625 281.975 79.95 280.15 79.95C278.538 79.95 277.013 81.3375 277.013 83.575C277.013 85.8375 278.5 87.1625 280.363 87.1625ZM278.413 82.95C278.55 81.7375 279.313 81.075 280.175 81.075C281.175 81.075 281.713 81.7625 281.713 82.95H278.413ZM286.43 87.1625C288.13 87.1625 289.043 86.225 289.043 85.075C289.043 83.775 287.98 83.35 287.018 82.9875C286.268 82.7125 285.555 82.4875 285.555 81.9C285.555 81.425 285.905 81.05 286.655 81.05C287.23 81.05 287.718 81.3 288.193 81.65L288.868 80.7625C288.305 80.325 287.555 79.95 286.63 79.95C285.118 79.95 284.193 80.8125 284.193 81.9625C284.193 83.125 285.243 83.6125 286.155 83.9625C286.905 84.25 287.68 84.525 287.68 85.15C287.68 85.675 287.293 86.075 286.468 86.075C285.73 86.075 285.13 85.775 284.518 85.2875L283.843 86.2125C284.505 86.7625 285.48 87.1625 286.43 87.1625ZM292.436 87.1625C294.136 87.1625 295.049 86.225 295.049 85.075C295.049 83.775 293.986 83.35 293.024 82.9875C292.274 82.7125 291.561 82.4875 291.561 81.9C291.561 81.425 291.911 81.05 292.661 81.05C293.236 81.05 293.724 81.3 294.199 81.65L294.874 80.7625C294.311 80.325 293.561 79.95 292.636 79.95C291.124 79.95 290.199 80.8125 290.199 81.9625C290.199 83.125 291.249 83.6125 292.161 83.9625C292.911 84.25 293.686 84.525 293.686 85.15C293.686 85.675 293.299 86.075 292.474 86.075C291.736 86.075 291.136 85.775 290.524 85.2875L289.849 86.2125C290.511 86.7625 291.486 87.1625 292.436 87.1625ZM299.442 87.1625C300.342 87.1625 301.13 86.8625 301.767 86.4375L301.267 85.525C300.767 85.85 300.242 86.0375 299.63 86.0375C298.442 86.0375 297.617 85.25 297.505 83.9375H301.967C302.005 83.775 302.03 83.4875 302.03 83.2125C302.03 81.2625 301.055 79.95 299.23 79.95C297.617 79.95 296.092 81.3375 296.092 83.575C296.092 85.8375 297.58 87.1625 299.442 87.1625ZM297.492 82.95C297.63 81.7375 298.392 81.075 299.255 81.075C300.255 81.075 300.792 81.7625 300.792 82.95H297.492ZM303.648 87H305.073V82.125C305.685 81.5125 306.123 81.1875 306.76 81.1875C307.573 81.1875 307.923 81.6625 307.923 82.85V87H309.36V82.675C309.36 80.925 308.71 79.95 307.248 79.95C306.31 79.95 305.61 80.4625 304.973 81.075H304.935L304.823 80.125H303.648V87ZM313.798 90.0875C315.998 90.0875 317.398 89.0125 317.398 87.6875C317.398 86.5125 316.548 86.0125 314.923 86.0125H313.66C312.785 86.0125 312.51 85.75 312.51 85.3375C312.51 85.0125 312.66 84.8125 312.885 84.6125C313.185 84.75 313.535 84.825 313.848 84.825C315.285 84.825 316.423 83.9625 316.423 82.4625C316.423 81.9375 316.235 81.475 315.973 81.2H317.285V80.125H314.848C314.585 80.025 314.235 79.95 313.848 79.95C312.423 79.95 311.185 80.8625 311.185 82.425C311.185 83.2375 311.623 83.8875 312.085 84.25V84.3C311.71 84.575 311.323 85.0375 311.323 85.575C311.323 86.1375 311.598 86.5 311.948 86.7125V86.775C311.31 87.1625 310.948 87.7 310.948 88.275C310.948 89.475 312.148 90.0875 313.798 90.0875ZM313.848 83.9C313.135 83.9 312.548 83.3375 312.548 82.425C312.548 81.4875 313.123 80.9625 313.848 80.9625C314.573 80.9625 315.148 81.5 315.148 82.425C315.148 83.3375 314.56 83.9 313.848 83.9ZM314.01 89.1375C312.873 89.1375 312.173 88.7375 312.173 88.0625C312.173 87.7125 312.348 87.3625 312.76 87.0625C313.048 87.125 313.36 87.1625 313.685 87.1625H314.723C315.56 87.1625 316.01 87.3375 316.01 87.9125C316.01 88.55 315.21 89.1375 314.01 89.1375ZM321.329 87.1625C322.229 87.1625 323.017 86.8625 323.654 86.4375L323.154 85.525C322.654 85.85 322.129 86.0375 321.517 86.0375C320.329 86.0375 319.504 85.25 319.392 83.9375H323.854C323.892 83.775 323.917 83.4875 323.917 83.2125C323.917 81.2625 322.942 79.95 321.117 79.95C319.504 79.95 317.979 81.3375 317.979 83.575C317.979 85.8375 319.467 87.1625 321.329 87.1625ZM319.379 82.95C319.517 81.7375 320.279 81.075 321.142 81.075C322.142 81.075 322.679 81.7625 322.679 82.95H319.379ZM325.535 87H326.96V82.7125C327.397 81.625 328.072 81.2375 328.635 81.2375C328.91 81.2375 329.085 81.275 329.322 81.35L329.585 80.1C329.372 80 329.147 79.95 328.81 79.95C328.072 79.95 327.347 80.475 326.86 81.3625H326.822L326.71 80.125H325.535V87ZM332.439 87.1625C334.139 87.1625 335.051 86.225 335.051 85.075C335.051 83.775 333.989 83.35 333.026 82.9875C332.276 82.7125 331.564 82.4875 331.564 81.9C331.564 81.425 331.914 81.05 332.664 81.05C333.239 81.05 333.726 81.3 334.201 81.65L334.876 80.7625C334.314 80.325 333.564 79.95 332.639 79.95C331.126 79.95 330.201 80.8125 330.201 81.9625C330.201 83.125 331.251 83.6125 332.164 83.9625C332.914 84.25 333.689 84.525 333.689 85.15C333.689 85.675 333.301 86.075 332.476 86.075C331.739 86.075 331.139 85.775 330.526 85.2875L329.851 86.2125C330.514 86.7625 331.489 87.1625 332.439 87.1625ZM341.702 87.1625C342.202 87.1625 342.665 87.0375 343.052 86.9125L342.79 85.85C342.59 85.9375 342.29 86.0125 342.052 86.0125C341.34 86.0125 341.052 85.5875 341.052 84.7625V81.275H342.84V80.125H341.052V78.225H339.84L339.677 80.125L338.615 80.2V81.275H339.615V84.75C339.615 86.2 340.152 87.1625 341.702 87.1625ZM346.888 87.1625C348.588 87.1625 350.126 85.85 350.126 83.575C350.126 81.275 348.588 79.95 346.888 79.95C345.188 79.95 343.651 81.275 343.651 83.575C343.651 85.85 345.188 87.1625 346.888 87.1625ZM346.888 85.9875C345.813 85.9875 345.138 85.025 345.138 83.575C345.138 82.1125 345.813 81.1375 346.888 81.1375C347.976 81.1375 348.651 82.1125 348.651 83.575C348.651 85.025 347.976 85.9875 346.888 85.9875ZM244.888 103.163C245.675 103.163 246.488 102.875 247.113 102.312L246.525 101.362C246.113 101.712 245.6 101.987 245.025 101.987C243.875 101.987 243.088 101.025 243.088 99.575C243.088 98.1125 243.913 97.1375 245.063 97.1375C245.538 97.1375 245.925 97.3375 246.3 97.675L247.013 96.7375C246.513 96.3 245.875 95.95 245 95.95C243.188 95.95 241.6 97.275 241.6 99.575C241.6 101.85 243.025 103.163 244.888 103.163ZM250.965 103.163C252.665 103.163 254.203 101.85 254.203 99.575C254.203 97.275 252.665 95.95 250.965 95.95C249.265 95.95 247.728 97.275 247.728 99.575C247.728 101.85 249.265 103.163 250.965 103.163ZM250.965 101.987C249.89 101.987 249.215 101.025 249.215 99.575C249.215 98.1125 249.89 97.1375 250.965 97.1375C252.053 97.1375 252.728 98.1125 252.728 99.575C252.728 101.025 252.053 101.987 250.965 101.987ZM255.894 103H257.319V98.125C257.894 97.5 258.406 97.1875 258.869 97.1875C259.656 97.1875 260.019 97.6625 260.019 98.85V103H261.456V98.125C262.031 97.5 262.531 97.1875 263.006 97.1875C263.781 97.1875 264.156 97.6625 264.156 98.85V103H265.594V98.675C265.594 96.925 264.919 95.95 263.481 95.95C262.619 95.95 261.919 96.4875 261.244 97.2125C260.944 96.425 260.369 95.95 259.344 95.95C258.494 95.95 257.806 96.4625 257.219 97.0875H257.181L257.069 96.125H255.894V103ZM267.673 103H269.098V98.125C269.673 97.5 270.186 97.1875 270.648 97.1875C271.436 97.1875 271.798 97.6625 271.798 98.85V103H273.236V98.125C273.811 97.5 274.311 97.1875 274.786 97.1875C275.561 97.1875 275.936 97.6625 275.936 98.85V103H277.373V98.675C277.373 96.925 276.698 95.95 275.261 95.95C274.398 95.95 273.698 96.4875 273.023 97.2125C272.723 96.425 272.148 95.95 271.123 95.95C270.273 95.95 269.586 96.4625 268.998 97.0875H268.961L268.848 96.125H267.673V103ZM281.466 103.163C282.416 103.163 283.091 102.687 283.716 101.962H283.753L283.866 103H285.041V96.125H283.603V100.9C283.028 101.625 282.591 101.925 281.953 101.925C281.141 101.925 280.803 101.462 280.803 100.275V96.125H279.366V100.45C279.366 102.2 280.003 103.163 281.466 103.163ZM287.205 103H288.63V98.125C289.242 97.5125 289.68 97.1875 290.317 97.1875C291.13 97.1875 291.48 97.6625 291.48 98.85V103H292.917V98.675C292.917 96.925 292.267 95.95 290.805 95.95C289.867 95.95 289.167 96.4625 288.53 97.075H288.492L288.38 96.125H287.205V103ZM295.005 103H296.43V96.125H295.005V103ZM295.717 94.8375C296.242 94.8375 296.642 94.4875 296.642 93.9875C296.642 93.475 296.242 93.1375 295.717 93.1375C295.192 93.1375 294.805 93.475 294.805 93.9875C294.805 94.4875 295.192 94.8375 295.717 94.8375ZM301.394 103.163C302.181 103.163 302.994 102.875 303.619 102.312L303.031 101.362C302.619 101.712 302.106 101.987 301.531 101.987C300.381 101.987 299.594 101.025 299.594 99.575C299.594 98.1125 300.419 97.1375 301.569 97.1375C302.044 97.1375 302.431 97.3375 302.806 97.675L303.519 96.7375C303.019 96.3 302.381 95.95 301.506 95.95C299.694 95.95 298.106 97.275 298.106 99.575C298.106 101.85 299.531 103.163 301.394 103.163ZM306.542 103.163C307.367 103.163 308.105 102.75 308.73 102.212H308.767L308.892 103H310.067V98.8625C310.067 97.0375 309.28 95.95 307.567 95.95C306.467 95.95 305.505 96.4 304.792 96.85L305.33 97.825C305.917 97.45 306.592 97.125 307.317 97.125C308.33 97.125 308.617 97.825 308.63 98.625C305.767 98.9375 304.517 99.7 304.517 101.175C304.517 102.387 305.355 103.163 306.542 103.163ZM306.98 102.025C306.367 102.025 305.905 101.75 305.905 101.075C305.905 100.3 306.592 99.7875 308.63 99.5375V101.225C308.067 101.737 307.58 102.025 306.98 102.025ZM314.212 103.163C314.712 103.163 315.175 103.038 315.562 102.912L315.3 101.85C315.1 101.937 314.8 102.012 314.562 102.012C313.85 102.012 313.562 101.587 313.562 100.762V97.275H315.35V96.125H313.562V94.225H312.35L312.187 96.125L311.125 96.2V97.275H312.125V100.75C312.125 102.2 312.662 103.163 314.212 103.163ZM319.511 103.163C320.411 103.163 321.198 102.862 321.836 102.437L321.336 101.525C320.836 101.85 320.311 102.037 319.698 102.037C318.511 102.037 317.686 101.25 317.573 99.9375H322.036C322.073 99.775 322.098 99.4875 322.098 99.2125C322.098 97.2625 321.123 95.95 319.298 95.95C317.686 95.95 316.161 97.3375 316.161 99.575C316.161 101.837 317.648 103.163 319.511 103.163ZM317.561 98.95C317.698 97.7375 318.461 97.075 319.323 97.075C320.323 97.075 320.861 97.7625 320.861 98.95H317.561ZM328.149 103.163C328.974 103.163 329.711 102.75 330.336 102.212H330.374L330.499 103H331.674V98.8625C331.674 97.0375 330.886 95.95 329.174 95.95C328.074 95.95 327.111 96.4 326.399 96.85L326.936 97.825C327.524 97.45 328.199 97.125 328.924 97.125C329.936 97.125 330.224 97.825 330.236 98.625C327.374 98.9375 326.124 99.7 326.124 101.175C326.124 102.387 326.961 103.163 328.149 103.163ZM328.586 102.025C327.974 102.025 327.511 101.75 327.511 101.075C327.511 100.3 328.199 99.7875 330.236 99.5375V101.225C329.674 101.737 329.186 102.025 328.586 102.025ZM335.818 103.163C336.318 103.163 336.781 103.038 337.168 102.912L336.906 101.85C336.706 101.937 336.406 102.012 336.168 102.012C335.456 102.012 335.168 101.587 335.168 100.762V97.275H336.956V96.125H335.168V94.225H333.956L333.793 96.125L332.731 96.2V97.275H333.731V100.75C333.731 102.2 334.268 103.163 335.818 103.163ZM342.382 103H344.045L344.882 99.6125C345.057 98.9625 345.182 98.325 345.32 97.6125H345.382C345.532 98.325 345.657 98.95 345.82 99.6L346.695 103H348.42L350.195 96.125H348.845L347.957 99.85C347.807 100.512 347.695 101.15 347.557 101.8H347.507C347.345 101.15 347.207 100.512 347.045 99.85L346.057 96.125H344.72L343.757 99.85C343.595 100.5 343.457 101.15 343.307 101.8H343.257C343.132 101.15 343.02 100.512 342.882 99.85L341.97 96.125H340.52L342.382 103ZM354.298 103.163C355.998 103.163 357.535 101.85 357.535 99.575C357.535 97.275 355.998 95.95 354.298 95.95C352.598 95.95 351.06 97.275 351.06 99.575C351.06 101.85 352.598 103.163 354.298 103.163ZM354.298 101.987C353.223 101.987 352.548 101.025 352.548 99.575C352.548 98.1125 353.223 97.1375 354.298 97.1375C355.385 97.1375 356.06 98.1125 356.06 99.575C356.06 101.025 355.385 101.987 354.298 101.987ZM359.226 103H360.651V98.7125C361.089 97.625 361.764 97.2375 362.326 97.2375C362.601 97.2375 362.776 97.275 363.014 97.35L363.276 96.1C363.064 96 362.839 95.95 362.501 95.95C361.764 95.95 361.039 96.475 360.551 97.3625H360.514L360.401 96.125H359.226V103ZM364.341 103H365.741V101.225L366.903 99.8875L368.766 103H370.328L367.728 98.9125L370.066 96.125H368.478L365.778 99.4625H365.741V93.0375H364.341V103Z" fill="black"/>
<g clip-path="url(#clip1_26_88)">
<path d="M533.376 46.9599H523V42.816L531.93 29.0141H538.253V42.8291H541.273V46.9599H538.253V51.4822H533.376V46.9599ZM533.376 42.8225V34.1629L527.931 42.816L533.376 42.8225ZM542.769 44.9173H547.844C548.042 46.7119 549.092 47.7593 551.219 47.7593C553.346 47.7593 554.594 46.242 554.594 44.1701C554.594 42.0982 553.346 40.6136 551.135 40.6136C550.505 40.5854 549.878 40.7091 549.309 40.9738C548.74 41.2386 548.247 41.636 547.875 42.1308H543.185L543.856 29.0043H558.458V33.2786H548.545L548.287 37.4975C549.415 36.8598 550.7 36.5348 552.004 36.5578C556.54 36.5578 559.602 39.3998 559.602 44.1701C559.602 48.9404 555.973 52.001 551.216 52.001C546.191 52.001 543.128 49.2439 542.759 44.9108L542.769 44.9173Z" fill="#00AAFF"/>
<path d="M567.563 40.8214C567.563 42.479 566.305 43.6895 564.477 43.6895C562.648 43.6895 561.407 42.479 561.407 40.8214C561.407 39.1639 562.665 37.9403 564.477 37.9403C566.288 37.9403 567.563 39.1476 567.563 40.8214ZM565.117 50.336H563.004L571.297 38.1491H573.4L565.117 50.336ZM563.306 40.8214C563.3 40.9739 563.327 41.1258 563.384 41.2678C563.442 41.4098 563.528 41.5388 563.639 41.6468C563.75 41.7548 563.882 41.8396 564.028 41.8957C564.174 41.9519 564.33 41.9782 564.487 41.9732C564.644 41.9782 564.8 41.9518 564.946 41.8957C565.092 41.8396 565.224 41.7549 565.335 41.647C565.446 41.539 565.533 41.41 565.591 41.268C565.649 41.126 565.676 40.974 565.671 40.8214C565.675 40.6691 565.648 40.5174 565.59 40.3758C565.532 40.2342 565.445 40.1056 565.334 39.998C565.223 39.8904 565.091 39.806 564.945 39.7501C564.799 39.6942 564.643 39.6679 564.487 39.6729C564.329 39.6665 564.172 39.6918 564.026 39.7471C563.879 39.8025 563.745 39.8867 563.634 39.9945C563.522 40.1023 563.434 40.2314 563.376 40.3737C563.318 40.516 563.291 40.6684 563.296 40.8214H563.306ZM575.007 47.6735C575.007 49.331 573.749 50.5415 571.92 50.5415C570.092 50.5415 568.848 49.331 568.848 47.6735C568.848 46.0159 570.109 44.7891 571.92 44.7891C573.732 44.7891 574.997 46.0061 574.997 47.68L575.007 47.6735ZM570.736 47.6735C570.732 47.8258 570.759 47.9774 570.817 48.1191C570.875 48.2607 570.962 48.3893 571.073 48.4969C571.184 48.6045 571.316 48.6888 571.462 48.7448C571.608 48.8007 571.764 48.827 571.92 48.822C572.077 48.827 572.233 48.8007 572.378 48.7447C572.524 48.6888 572.656 48.6044 572.767 48.4967C572.878 48.389 572.964 48.2604 573.022 48.1188C573.079 47.9772 573.106 47.8256 573.101 47.6735C573.107 47.521 573.08 47.3691 573.023 47.2271C572.966 47.0851 572.879 46.9561 572.768 46.8481C572.657 46.74 572.525 46.6553 572.379 46.5992C572.233 46.543 572.077 46.5166 571.92 46.5217C571.762 46.5152 571.604 46.5408 571.457 46.5967C571.309 46.6526 571.175 46.7376 571.063 46.8464C570.95 46.9552 570.863 47.0855 570.805 47.229C570.747 47.3724 570.72 47.526 570.726 47.68L570.736 47.6735Z" fill="#00AAFF"/>
</g>
<circle opacity="0.1" cx="490" cy="41" r="17" fill="#397AF6"/>
<path fill-rule="evenodd" clip-rule="evenodd" d="M489.414 23.9999V41.2833L499.325 55.2064C496.648 56.9662 493.443 57.99 490 57.99C480.611 57.99 473 50.3789 473 40.99C473 31.7974 480.296 24.3089 489.414 23.9999Z" fill="#31A8F6"/>
<path d="M475.95 87.1625C477.65 87.1625 478.563 86.225 478.563 85.075C478.563 83.775 477.5 83.35 476.538 82.9875C475.788 82.7125 475.075 82.4875 475.075 81.9C475.075 81.425 475.425 81.05 476.175 81.05C476.75 81.05 477.238 81.3 477.713 81.65L478.388 80.7625C477.825 80.325 477.075 79.95 476.15 79.95C474.638 79.95 473.713 80.8125 473.713 81.9625C473.713 83.125 474.763 83.6125 475.675 83.9625C476.425 84.25 477.2 84.525 477.2 85.15C477.2 85.675 476.813 86.075 475.988 86.075C475.25 86.075 474.65 85.775 474.038 85.2875L473.363 86.2125C474.025 86.7625 475 87.1625 475.95 87.1625ZM480.093 87H481.518V82.125C482.131 81.5125 482.568 81.1875 483.206 81.1875C484.018 81.1875 484.368 81.6625 484.368 82.85V87H485.806V82.675C485.806 80.925 485.156 79.95 483.693 79.95C482.756 79.95 482.068 80.4625 481.468 81.0375L481.518 79.675V77.0375H480.093V87ZM489.482 87.1625C490.307 87.1625 491.045 86.75 491.67 86.2125H491.707L491.832 87H493.007V82.8625C493.007 81.0375 492.22 79.95 490.507 79.95C489.407 79.95 488.445 80.4 487.732 80.85L488.27 81.825C488.857 81.45 489.532 81.125 490.257 81.125C491.27 81.125 491.557 81.825 491.57 82.625C488.707 82.9375 487.457 83.7 487.457 85.175C487.457 86.3875 488.295 87.1625 489.482 87.1625ZM489.92 86.025C489.307 86.025 488.845 85.75 488.845 85.075C488.845 84.3 489.532 83.7875 491.57 83.5375V85.225C491.007 85.7375 490.52 86.025 489.92 86.025ZM495.047 87H496.472V82.7125C496.909 81.625 497.584 81.2375 498.147 81.2375C498.422 81.2375 498.597 81.275 498.834 81.35L499.097 80.1C498.884 80 498.659 79.95 498.322 79.95C497.584 79.95 496.859 80.475 496.372 81.3625H496.334L496.222 80.125H495.047V87ZM502.89 87.1625C503.79 87.1625 504.577 86.8625 505.215 86.4375L504.715 85.525C504.215 85.85 503.69 86.0375 503.077 86.0375C501.89 86.0375 501.065 85.25 500.952 83.9375H505.415C505.452 83.775 505.477 83.4875 505.477 83.2125C505.477 81.2625 504.502 79.95 502.677 79.95C501.065 79.95 499.54 81.3375 499.54 83.575C499.54 85.8375 501.027 87.1625 502.89 87.1625ZM500.94 82.95C501.077 81.7375 501.84 81.075 502.702 81.075C503.702 81.075 504.24 81.7625 504.24 82.95H500.94ZM511.528 87.1625C512.353 87.1625 513.09 86.75 513.715 86.2125H513.753L513.878 87H515.053V82.8625C515.053 81.0375 514.265 79.95 512.553 79.95C511.453 79.95 510.49 80.4 509.778 80.85L510.315 81.825C510.903 81.45 511.578 81.125 512.303 81.125C513.315 81.125 513.603 81.825 513.615 82.625C510.753 82.9375 509.503 83.7 509.503 85.175C509.503 86.3875 510.34 87.1625 511.528 87.1625ZM511.965 86.025C511.353 86.025 510.89 85.75 510.89 85.075C510.89 84.3 511.578 83.7875 513.615 83.5375V85.225C513.053 85.7375 512.565 86.025 511.965 86.025ZM521.013 87H522.675L523.513 83.6125C523.688 82.9625 523.813 82.325 523.95 81.6125H524.013C524.163 82.325 524.288 82.95 524.45 83.6L525.325 87H527.05L528.825 80.125H527.475L526.588 83.85C526.438 84.5125 526.325 85.15 526.188 85.8H526.138C525.975 85.15 525.838 84.5125 525.675 83.85L524.688 80.125H523.35L522.388 83.85C522.225 84.5 522.088 85.15 521.938 85.8H521.888C521.763 85.15 521.65 84.5125 521.513 83.85L520.6 80.125H519.15L521.013 87ZM530.252 87H531.677V82.7125C532.115 81.625 532.79 81.2375 533.352 81.2375C533.627 81.2375 533.802 81.275 534.04 81.35L534.302 80.1C534.09 80 533.865 79.95 533.527 79.95C532.79 79.95 532.065 80.475 531.577 81.3625H531.54L531.427 80.125H530.252V87ZM537.983 87.1625C539.683 87.1625 541.22 85.85 541.22 83.575C541.22 81.275 539.683 79.95 537.983 79.95C536.283 79.95 534.745 81.275 534.745 83.575C534.745 85.85 536.283 87.1625 537.983 87.1625ZM537.983 85.9875C536.908 85.9875 536.233 85.025 536.233 83.575C536.233 82.1125 536.908 81.1375 537.983 81.1375C539.07 81.1375 539.745 82.1125 539.745 83.575C539.745 85.025 539.07 85.9875 537.983 85.9875ZM542.911 87H544.336V82.125C544.948 81.5125 545.386 81.1875 546.023 81.1875C546.836 81.1875 547.186 81.6625 547.186 82.85V87H548.623V82.675C548.623 80.925 547.973 79.95 546.511 79.95C545.573 79.95 544.873 80.4625 544.236 81.075H544.198L544.086 80.125H542.911V87ZM553.061 90.0875C555.261 90.0875 556.661 89.0125 556.661 87.6875C556.661 86.5125 555.811 86.0125 554.186 86.0125H552.924C552.049 86.0125 551.774 85.75 551.774 85.3375C551.774 85.0125 551.924 84.8125 552.149 84.6125C552.449 84.75 552.799 84.825 553.111 84.825C554.549 84.825 555.686 83.9625 555.686 82.4625C555.686 81.9375 555.499 81.475 555.236 81.2H556.549V80.125H554.111C553.849 80.025 553.499 79.95 553.111 79.95C551.686 79.95 550.449 80.8625 550.449 82.425C550.449 83.2375 550.886 83.8875 551.349 84.25V84.3C550.974 84.575 550.586 85.0375 550.586 85.575C550.586 86.1375 550.861 86.5 551.211 86.7125V86.775C550.574 87.1625 550.211 87.7 550.211 88.275C550.211 89.475 551.411 90.0875 553.061 90.0875ZM553.111 83.9C552.399 83.9 551.811 83.3375 551.811 82.425C551.811 81.4875 552.386 80.9625 553.111 80.9625C553.836 80.9625 554.411 81.5 554.411 82.425C554.411 83.3375 553.824 83.9 553.111 83.9ZM553.274 89.1375C552.136 89.1375 551.436 88.7375 551.436 88.0625C551.436 87.7125 551.611 87.3625 552.024 87.0625C552.311 87.125 552.624 87.1625 552.949 87.1625H553.986C554.824 87.1625 555.274 87.3375 555.274 87.9125C555.274 88.55 554.474 89.1375 553.274 89.1375ZM560.983 80.125L560.045 80.2V81.275H560.983V87H562.42V81.275H563.808V80.125H562.42V79.25C562.42 78.4125 562.72 78.0125 563.333 78.0125C563.57 78.0125 563.833 78.075 564.083 78.1875L564.37 77.1125C564.058 76.975 563.62 76.875 563.158 76.875C561.62 76.875 560.983 77.85 560.983 79.2625V80.125ZM566.033 78.8375C566.558 78.8375 566.958 78.4875 566.958 77.9875C566.958 77.475 566.558 77.1375 566.033 77.1375C565.508 77.1375 565.108 77.475 565.108 77.9875C565.108 78.4875 565.508 78.8375 566.033 78.8375ZM565.308 87H566.745V80.125H565.308V87ZM570.337 87.1625C570.687 87.1625 570.937 87.1125 571.112 87.05L570.924 85.9625C570.799 85.9875 570.749 85.9875 570.687 85.9875C570.512 85.9875 570.337 85.85 570.337 85.4625V77.0375H568.912V85.3875C568.912 86.5 569.299 87.1625 570.337 87.1625ZM575.497 87.1625C576.397 87.1625 577.185 86.8625 577.822 86.4375L577.322 85.525C576.822 85.85 576.297 86.0375 575.685 86.0375C574.497 86.0375 573.672 85.25 573.56 83.9375H578.022C578.06 83.775 578.085 83.4875 578.085 83.2125C578.085 81.2625 577.11 79.95 575.285 79.95C573.672 79.95 572.147 81.3375 572.147 83.575C572.147 85.8375 573.635 87.1625 575.497 87.1625ZM573.547 82.95C573.685 81.7375 574.447 81.075 575.31 81.075C576.31 81.075 576.847 81.7625 576.847 82.95H573.547ZM475.713 103.163C476.538 103.163 477.275 102.75 477.9 102.212H477.938L478.063 103H479.238V98.8625C479.238 97.0375 478.45 95.95 476.738 95.95C475.638 95.95 474.675 96.4 473.963 96.85L474.5 97.825C475.088 97.45 475.763 97.125 476.488 97.125C477.5 97.125 477.788 97.825 477.8 98.625C474.938 98.9375 473.688 99.7 473.688 101.175C473.688 102.387 474.525 103.163 475.713 103.163ZM476.15 102.025C475.538 102.025 475.075 101.75 475.075 101.075C475.075 100.3 475.763 99.7875 477.8 99.5375V101.225C477.238 101.737 476.75 102.025 476.15 102.025ZM483.382 103.163C483.882 103.163 484.345 103.038 484.732 102.912L484.47 101.85C484.27 101.937 483.97 102.012 483.732 102.012C483.02 102.012 482.732 101.587 482.732 100.762V97.275H484.52V96.125H482.732V94.225H481.52L481.357 96.125L480.295 96.2V97.275H481.295V100.75C481.295 102.2 481.832 103.163 483.382 103.163ZM490.259 103.163C490.609 103.163 490.859 103.113 491.034 103.05L490.846 101.962C490.721 101.987 490.671 101.987 490.609 101.987C490.434 101.987 490.259 101.85 490.259 101.462V93.0375H488.834V101.387C488.834 102.5 489.221 103.163 490.259 103.163ZM495.419 103.163C496.319 103.163 497.107 102.862 497.744 102.437L497.244 101.525C496.744 101.85 496.219 102.037 495.607 102.037C494.419 102.037 493.594 101.25 493.482 99.9375H497.944C497.982 99.775 498.007 99.4875 498.007 99.2125C498.007 97.2625 497.032 95.95 495.207 95.95C493.594 95.95 492.069 97.3375 492.069 99.575C492.069 101.837 493.557 103.163 495.419 103.163ZM493.469 98.95C493.607 97.7375 494.369 97.075 495.232 97.075C496.232 97.075 496.769 97.7625 496.769 98.95H493.469ZM501.067 103.163C501.892 103.163 502.629 102.75 503.254 102.212H503.292L503.417 103H504.592V98.8625C504.592 97.0375 503.804 95.95 502.092 95.95C500.992 95.95 500.029 96.4 499.317 96.85L499.854 97.825C500.442 97.45 501.117 97.125 501.842 97.125C502.854 97.125 503.142 97.825 503.154 98.625C500.292 98.9375 499.042 99.7 499.042 101.175C499.042 102.387 499.879 103.163 501.067 103.163ZM501.504 102.025C500.892 102.025 500.429 101.75 500.429 101.075C500.429 100.3 501.117 99.7875 503.154 99.5375V101.225C502.592 101.737 502.104 102.025 501.504 102.025ZM508.494 103.163C510.194 103.163 511.106 102.225 511.106 101.075C511.106 99.775 510.044 99.35 509.081 98.9875C508.331 98.7125 507.619 98.4875 507.619 97.9C507.619 97.425 507.969 97.05 508.719 97.05C509.294 97.05 509.781 97.3 510.256 97.65L510.931 96.7625C510.369 96.325 509.619 95.95 508.694 95.95C507.181 95.95 506.256 96.8125 506.256 97.9625C506.256 99.125 507.306 99.6125 508.219 99.9625C508.969 100.25 509.744 100.525 509.744 101.15C509.744 101.675 509.356 102.075 508.531 102.075C507.794 102.075 507.194 101.775 506.581 101.287L505.906 102.212C506.569 102.762 507.544 103.163 508.494 103.163ZM514.669 103.163C515.169 103.163 515.632 103.038 516.019 102.912L515.757 101.85C515.557 101.937 515.257 102.012 515.019 102.012C514.307 102.012 514.019 101.587 514.019 100.762V97.275H515.807V96.125H514.019V94.225H512.807L512.644 96.125L511.582 96.2V97.275H512.582V100.75C512.582 102.2 513.119 103.163 514.669 103.163ZM522.87 103.163C524.57 103.163 526.108 101.85 526.108 99.575C526.108 97.275 524.57 95.95 522.87 95.95C521.17 95.95 519.633 97.275 519.633 99.575C519.633 101.85 521.17 103.163 522.87 103.163ZM522.87 101.987C521.795 101.987 521.12 101.025 521.12 99.575C521.12 98.1125 521.795 97.1375 522.87 97.1375C523.958 97.1375 524.633 98.1125 524.633 99.575C524.633 101.025 523.958 101.987 522.87 101.987ZM527.798 103H529.223V98.125C529.836 97.5125 530.273 97.1875 530.911 97.1875C531.723 97.1875 532.073 97.6625 532.073 98.85V103H533.511V98.675C533.511 96.925 532.861 95.95 531.398 95.95C530.461 95.95 529.761 96.4625 529.123 97.075H529.086L528.973 96.125H527.798V103ZM538.399 103.163C539.186 103.163 539.999 102.875 540.624 102.312L540.036 101.362C539.624 101.712 539.111 101.987 538.536 101.987C537.386 101.987 536.599 101.025 536.599 99.575C536.599 98.1125 537.424 97.1375 538.574 97.1375C539.049 97.1375 539.436 97.3375 539.811 97.675L540.524 96.7375C540.024 96.3 539.386 95.95 538.511 95.95C536.699 95.95 535.111 97.275 535.111 99.575C535.111 101.85 536.536 103.163 538.399 103.163ZM544.589 103.163C545.489 103.163 546.277 102.862 546.914 102.437L546.414 101.525C545.914 101.85 545.389 102.037 544.777 102.037C543.589 102.037 542.764 101.25 542.652 99.9375H547.114C547.152 99.775 547.177 99.4875 547.177 99.2125C547.177 97.2625 546.202 95.95 544.377 95.95C542.764 95.95 541.239 97.3375 541.239 99.575C541.239 101.837 542.727 103.163 544.589 103.163ZM542.639 98.95C542.777 97.7375 543.539 97.075 544.402 97.075C545.402 97.075 545.939 97.7625 545.939 98.95H542.639ZM553.227 103.163C554.052 103.163 554.79 102.75 555.415 102.212H555.452L555.577 103H556.752V98.8625C556.752 97.0375 555.965 95.95 554.252 95.95C553.152 95.95 552.19 96.4 551.477 96.85L552.015 97.825C552.602 97.45 553.277 97.125 554.002 97.125C555.015 97.125 555.302 97.825 555.315 98.625C552.452 98.9375 551.202 99.7 551.202 101.175C551.202 102.387 552.04 103.163 553.227 103.163ZM553.665 102.025C553.052 102.025 552.59 101.75 552.59 101.075C552.59 100.3 553.277 99.7875 555.315 99.5375V101.225C554.752 101.737 554.265 102.025 553.665 102.025ZM561.6 103H563.025V98.125C563.6 97.5 564.112 97.1875 564.575 97.1875C565.362 97.1875 565.725 97.6625 565.725 98.85V103H567.162V98.125C567.737 97.5 568.237 97.1875 568.712 97.1875C569.487 97.1875 569.862 97.6625 569.862 98.85V103H571.3V98.675C571.3 96.925 570.625 95.95 569.187 95.95C568.325 95.95 567.625 96.4875 566.95 97.2125C566.65 96.425 566.075 95.95 565.05 95.95C564.2 95.95 563.512 96.4625 562.925 97.0875H562.887L562.775 96.125H561.6V103ZM576.129 103.163C577.829 103.163 579.367 101.85 579.367 99.575C579.367 97.275 577.829 95.95 576.129 95.95C574.429 95.95 572.892 97.275 572.892 99.575C572.892 101.85 574.429 103.163 576.129 103.163ZM576.129 101.987C575.054 101.987 574.379 101.025 574.379 99.575C574.379 98.1125 575.054 97.1375 576.129 97.1375C577.217 97.1375 577.892 98.1125 577.892 99.575C577.892 101.025 577.217 101.987 576.129 101.987ZM581.058 103H582.483V98.125C583.095 97.5125 583.533 97.1875 584.17 97.1875C584.983 97.1875 585.333 97.6625 585.333 98.85V103H586.77V98.675C586.77 96.925 586.12 95.95 584.658 95.95C583.72 95.95 583.02 96.4625 582.383 97.075H582.345L582.233 96.125H581.058V103ZM591.171 103.163C591.671 103.163 592.133 103.038 592.521 102.912L592.258 101.85C592.058 101.937 591.758 102.012 591.521 102.012C590.808 102.012 590.521 101.587 590.521 100.762V97.275H592.308V96.125H590.521V94.225H589.308L589.146 96.125L588.083 96.2V97.275H589.083V100.75C589.083 102.2 589.621 103.163 591.171 103.163ZM593.814 103H595.239V98.125C595.852 97.5125 596.289 97.1875 596.927 97.1875C597.739 97.1875 598.089 97.6625 598.089 98.85V103H599.527V98.675C599.527 96.925 598.877 95.95 597.414 95.95C596.477 95.95 595.789 96.4625 595.189 97.0375L595.239 95.675V93.0375H593.814V103Z" fill="black"/>
<g clip-path="url(#clip2_26_88)">
<path d="M732 44.989C732 42.7758 732.732 41.0663 734.088 38.9393L740.016 29.6129H745.832L740.608 37.339C740.817 37.2647 741.037 37.2266 741.259 37.2264C745.748 37.2264 749.446 40.3374 749.446 44.9558C749.446 49.6339 745.551 52.9669 740.721 52.9669C735.891 52.9669 732 49.8592 732 44.989ZM744.449 45.0155C744.449 42.9713 743.009 41.3711 740.721 41.3711C738.433 41.3711 736.99 42.9713 736.99 45.0155C736.99 47.0596 738.43 48.6599 740.715 48.6599C742.999 48.6599 744.449 47.0596 744.449 45.0155ZM768.722 41.0132C768.722 48.9912 764.941 52.9967 759.914 52.9967C754.887 52.9967 751.106 48.9912 751.106 41.0132C751.106 33.0353 754.89 29 759.914 29C764.938 29 768.722 33.0022 768.722 41.0132ZM755.962 41.0132C755.962 46.1916 757.656 48.5439 759.914 48.5439C762.172 48.5439 763.869 46.1916 763.869 41.0132C763.869 35.8349 762.175 33.4495 759.914 33.4495C757.653 33.4495 755.966 35.8018 755.966 41.0132H755.962Z" fill="#00AAFF"/>
<path d="M776.598 41.6195C776.598 43.3026 775.342 44.5318 773.525 44.5318C771.708 44.5318 770.465 43.3026 770.465 41.6195C770.465 39.9365 771.718 38.6941 773.525 38.6941C775.332 38.6941 776.598 39.9199 776.598 41.6195ZM774.15 51.2805H772.062L780.319 38.9194H782.417L774.15 51.2805ZM772.346 41.6195C772.341 41.7745 772.368 41.9288 772.425 42.073C772.483 42.2172 772.569 42.3482 772.68 42.4578C772.79 42.5674 772.923 42.6534 773.068 42.7104C773.213 42.7674 773.369 42.7941 773.525 42.7891C773.681 42.7942 773.837 42.7674 773.982 42.7104C774.127 42.6533 774.259 42.5673 774.369 42.4576C774.479 42.348 774.566 42.217 774.623 42.0728C774.68 41.9286 774.706 41.7743 774.701 41.6195C774.706 41.465 774.679 41.3111 774.622 41.1673C774.564 41.0235 774.478 40.893 774.368 40.7836C774.258 40.6743 774.126 40.5886 773.981 40.5318C773.836 40.475 773.681 40.4483 773.525 40.4533C773.369 40.4483 773.214 40.475 773.069 40.5318C772.924 40.5885 772.792 40.6742 772.681 40.7835C772.571 40.8927 772.484 41.0233 772.426 41.1671C772.369 41.3109 772.341 41.4649 772.346 41.6195V41.6195ZM784 48.577C784 50.2634 782.744 51.4892 780.924 51.4892C779.103 51.4892 777.867 50.2634 777.867 48.577C777.867 46.8907 779.12 45.6516 780.924 45.6516C782.727 45.6516 784 46.884 784 48.5803V48.577ZM779.748 48.577C779.742 48.7318 779.769 48.8861 779.826 49.0303C779.883 49.1744 779.969 49.3054 780.08 49.4151C780.19 49.5248 780.322 49.6108 780.467 49.6678C780.612 49.7249 780.768 49.7516 780.924 49.7465C781.08 49.7516 781.235 49.7248 781.381 49.6679C781.526 49.6109 781.658 49.5249 781.769 49.4153C781.879 49.3057 781.966 49.1747 782.023 49.0305C782.081 48.8863 782.108 48.732 782.103 48.577C782.107 48.4223 782.08 48.2684 782.022 48.1246C781.965 47.9808 781.878 47.8502 781.767 47.741C781.657 47.6317 781.525 47.546 781.38 47.4892C781.235 47.4325 781.08 47.4058 780.924 47.4108C780.767 47.4053 780.611 47.4317 780.466 47.4885C780.32 47.5453 780.188 47.6313 780.077 47.741C779.967 47.8507 779.88 47.9819 779.823 48.1263C779.766 48.2707 779.739 48.4253 779.744 48.5803L779.748 48.577Z" fill="#00AAFF"/>
</g>
<circle opacity="0.1" cx="699" cy="41" r="17" fill="#397AF6"/>
<path fill-rule="evenodd" clip-rule="evenodd" d="M697.509 24.054L698.12 41.5764L692.378 56.6514C686.279 54.0694 682 48.0292 682 40.9896C682 32.103 688.819 24.809 697.509 24.054Z" fill="#31A8F6"/>
<path d="M686.1 87.1625C687.05 87.1625 687.725 86.6875 688.35 85.9625H688.388L688.5 87H689.675V80.125H688.238V84.9C687.663 85.625 687.225 85.925 686.588 85.925C685.775 85.925 685.438 85.4625 685.438 84.275V80.125H684V84.45C684 86.2 684.638 87.1625 686.1 87.1625ZM693.701 87.1625C695.401 87.1625 696.314 86.225 696.314 85.075C696.314 83.775 695.251 83.35 694.289 82.9875C693.539 82.7125 692.826 82.4875 692.826 81.9C692.826 81.425 693.176 81.05 693.926 81.05C694.501 81.05 694.989 81.3 695.464 81.65L696.139 80.7625C695.576 80.325 694.826 79.95 693.901 79.95C692.389 79.95 691.464 80.8125 691.464 81.9625C691.464 83.125 692.514 83.6125 693.426 83.9625C694.176 84.25 694.951 84.525 694.951 85.15C694.951 85.675 694.564 86.075 693.739 86.075C693.001 86.075 692.401 85.775 691.789 85.2875L691.114 86.2125C691.776 86.7625 692.751 87.1625 693.701 87.1625ZM700.707 87.1625C701.607 87.1625 702.395 86.8625 703.032 86.4375L702.532 85.525C702.032 85.85 701.507 86.0375 700.895 86.0375C699.707 86.0375 698.882 85.25 698.77 83.9375H703.232C703.27 83.775 703.295 83.4875 703.295 83.2125C703.295 81.2625 702.32 79.95 700.495 79.95C698.882 79.95 697.357 81.3375 697.357 83.575C697.357 85.8375 698.845 87.1625 700.707 87.1625ZM698.757 82.95C698.895 81.7375 699.657 81.075 700.52 81.075C701.52 81.075 702.057 81.7625 702.057 82.95H698.757ZM707.72 87H709.145V82.125C709.72 81.5 710.233 81.1875 710.695 81.1875C711.483 81.1875 711.845 81.6625 711.845 82.85V87H713.283V82.125C713.858 81.5 714.358 81.1875 714.833 81.1875C715.608 81.1875 715.983 81.6625 715.983 82.85V87H717.42V82.675C717.42 80.925 716.745 79.95 715.308 79.95C714.445 79.95 713.745 80.4875 713.07 81.2125C712.77 80.425 712.195 79.95 711.17 79.95C710.32 79.95 709.633 80.4625 709.045 81.0875H709.008L708.895 80.125H707.72V87ZM722.363 87.1625C723.263 87.1625 724.05 86.8625 724.688 86.4375L724.188 85.525C723.688 85.85 723.163 86.0375 722.55 86.0375C721.363 86.0375 720.538 85.25 720.425 83.9375H724.888C724.925 83.775 724.95 83.4875 724.95 83.2125C724.95 81.2625 723.975 79.95 722.15 79.95C720.538 79.95 719.013 81.3375 719.013 83.575C719.013 85.8375 720.5 87.1625 722.363 87.1625ZM720.413 82.95C720.55 81.7375 721.313 81.075 722.175 81.075C723.175 81.075 723.713 81.7625 723.713 82.95H720.413ZM728.43 87.1625C730.13 87.1625 731.043 86.225 731.043 85.075C731.043 83.775 729.98 83.35 729.018 82.9875C728.268 82.7125 727.555 82.4875 727.555 81.9C727.555 81.425 727.905 81.05 728.655 81.05C729.23 81.05 729.718 81.3 730.193 81.65L730.868 80.7625C730.305 80.325 729.555 79.95 728.63 79.95C727.118 79.95 726.193 80.8125 726.193 81.9625C726.193 83.125 727.243 83.6125 728.155 83.9625C728.905 84.25 729.68 84.525 729.68 85.15C729.68 85.675 729.293 86.075 728.468 86.075C727.73 86.075 727.13 85.775 726.518 85.2875L725.843 86.2125C726.505 86.7625 727.48 87.1625 728.43 87.1625ZM734.436 87.1625C736.136 87.1625 737.049 86.225 737.049 85.075C737.049 83.775 735.986 83.35 735.024 82.9875C734.274 82.7125 733.561 82.4875 733.561 81.9C733.561 81.425 733.911 81.05 734.661 81.05C735.236 81.05 735.724 81.3 736.199 81.65L736.874 80.7625C736.311 80.325 735.561 79.95 734.636 79.95C733.124 79.95 732.199 80.8125 732.199 81.9625C732.199 83.125 733.249 83.6125 734.161 83.9625C734.911 84.25 735.686 84.525 735.686 85.15C735.686 85.675 735.299 86.075 734.474 86.075C733.736 86.075 733.136 85.775 732.524 85.2875L731.849 86.2125C732.511 86.7625 733.486 87.1625 734.436 87.1625ZM741.442 87.1625C742.342 87.1625 743.13 86.8625 743.767 86.4375L743.267 85.525C742.767 85.85 742.242 86.0375 741.63 86.0375C740.442 86.0375 739.617 85.25 739.505 83.9375H743.967C744.005 83.775 744.03 83.4875 744.03 83.2125C744.03 81.2625 743.055 79.95 741.23 79.95C739.617 79.95 738.092 81.3375 738.092 83.575C738.092 85.8375 739.58 87.1625 741.442 87.1625ZM739.492 82.95C739.63 81.7375 740.392 81.075 741.255 81.075C742.255 81.075 742.792 81.7625 742.792 82.95H739.492ZM745.648 87H747.073V82.125C747.685 81.5125 748.123 81.1875 748.76 81.1875C749.573 81.1875 749.923 81.6625 749.923 82.85V87H751.36V82.675C751.36 80.925 750.71 79.95 749.248 79.95C748.31 79.95 747.61 80.4625 746.973 81.075H746.935L746.823 80.125H745.648V87ZM755.798 90.0875C757.998 90.0875 759.398 89.0125 759.398 87.6875C759.398 86.5125 758.548 86.0125 756.923 86.0125H755.66C754.785 86.0125 754.51 85.75 754.51 85.3375C754.51 85.0125 754.66 84.8125 754.885 84.6125C755.185 84.75 755.535 84.825 755.848 84.825C757.285 84.825 758.423 83.9625 758.423 82.4625C758.423 81.9375 758.235 81.475 757.973 81.2H759.285V80.125H756.848C756.585 80.025 756.235 79.95 755.848 79.95C754.423 79.95 753.185 80.8625 753.185 82.425C753.185 83.2375 753.623 83.8875 754.085 84.25V84.3C753.71 84.575 753.323 85.0375 753.323 85.575C753.323 86.1375 753.598 86.5 753.948 86.7125V86.775C753.31 87.1625 752.948 87.7 752.948 88.275C752.948 89.475 754.148 90.0875 755.798 90.0875ZM755.848 83.9C755.135 83.9 754.548 83.3375 754.548 82.425C754.548 81.4875 755.123 80.9625 755.848 80.9625C756.573 80.9625 757.148 81.5 757.148 82.425C757.148 83.3375 756.56 83.9 755.848 83.9ZM756.01 89.1375C754.873 89.1375 754.173 88.7375 754.173 88.0625C754.173 87.7125 754.348 87.3625 754.76 87.0625C755.048 87.125 755.36 87.1625 755.685 87.1625H756.723C757.56 87.1625 758.01 87.3375 758.01 87.9125C758.01 88.55 757.21 89.1375 756.01 89.1375ZM763.329 87.1625C764.229 87.1625 765.017 86.8625 765.654 86.4375L765.154 85.525C764.654 85.85 764.129 86.0375 763.517 86.0375C762.329 86.0375 761.504 85.25 761.392 83.9375H765.854C765.892 83.775 765.917 83.4875 765.917 83.2125C765.917 81.2625 764.942 79.95 763.117 79.95C761.504 79.95 759.979 81.3375 759.979 83.575C759.979 85.8375 761.467 87.1625 763.329 87.1625ZM761.379 82.95C761.517 81.7375 762.279 81.075 763.142 81.075C764.142 81.075 764.679 81.7625 764.679 82.95H761.379ZM767.535 87H768.96V82.7125C769.397 81.625 770.072 81.2375 770.635 81.2375C770.91 81.2375 771.085 81.275 771.322 81.35L771.585 80.1C771.372 80 771.147 79.95 770.81 79.95C770.072 79.95 769.347 80.475 768.86 81.3625H768.822L768.71 80.125H767.535V87ZM774.439 87.1625C776.139 87.1625 777.051 86.225 777.051 85.075C777.051 83.775 775.989 83.35 775.026 82.9875C774.276 82.7125 773.564 82.4875 773.564 81.9C773.564 81.425 773.914 81.05 774.664 81.05C775.239 81.05 775.726 81.3 776.201 81.65L776.876 80.7625C776.314 80.325 775.564 79.95 774.639 79.95C773.126 79.95 772.201 80.8125 772.201 81.9625C772.201 83.125 773.251 83.6125 774.164 83.9625C774.914 84.25 775.689 84.525 775.689 85.15C775.689 85.675 775.301 86.075 774.476 86.075C773.739 86.075 773.139 85.775 772.526 85.2875L771.851 86.2125C772.514 86.7625 773.489 87.1625 774.439 87.1625ZM781.39 87H782.815V82.125C783.427 81.5125 783.865 81.1875 784.502 81.1875C785.315 81.1875 785.665 81.6625 785.665 82.85V87H787.102V82.675C787.102 80.925 786.452 79.95 784.99 79.95C784.052 79.95 783.352 80.4625 782.715 81.075H782.677L782.565 80.125H781.39V87ZM791.94 87.1625C793.64 87.1625 795.178 85.85 795.178 83.575C795.178 81.275 793.64 79.95 791.94 79.95C790.24 79.95 788.703 81.275 788.703 83.575C788.703 85.85 790.24 87.1625 791.94 87.1625ZM791.94 85.9875C790.865 85.9875 790.19 85.025 790.19 83.575C790.19 82.1125 790.865 81.1375 791.94 81.1375C793.028 81.1375 793.703 82.1125 793.703 83.575C793.703 85.025 793.028 85.9875 791.94 85.9875ZM798.888 87.1625C799.388 87.1625 799.85 87.0375 800.238 86.9125L799.975 85.85C799.775 85.9375 799.475 86.0125 799.238 86.0125C798.525 86.0125 798.238 85.5875 798.238 84.7625V81.275H800.025V80.125H798.238V78.225H797.025L796.863 80.125L795.8 80.2V81.275H796.8V84.75C796.8 86.2 797.338 87.1625 798.888 87.1625ZM805.964 87.1625C806.789 87.1625 807.526 86.75 808.151 86.2125H808.189L808.314 87H809.489V82.8625C809.489 81.0375 808.701 79.95 806.989 79.95C805.889 79.95 804.926 80.4 804.214 80.85L804.751 81.825C805.339 81.45 806.014 81.125 806.739 81.125C807.751 81.125 808.039 81.825 808.051 82.625C805.189 82.9375 803.939 83.7 803.939 85.175C803.939 86.3875 804.776 87.1625 805.964 87.1625ZM806.401 86.025C805.789 86.025 805.326 85.75 805.326 85.075C805.326 84.3 806.014 83.7875 808.051 83.5375V85.225C807.489 85.7375 807.001 86.025 806.401 86.025ZM812.641 87H814.304L815.141 83.6125C815.316 82.9625 815.441 82.325 815.579 81.6125H815.641C815.791 82.325 815.916 82.95 816.079 83.6L816.954 87H818.679L820.454 80.125H819.104L818.216 83.85C818.066 84.5125 817.954 85.15 817.816 85.8H817.766C817.604 85.15 817.466 84.5125 817.304 83.85L816.316 80.125H814.979L814.016 83.85C813.854 84.5 813.716 85.15 813.566 85.8H813.516C813.391 85.15 813.279 84.5125 813.141 83.85L812.229 80.125H810.779L812.641 87ZM823.371 87.1625C824.196 87.1625 824.934 86.75 825.559 86.2125H825.596L825.721 87H826.896V82.8625C826.896 81.0375 826.109 79.95 824.396 79.95C823.296 79.95 822.334 80.4 821.621 80.85L822.159 81.825C822.746 81.45 823.421 81.125 824.146 81.125C825.159 81.125 825.446 81.825 825.459 82.625C822.596 82.9375 821.346 83.7 821.346 85.175C821.346 86.3875 822.184 87.1625 823.371 87.1625ZM823.809 86.025C823.196 86.025 822.734 85.75 822.734 85.075C822.734 84.3 823.421 83.7875 825.459 83.5375V85.225C824.896 85.7375 824.409 86.025 823.809 86.025ZM828.936 87H830.361V82.7125C830.799 81.625 831.474 81.2375 832.036 81.2375C832.311 81.2375 832.486 81.275 832.724 81.35L832.986 80.1C832.774 80 832.549 79.95 832.211 79.95C831.474 79.95 830.749 80.475 830.261 81.3625H830.224L830.111 80.125H828.936V87ZM836.779 87.1625C837.679 87.1625 838.467 86.8625 839.104 86.4375L838.604 85.525C838.104 85.85 837.579 86.0375 836.967 86.0375C835.779 86.0375 834.954 85.25 834.842 83.9375H839.304C839.342 83.775 839.367 83.4875 839.367 83.2125C839.367 81.2625 838.392 79.95 836.567 79.95C834.954 79.95 833.429 81.3375 833.429 83.575C833.429 85.8375 834.917 87.1625 836.779 87.1625ZM834.829 82.95C834.967 81.7375 835.729 81.075 836.592 81.075C837.592 81.075 838.129 81.7625 838.129 82.95H834.829ZM846.542 87.1625C848.242 87.1625 849.78 85.85 849.78 83.575C849.78 81.275 848.242 79.95 846.542 79.95C844.842 79.95 843.305 81.275 843.305 83.575C843.305 85.85 844.842 87.1625 846.542 87.1625ZM846.542 85.9875C845.467 85.9875 844.792 85.025 844.792 83.575C844.792 82.1125 845.467 81.1375 846.542 81.1375C847.63 81.1375 848.305 82.1125 848.305 83.575C848.305 85.025 847.63 85.9875 846.542 85.9875ZM855.059 77.1125C854.746 76.975 854.309 76.875 853.846 76.875C852.309 76.875 851.671 77.85 851.671 79.2625V80.125L850.734 80.2V81.275H851.671V87H853.109V81.275H854.496V80.125H853.109V79.25C853.109 78.4125 853.409 78.0125 854.021 78.0125C854.259 78.0125 854.521 78.075 854.771 78.1875L855.059 77.1125ZM684.088 103H685.513V96.125H684.088V103ZM684.8 94.8375C685.325 94.8375 685.725 94.4875 685.725 93.9875C685.725 93.475 685.325 93.1375 684.8 93.1375C684.275 93.1375 683.888 93.475 683.888 93.9875C683.888 94.4875 684.275 94.8375 684.8 94.8375ZM689.989 103.163C690.489 103.163 690.951 103.038 691.339 102.912L691.076 101.85C690.876 101.937 690.576 102.012 690.339 102.012C689.626 102.012 689.339 101.587 689.339 100.762V97.275H691.126V96.125H689.339V94.225H688.126L687.964 96.125L686.901 96.2V97.275H687.901V100.75C687.901 102.2 688.439 103.163 689.989 103.163ZM694.361 103.163C696.061 103.163 696.973 102.225 696.973 101.075C696.973 99.775 695.911 99.35 694.948 98.9875C694.198 98.7125 693.486 98.4875 693.486 97.9C693.486 97.425 693.836 97.05 694.586 97.05C695.161 97.05 695.648 97.3 696.123 97.65L696.798 96.7625C696.236 96.325 695.486 95.95 694.561 95.95C693.048 95.95 692.123 96.8125 692.123 97.9625C692.123 99.125 693.173 99.6125 694.086 99.9625C694.836 100.25 695.611 100.525 695.611 101.15C695.611 101.675 695.223 102.075 694.398 102.075C693.661 102.075 693.061 101.775 692.448 101.287L691.773 102.212C692.436 102.762 693.411 103.163 694.361 103.163ZM703.174 103.163C704.874 103.163 705.787 102.225 705.787 101.075C705.787 99.775 704.724 99.35 703.762 98.9875C703.012 98.7125 702.299 98.4875 702.299 97.9C702.299 97.425 702.649 97.05 703.399 97.05C703.974 97.05 704.462 97.3 704.937 97.65L705.612 96.7625C705.049 96.325 704.299 95.95 703.374 95.95C701.862 95.95 700.937 96.8125 700.937 97.9625C700.937 99.125 701.987 99.6125 702.899 99.9625C703.649 100.25 704.424 100.525 704.424 101.15C704.424 101.675 704.037 102.075 703.212 102.075C702.474 102.075 701.874 101.775 701.262 101.287L700.587 102.212C701.249 102.762 702.224 103.163 703.174 103.163ZM710.18 103.163C711.08 103.163 711.867 102.862 712.505 102.437L712.005 101.525C711.505 101.85 710.98 102.037 710.367 102.037C709.18 102.037 708.355 101.25 708.242 99.9375H712.705C712.742 99.775 712.767 99.4875 712.767 99.2125C712.767 97.2625 711.792 95.95 709.967 95.95C708.355 95.95 706.83 97.3375 706.83 99.575C706.83 101.837 708.317 103.163 710.18 103.163ZM708.23 98.95C708.367 97.7375 709.13 97.075 709.992 97.075C710.992 97.075 711.53 97.7625 711.53 98.95H708.23ZM717.185 103.163C717.973 103.163 718.785 102.875 719.41 102.312L718.823 101.362C718.41 101.712 717.898 101.987 717.323 101.987C716.173 101.987 715.385 101.025 715.385 99.575C715.385 98.1125 716.21 97.1375 717.36 97.1375C717.835 97.1375 718.223 97.3375 718.598 97.675L719.31 96.7375C718.81 96.3 718.173 95.95 717.298 95.95C715.485 95.95 713.898 97.275 713.898 99.575C713.898 101.85 715.323 103.163 717.185 103.163ZM722.855 103.163C723.805 103.163 724.48 102.687 725.105 101.962H725.143L725.255 103H726.43V96.125H724.993V100.9C724.418 101.625 723.98 101.925 723.343 101.925C722.53 101.925 722.193 101.462 722.193 100.275V96.125H720.755V100.45C720.755 102.2 721.393 103.163 722.855 103.163ZM728.594 103H730.019V98.7125C730.457 97.625 731.132 97.2375 731.694 97.2375C731.969 97.2375 732.144 97.275 732.382 97.35L732.644 96.1C732.432 96 732.207 95.95 731.869 95.95C731.132 95.95 730.407 96.475 729.919 97.3625H729.882L729.769 96.125H728.594V103ZM733.709 103H735.134V96.125H733.709V103ZM734.422 94.8375C734.947 94.8375 735.347 94.4875 735.347 93.9875C735.347 93.475 734.947 93.1375 734.422 93.1375C733.897 93.1375 733.509 93.475 733.509 93.9875C733.509 94.4875 733.897 94.8375 734.422 94.8375ZM739.61 103.163C740.11 103.163 740.573 103.038 740.96 102.912L740.698 101.85C740.498 101.937 740.198 102.012 739.96 102.012C739.248 102.012 738.96 101.587 738.96 100.762V97.275H740.748V96.125H738.96V94.225H737.748L737.585 96.125L736.523 96.2V97.275H737.523V100.75C737.523 102.2 738.06 103.163 739.61 103.163ZM747.804 96.125H746.404L745.304 99.6625L744.767 101.6H744.704C744.492 100.962 744.279 100.275 744.079 99.6625L742.804 96.125H741.329L744.054 102.95L743.917 103.425C743.667 104.163 743.229 104.713 742.479 104.713C742.304 104.713 742.104 104.65 741.979 104.613L741.704 105.738C741.942 105.825 742.217 105.875 742.567 105.875C744.017 105.875 744.742 104.888 745.279 103.412L747.804 96.125ZM751.861 105.788H753.286V103.563L753.248 102.387C753.836 102.887 754.448 103.163 755.061 103.163C756.611 103.163 758.023 101.812 758.023 99.45C758.023 97.3375 757.048 95.95 755.298 95.95C754.536 95.95 753.786 96.375 753.186 96.875H753.148L753.036 96.125H751.861V105.788ZM754.786 101.975C754.361 101.975 753.823 101.812 753.286 101.35V97.9875C753.873 97.425 754.386 97.15 754.923 97.15C756.073 97.15 756.536 98.0375 756.536 99.475C756.536 101.087 755.786 101.975 754.786 101.975ZM762.484 103.163C764.184 103.163 765.722 101.85 765.722 99.575C765.722 97.275 764.184 95.95 762.484 95.95C760.784 95.95 759.247 97.275 759.247 99.575C759.247 101.85 760.784 103.163 762.484 103.163ZM762.484 101.987C761.409 101.987 760.734 101.025 760.734 99.575C760.734 98.1125 761.409 97.1375 762.484 97.1375C763.572 97.1375 764.247 98.1125 764.247 99.575C764.247 101.025 763.572 101.987 762.484 101.987ZM768.838 103.163C769.188 103.163 769.438 103.113 769.613 103.05L769.425 101.962C769.3 101.987 769.25 101.987 769.188 101.987C769.013 101.987 768.838 101.85 768.838 101.462V93.0375H767.413V101.387C767.413 102.5 767.8 103.163 768.838 103.163ZM771.136 103H772.561V96.125H771.136V103ZM771.848 94.8375C772.373 94.8375 772.773 94.4875 772.773 93.9875C772.773 93.475 772.373 93.1375 771.848 93.1375C771.323 93.1375 770.936 93.475 770.936 93.9875C770.936 94.4875 771.323 94.8375 771.848 94.8375ZM777.525 103.163C778.312 103.163 779.125 102.875 779.75 102.312L779.162 101.362C778.75 101.712 778.237 101.987 777.662 101.987C776.512 101.987 775.725 101.025 775.725 99.575C775.725 98.1125 776.55 97.1375 777.7 97.1375C778.175 97.1375 778.562 97.3375 778.937 97.675L779.65 96.7375C779.15 96.3 778.512 95.95 777.637 95.95C775.825 95.95 774.237 97.275 774.237 99.575C774.237 101.85 775.662 103.163 777.525 103.163ZM786.805 96.125H785.405L784.305 99.6625L783.768 101.6H783.705C783.493 100.962 783.28 100.275 783.08 99.6625L781.805 96.125H780.33L783.055 102.95L782.918 103.425C782.668 104.163 782.23 104.713 781.48 104.713C781.305 104.713 781.105 104.65 780.98 104.613L780.705 105.738C780.943 105.825 781.218 105.875 781.568 105.875C783.018 105.875 783.743 104.888 784.28 103.412L786.805 96.125Z" fill="black"/>
<defs>
<linearGradient id="paint0_linear_26_88" x1="1647" y1="130" x2="1636.66" y2="265.352" gradientUnits="userSpaceOnUse">
<stop stop-color="#F3F7FF"/>
<stop offset="1" stop-color="#DEEEFE"/>
</linearGradient>
<clipPath id="clip0_26_88">
<rect width="51" height="24" fill="white" transform="translate(291 29)"/>
</clipPath>
<clipPath id="clip1_26_88">
<rect width="52" height="23" fill="white" transform="translate(523 29)"/>
</clipPath>
<clipPath id="clip2_26_88">
<rect width="52" height="24" fill="white" transform="translate(732 29)"/>
</clipPath>
</defs>
</svg>
