<svg width="118" height="82" viewBox="0 0 118 82" fill="none" xmlns="http://www.w3.org/2000/svg">
<g clip-path="url(#clip0_755_22983)">
<path d="M58.7697 20.7015C58.5635 20.7766 58.3458 20.8149 58.1264 20.8147C53.6703 20.8147 50 17.689 50 13.0488C50 8.15229 53.8958 5 58.6603 5C63.4247 5 67.3172 8.12566 67.3172 13.0189C67.3172 15.2424 66.5911 16.9601 65.245 19.0971L59.3598 28.4674H53.5874L58.7697 20.7015ZM62.3571 12.9922C62.3571 10.9384 60.9281 9.33065 58.6603 9.33065C56.3924 9.33065 54.9601 10.9351 54.9601 12.9922C54.9601 15.0494 56.3891 16.6538 58.6603 16.6538C60.9314 16.6538 62.3571 15.046 62.3571 12.9922ZM69.1109 20.9811C69.1109 18.7609 69.8403 17.0433 71.1831 14.9062L77.0683 5.53592H82.8407L77.6584 13.3018C77.8646 13.2268 78.0823 13.1885 78.3017 13.1886C82.7578 13.1886 86.4281 16.311 86.4281 20.9545C86.4281 25.6513 82.5621 29 77.7712 29C72.9802 29 69.1109 25.8777 69.1109 20.9811ZM81.468 21.0111C81.468 18.9573 80.039 17.3495 77.7712 17.3495C75.5033 17.3495 74.0843 18.9573 74.0843 21.0111C74.0843 23.0649 75.5133 24.6727 77.7844 24.6727C80.0556 24.6727 81.468 23.0649 81.468 21.0111Z" fill="#00AAFF"/>
<path d="M93.646 17.5858C93.646 19.2768 92.4026 20.5118 90.5957 20.5118C88.7887 20.5118 87.5586 19.2768 87.5586 17.5858C87.5586 15.8948 88.8052 14.6432 90.5957 14.6432C92.3861 14.6432 93.646 15.8915 93.646 17.5858ZM91.2256 27.3057H89.1467L97.3428 14.8862H99.4217L91.2256 27.3057ZM89.4352 17.5858C89.4301 17.7411 89.4568 17.8957 89.5137 18.0402C89.5706 18.1846 89.6563 18.3158 89.7657 18.4257C89.8751 18.5355 90.0058 18.6216 90.1497 18.6787C90.2936 18.7358 90.4476 18.7626 90.6023 18.7575C90.7571 18.7626 90.9112 18.7358 91.0553 18.6787C91.1994 18.6217 91.3303 18.5356 91.4399 18.4258C91.5496 18.3161 91.6357 18.1849 91.6929 18.0404C91.7501 17.8959 91.7773 17.7412 91.7727 17.5858C91.7777 17.4301 91.7509 17.2751 91.6939 17.1302C91.6369 16.9853 91.5509 16.8538 91.4412 16.7436C91.3315 16.6335 91.2004 16.5471 91.0561 16.4899C90.9118 16.4326 90.7574 16.4057 90.6023 16.4108C90.4474 16.4057 90.293 16.4326 90.1489 16.4899C90.0048 16.5472 89.8739 16.6336 89.7645 16.7438C89.655 16.854 89.5693 16.9856 89.5127 17.1304C89.456 17.2753 89.4297 17.4303 89.4352 17.5858ZM101 24.5761C101 26.2671 99.7566 27.5021 97.9496 27.5021C96.1426 27.5021 94.9125 26.2671 94.9125 24.5761C94.9125 22.8851 96.1592 21.6502 97.9562 21.6502C99.7532 21.6502 101 22.8851 101 24.5928V24.5761ZM96.7792 24.5761C96.7722 24.7336 96.7978 24.8909 96.8544 25.038C96.9109 25.185 96.9972 25.3188 97.1078 25.4307C97.2183 25.5427 97.3508 25.6304 97.4968 25.6884C97.6429 25.7464 97.7993 25.7735 97.9562 25.7678C98.1104 25.7715 98.2638 25.7436 98.4069 25.6857C98.5501 25.6278 98.6799 25.5412 98.7885 25.4312C98.8972 25.3212 98.9823 25.1901 99.0387 25.046C99.0951 24.9018 99.1217 24.7476 99.1166 24.5928C99.1217 24.4379 99.0951 24.2837 99.0387 24.1395C98.9823 23.9954 98.8972 23.8643 98.7885 23.7543C98.6799 23.6443 98.5501 23.5577 98.4069 23.4998C98.2638 23.442 98.1104 23.414 97.9562 23.4177C97.8007 23.4122 97.6457 23.4387 97.5009 23.4958C97.356 23.5528 97.2244 23.639 97.114 23.7491C97.0037 23.8593 96.9171 23.991 96.8595 24.1361C96.8019 24.2812 96.7745 24.4366 96.7792 24.5928V24.5761Z" fill="#00AAFF"/>
</g>
<circle opacity="0.1" cx="17" cy="17" r="17" fill="#397AF6"/>
<path fill-rule="evenodd" clip-rule="evenodd" d="M16.4138 0V16.9902L28.7242 4.67978C31.9745 7.7762 34 12.1466 34 16.9901C34 26.3789 26.3888 33.9901 17 33.9901C7.61116 33.9901 0 26.3789 0 16.9901C0 7.79745 7.29637 0.308973 16.4138 0Z" fill="#31A8F6"/>
<path d="M4.5875 53.6125H3.3V55.4625C3.3 57.55 2.2 59.6875 0.4375 60.55L1.225 61.5875C2.5125 60.925 3.4625 59.6125 3.95 58.05C4.4375 59.525 5.3375 60.75 6.55 61.375L7.3375 60.35C5.6375 59.5125 4.5875 57.475 4.5875 55.4625V53.6125ZM11.1375 57.15H9.375V52.675H8.0875V63.9625H9.375V58.2125H11.1375V57.15ZM13.924 53.975H12.6365V61.1125H13.3865C14.5615 61.1125 15.8615 61.05 17.374 60.775L17.2365 59.675C16.0115 59.9 14.924 59.9875 13.924 60.0125V53.975ZM20.5115 52.675V57.1625H19.174V52.9H17.9615V63.4H19.174V58.225H20.5115V63.9625H21.7365V52.675H20.5115ZM26.173 60.35C25.398 60.35 24.923 59.3375 24.923 57.55C24.923 55.7625 25.398 54.7625 26.173 54.7625C26.948 54.7625 27.423 55.7625 27.423 57.55C27.423 59.3375 26.948 60.35 26.173 60.35ZM29.7855 56.95H28.573C28.4355 54.8375 27.523 53.55 26.173 53.55C24.7105 53.55 23.748 55.075 23.748 57.55C23.748 60.025 24.7105 61.5625 26.173 61.5625C27.548 61.5625 28.473 60.2125 28.5855 58.0125H29.7855V63.425H30.9855V52.8875H29.7855V56.95ZM32.048 52.675V63.95H33.273V52.675H32.048ZM39.2221 53.5875H37.9221V55.45C37.9221 57.5625 36.8221 59.7375 35.0596 60.6L35.8721 61.625C37.1596 60.9625 38.0846 59.65 38.5846 58.05C39.0721 59.5625 39.9846 60.8 41.2596 61.4375L42.0221 60.4C40.2971 59.6 39.2221 57.55 39.2221 55.45V53.5875ZM43.2096 52.65V56.3625H40.7971V57.4125H43.2096V63.975H44.5096V52.65H43.2096ZM50.0412 53.8V54.85H53.8662C53.8287 55.475 53.7162 56.0625 53.5662 56.625L49.4537 56.875L49.6412 57.975L53.1662 57.65C52.5037 59.0375 51.3162 60.2125 49.4037 61.1875L50.1037 62.1875C54.1162 60.1375 55.1537 57.1625 55.1537 53.8H50.0412ZM57.4912 52.675V57.1125H55.1162V58.175H57.4912V63.975H58.7912V52.675H57.4912ZM68.6152 56.6875H63.4527V54.275H68.6152V56.6875ZM69.8902 53.25H62.1777V57.7125H69.8902V53.25ZM71.1652 59.1H60.9277V60.1375H63.4277V64.025H64.7152V60.1375H67.4152V64.025H68.6902V60.1375H71.1652V59.1ZM74.3768 53.775H73.1018V61.1125H74.0643C75.8143 61.1125 77.6393 60.975 79.5768 60.575L79.4393 59.5C77.6643 59.8625 75.9768 60 74.3768 60.0125V53.775ZM80.4768 52.675V63.9625H81.7643V52.675H80.4768ZM90.0133 57.0375H88.5133C88.7883 56.075 88.8883 55.05 88.8883 53.975H84.5258V55.0125H87.6508C87.6133 55.5625 87.5258 56.075 87.4008 56.5875L83.9758 56.7875L84.1508 57.9L87.0508 57.5875C86.5133 58.825 85.5383 59.875 83.9508 60.775L84.6758 61.675C86.4383 60.675 87.5008 59.45 88.1258 58.0875H90.0133V63.4125H91.2133V52.9375H90.0133V57.0375ZM92.3508 52.6625V63.9625H93.5883V52.6625H92.3508ZM103.425 52.6625V63.9875H104.725V52.6625H103.425ZM98.7123 53.5C97.0373 53.5 95.8123 55.05 95.8123 57.475C95.8123 59.925 97.0373 61.4625 98.7123 61.4625C100.4 61.4625 101.625 59.925 101.625 57.475C101.625 55.05 100.4 53.5 98.7123 53.5ZM98.7123 54.6625C99.6998 54.6625 100.387 55.725 100.387 57.475C100.387 59.25 99.6998 60.3125 98.7123 60.3125C97.7373 60.3125 97.0498 59.25 97.0498 57.475C97.0498 55.725 97.7373 54.6625 98.7123 54.6625ZM114.999 61.075H116.286V52.675H114.999V54.25H112.899V55.3H114.999V56.5125H112.899V57.55H114.999V61.075ZM113.586 58.5125C111.899 57.8625 110.961 56.3 110.961 54.7V53.3H109.649V54.7C109.649 56.4 108.674 58.0125 106.911 58.6625L107.611 59.675C108.899 59.1625 109.836 58.1625 110.324 56.8875C110.799 58.0625 111.686 59.025 112.874 59.525L113.586 58.5125ZM110.236 62.7V60.2625H108.936V63.75H116.549V62.7H110.236ZM6.375 77.55V74.8875H9.7125V73.85H3.175V70.5625H9.6125V69.525H1.8875V74.8875H5.0875V77.55H0.6375V78.6125H10.8625V77.55H6.375ZM22.349 74.1875H20.774C21.0615 72.5875 21.0615 71.4125 21.0615 70.35V69.3625H13.3615V70.4H19.799C19.799 71.4375 19.799 72.6125 19.474 74.1875H12.1365V75.25H16.549V79.9625H17.849V75.25H22.349V74.1875ZM29.373 77.575V75.65H32.898V74.6125H26.1355V73.0375H32.648V69.4625H24.848V70.5H31.373V72.0125H24.873V75.65H28.0855V77.575H23.6355V78.6375H33.8605V77.575H29.373ZM41.4672 76H39.5172V70.9375H41.4672V76ZM44.0922 72.8625H42.6672V69.9125H38.3172V77.025H42.6672V73.9125H44.0922V79.425H45.2922V68.8875H44.0922V72.8625ZM46.3547 68.675V79.95H47.5797V68.675H46.3547ZM58.7412 68.6875H57.4537V76.9375H58.7412V68.6875ZM56.2787 74.1375C54.5412 73.5375 53.5537 72.025 53.5537 70.425V69.3H52.2412V70.425C52.2412 72.075 51.2537 73.6875 49.4787 74.3375L50.1412 75.375C51.4662 74.875 52.4037 73.85 52.9162 72.5875C53.4037 73.7625 54.3287 74.6875 55.6162 75.1625L56.2787 74.1375ZM52.6662 78.7V76.1625H51.3662V79.75H59.0662V78.7H52.6662ZM64.9902 70.85H67.4402V69.8H61.2527V70.85H63.6902V71.7625C63.6902 73.8 62.5527 75.95 60.8152 76.7875L61.5777 77.8125C62.8902 77.1375 63.8652 75.7625 64.3652 74.1625C64.8652 75.675 65.8277 76.95 67.1152 77.575L67.8652 76.5625C66.1152 75.75 64.9902 73.675 64.9902 71.7625V70.85ZM69.0152 68.6625V72.7H66.7902V73.7625H69.0152V79.975H70.3027V68.6625H69.0152ZM80.1018 70.6H73.7393V73.1375H81.5768V72.2375H75.0018V71.4375H81.3768V68.95H73.7143V69.8375H80.1018V70.6ZM74.9143 78.0875H81.4143V75.5625H73.6143V76.45H80.1393V77.25H73.6393V79.8375H81.7518V78.95H74.9143V78.0875ZM72.4268 73.85V74.8H82.6643V73.85H72.4268ZM90.6959 69.6125H89.4084V71.4625C89.4084 73.55 88.3084 75.6875 86.5459 76.55L87.3334 77.5875C88.6209 76.925 89.5709 75.6125 90.0584 74.05C90.5459 75.525 91.4459 76.75 92.6584 77.375L93.4459 76.35C91.7459 75.5125 90.6959 73.475 90.6959 71.4625V69.6125ZM97.2459 73.15H95.4834V68.675H94.1959V79.9625H95.4834V74.2125H97.2459V73.15ZM103.32 78.975C101.67 78.975 100.745 78.625 100.745 77.9375C100.745 77.2625 101.67 76.9 103.32 76.9C104.97 76.9 105.907 77.2625 105.907 77.9375C105.907 78.625 104.97 78.975 103.32 78.975ZM103.32 75.9125C100.895 75.9125 99.4324 76.65 99.4324 77.9375C99.4324 79.2375 100.895 79.9625 103.32 79.9625C105.757 79.9625 107.207 79.2375 107.207 77.9375C107.207 76.65 105.757 75.9125 103.32 75.9125ZM101.945 73.0125C102.357 73.075 102.845 73.1125 103.345 73.1125C103.845 73.1125 104.307 73.075 104.72 73.0125V74.1625H101.945V73.0125ZM103.345 69.8625C105.02 69.8625 106.032 70.2625 106.032 70.9875C106.032 71.7125 105.02 72.125 103.345 72.125C101.657 72.125 100.645 71.7125 100.645 70.9875C100.645 70.2625 101.657 69.8625 103.345 69.8625ZM106.007 74.1625V72.675C106.87 72.3 107.37 71.725 107.37 70.9875C107.37 69.6625 105.807 68.8625 103.345 68.8625C100.87 68.8625 99.3199 69.6625 99.3199 70.9875C99.3199 71.725 99.8074 72.3 100.657 72.6625V74.1625H98.2324V75.1875H108.445V74.1625H106.007Z" fill="black"/>
<defs>
<clipPath id="clip0_755_22983">
<rect width="51" height="24" fill="white" transform="translate(50 5)"/>
</clipPath>
</defs>
</svg>
