<svg width="31" height="35" viewBox="0 0 31 35" fill="none" xmlns="http://www.w3.org/2000/svg">
<g clip-path="url(#clip0_755_23412)">
<path d="M19.7748 0.170959C20.4734 0.394205 21.168 0.627437 21.8685 0.838724C24.591 1.66128 27.3155 2.4805 30.042 3.29641C30.1495 3.32831 30.253 3.36619 30.3645 3.40406V31.3437L27.3215 32.2626C24.863 33.0028 22.4038 33.7389 19.944 34.4711C19.7571 34.5274 19.5578 34.5274 19.3709 34.4711C13.2611 32.4406 7.15402 30.4042 1.04957 28.3618C0.925881 28.3275 0.81463 28.2583 0.729135 28.1624L19.6197 30.355V6.62516L6.76328 8.76992V9.18054C6.76328 14.6554 6.76328 20.1302 6.76328 25.6051C6.78111 25.7163 6.75427 25.8301 6.68865 25.9216C6.62302 26.0131 6.52395 26.0749 6.41301 26.0934C4.49252 26.7193 2.57802 27.3631 0.663493 28.001L0.31721 28.1086V27.7199C0.31721 21.1701 0.31721 14.6208 0.31721 8.07228C0.30146 7.95534 0.330114 7.83676 0.397574 7.74002C0.465033 7.64329 0.566337 7.57548 0.681374 7.55004C6.89329 5.14084 13.1026 2.72434 19.3092 0.300527C19.4007 0.264648 19.4863 0.214811 19.5758 0.170959H19.7748Z" fill="#2195F2"/>
</g>
<defs>
<clipPath id="clip0_755_23412">
<rect width="30.0493" height="34.342" fill="white" transform="translate(0.316406 0.171021)"/>
</clipPath>
</defs>
</svg>
