<svg width="102" height="82" viewBox="0 0 102 82" fill="none" xmlns="http://www.w3.org/2000/svg">
<g clip-path="url(#clip0_755_22993)">
<path d="M60.3758 22.9599H50V18.816L58.93 5.01406H65.2535V18.8291H68.2726V22.9599H65.2535V27.4822H60.3758V22.9599ZM60.3758 18.8225V10.1629L54.9313 18.816L60.3758 18.8225ZM69.7688 20.9173H74.8443C75.0423 22.7119 76.0923 23.7593 78.2191 23.7593C80.3459 23.7593 81.5938 22.242 81.5938 20.1701C81.5938 18.0982 80.3459 16.6136 78.1352 16.6136C77.5052 16.5854 76.8778 16.7091 76.3089 16.9738C75.74 17.2386 75.2473 17.636 74.8745 18.1308H70.1848L70.8557 5.00427H85.4584V9.27864H75.5454L75.2871 13.4975C76.4145 12.8598 77.7001 12.5348 79.0041 12.5578C83.5395 12.5578 86.6023 15.3998 86.6023 20.1701C86.6023 24.9404 82.9726 28.001 78.2157 28.001C73.1905 28.001 70.1277 25.2439 69.7587 20.9108L69.7688 20.9173Z" fill="#00AAFF"/>
<path d="M94.5627 16.8214C94.5627 18.479 93.3047 19.6895 91.4765 19.6895C89.6482 19.6895 88.407 18.479 88.407 16.8214C88.407 15.1639 89.665 13.9403 91.4765 13.9403C93.288 13.9403 94.5627 15.1476 94.5627 16.8214ZM92.1172 26.336H90.0038L98.2964 14.1491H100.4L92.1172 26.336ZM90.3057 16.8214C90.3001 16.9739 90.3268 17.1258 90.3841 17.2678C90.4414 17.4098 90.5281 17.5388 90.6389 17.6468C90.7496 17.7548 90.882 17.8396 91.0278 17.8957C91.1736 17.9519 91.3298 17.9782 91.4865 17.9732C91.6434 17.9782 91.7997 17.9518 91.9457 17.8957C92.0917 17.8396 92.2243 17.7549 92.3353 17.647C92.4463 17.539 92.5333 17.41 92.591 17.268C92.6487 17.126 92.6758 16.974 92.6707 16.8214C92.6754 16.6691 92.6479 16.5174 92.59 16.3758C92.5321 16.2342 92.445 16.1056 92.334 15.998C92.2231 15.8904 92.0906 15.806 91.9449 15.7501C91.7991 15.6942 91.6431 15.6679 91.4865 15.6729C91.3292 15.6665 91.1723 15.6918 91.0255 15.7471C90.8787 15.8025 90.7453 15.8867 90.6335 15.9945C90.5217 16.1023 90.434 16.2314 90.3759 16.3737C90.3177 16.516 90.2904 16.6684 90.2956 16.8214H90.3057ZM102.007 23.6735C102.007 25.331 100.749 26.5415 98.9204 26.5415C97.0921 26.5415 95.8475 25.331 95.8475 23.6735C95.8475 22.0159 97.1089 20.7891 98.9204 20.7891C100.732 20.7891 101.997 22.0061 101.997 23.68L102.007 23.6735ZM97.7362 23.6735C97.7315 23.8258 97.759 23.9774 97.8169 24.1191C97.8748 24.2607 97.9619 24.3893 98.0729 24.4969C98.1838 24.6045 98.3163 24.6888 98.462 24.7448C98.6078 24.8007 98.7638 24.827 98.9204 24.822C99.0768 24.827 99.2327 24.8007 99.3782 24.7447C99.5238 24.6888 99.6561 24.6044 99.7668 24.4967C99.8775 24.389 99.9642 24.2604 100.022 24.1188C100.079 23.9772 100.106 23.8256 100.101 23.6735C100.107 23.521 100.08 23.3691 100.023 23.2271C99.9655 23.0851 99.8788 22.9561 99.768 22.8481C99.6573 22.74 99.5249 22.6553 99.3791 22.5992C99.2332 22.543 99.0771 22.5166 98.9204 22.5217C98.7621 22.5152 98.6041 22.5408 98.4564 22.5967C98.3088 22.6526 98.1746 22.7376 98.0624 22.8464C97.9502 22.9552 97.8624 23.0855 97.8045 23.229C97.7467 23.3724 97.72 23.526 97.7261 23.68L97.7362 23.6735Z" fill="#00AAFF"/>
</g>
<circle opacity="0.1" cx="17" cy="17" r="17" fill="#397AF6"/>
<path fill-rule="evenodd" clip-rule="evenodd" d="M16.4138 0V17.2834L26.3252 31.2065C23.6477 32.9663 20.4434 33.9901 17 33.9901C7.61116 33.9901 0 26.3789 0 16.9901C0 7.79745 7.29637 0.308973 16.4138 0Z" fill="#31A8F6"/>
<path d="M7.3125 53.9625H4.625V52.6625H3.3375V53.9625H0.65V54.9875H7.3125V53.9625ZM2.475 57.65C2.475 56.9375 3.0875 56.5125 3.975 56.5125C4.875 56.5125 5.4875 56.9375 5.4875 57.65C5.4875 58.3625 4.875 58.7875 3.975 58.7875C3.0875 58.7875 2.475 58.3625 2.475 57.65ZM6.7125 57.65C6.7125 56.375 5.6 55.5125 3.975 55.5125C2.3625 55.5125 1.2375 56.375 1.2375 57.65C1.2375 58.9375 2.3625 59.7875 3.975 59.7875C5.6 59.7875 6.7125 58.9375 6.7125 57.65ZM3.6 60.4875H2.3V63.75H9.9V62.7H3.6V60.4875ZM9.45 56.275V52.675H8.1625V61.1375H9.45V57.3375H11.05V56.275H9.45ZM18.599 56.575C17.199 56.8625 15.9365 56.9375 13.8615 56.95V54.325H17.599V53.3H12.574V57.9875H13.4865C15.849 57.9875 17.2115 57.9125 18.749 57.5875L18.599 56.575ZM14.949 61.7875H20.949V58.8375H13.6615V59.875H19.674V60.8125H13.6865V63.825H21.324V62.8H14.949V61.7875ZM20.949 54.9375V52.675H19.6615V58.325H20.949V56H22.549V54.9375H20.949ZM26.173 60.35C25.398 60.35 24.923 59.3375 24.923 57.55C24.923 55.7625 25.398 54.7625 26.173 54.7625C26.948 54.7625 27.423 55.7625 27.423 57.55C27.423 59.3375 26.948 60.35 26.173 60.35ZM29.7855 56.95H28.573C28.4355 54.8375 27.523 53.55 26.173 53.55C24.7105 53.55 23.748 55.075 23.748 57.55C23.748 60.025 24.7105 61.5625 26.173 61.5625C27.548 61.5625 28.473 60.2125 28.5855 58.0125H29.7855V63.425H30.9855V52.8875H29.7855V56.95ZM32.048 52.675V63.95H33.273V52.675H32.048ZM44.6172 53.9625H41.9297V52.6625H40.6422V53.9625H37.9547V54.9875H44.6172V53.9625ZM39.7797 57.65C39.7797 56.9375 40.3922 56.5125 41.2797 56.5125C42.1797 56.5125 42.7922 56.9375 42.7922 57.65C42.7922 58.3625 42.1797 58.7875 41.2797 58.7875C40.3922 58.7875 39.7797 58.3625 39.7797 57.65ZM44.0172 57.65C44.0172 56.375 42.9047 55.5125 41.2797 55.5125C39.6672 55.5125 38.5422 56.375 38.5422 57.65C38.5422 58.9375 39.6672 59.7875 41.2797 59.7875C42.9047 59.7875 44.0172 58.9375 44.0172 57.65ZM40.9047 60.4875H39.6047V63.75H47.2047V62.7H40.9047V60.4875ZM46.7547 56.275V52.675H45.4672V61.1375H46.7547V57.3375H48.3547V56.275H46.7547ZM56.6988 58.1375H54.0363V56.3H56.6988V58.1375ZM57.9613 56.825H60.3113V61.0375H61.5988V52.675H60.3113V55.775H57.9613V53.425H56.6988V55.2875H54.0363V53.425H52.7613V59.1875H57.9613V56.825ZM55.5488 62.7V60.2125H54.2488V63.75H61.8613V62.7H55.5488ZM74.543 52.6625V63.9875H75.843V52.6625H74.543ZM69.8305 53.5C68.1555 53.5 66.9305 55.05 66.9305 57.475C66.9305 59.925 68.1555 61.4625 69.8305 61.4625C71.518 61.4625 72.743 59.925 72.743 57.475C72.743 55.05 71.518 53.5 69.8305 53.5ZM69.8305 54.6625C70.818 54.6625 71.5055 55.725 71.5055 57.475C71.5055 59.25 70.818 60.3125 69.8305 60.3125C68.8555 60.3125 68.168 59.25 68.168 57.475C68.168 55.725 68.8555 54.6625 69.8305 54.6625ZM84.617 57.8375C82.942 57.2875 81.9795 55.9125 81.9795 54.4625V53.25H80.6795V54.3625C80.6795 55.9875 79.717 57.525 77.942 58.1375L78.6295 59.1625C79.9295 58.6875 80.8545 57.7125 81.3545 56.4875C81.8295 57.55 82.7295 58.4125 83.942 58.85L84.617 57.8375ZM83.2295 62.95C81.6545 62.95 80.742 62.5625 80.742 61.8375C80.742 61.1375 81.6545 60.7375 83.2295 60.7375C84.8045 60.7375 85.717 61.1375 85.717 61.8375C85.717 62.5625 84.8045 62.95 83.2295 62.95ZM83.2295 59.725C80.9045 59.725 79.467 60.5125 79.467 61.8375C79.467 63.175 80.9045 63.9625 83.2295 63.9625C85.567 63.9625 86.992 63.175 86.992 61.8375C86.992 60.5125 85.567 59.725 83.2295 59.725ZM86.867 55.4625V52.6625H85.5795V59.45H86.867V56.525H88.467V55.4625H86.867ZM8.275 72.225H3.1875V70.2H8.275V72.225ZM9.5375 69.175H1.925V73.25H9.5375V69.175ZM3.1625 76.4875H1.875V79.75H9.725V78.7H3.1625V76.4875ZM0.625 74.3625V75.4H5.2V77.5125H6.4875V75.4H10.8625V74.3625H0.625ZM16.224 69.5875H14.924V71.45C14.924 73.5625 13.824 75.7375 12.0615 76.6L12.874 77.625C14.1615 76.9625 15.0865 75.65 15.5865 74.05C16.074 75.5625 16.9865 76.8 18.2615 77.4375L19.024 76.4C17.299 75.6 16.224 73.55 16.224 71.45V69.5875ZM20.2115 68.65V72.3625H17.799V73.4125H20.2115V79.975H21.5115V68.65H20.2115ZM31.298 70.6H24.9355V73.1375H32.773V72.2375H26.198V71.4375H32.573V68.95H24.9105V69.8375H31.298V70.6ZM26.1105 78.0875H32.6105V75.5625H24.8105V76.45H31.3355V77.25H24.8355V79.8375H32.948V78.95H26.1105V78.0875ZM23.623 73.85V74.8H33.8605V73.85H23.623ZM44.5922 73.325C42.8672 72.825 41.8922 71.6125 41.8922 70.35V70.2875H44.2422V69.25H38.1797V70.2875H40.5797V70.35C40.5797 71.75 39.5672 73.075 37.7922 73.6L38.4047 74.6C39.7797 74.1875 40.7547 73.3125 41.2672 72.175C41.7672 73.175 42.7047 73.95 43.9922 74.325L44.5922 73.325ZM40.7547 77.825H46.7547V74.9625H39.4672V75.95H45.4797V76.9H39.4922V79.8625H47.1297V78.8625H40.7547V77.825ZM46.7547 71.025V68.675H45.4672V74.475H46.7547V72.0875H48.3422V71.025H46.7547ZM55.1912 75.825H53.8787V76.1125C53.8787 77.4625 52.4162 78.6 50.1787 78.9125L50.6537 79.9C52.4412 79.6375 53.8412 78.8625 54.5412 77.7375C55.2287 78.8625 56.6287 79.6375 58.4287 79.9L58.9037 78.9125C56.6412 78.6 55.1912 77.4625 55.1912 76.1125V75.825ZM51.9912 70.15H57.0787V71.9625H51.9912V70.15ZM55.1787 74.1625V73H58.3412V69.125H50.7287V73H53.8912V74.1625H49.4287V75.1875H59.6537V74.1625H55.1787ZM72.3729 73.1625C72.6854 72 72.6854 71.0625 72.6854 70.1625V69.2125H64.9354V70.25H71.4104C71.4104 71.1 71.3979 71.9125 71.1104 73.025L72.3729 73.1625ZM68.8104 78.975C67.1354 78.975 66.1104 78.5625 66.1104 77.85C66.1104 77.15 67.1354 76.7375 68.8104 76.7375C70.4729 76.7375 71.4729 77.15 71.4729 77.85C71.4729 78.5625 70.4729 78.975 68.8104 78.975ZM68.8104 75.75C66.3729 75.75 64.8354 76.55 64.8354 77.85C64.8354 79.1625 66.3729 79.9625 68.8104 79.9625C71.2104 79.9625 72.7604 79.1625 72.7604 77.85C72.7604 76.55 71.2104 75.75 68.8104 75.75ZM69.0604 73.8375V71.7625H67.7604V73.8375H63.7604V74.875H73.9354V73.8375H69.0604ZM80.3344 70.125C81.9469 70.125 83.0094 70.675 83.0094 71.575C83.0094 72.4875 81.9469 73.0375 80.3344 73.0375C78.7094 73.0375 77.6469 72.4875 77.6469 71.575C77.6469 70.675 78.7094 70.125 80.3344 70.125ZM80.3344 74.075C82.7094 74.075 84.3344 73.1 84.3344 71.575C84.3344 70.0625 82.7094 69.0875 80.3344 69.0875C77.9469 69.0875 76.3219 70.0625 76.3219 71.575C76.3219 73.1 77.9469 74.075 80.3344 74.075ZM85.4719 75.0375H75.2344V76.1H77.7344V79.9625H79.0469V76.1H81.6219V79.9625H82.9344V76.1H85.4844L85.4719 75.0375Z" fill="black"/>
<defs>
<clipPath id="clip0_755_22993">
<rect width="52" height="23" fill="white" transform="translate(50 5)"/>
</clipPath>
</defs>
</svg>
