<svg width="477" height="92" viewBox="0 0 477 92" fill="none" xmlns="http://www.w3.org/2000/svg">
<path d="M9.78804 77.818H8.5199V83.4692H9.78804V77.818ZM2.06842 80.699C2.06842 79.8125 2.78251 79.2339 3.74285 79.2339C4.7155 79.2339 5.4419 79.8125 5.4419 80.699C5.4419 81.5854 4.7155 82.1641 3.74285 82.1641C2.78251 82.1641 2.06842 81.5854 2.06842 80.699ZM6.6731 80.699C6.6731 79.2339 5.42959 78.1873 3.74285 78.1873C2.06842 78.1873 0.837216 79.2339 0.837216 80.699C0.837216 82.1641 2.06842 83.1983 3.74285 83.1983C5.42959 83.1983 6.6731 82.1641 6.6731 80.699ZM3.76747 87.8153V86.8304H9.78804V83.974H2.49934V84.9712H8.53222V85.8946H2.52396V88.8126H10.1205V87.8153H3.76747ZM16.3247 83.186H13.6038V81.3515H16.3247V83.186ZM17.5806 78.6306H16.3247V80.3666H13.6038V78.6306H12.3357V84.2079H17.5806V78.6306ZM14.8719 85.2175H13.5915V88.7387H21.0772V87.7045H14.8719V85.2175ZM20.6339 81.1053V77.8426H19.3658V86.0055H20.6339V82.1518H22.2099V81.1053H20.6339ZM33.5681 81.3269H28.5571V79.3324H33.5681V81.3269ZM34.8116 78.3228H27.3136V82.3365H34.8116V78.3228ZM28.5325 85.5253H27.2643V88.7387H34.9963V87.7045H28.5325V85.5253ZM26.0331 83.4322V84.4541H30.5393V86.5349H31.8075V84.4541H36.1167V83.4322H26.0331ZM41.3976 78.7291H40.1171V80.5636C40.1171 82.6443 39.0337 84.7866 37.2977 85.6361L38.0979 86.6457C39.3661 85.9931 40.2772 84.7004 40.7696 83.1244C41.2498 84.6142 42.1486 85.8331 43.4044 86.461L44.1554 85.4391C42.4564 84.6511 41.3976 82.632 41.3976 80.5636V78.7291ZM45.3251 77.8057V81.4623H42.9489V82.4965H45.3251V88.9603H46.6055V77.8057H45.3251Z" fill="black"/>
<path d="M139.19 88H140.619V84.565H141.985C143.955 84.565 145.396 83.6539 145.396 81.6716C145.396 79.6278 143.955 78.9384 141.936 78.9384H139.19V88ZM140.619 83.4199V80.0834H141.801C143.241 80.0834 143.992 80.4774 143.992 81.6716C143.992 82.8659 143.303 83.4199 141.85 83.4199H140.619ZM147.162 88H148.59V84.565H149.957C151.927 84.565 153.367 83.6539 153.367 81.6716C153.367 79.6278 151.927 78.9384 149.907 78.9384H147.162V88ZM148.59 83.4199V80.0834H149.772C151.213 80.0834 151.964 80.4774 151.964 81.6716C151.964 82.8659 151.274 83.4199 149.821 83.4199H148.59ZM156.68 88H158.108V80.1326H160.78V78.9384H154.02V80.1326H156.68V88ZM168.437 79.9849H170.789V78.9384H164.744V79.9849H167.169V81.056C167.169 82.9028 166.036 85.0082 164.337 85.8208L165.064 86.8304C166.344 86.2024 167.329 84.8728 167.822 83.3214C168.326 84.725 169.274 85.9562 170.518 86.5472L171.22 85.5499C169.533 84.7496 168.437 82.7797 168.437 81.056V79.9849ZM174.889 82.2134H173.153V77.8303H171.884V88.948H173.153V83.2599H174.889V82.2134ZM179.825 84.6758H182.102V86.5964H179.825V84.6758ZM183.358 86.5964V84.6758H184.996V83.6539H178.335V82.1149H184.75V78.6059H177.067V79.6278H183.494V81.1053H177.092V84.6758H178.569V86.5964H175.873V87.643H185.944V86.5964H183.358Z" fill="black"/>
<path d="M278.652 79.8987H282.691V78.8522H277.396V86.2517H278.32C280.622 86.2517 282.063 86.1901 283.676 85.8946L283.54 84.8358C282.05 85.119 280.721 85.1806 278.652 85.1929V79.8987ZM284.574 77.818V88.9726H285.855V77.818H284.574ZM291.924 79.9849H294.275V78.9384H288.23V79.9849H290.656V81.056C290.656 82.9028 289.523 85.0082 287.824 85.8208L288.55 86.8304C289.831 86.2024 290.816 84.8728 291.308 83.3214C291.813 84.725 292.761 85.9562 294.004 86.5472L294.706 85.5499C293.019 84.7496 291.924 82.7797 291.924 81.056V79.9849ZM298.375 82.2134H296.639V77.8303H295.371V88.948H296.639V83.2599H298.375V82.2134ZM308.519 77.8303H307.251V85.907H308.519V77.8303ZM300.812 81.3515C300.812 80.3296 301.538 79.6648 302.523 79.6648C303.496 79.6648 304.235 80.3296 304.235 81.3515C304.235 82.3611 303.496 83.0383 302.523 83.0383C301.538 83.0383 300.812 82.3611 300.812 81.3515ZM305.466 81.3515C305.466 79.7263 304.198 78.569 302.523 78.569C300.849 78.569 299.568 79.7263 299.568 81.3515C299.568 82.9644 300.849 84.134 302.523 84.134C304.198 84.134 305.466 82.9644 305.466 81.3515ZM302.536 87.7045V85.0944H301.255V88.7387H308.839V87.7045H302.536ZM317.551 78.7537H316.282V80.5759C316.282 82.7182 315.125 84.8481 313.352 85.6484L314.103 86.7072C315.445 86.0547 316.43 84.7373 316.935 83.1244C317.44 84.6265 318.412 85.8577 319.693 86.461L320.432 85.4514C318.683 84.6634 317.551 82.6197 317.551 80.5759V78.7537ZM321.318 77.818V88.9726H322.598V77.818H321.318ZM326.156 81.3515C326.156 80.3419 326.894 79.6771 327.867 79.6771C328.84 79.6771 329.591 80.3419 329.591 81.3515C329.591 82.3734 328.84 83.0383 327.867 83.0383C326.894 83.0383 326.156 82.3734 326.156 81.3515ZM330.834 81.3515C330.834 79.7263 329.554 78.5813 327.867 78.5813C326.193 78.5813 324.912 79.7263 324.912 81.3515C324.912 82.9767 326.193 84.134 327.867 84.134C329.554 84.134 330.834 82.9767 330.834 81.3515ZM327.695 85.1436H326.414V88.7387H333.9V87.7045H327.695V85.1436ZM333.457 81.1299V77.8303H332.189V85.9808H333.457V82.1764H335.033V81.1299H333.457Z" fill="black"/>
<path d="M437.79 81.7948H431.401V80.896H437.446V79.948H431.401V79.0861H437.717V78.1135H430.132V82.7674H437.79V81.7948ZM429.972 86.6087H436.375V88.9603H437.643V85.5868H429.972V86.6087ZM428.84 83.6539V84.6758H438.911V83.6539H428.84ZM449.806 81.9302C447.565 81.6101 445.891 80.2188 445.891 78.7783V78.1873H444.549V78.7783C444.549 80.2434 442.899 81.6101 440.634 81.9302L441.126 82.9521C442.973 82.6566 444.512 81.7332 445.226 80.4404C445.952 81.7209 447.467 82.6566 449.314 82.9521L449.806 81.9302ZM450.237 83.9986H440.19V85.0328H444.549V88.9603H445.817V85.0328H450.237V83.9986ZM456.744 79.9726H458.259V85.1559C457.754 85.1806 457.237 85.2052 456.744 85.2175V79.9726ZM459.49 79.9726H460.573V78.9507H454.43V79.9726H455.513V85.2421C455.033 85.2421 454.565 85.2421 454.146 85.2421L454.282 86.2886C456.215 86.2886 458.788 86.2517 461.09 85.87L461.016 84.9343C460.524 84.9959 460.007 85.0451 459.49 85.0944V79.9726ZM464.624 82.1764H462.888V77.8303H461.62V88.9603H462.888V83.2229H464.624V82.1764ZM474.768 77.818H473.5V83.4692H474.768V77.818ZM467.048 80.699C467.048 79.8125 467.762 79.2339 468.723 79.2339C469.695 79.2339 470.422 79.8125 470.422 80.699C470.422 81.5854 469.695 82.1641 468.723 82.1641C467.762 82.1641 467.048 81.5854 467.048 80.699ZM471.653 80.699C471.653 79.2339 470.41 78.1873 468.723 78.1873C467.048 78.1873 465.817 79.2339 465.817 80.699C465.817 82.1641 467.048 83.1983 468.723 83.1983C470.41 83.1983 471.653 82.1641 471.653 80.699ZM468.747 87.8153V86.8304H474.768V83.974H467.479V84.9712H473.512V85.8946H467.504V88.8126H475.1V87.8153H468.747Z" fill="black"/>
<g clip-path="url(#clip0_752_15808)">
<path d="M42.0474 15.3871V0.623291H2.31445V56.4954H8.52247" fill="white"/>
<path d="M42.0474 15.3871V0.623291H2.31445V56.4954H8.52247" stroke="#333333" stroke-width="1.24659" stroke-miterlimit="10"/>
<path opacity="0.1" d="M39.7583 2.91284H4.60449V54.2059H39.7583V2.91284Z" fill="#397AF6"/>
<path d="M48.2557 21.4164V62.4957H8.52271V6.62354H33.5916L48.2557 21.4164Z" fill="white" stroke="#333333" stroke-width="1.24659" stroke-miterlimit="10"/>
<path d="M48.2558 21.4372H33.5918V6.62354L48.2558 21.4372Z" fill="white" stroke="#333333" stroke-width="1.24659" stroke-linejoin="round"/>
<path d="M23.8019 14.6516H13.3513V17.3983H23.8019V14.6516Z" fill="url(#paint0_linear_752_15808)"/>
<path d="M30.4088 24.2835H13.3513V27.0302H30.4088V24.2835Z" fill="url(#paint1_linear_752_15808)"/>
<path d="M43.4274 33.9197H13.3513V36.6663H43.4274V33.9197Z" fill="url(#paint2_linear_752_15808)"/>
<path d="M43.4274 43.5558H13.3513V46.3025H43.4274V43.5558Z" fill="url(#paint3_linear_752_15808)"/>
<path d="M43.4274 53.1879H13.3513V55.9345H43.4274V53.1879Z" fill="url(#paint4_linear_752_15808)"/>
</g>
<g clip-path="url(#clip1_752_15808)">
<path d="M468.048 15.3871V0.623291H428.315V56.4954H434.523" fill="white"/>
<path d="M468.048 15.3871V0.623291H428.315V56.4954H434.523" stroke="#333333" stroke-width="1.24659" stroke-miterlimit="10"/>
<path opacity="0.1" d="M465.757 2.91284H430.604V54.2059H465.757V2.91284Z" fill="#397AF6"/>
<path d="M474.256 21.4164V62.4957H434.523V6.62354H459.592L474.256 21.4164Z" fill="white" stroke="#3A3A3A" stroke-width="1.24659" stroke-miterlimit="10"/>
<path d="M474.255 21.4372H459.591V6.62354L474.255 21.4372Z" fill="white" stroke="#3A3A3A" stroke-width="1.24659" stroke-linejoin="round"/>
<path d="M453.457 15.4633L453.532 15.463C453.762 15.4622 453.983 15.5529 454.147 15.7152C454.31 15.8775 454.402 16.0981 454.403 16.3285L454.409 17.9531L452.593 17.9595L452.587 16.3348C452.587 16.2204 452.609 16.107 452.653 16.0012C452.696 15.8954 452.76 15.7993 452.841 15.7183C452.922 15.6374 453.018 15.5731 453.123 15.5294C453.229 15.4856 453.342 15.4631 453.457 15.4633Z" fill="white" stroke="#3A3A3A" stroke-width="1.24659" stroke-linecap="round" stroke-linejoin="round"/>
<path d="M455.901 22.6547L453.549 24.163L451.193 22.6713L451.176 17.9633L455.884 17.9467L455.901 22.6547Z" fill="white" stroke="#3A3A3A" stroke-width="1.24659" stroke-linecap="round" stroke-linejoin="round"/>
<path d="M446.224 43.3065L451.21 22.6547L447.055 39.92C447.377 40.009 447.713 40.0324 448.045 39.9887C448.376 39.9451 448.695 39.8353 448.983 39.6659C449.271 39.4965 449.522 39.271 449.721 39.0027C449.92 38.7344 450.063 38.4288 450.142 38.104L453.566 24.1464" stroke="#3A3A3A" stroke-width="1.24659" stroke-linecap="round" stroke-linejoin="round"/>
<path d="M461.008 43.2691L455.897 22.6547L460.173 39.8908C459.851 39.9821 459.515 40.0078 459.183 39.9664C458.852 39.925 458.532 39.8174 458.243 39.6499C457.953 39.4824 457.701 39.2586 457.5 38.9916C457.299 38.7246 457.154 38.4199 457.073 38.0957L453.549 24.163" stroke="#3A3A3A" stroke-width="1.24659" stroke-linecap="round" stroke-linejoin="round"/>
<path d="M446.195 34.5347L460.979 34.4848" stroke="#3A3A3A" stroke-width="1.24659" stroke-linecap="round" stroke-linejoin="round"/>
<path d="M453.62 32.7488L453.558 32.749C453.154 32.7504 452.828 33.079 452.829 33.4829L452.837 35.5355C452.838 35.9394 453.166 36.2657 453.57 36.2643L453.633 36.2641C454.037 36.2627 454.363 35.9341 454.362 35.5302L454.354 33.4775C454.353 33.0736 454.024 32.7473 453.62 32.7488Z" fill="white" stroke="#3A3A3A" stroke-width="1.24659" stroke-linecap="round" stroke-linejoin="round"/>
<path d="M469.597 49.0408H439.459C439.041 49.0408 438.703 49.3794 438.703 49.7971V56.5744C438.703 56.9921 439.041 57.3307 439.459 57.3307H469.597C470.015 57.3307 470.354 56.9921 470.354 56.5744V49.7971C470.354 49.3794 470.015 49.0408 469.597 49.0408Z" fill="url(#paint5_linear_752_15808)" stroke="#3A3A3A" stroke-width="1.24659" stroke-miterlimit="10"/>
<path d="M449.003 55.5062V51.6422H450.094C450.43 51.6422 450.727 51.7165 450.985 51.8651C451.244 52.0137 451.443 52.2252 451.583 52.4994C451.724 52.7736 451.796 53.0885 451.797 53.4442V53.691C451.797 54.0554 451.727 54.3748 451.585 54.649C451.445 54.9233 451.245 55.1338 450.983 55.2806C450.723 55.4275 450.419 55.5027 450.072 55.5062H449.003ZM449.512 52.0615V55.0896H450.049C450.441 55.0896 450.747 54.9675 450.964 54.7233C451.184 54.4792 451.293 54.1315 451.293 53.6804V53.4548C451.293 53.016 451.19 52.6754 450.983 52.433C450.778 52.1889 450.486 52.065 450.107 52.0615H449.512ZM453.403 54.2881L453.477 54.7976L453.586 54.3385L454.351 51.6422H454.78L455.526 54.3385L455.632 54.8056L455.715 54.2854L456.314 51.6422H456.827L455.89 55.5062H455.425L454.629 52.6905L454.568 52.3959L454.507 52.6905L453.682 55.5062H453.217L452.283 51.6422H452.793L453.403 54.2881ZM460.247 54.9993C460.116 55.1869 459.933 55.3275 459.698 55.4213C459.465 55.5133 459.192 55.5593 458.881 55.5593C458.566 55.5593 458.286 55.4859 458.042 55.339C457.798 55.1904 457.609 54.9799 457.474 54.7074C457.341 54.4349 457.273 54.1191 457.27 53.76V53.4229C457.27 52.8409 457.405 52.3897 457.676 52.0695C457.948 51.7492 458.33 51.5891 458.822 51.5891C459.226 51.5891 459.55 51.6926 459.796 51.8996C460.042 52.1048 460.193 52.3968 460.247 52.7754H459.738C459.642 52.2641 459.338 52.0084 458.825 52.0084C458.483 52.0084 458.224 52.1287 458.047 52.3693C457.872 52.6082 457.784 52.955 457.782 53.4097V53.7255C457.782 54.1589 457.881 54.5039 458.079 54.7605C458.277 55.0153 458.545 55.1426 458.883 55.1426C459.074 55.1426 459.242 55.1214 459.385 55.079C459.528 55.0365 459.647 54.9648 459.741 54.864V53.9962H458.846V53.5822H460.247V54.9993Z" fill="white"/>
</g>
<g clip-path="url(#clip2_752_15808)">
<path d="M179.05 15.3871V0.623291H139.317V56.4954H145.525" fill="white"/>
<path d="M179.05 15.3871V0.623291H139.317V56.4954H145.525" stroke="#333333" stroke-width="1.24659" stroke-miterlimit="10"/>
<path opacity="0.1" d="M176.759 2.91284H141.605V54.2059H176.759V2.91284Z" fill="#397AF6"/>
<path d="M185.256 21.4164V62.4957H145.523V6.62354H170.592L185.256 21.4164Z" fill="white" stroke="#3A3A3A" stroke-width="1.24659" stroke-miterlimit="10"/>
<path d="M185.256 21.4372H170.592V6.62354L185.256 21.4372Z" fill="white" stroke="#3A3A3A" stroke-width="1.24659" stroke-linejoin="round"/>
<path d="M180.599 49.0408H150.461C150.043 49.0408 149.704 49.3794 149.704 49.7971V56.5744C149.704 56.9921 150.043 57.3307 150.461 57.3307H180.599C181.017 57.3307 181.355 56.9921 181.355 56.5744V49.7971C181.355 49.3794 181.017 49.0408 180.599 49.0408Z" fill="url(#paint6_linear_752_15808)" stroke="#3A3A3A" stroke-width="1.24659" stroke-miterlimit="10"/>
<path d="M161.846 53.9935V55.5062H161.337V51.6422H162.762C163.185 51.6422 163.516 51.7501 163.755 51.966C163.995 52.1818 164.116 52.4675 164.116 52.8232C164.116 53.1982 163.998 53.4875 163.763 53.691C163.529 53.8927 163.194 53.9935 162.757 53.9935H161.846ZM161.846 53.5769H162.762C163.035 53.5769 163.243 53.5132 163.388 53.3858C163.533 53.2566 163.606 53.0709 163.606 52.8285C163.606 52.5985 163.533 52.4145 163.388 52.2765C163.243 52.1385 163.044 52.0668 162.791 52.0615H161.846V53.5769ZM167.436 52.0615H166.194V55.5062H165.687V52.0615H164.447V51.6422H167.436V52.0615ZM169.269 53.123L170.196 51.6422H170.795L169.575 53.5583L170.825 55.5062H170.219L169.269 53.9988L168.314 55.5062H167.712L168.964 53.5583L167.741 51.6422H168.338L169.269 53.123Z" fill="white"/>
<path d="M170.122 43.6681C170.011 43.6688 169.902 43.6399 169.805 43.5844C169.709 43.5289 169.629 43.4488 169.574 43.3523L167.409 39.5003C167.369 39.4288 167.343 39.3501 167.334 39.2687C167.324 39.1873 167.33 39.1049 167.353 39.026C167.375 38.947 167.412 38.8733 167.463 38.8089C167.514 38.7444 167.577 38.6906 167.648 38.6505C167.719 38.6104 167.798 38.5848 167.88 38.5751C167.961 38.5654 168.043 38.5718 168.122 38.594C168.201 38.6162 168.275 38.6537 168.339 38.7044C168.404 38.7551 168.458 38.818 168.498 38.8895L170.663 42.7414C170.739 42.8834 170.757 43.0499 170.713 43.2051C170.669 43.3603 170.566 43.4921 170.426 43.5724C170.334 43.6295 170.23 43.6625 170.122 43.6681ZM160.47 43.6681C160.361 43.6686 160.254 43.6404 160.16 43.5864C160.065 43.5325 159.987 43.4546 159.932 43.3607C159.877 43.2668 159.848 43.1601 159.848 43.0514C159.847 42.9427 159.876 42.8357 159.929 42.7414L162.094 38.8895C162.175 38.7451 162.31 38.6388 162.47 38.594C162.629 38.5492 162.8 38.5695 162.944 38.6505C163.089 38.7315 163.195 38.8666 163.24 39.026C163.284 39.1853 163.264 39.356 163.183 39.5003L161.014 43.3523C160.96 43.4497 160.88 43.5305 160.784 43.5861C160.687 43.6418 160.577 43.6701 160.466 43.6681H160.47Z" fill="#3A3A3A"/>
<path d="M165.298 28.8252C165.133 28.8252 164.974 28.7596 164.857 28.6427C164.74 28.5258 164.675 28.3673 164.675 28.2019V26.8681C164.675 26.7028 164.74 26.5443 164.857 26.4274C164.974 26.3105 165.133 26.2448 165.298 26.2448C165.463 26.2448 165.622 26.3105 165.739 26.4274C165.856 26.5443 165.921 26.7028 165.921 26.8681V28.2019C165.921 28.3673 165.856 28.5258 165.739 28.6427C165.622 28.7596 165.463 28.8252 165.298 28.8252Z" fill="#3A3A3A"/>
<path d="M175.357 39.8203H155.225C155.059 39.8192 154.901 39.7526 154.784 39.635C154.667 39.5175 154.602 39.3585 154.602 39.1928V28.202C154.602 28.0367 154.667 27.8782 154.784 27.7613C154.901 27.6444 155.06 27.5787 155.225 27.5787H175.357C175.523 27.5787 175.681 27.6444 175.798 27.7613C175.915 27.8782 175.981 28.0367 175.981 28.202V39.1928C175.981 39.3585 175.915 39.5175 175.798 39.635C175.681 39.7526 175.523 39.8192 175.357 39.8203ZM155.848 38.5737H174.734V28.8294H155.848V38.5737Z" fill="#3A3A3A"/>
<path d="M168.711 37.032C168.546 37.032 168.387 36.9664 168.27 36.8495C168.153 36.7326 168.088 36.574 168.088 36.4087V34.8421C168.105 34.6892 168.178 34.5482 168.293 34.4458C168.408 34.3434 168.557 34.2868 168.711 34.2868C168.865 34.2868 169.013 34.3434 169.128 34.4458C169.243 34.5482 169.316 34.6892 169.334 34.8421V36.4087C169.333 36.5737 169.267 36.7316 169.15 36.8483C169.034 36.9649 168.876 37.0309 168.711 37.032Z" fill="#3A3A3A"/>
<path d="M163.952 31.7133H157.827C157.662 31.7133 157.503 31.6475 157.387 31.5307C157.27 31.4138 157.204 31.2553 157.204 31.09C157.204 30.9247 157.27 30.7661 157.387 30.6492C157.503 30.5323 157.662 30.4667 157.827 30.4667H163.952C164.117 30.4667 164.276 30.5323 164.393 30.6492C164.51 30.7661 164.575 30.9247 164.575 31.09C164.575 31.2553 164.51 31.4138 164.393 31.5307C164.276 31.6475 164.117 31.7133 163.952 31.7133Z" fill="#3A3A3A"/>
<path d="M161.567 34.3643H157.827C157.662 34.3643 157.503 34.2987 157.387 34.1818C157.27 34.0649 157.204 33.9063 157.204 33.741C157.204 33.5757 157.27 33.4172 157.387 33.3003C157.503 33.1835 157.662 33.1177 157.827 33.1177H161.567C161.732 33.1177 161.891 33.1835 162.008 33.3003C162.125 33.4172 162.19 33.5757 162.19 33.741C162.19 33.9063 162.125 34.0649 162.008 34.1818C161.891 34.2987 161.732 34.3643 161.567 34.3643Z" fill="#3A3A3A"/>
<path d="M157.827 37.032C157.662 37.032 157.503 36.9664 157.387 36.8495C157.27 36.7326 157.204 36.574 157.204 36.4087C157.204 36.2434 157.27 36.0849 157.387 35.968C157.503 35.8511 157.662 35.7854 157.827 35.7854H165.394C165.559 35.7854 165.718 35.8511 165.835 35.968C165.952 36.0849 166.017 36.2434 166.017 36.4087C166.017 36.574 165.952 36.7326 165.835 36.8495C165.718 36.9664 165.559 37.032 165.394 37.032H157.831H157.827Z" fill="#3A3A3A"/>
</g>
<g clip-path="url(#clip3_752_15808)">
<path d="M290.078 14.8313H275.314V54.5643H331.186V48.3563" fill="white"/>
<path d="M290.078 14.8313H275.314V54.5643H331.186V48.3563" stroke="#333333" stroke-width="1.24659" stroke-miterlimit="10"/>
<path opacity="0.1" d="M328.897 17.1209H277.604V52.2747H328.897V17.1209Z" fill="#397AF6"/>
<path d="M296.106 8.62329H337.186V48.3563H281.314V23.2915L296.106 8.62329Z" fill="white" stroke="#333333" stroke-width="1.24659" stroke-miterlimit="10"/>
<path d="M296.127 8.62329V23.2915H281.314L296.127 8.62329Z" fill="white" stroke="#333333" stroke-width="1.24659" stroke-linejoin="round"/>
<path d="M304.75 21.1931C304.15 21.1964 303.563 21.0217 303.063 20.691C302.563 20.3603 302.172 19.8886 301.94 19.3357C301.708 18.7827 301.645 18.1733 301.76 17.5847C301.875 16.9961 302.162 16.4547 302.584 16.0293C303.007 15.6038 303.546 15.3134 304.134 15.1947C304.722 15.076 305.331 15.1343 305.886 15.3625C306.44 15.5906 306.915 15.9782 307.249 16.4762C307.583 16.9741 307.762 17.56 307.763 18.1597C307.764 18.5567 307.688 18.9503 307.537 19.3177C307.387 19.6851 307.165 20.0192 306.885 20.3009C306.605 20.5827 306.273 20.8065 305.906 20.9595C305.54 21.1126 305.147 21.192 304.75 21.1931ZM304.75 16.4103C304.401 16.4062 304.059 16.506 303.767 16.697C303.475 16.888 303.247 17.1615 303.111 17.4828C302.975 17.8041 302.937 18.1585 303.004 18.5011C303.07 18.8436 303.236 19.1588 303.482 19.4064C303.728 19.6539 304.042 19.8227 304.384 19.8913C304.726 19.9599 305.081 19.9251 305.403 19.7915C305.725 19.6578 306 19.4312 306.193 19.1406C306.386 18.85 306.489 18.5085 306.487 18.1597C306.489 17.9305 306.445 17.7034 306.358 17.4912C306.272 17.2791 306.144 17.086 305.983 16.9234C305.821 16.7608 305.629 16.6318 305.418 16.5437C305.206 16.4557 304.979 16.4103 304.75 16.4103Z" fill="#3A3A3A"/>
<path d="M325.86 30.0979H302.474C302.354 30.0976 302.236 30.0633 302.134 29.9988C302.033 29.9343 301.952 29.8424 301.9 29.7336C301.849 29.6248 301.83 29.5037 301.844 29.3843C301.859 29.2649 301.907 29.1521 301.984 29.059L309.737 19.6556C309.841 19.5299 309.989 19.4485 310.15 19.4284C310.312 19.4083 310.475 19.451 310.606 19.5476L313.805 21.9036L320.483 16.0489C320.547 15.9923 320.621 15.9491 320.702 15.922C320.782 15.8948 320.868 15.8842 320.953 15.8909C321.116 15.9094 321.265 15.9915 321.368 16.1195L326.317 22.0241C326.414 22.1409 326.467 22.2879 326.467 22.4397V29.4829C326.467 29.5665 326.451 29.6495 326.419 29.7269C326.388 29.8043 326.341 29.8746 326.282 29.9337C326.223 29.9929 326.152 30.0396 326.075 30.0714C325.998 30.1031 325.915 30.1192 325.831 30.1187L325.86 30.0979ZM303.837 28.8264H325.237V22.6516L320.857 17.4201L314.283 23.1835C314.175 23.2801 314.036 23.3361 313.89 23.3422C313.745 23.3482 313.602 23.304 313.486 23.2168L310.361 20.9147L303.837 28.8264Z" fill="#3A3A3A"/>
<path d="M330.126 35.0095H299.988C299.57 35.0095 299.232 35.3481 299.232 35.7657V42.543C299.232 42.9607 299.57 43.2993 299.988 43.2993H330.126C330.544 43.2993 330.883 42.9607 330.883 42.543V35.7657C330.883 35.3481 330.544 35.0095 330.126 35.0095Z" fill="url(#paint7_linear_752_15808)" stroke="#333333" stroke-width="1.24659" stroke-miterlimit="10"/>
<path d="M308.399 41.2216C308.399 41.1367 308.423 41.0659 308.473 41.0093C308.524 40.9527 308.6 40.9244 308.701 40.9244C308.802 40.9244 308.878 40.9527 308.929 41.0093C308.982 41.0659 309.009 41.1367 309.009 41.2216C309.009 41.303 308.982 41.3711 308.929 41.426C308.878 41.4808 308.802 41.5083 308.701 41.5083C308.6 41.5083 308.524 41.4808 308.473 41.426C308.423 41.3711 308.399 41.303 308.399 41.2216ZM311.517 37.615H312.029V40.3512C312.029 40.7209 311.918 41.0102 311.695 41.219C311.474 41.4278 311.178 41.5321 310.808 41.5321C310.424 41.5321 310.125 41.4339 309.911 41.2376C309.697 41.0412 309.59 40.7661 309.59 40.4122H310.1C310.1 40.6334 310.16 40.8059 310.28 40.9297C310.402 41.0536 310.578 41.1155 310.808 41.1155C311.019 41.1155 311.189 41.0491 311.318 40.9164C311.449 40.7838 311.515 40.598 311.517 40.3591V37.615ZM313.406 39.9664V41.4791H312.897V37.615H314.322C314.745 37.615 315.076 37.7229 315.315 37.9388C315.555 38.1546 315.676 38.4404 315.676 38.796C315.676 39.1711 315.558 39.4604 315.323 39.6638C315.089 39.8655 314.754 39.9664 314.317 39.9664H313.406ZM313.406 39.5497H314.322C314.595 39.5497 314.803 39.486 314.948 39.3586C315.093 39.2295 315.166 39.0437 315.166 38.8013C315.166 38.5713 315.093 38.3873 314.948 38.2493C314.803 38.1113 314.604 38.0396 314.351 38.0343H313.406V39.5497ZM319.179 40.9722C319.048 41.1597 318.865 41.3004 318.629 41.3941C318.396 41.4861 318.123 41.5321 317.812 41.5321C317.497 41.5321 317.217 41.4587 316.973 41.3119C316.729 41.1633 316.54 40.9527 316.405 40.6802C316.273 40.4078 316.205 40.092 316.201 39.7328V39.3958C316.201 38.8137 316.336 38.3625 316.607 38.0423C316.88 37.7221 317.262 37.5619 317.754 37.5619C318.157 37.5619 318.482 37.6654 318.728 37.8725C318.973 38.0777 319.124 38.3696 319.179 38.7482H318.669C318.574 38.2369 318.269 37.9813 317.756 37.9813C317.415 37.9813 317.156 38.1016 316.979 38.3422C316.803 38.581 316.715 38.9278 316.713 39.3825V39.6983C316.713 40.1318 316.812 40.4768 317.01 40.7333C317.209 40.9881 317.477 41.1155 317.815 41.1155C318.006 41.1155 318.173 41.0943 318.316 41.0518C318.459 41.0093 318.578 40.9377 318.672 40.8368V39.969H317.777V39.555H319.179V40.9722Z" fill="white"/>
</g>
<defs>
<linearGradient id="paint0_linear_752_15808" x1="13.3513" y1="16.0256" x2="23.8019" y2="16.0256" gradientUnits="userSpaceOnUse">
<stop stop-color="#3B94E2"/>
<stop offset="0.3125" stop-color="#2BB1FF"/>
</linearGradient>
<linearGradient id="paint1_linear_752_15808" x1="13.3513" y1="25.6575" x2="30.4088" y2="25.6575" gradientUnits="userSpaceOnUse">
<stop stop-color="#3B94E2"/>
<stop offset="0.3125" stop-color="#2BB1FF"/>
</linearGradient>
<linearGradient id="paint2_linear_752_15808" x1="13.3513" y1="35.2937" x2="43.4274" y2="35.2937" gradientUnits="userSpaceOnUse">
<stop stop-color="#3B94E2"/>
<stop offset="0.3125" stop-color="#2BB1FF"/>
</linearGradient>
<linearGradient id="paint3_linear_752_15808" x1="13.3513" y1="44.9299" x2="43.4274" y2="44.9299" gradientUnits="userSpaceOnUse">
<stop stop-color="#3B94E2"/>
<stop offset="0.3125" stop-color="#2BB1FF"/>
</linearGradient>
<linearGradient id="paint4_linear_752_15808" x1="13.3513" y1="54.5619" x2="43.4274" y2="54.5619" gradientUnits="userSpaceOnUse">
<stop stop-color="#3B94E2"/>
<stop offset="0.3125" stop-color="#2BB1FF"/>
</linearGradient>
<linearGradient id="paint5_linear_752_15808" x1="438.703" y1="53.1878" x2="470.354" y2="53.1878" gradientUnits="userSpaceOnUse">
<stop stop-color="#3B94E2"/>
<stop offset="0.3125" stop-color="#2BB1FF"/>
</linearGradient>
<linearGradient id="paint6_linear_752_15808" x1="149.704" y1="53.1878" x2="181.355" y2="53.1878" gradientUnits="userSpaceOnUse">
<stop stop-color="#3B94E2"/>
<stop offset="0.3125" stop-color="#2BB1FF"/>
</linearGradient>
<linearGradient id="paint7_linear_752_15808" x1="299.232" y1="39.1564" x2="330.883" y2="39.1564" gradientUnits="userSpaceOnUse">
<stop stop-color="#3B94E2"/>
<stop offset="0.3125" stop-color="#2BB1FF"/>
</linearGradient>
<clipPath id="clip0_752_15808">
<rect width="47.1876" height="63.119" fill="white" transform="translate(1.69141)"/>
</clipPath>
<clipPath id="clip1_752_15808">
<rect width="47.1876" height="63.119" fill="white" transform="translate(427.691)"/>
</clipPath>
<clipPath id="clip2_752_15808">
<rect width="47.1876" height="63.119" fill="white" transform="translate(138.691)"/>
</clipPath>
<clipPath id="clip3_752_15808">
<rect width="63.119" height="47.1876" fill="white" transform="translate(274.691 8)"/>
</clipPath>
</defs>
</svg>
