<svg width="350" height="239" viewBox="0 0 350 239" fill="none" xmlns="http://www.w3.org/2000/svg">
<g clip-path="url(#clip0_6_89)">
<path d="M20 239L330 239C341.046 239 350 230.046 350 219V20C350 8.9543 341.046 0 330 0L20 0C8.95432 0 0 8.9543 0 20V219C0 230.046 8.95432 239 20 239Z" fill="url(#paint0_linear_6_89)" fill-opacity="0.1"/>
<path d="M58.7697 38.7015C58.5635 38.7766 58.3458 38.8149 58.1264 38.8147C53.6703 38.8147 50 35.689 50 31.0488C50 26.1523 53.8958 23 58.6603 23C63.4247 23 67.3172 26.1257 67.3172 31.0189C67.3172 33.2424 66.5911 34.9601 65.245 37.0971L59.3598 46.4674H53.5874L58.7697 38.7015ZM62.3571 30.9922C62.3571 28.9384 60.9281 27.3307 58.6603 27.3307C56.3924 27.3307 54.9601 28.9351 54.9601 30.9922C54.9601 33.0494 56.3891 34.6538 58.6603 34.6538C60.9314 34.6538 62.3571 33.046 62.3571 30.9922ZM69.1109 38.9811C69.1109 36.7609 69.8403 35.0433 71.1831 32.9062L77.0683 23.5359H82.8407L77.6584 31.3018C77.8646 31.2268 78.0823 31.1885 78.3017 31.1886C82.7578 31.1886 86.4281 34.311 86.4281 38.9545C86.4281 43.6513 82.5621 47 77.7712 47C72.9802 47 69.1109 43.8777 69.1109 38.9811ZM81.468 39.0111C81.468 36.9573 80.039 35.3495 77.7712 35.3495C75.5033 35.3495 74.0843 36.9573 74.0843 39.0111C74.0843 41.0649 75.5133 42.6727 77.7844 42.6727C80.0556 42.6727 81.468 41.0649 81.468 39.0111Z" fill="#00AAFF"/>
<path d="M93.646 35.5859C93.646 37.2769 92.4026 38.5118 90.5957 38.5118C88.7887 38.5118 87.5586 37.2769 87.5586 35.5859C87.5586 33.8949 88.8052 32.6433 90.5957 32.6433C92.3861 32.6433 93.646 33.8916 93.646 35.5859ZM91.2256 45.3057H89.1467L97.3428 32.8863H99.4217L91.2256 45.3057ZM89.4352 35.5859C89.4301 35.7411 89.4568 35.8958 89.5137 36.0402C89.5706 36.1847 89.6563 36.3159 89.7657 36.4257C89.8751 36.5356 90.0058 36.6217 90.1497 36.6788C90.2936 36.7359 90.4476 36.7627 90.6023 36.7576C90.7571 36.7627 90.9112 36.7358 91.0553 36.6788C91.1994 36.6218 91.3303 36.5357 91.4399 36.4259C91.5496 36.3161 91.6357 36.185 91.6929 36.0405C91.7501 35.896 91.7773 35.7413 91.7727 35.5859C91.7777 35.4302 91.7509 35.2751 91.6939 35.1303C91.6369 34.9854 91.5509 34.8538 91.4412 34.7437C91.3315 34.6335 91.2004 34.5472 91.0561 34.4899C90.9118 34.4327 90.7574 34.4058 90.6023 34.4109C90.4474 34.4057 90.293 34.4327 90.1489 34.4899C90.0048 34.5472 89.8739 34.6336 89.7645 34.7438C89.655 34.854 89.5693 34.9857 89.5127 35.1305C89.456 35.2754 89.4297 35.4304 89.4352 35.5859ZM101 42.5762C101 44.2672 99.7566 45.5021 97.9496 45.5021C96.1426 45.5021 94.9125 44.2672 94.9125 42.5762C94.9125 40.8852 96.1592 39.6502 97.9562 39.6502C99.7532 39.6502 101 40.8852 101 42.5928V42.5762ZM96.7792 42.5762C96.7722 42.7337 96.7978 42.8909 96.8544 43.038C96.9109 43.1851 96.9972 43.3188 97.1078 43.4308C97.2183 43.5427 97.3508 43.6305 97.4968 43.6885C97.6429 43.7465 97.7993 43.7735 97.9562 43.7679C98.1104 43.7716 98.2638 43.7436 98.4069 43.6858C98.5501 43.6279 98.6799 43.5413 98.7885 43.4313C98.8972 43.3213 98.9823 43.1902 99.0387 43.046C99.0951 42.9019 99.1217 42.7476 99.1166 42.5928C99.1217 42.438 99.0951 42.2838 99.0387 42.1396C98.9823 41.9954 98.8972 41.8643 98.7885 41.7543C98.6799 41.6443 98.5501 41.5578 98.4069 41.4999C98.2638 41.442 98.1104 41.4141 97.9562 41.4178C97.8007 41.4123 97.6457 41.4388 97.5009 41.4958C97.356 41.5528 97.2244 41.6391 97.114 41.7492C97.0037 41.8593 96.9171 41.991 96.8595 42.1361C96.8019 42.2813 96.7745 42.4367 96.7792 42.5928V42.5762Z" fill="#00AAFF"/>
<path opacity="0.1" d="M17 52C26.3888 52 34 44.3888 34 35C34 25.6112 26.3888 18 17 18C7.61116 18 0 25.6112 0 35C0 44.3888 7.61116 52 17 52Z" fill="#397AF6"/>
<path fill-rule="evenodd" clip-rule="evenodd" d="M16.4138 18V34.9902L28.7242 22.6798C31.9745 25.7762 34 30.1466 34 34.9901C34 44.3789 26.3888 51.9901 17 51.9901C7.61116 51.9901 0 44.3789 0 34.9901C0 25.7974 7.29637 18.309 16.4138 18Z" fill="#31A8F6"/>
<path d="M3.1 81.1625C4.05 81.1625 4.725 80.6875 5.35 79.9625H5.3875L5.5 81H6.675V74.125H5.2375V78.9C4.6625 79.625 4.225 79.925 3.5875 79.925C2.775 79.925 2.4375 79.4625 2.4375 78.275V74.125H1V78.45C1 80.2 1.6375 81.1625 3.1 81.1625ZM10.7015 81.1625C12.4015 81.1625 13.314 80.225 13.314 79.075C13.314 77.775 12.2515 77.35 11.289 76.9875C10.539 76.7125 9.82646 76.4875 9.82646 75.9C9.82646 75.425 10.1765 75.05 10.9265 75.05C11.5015 75.05 11.989 75.3 12.464 75.65L13.139 74.7625C12.5765 74.325 11.8265 73.95 10.9015 73.95C9.38896 73.95 8.46396 74.8125 8.46396 75.9625C8.46396 77.125 9.51396 77.6125 10.4265 77.9625C11.1765 78.25 11.9515 78.525 11.9515 79.15C11.9515 79.675 11.564 80.075 10.739 80.075C10.0015 80.075 9.40146 79.775 8.78896 79.2875L8.11396 80.2125C8.77646 80.7625 9.75146 81.1625 10.7015 81.1625ZM17.7073 81.1625C18.6073 81.1625 19.3948 80.8625 20.0323 80.4375L19.5323 79.525C19.0323 79.85 18.5073 80.0375 17.8948 80.0375C16.7073 80.0375 15.8823 79.25 15.7698 77.9375H20.2323C20.2698 77.775 20.2948 77.4875 20.2948 77.2125C20.2948 75.2625 19.3198 73.95 17.4948 73.95C15.8823 73.95 14.3573 75.3375 14.3573 77.575C14.3573 79.8375 15.8448 81.1625 17.7073 81.1625ZM15.7573 76.95C15.8948 75.7375 16.6573 75.075 17.5198 75.075C18.5198 75.075 19.0573 75.7625 19.0573 76.95H15.7573ZM24.7203 81H26.1453V76.125C26.7203 75.5 27.2328 75.1875 27.6953 75.1875C28.4828 75.1875 28.8453 75.6625 28.8453 76.85V81H30.2828V76.125C30.8578 75.5 31.3578 75.1875 31.8328 75.1875C32.6078 75.1875 32.9828 75.6625 32.9828 76.85V81H34.4203V76.675C34.4203 74.925 33.7453 73.95 32.3078 73.95C31.4453 73.95 30.7453 74.4875 30.0703 75.2125C29.7703 74.425 29.1953 73.95 28.1703 73.95C27.3203 73.95 26.6328 74.4625 26.0453 75.0875H26.0078L25.8953 74.125H24.7203V81ZM39.3626 81.1625C40.2626 81.1625 41.0501 80.8625 41.6876 80.4375L41.1876 79.525C40.6876 79.85 40.1626 80.0375 39.5501 80.0375C38.3626 80.0375 37.5376 79.25 37.4251 77.9375H41.8876C41.9251 77.775 41.9501 77.4875 41.9501 77.2125C41.9501 75.2625 40.9751 73.95 39.1501 73.95C37.5376 73.95 36.0126 75.3375 36.0126 77.575C36.0126 79.8375 37.5001 81.1625 39.3626 81.1625ZM37.4126 76.95C37.5501 75.7375 38.3126 75.075 39.1751 75.075C40.1751 75.075 40.7126 75.7625 40.7126 76.95H37.4126ZM45.4305 81.1625C47.1305 81.1625 48.043 80.225 48.043 79.075C48.043 77.775 46.9805 77.35 46.018 76.9875C45.268 76.7125 44.5555 76.4875 44.5555 75.9C44.5555 75.425 44.9055 75.05 45.6555 75.05C46.2305 75.05 46.718 75.3 47.193 75.65L47.868 74.7625C47.3055 74.325 46.5555 73.95 45.6305 73.95C44.118 73.95 43.193 74.8125 43.193 75.9625C43.193 77.125 44.243 77.6125 45.1555 77.9625C45.9055 78.25 46.6805 78.525 46.6805 79.15C46.6805 79.675 46.293 80.075 45.468 80.075C44.7305 80.075 44.1305 79.775 43.518 79.2875L42.843 80.2125C43.5055 80.7625 44.4805 81.1625 45.4305 81.1625ZM51.4363 81.1625C53.1363 81.1625 54.0488 80.225 54.0488 79.075C54.0488 77.775 52.9863 77.35 52.0238 76.9875C51.2738 76.7125 50.5613 76.4875 50.5613 75.9C50.5613 75.425 50.9113 75.05 51.6613 75.05C52.2363 75.05 52.7238 75.3 53.1988 75.65L53.8738 74.7625C53.3113 74.325 52.5613 73.95 51.6363 73.95C50.1238 73.95 49.1988 74.8125 49.1988 75.9625C49.1988 77.125 50.2488 77.6125 51.1613 77.9625C51.9113 78.25 52.6863 78.525 52.6863 79.15C52.6863 79.675 52.2988 80.075 51.4738 80.075C50.7363 80.075 50.1363 79.775 49.5238 79.2875L48.8488 80.2125C49.5113 80.7625 50.4863 81.1625 51.4363 81.1625ZM58.4422 81.1625C59.3422 81.1625 60.1297 80.8625 60.7672 80.4375L60.2672 79.525C59.7672 79.85 59.2422 80.0375 58.6297 80.0375C57.4422 80.0375 56.6172 79.25 56.5047 77.9375H60.9672C61.0047 77.775 61.0297 77.4875 61.0297 77.2125C61.0297 75.2625 60.0547 73.95 58.2297 73.95C56.6172 73.95 55.0922 75.3375 55.0922 77.575C55.0922 79.8375 56.5797 81.1625 58.4422 81.1625ZM56.4922 76.95C56.6297 75.7375 57.3922 75.075 58.2547 75.075C59.2547 75.075 59.7922 75.7625 59.7922 76.95H56.4922ZM62.6476 81H64.0726V76.125C64.6851 75.5125 65.1226 75.1875 65.7601 75.1875C66.5726 75.1875 66.9226 75.6625 66.9226 76.85V81H68.3601V76.675C68.3601 74.925 67.7101 73.95 66.2476 73.95C65.3101 73.95 64.6101 74.4625 63.9726 75.075H63.9351L63.8226 74.125H62.6476V81ZM72.7979 84.0875C74.9979 84.0875 76.3979 83.0125 76.3979 81.6875C76.3979 80.5125 75.5479 80.0125 73.9229 80.0125H72.6604C71.7854 80.0125 71.5104 79.75 71.5104 79.3375C71.5104 79.0125 71.6604 78.8125 71.8854 78.6125C72.1854 78.75 72.5354 78.825 72.8479 78.825C74.2854 78.825 75.4229 77.9625 75.4229 76.4625C75.4229 75.9375 75.2354 75.475 74.9729 75.2H76.2854V74.125H73.8479C73.5854 74.025 73.2354 73.95 72.8479 73.95C71.4229 73.95 70.1854 74.8625 70.1854 76.425C70.1854 77.2375 70.6229 77.8875 71.0854 78.25V78.3C70.7104 78.575 70.3229 79.0375 70.3229 79.575C70.3229 80.1375 70.5979 80.5 70.9479 80.7125V80.775C70.3104 81.1625 69.9479 81.7 69.9479 82.275C69.9479 83.475 71.1479 84.0875 72.7979 84.0875ZM72.8479 77.9C72.1354 77.9 71.5479 77.3375 71.5479 76.425C71.5479 75.4875 72.1229 74.9625 72.8479 74.9625C73.5729 74.9625 74.1479 75.5 74.1479 76.425C74.1479 77.3375 73.5604 77.9 72.8479 77.9ZM73.0104 83.1375C71.8729 83.1375 71.1729 82.7375 71.1729 82.0625C71.1729 81.7125 71.3479 81.3625 71.7604 81.0625C72.0479 81.125 72.3604 81.1625 72.6854 81.1625H73.7229C74.5604 81.1625 75.0104 81.3375 75.0104 81.9125C75.0104 82.55 74.2104 83.1375 73.0104 83.1375ZM80.3294 81.1625C81.2294 81.1625 82.0169 80.8625 82.6544 80.4375L82.1544 79.525C81.6544 79.85 81.1294 80.0375 80.5169 80.0375C79.3294 80.0375 78.5044 79.25 78.3919 77.9375H82.8544C82.8919 77.775 82.9169 77.4875 82.9169 77.2125C82.9169 75.2625 81.9419 73.95 80.1169 73.95C78.5044 73.95 76.9794 75.3375 76.9794 77.575C76.9794 79.8375 78.4669 81.1625 80.3294 81.1625ZM78.3794 76.95C78.5169 75.7375 79.2794 75.075 80.1419 75.075C81.1419 75.075 81.6794 75.7625 81.6794 76.95H78.3794ZM84.5348 81H85.9598V76.7125C86.3973 75.625 87.0723 75.2375 87.6348 75.2375C87.9098 75.2375 88.0848 75.275 88.3223 75.35L88.5848 74.1C88.3723 74 88.1473 73.95 87.8098 73.95C87.0723 73.95 86.3473 74.475 85.8598 75.3625H85.8223L85.7098 74.125H84.5348V81ZM91.4388 81.1625C93.1388 81.1625 94.0513 80.225 94.0513 79.075C94.0513 77.775 92.9888 77.35 92.0263 76.9875C91.2763 76.7125 90.5638 76.4875 90.5638 75.9C90.5638 75.425 90.9138 75.05 91.6638 75.05C92.2388 75.05 92.7263 75.3 93.2013 75.65L93.8763 74.7625C93.3138 74.325 92.5638 73.95 91.6388 73.95C90.1263 73.95 89.2013 74.8125 89.2013 75.9625C89.2013 77.125 90.2513 77.6125 91.1638 77.9625C91.9138 78.25 92.6888 78.525 92.6888 79.15C92.6888 79.675 92.3013 80.075 91.4763 80.075C90.7388 80.075 90.1388 79.775 89.5263 79.2875L88.8513 80.2125C89.5138 80.7625 90.4888 81.1625 91.4388 81.1625ZM100.015 81.1625C100.84 81.1625 101.577 80.75 102.202 80.2125H102.24L102.365 81H103.54V76.8625C103.54 75.0375 102.752 73.95 101.04 73.95C99.9397 73.95 98.9772 74.4 98.2647 74.85L98.8022 75.825C99.3897 75.45 100.065 75.125 100.79 75.125C101.802 75.125 102.09 75.825 102.102 76.625C99.2397 76.9375 97.9897 77.7 97.9897 79.175C97.9897 80.3875 98.8272 81.1625 100.015 81.1625ZM100.452 80.025C99.8397 80.025 99.3772 79.75 99.3772 79.075C99.3772 78.3 100.065 77.7875 102.102 77.5375V79.225C101.54 79.7375 101.052 80.025 100.452 80.025ZM107.442 81.1625C109.142 81.1625 110.055 80.225 110.055 79.075C110.055 77.775 108.992 77.35 108.03 76.9875C107.28 76.7125 106.567 76.4875 106.567 75.9C106.567 75.425 106.917 75.05 107.667 75.05C108.242 75.05 108.73 75.3 109.205 75.65L109.88 74.7625C109.317 74.325 108.567 73.95 107.642 73.95C106.13 73.95 105.205 74.8125 105.205 75.9625C105.205 77.125 106.255 77.6125 107.167 77.9625C107.917 78.25 108.692 78.525 108.692 79.15C108.692 79.675 108.305 80.075 107.48 80.075C106.742 80.075 106.142 79.775 105.53 79.2875L104.855 80.2125C105.517 80.7625 106.492 81.1625 107.442 81.1625ZM116.018 81.1625C116.843 81.1625 117.581 80.75 118.206 80.2125H118.243L118.368 81H119.543V76.8625C119.543 75.0375 118.756 73.95 117.043 73.95C115.943 73.95 114.981 74.4 114.268 74.85L114.806 75.825C115.393 75.45 116.068 75.125 116.793 75.125C117.806 75.125 118.093 75.825 118.106 76.625C115.243 76.9375 113.993 77.7 113.993 79.175C113.993 80.3875 114.831 81.1625 116.018 81.1625ZM116.456 80.025C115.843 80.025 115.381 79.75 115.381 79.075C115.381 78.3 116.068 77.7875 118.106 77.5375V79.225C117.543 79.7375 117.056 80.025 116.456 80.025ZM126.703 81.1625C127.203 81.1625 127.666 81.0375 128.053 80.9125L127.791 79.85C127.591 79.9375 127.291 80.0125 127.053 80.0125C126.341 80.0125 126.053 79.5875 126.053 78.7625V75.275H127.841V74.125H126.053V72.225H124.841L124.678 74.125L123.616 74.2V75.275H124.616V78.75C124.616 80.2 125.153 81.1625 126.703 81.1625ZM131.889 81.1625C133.589 81.1625 135.127 79.85 135.127 77.575C135.127 75.275 133.589 73.95 131.889 73.95C130.189 73.95 128.652 75.275 128.652 77.575C128.652 79.85 130.189 81.1625 131.889 81.1625ZM131.889 79.9875C130.814 79.9875 130.139 79.025 130.139 77.575C130.139 76.1125 130.814 75.1375 131.889 75.1375C132.977 75.1375 133.652 76.1125 133.652 77.575C133.652 79.025 132.977 79.9875 131.889 79.9875ZM139.567 81.1625C141.267 81.1625 142.805 79.85 142.805 77.575C142.805 75.275 141.267 73.95 139.567 73.95C137.867 73.95 136.33 75.275 136.33 77.575C136.33 79.85 137.867 81.1625 139.567 81.1625ZM139.567 79.9875C138.492 79.9875 137.817 79.025 137.817 77.575C137.817 76.1125 138.492 75.1375 139.567 75.1375C140.655 75.1375 141.33 76.1125 141.33 77.575C141.33 79.025 140.655 79.9875 139.567 79.9875ZM145.921 81.1625C146.271 81.1625 146.521 81.1125 146.696 81.05L146.508 79.9625C146.383 79.9875 146.333 79.9875 146.271 79.9875C146.096 79.9875 145.921 79.85 145.921 79.4625V71.0375H144.496V79.3875C144.496 80.5 144.883 81.1625 145.921 81.1625ZM7.52012 87.1125C7.20762 86.975 6.77012 86.875 6.30762 86.875C4.77012 86.875 4.13262 87.85 4.13262 89.2625V90.125L3.19512 90.2V91.275H4.13262V97H5.57012V91.275H6.95762V90.125H5.57012V89.25C5.57012 88.4125 5.87012 88.0125 6.48262 88.0125C6.72012 88.0125 6.98262 88.075 7.23262 88.1875L7.52012 87.1125ZM10.8199 97.1625C12.5199 97.1625 14.0574 95.85 14.0574 93.575C14.0574 91.275 12.5199 89.95 10.8199 89.95C9.11992 89.95 7.58242 91.275 7.58242 93.575C7.58242 95.85 9.11992 97.1625 10.8199 97.1625ZM10.8199 95.9875C9.74492 95.9875 9.06992 95.025 9.06992 93.575C9.06992 92.1125 9.74492 91.1375 10.8199 91.1375C11.9074 91.1375 12.5824 92.1125 12.5824 93.575C12.5824 95.025 11.9074 95.9875 10.8199 95.9875ZM15.7481 97H17.1731V92.7125C17.6106 91.625 18.2856 91.2375 18.8481 91.2375C19.1231 91.2375 19.2981 91.275 19.5356 91.35L19.7981 90.1C19.5856 90 19.3606 89.95 19.0231 89.95C18.2856 89.95 17.5606 90.475 17.0731 91.3625H17.0356L16.9231 90.125H15.7481V97ZM26.8705 97.1625C28.4205 97.1625 29.833 95.8125 29.833 93.45C29.833 91.3375 28.8455 89.95 27.108 89.95C26.383 89.95 25.6455 90.3375 25.058 90.85L25.0955 89.675V87.0375H23.6705V97H24.7955L24.933 96.2875H24.9705C25.558 96.85 26.2455 97.1625 26.8705 97.1625ZM26.5955 95.975C26.1705 95.975 25.6205 95.8125 25.0955 95.35V91.9875C25.6705 91.425 26.1955 91.15 26.733 91.15C27.883 91.15 28.3455 92.0375 28.3455 93.475C28.3455 95.0875 27.5955 95.975 26.5955 95.975ZM33.5443 97.1625C34.4943 97.1625 35.1693 96.6875 35.7943 95.9625H35.8318L35.9443 97H37.1193V90.125H35.6818V94.9C35.1068 95.625 34.6693 95.925 34.0318 95.925C33.2193 95.925 32.8818 95.4625 32.8818 94.275V90.125H31.4443V94.45C31.4443 96.2 32.0818 97.1625 33.5443 97.1625ZM41.1458 97.1625C42.8458 97.1625 43.7583 96.225 43.7583 95.075C43.7583 93.775 42.6958 93.35 41.7333 92.9875C40.9833 92.7125 40.2708 92.4875 40.2708 91.9C40.2708 91.425 40.6208 91.05 41.3708 91.05C41.9458 91.05 42.4333 91.3 42.9083 91.65L43.5833 90.7625C43.0208 90.325 42.2708 89.95 41.3458 89.95C39.8333 89.95 38.9083 90.8125 38.9083 91.9625C38.9083 93.125 39.9583 93.6125 40.8708 93.9625C41.6208 94.25 42.3958 94.525 42.3958 95.15C42.3958 95.675 42.0083 96.075 41.1833 96.075C40.4458 96.075 39.8458 95.775 39.2333 95.2875L38.5583 96.2125C39.2208 96.7625 40.1958 97.1625 41.1458 97.1625ZM45.2892 97H46.7142V90.125H45.2892V97ZM46.0017 88.8375C46.5267 88.8375 46.9267 88.4875 46.9267 87.9875C46.9267 87.475 46.5267 87.1375 46.0017 87.1375C45.4767 87.1375 45.0892 87.475 45.0892 87.9875C45.0892 88.4875 45.4767 88.8375 46.0017 88.8375ZM48.878 97H50.303V92.125C50.9155 91.5125 51.353 91.1875 51.9905 91.1875C52.803 91.1875 53.153 91.6625 53.153 92.85V97H54.5905V92.675C54.5905 90.925 53.9405 89.95 52.478 89.95C51.5405 89.95 50.8405 90.4625 50.203 91.075H50.1655L50.053 90.125H48.878V97ZM59.5408 97.1625C60.4408 97.1625 61.2283 96.8625 61.8658 96.4375L61.3658 95.525C60.8658 95.85 60.3408 96.0375 59.7283 96.0375C58.5408 96.0375 57.7158 95.25 57.6033 93.9375H62.0658C62.1033 93.775 62.1283 93.4875 62.1283 93.2125C62.1283 91.2625 61.1533 89.95 59.3283 89.95C57.7158 89.95 56.1908 91.3375 56.1908 93.575C56.1908 95.8375 57.6783 97.1625 59.5408 97.1625ZM57.5908 92.95C57.7283 91.7375 58.4908 91.075 59.3533 91.075C60.3533 91.075 60.8908 91.7625 60.8908 92.95H57.5908ZM65.6087 97.1625C67.3087 97.1625 68.2212 96.225 68.2212 95.075C68.2212 93.775 67.1587 93.35 66.1962 92.9875C65.4462 92.7125 64.7337 92.4875 64.7337 91.9C64.7337 91.425 65.0837 91.05 65.8337 91.05C66.4087 91.05 66.8962 91.3 67.3712 91.65L68.0462 90.7625C67.4837 90.325 66.7337 89.95 65.8087 89.95C64.2962 89.95 63.3712 90.8125 63.3712 91.9625C63.3712 93.125 64.4212 93.6125 65.3337 93.9625C66.0837 94.25 66.8587 94.525 66.8587 95.15C66.8587 95.675 66.4712 96.075 65.6462 96.075C64.9087 96.075 64.3087 95.775 63.6962 95.2875L63.0212 96.2125C63.6837 96.7625 64.6587 97.1625 65.6087 97.1625ZM71.6146 97.1625C73.3146 97.1625 74.2271 96.225 74.2271 95.075C74.2271 93.775 73.1646 93.35 72.2021 92.9875C71.4521 92.7125 70.7396 92.4875 70.7396 91.9C70.7396 91.425 71.0896 91.05 71.8396 91.05C72.4146 91.05 72.9021 91.3 73.3771 91.65L74.0521 90.7625C73.4896 90.325 72.7396 89.95 71.8146 89.95C70.3021 89.95 69.3771 90.8125 69.3771 91.9625C69.3771 93.125 70.4271 93.6125 71.3396 93.9625C72.0896 94.25 72.8646 94.525 72.8646 95.15C72.8646 95.675 72.4771 96.075 71.6521 96.075C70.9146 96.075 70.3146 95.775 69.7021 95.2875L69.0271 96.2125C69.6896 96.7625 70.6646 97.1625 71.6146 97.1625ZM81.3655 97.1625C82.153 97.1625 82.9655 96.875 83.5905 96.3125L83.003 95.3625C82.5905 95.7125 82.078 95.9875 81.503 95.9875C80.353 95.9875 79.5655 95.025 79.5655 93.575C79.5655 92.1125 80.3905 91.1375 81.5405 91.1375C82.0155 91.1375 82.403 91.3375 82.778 91.675L83.4905 90.7375C82.9905 90.3 82.353 89.95 81.478 89.95C79.6655 89.95 78.078 91.275 78.078 93.575C78.078 95.85 79.503 97.1625 81.3655 97.1625ZM87.4435 97.1625C89.1435 97.1625 90.681 95.85 90.681 93.575C90.681 91.275 89.1435 89.95 87.4435 89.95C85.7435 89.95 84.206 91.275 84.206 93.575C84.206 95.85 85.7435 97.1625 87.4435 97.1625ZM87.4435 95.9875C86.3685 95.9875 85.6935 95.025 85.6935 93.575C85.6935 92.1125 86.3685 91.1375 87.4435 91.1375C88.531 91.1375 89.206 92.1125 89.206 93.575C89.206 95.025 88.531 95.9875 87.4435 95.9875ZM92.3717 97H93.7967V92.125C94.3717 91.5 94.8842 91.1875 95.3467 91.1875C96.1342 91.1875 96.4967 91.6625 96.4967 92.85V97H97.9342V92.125C98.5092 91.5 99.0092 91.1875 99.4842 91.1875C100.259 91.1875 100.634 91.6625 100.634 92.85V97H102.072V92.675C102.072 90.925 101.397 89.95 99.9592 89.95C99.0967 89.95 98.3967 90.4875 97.7217 91.2125C97.4217 90.425 96.8467 89.95 95.8217 89.95C94.9717 89.95 94.2842 90.4625 93.6967 91.0875H93.6592L93.5467 90.125H92.3717V97ZM104.151 97H105.576V92.125C106.151 91.5 106.664 91.1875 107.126 91.1875C107.914 91.1875 108.276 91.6625 108.276 92.85V97H109.714V92.125C110.289 91.5 110.789 91.1875 111.264 91.1875C112.039 91.1875 112.414 91.6625 112.414 92.85V97H113.851V92.675C113.851 90.925 113.176 89.95 111.739 89.95C110.876 89.95 110.176 90.4875 109.501 91.2125C109.201 90.425 108.626 89.95 107.601 89.95C106.751 89.95 106.064 90.4625 105.476 91.0875H105.439L105.326 90.125H104.151V97ZM117.944 97.1625C118.894 97.1625 119.569 96.6875 120.194 95.9625H120.231L120.344 97H121.519V90.125H120.081V94.9C119.506 95.625 119.069 95.925 118.431 95.925C117.619 95.925 117.281 95.4625 117.281 94.275V90.125H115.844V94.45C115.844 96.2 116.481 97.1625 117.944 97.1625ZM123.683 97H125.108V92.125C125.72 91.5125 126.158 91.1875 126.795 91.1875C127.608 91.1875 127.958 91.6625 127.958 92.85V97H129.395V92.675C129.395 90.925 128.745 89.95 127.283 89.95C126.345 89.95 125.645 90.4625 125.008 91.075H124.97L124.858 90.125H123.683V97ZM131.483 97H132.908V90.125H131.483V97ZM132.196 88.8375C132.721 88.8375 133.121 88.4875 133.121 87.9875C133.121 87.475 132.721 87.1375 132.196 87.1375C131.671 87.1375 131.283 87.475 131.283 87.9875C131.283 88.4875 131.671 88.8375 132.196 88.8375ZM137.872 97.1625C138.659 97.1625 139.472 96.875 140.097 96.3125L139.509 95.3625C139.097 95.7125 138.584 95.9875 138.009 95.9875C136.859 95.9875 136.072 95.025 136.072 93.575C136.072 92.1125 136.897 91.1375 138.047 91.1375C138.522 91.1375 138.909 91.3375 139.284 91.675L139.997 90.7375C139.497 90.3 138.859 89.95 137.984 89.95C136.172 89.95 134.584 91.275 134.584 93.575C134.584 95.85 136.009 97.1625 137.872 97.1625ZM143.02 97.1625C143.845 97.1625 144.583 96.75 145.208 96.2125H145.245L145.37 97H146.545V92.8625C146.545 91.0375 145.758 89.95 144.045 89.95C142.945 89.95 141.983 90.4 141.27 90.85L141.808 91.825C142.395 91.45 143.07 91.125 143.795 91.125C144.808 91.125 145.095 91.825 145.108 92.625C142.245 92.9375 140.995 93.7 140.995 95.175C140.995 96.3875 141.833 97.1625 143.02 97.1625ZM143.458 96.025C142.845 96.025 142.383 95.75 142.383 95.075C142.383 94.3 143.07 93.7875 145.108 93.5375V95.225C144.545 95.7375 144.058 96.025 143.458 96.025ZM150.69 97.1625C151.19 97.1625 151.653 97.0375 152.04 96.9125L151.778 95.85C151.578 95.9375 151.278 96.0125 151.04 96.0125C150.328 96.0125 150.04 95.5875 150.04 94.7625V91.275H151.828V90.125H150.04V88.225H148.828L148.665 90.125L147.603 90.2V91.275H148.603V94.75C148.603 96.2 149.14 97.1625 150.69 97.1625ZM153.334 97H154.759V90.125H153.334V97ZM154.046 88.8375C154.571 88.8375 154.971 88.4875 154.971 87.9875C154.971 87.475 154.571 87.1375 154.046 87.1375C153.521 87.1375 153.134 87.475 153.134 87.9875C153.134 88.4875 153.521 88.8375 154.046 88.8375ZM159.672 97.1625C161.372 97.1625 162.91 95.85 162.91 93.575C162.91 91.275 161.372 89.95 159.672 89.95C157.972 89.95 156.435 91.275 156.435 93.575C156.435 95.85 157.972 97.1625 159.672 97.1625ZM159.672 95.9875C158.597 95.9875 157.922 95.025 157.922 93.575C157.922 92.1125 158.597 91.1375 159.672 91.1375C160.76 91.1375 161.435 92.1125 161.435 93.575C161.435 95.025 160.76 95.9875 159.672 95.9875ZM164.601 97H166.026V92.125C166.638 91.5125 167.076 91.1875 167.713 91.1875C168.526 91.1875 168.876 91.6625 168.876 92.85V97H170.313V92.675C170.313 90.925 169.663 89.95 168.201 89.95C167.263 89.95 166.563 90.4625 165.926 91.075H165.888L165.776 90.125H164.601V97Z" fill="black"/>
<path d="M261.376 40.96H251V36.8161L259.93 23.0142H266.253V36.8292H269.273V40.96H266.253V45.4823H261.376V40.96ZM261.376 36.8227V28.163L255.931 36.8161L261.376 36.8227ZM270.769 38.9174H275.844C276.042 40.712 277.092 41.7594 279.219 41.7594C281.346 41.7594 282.594 40.2422 282.594 38.1702C282.594 36.0983 281.346 34.6137 279.135 34.6137C278.505 34.5855 277.878 34.7093 277.309 34.974C276.74 35.2387 276.247 35.6361 275.875 36.1309H271.185L271.856 23.0044H286.458V27.2788H276.545L276.287 31.4977C277.415 30.8599 278.7 30.5349 280.004 30.5579C284.54 30.5579 287.602 33.3999 287.602 38.1702C287.602 42.9406 283.973 46.0011 279.216 46.0011C274.191 46.0011 271.128 43.244 270.759 38.9109L270.769 38.9174Z" fill="#00AAFF"/>
<path d="M295.563 34.8213C295.563 36.4788 294.305 37.6894 292.476 37.6894C290.648 37.6894 289.407 36.4788 289.407 34.8213C289.407 33.1638 290.665 31.9402 292.476 31.9402C294.288 31.9402 295.563 33.1474 295.563 34.8213ZM293.117 44.3358H291.004L299.296 32.149H301.4L293.117 44.3358ZM291.306 34.8213C291.3 34.9737 291.327 35.1257 291.384 35.2677C291.441 35.4097 291.528 35.5387 291.639 35.6467C291.75 35.7547 291.882 35.8394 292.028 35.8956C292.174 35.9517 292.33 35.9781 292.487 35.9731C292.643 35.9781 292.8 35.9517 292.946 35.8956C293.092 35.8395 293.224 35.7548 293.335 35.6469C293.446 35.5389 293.533 35.4099 293.591 35.2679C293.649 35.1259 293.676 34.9739 293.671 34.8213C293.675 34.669 293.648 34.5173 293.59 34.3757C293.532 34.2341 293.445 34.1055 293.334 33.9979C293.223 33.8903 293.091 33.8059 292.945 33.75C292.799 33.6941 292.643 33.6678 292.487 33.6728C292.329 33.6664 292.172 33.6917 292.026 33.747C291.879 33.8023 291.745 33.8866 291.633 33.9944C291.522 34.1022 291.434 34.2313 291.376 34.3735C291.318 34.5158 291.29 34.6683 291.296 34.8213H291.306ZM303.007 41.6733C303.007 43.3309 301.749 44.5414 299.92 44.5414C298.092 44.5414 296.848 43.3309 296.848 41.6733C296.848 40.0158 298.109 38.789 299.92 38.789C301.732 38.789 302.997 40.006 302.997 41.6799L303.007 41.6733ZM298.736 41.6733C298.732 41.8257 298.759 41.9773 298.817 42.1189C298.875 42.2606 298.962 42.3891 299.073 42.4967C299.184 42.6044 299.316 42.6887 299.462 42.7446C299.608 42.8006 299.764 42.8268 299.92 42.8219C300.077 42.8269 300.233 42.8006 300.378 42.7446C300.524 42.6887 300.656 42.6042 300.767 42.4966C300.877 42.3889 300.964 42.2603 301.022 42.1187C301.079 41.9771 301.106 41.8255 301.101 41.6733C301.107 41.5209 301.08 41.369 301.023 41.227C300.965 41.085 300.879 40.956 300.768 40.8479C300.657 40.7399 300.525 40.6552 300.379 40.5991C300.233 40.5429 300.077 40.5165 299.92 40.5215C299.762 40.5151 299.604 40.5407 299.456 40.5966C299.309 40.6524 299.175 40.7375 299.062 40.8463C298.95 40.9551 298.862 41.0854 298.805 41.2288C298.747 41.3723 298.72 41.5259 298.726 41.6799L298.736 41.6733Z" fill="#00AAFF"/>
<path opacity="0.1" d="M218 52C227.389 52 235 44.3888 235 35C235 25.6112 227.389 18 218 18C208.611 18 201 25.6112 201 35C201 44.3888 208.611 52 218 52Z" fill="#397AF6"/>
<path fill-rule="evenodd" clip-rule="evenodd" d="M217.414 18V35.2834L227.325 49.2065C224.648 50.9663 221.443 51.9901 218 51.9901C208.611 51.9901 201 44.3789 201 34.9901C201 25.7974 208.296 18.309 217.414 18Z" fill="#31A8F6"/>
<path d="M203.95 81.1625C205.65 81.1625 206.563 80.225 206.563 79.075C206.563 77.775 205.5 77.35 204.538 76.9875C203.788 76.7125 203.075 76.4875 203.075 75.9C203.075 75.425 203.425 75.05 204.175 75.05C204.75 75.05 205.238 75.3 205.713 75.65L206.388 74.7625C205.825 74.325 205.075 73.95 204.15 73.95C202.638 73.95 201.713 74.8125 201.713 75.9625C201.713 77.125 202.763 77.6125 203.675 77.9625C204.425 78.25 205.2 78.525 205.2 79.15C205.2 79.675 204.813 80.075 203.988 80.075C203.25 80.075 202.65 79.775 202.038 79.2875L201.363 80.2125C202.025 80.7625 203 81.1625 203.95 81.1625ZM208.093 81H209.518V76.125C210.131 75.5125 210.568 75.1875 211.206 75.1875C212.018 75.1875 212.368 75.6625 212.368 76.85V81H213.806V76.675C213.806 74.925 213.156 73.95 211.693 73.95C210.756 73.95 210.068 74.4625 209.468 75.0375L209.518 73.675V71.0375H208.093V81ZM217.482 81.1625C218.307 81.1625 219.045 80.75 219.67 80.2125H219.707L219.832 81H221.007V76.8625C221.007 75.0375 220.22 73.95 218.507 73.95C217.407 73.95 216.445 74.4 215.732 74.85L216.27 75.825C216.857 75.45 217.532 75.125 218.257 75.125C219.27 75.125 219.557 75.825 219.57 76.625C216.707 76.9375 215.457 77.7 215.457 79.175C215.457 80.3875 216.295 81.1625 217.482 81.1625ZM217.92 80.025C217.307 80.025 216.845 79.75 216.845 79.075C216.845 78.3 217.532 77.7875 219.57 77.5375V79.225C219.007 79.7375 218.52 80.025 217.92 80.025ZM223.047 81H224.472V76.7125C224.909 75.625 225.584 75.2375 226.147 75.2375C226.422 75.2375 226.597 75.275 226.834 75.35L227.097 74.1C226.884 74 226.659 73.95 226.322 73.95C225.584 73.95 224.859 74.475 224.372 75.3625H224.334L224.222 74.125H223.047V81ZM230.89 81.1625C231.79 81.1625 232.577 80.8625 233.215 80.4375L232.715 79.525C232.215 79.85 231.69 80.0375 231.077 80.0375C229.89 80.0375 229.065 79.25 228.952 77.9375H233.415C233.452 77.775 233.477 77.4875 233.477 77.2125C233.477 75.2625 232.502 73.95 230.677 73.95C229.065 73.95 227.54 75.3375 227.54 77.575C227.54 79.8375 229.027 81.1625 230.89 81.1625ZM228.94 76.95C229.077 75.7375 229.84 75.075 230.702 75.075C231.702 75.075 232.24 75.7625 232.24 76.95H228.94ZM239.528 81.1625C240.353 81.1625 241.09 80.75 241.715 80.2125H241.753L241.878 81H243.053V76.8625C243.053 75.0375 242.265 73.95 240.553 73.95C239.453 73.95 238.49 74.4 237.778 74.85L238.315 75.825C238.903 75.45 239.578 75.125 240.303 75.125C241.315 75.125 241.603 75.825 241.615 76.625C238.753 76.9375 237.503 77.7 237.503 79.175C237.503 80.3875 238.34 81.1625 239.528 81.1625ZM239.965 80.025C239.353 80.025 238.89 79.75 238.89 79.075C238.89 78.3 239.578 77.7875 241.615 77.5375V79.225C241.053 79.7375 240.565 80.025 239.965 80.025ZM249.013 81H250.675L251.513 77.6125C251.688 76.9625 251.813 76.325 251.95 75.6125H252.013C252.163 76.325 252.288 76.95 252.45 77.6L253.325 81H255.05L256.825 74.125H255.475L254.588 77.85C254.438 78.5125 254.325 79.15 254.188 79.8H254.138C253.975 79.15 253.838 78.5125 253.675 77.85L252.688 74.125H251.35L250.388 77.85C250.225 78.5 250.088 79.15 249.938 79.8H249.888C249.763 79.15 249.65 78.5125 249.513 77.85L248.6 74.125H247.15L249.013 81ZM258.252 81H259.677V76.7125C260.115 75.625 260.79 75.2375 261.352 75.2375C261.627 75.2375 261.802 75.275 262.04 75.35L262.302 74.1C262.09 74 261.865 73.95 261.527 73.95C260.79 73.95 260.065 74.475 259.577 75.3625H259.54L259.427 74.125H258.252V81ZM265.983 81.1625C267.683 81.1625 269.22 79.85 269.22 77.575C269.22 75.275 267.683 73.95 265.983 73.95C264.283 73.95 262.745 75.275 262.745 77.575C262.745 79.85 264.283 81.1625 265.983 81.1625ZM265.983 79.9875C264.908 79.9875 264.233 79.025 264.233 77.575C264.233 76.1125 264.908 75.1375 265.983 75.1375C267.07 75.1375 267.745 76.1125 267.745 77.575C267.745 79.025 267.07 79.9875 265.983 79.9875ZM270.911 81H272.336V76.125C272.948 75.5125 273.386 75.1875 274.023 75.1875C274.836 75.1875 275.186 75.6625 275.186 76.85V81H276.623V76.675C276.623 74.925 275.973 73.95 274.511 73.95C273.573 73.95 272.873 74.4625 272.236 75.075H272.198L272.086 74.125H270.911V81ZM281.061 84.0875C283.261 84.0875 284.661 83.0125 284.661 81.6875C284.661 80.5125 283.811 80.0125 282.186 80.0125H280.924C280.049 80.0125 279.774 79.75 279.774 79.3375C279.774 79.0125 279.924 78.8125 280.149 78.6125C280.449 78.75 280.799 78.825 281.111 78.825C282.549 78.825 283.686 77.9625 283.686 76.4625C283.686 75.9375 283.499 75.475 283.236 75.2H284.549V74.125H282.111C281.849 74.025 281.499 73.95 281.111 73.95C279.686 73.95 278.449 74.8625 278.449 76.425C278.449 77.2375 278.886 77.8875 279.349 78.25V78.3C278.974 78.575 278.586 79.0375 278.586 79.575C278.586 80.1375 278.861 80.5 279.211 80.7125V80.775C278.574 81.1625 278.211 81.7 278.211 82.275C278.211 83.475 279.411 84.0875 281.061 84.0875ZM281.111 77.9C280.399 77.9 279.811 77.3375 279.811 76.425C279.811 75.4875 280.386 74.9625 281.111 74.9625C281.836 74.9625 282.411 75.5 282.411 76.425C282.411 77.3375 281.824 77.9 281.111 77.9ZM281.274 83.1375C280.136 83.1375 279.436 82.7375 279.436 82.0625C279.436 81.7125 279.611 81.3625 280.024 81.0625C280.311 81.125 280.624 81.1625 280.949 81.1625H281.986C282.824 81.1625 283.274 81.3375 283.274 81.9125C283.274 82.55 282.474 83.1375 281.274 83.1375ZM291.12 81.1625C291.895 81.1625 292.608 80.75 293.12 80.225H293.158L293.283 81H294.458V71.0375H293.02V73.5875L293.083 74.725C292.52 74.25 292.02 73.95 291.233 73.95C289.695 73.95 288.283 75.3375 288.283 77.575C288.283 79.85 289.395 81.1625 291.12 81.1625ZM291.458 79.975C290.383 79.975 289.77 79.1125 289.77 77.55C289.77 76.0625 290.545 75.15 291.508 75.15C292.02 75.15 292.508 75.3125 293.02 75.775V79.1375C292.52 79.7125 292.033 79.975 291.458 79.975ZM299.369 81.1625C301.069 81.1625 302.606 79.85 302.606 77.575C302.606 75.275 301.069 73.95 299.369 73.95C297.669 73.95 296.131 75.275 296.131 77.575C296.131 79.85 297.669 81.1625 299.369 81.1625ZM299.369 79.9875C298.294 79.9875 297.619 79.025 297.619 77.575C297.619 76.1125 298.294 75.1375 299.369 75.1375C300.456 75.1375 301.131 76.1125 301.131 77.575C301.131 79.025 300.456 79.9875 299.369 79.9875ZM307.097 81.1625C307.884 81.1625 308.697 80.875 309.322 80.3125L308.734 79.3625C308.322 79.7125 307.809 79.9875 307.234 79.9875C306.084 79.9875 305.297 79.025 305.297 77.575C305.297 76.1125 306.122 75.1375 307.272 75.1375C307.747 75.1375 308.134 75.3375 308.509 75.675L309.222 74.7375C308.722 74.3 308.084 73.95 307.209 73.95C305.397 73.95 303.809 75.275 303.809 77.575C303.809 79.85 305.234 81.1625 307.097 81.1625ZM312.767 81.1625C313.717 81.1625 314.392 80.6875 315.017 79.9625H315.054L315.167 81H316.342V74.125H314.904V78.9C314.329 79.625 313.892 79.925 313.254 79.925C312.442 79.925 312.104 79.4625 312.104 78.275V74.125H310.667V78.45C310.667 80.2 311.304 81.1625 312.767 81.1625ZM318.506 81H319.931V76.125C320.506 75.5 321.018 75.1875 321.481 75.1875C322.268 75.1875 322.631 75.6625 322.631 76.85V81H324.068V76.125C324.643 75.5 325.143 75.1875 325.618 75.1875C326.393 75.1875 326.768 75.6625 326.768 76.85V81H328.206V76.675C328.206 74.925 327.531 73.95 326.093 73.95C325.231 73.95 324.531 74.4875 323.856 75.2125C323.556 74.425 322.981 73.95 321.956 73.95C321.106 73.95 320.418 74.4625 319.831 75.0875H319.793L319.681 74.125H318.506V81ZM333.148 81.1625C334.048 81.1625 334.836 80.8625 335.473 80.4375L334.973 79.525C334.473 79.85 333.948 80.0375 333.336 80.0375C332.148 80.0375 331.323 79.25 331.211 77.9375H335.673C335.711 77.775 335.736 77.4875 335.736 77.2125C335.736 75.2625 334.761 73.95 332.936 73.95C331.323 73.95 329.798 75.3375 329.798 77.575C329.798 79.8375 331.286 81.1625 333.148 81.1625ZM331.198 76.95C331.336 75.7375 332.098 75.075 332.961 75.075C333.961 75.075 334.498 75.7625 334.498 76.95H331.198ZM337.354 81H338.779V76.125C339.391 75.5125 339.829 75.1875 340.466 75.1875C341.279 75.1875 341.629 75.6625 341.629 76.85V81H343.066V76.675C343.066 74.925 342.416 73.95 340.954 73.95C340.016 73.95 339.316 74.4625 338.679 75.075H338.641L338.529 74.125H337.354V81ZM347.466 81.1625C347.966 81.1625 348.429 81.0375 348.816 80.9125L348.554 79.85C348.354 79.9375 348.054 80.0125 347.816 80.0125C347.104 80.0125 346.816 79.5875 346.816 78.7625V75.275H348.604V74.125H346.816V72.225H345.604L345.441 74.125L344.379 74.2V75.275H345.379V78.75C345.379 80.2 345.916 81.1625 347.466 81.1625ZM202.088 97H203.513V92.125C204.088 91.5 204.6 91.1875 205.063 91.1875C205.85 91.1875 206.213 91.6625 206.213 92.85V97H207.65V92.125C208.225 91.5 208.725 91.1875 209.2 91.1875C209.975 91.1875 210.35 91.6625 210.35 92.85V97H211.788V92.675C211.788 90.925 211.113 89.95 209.675 89.95C208.812 89.95 208.113 90.4875 207.438 91.2125C207.138 90.425 206.563 89.95 205.538 89.95C204.688 89.95 204 90.4625 203.413 91.0875H203.375L203.263 90.125H202.088V97ZM216.617 97.1625C218.317 97.1625 219.855 95.85 219.855 93.575C219.855 91.275 218.317 89.95 216.617 89.95C214.917 89.95 213.38 91.275 213.38 93.575C213.38 95.85 214.917 97.1625 216.617 97.1625ZM216.617 95.9875C215.542 95.9875 214.867 95.025 214.867 93.575C214.867 92.1125 215.542 91.1375 216.617 91.1375C217.705 91.1375 218.38 92.1125 218.38 93.575C218.38 95.025 217.705 95.9875 216.617 95.9875ZM221.546 97H222.971V92.7125C223.408 91.625 224.083 91.2375 224.646 91.2375C224.921 91.2375 225.096 91.275 225.333 91.35L225.596 90.1C225.383 90 225.158 89.95 224.821 89.95C224.083 89.95 223.358 90.475 222.871 91.3625H222.833L222.721 90.125H221.546V97ZM229.388 97.1625C230.288 97.1625 231.076 96.8625 231.713 96.4375L231.213 95.525C230.713 95.85 230.188 96.0375 229.576 96.0375C228.388 96.0375 227.563 95.25 227.451 93.9375H231.913C231.951 93.775 231.976 93.4875 231.976 93.2125C231.976 91.2625 231.001 89.95 229.176 89.95C227.563 89.95 226.038 91.3375 226.038 93.575C226.038 95.8375 227.526 97.1625 229.388 97.1625ZM227.438 92.95C227.576 91.7375 228.338 91.075 229.201 91.075C230.201 91.075 230.738 91.7625 230.738 92.95H227.438ZM238.714 97.1625C239.214 97.1625 239.676 97.0375 240.064 96.9125L239.801 95.85C239.601 95.9375 239.301 96.0125 239.064 96.0125C238.351 96.0125 238.064 95.5875 238.064 94.7625V91.275H239.851V90.125H238.064V88.225H236.851L236.689 90.125L235.626 90.2V91.275H236.626V94.75C236.626 96.2 237.164 97.1625 238.714 97.1625ZM241.358 97H242.783V92.125C243.395 91.5125 243.833 91.1875 244.47 91.1875C245.283 91.1875 245.633 91.6625 245.633 92.85V97H247.07V92.675C247.07 90.925 246.42 89.95 244.958 89.95C244.02 89.95 243.333 90.4625 242.733 91.0375L242.783 89.675V87.0375H241.358V97ZM250.746 97.1625C251.571 97.1625 252.309 96.75 252.934 96.2125H252.971L253.096 97H254.271V92.8625C254.271 91.0375 253.484 89.95 251.771 89.95C250.671 89.95 249.709 90.4 248.996 90.85L249.534 91.825C250.121 91.45 250.796 91.125 251.521 91.125C252.534 91.125 252.821 91.825 252.834 92.625C249.971 92.9375 248.721 93.7 248.721 95.175C248.721 96.3875 249.559 97.1625 250.746 97.1625ZM251.184 96.025C250.571 96.025 250.109 95.75 250.109 95.075C250.109 94.3 250.796 93.7875 252.834 93.5375V95.225C252.271 95.7375 251.784 96.025 251.184 96.025ZM256.311 97H257.736V92.125C258.349 91.5125 258.786 91.1875 259.424 91.1875C260.236 91.1875 260.586 91.6625 260.586 92.85V97H262.024V92.675C262.024 90.925 261.374 89.95 259.911 89.95C258.974 89.95 258.274 90.4625 257.636 91.075H257.599L257.486 90.125H256.311V97ZM269.669 97.1625C271.369 97.1625 272.907 95.85 272.907 93.575C272.907 91.275 271.369 89.95 269.669 89.95C267.969 89.95 266.432 91.275 266.432 93.575C266.432 95.85 267.969 97.1625 269.669 97.1625ZM269.669 95.9875C268.594 95.9875 267.919 95.025 267.919 93.575C267.919 92.1125 268.594 91.1375 269.669 91.1375C270.757 91.1375 271.432 92.1125 271.432 93.575C271.432 95.025 270.757 95.9875 269.669 95.9875ZM274.597 97H276.022V92.125C276.635 91.5125 277.072 91.1875 277.71 91.1875C278.522 91.1875 278.872 91.6625 278.872 92.85V97H280.31V92.675C280.31 90.925 279.66 89.95 278.197 89.95C277.26 89.95 276.56 90.4625 275.922 91.075H275.885L275.772 90.125H274.597V97ZM285.198 97.1625C285.985 97.1625 286.798 96.875 287.423 96.3125L286.835 95.3625C286.423 95.7125 285.91 95.9875 285.335 95.9875C284.185 95.9875 283.398 95.025 283.398 93.575C283.398 92.1125 284.223 91.1375 285.373 91.1375C285.848 91.1375 286.235 91.3375 286.61 91.675L287.323 90.7375C286.823 90.3 286.185 89.95 285.31 89.95C283.498 89.95 281.91 91.275 281.91 93.575C281.91 95.85 283.335 97.1625 285.198 97.1625ZM291.388 97.1625C292.288 97.1625 293.075 96.8625 293.713 96.4375L293.213 95.525C292.713 95.85 292.188 96.0375 291.575 96.0375C290.388 96.0375 289.563 95.25 289.45 93.9375H293.913C293.95 93.775 293.975 93.4875 293.975 93.2125C293.975 91.2625 293 89.95 291.175 89.95C289.563 89.95 288.038 91.3375 288.038 93.575C288.038 95.8375 289.525 97.1625 291.388 97.1625ZM289.438 92.95C289.575 91.7375 290.338 91.075 291.2 91.075C292.2 91.075 292.738 91.7625 292.738 92.95H289.438ZM300.026 97.1625C300.851 97.1625 301.588 96.75 302.213 96.2125H302.251L302.376 97H303.551V92.8625C303.551 91.0375 302.763 89.95 301.051 89.95C299.951 89.95 298.988 90.4 298.276 90.85L298.813 91.825C299.401 91.45 300.076 91.125 300.801 91.125C301.813 91.125 302.101 91.825 302.113 92.625C299.251 92.9375 298.001 93.7 298.001 95.175C298.001 96.3875 298.838 97.1625 300.026 97.1625ZM300.463 96.025C299.851 96.025 299.388 95.75 299.388 95.075C299.388 94.3 300.076 93.7875 302.113 93.5375V95.225C301.551 95.7375 301.063 96.025 300.463 96.025ZM308.399 97H309.824V92.125C310.399 91.5 310.911 91.1875 311.374 91.1875C312.161 91.1875 312.524 91.6625 312.524 92.85V97H313.961V92.125C314.536 91.5 315.036 91.1875 315.511 91.1875C316.286 91.1875 316.661 91.6625 316.661 92.85V97H318.099V92.675C318.099 90.925 317.424 89.95 315.986 89.95C315.124 89.95 314.424 90.4875 313.749 91.2125C313.449 90.425 312.874 89.95 311.849 89.95C310.999 89.95 310.311 90.4625 309.724 91.0875H309.686L309.574 90.125H308.399V97ZM322.928 97.1625C324.628 97.1625 326.166 95.85 326.166 93.575C326.166 91.275 324.628 89.95 322.928 89.95C321.228 89.95 319.691 91.275 319.691 93.575C319.691 95.85 321.228 97.1625 322.928 97.1625ZM322.928 95.9875C321.853 95.9875 321.178 95.025 321.178 93.575C321.178 92.1125 321.853 91.1375 322.928 91.1375C324.016 91.1375 324.691 92.1125 324.691 93.575C324.691 95.025 324.016 95.9875 322.928 95.9875ZM327.857 97H329.282V92.125C329.894 91.5125 330.332 91.1875 330.969 91.1875C331.782 91.1875 332.132 91.6625 332.132 92.85V97H333.569V92.675C333.569 90.925 332.919 89.95 331.457 89.95C330.519 89.95 329.819 90.4625 329.182 91.075H329.144L329.032 90.125H327.857V97ZM337.969 97.1625C338.469 97.1625 338.932 97.0375 339.319 96.9125L339.057 95.85C338.857 95.9375 338.557 96.0125 338.319 96.0125C337.607 96.0125 337.319 95.5875 337.319 94.7625V91.275H339.107V90.125H337.319V88.225H336.107L335.944 90.125L334.882 90.2V91.275H335.882V94.75C335.882 96.2 336.419 97.1625 337.969 97.1625ZM340.613 97H342.038V92.125C342.65 91.5125 343.088 91.1875 343.725 91.1875C344.538 91.1875 344.888 91.6625 344.888 92.85V97H346.325V92.675C346.325 90.925 345.675 89.95 344.213 89.95C343.275 89.95 342.588 90.4625 341.988 91.0375L342.038 89.675V87.0375H340.613V97Z" fill="black"/>
<path d="M86 158.989C86 156.776 86.7315 155.066 88.0876 152.939L94.0164 143.613H99.8317L94.6077 151.339C94.8167 151.265 95.037 151.227 95.259 151.226C99.7482 151.226 103.446 154.337 103.446 158.956C103.446 163.634 99.5511 166.967 94.7212 166.967C89.8913 166.967 86 163.859 86 158.989ZM98.4489 159.015C98.4489 156.971 97.0092 155.371 94.7212 155.371C92.4332 155.371 90.9902 156.971 90.9902 159.015C90.9902 161.06 92.4299 162.66 94.7146 162.66C96.9992 162.66 98.4489 161.06 98.4489 159.015ZM122.722 155.013C122.722 162.991 118.941 166.997 113.914 166.997C108.887 166.997 105.106 162.991 105.106 155.013C105.106 147.035 108.89 143 113.914 143C118.938 143 122.722 147.002 122.722 155.013ZM109.962 155.013C109.962 160.192 111.656 162.544 113.914 162.544C116.172 162.544 117.869 160.192 117.869 155.013C117.869 149.835 116.175 147.449 113.914 147.449C111.653 147.449 109.966 149.802 109.966 155.013H109.962Z" fill="#00AAFF"/>
<path d="M130.598 155.62C130.598 157.303 129.342 158.532 127.525 158.532C125.708 158.532 124.466 157.303 124.466 155.62C124.466 153.936 125.718 152.694 127.525 152.694C129.332 152.694 130.598 153.92 130.598 155.62ZM128.15 165.281H126.062L134.319 152.919H136.417L128.15 165.281ZM126.346 155.62C126.341 155.775 126.368 155.929 126.425 156.073C126.483 156.217 126.57 156.348 126.68 156.458C126.791 156.567 126.923 156.653 127.068 156.71C127.213 156.767 127.369 156.794 127.525 156.789C127.681 156.794 127.837 156.767 127.982 156.71C128.127 156.653 128.259 156.567 128.369 156.458C128.479 156.348 128.566 156.217 128.623 156.073C128.68 155.929 128.707 155.774 128.701 155.62C128.706 155.465 128.679 155.311 128.622 155.167C128.565 155.024 128.478 154.893 128.368 154.784C128.258 154.674 128.126 154.589 127.981 154.532C127.836 154.475 127.681 154.448 127.525 154.453C127.369 154.448 127.214 154.475 127.069 154.532C126.924 154.589 126.792 154.674 126.681 154.783C126.571 154.893 126.484 155.023 126.426 155.167C126.369 155.311 126.341 155.465 126.346 155.62ZM138 162.577C138 164.263 136.744 165.489 134.924 165.489C133.103 165.489 131.867 164.263 131.867 162.577C131.867 160.891 133.12 159.652 134.924 159.652C136.727 159.652 138 160.884 138 162.58V162.577ZM133.748 162.577C133.742 162.732 133.769 162.886 133.826 163.03C133.883 163.174 133.969 163.305 134.08 163.415C134.19 163.525 134.322 163.611 134.467 163.668C134.612 163.725 134.768 163.752 134.924 163.747C135.08 163.752 135.236 163.725 135.381 163.668C135.526 163.611 135.658 163.525 135.769 163.415C135.879 163.306 135.966 163.175 136.023 163.031C136.081 162.886 136.108 162.732 136.103 162.577C136.107 162.422 136.08 162.268 136.022 162.125C135.965 161.981 135.878 161.85 135.768 161.741C135.657 161.632 135.525 161.546 135.38 161.489C135.235 161.432 135.08 161.406 134.924 161.411C134.767 161.405 134.612 161.432 134.466 161.489C134.32 161.545 134.188 161.631 134.077 161.741C133.967 161.851 133.88 161.982 133.823 162.126C133.766 162.271 133.739 162.425 133.745 162.58L133.748 162.577Z" fill="#00AAFF"/>
<path opacity="0.1" d="M53 172C62.3888 172 70 164.389 70 155C70 145.611 62.3888 138 53 138C43.6112 138 36 145.611 36 155C36 164.389 43.6112 172 53 172Z" fill="#397AF6"/>
<path fill-rule="evenodd" clip-rule="evenodd" d="M51.5092 138.054L52.1205 155.577L46.3776 170.652C40.2788 168.07 36 162.029 36 154.99C36 146.103 42.8186 138.809 51.5092 138.054Z" fill="#31A8F6"/>
<path d="M38.0875 201H39.5125V196.125C40.125 195.512 40.5625 195.187 41.2 195.187C42.0125 195.187 42.3625 195.662 42.3625 196.85V201H43.8V196.675C43.8 194.925 43.15 193.95 41.6875 193.95C40.75 193.95 40.0625 194.462 39.4625 195.037L39.5125 193.675V191.037H38.0875V201ZM47.4762 201.163C48.3012 201.163 49.0387 200.75 49.6637 200.212H49.7012L49.8262 201H51.0012V196.862C51.0012 195.037 50.2137 193.95 48.5012 193.95C47.4012 193.95 46.4387 194.4 45.7262 194.85L46.2637 195.825C46.8512 195.45 47.5262 195.125 48.2512 195.125C49.2637 195.125 49.5512 195.825 49.5637 196.625C46.7012 196.937 45.4512 197.7 45.4512 199.175C45.4512 200.387 46.2887 201.163 47.4762 201.163ZM47.9137 200.025C47.3012 200.025 46.8387 199.75 46.8387 199.075C46.8387 198.3 47.5262 197.788 49.5637 197.537V199.225C49.0012 199.737 48.5137 200.025 47.9137 200.025ZM54.5536 201H56.2161L58.5911 194.125H57.1911L56.0161 197.825C55.8286 198.5 55.6161 199.2 55.4161 199.875H55.3661C55.1661 199.2 54.9536 198.5 54.7661 197.825L53.5911 194.125H52.1161L54.5536 201ZM62.6419 201.163C63.5419 201.163 64.3294 200.862 64.9669 200.437L64.4669 199.525C63.9669 199.85 63.4419 200.037 62.8294 200.037C61.6419 200.037 60.8169 199.25 60.7044 197.937H65.1669C65.2044 197.775 65.2294 197.487 65.2294 197.212C65.2294 195.262 64.2544 193.95 62.4294 193.95C60.8169 193.95 59.2919 195.337 59.2919 197.575C59.2919 199.837 60.7794 201.163 62.6419 201.163ZM60.6919 196.95C60.8294 195.737 61.5919 195.075 62.4544 195.075C63.4544 195.075 63.9919 195.762 63.9919 196.95H60.6919ZM69.6549 201H71.0799V196.125C71.6924 195.512 72.1299 195.187 72.7674 195.187C73.5799 195.187 73.9299 195.662 73.9299 196.85V201H75.3674V196.675C75.3674 194.925 74.7174 193.95 73.2549 193.95C72.3174 193.95 71.6174 194.462 70.9799 195.075H70.9424L70.8299 194.125H69.6549V201ZM80.2052 201.163C81.9052 201.163 83.4427 199.85 83.4427 197.575C83.4427 195.275 81.9052 193.95 80.2052 193.95C78.5052 193.95 76.9677 195.275 76.9677 197.575C76.9677 199.85 78.5052 201.163 80.2052 201.163ZM80.2052 199.987C79.1302 199.987 78.4552 199.025 78.4552 197.575C78.4552 196.112 79.1302 195.137 80.2052 195.137C81.2927 195.137 81.9677 196.112 81.9677 197.575C81.9677 199.025 81.2927 199.987 80.2052 199.987ZM89.8035 201.163C91.5035 201.163 92.416 200.225 92.416 199.075C92.416 197.775 91.3535 197.35 90.391 196.987C89.641 196.712 88.9285 196.487 88.9285 195.9C88.9285 195.425 89.2785 195.05 90.0285 195.05C90.6035 195.05 91.091 195.3 91.566 195.65L92.241 194.762C91.6785 194.325 90.9285 193.95 90.0035 193.95C88.491 193.95 87.566 194.812 87.566 195.962C87.566 197.125 88.616 197.612 89.5285 197.962C90.2785 198.25 91.0535 198.525 91.0535 199.15C91.0535 199.675 90.666 200.075 89.841 200.075C89.1035 200.075 88.5035 199.775 87.891 199.287L87.216 200.212C87.8785 200.762 88.8535 201.163 89.8035 201.163ZM96.8094 201.163C97.7094 201.163 98.4969 200.862 99.1344 200.437L98.6344 199.525C98.1344 199.85 97.6094 200.037 96.9969 200.037C95.8094 200.037 94.9844 199.25 94.8719 197.937H99.3344C99.3719 197.775 99.3969 197.487 99.3969 197.212C99.3969 195.262 98.4219 193.95 96.5969 193.95C94.9844 193.95 93.4594 195.337 93.4594 197.575C93.4594 199.837 94.9469 201.163 96.8094 201.163ZM94.8594 196.95C94.9969 195.737 95.7594 195.075 96.6219 195.075C97.6219 195.075 98.1594 195.762 98.1594 196.95H94.8594ZM103.815 201.163C104.602 201.163 105.415 200.875 106.04 200.312L105.452 199.362C105.04 199.712 104.527 199.987 103.952 199.987C102.802 199.987 102.015 199.025 102.015 197.575C102.015 196.112 102.84 195.137 103.99 195.137C104.465 195.137 104.852 195.337 105.227 195.675L105.94 194.737C105.44 194.3 104.802 193.95 103.927 193.95C102.115 193.95 100.527 195.275 100.527 197.575C100.527 199.85 101.952 201.163 103.815 201.163ZM109.485 201.163C110.435 201.163 111.11 200.687 111.735 199.962H111.772L111.885 201H113.06V194.125H111.622V198.9C111.047 199.625 110.61 199.925 109.972 199.925C109.16 199.925 108.822 199.462 108.822 198.275V194.125H107.385V198.45C107.385 200.2 108.022 201.163 109.485 201.163ZM115.224 201H116.649V196.712C117.086 195.625 117.761 195.237 118.324 195.237C118.599 195.237 118.774 195.275 119.011 195.35L119.274 194.1C119.061 194 118.836 193.95 118.499 193.95C117.761 193.95 117.036 194.475 116.549 195.362H116.511L116.399 194.125H115.224V201ZM120.338 201H121.763V194.125H120.338V201ZM121.051 192.837C121.576 192.837 121.976 192.487 121.976 191.987C121.976 191.475 121.576 191.137 121.051 191.137C120.526 191.137 120.138 191.475 120.138 191.987C120.138 192.487 120.526 192.837 121.051 192.837ZM126.24 201.163C126.74 201.163 127.202 201.038 127.59 200.912L127.327 199.85C127.127 199.937 126.827 200.012 126.59 200.012C125.877 200.012 125.59 199.587 125.59 198.762V195.275H127.377V194.125H125.59V192.225H124.377L124.215 194.125L123.152 194.2V195.275H124.152V198.75C124.152 200.2 124.69 201.163 126.24 201.163ZM134.433 194.125H133.033L131.933 197.662L131.396 199.6H131.333C131.121 198.962 130.908 198.275 130.708 197.662L129.433 194.125H127.958L130.683 200.95L130.546 201.425C130.296 202.163 129.858 202.713 129.108 202.713C128.933 202.713 128.733 202.65 128.608 202.613L128.333 203.738C128.571 203.825 128.846 203.875 129.196 203.875C130.646 203.875 131.371 202.888 131.908 201.412L134.433 194.125ZM138.49 203.788H139.915V201.563L139.878 200.387C140.465 200.887 141.078 201.163 141.69 201.163C143.24 201.163 144.653 199.812 144.653 197.45C144.653 195.337 143.678 193.95 141.928 193.95C141.165 193.95 140.415 194.375 139.815 194.875H139.778L139.665 194.125H138.49V203.788ZM141.415 199.975C140.99 199.975 140.453 199.812 139.915 199.35V195.987C140.503 195.425 141.015 195.15 141.553 195.15C142.703 195.15 143.165 196.037 143.165 197.475C143.165 199.087 142.415 199.975 141.415 199.975ZM149.114 201.163C150.814 201.163 152.351 199.85 152.351 197.575C152.351 195.275 150.814 193.95 149.114 193.95C147.414 193.95 145.876 195.275 145.876 197.575C145.876 199.85 147.414 201.163 149.114 201.163ZM149.114 199.987C148.039 199.987 147.364 199.025 147.364 197.575C147.364 196.112 148.039 195.137 149.114 195.137C150.201 195.137 150.876 196.112 150.876 197.575C150.876 199.025 150.201 199.987 149.114 199.987ZM155.467 201.163C155.817 201.163 156.067 201.113 156.242 201.05L156.055 199.962C155.93 199.987 155.88 199.987 155.817 199.987C155.642 199.987 155.467 199.85 155.467 199.462V191.037H154.042V199.387C154.042 200.5 154.43 201.163 155.467 201.163ZM157.765 201H159.19V194.125H157.765V201ZM158.478 192.837C159.003 192.837 159.403 192.487 159.403 191.987C159.403 191.475 159.003 191.137 158.478 191.137C157.953 191.137 157.565 191.475 157.565 191.987C157.565 192.487 157.953 192.837 158.478 192.837ZM164.154 201.163C164.942 201.163 165.754 200.875 166.379 200.312L165.792 199.362C165.379 199.712 164.867 199.987 164.292 199.987C163.142 199.987 162.354 199.025 162.354 197.575C162.354 196.112 163.179 195.137 164.329 195.137C164.804 195.137 165.192 195.337 165.567 195.675L166.279 194.737C165.779 194.3 165.142 193.95 164.267 193.95C162.454 193.95 160.867 195.275 160.867 197.575C160.867 199.85 162.292 201.163 164.154 201.163ZM173.435 194.125H172.035L170.935 197.662L170.397 199.6H170.335C170.122 198.962 169.91 198.275 169.71 197.662L168.435 194.125H166.96L169.685 200.95L169.547 201.425C169.297 202.163 168.86 202.713 168.11 202.713C167.935 202.713 167.735 202.65 167.61 202.613L167.335 203.738C167.572 203.825 167.847 203.875 168.197 203.875C169.647 203.875 170.372 202.888 170.91 201.412L173.435 194.125ZM179.117 201.163C179.942 201.163 180.679 200.75 181.304 200.212H181.342L181.467 201H182.642V196.862C182.642 195.037 181.854 193.95 180.142 193.95C179.042 193.95 178.079 194.4 177.367 194.85L177.904 195.825C178.492 195.45 179.167 195.125 179.892 195.125C180.904 195.125 181.192 195.825 181.204 196.625C178.342 196.937 177.092 197.7 177.092 199.175C177.092 200.387 177.929 201.163 179.117 201.163ZM179.554 200.025C178.942 200.025 178.479 199.75 178.479 199.075C178.479 198.3 179.167 197.788 181.204 197.537V199.225C180.642 199.737 180.154 200.025 179.554 200.025ZM184.682 203.788H186.107V201.563L186.069 200.387C186.657 200.887 187.269 201.163 187.882 201.163C189.432 201.163 190.844 199.812 190.844 197.45C190.844 195.337 189.869 193.95 188.119 193.95C187.357 193.95 186.607 194.375 186.007 194.875H185.969L185.857 194.125H184.682V203.788ZM187.607 199.975C187.182 199.975 186.644 199.812 186.107 199.35V195.987C186.694 195.425 187.207 195.15 187.744 195.15C188.894 195.15 189.357 196.037 189.357 197.475C189.357 199.087 188.607 199.975 187.607 199.975ZM192.555 203.788H193.98V201.563L193.943 200.387C194.53 200.887 195.143 201.163 195.755 201.163C197.305 201.163 198.718 199.812 198.718 197.45C198.718 195.337 197.743 193.95 195.993 193.95C195.23 193.95 194.48 194.375 193.88 194.875H193.843L193.73 194.125H192.555V203.788ZM195.48 199.975C195.055 199.975 194.518 199.812 193.98 199.35V195.987C194.568 195.425 195.08 195.15 195.618 195.15C196.768 195.15 197.23 196.037 197.23 197.475C197.23 199.087 196.48 199.975 195.48 199.975ZM201.854 201.163C202.204 201.163 202.454 201.113 202.629 201.05L202.441 199.962C202.316 199.987 202.266 199.987 202.204 199.987C202.029 199.987 201.854 199.85 201.854 199.462V191.037H200.429V199.387C200.429 200.5 200.816 201.163 201.854 201.163ZM204.152 201H205.577V194.125H204.152V201ZM204.864 192.837C205.389 192.837 205.789 192.487 205.789 191.987C205.789 191.475 205.389 191.137 204.864 191.137C204.339 191.137 203.952 191.475 203.952 191.987C203.952 192.487 204.339 192.837 204.864 192.837ZM210.603 201.163C211.503 201.163 212.291 200.862 212.928 200.437L212.428 199.525C211.928 199.85 211.403 200.037 210.791 200.037C209.603 200.037 208.778 199.25 208.666 197.937H213.128C213.166 197.775 213.191 197.487 213.191 197.212C213.191 195.262 212.216 193.95 210.391 193.95C208.778 193.95 207.253 195.337 207.253 197.575C207.253 199.837 208.741 201.163 210.603 201.163ZM208.653 196.95C208.791 195.737 209.553 195.075 210.416 195.075C211.416 195.075 211.953 195.762 211.953 196.95H208.653ZM217.184 201.163C217.959 201.163 218.671 200.75 219.184 200.225H219.221L219.346 201H220.521V191.037H219.084V193.587L219.146 194.725C218.584 194.25 218.084 193.95 217.296 193.95C215.759 193.95 214.346 195.337 214.346 197.575C214.346 199.85 215.459 201.163 217.184 201.163ZM217.521 199.975C216.446 199.975 215.834 199.112 215.834 197.55C215.834 196.062 216.609 195.15 217.571 195.15C218.084 195.15 218.571 195.312 219.084 195.775V199.137C218.584 199.712 218.096 199.975 217.521 199.975ZM227.802 201.163C228.302 201.163 228.765 201.038 229.152 200.912L228.89 199.85C228.69 199.937 228.39 200.012 228.152 200.012C227.44 200.012 227.152 199.587 227.152 198.762V195.275H228.94V194.125H227.152V192.225H225.94L225.777 194.125L224.715 194.2V195.275H225.715V198.75C225.715 200.2 226.252 201.163 227.802 201.163ZM232.988 201.163C234.688 201.163 236.226 199.85 236.226 197.575C236.226 195.275 234.688 193.95 232.988 193.95C231.288 193.95 229.751 195.275 229.751 197.575C229.751 199.85 231.288 201.163 232.988 201.163ZM232.988 199.987C231.913 199.987 231.238 199.025 231.238 197.575C231.238 196.112 231.913 195.137 232.988 195.137C234.076 195.137 234.751 196.112 234.751 197.575C234.751 199.025 234.076 199.987 232.988 199.987ZM242.349 201.163C243.174 201.163 243.912 200.75 244.537 200.212H244.574L244.699 201H245.874V196.862C245.874 195.037 245.087 193.95 243.374 193.95C242.274 193.95 241.312 194.4 240.599 194.85L241.137 195.825C241.724 195.45 242.399 195.125 243.124 195.125C244.137 195.125 244.424 195.825 244.437 196.625C241.574 196.937 240.324 197.7 240.324 199.175C240.324 200.387 241.162 201.163 242.349 201.163ZM242.787 200.025C242.174 200.025 241.712 199.75 241.712 199.075C241.712 198.3 242.399 197.788 244.437 197.537V199.225C243.874 199.737 243.387 200.025 242.787 200.025ZM250.722 201H252.147V196.125C252.722 195.5 253.234 195.187 253.697 195.187C254.484 195.187 254.847 195.662 254.847 196.85V201H256.284V196.125C256.859 195.5 257.359 195.187 257.834 195.187C258.609 195.187 258.984 195.662 258.984 196.85V201H260.422V196.675C260.422 194.925 259.747 193.95 258.309 193.95C257.447 193.95 256.747 194.487 256.072 195.212C255.772 194.425 255.197 193.95 254.172 193.95C253.322 193.95 252.634 194.462 252.047 195.087H252.009L251.897 194.125H250.722V201ZM265.364 201.163C266.264 201.163 267.052 200.862 267.689 200.437L267.189 199.525C266.689 199.85 266.164 200.037 265.552 200.037C264.364 200.037 263.539 199.25 263.427 197.937H267.889C267.927 197.775 267.952 197.487 267.952 197.212C267.952 195.262 266.977 193.95 265.152 193.95C263.539 193.95 262.014 195.337 262.014 197.575C262.014 199.837 263.502 201.163 265.364 201.163ZM263.414 196.95C263.552 195.737 264.314 195.075 265.177 195.075C266.177 195.075 266.714 195.762 266.714 196.95H263.414ZM271.432 201.163C273.132 201.163 274.044 200.225 274.044 199.075C274.044 197.775 272.982 197.35 272.019 196.987C271.269 196.712 270.557 196.487 270.557 195.9C270.557 195.425 270.907 195.05 271.657 195.05C272.232 195.05 272.719 195.3 273.194 195.65L273.869 194.762C273.307 194.325 272.557 193.95 271.632 193.95C270.119 193.95 269.194 194.812 269.194 195.962C269.194 197.125 270.244 197.612 271.157 197.962C271.907 198.25 272.682 198.525 272.682 199.15C272.682 199.675 272.294 200.075 271.469 200.075C270.732 200.075 270.132 199.775 269.519 199.287L268.844 200.212C269.507 200.762 270.482 201.163 271.432 201.163ZM277.438 201.163C279.138 201.163 280.05 200.225 280.05 199.075C280.05 197.775 278.988 197.35 278.025 196.987C277.275 196.712 276.563 196.487 276.563 195.9C276.563 195.425 276.913 195.05 277.663 195.05C278.238 195.05 278.725 195.3 279.2 195.65L279.875 194.762C279.313 194.325 278.563 193.95 277.638 193.95C276.125 193.95 275.2 194.812 275.2 195.962C275.2 197.125 276.25 197.612 277.163 197.962C277.913 198.25 278.688 198.525 278.688 199.15C278.688 199.675 278.3 200.075 277.475 200.075C276.738 200.075 276.138 199.775 275.525 199.287L274.85 200.212C275.513 200.762 276.488 201.163 277.438 201.163ZM284.444 201.163C285.344 201.163 286.131 200.862 286.769 200.437L286.269 199.525C285.769 199.85 285.244 200.037 284.631 200.037C283.444 200.037 282.619 199.25 282.506 197.937H286.969C287.006 197.775 287.031 197.487 287.031 197.212C287.031 195.262 286.056 193.95 284.231 193.95C282.619 193.95 281.094 195.337 281.094 197.575C281.094 199.837 282.581 201.163 284.444 201.163ZM282.494 196.95C282.631 195.737 283.394 195.075 284.256 195.075C285.256 195.075 285.794 195.762 285.794 196.95H282.494ZM288.649 201H290.074V196.125C290.687 195.512 291.124 195.187 291.762 195.187C292.574 195.187 292.924 195.662 292.924 196.85V201H294.362V196.675C294.362 194.925 293.712 193.95 292.249 193.95C291.312 193.95 290.612 194.462 289.974 195.075H289.937L289.824 194.125H288.649V201ZM298.799 204.088C300.999 204.088 302.399 203.013 302.399 201.688C302.399 200.512 301.549 200.012 299.924 200.012H298.662C297.787 200.012 297.512 199.75 297.512 199.337C297.512 199.012 297.662 198.812 297.887 198.612C298.187 198.75 298.537 198.825 298.849 198.825C300.287 198.825 301.424 197.962 301.424 196.462C301.424 195.937 301.237 195.475 300.974 195.2H302.287V194.125H299.849C299.587 194.025 299.237 193.95 298.849 193.95C297.424 193.95 296.187 194.862 296.187 196.425C296.187 197.237 296.624 197.887 297.087 198.25V198.3C296.712 198.575 296.324 199.037 296.324 199.575C296.324 200.137 296.599 200.5 296.949 200.712V200.775C296.312 201.163 295.949 201.7 295.949 202.275C295.949 203.475 297.149 204.088 298.799 204.088ZM298.849 197.9C298.137 197.9 297.549 197.337 297.549 196.425C297.549 195.487 298.124 194.962 298.849 194.962C299.574 194.962 300.149 195.5 300.149 196.425C300.149 197.337 299.562 197.9 298.849 197.9ZM299.012 203.138C297.874 203.138 297.174 202.738 297.174 202.063C297.174 201.713 297.349 201.363 297.762 201.063C298.049 201.125 298.362 201.163 298.687 201.163H299.724C300.562 201.163 301.012 201.338 301.012 201.913C301.012 202.55 300.212 203.138 299.012 203.138ZM306.331 201.163C307.231 201.163 308.018 200.862 308.656 200.437L308.156 199.525C307.656 199.85 307.131 200.037 306.518 200.037C305.331 200.037 304.506 199.25 304.393 197.937H308.856C308.893 197.775 308.918 197.487 308.918 197.212C308.918 195.262 307.943 193.95 306.118 193.95C304.506 193.95 302.981 195.337 302.981 197.575C302.981 199.837 304.468 201.163 306.331 201.163ZM304.381 196.95C304.518 195.737 305.281 195.075 306.143 195.075C307.143 195.075 307.681 195.762 307.681 196.95H304.381ZM310.536 201H311.961V196.712C312.399 195.625 313.074 195.237 313.636 195.237C313.911 195.237 314.086 195.275 314.324 195.35L314.586 194.1C314.374 194 314.149 193.95 313.811 193.95C313.074 193.95 312.349 194.475 311.861 195.362H311.824L311.711 194.125H310.536V201ZM40.8375 217.163C42.5375 217.163 44.075 215.85 44.075 213.575C44.075 211.275 42.5375 209.95 40.8375 209.95C39.1375 209.95 37.6 211.275 37.6 213.575C37.6 215.85 39.1375 217.163 40.8375 217.163ZM40.8375 215.987C39.7625 215.987 39.0875 215.025 39.0875 213.575C39.0875 212.112 39.7625 211.137 40.8375 211.137C41.925 211.137 42.6 212.112 42.6 213.575C42.6 215.025 41.925 215.987 40.8375 215.987ZM45.7657 217H47.1907V212.712C47.6282 211.625 48.3032 211.237 48.8657 211.237C49.1407 211.237 49.3157 211.275 49.5532 211.35L49.8157 210.1C49.6032 210 49.3782 209.95 49.0407 209.95C48.3032 209.95 47.5782 210.475 47.0907 211.362H47.0532L46.9407 210.125H45.7657V217ZM56.0631 217.163C56.8381 217.163 57.5506 216.75 58.0631 216.225H58.1006L58.2256 217H59.4006V207.037H57.9631V209.587L58.0256 210.725C57.4631 210.25 56.9631 209.95 56.1756 209.95C54.6381 209.95 53.2256 211.337 53.2256 213.575C53.2256 215.85 54.3381 217.163 56.0631 217.163ZM56.4006 215.975C55.3256 215.975 54.7131 215.112 54.7131 213.55C54.7131 212.062 55.4881 211.15 56.4506 211.15C56.9631 211.15 57.4506 211.312 57.9631 211.775V215.137C57.4631 215.712 56.9756 215.975 56.4006 215.975ZM64.3116 217.163C66.0116 217.163 67.5491 215.85 67.5491 213.575C67.5491 211.275 66.0116 209.95 64.3116 209.95C62.6116 209.95 61.0741 211.275 61.0741 213.575C61.0741 215.85 62.6116 217.163 64.3116 217.163ZM64.3116 215.987C63.2366 215.987 62.5616 215.025 62.5616 213.575C62.5616 212.112 63.2366 211.137 64.3116 211.137C65.3991 211.137 66.0741 212.112 66.0741 213.575C66.0741 215.025 65.3991 215.987 64.3116 215.987ZM72.0475 217H73.4725V212.125C74.085 211.512 74.5225 211.187 75.16 211.187C75.9725 211.187 76.3225 211.662 76.3225 212.85V217H77.76V212.675C77.76 210.925 77.11 209.95 75.6475 209.95C74.71 209.95 74.01 210.462 73.3725 211.075H73.335L73.2225 210.125H72.0475V217ZM82.5978 217.163C84.2978 217.163 85.8353 215.85 85.8353 213.575C85.8353 211.275 84.2978 209.95 82.5978 209.95C80.8978 209.95 79.3603 211.275 79.3603 213.575C79.3603 215.85 80.8978 217.163 82.5978 217.163ZM82.5978 215.987C81.5228 215.987 80.8478 215.025 80.8478 213.575C80.8478 212.112 81.5228 211.137 82.5978 211.137C83.6853 211.137 84.3603 212.112 84.3603 213.575C84.3603 215.025 83.6853 215.987 82.5978 215.987ZM89.5455 217.163C90.0455 217.163 90.508 217.038 90.8955 216.912L90.633 215.85C90.433 215.937 90.133 216.012 89.8955 216.012C89.183 216.012 88.8955 215.587 88.8955 214.762V211.275H90.683V210.125H88.8955V208.225H87.683L87.5205 210.125L86.458 210.2V211.275H87.458V214.75C87.458 216.2 87.9955 217.163 89.5455 217.163ZM94.9967 217H96.3967V215.225L97.5592 213.887L99.4217 217H100.984L98.3842 212.912L100.722 210.125H99.1342L96.4342 213.462H96.3967V207.037H94.9967V217ZM102.187 217H103.612V212.125C104.224 211.512 104.662 211.187 105.299 211.187C106.112 211.187 106.462 211.662 106.462 212.85V217H107.899V212.675C107.899 210.925 107.249 209.95 105.787 209.95C104.849 209.95 104.149 210.462 103.512 211.075H103.474L103.362 210.125H102.187V217ZM112.737 217.163C114.437 217.163 115.974 215.85 115.974 213.575C115.974 211.275 114.437 209.95 112.737 209.95C111.037 209.95 109.499 211.275 109.499 213.575C109.499 215.85 111.037 217.163 112.737 217.163ZM112.737 215.987C111.662 215.987 110.987 215.025 110.987 213.575C110.987 212.112 111.662 211.137 112.737 211.137C113.824 211.137 114.499 212.112 114.499 213.575C114.499 215.025 113.824 215.987 112.737 215.987ZM118.704 217H120.367L121.204 213.612C121.379 212.962 121.504 212.325 121.642 211.612H121.704C121.854 212.325 121.979 212.95 122.142 213.6L123.017 217H124.742L126.517 210.125H125.167L124.279 213.85C124.129 214.512 124.017 215.15 123.879 215.8H123.829C123.667 215.15 123.529 214.512 123.367 213.85L122.379 210.125H121.042L120.079 213.85C119.917 214.5 119.779 215.15 119.629 215.8H119.579C119.454 215.15 119.342 214.512 119.204 213.85L118.292 210.125H116.842L118.704 217ZM131.864 217H133.526L134.364 213.612C134.539 212.962 134.664 212.325 134.801 211.612H134.864C135.014 212.325 135.139 212.95 135.301 213.6L136.176 217H137.901L139.676 210.125H138.326L137.439 213.85C137.289 214.512 137.176 215.15 137.039 215.8H136.989C136.826 215.15 136.689 214.512 136.526 213.85L135.539 210.125H134.201L133.239 213.85C133.076 214.5 132.939 215.15 132.789 215.8H132.739C132.614 215.15 132.501 214.512 132.364 213.85L131.451 210.125H130.001L131.864 217ZM141.103 217H142.528V212.125C143.14 211.512 143.578 211.187 144.215 211.187C145.028 211.187 145.378 211.662 145.378 212.85V217H146.815V212.675C146.815 210.925 146.165 209.95 144.703 209.95C143.765 209.95 143.078 210.462 142.478 211.037L142.528 209.675V207.037H141.103V217ZM151.729 217.163C152.629 217.163 153.416 216.862 154.054 216.437L153.554 215.525C153.054 215.85 152.529 216.037 151.916 216.037C150.729 216.037 149.904 215.25 149.791 213.937H154.254C154.291 213.775 154.316 213.487 154.316 213.212C154.316 211.262 153.341 209.95 151.516 209.95C149.904 209.95 148.379 211.337 148.379 213.575C148.379 215.837 149.866 217.163 151.729 217.163ZM149.779 212.95C149.916 211.737 150.679 211.075 151.541 211.075C152.541 211.075 153.079 211.762 153.079 212.95H149.779ZM158.112 217.163C158.612 217.163 159.075 217.038 159.462 216.912L159.2 215.85C159 215.937 158.7 216.012 158.462 216.012C157.75 216.012 157.462 215.587 157.462 214.762V211.275H159.25V210.125H157.462V208.225H156.25L156.087 210.125L155.025 210.2V211.275H156.025V214.75C156.025 216.2 156.562 217.163 158.112 217.163ZM160.756 217H162.181V212.125C162.793 211.512 163.231 211.187 163.868 211.187C164.681 211.187 165.031 211.662 165.031 212.85V217H166.468V212.675C166.468 210.925 165.818 209.95 164.356 209.95C163.418 209.95 162.731 210.462 162.131 211.037L162.181 209.675V207.037H160.756V217ZM171.382 217.163C172.282 217.163 173.07 216.862 173.707 216.437L173.207 215.525C172.707 215.85 172.182 216.037 171.57 216.037C170.382 216.037 169.557 215.25 169.445 213.937H173.907C173.945 213.775 173.97 213.487 173.97 213.212C173.97 211.262 172.995 209.95 171.17 209.95C169.557 209.95 168.032 211.337 168.032 213.575C168.032 215.837 169.52 217.163 171.382 217.163ZM169.432 212.95C169.57 211.737 170.332 211.075 171.195 211.075C172.195 211.075 172.732 211.762 172.732 212.95H169.432ZM175.588 217H177.013V212.712C177.45 211.625 178.125 211.237 178.688 211.237C178.963 211.237 179.138 211.275 179.375 211.35L179.638 210.1C179.425 210 179.2 209.95 178.863 209.95C178.125 209.95 177.4 210.475 176.913 211.362H176.875L176.763 210.125H175.588V217ZM183.51 217H184.935V210.125H183.51V217ZM184.222 208.837C184.747 208.837 185.147 208.487 185.147 207.987C185.147 207.475 184.747 207.137 184.222 207.137C183.697 207.137 183.31 207.475 183.31 207.987C183.31 208.487 183.697 208.837 184.222 208.837ZM189.411 217.163C189.911 217.163 190.374 217.038 190.761 216.912L190.499 215.85C190.299 215.937 189.999 216.012 189.761 216.012C189.049 216.012 188.761 215.587 188.761 214.762V211.275H190.549V210.125H188.761V208.225H187.549L187.386 210.125L186.324 210.2V211.275H187.324V214.75C187.324 216.2 187.861 217.163 189.411 217.163ZM194.862 217H196.287V210.125H194.862V217ZM195.575 208.837C196.1 208.837 196.5 208.487 196.5 207.987C196.5 207.475 196.1 207.137 195.575 207.137C195.05 207.137 194.662 207.475 194.662 207.987C194.662 208.487 195.05 208.837 195.575 208.837ZM200.314 217.163C202.014 217.163 202.926 216.225 202.926 215.075C202.926 213.775 201.864 213.35 200.901 212.987C200.151 212.712 199.439 212.487 199.439 211.9C199.439 211.425 199.789 211.05 200.539 211.05C201.114 211.05 201.601 211.3 202.076 211.65L202.751 210.762C202.189 210.325 201.439 209.95 200.514 209.95C199.001 209.95 198.076 210.812 198.076 211.962C198.076 213.125 199.126 213.612 200.039 213.962C200.789 214.25 201.564 214.525 201.564 215.15C201.564 215.675 201.176 216.075 200.351 216.075C199.614 216.075 199.014 215.775 198.401 215.287L197.726 216.212C198.389 216.762 199.364 217.163 200.314 217.163ZM208.89 217.163C209.715 217.163 210.452 216.75 211.077 216.212H211.115L211.24 217H212.415V212.862C212.415 211.037 211.627 209.95 209.915 209.95C208.815 209.95 207.852 210.4 207.14 210.85L207.677 211.825C208.265 211.45 208.94 211.125 209.665 211.125C210.677 211.125 210.965 211.825 210.977 212.625C208.115 212.937 206.865 213.7 206.865 215.175C206.865 216.387 207.702 217.163 208.89 217.163ZM209.327 216.025C208.715 216.025 208.252 215.75 208.252 215.075C208.252 214.3 208.94 213.788 210.977 213.537V215.225C210.415 215.737 209.927 216.025 209.327 216.025ZM214.455 219.788H215.88V217.563L215.842 216.387C216.43 216.887 217.042 217.163 217.655 217.163C219.205 217.163 220.617 215.812 220.617 213.45C220.617 211.337 219.642 209.95 217.892 209.95C217.13 209.95 216.38 210.375 215.78 210.875H215.742L215.63 210.125H214.455V219.788ZM217.38 215.975C216.955 215.975 216.417 215.812 215.88 215.35V211.987C216.467 211.425 216.98 211.15 217.517 211.15C218.667 211.15 219.13 212.037 219.13 213.475C219.13 215.087 218.38 215.975 217.38 215.975ZM222.328 219.788H223.753V217.563L223.716 216.387C224.303 216.887 224.916 217.163 225.528 217.163C227.078 217.163 228.491 215.812 228.491 213.45C228.491 211.337 227.516 209.95 225.766 209.95C225.003 209.95 224.253 210.375 223.653 210.875H223.616L223.503 210.125H222.328V219.788ZM225.253 215.975C224.828 215.975 224.291 215.812 223.753 215.35V211.987C224.341 211.425 224.853 211.15 225.391 211.15C226.541 211.15 227.003 212.037 227.003 213.475C227.003 215.087 226.253 215.975 225.253 215.975ZM231.627 217.163C231.977 217.163 232.227 217.113 232.402 217.05L232.214 215.962C232.089 215.987 232.039 215.987 231.977 215.987C231.802 215.987 231.627 215.85 231.627 215.462V207.037H230.202V215.387C230.202 216.5 230.589 217.163 231.627 217.163ZM233.925 217H235.35V210.125H233.925V217ZM234.637 208.837C235.162 208.837 235.562 208.487 235.562 207.987C235.562 207.475 235.162 207.137 234.637 207.137C234.112 207.137 233.725 207.475 233.725 207.987C233.725 208.487 234.112 208.837 234.637 208.837ZM240.314 217.163C241.101 217.163 241.914 216.875 242.539 216.312L241.951 215.362C241.539 215.712 241.026 215.987 240.451 215.987C239.301 215.987 238.514 215.025 238.514 213.575C238.514 212.112 239.339 211.137 240.489 211.137C240.964 211.137 241.351 211.337 241.726 211.675L242.439 210.737C241.939 210.3 241.301 209.95 240.426 209.95C238.614 209.95 237.026 211.275 237.026 213.575C237.026 215.85 238.451 217.163 240.314 217.163ZM245.462 217.163C246.287 217.163 247.025 216.75 247.65 216.212H247.687L247.812 217H248.987V212.862C248.987 211.037 248.2 209.95 246.487 209.95C245.387 209.95 244.425 210.4 243.712 210.85L244.25 211.825C244.837 211.45 245.512 211.125 246.237 211.125C247.25 211.125 247.537 211.825 247.55 212.625C244.687 212.937 243.437 213.7 243.437 215.175C243.437 216.387 244.275 217.163 245.462 217.163ZM245.9 216.025C245.287 216.025 244.825 215.75 244.825 215.075C244.825 214.3 245.512 213.788 247.55 213.537V215.225C246.987 215.737 246.5 216.025 245.9 216.025ZM254.227 217.163C255.777 217.163 257.189 215.812 257.189 213.45C257.189 211.337 256.202 209.95 254.464 209.95C253.739 209.95 253.002 210.337 252.414 210.85L252.452 209.675V207.037H251.027V217H252.152L252.289 216.287H252.327C252.914 216.85 253.602 217.163 254.227 217.163ZM253.952 215.975C253.527 215.975 252.977 215.812 252.452 215.35V211.987C253.027 211.425 253.552 211.15 254.089 211.15C255.239 211.15 255.702 212.037 255.702 213.475C255.702 215.087 254.952 215.975 253.952 215.975ZM260.313 217.163C260.663 217.163 260.913 217.113 261.088 217.05L260.901 215.962C260.776 215.987 260.726 215.987 260.663 215.987C260.488 215.987 260.313 215.85 260.313 215.462V207.037H258.888V215.387C258.888 216.5 259.276 217.163 260.313 217.163ZM265.474 217.163C266.374 217.163 267.161 216.862 267.799 216.437L267.299 215.525C266.799 215.85 266.274 216.037 265.661 216.037C264.474 216.037 263.649 215.25 263.536 213.937H267.999C268.036 213.775 268.061 213.487 268.061 213.212C268.061 211.262 267.086 209.95 265.261 209.95C263.649 209.95 262.124 211.337 262.124 213.575C262.124 215.837 263.611 217.163 265.474 217.163ZM263.524 212.95C263.661 211.737 264.424 211.075 265.286 211.075C266.286 211.075 266.824 211.762 266.824 212.95H263.524ZM275.237 217.163C276.937 217.163 278.474 215.85 278.474 213.575C278.474 211.275 276.937 209.95 275.237 209.95C273.537 209.95 271.999 211.275 271.999 213.575C271.999 215.85 273.537 217.163 275.237 217.163ZM275.237 215.987C274.162 215.987 273.487 215.025 273.487 213.575C273.487 212.112 274.162 211.137 275.237 211.137C276.324 211.137 276.999 212.112 276.999 213.575C276.999 215.025 276.324 215.987 275.237 215.987ZM280.165 217H281.59V212.712C282.028 211.625 282.703 211.237 283.265 211.237C283.54 211.237 283.715 211.275 283.953 211.35L284.215 210.1C284.003 210 283.778 209.95 283.44 209.95C282.703 209.95 281.978 210.475 281.49 211.362H281.453L281.34 210.125H280.165V217ZM288.088 217H289.513V212.125C290.125 211.512 290.563 211.187 291.2 211.187C292.013 211.187 292.363 211.662 292.363 212.85V217H293.8V212.675C293.8 210.925 293.15 209.95 291.688 209.95C290.75 209.95 290.05 210.462 289.413 211.075H289.375L289.263 210.125H288.088V217ZM298.638 217.163C300.338 217.163 301.875 215.85 301.875 213.575C301.875 211.275 300.338 209.95 298.638 209.95C296.938 209.95 295.4 211.275 295.4 213.575C295.4 215.85 296.938 217.163 298.638 217.163ZM298.638 215.987C297.563 215.987 296.888 215.025 296.888 213.575C296.888 212.112 297.563 211.137 298.638 211.137C299.725 211.137 300.4 212.112 300.4 213.575C300.4 215.025 299.725 215.987 298.638 215.987ZM305.586 217.163C306.086 217.163 306.548 217.038 306.936 216.912L306.673 215.85C306.473 215.937 306.173 216.012 305.936 216.012C305.223 216.012 304.936 215.587 304.936 214.762V211.275H306.723V210.125H304.936V208.225H303.723L303.561 210.125L302.498 210.2V211.275H303.498V214.75C303.498 216.2 304.036 217.163 305.586 217.163Z" fill="black"/>
</g>
<defs>
<linearGradient id="paint0_linear_6_89" x1="175" y1="239" x2="267.338" y2="29.385" gradientUnits="userSpaceOnUse">
<stop stop-color="#F3F7FF"/>
<stop offset="1" stop-color="#DEEEFE"/>
</linearGradient>
<clipPath id="clip0_6_89">
<rect width="350" height="239" fill="white"/>
</clipPath>
</defs>
</svg>
