<svg width="350" height="239" viewBox="0 0 350 239" fill="none" xmlns="http://www.w3.org/2000/svg">
<path d="M20 239L330 239C341.046 239 350 230.046 350 219V20C350 8.9543 341.046 0 330 0L20 0C8.95432 0 0 8.9543 0 20V219C0 230.046 8.95432 239 20 239Z" fill="url(#paint0_linear_6_146)" fill-opacity="0.1"/>
<path d="M95.3351 104H96.7633V100.565H98.1299C100.1 100.565 101.54 99.6539 101.54 97.6716C101.54 95.6278 100.1 94.9384 98.0807 94.9384H95.3351V104ZM96.7633 99.4199V96.0834H97.9452C99.3857 96.0834 100.137 96.4774 100.137 97.6716C100.137 98.8659 99.4473 99.4199 97.9945 99.4199H96.7633ZM104.587 104.16C104.932 104.16 105.178 104.111 105.35 104.049L105.166 102.978C105.043 103.003 104.993 103.003 104.932 103.003C104.759 103.003 104.587 102.867 104.587 102.486V94.1873H103.184V102.412C103.184 103.508 103.565 104.16 104.587 104.16ZM108.451 104.16C109.264 104.16 109.99 103.754 110.606 103.224H110.643L110.766 104H111.923V99.9247C111.923 98.1272 111.148 97.056 109.461 97.056C108.377 97.056 107.429 97.4993 106.728 97.9425L107.257 98.9028C107.836 98.5335 108.5 98.2134 109.215 98.2134C110.212 98.2134 110.495 98.9028 110.507 99.6908C107.688 99.9986 106.457 100.75 106.457 102.202C106.457 103.397 107.282 104.16 108.451 104.16ZM108.882 103.04C108.279 103.04 107.823 102.769 107.823 102.104C107.823 101.341 108.5 100.836 110.507 100.59V102.252C109.953 102.756 109.473 103.04 108.882 103.04ZM113.932 104H115.336V99.1983C115.939 98.595 116.37 98.2749 116.998 98.2749C117.798 98.2749 118.143 98.7428 118.143 99.9124V104H119.559V99.74C119.559 98.0164 118.919 97.056 117.478 97.056C116.555 97.056 115.865 97.5608 115.238 98.1641H115.201L115.09 97.2284H113.932V104ZM124.435 104.16C125.321 104.16 126.097 103.865 126.725 103.446L126.232 102.547C125.74 102.867 125.223 103.052 124.62 103.052C123.45 103.052 122.637 102.276 122.527 100.984H126.922C126.959 100.824 126.983 100.54 126.983 100.269C126.983 98.3488 126.023 97.056 124.226 97.056C122.637 97.056 121.135 98.4227 121.135 100.627C121.135 102.855 122.6 104.16 124.435 104.16ZM122.514 100.011C122.65 98.8166 123.401 98.1641 124.25 98.1641C125.235 98.1641 125.765 98.8413 125.765 100.011H122.514ZM131.576 97.2284L130.653 97.3023V98.3611H131.576V104H132.992V98.3611H134.359V97.2284H132.992V96.3666C132.992 95.5417 133.288 95.1477 133.891 95.1477C134.125 95.1477 134.383 95.2092 134.63 95.32L134.913 94.2612C134.605 94.1258 134.174 94.0273 133.719 94.0273C132.204 94.0273 131.576 94.9876 131.576 96.3789V97.2284ZM136.55 95.9603C137.067 95.9603 137.461 95.6155 137.461 95.123C137.461 94.6183 137.067 94.2858 136.55 94.2858C136.033 94.2858 135.639 94.6183 135.639 95.123C135.639 95.6155 136.033 95.9603 136.55 95.9603ZM135.836 104H137.252V97.2284H135.836V104ZM140.79 104.16C141.134 104.16 141.381 104.111 141.553 104.049L141.368 102.978C141.245 103.003 141.196 103.003 141.134 103.003C140.962 103.003 140.79 102.867 140.79 102.486V94.1873H139.386V102.412C139.386 103.508 139.768 104.16 140.79 104.16ZM145.873 104.16C146.759 104.16 147.535 103.865 148.163 103.446L147.67 102.547C147.178 102.867 146.661 103.052 146.057 103.052C144.888 103.052 144.075 102.276 143.964 100.984H148.36C148.397 100.824 148.421 100.54 148.421 100.269C148.421 98.3488 147.461 97.056 145.663 97.056C144.075 97.056 142.573 98.4227 142.573 100.627C142.573 102.855 144.038 104.16 145.873 104.16ZM143.952 100.011C144.087 98.8166 144.838 98.1641 145.688 98.1641C146.673 98.1641 147.202 98.8413 147.202 100.011H143.952ZM151.849 104.16C153.524 104.16 154.422 103.237 154.422 102.104C154.422 100.824 153.376 100.405 152.428 100.048C151.689 99.777 150.987 99.5554 150.987 98.9767C150.987 98.5088 151.332 98.1395 152.071 98.1395C152.637 98.1395 153.117 98.3857 153.585 98.7305L154.25 97.8563C153.696 97.4254 152.957 97.056 152.046 97.056C150.557 97.056 149.645 97.9056 149.645 99.0383C149.645 100.183 150.68 100.663 151.578 101.008C152.317 101.291 153.08 101.562 153.08 102.178C153.08 102.695 152.699 103.089 151.886 103.089C151.16 103.089 150.569 102.793 149.966 102.313L149.301 103.224C149.953 103.766 150.914 104.16 151.849 104.16Z" fill="black"/>
<path d="M205.19 104H206.619V100.565H207.985C209.955 100.565 211.396 99.6539 211.396 97.6716C211.396 95.6278 209.955 94.9384 207.936 94.9384H205.19V104ZM206.619 99.4199V96.0834H207.801C209.241 96.0834 209.992 96.4774 209.992 97.6716C209.992 98.8659 209.303 99.4199 207.85 99.4199H206.619ZM213.162 104H214.59V100.565H215.957C217.927 100.565 219.367 99.6539 219.367 97.6716C219.367 95.6278 217.927 94.9384 215.907 94.9384H213.162V104ZM214.59 99.4199V96.0834H215.772C217.213 96.0834 217.964 96.4774 217.964 97.6716C217.964 98.8659 217.274 99.4199 215.821 99.4199H214.59ZM222.68 104H224.108V96.1326H226.78V94.9384H220.02V96.1326H222.68V104ZM231.224 97.2284L230.3 97.3023V98.3611H231.224V104H232.64V98.3611H234.006V97.2284H232.64V96.3666C232.64 95.5417 232.935 95.1477 233.538 95.1477C233.772 95.1477 234.031 95.2092 234.277 95.32L234.56 94.2612C234.252 94.1258 233.822 94.0273 233.366 94.0273C231.852 94.0273 231.224 94.9876 231.224 96.3789V97.2284ZM236.198 95.9603C236.715 95.9603 237.109 95.6155 237.109 95.123C237.109 94.6183 236.715 94.2858 236.198 94.2858C235.681 94.2858 235.287 94.6183 235.287 95.123C235.287 95.6155 235.681 95.9603 236.198 95.9603ZM235.484 104H236.9V97.2284H235.484V104ZM240.437 104.16C240.782 104.16 241.028 104.111 241.2 104.049L241.016 102.978C240.893 103.003 240.843 103.003 240.782 103.003C240.609 103.003 240.437 102.867 240.437 102.486V94.1873H239.033V102.412C239.033 103.508 239.415 104.16 240.437 104.16ZM245.52 104.16C246.407 104.16 247.182 103.865 247.81 103.446L247.318 102.547C246.825 102.867 246.308 103.052 245.705 103.052C244.535 103.052 243.722 102.276 243.612 100.984H248.007C248.044 100.824 248.069 100.54 248.069 100.269C248.069 98.3488 247.108 97.056 245.311 97.056C243.722 97.056 242.22 98.4227 242.22 100.627C242.22 102.855 243.686 104.16 245.52 104.16ZM243.599 100.011C243.735 98.8166 244.486 98.1641 245.335 98.1641C246.32 98.1641 246.85 98.8413 246.85 100.011H243.599ZM251.497 104.16C253.171 104.16 254.07 103.237 254.07 102.104C254.07 100.824 253.023 100.405 252.075 100.048C251.337 99.777 250.635 99.5554 250.635 98.9767C250.635 98.5088 250.98 98.1395 251.718 98.1395C252.285 98.1395 252.765 98.3857 253.233 98.7305L253.897 97.8563C253.343 97.4254 252.605 97.056 251.694 97.056C250.204 97.056 249.293 97.9056 249.293 99.0383C249.293 100.183 250.327 100.663 251.226 101.008C251.965 101.291 252.728 101.562 252.728 102.178C252.728 102.695 252.346 103.089 251.534 103.089C250.807 103.089 250.216 102.793 249.613 102.313L248.948 103.224C249.601 103.766 250.561 104.16 251.497 104.16Z" fill="black"/>
<path d="M91.6068 219H94.0323C96.7409 219 98.3291 217.375 98.3291 214.432C98.3291 211.477 96.7409 209.938 93.9584 209.938H91.6068V219ZM93.035 217.83V211.096H93.8599C95.8052 211.096 96.8517 212.167 96.8517 214.432C96.8517 216.685 95.8052 217.83 93.8599 217.83H93.035ZM102.912 219.16C103.798 219.16 104.574 218.865 105.202 218.446L104.709 217.547C104.217 217.867 103.7 218.052 103.097 218.052C101.927 218.052 101.114 217.276 101.004 215.984H105.399C105.436 215.824 105.46 215.54 105.46 215.269C105.46 213.349 104.5 212.056 102.703 212.056C101.114 212.056 99.6123 213.423 99.6123 215.627C99.6123 217.855 101.077 219.16 102.912 219.16ZM100.991 215.011C101.127 213.817 101.878 213.164 102.727 213.164C103.712 213.164 104.242 213.841 104.242 215.011H100.991ZM108.889 219.16C110.563 219.16 111.462 218.237 111.462 217.104C111.462 215.824 110.415 215.405 109.467 215.048C108.728 214.777 108.027 214.555 108.027 213.977C108.027 213.509 108.371 213.139 109.11 213.139C109.676 213.139 110.157 213.386 110.625 213.73L111.289 212.856C110.735 212.425 109.997 212.056 109.086 212.056C107.596 212.056 106.685 212.906 106.685 214.038C106.685 215.183 107.719 215.663 108.618 216.008C109.356 216.291 110.12 216.562 110.12 217.178C110.12 217.695 109.738 218.089 108.925 218.089C108.199 218.089 107.608 217.793 107.005 217.313L106.34 218.224C106.992 218.766 107.953 219.16 108.889 219.16ZM112.97 219H114.373V212.228H112.97V219ZM113.671 210.96C114.188 210.96 114.582 210.616 114.582 210.123C114.582 209.618 114.188 209.286 113.671 209.286C113.154 209.286 112.773 209.618 112.773 210.123C112.773 210.616 113.154 210.96 113.671 210.96ZM118.819 222.041C120.986 222.041 122.365 220.982 122.365 219.677C122.365 218.52 121.528 218.027 119.927 218.027H118.684C117.822 218.027 117.551 217.769 117.551 217.363C117.551 217.042 117.699 216.845 117.92 216.648C118.216 216.784 118.561 216.858 118.868 216.858C120.284 216.858 121.405 216.008 121.405 214.531C121.405 214.014 121.22 213.558 120.961 213.287H122.254V212.228H119.853C119.595 212.13 119.25 212.056 118.868 212.056C117.465 212.056 116.246 212.955 116.246 214.494C116.246 215.294 116.677 215.934 117.132 216.291V216.341C116.763 216.611 116.381 217.067 116.381 217.596C116.381 218.15 116.652 218.508 116.997 218.717V218.778C116.369 219.16 116.012 219.689 116.012 220.256C116.012 221.438 117.194 222.041 118.819 222.041ZM118.868 215.947C118.167 215.947 117.588 215.393 117.588 214.494C117.588 213.57 118.154 213.053 118.868 213.053C119.582 213.053 120.149 213.583 120.149 214.494C120.149 215.393 119.57 215.947 118.868 215.947ZM119.028 221.105C117.908 221.105 117.219 220.711 117.219 220.047C117.219 219.702 117.391 219.357 117.797 219.062C118.08 219.123 118.388 219.16 118.708 219.16H119.73C120.555 219.16 120.998 219.332 120.998 219.899C120.998 220.527 120.21 221.105 119.028 221.105ZM123.622 219H125.026V214.198C125.629 213.595 126.06 213.275 126.688 213.275C127.488 213.275 127.833 213.743 127.833 214.912V219H129.249V214.74C129.249 213.016 128.609 212.056 127.168 212.056C126.245 212.056 125.555 212.561 124.927 213.164H124.89L124.78 212.228H123.622V219ZM134.305 212.228L133.381 212.302V213.361H134.305V219H135.72V213.361H137.087V212.228H135.72V211.367C135.72 210.542 136.016 210.148 136.619 210.148C136.853 210.148 137.112 210.209 137.358 210.32L137.641 209.261C137.333 209.126 136.902 209.027 136.447 209.027C134.933 209.027 134.305 209.988 134.305 211.379V212.228ZM139.279 210.96C139.796 210.96 140.19 210.616 140.19 210.123C140.19 209.618 139.796 209.286 139.279 209.286C138.762 209.286 138.368 209.618 138.368 210.123C138.368 210.616 138.762 210.96 139.279 210.96ZM138.565 219H139.98V212.228H138.565V219ZM143.518 219.16C143.863 219.16 144.109 219.111 144.281 219.049L144.097 217.978C143.973 218.003 143.924 218.003 143.863 218.003C143.69 218.003 143.518 217.867 143.518 217.486V209.187H142.114V217.412C142.114 218.508 142.496 219.16 143.518 219.16ZM148.601 219.16C149.487 219.16 150.263 218.865 150.891 218.446L150.399 217.547C149.906 217.867 149.389 218.052 148.786 218.052C147.616 218.052 146.803 217.276 146.693 215.984H151.088C151.125 215.824 151.15 215.54 151.15 215.269C151.15 213.349 150.189 212.056 148.392 212.056C146.803 212.056 145.301 213.423 145.301 215.627C145.301 217.855 146.766 219.16 148.601 219.16ZM146.68 215.011C146.816 213.817 147.567 213.164 148.416 213.164C149.401 213.164 149.931 213.841 149.931 215.011H146.68ZM154.578 219.16C156.252 219.16 157.151 218.237 157.151 217.104C157.151 215.824 156.104 215.405 155.156 215.048C154.418 214.777 153.716 214.555 153.716 213.977C153.716 213.509 154.06 213.139 154.799 213.139C155.366 213.139 155.846 213.386 156.314 213.73L156.978 212.856C156.424 212.425 155.686 212.056 154.775 212.056C153.285 212.056 152.374 212.906 152.374 214.038C152.374 215.183 153.408 215.663 154.307 216.008C155.045 216.291 155.809 216.562 155.809 217.178C155.809 217.695 155.427 218.089 154.615 218.089C153.888 218.089 153.297 217.793 152.694 217.313L152.029 218.224C152.682 218.766 153.642 219.16 154.578 219.16Z" fill="black"/>
<path d="M212.971 214.16C214.954 214.16 216.16 212.978 216.16 211.525C216.16 210.196 215.384 209.531 214.313 209.075L213.07 208.546C212.331 208.25 211.605 207.955 211.605 207.179C211.605 206.453 212.208 206.01 213.131 206.01C213.932 206.01 214.56 206.317 215.126 206.822L215.877 205.911C215.187 205.209 214.19 204.766 213.131 204.766C211.408 204.766 210.152 205.837 210.152 207.265C210.152 208.583 211.125 209.272 211.999 209.642L213.254 210.183C214.092 210.553 214.707 210.811 214.707 211.636C214.707 212.399 214.092 212.917 212.996 212.917C212.122 212.917 211.235 212.498 210.583 211.845L209.746 212.83C210.57 213.668 211.728 214.16 212.971 214.16ZM217.753 216.746H219.157V214.554L219.12 213.397C219.699 213.889 220.302 214.16 220.905 214.16C222.432 214.16 223.823 212.83 223.823 210.503C223.823 208.423 222.863 207.056 221.139 207.056C220.388 207.056 219.649 207.475 219.058 207.967H219.021L218.911 207.228H217.753V216.746ZM220.634 212.99C220.216 212.99 219.686 212.83 219.157 212.375V209.063C219.736 208.509 220.24 208.238 220.77 208.238C221.902 208.238 222.358 209.112 222.358 210.528C222.358 212.116 221.619 212.99 220.634 212.99ZM228.328 214.16C229.214 214.16 229.99 213.865 230.618 213.446L230.125 212.547C229.633 212.867 229.116 213.052 228.513 213.052C227.343 213.052 226.53 212.276 226.419 210.984H230.815C230.852 210.824 230.876 210.54 230.876 210.269C230.876 208.349 229.916 207.056 228.119 207.056C226.53 207.056 225.028 208.423 225.028 210.627C225.028 212.855 226.493 214.16 228.328 214.16ZM226.407 210.011C226.543 208.817 227.294 208.164 228.143 208.164C229.128 208.164 229.658 208.841 229.658 210.011H226.407ZM235.228 214.16C236.004 214.16 236.804 213.877 237.419 213.323L236.841 212.387C236.434 212.732 235.93 213.003 235.363 213.003C234.231 213.003 233.455 212.055 233.455 210.627C233.455 209.186 234.268 208.226 235.4 208.226C235.868 208.226 236.25 208.423 236.619 208.755L237.321 207.832C236.828 207.401 236.201 207.056 235.339 207.056C233.553 207.056 231.99 208.361 231.99 210.627C231.99 212.867 233.393 214.16 235.228 214.16ZM238.83 214H240.234V207.228H238.83V214ZM239.532 205.96C240.049 205.96 240.443 205.616 240.443 205.123C240.443 204.618 240.049 204.286 239.532 204.286C239.015 204.286 238.633 204.618 238.633 205.123C238.633 205.616 239.015 205.96 239.532 205.96ZM243.966 214.16C244.778 214.16 245.505 213.754 246.12 213.224H246.157L246.28 214H247.438V209.925C247.438 208.127 246.662 207.056 244.975 207.056C243.892 207.056 242.944 207.499 242.242 207.942L242.772 208.903C243.35 208.533 244.015 208.213 244.729 208.213C245.726 208.213 246.01 208.903 246.022 209.691C243.202 209.999 241.971 210.75 241.971 212.202C241.971 213.397 242.796 214.16 243.966 214.16ZM244.397 213.04C243.793 213.04 243.338 212.769 243.338 212.104C243.338 211.341 244.015 210.836 246.022 210.59V212.252C245.468 212.756 244.988 213.04 244.397 213.04ZM250.851 214.16C251.195 214.16 251.442 214.111 251.614 214.049L251.429 212.978C251.306 213.003 251.257 213.003 251.195 213.003C251.023 213.003 250.851 212.867 250.851 212.486V204.187H249.447V212.412C249.447 213.508 249.829 214.16 250.851 214.16ZM202.928 220.261C202.62 220.126 202.189 220.027 201.734 220.027C200.219 220.027 199.591 220.988 199.591 222.379V223.228L198.668 223.302V224.361H199.591V230H201.007V224.361H202.374V223.228H201.007V222.367C201.007 221.542 201.303 221.148 201.906 221.148C202.14 221.148 202.398 221.209 202.645 221.32L202.928 220.261ZM206.178 230.16C207.853 230.16 209.367 228.867 209.367 226.627C209.367 224.361 207.853 223.056 206.178 223.056C204.504 223.056 202.989 224.361 202.989 226.627C202.989 228.867 204.504 230.16 206.178 230.16ZM206.178 229.003C205.119 229.003 204.454 228.055 204.454 226.627C204.454 225.186 205.119 224.226 206.178 224.226C207.249 224.226 207.914 225.186 207.914 226.627C207.914 228.055 207.249 229.003 206.178 229.003ZM211.032 230H212.436V225.777C212.867 224.706 213.532 224.324 214.086 224.324C214.356 224.324 214.529 224.361 214.763 224.435L215.021 223.204C214.812 223.105 214.59 223.056 214.258 223.056C213.532 223.056 212.817 223.573 212.337 224.447H212.3L212.19 223.228H211.032V230ZM216.07 230H217.474V225.198C218.04 224.583 218.545 224.275 219 224.275C219.776 224.275 220.133 224.743 220.133 225.912V230H221.549V225.198C222.115 224.583 222.608 224.275 223.076 224.275C223.839 224.275 224.208 224.743 224.208 225.912V230H225.624V225.74C225.624 224.016 224.959 223.056 223.543 223.056C222.694 223.056 222.004 223.585 221.34 224.3C221.044 223.524 220.478 223.056 219.468 223.056C218.631 223.056 217.954 223.561 217.375 224.176H217.338L217.227 223.228H216.07V230ZM229.273 230.16C230.086 230.16 230.812 229.754 231.428 229.224H231.465L231.588 230H232.745V225.925C232.745 224.127 231.97 223.056 230.283 223.056C229.199 223.056 228.251 223.499 227.549 223.942L228.079 224.903C228.658 224.533 229.322 224.213 230.037 224.213C231.034 224.213 231.317 224.903 231.329 225.691C228.51 225.999 227.279 226.75 227.279 228.202C227.279 229.397 228.104 230.16 229.273 230.16ZM229.704 229.04C229.101 229.04 228.645 228.769 228.645 228.104C228.645 227.341 229.322 226.836 231.329 226.59V228.252C230.775 228.756 230.295 229.04 229.704 229.04ZM236.828 230.16C237.32 230.16 237.776 230.037 238.157 229.914L237.899 228.867C237.702 228.953 237.406 229.027 237.172 229.027C236.471 229.027 236.188 228.609 236.188 227.796V224.361H237.948V223.228H236.188V221.357H234.993L234.833 223.228L233.787 223.302V224.361H234.772V227.784C234.772 229.212 235.301 230.16 236.828 230.16ZM242.431 223.228L241.507 223.302V224.361H242.431V230H243.847V224.361H245.213V223.228H243.847V222.367C243.847 221.542 244.142 221.148 244.746 221.148C244.979 221.148 245.238 221.209 245.484 221.32L245.767 220.261C245.46 220.126 245.029 220.027 244.573 220.027C243.059 220.027 242.431 220.988 242.431 222.379V223.228ZM247.405 221.96C247.922 221.96 248.316 221.616 248.316 221.123C248.316 220.618 247.922 220.286 247.405 220.286C246.888 220.286 246.494 220.618 246.494 221.123C246.494 221.616 246.888 221.96 247.405 221.96ZM246.691 230H248.107V223.228H246.691V230ZM251.644 230.16C251.989 230.16 252.235 230.111 252.408 230.049L252.223 228.978C252.1 229.003 252.05 229.003 251.989 229.003C251.817 229.003 251.644 228.867 251.644 228.486V220.187H250.241V228.412C250.241 229.508 250.622 230.16 251.644 230.16ZM256.727 230.16C257.614 230.16 258.389 229.865 259.017 229.446L258.525 228.547C258.032 228.867 257.515 229.052 256.912 229.052C255.742 229.052 254.93 228.276 254.819 226.984H259.214C259.251 226.824 259.276 226.54 259.276 226.269C259.276 224.349 258.315 223.056 256.518 223.056C254.93 223.056 253.428 224.423 253.428 226.627C253.428 228.855 254.893 230.16 256.727 230.16ZM254.807 226.011C254.942 224.817 255.693 224.164 256.543 224.164C257.527 224.164 258.057 224.841 258.057 226.011H254.807ZM262.704 230.16C264.378 230.16 265.277 229.237 265.277 228.104C265.277 226.824 264.231 226.405 263.282 226.048C262.544 225.777 261.842 225.555 261.842 224.977C261.842 224.509 262.187 224.139 262.925 224.139C263.492 224.139 263.972 224.386 264.44 224.73L265.105 223.856C264.551 223.425 263.812 223.056 262.901 223.056C261.411 223.056 260.5 223.906 260.5 225.038C260.5 226.183 261.534 226.663 262.433 227.008C263.172 227.291 263.935 227.562 263.935 228.178C263.935 228.695 263.553 229.089 262.741 229.089C262.014 229.089 261.423 228.793 260.82 228.313L260.155 229.224C260.808 229.766 261.768 230.16 262.704 230.16Z" fill="black"/>
<path d="M140.356 33.3871V18.6233H100.623V74.4954H106.831" fill="white"/>
<path d="M140.356 33.3871V18.6233H100.623V74.4954H106.831" stroke="#333333" stroke-width="1.24659" stroke-miterlimit="10"/>
<path opacity="0.1" d="M138.067 20.9128H102.913V72.2059H138.067V20.9128Z" fill="#397AF6"/>
<path d="M146.564 39.4164V80.4957H106.831V24.6235H131.9L146.564 39.4164Z" fill="white" stroke="#333333" stroke-width="1.24659" stroke-miterlimit="10"/>
<path d="M146.564 39.4372H131.9V24.6235L146.564 39.4372Z" fill="white" stroke="#333333" stroke-width="1.24659" stroke-linejoin="round"/>
<path d="M122.11 32.6516H111.66V35.3983H122.11V32.6516Z" fill="url(#paint1_linear_6_146)"/>
<path d="M128.717 42.2834H111.66V45.0301H128.717V42.2834Z" fill="url(#paint2_linear_6_146)"/>
<path d="M141.736 51.9197H111.66V54.6663H141.736V51.9197Z" fill="url(#paint3_linear_6_146)"/>
<path d="M141.736 61.5559H111.66V64.3026H141.736V61.5559Z" fill="url(#paint4_linear_6_146)"/>
<path d="M141.736 71.1877H111.66V73.9344H141.736V71.1877Z" fill="url(#paint5_linear_6_146)"/>
<path d="M246.048 147.387V132.623H206.315V188.495H212.523" fill="white"/>
<path d="M246.048 147.387V132.623H206.315V188.495H212.523" stroke="#333333" stroke-width="1.24659" stroke-miterlimit="10"/>
<path opacity="0.1" d="M243.757 134.913H208.604V186.206H243.757V134.913Z" fill="#397AF6"/>
<path d="M252.256 153.416V194.496H212.523V138.624H237.592L252.256 153.416Z" fill="white" stroke="#3A3A3A" stroke-width="1.24659" stroke-miterlimit="10"/>
<path d="M252.255 153.437H237.591V138.624L252.255 153.437Z" fill="white" stroke="#3A3A3A" stroke-width="1.24659" stroke-linejoin="round"/>
<path d="M231.457 147.463H231.532C231.762 147.462 231.983 147.553 232.147 147.715C232.31 147.877 232.402 148.098 232.403 148.328L232.409 149.953L230.593 149.959L230.587 148.335C230.587 148.22 230.609 148.107 230.653 148.001C230.696 147.895 230.76 147.799 230.841 147.718C230.922 147.637 231.018 147.573 231.123 147.529C231.229 147.486 231.342 147.463 231.457 147.463Z" fill="white" stroke="#3A3A3A" stroke-width="1.24659" stroke-linecap="round" stroke-linejoin="round"/>
<path d="M233.901 154.655L231.549 156.163L229.193 154.671L229.176 149.963L233.884 149.947L233.901 154.655Z" fill="white" stroke="#3A3A3A" stroke-width="1.24659" stroke-linecap="round" stroke-linejoin="round"/>
<path d="M224.224 175.307L229.21 154.655L225.055 171.92C225.377 172.009 225.713 172.032 226.045 171.989C226.376 171.945 226.695 171.835 226.983 171.666C227.271 171.497 227.522 171.271 227.721 171.003C227.92 170.734 228.063 170.429 228.142 170.104L231.566 156.146" stroke="#3A3A3A" stroke-width="1.24659" stroke-linecap="round" stroke-linejoin="round"/>
<path d="M239.008 175.269L233.897 154.655L238.173 171.891C237.851 171.982 237.515 172.008 237.183 171.967C236.852 171.925 236.532 171.817 236.243 171.65C235.954 171.483 235.701 171.259 235.5 170.992C235.299 170.725 235.154 170.42 235.073 170.096L231.549 156.163" stroke="#3A3A3A" stroke-width="1.24659" stroke-linecap="round" stroke-linejoin="round"/>
<path d="M224.195 166.535L238.979 166.485" stroke="#3A3A3A" stroke-width="1.24659" stroke-linecap="round" stroke-linejoin="round"/>
<path d="M231.62 164.749H231.558C231.154 164.75 230.828 165.079 230.829 165.483L230.836 167.535C230.838 167.939 231.166 168.266 231.57 168.264H231.633C232.037 168.263 232.363 167.934 232.361 167.53L232.354 165.477C232.353 165.074 232.024 164.747 231.62 164.749Z" fill="white" stroke="#3A3A3A" stroke-width="1.24659" stroke-linecap="round" stroke-linejoin="round"/>
<path d="M247.597 181.041H217.459C217.041 181.041 216.703 181.379 216.703 181.797V188.574C216.703 188.992 217.041 189.331 217.459 189.331H247.597C248.015 189.331 248.354 188.992 248.354 188.574V181.797C248.354 181.379 248.015 181.041 247.597 181.041Z" fill="url(#paint6_linear_6_146)" stroke="#3A3A3A" stroke-width="1.24659" stroke-miterlimit="10"/>
<path d="M227.003 187.506V183.642H228.094C228.43 183.642 228.727 183.717 228.985 183.865C229.244 184.014 229.443 184.225 229.583 184.5C229.724 184.774 229.796 185.089 229.797 185.444V185.691C229.797 186.056 229.727 186.375 229.585 186.649C229.445 186.923 229.245 187.134 228.983 187.281C228.723 187.428 228.419 187.503 228.072 187.506H227.003ZM227.512 184.062V187.09H228.049C228.441 187.09 228.747 186.968 228.964 186.723C229.184 186.479 229.293 186.132 229.293 185.68V185.455C229.293 185.016 229.19 184.676 228.983 184.433C228.778 184.189 228.486 184.065 228.107 184.062H227.512ZM231.403 186.288L231.477 186.798L231.586 186.339L232.351 183.642H232.78L233.526 186.339L233.632 186.806L233.715 186.286L234.314 183.642H234.827L233.89 187.506H233.425L232.629 184.691L232.568 184.396L232.507 184.691L231.682 187.506H231.217L230.283 183.642H230.793L231.403 186.288ZM238.247 186.999C238.116 187.187 237.933 187.328 237.698 187.421C237.465 187.513 237.192 187.559 236.881 187.559C236.566 187.559 236.286 187.486 236.042 187.339C235.798 187.191 235.609 186.98 235.474 186.708C235.341 186.435 235.273 186.119 235.27 185.76V185.423C235.27 184.841 235.405 184.39 235.676 184.07C235.948 183.749 236.33 183.589 236.822 183.589C237.226 183.589 237.55 183.693 237.796 183.9C238.042 184.105 238.193 184.397 238.247 184.776H237.738C237.642 184.264 237.338 184.009 236.825 184.009C236.483 184.009 236.224 184.129 236.047 184.369C235.872 184.608 235.784 184.955 235.782 185.41V185.726C235.782 186.159 235.881 186.504 236.079 186.761C236.277 187.015 236.545 187.143 236.883 187.143C237.074 187.143 237.242 187.122 237.385 187.079C237.528 187.037 237.647 186.965 237.741 186.864V185.996H236.846V185.582H238.247V186.999Z" fill="white"/>
<path d="M245.049 33.3871V18.6233H205.316V74.4954H211.524" fill="white"/>
<path d="M245.049 33.3871V18.6233H205.316V74.4954H211.524" stroke="#333333" stroke-width="1.24659" stroke-miterlimit="10"/>
<path opacity="0.1" d="M242.759 20.9128H207.605V72.2059H242.759V20.9128Z" fill="#397AF6"/>
<path d="M251.256 39.4164V80.4957H211.523V24.6235H236.592L251.256 39.4164Z" fill="white" stroke="#3A3A3A" stroke-width="1.24659" stroke-miterlimit="10"/>
<path d="M251.256 39.4372H236.592V24.6235L251.256 39.4372Z" fill="white" stroke="#3A3A3A" stroke-width="1.24659" stroke-linejoin="round"/>
<path d="M246.599 67.0408H216.461C216.043 67.0408 215.704 67.3794 215.704 67.797V74.5743C215.704 74.992 216.043 75.3306 216.461 75.3306H246.599C247.017 75.3306 247.355 74.992 247.355 74.5743V67.797C247.355 67.3794 247.017 67.0408 246.599 67.0408Z" fill="url(#paint7_linear_6_146)" stroke="#3A3A3A" stroke-width="1.24659" stroke-miterlimit="10"/>
<path d="M227.846 71.9936V73.5063H227.337V69.6423H228.762C229.185 69.6423 229.516 69.7502 229.755 69.9661C229.995 70.1819 230.116 70.4677 230.116 70.8233C230.116 71.1984 229.998 71.4876 229.763 71.6911C229.529 71.8928 229.194 71.9936 228.757 71.9936H227.846ZM227.846 71.577H228.762C229.035 71.577 229.243 71.5133 229.388 71.3859C229.533 71.2567 229.606 71.071 229.606 70.8286C229.606 70.5986 229.533 70.4146 229.388 70.2766C229.243 70.1386 229.044 70.0669 228.791 70.0616H227.846V71.577ZM233.436 70.0616H232.194V73.5063H231.687V70.0616H230.447V69.6423H233.436V70.0616ZM235.269 71.1232L236.196 69.6423H236.795L235.575 71.5584L236.825 73.5063H236.219L235.269 71.9989L234.314 73.5063H233.712L234.964 71.5584L233.741 69.6423H234.338L235.269 71.1232Z" fill="white"/>
<path d="M236.122 61.668C236.011 61.6687 235.902 61.6398 235.805 61.5843C235.709 61.5288 235.629 61.4487 235.574 61.3522L233.409 57.5002C233.369 57.4287 233.343 57.35 233.333 57.2686C233.324 57.1872 233.33 57.1047 233.352 57.0258C233.375 56.9469 233.412 56.8731 233.463 56.8087C233.513 56.7443 233.576 56.6905 233.648 56.6504C233.719 56.6103 233.798 56.5847 233.879 56.575C233.961 56.5653 234.043 56.5717 234.122 56.5939C234.201 56.6161 234.275 56.6535 234.339 56.7042C234.404 56.7549 234.457 56.8179 234.498 56.8894L236.663 60.7413C236.739 60.8833 236.757 61.0497 236.713 61.205C236.669 61.3602 236.566 61.492 236.426 61.5723C236.334 61.6294 236.23 61.6623 236.122 61.668ZM226.47 61.668C226.361 61.6685 226.254 61.6403 226.16 61.5863C226.065 61.5324 225.987 61.4545 225.932 61.3606C225.877 61.2667 225.848 61.16 225.848 61.0513C225.847 60.9426 225.875 60.8356 225.929 60.7413L228.094 56.8894C228.175 56.745 228.31 56.6387 228.47 56.5939C228.629 56.5491 228.8 56.5694 228.944 56.6504C229.088 56.7314 229.195 56.8665 229.24 57.0258C229.284 57.1852 229.264 57.3558 229.183 57.5002L227.014 61.3522C226.96 61.4496 226.88 61.5304 226.783 61.586C226.687 61.6416 226.577 61.67 226.465 61.668H226.47Z" fill="#3A3A3A"/>
<path d="M231.298 46.8253C231.133 46.8253 230.974 46.7597 230.857 46.6428C230.74 46.5259 230.675 46.3673 230.675 46.202V44.8682C230.675 44.7029 230.74 44.5444 230.857 44.4275C230.974 44.3106 231.133 44.2449 231.298 44.2449C231.463 44.2449 231.622 44.3106 231.739 44.4275C231.856 44.5444 231.921 44.7029 231.921 44.8682V46.202C231.921 46.3673 231.856 46.5259 231.739 46.6428C231.622 46.7597 231.463 46.8253 231.298 46.8253Z" fill="#3A3A3A"/>
<path d="M241.357 57.8202H221.225C221.059 57.8191 220.901 57.7525 220.784 57.635C220.667 57.5174 220.602 57.3584 220.602 57.1928V46.2019C220.602 46.0366 220.667 45.8781 220.784 45.7612C220.901 45.6443 221.06 45.5786 221.225 45.5786H241.357C241.523 45.5786 241.681 45.6443 241.798 45.7612C241.915 45.8781 241.981 46.0366 241.981 46.2019V57.1928C241.981 57.3584 241.915 57.5174 241.798 57.635C241.681 57.7525 241.523 57.8191 241.357 57.8202ZM221.848 56.5736H240.734V46.8294H221.848V56.5736Z" fill="#3A3A3A"/>
<path d="M234.711 55.032C234.545 55.032 234.387 54.9664 234.27 54.8495C234.153 54.7326 234.087 54.5741 234.087 54.4087V52.8422C234.105 52.6893 234.178 52.5482 234.293 52.4458C234.408 52.3434 234.557 52.2869 234.711 52.2869C234.865 52.2869 235.013 52.3434 235.128 52.4458C235.243 52.5482 235.316 52.6893 235.334 52.8422V54.4087C235.333 54.5737 235.267 54.7317 235.15 54.8483C235.034 54.965 234.876 55.031 234.711 55.032Z" fill="#3A3A3A"/>
<path d="M229.952 49.7134H223.827C223.662 49.7134 223.504 49.6477 223.387 49.5308C223.27 49.4139 223.204 49.2554 223.204 49.0901C223.204 48.9248 223.27 48.7662 223.387 48.6493C223.504 48.5324 223.662 48.4668 223.827 48.4668H229.952C230.118 48.4668 230.276 48.5324 230.393 48.6493C230.51 48.7662 230.576 48.9248 230.576 49.0901C230.576 49.2554 230.51 49.4139 230.393 49.5308C230.276 49.6477 230.118 49.7134 229.952 49.7134Z" fill="#3A3A3A"/>
<path d="M227.567 52.3643H223.827C223.662 52.3643 223.504 52.2987 223.387 52.1818C223.27 52.0649 223.204 51.9063 223.204 51.741C223.204 51.5757 223.27 51.4172 223.387 51.3003C223.504 51.1834 223.662 51.1177 223.827 51.1177H227.567C227.732 51.1177 227.891 51.1834 228.008 51.3003C228.125 51.4172 228.19 51.5757 228.19 51.741C228.19 51.9063 228.125 52.0649 228.008 52.1818C227.891 52.2987 227.732 52.3643 227.567 52.3643Z" fill="#3A3A3A"/>
<path d="M223.827 55.032C223.662 55.032 223.504 54.9664 223.387 54.8495C223.27 54.7326 223.204 54.574 223.204 54.4087C223.204 54.2434 223.27 54.0849 223.387 53.968C223.504 53.8511 223.662 53.7854 223.827 53.7854H231.394C231.559 53.7854 231.718 53.8511 231.835 53.968C231.952 54.0849 232.017 54.2434 232.017 54.4087C232.017 54.574 231.952 54.7326 231.835 54.8495C231.718 54.9664 231.559 55.032 231.394 55.032H223.832H223.827Z" fill="#3A3A3A"/>
<path d="M106.387 146.831H91.6228V186.564H147.495V180.356" fill="white"/>
<path d="M106.387 146.831H91.6228V186.564H147.495V180.356" stroke="#333333" stroke-width="1.24659" stroke-miterlimit="10"/>
<path opacity="0.1" d="M145.205 149.121H93.9124V184.275H145.205V149.121Z" fill="#397AF6"/>
<path d="M112.415 140.623H153.494V180.356H97.6221V155.291L112.415 140.623Z" fill="white" stroke="#333333" stroke-width="1.24659" stroke-miterlimit="10"/>
<path d="M112.436 140.623V155.292H97.6221L112.436 140.623Z" fill="white" stroke="#333333" stroke-width="1.24659" stroke-linejoin="round"/>
<path d="M121.059 153.193C120.459 153.196 119.872 153.022 119.372 152.691C118.871 152.36 118.48 151.889 118.249 151.336C118.017 150.783 117.954 150.173 118.069 149.585C118.183 148.996 118.47 148.455 118.893 148.029C119.315 147.604 119.854 147.313 120.442 147.195C121.03 147.076 121.64 147.134 122.194 147.363C122.749 147.591 123.223 147.978 123.557 148.476C123.892 148.974 124.07 149.56 124.071 150.16C124.073 150.557 123.996 150.95 123.846 151.318C123.695 151.685 123.473 152.019 123.194 152.301C122.914 152.583 122.581 152.807 122.215 152.96C121.849 153.113 121.456 153.192 121.059 153.193ZM121.059 148.41C120.71 148.406 120.368 148.506 120.076 148.697C119.784 148.888 119.555 149.162 119.419 149.483C119.283 149.804 119.246 150.159 119.312 150.501C119.378 150.844 119.545 151.159 119.79 151.406C120.036 151.654 120.35 151.823 120.692 151.891C121.034 151.96 121.389 151.925 121.711 151.792C122.034 151.658 122.309 151.431 122.502 151.141C122.695 150.85 122.797 150.509 122.795 150.16C122.797 149.931 122.753 149.703 122.667 149.491C122.58 149.279 122.453 149.086 122.291 148.923C122.13 148.761 121.938 148.632 121.726 148.544C121.515 148.456 121.288 148.41 121.059 148.41Z" fill="#3A3A3A"/>
<path d="M142.169 162.098H118.783C118.662 162.098 118.545 162.063 118.443 161.999C118.341 161.934 118.26 161.842 118.209 161.734C118.158 161.625 118.138 161.504 118.153 161.384C118.168 161.265 118.216 161.152 118.292 161.059L126.046 151.656C126.149 151.53 126.297 151.448 126.459 151.428C126.62 151.408 126.783 151.451 126.915 151.548L130.114 153.904L136.792 148.049C136.855 147.992 136.93 147.949 137.01 147.922C137.091 147.895 137.176 147.884 137.261 147.891C137.424 147.909 137.574 147.991 137.677 148.119L142.626 154.024C142.723 154.141 142.776 154.288 142.775 154.44V161.483C142.776 161.566 142.76 161.649 142.728 161.727C142.696 161.804 142.649 161.875 142.59 161.934C142.531 161.993 142.461 162.04 142.383 162.071C142.306 162.103 142.223 162.119 142.14 162.119L142.169 162.098ZM120.146 160.826H141.545V154.652L137.166 149.42L130.592 155.183C130.483 155.28 130.344 155.336 130.199 155.342C130.054 155.348 129.911 155.304 129.794 155.217L126.669 152.915L120.146 160.826Z" fill="#3A3A3A"/>
<path d="M146.435 167.01H116.297C115.879 167.01 115.541 167.348 115.541 167.766V174.543C115.541 174.961 115.879 175.299 116.297 175.299H146.435C146.853 175.299 147.191 174.961 147.191 174.543V167.766C147.191 167.348 146.853 167.01 146.435 167.01Z" fill="url(#paint8_linear_6_146)" stroke="#333333" stroke-width="1.24659" stroke-miterlimit="10"/>
<path d="M124.707 173.222C124.707 173.137 124.732 173.066 124.782 173.009C124.833 172.953 124.909 172.924 125.01 172.924C125.111 172.924 125.187 172.953 125.238 173.009C125.291 173.066 125.318 173.137 125.318 173.222C125.318 173.303 125.291 173.371 125.238 173.426C125.187 173.481 125.111 173.508 125.01 173.508C124.909 173.508 124.833 173.481 124.782 173.426C124.732 173.371 124.707 173.303 124.707 173.222ZM127.826 169.615H128.338V172.351C128.338 172.721 128.226 173.01 128.003 173.219C127.782 173.428 127.487 173.532 127.117 173.532C126.733 173.532 126.434 173.434 126.22 173.238C126.006 173.041 125.899 172.766 125.899 172.412H126.408C126.408 172.633 126.469 172.806 126.589 172.93C126.711 173.053 126.887 173.115 127.117 173.115C127.328 173.115 127.497 173.049 127.627 172.916C127.758 172.784 127.824 172.598 127.826 172.359V169.615ZM129.715 171.966V173.479H129.206V169.615H130.631C131.054 169.615 131.384 169.723 131.623 169.939C131.864 170.155 131.984 170.44 131.984 170.796C131.984 171.171 131.867 171.46 131.631 171.664C131.398 171.865 131.062 171.966 130.625 171.966H129.715ZM129.715 171.55H130.631C130.903 171.55 131.112 171.486 131.257 171.359C131.402 171.229 131.475 171.044 131.475 170.801C131.475 170.571 131.402 170.387 131.257 170.249C131.112 170.111 130.913 170.04 130.66 170.034H129.715V171.55ZM135.487 172.972C135.356 173.16 135.173 173.3 134.938 173.394C134.704 173.486 134.432 173.532 134.121 173.532C133.806 173.532 133.526 173.459 133.282 173.312C133.038 173.163 132.849 172.953 132.714 172.68C132.581 172.408 132.513 172.092 132.51 171.733V171.396C132.51 170.814 132.645 170.362 132.916 170.042C133.188 169.722 133.57 169.562 134.062 169.562C134.466 169.562 134.79 169.665 135.036 169.872C135.282 170.078 135.433 170.37 135.487 170.748H134.978C134.882 170.237 134.578 169.981 134.065 169.981C133.723 169.981 133.464 170.102 133.287 170.342C133.112 170.581 133.024 170.928 133.022 171.382V171.698C133.022 172.132 133.121 172.477 133.319 172.733C133.517 172.988 133.785 173.115 134.123 173.115C134.314 173.115 134.482 173.094 134.625 173.052C134.768 173.009 134.887 172.938 134.98 172.837V171.969H134.086V171.555H135.487V172.972Z" fill="white"/>
<defs>
<linearGradient id="paint0_linear_6_146" x1="175" y1="239" x2="267.338" y2="29.385" gradientUnits="userSpaceOnUse">
<stop stop-color="#F3F7FF"/>
<stop offset="1" stop-color="#DEEEFE"/>
</linearGradient>
<linearGradient id="paint1_linear_6_146" x1="111.66" y1="34.0256" x2="122.11" y2="34.0256" gradientUnits="userSpaceOnUse">
<stop stop-color="#3B94E2"/>
<stop offset="0.3125" stop-color="#2BB1FF"/>
</linearGradient>
<linearGradient id="paint2_linear_6_146" x1="111.66" y1="43.6575" x2="128.717" y2="43.6575" gradientUnits="userSpaceOnUse">
<stop stop-color="#3B94E2"/>
<stop offset="0.3125" stop-color="#2BB1FF"/>
</linearGradient>
<linearGradient id="paint3_linear_6_146" x1="111.66" y1="53.2937" x2="141.736" y2="53.2937" gradientUnits="userSpaceOnUse">
<stop stop-color="#3B94E2"/>
<stop offset="0.3125" stop-color="#2BB1FF"/>
</linearGradient>
<linearGradient id="paint4_linear_6_146" x1="111.66" y1="62.9299" x2="141.736" y2="62.9299" gradientUnits="userSpaceOnUse">
<stop stop-color="#3B94E2"/>
<stop offset="0.3125" stop-color="#2BB1FF"/>
</linearGradient>
<linearGradient id="paint5_linear_6_146" x1="111.66" y1="72.5618" x2="141.736" y2="72.5618" gradientUnits="userSpaceOnUse">
<stop stop-color="#3B94E2"/>
<stop offset="0.3125" stop-color="#2BB1FF"/>
</linearGradient>
<linearGradient id="paint6_linear_6_146" x1="216.703" y1="185.188" x2="248.354" y2="185.188" gradientUnits="userSpaceOnUse">
<stop stop-color="#3B94E2"/>
<stop offset="0.3125" stop-color="#2BB1FF"/>
</linearGradient>
<linearGradient id="paint7_linear_6_146" x1="215.704" y1="71.1878" x2="247.355" y2="71.1878" gradientUnits="userSpaceOnUse">
<stop stop-color="#3B94E2"/>
<stop offset="0.3125" stop-color="#2BB1FF"/>
</linearGradient>
<linearGradient id="paint8_linear_6_146" x1="115.541" y1="171.157" x2="147.191" y2="171.157" gradientUnits="userSpaceOnUse">
<stop stop-color="#3B94E2"/>
<stop offset="0.3125" stop-color="#2BB1FF"/>
</linearGradient>
</defs>
</svg>
