<svg width="164" height="204" viewBox="0 0 164 204" fill="none" xmlns="http://www.w3.org/2000/svg">
<path d="M17.0966 75.818H15.8285V81.4692H17.0966V75.818ZM9.37701 78.699C9.37701 77.8125 10.0911 77.2339 11.0514 77.2339C12.0241 77.2339 12.7505 77.8125 12.7505 78.699C12.7505 79.5854 12.0241 80.1641 11.0514 80.1641C10.0911 80.1641 9.37701 79.5854 9.37701 78.699ZM13.9817 78.699C13.9817 77.2339 12.7382 76.1873 11.0514 76.1873C9.37701 76.1873 8.14581 77.2339 8.14581 78.699C8.14581 80.1641 9.37701 81.1983 11.0514 81.1983C12.7382 81.1983 13.9817 80.1641 13.9817 78.699ZM11.0761 85.8153V84.8304H17.0966V81.974H9.80793V82.9712H15.8408V83.8946H9.83255V86.8126H17.4291V85.8153H11.0761ZM23.6333 81.186H20.9124V79.3515H23.6333V81.186ZM24.8892 76.6306H23.6333V78.3666H20.9124V76.6306H19.6443V82.2079H24.8892V76.6306ZM22.1805 83.2175H20.9001V86.7387H28.3858V85.7045H22.1805V83.2175ZM27.9425 79.1053V75.8426H26.6744V84.0055H27.9425V80.1518H29.5185V79.1053H27.9425ZM40.8767 79.3269H35.8657V77.3324H40.8767V79.3269ZM42.1202 76.3228H34.6222V80.3365H42.1202V76.3228ZM35.8411 83.5253H34.5729V86.7387H42.3049V85.7045H35.8411V83.5253ZM33.3417 81.4322V82.4541H37.8479V84.5349H39.1161V82.4541H43.4253V81.4322H33.3417ZM48.7062 76.7291H47.4257V78.5636C47.4257 80.6443 46.3422 82.7866 44.6063 83.6361L45.4065 84.6457C46.6747 83.9931 47.5858 82.7004 48.0782 81.1244C48.5584 82.6142 49.4572 83.8331 50.713 84.461L51.464 83.4391C49.765 82.6511 48.7062 80.632 48.7062 78.5636V76.7291ZM52.6337 75.8057V79.4623H50.2575V80.4965H52.6337V86.9603H53.9141V75.8057H52.6337Z" fill="black"/>
<path d="M114.19 86H115.619V82.565H116.985C118.955 82.565 120.396 81.6539 120.396 79.6716C120.396 77.6278 118.955 76.9384 116.936 76.9384H114.19V86ZM115.619 81.4199V78.0834H116.801C118.241 78.0834 118.992 78.4774 118.992 79.6716C118.992 80.8659 118.303 81.4199 116.85 81.4199H115.619ZM122.162 86H123.59V82.565H124.957C126.927 82.565 128.367 81.6539 128.367 79.6716C128.367 77.6278 126.927 76.9384 124.907 76.9384H122.162V86ZM123.59 81.4199V78.0834H124.772C126.213 78.0834 126.964 78.4774 126.964 79.6716C126.964 80.8659 126.274 81.4199 124.821 81.4199H123.59ZM131.68 86H133.108V78.1326H135.78V76.9384H129.02V78.1326H131.68V86ZM143.437 77.9849H145.789V76.9384H139.744V77.9849H142.169V79.056C142.169 80.9028 141.036 83.0082 139.337 83.8208L140.064 84.8304C141.344 84.2024 142.329 82.8728 142.822 81.3214C143.326 82.725 144.274 83.9562 145.518 84.5472L146.22 83.5499C144.533 82.7496 143.437 80.7797 143.437 79.056V77.9849ZM149.889 80.2134H148.153V75.8303H146.884V86.948H148.153V81.2599H149.889V80.2134ZM154.825 82.6758H157.102V84.5964H154.825V82.6758ZM158.358 84.5964V82.6758H159.996V81.6539H153.335V80.1149H159.75V76.6059H152.067V77.6278H158.494V79.1053H152.092V82.6758H153.569V84.5964H150.873V85.643H160.944V84.5964H158.358Z" fill="black"/>
<path d="M3.95993 191.899H7.99826V190.852H2.7041V198.252H3.6275C5.92985 198.252 7.37035 198.19 8.98322 197.895L8.84779 196.836C7.35804 197.119 6.02834 197.181 3.95993 197.193V191.899ZM9.882 189.818V200.973H11.1624V189.818H9.882ZM17.2313 191.985H19.5829V190.938H13.5377V191.985H15.9632V193.056C15.9632 194.903 14.8305 197.008 13.1314 197.821L13.8578 198.83C15.1383 198.202 16.1232 196.873 16.6157 195.321C17.1205 196.725 18.0685 197.956 19.312 198.547L20.0138 197.55C18.3271 196.75 17.2313 194.78 17.2313 193.056V191.985ZM23.6828 194.213H21.9468V189.83H20.6787V200.948H21.9468V195.26H23.6828V194.213ZM33.8269 189.83H32.5588V197.907H33.8269V189.83ZM26.1196 193.352C26.1196 192.33 26.846 191.665 27.831 191.665C28.8036 191.665 29.5423 192.33 29.5423 193.352C29.5423 194.361 28.8036 195.038 27.831 195.038C26.846 195.038 26.1196 194.361 26.1196 193.352ZM30.7735 193.352C30.7735 191.726 29.5054 190.569 27.831 190.569C26.1565 190.569 24.8761 191.726 24.8761 193.352C24.8761 194.964 26.1565 196.134 27.831 196.134C29.5054 196.134 30.7735 194.964 30.7735 193.352ZM27.8433 199.705V197.094H26.5628V200.739H34.147V199.705H27.8433ZM42.8581 190.754H41.59V192.576C41.59 194.718 40.4327 196.848 38.6598 197.648L39.4108 198.707C40.7528 198.055 41.7378 196.737 42.2425 195.124C42.7473 196.627 43.72 197.858 45.0004 198.461L45.7392 197.451C43.9909 196.663 42.8581 194.62 42.8581 192.576V190.754ZM46.6256 189.818V200.973H47.9061V189.818H46.6256ZM51.4633 193.352C51.4633 192.342 52.202 191.677 53.1746 191.677C54.1473 191.677 54.8983 192.342 54.8983 193.352C54.8983 194.373 54.1473 195.038 53.1746 195.038C52.202 195.038 51.4633 194.373 51.4633 193.352ZM56.1418 193.352C56.1418 191.726 54.8614 190.581 53.1746 190.581C51.5002 190.581 50.2198 191.726 50.2198 193.352C50.2198 194.977 51.5002 196.134 53.1746 196.134C54.8614 196.134 56.1418 194.977 56.1418 193.352ZM53.0023 197.144H51.7218V200.739H59.2075V199.705H53.0023V197.144ZM58.7643 193.13V189.83H57.4962V197.981H58.7643V194.176H60.3402V193.13H58.7643Z" fill="black"/>
<path d="M124.79 193.795H118.401V192.896H124.446V191.948H118.401V191.086H124.717V190.113H117.132V194.767H124.79V193.795ZM116.972 198.609H123.375V200.96H124.643V197.587H116.972V198.609ZM115.84 195.654V196.676H125.911V195.654H115.84ZM136.806 193.93C134.565 193.61 132.891 192.219 132.891 190.778V190.187H131.549V190.778C131.549 192.243 129.899 193.61 127.634 193.93L128.126 194.952C129.973 194.657 131.512 193.733 132.226 192.44C132.952 193.721 134.467 194.657 136.314 194.952L136.806 193.93ZM137.237 195.999H127.19V197.033H131.549V200.96H132.817V197.033H137.237V195.999ZM143.744 191.973H145.259V197.156C144.754 197.181 144.237 197.205 143.744 197.217V191.973ZM146.49 191.973H147.573V190.951H141.43V191.973H142.513V197.242C142.033 197.242 141.565 197.242 141.146 197.242L141.282 198.289C143.215 198.289 145.788 198.252 148.09 197.87L148.016 196.934C147.524 196.996 147.007 197.045 146.49 197.094V191.973ZM151.624 194.176H149.888V189.83H148.62V200.96H149.888V195.223H151.624V194.176ZM161.768 189.818H160.5V195.469H161.768V189.818ZM154.048 192.699C154.048 191.813 154.762 191.234 155.723 191.234C156.695 191.234 157.422 191.813 157.422 192.699C157.422 193.585 156.695 194.164 155.723 194.164C154.762 194.164 154.048 193.585 154.048 192.699ZM158.653 192.699C158.653 191.234 157.41 190.187 155.723 190.187C154.048 190.187 152.817 191.234 152.817 192.699C152.817 194.164 154.048 195.198 155.723 195.198C157.41 195.198 158.653 194.164 158.653 192.699ZM155.747 199.815V198.83H161.768V195.974H154.479V196.971H160.512V197.895H154.504V200.813H162.1V199.815H155.747Z" fill="black"/>
<g clip-path="url(#clip0_755_22931)">
<path d="M49.356 15.3871V0.623291H9.62305V56.4954H15.8311" fill="white"/>
<path d="M49.356 15.3871V0.623291H9.62305V56.4954H15.8311" stroke="#333333" stroke-width="1.24659" stroke-miterlimit="10"/>
<path opacity="0.1" d="M47.0669 2.91284H11.9131V54.2059H47.0669V2.91284Z" fill="#397AF6"/>
<path d="M55.5643 21.4164V62.4957H15.8313V6.62354H40.9002L55.5643 21.4164Z" fill="white" stroke="#333333" stroke-width="1.24659" stroke-miterlimit="10"/>
<path d="M55.5644 21.4372H40.9004V6.62354L55.5644 21.4372Z" fill="white" stroke="#333333" stroke-width="1.24659" stroke-linejoin="round"/>
<path d="M31.1105 14.6516H20.6599V17.3983H31.1105V14.6516Z" fill="url(#paint0_linear_755_22931)"/>
<path d="M37.7174 24.2835H20.6599V27.0302H37.7174V24.2835Z" fill="url(#paint1_linear_755_22931)"/>
<path d="M50.736 33.9197H20.6599V36.6663H50.736V33.9197Z" fill="url(#paint2_linear_755_22931)"/>
<path d="M50.736 43.5558H20.6599V46.3025H50.736V43.5558Z" fill="url(#paint3_linear_755_22931)"/>
<path d="M50.736 53.1879H20.6599V55.9345H50.736V53.1879Z" fill="url(#paint4_linear_755_22931)"/>
</g>
<g clip-path="url(#clip1_755_22931)">
<path d="M155.048 129.387V114.623H115.315V170.495H121.523" fill="white"/>
<path d="M155.048 129.387V114.623H115.315V170.495H121.523" stroke="#333333" stroke-width="1.24659" stroke-miterlimit="10"/>
<path opacity="0.1" d="M152.757 116.913H117.604V168.206H152.757V116.913Z" fill="#397AF6"/>
<path d="M161.256 135.416V176.496H121.523V120.624H146.592L161.256 135.416Z" fill="white" stroke="#3A3A3A" stroke-width="1.24659" stroke-miterlimit="10"/>
<path d="M161.255 135.437H146.591V120.624L161.255 135.437Z" fill="white" stroke="#3A3A3A" stroke-width="1.24659" stroke-linejoin="round"/>
<path d="M140.457 129.463L140.532 129.463C140.762 129.462 140.983 129.553 141.147 129.715C141.31 129.877 141.402 130.098 141.403 130.328L141.409 131.953L139.593 131.959L139.587 130.335C139.587 130.22 139.609 130.107 139.653 130.001C139.696 129.895 139.76 129.799 139.841 129.718C139.922 129.637 140.018 129.573 140.123 129.529C140.229 129.486 140.342 129.463 140.457 129.463Z" fill="white" stroke="#3A3A3A" stroke-width="1.24659" stroke-linecap="round" stroke-linejoin="round"/>
<path d="M142.901 136.655L140.549 138.163L138.193 136.671L138.176 131.963L142.884 131.947L142.901 136.655Z" fill="white" stroke="#3A3A3A" stroke-width="1.24659" stroke-linecap="round" stroke-linejoin="round"/>
<path d="M133.224 157.306L138.21 136.655L134.055 153.92C134.377 154.009 134.713 154.032 135.045 153.989C135.376 153.945 135.695 153.835 135.983 153.666C136.271 153.497 136.522 153.271 136.721 153.003C136.92 152.734 137.063 152.429 137.142 152.104L140.566 138.146" stroke="#3A3A3A" stroke-width="1.24659" stroke-linecap="round" stroke-linejoin="round"/>
<path d="M148.008 157.269L142.897 136.655L147.173 153.891C146.851 153.982 146.515 154.008 146.183 153.966C145.852 153.925 145.532 153.817 145.243 153.65C144.954 153.482 144.701 153.259 144.5 152.992C144.299 152.725 144.154 152.42 144.073 152.096L140.549 138.163" stroke="#3A3A3A" stroke-width="1.24659" stroke-linecap="round" stroke-linejoin="round"/>
<path d="M133.195 148.535L147.979 148.485" stroke="#3A3A3A" stroke-width="1.24659" stroke-linecap="round" stroke-linejoin="round"/>
<path d="M140.62 146.749L140.558 146.749C140.154 146.75 139.828 147.079 139.829 147.483L139.836 149.536C139.838 149.939 140.166 150.266 140.57 150.264L140.633 150.264C141.037 150.263 141.363 149.934 141.361 149.53L141.354 147.478C141.353 147.074 141.024 146.747 140.62 146.749Z" fill="white" stroke="#3A3A3A" stroke-width="1.24659" stroke-linecap="round" stroke-linejoin="round"/>
<path d="M156.597 163.041H126.459C126.041 163.041 125.703 163.379 125.703 163.797V170.574C125.703 170.992 126.041 171.331 126.459 171.331H156.597C157.015 171.331 157.354 170.992 157.354 170.574V163.797C157.354 163.379 157.015 163.041 156.597 163.041Z" fill="url(#paint5_linear_755_22931)" stroke="#3A3A3A" stroke-width="1.24659" stroke-miterlimit="10"/>
<path d="M136.003 169.506V165.642H137.094C137.43 165.642 137.727 165.716 137.985 165.865C138.244 166.014 138.443 166.225 138.583 166.499C138.724 166.774 138.796 167.089 138.797 167.444V167.691C138.797 168.055 138.727 168.375 138.585 168.649C138.445 168.923 138.245 169.134 137.983 169.281C137.723 169.427 137.419 169.503 137.072 169.506H136.003ZM136.512 166.061V169.09H137.049C137.441 169.09 137.747 168.967 137.964 168.723C138.184 168.479 138.293 168.132 138.293 167.68V167.455C138.293 167.016 138.19 166.675 137.983 166.433C137.778 166.189 137.486 166.065 137.107 166.061H136.512ZM140.403 168.288L140.477 168.798L140.586 168.339L141.351 165.642H141.78L142.526 168.339L142.632 168.806L142.715 168.285L143.314 165.642H143.827L142.89 169.506H142.425L141.629 166.69L141.568 166.396L141.507 166.69L140.682 169.506H140.217L139.283 165.642H139.793L140.403 168.288ZM147.247 168.999C147.116 169.187 146.933 169.328 146.698 169.421C146.465 169.513 146.192 169.559 145.881 169.559C145.566 169.559 145.286 169.486 145.042 169.339C144.798 169.19 144.609 168.98 144.474 168.707C144.341 168.435 144.273 168.119 144.27 167.76V167.423C144.27 166.841 144.405 166.39 144.676 166.069C144.948 165.749 145.33 165.589 145.822 165.589C146.226 165.589 146.55 165.693 146.796 165.9C147.042 166.105 147.193 166.397 147.247 166.775H146.738C146.642 166.264 146.338 166.008 145.825 166.008C145.483 166.008 145.224 166.129 145.047 166.369C144.872 166.608 144.784 166.955 144.782 167.41V167.725C144.782 168.159 144.881 168.504 145.079 168.76C145.277 169.015 145.545 169.143 145.883 169.143C146.074 169.143 146.242 169.121 146.385 169.079C146.528 169.036 146.647 168.965 146.741 168.864V167.996H145.846V167.582H147.247V168.999Z" fill="white"/>
</g>
<g clip-path="url(#clip2_755_22931)">
<path d="M154.049 15.3871V0.623291H114.316V56.4954H120.524" fill="white"/>
<path d="M154.049 15.3871V0.623291H114.316V56.4954H120.524" stroke="#333333" stroke-width="1.24659" stroke-miterlimit="10"/>
<path opacity="0.1" d="M151.759 2.91284H116.605V54.2059H151.759V2.91284Z" fill="#397AF6"/>
<path d="M160.256 21.4164V62.4957H120.523V6.62354H145.592L160.256 21.4164Z" fill="white" stroke="#3A3A3A" stroke-width="1.24659" stroke-miterlimit="10"/>
<path d="M160.256 21.4372H145.592V6.62354L160.256 21.4372Z" fill="white" stroke="#3A3A3A" stroke-width="1.24659" stroke-linejoin="round"/>
<path d="M155.599 49.0408H125.461C125.043 49.0408 124.704 49.3794 124.704 49.7971V56.5744C124.704 56.9921 125.043 57.3307 125.461 57.3307H155.599C156.017 57.3307 156.355 56.9921 156.355 56.5744V49.7971C156.355 49.3794 156.017 49.0408 155.599 49.0408Z" fill="url(#paint6_linear_755_22931)" stroke="#3A3A3A" stroke-width="1.24659" stroke-miterlimit="10"/>
<path d="M136.846 53.9935V55.5062H136.337V51.6422H137.762C138.185 51.6422 138.516 51.7501 138.755 51.966C138.995 52.1818 139.116 52.4675 139.116 52.8232C139.116 53.1982 138.998 53.4875 138.763 53.691C138.529 53.8927 138.194 53.9935 137.757 53.9935H136.846ZM136.846 53.5769H137.762C138.035 53.5769 138.243 53.5132 138.388 53.3858C138.533 53.2566 138.606 53.0709 138.606 52.8285C138.606 52.5985 138.533 52.4145 138.388 52.2765C138.243 52.1385 138.044 52.0668 137.791 52.0615H136.846V53.5769ZM142.436 52.0615H141.194V55.5062H140.687V52.0615H139.447V51.6422H142.436V52.0615ZM144.269 53.123L145.196 51.6422H145.795L144.575 53.5583L145.825 55.5062H145.219L144.269 53.9988L143.314 55.5062H142.712L143.964 53.5583L142.741 51.6422H143.338L144.269 53.123Z" fill="white"/>
<path d="M145.122 43.6681C145.011 43.6688 144.902 43.6399 144.805 43.5844C144.709 43.5289 144.629 43.4488 144.574 43.3523L142.409 39.5003C142.369 39.4288 142.343 39.3501 142.333 39.2687C142.324 39.1873 142.33 39.1049 142.352 39.026C142.375 38.947 142.412 38.8733 142.463 38.8089C142.513 38.7444 142.576 38.6906 142.648 38.6505C142.719 38.6104 142.798 38.5848 142.879 38.5751C142.961 38.5654 143.043 38.5718 143.122 38.594C143.201 38.6162 143.275 38.6537 143.339 38.7044C143.404 38.7551 143.457 38.818 143.498 38.8895L145.663 42.7414C145.739 42.8834 145.757 43.0499 145.713 43.2051C145.669 43.3603 145.566 43.4921 145.426 43.5724C145.334 43.6295 145.23 43.6625 145.122 43.6681ZM135.47 43.6681C135.361 43.6686 135.254 43.6404 135.16 43.5864C135.065 43.5325 134.987 43.4546 134.932 43.3607C134.877 43.2668 134.848 43.1601 134.848 43.0514C134.847 42.9427 134.875 42.8357 134.929 42.7414L137.094 38.8895C137.175 38.7451 137.31 38.6388 137.47 38.594C137.629 38.5492 137.8 38.5695 137.944 38.6505C138.088 38.7315 138.195 38.8666 138.24 39.026C138.284 39.1853 138.264 39.356 138.183 39.5003L136.014 43.3523C135.96 43.4497 135.88 43.5305 135.783 43.5861C135.687 43.6418 135.577 43.6701 135.465 43.6681H135.47Z" fill="#3A3A3A"/>
<path d="M140.298 28.8252C140.133 28.8252 139.974 28.7596 139.857 28.6427C139.74 28.5258 139.675 28.3673 139.675 28.2019V26.8681C139.675 26.7028 139.74 26.5443 139.857 26.4274C139.974 26.3105 140.133 26.2448 140.298 26.2448C140.463 26.2448 140.622 26.3105 140.739 26.4274C140.856 26.5443 140.921 26.7028 140.921 26.8681V28.2019C140.921 28.3673 140.856 28.5258 140.739 28.6427C140.622 28.7596 140.463 28.8252 140.298 28.8252Z" fill="#3A3A3A"/>
<path d="M150.357 39.8203H130.225C130.059 39.8192 129.901 39.7526 129.784 39.635C129.667 39.5175 129.602 39.3585 129.602 39.1928V28.202C129.602 28.0367 129.667 27.8782 129.784 27.7613C129.901 27.6444 130.06 27.5787 130.225 27.5787H150.357C150.523 27.5787 150.681 27.6444 150.798 27.7613C150.915 27.8782 150.981 28.0367 150.981 28.202V39.1928C150.981 39.3585 150.915 39.5175 150.798 39.635C150.681 39.7526 150.523 39.8192 150.357 39.8203ZM130.848 38.5737H149.734V28.8294H130.848V38.5737Z" fill="#3A3A3A"/>
<path d="M143.711 37.032C143.545 37.032 143.387 36.9664 143.27 36.8495C143.153 36.7326 143.087 36.574 143.087 36.4087V34.8421C143.105 34.6892 143.178 34.5482 143.293 34.4458C143.408 34.3434 143.557 34.2868 143.711 34.2868C143.865 34.2868 144.013 34.3434 144.128 34.4458C144.243 34.5482 144.316 34.6892 144.334 34.8421V36.4087C144.333 36.5737 144.267 36.7316 144.15 36.8483C144.034 36.9649 143.876 37.0309 143.711 37.032Z" fill="#3A3A3A"/>
<path d="M138.952 31.7133H132.827C132.662 31.7133 132.504 31.6475 132.387 31.5307C132.27 31.4138 132.204 31.2553 132.204 31.09C132.204 30.9247 132.27 30.7661 132.387 30.6492C132.504 30.5323 132.662 30.4667 132.827 30.4667H138.952C139.118 30.4667 139.276 30.5323 139.393 30.6492C139.51 30.7661 139.576 30.9247 139.576 31.09C139.576 31.2553 139.51 31.4138 139.393 31.5307C139.276 31.6475 139.118 31.7133 138.952 31.7133Z" fill="#3A3A3A"/>
<path d="M136.567 34.3643H132.827C132.662 34.3643 132.504 34.2987 132.387 34.1818C132.27 34.0649 132.204 33.9063 132.204 33.741C132.204 33.5757 132.27 33.4172 132.387 33.3003C132.504 33.1835 132.662 33.1177 132.827 33.1177H136.567C136.732 33.1177 136.891 33.1835 137.008 33.3003C137.125 33.4172 137.19 33.5757 137.19 33.741C137.19 33.9063 137.125 34.0649 137.008 34.1818C136.891 34.2987 136.732 34.3643 136.567 34.3643Z" fill="#3A3A3A"/>
<path d="M132.827 37.032C132.662 37.032 132.504 36.9664 132.387 36.8495C132.27 36.7326 132.204 36.574 132.204 36.4087C132.204 36.2434 132.27 36.0849 132.387 35.968C132.504 35.8511 132.662 35.7854 132.827 35.7854H140.394C140.559 35.7854 140.718 35.8511 140.835 35.968C140.952 36.0849 141.017 36.2434 141.017 36.4087C141.017 36.574 140.952 36.7326 140.835 36.8495C140.718 36.9664 140.559 37.032 140.394 37.032H132.832H132.827Z" fill="#3A3A3A"/>
</g>
<g clip-path="url(#clip3_755_22931)">
<path d="M15.3866 128.831H0.622803V168.564H56.495V162.356" fill="white"/>
<path d="M15.3866 128.831H0.622803V168.564H56.495V162.356" stroke="#333333" stroke-width="1.24659" stroke-miterlimit="10"/>
<path opacity="0.1" d="M54.2054 131.121H2.91235V166.275H54.2054V131.121Z" fill="#397AF6"/>
<path d="M21.4149 122.623H62.4942V162.356H6.62207V137.291L21.4149 122.623Z" fill="white" stroke="#333333" stroke-width="1.24659" stroke-miterlimit="10"/>
<path d="M21.4357 122.623V137.292H6.62207L21.4357 122.623Z" fill="white" stroke="#333333" stroke-width="1.24659" stroke-linejoin="round"/>
<path d="M30.0586 135.193C29.4589 135.196 28.8718 135.022 28.3715 134.691C27.8713 134.36 27.4804 133.889 27.2485 133.336C27.0166 132.783 26.9539 132.173 27.0686 131.585C27.1832 130.996 27.47 130.455 27.8926 130.029C28.3152 129.604 28.8545 129.313 29.4423 129.195C30.03 129.076 30.6399 129.134 31.1944 129.362C31.749 129.591 32.2233 129.978 32.5574 130.476C32.8915 130.974 33.0703 131.56 33.0711 132.16C33.0728 132.557 32.9961 132.95 32.8456 133.318C32.695 133.685 32.4735 134.019 32.1937 134.301C31.9139 134.583 31.5813 134.806 31.2149 134.96C30.8485 135.113 30.4556 135.192 30.0586 135.193ZM30.0586 130.41C29.7097 130.406 29.3675 130.506 29.0756 130.697C28.7836 130.888 28.5551 131.162 28.4191 131.483C28.2831 131.804 28.2458 132.159 28.312 132.501C28.3781 132.844 28.5447 133.159 28.7905 133.406C29.0363 133.654 29.3502 133.823 29.6923 133.891C30.0343 133.96 30.3891 133.925 30.7113 133.791C31.0336 133.658 31.3087 133.431 31.5018 133.141C31.6949 132.85 31.7971 132.509 31.7954 132.16C31.7971 131.931 31.7534 131.703 31.6669 131.491C31.5803 131.279 31.4526 131.086 31.2911 130.923C31.1297 130.761 30.9377 130.632 30.7261 130.544C30.5146 130.456 30.2877 130.41 30.0586 130.41Z" fill="#3A3A3A"/>
<path d="M51.1686 144.098H27.7826C27.6623 144.098 27.5446 144.063 27.443 143.999C27.3415 143.934 27.2603 143.842 27.209 143.734C27.1576 143.625 27.1382 143.504 27.153 143.384C27.1677 143.265 27.216 143.152 27.2923 143.059L35.0461 133.656C35.1495 133.53 35.2972 133.449 35.4588 133.428C35.6204 133.408 35.7835 133.451 35.9145 133.548L39.1141 135.904L45.7917 130.049C45.8553 129.992 45.9296 129.949 46.0103 129.922C46.091 129.895 46.1764 129.884 46.2612 129.891C46.4244 129.909 46.5738 129.992 46.6768 130.119L51.6257 136.024C51.7227 136.141 51.7756 136.288 51.7753 136.44V143.483C51.7759 143.567 51.7598 143.649 51.728 143.727C51.6963 143.804 51.6495 143.875 51.5903 143.934C51.5312 143.993 51.4609 144.04 51.3835 144.071C51.3061 144.103 51.2232 144.119 51.1395 144.119L51.1686 144.098ZM29.1455 142.826H50.5453V136.652L46.1657 131.42L39.592 137.183C39.4831 137.28 39.3444 137.336 39.199 137.342C39.0536 137.348 38.9106 137.304 38.7942 137.217L35.6694 134.915L29.1455 142.826Z" fill="#3A3A3A"/>
<path d="M55.4352 149.009H25.2968C24.8791 149.009 24.5405 149.348 24.5405 149.766V156.543C24.5405 156.961 24.8791 157.299 25.2968 157.299H55.4352C55.8529 157.299 56.1914 156.961 56.1914 156.543V149.766C56.1914 149.348 55.8529 149.009 55.4352 149.009Z" fill="url(#paint7_linear_755_22931)" stroke="#333333" stroke-width="1.24659" stroke-miterlimit="10"/>
<path d="M33.7074 155.222C33.7074 155.137 33.7321 155.066 33.7817 155.009C33.833 154.953 33.909 154.924 34.0099 154.924C34.1107 154.924 34.1868 154.953 34.2381 155.009C34.2912 155.066 34.3177 155.137 34.3177 155.222C34.3177 155.303 34.2912 155.371 34.2381 155.426C34.1868 155.481 34.1107 155.508 34.0099 155.508C33.909 155.508 33.833 155.481 33.7817 155.426C33.7321 155.371 33.7074 155.303 33.7074 155.222ZM36.8257 151.615H37.3379V154.351C37.3379 154.721 37.2264 155.01 37.0035 155.219C36.7823 155.428 36.4868 155.532 36.1171 155.532C35.7331 155.532 35.4341 155.434 35.2201 155.238C35.006 155.041 34.8989 154.766 34.8989 154.412H35.4085C35.4085 154.633 35.4686 154.806 35.5889 154.93C35.711 155.054 35.8871 155.115 36.1171 155.115C36.3276 155.115 36.4975 155.049 36.6266 154.916C36.7575 154.784 36.8239 154.598 36.8257 154.359V151.615ZM38.7152 153.966V155.479H38.2057V151.615H39.6308C40.0536 151.615 40.3845 151.723 40.6233 151.939C40.864 152.155 40.9843 152.44 40.9843 152.796C40.9843 153.171 40.8666 153.46 40.6313 153.664C40.3978 153.866 40.0625 153.966 39.6255 153.966H38.7152ZM38.7152 153.55H39.6308C39.9033 153.55 40.112 153.486 40.2571 153.359C40.4022 153.229 40.4747 153.044 40.4747 152.801C40.4747 152.571 40.4022 152.387 40.2571 152.249C40.112 152.111 39.913 152.04 39.66 152.034H38.7152V153.55ZM44.4874 154.972C44.3565 155.16 44.1733 155.3 43.938 155.394C43.7045 155.486 43.432 155.532 43.1206 155.532C42.8057 155.532 42.5262 155.459 42.282 155.312C42.0379 155.163 41.8486 154.953 41.7141 154.68C41.5814 154.408 41.5133 154.092 41.5097 153.733V153.396C41.5097 152.814 41.6451 152.363 41.9158 152.042C42.1882 151.722 42.5704 151.562 43.0623 151.562C43.4656 151.562 43.7903 151.665 44.0362 151.872C44.2822 152.078 44.4325 152.37 44.4874 152.748H43.9778C43.8823 152.237 43.578 151.981 43.0649 151.981C42.7234 151.981 42.4642 152.102 42.2873 152.342C42.1122 152.581 42.0237 152.928 42.0219 153.383V153.698C42.0219 154.132 42.121 154.477 42.3192 154.733C42.5173 154.988 42.7854 155.115 43.1233 155.115C43.3144 155.115 43.4816 155.094 43.6249 155.052C43.7682 155.009 43.8867 154.938 43.9805 154.837V153.969H43.0861V153.555H44.4874V154.972Z" fill="white"/>
</g>
<defs>
<linearGradient id="paint0_linear_755_22931" x1="20.6599" y1="16.0256" x2="31.1105" y2="16.0256" gradientUnits="userSpaceOnUse">
<stop stop-color="#3B94E2"/>
<stop offset="0.3125" stop-color="#2BB1FF"/>
</linearGradient>
<linearGradient id="paint1_linear_755_22931" x1="20.6599" y1="25.6575" x2="37.7174" y2="25.6575" gradientUnits="userSpaceOnUse">
<stop stop-color="#3B94E2"/>
<stop offset="0.3125" stop-color="#2BB1FF"/>
</linearGradient>
<linearGradient id="paint2_linear_755_22931" x1="20.6599" y1="35.2937" x2="50.736" y2="35.2937" gradientUnits="userSpaceOnUse">
<stop stop-color="#3B94E2"/>
<stop offset="0.3125" stop-color="#2BB1FF"/>
</linearGradient>
<linearGradient id="paint3_linear_755_22931" x1="20.6599" y1="44.9299" x2="50.736" y2="44.9299" gradientUnits="userSpaceOnUse">
<stop stop-color="#3B94E2"/>
<stop offset="0.3125" stop-color="#2BB1FF"/>
</linearGradient>
<linearGradient id="paint4_linear_755_22931" x1="20.6599" y1="54.5619" x2="50.736" y2="54.5619" gradientUnits="userSpaceOnUse">
<stop stop-color="#3B94E2"/>
<stop offset="0.3125" stop-color="#2BB1FF"/>
</linearGradient>
<linearGradient id="paint5_linear_755_22931" x1="125.703" y1="167.188" x2="157.354" y2="167.188" gradientUnits="userSpaceOnUse">
<stop stop-color="#3B94E2"/>
<stop offset="0.3125" stop-color="#2BB1FF"/>
</linearGradient>
<linearGradient id="paint6_linear_755_22931" x1="124.704" y1="53.1878" x2="156.355" y2="53.1878" gradientUnits="userSpaceOnUse">
<stop stop-color="#3B94E2"/>
<stop offset="0.3125" stop-color="#2BB1FF"/>
</linearGradient>
<linearGradient id="paint7_linear_755_22931" x1="24.5405" y1="153.156" x2="56.1914" y2="153.156" gradientUnits="userSpaceOnUse">
<stop stop-color="#3B94E2"/>
<stop offset="0.3125" stop-color="#2BB1FF"/>
</linearGradient>
<clipPath id="clip0_755_22931">
<rect width="47.1876" height="63.119" fill="white" transform="translate(9)"/>
</clipPath>
<clipPath id="clip1_755_22931">
<rect width="47.1876" height="63.119" fill="white" transform="translate(114.691 114)"/>
</clipPath>
<clipPath id="clip2_755_22931">
<rect width="47.1876" height="63.119" fill="white" transform="translate(113.691)"/>
</clipPath>
<clipPath id="clip3_755_22931">
<rect width="63.119" height="47.1876" fill="white" transform="translate(0 122)"/>
</clipPath>
</defs>
</svg>
