<svg width="274" height="202" viewBox="0 0 274 202" fill="none" xmlns="http://www.w3.org/2000/svg">
<g clip-path="url(#clip0_755_22982)">
<path d="M58.7697 20.7015C58.5635 20.7766 58.3458 20.8149 58.1264 20.8147C53.6703 20.8147 50 17.689 50 13.0488C50 8.15229 53.8958 5 58.6603 5C63.4247 5 67.3172 8.12566 67.3172 13.0189C67.3172 15.2424 66.5911 16.9601 65.245 19.0971L59.3598 28.4674H53.5874L58.7697 20.7015ZM62.3571 12.9922C62.3571 10.9384 60.9281 9.33065 58.6603 9.33065C56.3924 9.33065 54.9601 10.9351 54.9601 12.9922C54.9601 15.0494 56.3891 16.6538 58.6603 16.6538C60.9314 16.6538 62.3571 15.046 62.3571 12.9922ZM69.1109 20.9811C69.1109 18.7609 69.8403 17.0433 71.1831 14.9062L77.0683 5.53592H82.8407L77.6584 13.3018C77.8646 13.2268 78.0823 13.1885 78.3017 13.1886C82.7578 13.1886 86.4281 16.311 86.4281 20.9545C86.4281 25.6513 82.5622 29 77.7712 29C72.9802 29 69.1109 25.8777 69.1109 20.9811ZM81.468 21.0111C81.468 18.9573 80.039 17.3495 77.7712 17.3495C75.5033 17.3495 74.0843 18.9573 74.0843 21.0111C74.0843 23.0649 75.5133 24.6727 77.7844 24.6727C80.0556 24.6727 81.468 23.0649 81.468 21.0111Z" fill="#00AAFF"/>
<path d="M93.646 17.5858C93.646 19.2768 92.4026 20.5118 90.5957 20.5118C88.7887 20.5118 87.5586 19.2768 87.5586 17.5858C87.5586 15.8948 88.8052 14.6432 90.5957 14.6432C92.3861 14.6432 93.646 15.8915 93.646 17.5858ZM91.2256 27.3057H89.1467L97.3428 14.8862H99.4217L91.2256 27.3057ZM89.4352 17.5858C89.4301 17.7411 89.4568 17.8957 89.5137 18.0402C89.5706 18.1846 89.6563 18.3158 89.7657 18.4257C89.8751 18.5355 90.0058 18.6216 90.1497 18.6787C90.2936 18.7358 90.4476 18.7626 90.6023 18.7575C90.7571 18.7626 90.9112 18.7358 91.0553 18.6787C91.1994 18.6217 91.3303 18.5356 91.4399 18.4258C91.5496 18.3161 91.6357 18.1849 91.6929 18.0404C91.7501 17.8959 91.7773 17.7412 91.7727 17.5858C91.7777 17.4301 91.7509 17.2751 91.6939 17.1302C91.6369 16.9853 91.5509 16.8538 91.4412 16.7436C91.3315 16.6335 91.2004 16.5471 91.0561 16.4899C90.9118 16.4326 90.7574 16.4057 90.6023 16.4108C90.4474 16.4057 90.293 16.4326 90.1489 16.4899C90.0048 16.5472 89.8739 16.6336 89.7645 16.7438C89.655 16.854 89.5693 16.9856 89.5127 17.1304C89.456 17.2753 89.4297 17.4303 89.4352 17.5858ZM101 24.5761C101 26.2671 99.7566 27.5021 97.9496 27.5021C96.1426 27.5021 94.9125 26.2671 94.9125 24.5761C94.9125 22.8851 96.1592 21.6502 97.9562 21.6502C99.7532 21.6502 101 22.8851 101 24.5928V24.5761ZM96.7792 24.5761C96.7722 24.7336 96.7978 24.8909 96.8544 25.038C96.9109 25.185 96.9972 25.3188 97.1078 25.4307C97.2183 25.5427 97.3508 25.6304 97.4968 25.6884C97.6429 25.7464 97.7993 25.7735 97.9562 25.7678C98.1104 25.7715 98.2638 25.7436 98.4069 25.6857C98.5501 25.6278 98.6799 25.5412 98.7885 25.4312C98.8972 25.3212 98.9823 25.1901 99.0387 25.046C99.0951 24.9018 99.1217 24.7476 99.1166 24.5928C99.1217 24.4379 99.0951 24.2837 99.0387 24.1395C98.9823 23.9954 98.8972 23.8643 98.7885 23.7543C98.6799 23.6443 98.5501 23.5577 98.4069 23.4998C98.2638 23.442 98.1104 23.414 97.9562 23.4177C97.8007 23.4122 97.6457 23.4387 97.5009 23.4958C97.356 23.5528 97.2244 23.639 97.114 23.7491C97.0037 23.8593 96.9171 23.991 96.8595 24.1361C96.8019 24.2812 96.7745 24.4366 96.7792 24.5928V24.5761Z" fill="#00AAFF"/>
</g>
<circle opacity="0.1" cx="17" cy="17" r="17" fill="#397AF6"/>
<path fill-rule="evenodd" clip-rule="evenodd" d="M16.4138 -7.11714e-05V16.9902L28.7242 4.67971C31.9745 7.77613 34 12.1465 34 16.99C34 26.3789 26.3888 33.99 17 33.99C7.61116 33.99 0 26.3789 0 16.99C0 7.79738 7.29637 0.308902 16.4138 -7.11714e-05Z" fill="#31A8F6"/>
<path d="M4.5875 53.6125H3.3V55.4625C3.3 57.55 2.2 59.6875 0.4375 60.55L1.225 61.5875C2.5125 60.925 3.4625 59.6125 3.95 58.05C4.4375 59.525 5.3375 60.75 6.55 61.375L7.3375 60.35C5.6375 59.5125 4.5875 57.475 4.5875 55.4625V53.6125ZM11.1375 57.15H9.375V52.675H8.0875V63.9625H9.375V58.2125H11.1375V57.15ZM13.924 53.975H12.6365V61.1125H13.3865C14.5615 61.1125 15.8615 61.05 17.374 60.775L17.2365 59.675C16.0115 59.9 14.924 59.9875 13.924 60.0125V53.975ZM20.5115 52.675V57.1625H19.174V52.9H17.9615V63.4H19.174V58.225H20.5115V63.9625H21.7365V52.675H20.5115ZM26.173 60.35C25.398 60.35 24.923 59.3375 24.923 57.55C24.923 55.7625 25.398 54.7625 26.173 54.7625C26.948 54.7625 27.423 55.7625 27.423 57.55C27.423 59.3375 26.948 60.35 26.173 60.35ZM29.7855 56.95H28.573C28.4355 54.8375 27.523 53.55 26.173 53.55C24.7105 53.55 23.748 55.075 23.748 57.55C23.748 60.025 24.7105 61.5625 26.173 61.5625C27.548 61.5625 28.473 60.2125 28.5855 58.0125H29.7855V63.425H30.9855V52.8875H29.7855V56.95ZM32.048 52.675V63.95H33.273V52.675H32.048ZM39.2221 53.5875H37.9221V55.45C37.9221 57.5625 36.8221 59.7375 35.0596 60.6L35.8721 61.625C37.1596 60.9625 38.0846 59.65 38.5846 58.05C39.0721 59.5625 39.9846 60.8 41.2596 61.4375L42.0221 60.4C40.2971 59.6 39.2221 57.55 39.2221 55.45V53.5875ZM43.2096 52.65V56.3625H40.7971V57.4125H43.2096V63.975H44.5096V52.65H43.2096ZM50.0412 53.8V54.85H53.8662C53.8287 55.475 53.7162 56.0625 53.5662 56.625L49.4537 56.875L49.6412 57.975L53.1662 57.65C52.5037 59.0375 51.3162 60.2125 49.4037 61.1875L50.1037 62.1875C54.1162 60.1375 55.1537 57.1625 55.1537 53.8H50.0412ZM57.4912 52.675V57.1125H55.1162V58.175H57.4912V63.975H58.7912V52.675H57.4912ZM68.6152 56.6875H63.4527V54.275H68.6152V56.6875ZM69.8902 53.25H62.1777V57.7125H69.8902V53.25ZM71.1652 59.1H60.9277V60.1375H63.4277V64.025H64.7152V60.1375H67.4152V64.025H68.6902V60.1375H71.1652V59.1ZM74.3768 53.775H73.1018V61.1125H74.0643C75.8143 61.1125 77.6393 60.975 79.5768 60.575L79.4393 59.5C77.6643 59.8625 75.9768 60 74.3768 60.0125V53.775ZM80.4768 52.675V63.9625H81.7643V52.675H80.4768ZM90.0133 57.0375H88.5133C88.7883 56.075 88.8883 55.05 88.8883 53.975H84.5258V55.0125H87.6508C87.6133 55.5625 87.5258 56.075 87.4008 56.5875L83.9758 56.7875L84.1508 57.9L87.0508 57.5875C86.5133 58.825 85.5383 59.875 83.9508 60.775L84.6758 61.675C86.4383 60.675 87.5008 59.45 88.1258 58.0875H90.0133V63.4125H91.2133V52.9375H90.0133V57.0375ZM92.3508 52.6625V63.9625H93.5883V52.6625H92.3508ZM103.425 52.6625V63.9875H104.725V52.6625H103.425ZM98.7123 53.5C97.0373 53.5 95.8123 55.05 95.8123 57.475C95.8123 59.925 97.0373 61.4625 98.7123 61.4625C100.4 61.4625 101.625 59.925 101.625 57.475C101.625 55.05 100.4 53.5 98.7123 53.5ZM98.7123 54.6625C99.6998 54.6625 100.387 55.725 100.387 57.475C100.387 59.25 99.6998 60.3125 98.7123 60.3125C97.7373 60.3125 97.0498 59.25 97.0498 57.475C97.0498 55.725 97.7373 54.6625 98.7123 54.6625ZM114.999 61.075H116.286V52.675H114.999V54.25H112.899V55.3H114.999V56.5125H112.899V57.55H114.999V61.075ZM113.586 58.5125C111.899 57.8625 110.961 56.3 110.961 54.7V53.3H109.649V54.7C109.649 56.4 108.674 58.0125 106.911 58.6625L107.611 59.675C108.899 59.1625 109.836 58.1625 110.324 56.8875C110.799 58.0625 111.686 59.025 112.874 59.525L113.586 58.5125ZM110.236 62.7V60.2625H108.936V63.75H116.549V62.7H110.236ZM6.375 77.55V74.8875H9.7125V73.85H3.175V70.5625H9.6125V69.525H1.8875V74.8875H5.0875V77.55H0.6375V78.6125H10.8625V77.55H6.375ZM22.349 74.1875H20.774C21.0615 72.5875 21.0615 71.4125 21.0615 70.35V69.3625H13.3615V70.4H19.799C19.799 71.4375 19.799 72.6125 19.474 74.1875H12.1365V75.25H16.549V79.9625H17.849V75.25H22.349V74.1875ZM29.373 77.575V75.65H32.898V74.6125H26.1355V73.0375H32.648V69.4625H24.848V70.5H31.373V72.0125H24.873V75.65H28.0855V77.575H23.6355V78.6375H33.8605V77.575H29.373ZM41.4672 76H39.5172V70.9375H41.4672V76ZM44.0922 72.8625H42.6672V69.9125H38.3172V77.025H42.6672V73.9125H44.0922V79.425H45.2922V68.8875H44.0922V72.8625ZM46.3547 68.675V79.95H47.5797V68.675H46.3547ZM58.7412 68.6875H57.4537V76.9375H58.7412V68.6875ZM56.2787 74.1375C54.5412 73.5375 53.5537 72.025 53.5537 70.425V69.3H52.2412V70.425C52.2412 72.075 51.2537 73.6875 49.4787 74.3375L50.1412 75.375C51.4662 74.875 52.4037 73.85 52.9162 72.5875C53.4037 73.7625 54.3287 74.6875 55.6162 75.1625L56.2787 74.1375ZM52.6662 78.7V76.1625H51.3662V79.75H59.0662V78.7H52.6662ZM64.9902 70.85H67.4402V69.8H61.2527V70.85H63.6902V71.7625C63.6902 73.8 62.5527 75.95 60.8152 76.7875L61.5777 77.8125C62.8902 77.1375 63.8652 75.7625 64.3652 74.1625C64.8652 75.675 65.8277 76.95 67.1152 77.575L67.8652 76.5625C66.1152 75.75 64.9902 73.675 64.9902 71.7625V70.85ZM69.0152 68.6625V72.7H66.7902V73.7625H69.0152V79.975H70.3027V68.6625H69.0152ZM80.1018 70.6H73.7393V73.1375H81.5768V72.2375H75.0018V71.4375H81.3768V68.95H73.7143V69.8375H80.1018V70.6ZM74.9143 78.0875H81.4143V75.5625H73.6143V76.45H80.1393V77.25H73.6393V79.8375H81.7518V78.95H74.9143V78.0875ZM72.4268 73.85V74.8H82.6643V73.85H72.4268ZM90.6959 69.6125H89.4084V71.4625C89.4084 73.55 88.3084 75.6875 86.5459 76.55L87.3334 77.5875C88.6209 76.925 89.5709 75.6125 90.0584 74.05C90.5459 75.525 91.4459 76.75 92.6584 77.375L93.4459 76.35C91.7459 75.5125 90.6959 73.475 90.6959 71.4625V69.6125ZM97.2459 73.15H95.4834V68.675H94.1959V79.9625H95.4834V74.2125H97.2459V73.15ZM103.32 78.975C101.67 78.975 100.745 78.625 100.745 77.9375C100.745 77.2625 101.67 76.9 103.32 76.9C104.97 76.9 105.907 77.2625 105.907 77.9375C105.907 78.625 104.97 78.975 103.32 78.975ZM103.32 75.9125C100.895 75.9125 99.4324 76.65 99.4324 77.9375C99.4324 79.2375 100.895 79.9625 103.32 79.9625C105.757 79.9625 107.207 79.2375 107.207 77.9375C107.207 76.65 105.757 75.9125 103.32 75.9125ZM101.945 73.0125C102.357 73.075 102.845 73.1125 103.345 73.1125C103.845 73.1125 104.307 73.075 104.72 73.0125V74.1625H101.945V73.0125ZM103.345 69.8625C105.02 69.8625 106.032 70.2625 106.032 70.9875C106.032 71.7125 105.02 72.125 103.345 72.125C101.657 72.125 100.645 71.7125 100.645 70.9875C100.645 70.2625 101.657 69.8625 103.345 69.8625ZM106.007 74.1625V72.675C106.87 72.3 107.37 71.725 107.37 70.9875C107.37 69.6625 105.807 68.8625 103.345 68.8625C100.87 68.8625 99.3199 69.6625 99.3199 70.9875C99.3199 71.725 99.8074 72.3 100.657 72.6625V74.1625H98.2324V75.1875H108.445V74.1625H106.007Z" fill="black"/>
<g clip-path="url(#clip1_755_22982)">
<path d="M232.376 22.9599H222V18.816L230.93 5.01406H237.253V18.8291H240.273V22.9599H237.253V27.4822H232.376V22.9599ZM232.376 18.8225V10.1629L226.931 18.816L232.376 18.8225ZM241.769 20.9173H246.844C247.042 22.7119 248.092 23.7593 250.219 23.7593C252.346 23.7593 253.594 22.242 253.594 20.1701C253.594 18.0982 252.346 16.6136 250.135 16.6136C249.505 16.5854 248.878 16.7091 248.309 16.9738C247.74 17.2386 247.247 17.636 246.875 18.1308H242.185L242.856 5.00427H257.458V9.27864H247.545L247.287 13.4975C248.415 12.8598 249.7 12.5348 251.004 12.5578C255.54 12.5578 258.602 15.3998 258.602 20.1701C258.602 24.9404 254.973 28.001 250.216 28.001C245.191 28.001 242.128 25.2439 241.759 20.9108L241.769 20.9173Z" fill="#00AAFF"/>
<path d="M266.563 16.8214C266.563 18.479 265.305 19.6895 263.476 19.6895C261.648 19.6895 260.407 18.479 260.407 16.8214C260.407 15.1639 261.665 13.9403 263.476 13.9403C265.288 13.9403 266.563 15.1476 266.563 16.8214ZM264.117 26.336H262.004L270.296 14.1491H272.4L264.117 26.336ZM262.306 16.8214C262.3 16.9739 262.327 17.1258 262.384 17.2678C262.441 17.4098 262.528 17.5388 262.639 17.6468C262.75 17.7548 262.882 17.8396 263.028 17.8957C263.174 17.9519 263.33 17.9782 263.487 17.9732C263.643 17.9782 263.8 17.9518 263.946 17.8957C264.092 17.8396 264.224 17.7549 264.335 17.647C264.446 17.539 264.533 17.41 264.591 17.268C264.649 17.126 264.676 16.974 264.671 16.8214C264.675 16.6691 264.648 16.5174 264.59 16.3758C264.532 16.2342 264.445 16.1056 264.334 15.998C264.223 15.8904 264.091 15.806 263.945 15.7501C263.799 15.6942 263.643 15.6679 263.487 15.6729C263.329 15.6665 263.172 15.6918 263.026 15.7471C262.879 15.8025 262.745 15.8867 262.633 15.9945C262.522 16.1023 262.434 16.2314 262.376 16.3737C262.318 16.516 262.29 16.6684 262.296 16.8214H262.306ZM274.007 23.6735C274.007 25.331 272.749 26.5415 270.92 26.5415C269.092 26.5415 267.848 25.331 267.848 23.6735C267.848 22.0159 269.109 20.7891 270.92 20.7891C272.732 20.7891 273.997 22.0061 273.997 23.68L274.007 23.6735ZM269.736 23.6735C269.732 23.8258 269.759 23.9774 269.817 24.1191C269.875 24.2607 269.962 24.3893 270.073 24.4969C270.184 24.6045 270.316 24.6888 270.462 24.7448C270.608 24.8007 270.764 24.827 270.92 24.822C271.077 24.827 271.233 24.8007 271.378 24.7447C271.524 24.6888 271.656 24.6044 271.767 24.4967C271.877 24.389 271.964 24.2604 272.022 24.1188C272.079 23.9772 272.106 23.8256 272.101 23.6735C272.107 23.521 272.08 23.3691 272.023 23.2271C271.965 23.0851 271.879 22.9561 271.768 22.8481C271.657 22.74 271.525 22.6553 271.379 22.5992C271.233 22.543 271.077 22.5166 270.92 22.5217C270.762 22.5152 270.604 22.5408 270.456 22.5967C270.309 22.6526 270.175 22.7376 270.062 22.8464C269.95 22.9552 269.862 23.0855 269.805 23.229C269.747 23.3724 269.72 23.526 269.726 23.68L269.736 23.6735Z" fill="#00AAFF"/>
</g>
<circle opacity="0.1" cx="189" cy="17" r="17" fill="#397AF6"/>
<path fill-rule="evenodd" clip-rule="evenodd" d="M188.414 -7.10421e-05V17.2833L198.325 31.2064C195.648 32.9662 192.443 33.99 189 33.99C179.611 33.99 172 26.3789 172 16.99C172 7.79738 179.296 0.308902 188.414 -7.10421e-05Z" fill="#31A8F6"/>
<path d="M179.313 53.9625H176.625V52.6625H175.338V53.9625H172.65V54.9875H179.313V53.9625ZM174.475 57.65C174.475 56.9375 175.088 56.5125 175.975 56.5125C176.875 56.5125 177.488 56.9375 177.488 57.65C177.488 58.3625 176.875 58.7875 175.975 58.7875C175.088 58.7875 174.475 58.3625 174.475 57.65ZM178.713 57.65C178.713 56.375 177.6 55.5125 175.975 55.5125C174.363 55.5125 173.238 56.375 173.238 57.65C173.238 58.9375 174.363 59.7875 175.975 59.7875C177.6 59.7875 178.713 58.9375 178.713 57.65ZM175.6 60.4875H174.3V63.75H181.9V62.7H175.6V60.4875ZM181.45 56.275V52.675H180.163V61.1375H181.45V57.3375H183.05V56.275H181.45ZM190.599 56.575C189.199 56.8625 187.937 56.9375 185.862 56.95V54.325H189.599V53.3H184.574V57.9875H185.487C187.849 57.9875 189.212 57.9125 190.749 57.5875L190.599 56.575ZM186.949 61.7875H192.949V58.8375H185.662V59.875H191.674V60.8125H185.687V63.825H193.324V62.8H186.949V61.7875ZM192.949 54.9375V52.675H191.662V58.325H192.949V56H194.549V54.9375H192.949ZM198.173 60.35C197.398 60.35 196.923 59.3375 196.923 57.55C196.923 55.7625 197.398 54.7625 198.173 54.7625C198.948 54.7625 199.423 55.7625 199.423 57.55C199.423 59.3375 198.948 60.35 198.173 60.35ZM201.786 56.95H200.573C200.436 54.8375 199.523 53.55 198.173 53.55C196.711 53.55 195.748 55.075 195.748 57.55C195.748 60.025 196.711 61.5625 198.173 61.5625C199.548 61.5625 200.473 60.2125 200.586 58.0125H201.786V63.425H202.986V52.8875H201.786V56.95ZM204.048 52.675V63.95H205.273V52.675H204.048ZM216.617 53.9625H213.93V52.6625H212.642V53.9625H209.955V54.9875H216.617V53.9625ZM211.78 57.65C211.78 56.9375 212.392 56.5125 213.28 56.5125C214.18 56.5125 214.792 56.9375 214.792 57.65C214.792 58.3625 214.18 58.7875 213.28 58.7875C212.392 58.7875 211.78 58.3625 211.78 57.65ZM216.017 57.65C216.017 56.375 214.905 55.5125 213.28 55.5125C211.667 55.5125 210.542 56.375 210.542 57.65C210.542 58.9375 211.667 59.7875 213.28 59.7875C214.905 59.7875 216.017 58.9375 216.017 57.65ZM212.905 60.4875H211.605V63.75H219.205V62.7H212.905V60.4875ZM218.755 56.275V52.675H217.467V61.1375H218.755V57.3375H220.355V56.275H218.755ZM228.699 58.1375H226.036V56.3H228.699V58.1375ZM229.961 56.825H232.311V61.0375H233.599V52.675H232.311V55.775H229.961V53.425H228.699V55.2875H226.036V53.425H224.761V59.1875H229.961V56.825ZM227.549 62.7V60.2125H226.249V63.75H233.861V62.7H227.549ZM246.543 52.6625V63.9875H247.843V52.6625H246.543ZM241.83 53.5C240.155 53.5 238.93 55.05 238.93 57.475C238.93 59.925 240.155 61.4625 241.83 61.4625C243.518 61.4625 244.743 59.925 244.743 57.475C244.743 55.05 243.518 53.5 241.83 53.5ZM241.83 54.6625C242.818 54.6625 243.505 55.725 243.505 57.475C243.505 59.25 242.818 60.3125 241.83 60.3125C240.855 60.3125 240.168 59.25 240.168 57.475C240.168 55.725 240.855 54.6625 241.83 54.6625ZM256.617 57.8375C254.942 57.2875 253.979 55.9125 253.979 54.4625V53.25H252.679V54.3625C252.679 55.9875 251.717 57.525 249.942 58.1375L250.629 59.1625C251.929 58.6875 252.854 57.7125 253.354 56.4875C253.829 57.55 254.729 58.4125 255.942 58.85L256.617 57.8375ZM255.229 62.95C253.654 62.95 252.742 62.5625 252.742 61.8375C252.742 61.1375 253.654 60.7375 255.229 60.7375C256.804 60.7375 257.717 61.1375 257.717 61.8375C257.717 62.5625 256.804 62.95 255.229 62.95ZM255.229 59.725C252.904 59.725 251.467 60.5125 251.467 61.8375C251.467 63.175 252.904 63.9625 255.229 63.9625C257.567 63.9625 258.992 63.175 258.992 61.8375C258.992 60.5125 257.567 59.725 255.229 59.725ZM258.867 55.4625V52.6625H257.579V59.45H258.867V56.525H260.467V55.4625H258.867ZM180.275 72.225H175.188V70.2H180.275V72.225ZM181.538 69.175H173.925V73.25H181.538V69.175ZM175.163 76.4875H173.875V79.75H181.725V78.7H175.163V76.4875ZM172.625 74.3625V75.4H177.2V77.5125H178.488V75.4H182.863V74.3625H172.625ZM188.224 69.5875H186.924V71.45C186.924 73.5625 185.824 75.7375 184.062 76.6L184.874 77.625C186.162 76.9625 187.087 75.65 187.587 74.05C188.074 75.5625 188.987 76.8 190.262 77.4375L191.024 76.4C189.299 75.6 188.224 73.55 188.224 71.45V69.5875ZM192.212 68.65V72.3625H189.799V73.4125H192.212V79.975H193.512V68.65H192.212ZM203.298 70.6H196.936V73.1375H204.773V72.2375H198.198V71.4375H204.573V68.95H196.911V69.8375H203.298V70.6ZM198.111 78.0875H204.611V75.5625H196.811V76.45H203.336V77.25H196.836V79.8375H204.948V78.95H198.111V78.0875ZM195.623 73.85V74.8H205.861V73.85H195.623ZM216.592 73.325C214.867 72.825 213.892 71.6125 213.892 70.35V70.2875H216.242V69.25H210.18V70.2875H212.58V70.35C212.58 71.75 211.567 73.075 209.792 73.6L210.405 74.6C211.78 74.1875 212.755 73.3125 213.267 72.175C213.767 73.175 214.705 73.95 215.992 74.325L216.592 73.325ZM212.755 77.825H218.755V74.9625H211.467V75.95H217.48V76.9H211.492V79.8625H219.13V78.8625H212.755V77.825ZM218.755 71.025V68.675H217.467V74.475H218.755V72.0875H220.342V71.025H218.755ZM227.191 75.825H225.879V76.1125C225.879 77.4625 224.416 78.6 222.179 78.9125L222.654 79.9C224.441 79.6375 225.841 78.8625 226.541 77.7375C227.229 78.8625 228.629 79.6375 230.429 79.9L230.904 78.9125C228.641 78.6 227.191 77.4625 227.191 76.1125V75.825ZM223.991 70.15H229.079V71.9625H223.991V70.15ZM227.179 74.1625V73H230.341V69.125H222.729V73H225.891V74.1625H221.429V75.1875H231.654V74.1625H227.179ZM244.373 73.1625C244.685 72 244.685 71.0625 244.685 70.1625V69.2125H236.935V70.25H243.41C243.41 71.1 243.398 71.9125 243.11 73.025L244.373 73.1625ZM240.81 78.975C239.135 78.975 238.11 78.5625 238.11 77.85C238.11 77.15 239.135 76.7375 240.81 76.7375C242.473 76.7375 243.473 77.15 243.473 77.85C243.473 78.5625 242.473 78.975 240.81 78.975ZM240.81 75.75C238.373 75.75 236.835 76.55 236.835 77.85C236.835 79.1625 238.373 79.9625 240.81 79.9625C243.21 79.9625 244.76 79.1625 244.76 77.85C244.76 76.55 243.21 75.75 240.81 75.75ZM241.06 73.8375V71.7625H239.76V73.8375H235.76V74.875H245.935V73.8375H241.06ZM252.334 70.125C253.947 70.125 255.009 70.675 255.009 71.575C255.009 72.4875 253.947 73.0375 252.334 73.0375C250.709 73.0375 249.647 72.4875 249.647 71.575C249.647 70.675 250.709 70.125 252.334 70.125ZM252.334 74.075C254.709 74.075 256.334 73.1 256.334 71.575C256.334 70.0625 254.709 69.0875 252.334 69.0875C249.947 69.0875 248.322 70.0625 248.322 71.575C248.322 73.1 249.947 74.075 252.334 74.075ZM257.472 75.0375H247.234V76.1H249.734V79.9625H251.047V76.1H253.622V79.9625H254.934V76.1H257.484L257.472 75.0375Z" fill="black"/>
<g clip-path="url(#clip2_755_22982)">
<path d="M108 140.989C108 138.776 108.732 137.066 110.088 134.939L116.016 125.613H121.832L116.608 133.339C116.817 133.265 117.037 133.227 117.259 133.226C121.748 133.226 125.446 136.337 125.446 140.956C125.446 145.634 121.551 148.967 116.721 148.967C111.891 148.967 108 145.859 108 140.989ZM120.449 141.015C120.449 138.971 119.009 137.371 116.721 137.371C114.433 137.371 112.99 138.971 112.99 141.015C112.99 143.06 114.43 144.66 116.715 144.66C118.999 144.66 120.449 143.06 120.449 141.015ZM144.722 137.013C144.722 144.991 140.941 148.997 135.914 148.997C130.887 148.997 127.106 144.991 127.106 137.013C127.106 129.035 130.89 125 135.914 125C140.938 125 144.722 129.002 144.722 137.013ZM131.962 137.013C131.962 142.192 133.656 144.544 135.914 144.544C138.172 144.544 139.869 142.192 139.869 137.013C139.869 131.835 138.175 129.449 135.914 129.449C133.653 129.449 131.966 131.802 131.966 137.013H131.962Z" fill="#00AAFF"/>
<path d="M152.598 137.62C152.598 139.303 151.342 140.532 149.525 140.532C147.708 140.532 146.466 139.303 146.466 137.62C146.466 135.936 147.718 134.694 149.525 134.694C151.332 134.694 152.598 135.92 152.598 137.62ZM150.15 147.281H148.062L156.319 134.919H158.417L150.15 147.281ZM148.346 137.62C148.341 137.775 148.368 137.929 148.425 138.073C148.483 138.217 148.57 138.348 148.68 138.458C148.791 138.567 148.923 138.653 149.068 138.71C149.213 138.767 149.369 138.794 149.525 138.789C149.681 138.794 149.837 138.767 149.982 138.71C150.127 138.653 150.259 138.567 150.369 138.458C150.479 138.348 150.566 138.217 150.623 138.073C150.68 137.929 150.707 137.774 150.701 137.62C150.706 137.465 150.679 137.311 150.622 137.167C150.565 137.024 150.478 136.893 150.368 136.784C150.258 136.674 150.126 136.589 149.981 136.532C149.836 136.475 149.681 136.448 149.525 136.453C149.369 136.448 149.214 136.475 149.069 136.532C148.924 136.589 148.792 136.674 148.681 136.783C148.571 136.893 148.484 137.023 148.426 137.167C148.369 137.311 148.341 137.465 148.346 137.62V137.62ZM160 144.577C160 146.263 158.744 147.489 156.924 147.489C155.103 147.489 153.867 146.263 153.867 144.577C153.867 142.891 155.12 141.652 156.924 141.652C158.727 141.652 160 142.884 160 144.58V144.577ZM155.748 144.577C155.742 144.732 155.769 144.886 155.826 145.03C155.883 145.174 155.969 145.305 156.08 145.415C156.19 145.525 156.322 145.611 156.467 145.668C156.612 145.725 156.768 145.752 156.924 145.747C157.08 145.752 157.236 145.725 157.381 145.668C157.526 145.611 157.658 145.525 157.769 145.415C157.879 145.306 157.966 145.175 158.023 145.031C158.081 144.886 158.108 144.732 158.103 144.577C158.107 144.422 158.08 144.268 158.022 144.125C157.965 143.981 157.878 143.85 157.768 143.741C157.657 143.632 157.525 143.546 157.38 143.489C157.235 143.432 157.08 143.406 156.924 143.411C156.767 143.405 156.612 143.432 156.466 143.489C156.32 143.545 156.188 143.631 156.077 143.741C155.967 143.851 155.88 143.982 155.823 144.126C155.766 144.271 155.739 144.425 155.745 144.58L155.748 144.577Z" fill="#00AAFF"/>
</g>
<circle opacity="0.1" cx="75" cy="137" r="17" fill="#397AF6"/>
<path fill-rule="evenodd" clip-rule="evenodd" d="M73.5092 120.054L74.1205 137.576L68.3776 152.651C62.2788 150.069 58 144.029 58 136.99C58 128.103 64.8186 120.809 73.5092 120.054Z" fill="#31A8F6"/>
<path d="M63.1625 180H61.2125V174.937H63.1625V180ZM65.7875 176.862H64.3625V173.912H60.0125V181.025H64.3625V177.912H65.7875V183.425H66.9875V172.887H65.7875V176.862ZM68.05 172.675V183.95H69.275V172.675H68.05ZM80.4365 172.687H79.149V180.937H80.4365V172.687ZM77.974 178.137C76.2365 177.537 75.249 176.025 75.249 174.425V173.3H73.9365V174.425C73.9365 176.075 72.949 177.687 71.174 178.337L71.8365 179.375C73.1615 178.875 74.099 177.85 74.6115 176.587C75.099 177.762 76.024 178.687 77.3115 179.162L77.974 178.137ZM74.3615 182.7V180.162H73.0615V183.75H80.7615V182.7H74.3615ZM86.6855 174.85H89.1355V173.8H82.948V174.85H85.3855V175.762C85.3855 177.8 84.248 179.95 82.5105 180.787L83.273 181.812C84.5855 181.137 85.5605 179.762 86.0605 178.162C86.5605 179.675 87.523 180.95 88.8105 181.575L89.5605 180.562C87.8105 179.75 86.6855 177.675 86.6855 175.762V174.85ZM90.7105 172.662V176.7H88.4855V177.762H90.7105V183.975H91.998V172.662H90.7105ZM96.6721 180.35C95.8971 180.35 95.4221 179.337 95.4221 177.55C95.4221 175.762 95.8971 174.762 96.6721 174.762C97.4471 174.762 97.9221 175.762 97.9221 177.55C97.9221 179.337 97.4471 180.35 96.6721 180.35ZM100.285 176.95H99.0721C98.9346 174.837 98.0221 173.55 96.6721 173.55C95.2096 173.55 94.2471 175.075 94.2471 177.55C94.2471 180.025 95.2096 181.562 96.6721 181.562C98.0471 181.562 98.9721 180.212 99.0846 178.012H100.285V183.425H101.485V172.887H100.285V176.95ZM102.547 172.675V183.95H103.772V172.675H102.547ZM110.866 176.362H116.216V178.212H110.866V176.362ZM114.179 181.525V179.25H117.491V173.425H116.216V175.325H110.866V173.425H109.591V179.25H112.891V181.525H108.441V182.588H118.666V181.525H114.179ZM121.34 176.25C121.34 175.225 122.09 174.55 123.078 174.55C124.065 174.55 124.828 175.225 124.828 176.25C124.828 177.287 124.065 177.962 123.078 177.962C122.09 177.962 121.34 177.287 121.34 176.25ZM126.09 176.25C126.09 174.6 124.79 173.437 123.078 173.437C121.378 173.437 120.078 174.6 120.078 176.25C120.078 177.9 121.378 179.075 123.078 179.075C124.79 179.075 126.09 177.9 126.09 176.25ZM122.903 180.1H121.603V183.75H129.203V182.7H122.903V180.1ZM128.753 176.025V172.675H127.465V180.95H128.753V177.087H130.353V176.025H128.753ZM140.309 175.512V176.562H142.309V179.4H143.597V172.675H142.309V175.512H140.309ZM140.959 178.025C139.272 177.437 138.309 176.037 138.309 174.625V174.475H140.659V173.437H134.622V174.475H137.009V174.637C137.009 176.187 135.997 177.687 134.247 178.312L134.909 179.337C136.247 178.862 137.197 177.862 137.697 176.625C138.172 177.712 139.072 178.6 140.322 179.037L140.959 178.025ZM139.847 182.975C138.234 182.975 137.322 182.575 137.322 181.837C137.322 181.1 138.234 180.7 139.847 180.7C141.434 180.7 142.359 181.1 142.359 181.837C142.359 182.575 141.434 182.975 139.847 182.975ZM139.847 179.7C137.484 179.7 136.034 180.5 136.034 181.837C136.034 183.188 137.484 183.975 139.847 183.975C142.197 183.975 143.647 183.188 143.647 181.837C143.647 180.5 142.197 179.7 139.847 179.7ZM151.333 178.137C149.921 177.625 149.183 176.437 149.183 175.175V175.087H151.033V174.062H149.183V172.787H147.946V174.062H146.046V175.087H147.946V175.175C147.946 176.5 147.221 177.775 145.783 178.337L146.396 179.3C147.471 178.862 148.196 178.05 148.583 177.05C148.996 177.975 149.708 178.7 150.746 179.1L151.333 178.137ZM147.646 181.187H154.008V183.975H155.296V180.15H147.646V181.187ZM154.071 172.687V175.612H152.908V172.875H151.696V179.537H152.908V176.662H154.071V179.6H155.296V172.687H154.071ZM165.232 172.662V183.988H166.532V172.662H165.232ZM160.52 173.5C158.845 173.5 157.62 175.05 157.62 177.475C157.62 179.925 158.845 181.462 160.52 181.462C162.207 181.462 163.432 179.925 163.432 177.475C163.432 175.05 162.207 173.5 160.52 173.5ZM160.52 174.662C161.507 174.662 162.195 175.725 162.195 177.475C162.195 179.25 161.507 180.312 160.52 180.312C159.545 180.312 158.857 179.25 158.857 177.475C158.857 175.725 159.545 174.662 160.52 174.662ZM178.264 178.025C176.577 177.437 175.614 176.025 175.614 174.625V174.412H177.964V173.375H171.927V174.412H174.314V174.637C174.314 176.162 173.289 177.65 171.539 178.25L172.202 179.262C173.539 178.8 174.489 177.825 174.989 176.612C175.477 177.7 176.377 178.587 177.627 179.025L178.264 178.025ZM173.289 181.012H179.614V183.963H180.902V179.975H173.289V181.012ZM179.614 172.662V175.5H177.639V176.562H179.614V179.412H180.902V172.662H179.614ZM188.126 182.975C186.476 182.975 185.551 182.625 185.551 181.937C185.551 181.262 186.476 180.9 188.126 180.9C189.776 180.9 190.713 181.262 190.713 181.937C190.713 182.625 189.776 182.975 188.126 182.975ZM188.126 179.912C185.701 179.912 184.238 180.65 184.238 181.937C184.238 183.238 185.701 183.963 188.126 183.963C190.563 183.963 192.013 183.238 192.013 181.937C192.013 180.65 190.563 179.912 188.126 179.912ZM186.751 177.012C187.163 177.075 187.651 177.112 188.151 177.112C188.651 177.112 189.113 177.075 189.526 177.012V178.162H186.751V177.012ZM188.151 173.862C189.826 173.862 190.838 174.262 190.838 174.987C190.838 175.712 189.826 176.125 188.151 176.125C186.463 176.125 185.451 175.712 185.451 174.987C185.451 174.262 186.463 173.862 188.151 173.862ZM190.813 178.162V176.675C191.676 176.3 192.176 175.725 192.176 174.987C192.176 173.662 190.613 172.862 188.151 172.862C185.676 172.862 184.126 173.662 184.126 174.987C184.126 175.725 184.613 176.3 185.463 176.662V178.162H183.038V179.187H193.251V178.162H190.813ZM198.912 178.45H201.212V177.412H196.675V174.75H201.162V173.7H195.387V178.45H197.625V180.537C196.562 180.562 195.537 180.575 194.6 180.575L194.762 181.637C196.887 181.65 199.512 181.612 201.95 181.225L201.85 180.275C200.912 180.387 199.912 180.45 198.912 180.487V178.45ZM202.537 172.65V183.988H203.837V172.65H202.537ZM210.211 174.862H212.724V173.8H206.399V174.862H208.911V175.938C208.911 177.875 207.749 179.975 205.999 180.787L206.736 181.812C208.061 181.175 209.074 179.837 209.574 178.262C210.099 179.725 211.111 180.95 212.424 181.525L213.136 180.512C211.374 179.762 210.211 177.812 210.211 175.938V174.862ZM214.036 172.675V183.963H215.336V172.675H214.036ZM61.025 191.9C61.025 190.962 61.7625 190.325 62.7375 190.325C63.7125 190.325 64.45 190.962 64.45 191.9C64.45 192.825 63.7125 193.462 62.7375 193.462C61.7625 193.462 61.025 192.825 61.025 191.9ZM65.7 191.9C65.7 190.362 64.4375 189.275 62.7375 189.275C61.0375 189.275 59.775 190.362 59.775 191.9C59.775 193.425 61.0375 194.525 62.7375 194.525C64.4375 194.525 65.7 193.425 65.7 191.9ZM61.975 195.425H60.725V199.675H61.3125C62.225 199.675 63.2 199.625 64.225 199.275L64.0125 198.25C63.3375 198.475 62.625 198.575 61.975 198.612V195.425ZM66.65 199.075C66.075 199.075 65.65 198.812 65.65 198.375C65.65 197.925 66.075 197.675 66.65 197.675C67.2125 197.675 67.6375 197.925 67.6375 198.375C67.6375 198.812 67.2125 199.075 66.65 199.075ZM66.65 196.775C65.4 196.775 64.5125 197.4 64.5125 198.375C64.5125 199.35 65.4 199.975 66.65 199.975C67.8875 199.975 68.775 199.35 68.775 198.375C68.775 197.4 67.8875 196.775 66.65 196.775ZM67.275 194.562H66.025V195.487H63.8125V196.425H69.475V195.487H67.275V194.562ZM68.45 191.125V188.675H67.1625V194.262H68.45V192.187H70.05V191.125H68.45ZM76.2365 190.062C77.8865 190.062 78.924 190.525 78.924 191.312C78.924 192.113 77.8865 192.575 76.2365 192.575C74.574 192.575 73.5365 192.113 73.5365 191.312C73.5365 190.525 74.574 190.062 76.2365 190.062ZM76.2365 193.612C78.674 193.612 80.2615 192.75 80.2615 191.312C80.2615 189.887 78.674 189.025 76.2365 189.025C73.799 189.025 72.2115 189.887 72.2115 191.312C72.2115 192.75 73.799 193.612 76.2365 193.612ZM73.7115 196.462H72.4115V199.75H80.199V198.7H73.7115V196.462ZM71.124 194.525V195.575H81.3365V194.525H71.124ZM92.0057 193.837C90.3307 193.287 89.3682 191.912 89.3682 190.462V189.25H88.0682V190.362C88.0682 191.987 87.1057 193.525 85.3307 194.137L86.0182 195.162C87.3182 194.687 88.2432 193.712 88.7432 192.487C89.2182 193.55 90.1182 194.412 91.3307 194.85L92.0057 193.837ZM90.6182 198.95C89.0432 198.95 88.1307 198.562 88.1307 197.837C88.1307 197.137 89.0432 196.737 90.6182 196.737C92.1932 196.737 93.1057 197.137 93.1057 197.837C93.1057 198.562 92.1932 198.95 90.6182 198.95ZM90.6182 195.725C88.2932 195.725 86.8557 196.512 86.8557 197.837C86.8557 199.175 88.2932 199.963 90.6182 199.963C92.9557 199.963 94.3807 199.175 94.3807 197.837C94.3807 196.512 92.9557 195.725 90.6182 195.725ZM94.2557 191.462V188.662H92.9682V195.45H94.2557V192.525H95.8557V191.462H94.2557ZM98.5797 193.9H101.642V192.887H98.5797V190.95H101.842V189.912H97.3422V197.262H98.1047C99.8672 197.262 100.967 197.225 102.267 196.987L102.155 195.937C101.005 196.137 100.03 196.187 98.5797 196.2V193.9ZM105.355 188.675V193.137H104.092V188.887H102.892V199.425H104.092V194.187H105.355V199.95H106.58V188.675H105.355ZM123.706 189.587H119.806V188.537H118.506V189.587H114.556V190.575H123.706V189.587ZM115.156 197.812H121.656V199.975H122.956V196.812H115.156V197.812ZM116.769 192.6C116.769 192.1 117.569 191.85 119.156 191.85C120.731 191.85 121.531 192.1 121.531 192.6C121.531 193.1 120.731 193.35 119.156 193.35C117.569 193.35 116.769 193.1 116.769 192.6ZM119.806 195.025V194.225C121.744 194.125 122.856 193.562 122.856 192.6C122.856 191.525 121.506 190.95 119.156 190.95C116.794 190.95 115.444 191.525 115.444 192.6C115.444 193.562 116.556 194.125 118.506 194.225V195.025H114.044V196.037H124.256V195.025H119.806ZM130.655 190.062C132.305 190.062 133.343 190.525 133.343 191.312C133.343 192.113 132.305 192.575 130.655 192.575C128.993 192.575 127.955 192.113 127.955 191.312C127.955 190.525 128.993 190.062 130.655 190.062ZM130.655 193.612C133.093 193.612 134.68 192.75 134.68 191.312C134.68 189.887 133.093 189.025 130.655 189.025C128.218 189.025 126.63 189.887 126.63 191.312C126.63 192.75 128.218 193.612 130.655 193.612ZM128.13 196.462H126.83V199.75H134.618V198.7H128.13V196.462ZM125.543 194.525V195.575H135.755V194.525H125.543ZM146.575 194.025C144.887 193.437 143.925 192.025 143.925 190.625V190.412H146.275V189.375H140.237V190.412H142.625V190.637C142.625 192.162 141.6 193.65 139.85 194.25L140.512 195.262C141.85 194.8 142.8 193.825 143.3 192.612C143.787 193.7 144.687 194.587 145.937 195.025L146.575 194.025ZM141.6 197.012H147.925V199.963H149.212V195.975H141.6V197.012ZM147.925 188.662V191.5H145.95V192.562H147.925V195.412H149.212V188.662H147.925ZM156.436 198.975C154.786 198.975 153.861 198.625 153.861 197.937C153.861 197.262 154.786 196.9 156.436 196.9C158.086 196.9 159.024 197.262 159.024 197.937C159.024 198.625 158.086 198.975 156.436 198.975ZM156.436 195.912C154.011 195.912 152.549 196.65 152.549 197.937C152.549 199.238 154.011 199.963 156.436 199.963C158.874 199.963 160.324 199.238 160.324 197.937C160.324 196.65 158.874 195.912 156.436 195.912ZM155.061 193.012C155.474 193.075 155.961 193.112 156.461 193.112C156.961 193.112 157.424 193.075 157.836 193.012V194.162H155.061V193.012ZM156.461 189.862C158.136 189.862 159.149 190.262 159.149 190.987C159.149 191.712 158.136 192.125 156.461 192.125C154.774 192.125 153.761 191.712 153.761 190.987C153.761 190.262 154.774 189.862 156.461 189.862ZM159.124 194.162V192.675C159.986 192.3 160.486 191.725 160.486 190.987C160.486 189.662 158.924 188.862 156.461 188.862C153.986 188.862 152.436 189.662 152.436 190.987C152.436 191.725 152.924 192.3 153.774 192.662V194.162H151.349V195.187H161.561V194.162H159.124ZM171.468 194.637C171.53 194.275 171.568 193.9 171.568 193.475C171.568 193 171.518 192.575 171.43 192.162H173.743V194.637H171.468ZM168.705 196.312C167.743 196.312 167.068 195.25 167.068 193.475C167.068 191.725 167.743 190.662 168.705 190.662C169.68 190.662 170.343 191.725 170.343 193.475C170.343 195.25 169.68 196.312 168.705 196.312ZM173.743 188.662V191.1H171.08C170.568 190.087 169.73 189.5 168.705 189.5C167.043 189.5 165.855 191.05 165.855 193.475C165.855 195.925 167.043 197.462 168.705 197.462C169.78 197.462 170.668 196.812 171.143 195.7H173.743V199.988H175.043V188.662H173.743ZM184.842 193.012H179.679V191.575H184.842V193.012ZM186.129 189.112H184.842V190.537H179.679V189.112H178.392V194.05H186.129V189.112ZM187.392 195.275H177.154V196.312H181.592V199.975H182.879V196.312H187.392V195.275ZM193.973 197.95H200.398V195.262H192.673V196.237H199.136V197.037H192.698V199.863H200.723V198.875H193.973V197.95ZM194.036 190.025H199.098V191.5H194.036V190.025ZM197.198 193.462V192.512H200.361V189.025H192.761V192.512H195.911V193.462H191.461V194.487H201.686V193.462H197.198ZM204.697 193.875H208.56V189.675H203.397V190.725H207.285V192.837H203.422V197.3H204.347C206.435 197.3 207.947 197.225 209.685 196.912L209.547 195.862C207.96 196.15 206.547 196.225 204.697 196.237V193.875ZM213.472 193.062H211.735V188.65H210.435V199.975H211.735V194.137H213.472V193.062Z" fill="black"/>
<defs>
<clipPath id="clip0_755_22982">
<rect width="51" height="24" fill="white" transform="translate(50 5)"/>
</clipPath>
<clipPath id="clip1_755_22982">
<rect width="52" height="23" fill="white" transform="translate(222 5)"/>
</clipPath>
<clipPath id="clip2_755_22982">
<rect width="52" height="24" fill="white" transform="translate(108 125)"/>
</clipPath>
</defs>
</svg>
