<svg width="296" height="175" viewBox="0 0 296 175" fill="none" xmlns="http://www.w3.org/2000/svg">
<rect opacity="0.1" x="113.758" y="19.3174" width="67.9685" height="68.684" rx="10.935" fill="#397AF6"/>
<rect opacity="0.1" x="44" y="106" width="68.684" height="68.684" rx="10.935" fill="#397AF6"/>
<rect opacity="0.25" width="68.684" height="68.684" rx="10.935" fill="#397AF6"/>
<rect opacity="0.25" x="182.758" y="106" width="68.684" height="68.684" rx="10.935" fill="#397AF6"/>
<rect opacity="0.25" x="227.516" width="67.9685" height="68.684" rx="10.935" fill="#397AF6"/>
<g clip-path="url(#clip0_755_23382)">
<path d="M47.2322 26.7836L51.5136 30.0491V30.1164C50.8059 30.4676 50.1704 30.9416 49.4988 31.3542C48.7332 31.8264 47.976 32.313 47.2154 32.7928C47.0819 32.7088 47.0702 32.5743 47.0685 32.4399C47.0551 30.6685 47.0517 28.897 47.0685 27.1256C47.0761 26.9937 47.0819 26.8525 47.2322 26.7836Z" fill="#64B4F5"/>
<path d="M47.2322 26.7836L47.2196 32.7928L37.1759 39.1869C36.5185 38.8298 35.9225 38.3768 35.2988 37.9684C34.4828 37.434 34.2402 37.434 33.4225 37.9684C32.7987 38.3768 32.2035 38.8306 31.5445 39.1852C31.3766 39.2634 31.244 39.1777 31.1105 39.0936C29.1872 37.8802 27.2749 36.6508 25.355 35.4315C24.2166 34.7088 23.0794 33.9838 21.9433 33.2567C21.7225 33.1155 21.4077 33.039 21.3925 32.6861C21.3575 32.5106 21.3386 32.3323 21.3363 32.1533C21.3363 30.5875 21.3363 29.0225 21.3363 27.4583C21.3363 27.2205 21.3523 26.9886 21.4908 26.7861C21.4908 24.3497 21.493 21.9127 21.4975 19.4752C21.4975 18.0836 22.4151 17.171 23.8111 17.171H44.911C46.3079 17.171 47.2238 18.0836 47.2254 19.4743C47.2282 21.9113 47.2305 24.3477 47.2322 26.7836Z" fill="#F9F9F9"/>
<path d="M21.5009 32.7937C20.2456 31.9981 18.99 31.2032 17.7341 30.4088C17.5662 30.3029 17.4143 30.1684 17.2145 30.1197C17.2145 30.0407 17.2699 30.0021 17.3219 29.9626C18.7093 28.9021 20.0979 27.8424 21.4875 26.7836C21.4965 28.7869 21.5009 30.7903 21.5009 32.7937Z" fill="#64B4F5"/>
<path d="M34.3621 21.4642C36.8402 21.4642 39.3182 21.4642 41.7958 21.4642C42.6773 21.4642 43.2045 22.2978 42.8032 23.0399C42.5933 23.4281 42.2508 23.6079 41.8117 23.6079H38.7316C34.8353 23.6079 30.9394 23.6079 27.0442 23.6079C26.7344 23.6079 26.4431 23.5701 26.1938 23.3701C26.0202 23.2318 25.894 23.0429 25.8325 22.8295C25.771 22.6162 25.7774 22.389 25.8508 22.1794C25.9241 21.9699 26.0608 21.7883 26.2418 21.66C26.4229 21.5317 26.6394 21.463 26.8612 21.4634C27.9525 21.455 29.0489 21.4634 30.1428 21.4634L34.3621 21.4642Z" fill="#8FA3AD"/>
<path d="M34.3622 27.9004C31.884 27.9004 29.4092 27.9004 26.9276 27.9004C26.0462 27.9004 25.519 27.0685 25.9202 26.3256C26.1301 25.9365 26.4718 25.7567 26.9108 25.7567H29.9246C33.8423 25.7567 37.7599 25.7567 41.6775 25.7567C41.9881 25.7567 42.2795 25.7945 42.5279 25.9945C42.7017 26.1326 42.8283 26.3215 42.89 26.5348C42.9517 26.7482 42.9455 26.9755 42.8723 27.1851C42.7992 27.3948 42.6626 27.5765 42.4816 27.705C42.3006 27.8335 42.0841 27.9024 41.8622 27.9021C40.7902 27.9105 39.719 27.9021 38.647 27.9021L34.3622 27.9004Z" fill="#8FA3AD"/>
<path d="M31.1106 32.1954C29.7377 32.1954 28.3665 32.1954 26.997 32.1954C26.286 32.1954 25.7957 31.7584 25.7915 31.1307C25.7873 30.503 26.2793 30.0517 26.9828 30.0509C29.7615 30.0509 32.5402 30.0509 35.319 30.0509C36.0216 30.0509 36.5136 30.5038 36.5077 31.1332C36.5018 31.7627 36.0124 32.1946 35.2996 32.1954C33.9027 32.1977 32.5064 32.1977 31.1106 32.1954Z" fill="#8FA3AD"/>
<path d="M51.5137 48.9643C50.9891 48.3173 50.2545 47.9492 49.5829 47.4988C45.5584 44.803 41.5305 42.1139 37.4992 39.4315C37.3884 39.3584 37.2868 39.2711 37.1802 39.1904C37.1685 38.9652 37.3532 38.8912 37.4976 38.7988C38.5212 38.1416 39.5462 37.4873 40.5726 36.8358C41.9561 35.9562 43.339 35.0755 44.7214 34.1937C45.5315 33.6803 46.3349 33.1559 47.1559 32.6534C47.5757 32.4425 47.9434 32.1576 48.3371 31.9097C49.2118 31.3573 50.0846 30.8027 50.9555 30.2458C51.1183 30.1416 51.2913 29.9467 51.5221 30.1198L51.5137 48.9643Z" fill="#1E87E4"/>
<path d="M21.5012 32.7938C24.7472 34.8593 27.9933 36.9243 31.2393 38.9887C31.3401 39.0534 31.4072 39.1745 31.5382 39.1862C31.4333 39.2703 31.3317 39.3543 31.2209 39.4291C26.8118 42.377 22.3967 45.3226 17.9753 48.2661C17.6807 48.4618 17.4616 48.7198 17.2198 48.9618C17.2198 48.8728 17.2097 48.7837 17.2097 48.6946C17.2097 42.5814 17.2097 36.468 17.2097 30.3543C17.2097 30.2761 17.2156 30.198 17.2181 30.1198C17.4372 29.9644 17.6043 30.1291 17.7613 30.2299C18.5571 30.7392 19.3563 31.2434 20.1513 31.7543C20.4594 31.9535 20.7725 32.1442 21.0806 32.3425C21.2637 32.4462 21.4106 32.6037 21.5012 32.7938Z" fill="#1E87E4"/>
<path d="M51.5138 48.9643V49.8333C51.4299 50.266 51.3459 50.6736 51.0009 51.0206C50.6559 51.3677 50.2563 51.4198 49.8391 51.5106H18.8844C18.3967 51.4366 17.9534 51.3022 17.6067 50.8988C17.2852 50.5249 17.2046 50.0963 17.1786 49.6383C17.166 49.4282 17.1786 49.2181 17.1786 49.0064C17.2852 48.6358 17.5194 48.3778 17.8401 48.166C22.2374 45.2383 26.6307 42.3066 31.0201 39.3711C31.1763 39.2669 31.3559 39.203 31.486 39.0526C32.1257 38.6475 32.7596 38.2316 33.3766 37.7921C34.0482 37.319 34.6786 37.3148 35.3435 37.7921C35.9572 38.2341 36.612 38.6164 37.2198 39.0685C38.2272 39.7022 39.2094 40.3778 40.2 41.0383C43.7186 43.384 47.2361 45.7296 50.7524 48.0753C51.0966 48.3089 51.4055 48.545 51.5138 48.9643Z" fill="#2195F2"/>
</g>
<g clip-path="url(#clip1_755_23382)">
<path d="M274.7 51.5131H248.298C246.716 51.3346 245.655 50.4309 244.962 49.0151C244.787 48.6582 244.761 48.2728 244.686 47.8954V30.116C244.787 30.0286 244.918 29.9848 245.051 29.9938C245.17 29.9938 245.291 29.9938 245.412 29.9938C256.136 29.9938 266.861 29.9938 277.586 29.9938C277.832 29.9938 278.094 29.9313 278.312 30.1169V47.8249C278.148 49.4308 277.255 50.5014 275.892 51.2151C275.514 51.4167 275.104 51.4426 274.7 51.5131Z" fill="#F9F9F9"/>
<path d="M278.317 30.116C278.174 30.116 278.033 30.116 277.89 30.116H245.112C244.97 30.116 244.827 30.116 244.686 30.116V25.2199C244.731 24.1378 245.198 23.2572 245.959 22.5364C246.729 21.7928 247.744 21.3729 248.804 21.3605C249.174 21.3516 249.544 21.3552 249.915 21.3605C250.055 21.3605 250.202 21.3498 250.31 21.4765C250.397 21.6308 250.377 21.8012 250.378 21.9672C250.378 22.6925 250.368 23.4178 250.384 24.1431C250.397 24.7676 250.609 25.277 251.219 25.5339C251.381 25.6034 251.554 25.6395 251.729 25.6401C252.177 25.6401 252.626 25.6508 253.073 25.6401C253.818 25.6187 254.348 25.0763 254.358 24.3189C254.368 23.5159 254.358 22.713 254.358 21.9101C254.358 21.7361 254.334 21.547 254.494 21.415C254.646 21.332 254.812 21.3418 254.976 21.3418C259.317 21.3418 263.659 21.3418 268 21.3418C268.163 21.3418 268.329 21.332 268.483 21.4069C268.653 21.5309 268.629 21.7201 268.63 21.8949C268.637 22.6756 268.63 23.4571 268.63 24.2386C268.636 25.1004 269.155 25.633 270 25.6446C270.372 25.6499 270.744 25.6446 271.115 25.6446C272.054 25.6366 272.575 25.1262 272.605 24.1592C272.626 23.4794 272.605 22.7978 272.612 22.1171C272.612 21.9074 272.581 21.6915 272.673 21.4926C272.707 21.4479 272.751 21.413 272.802 21.3914C272.853 21.3698 272.909 21.3622 272.963 21.3695C273.595 21.3748 274.23 21.307 274.858 21.4346C276.455 21.7584 277.536 22.7139 278.145 24.2439C278.27 24.558 278.233 24.8996 278.304 25.2253L278.317 30.116Z" fill="#2195F2"/>
<path d="M268.513 21.4462C268.513 20.6325 268.546 19.8171 268.501 19.007C268.452 18.1229 268.755 17.5002 269.577 17.171H271.613C272.413 17.3664 272.793 17.8134 272.83 18.6734C272.864 19.4888 272.84 20.3051 272.837 21.1214C272.843 21.1829 272.836 21.2449 272.817 21.3037C272.799 21.3625 272.769 21.417 272.73 21.464C272.73 22.3668 272.73 23.2706 272.73 24.1743C272.726 24.9603 272.365 25.5384 271.657 25.6909C270.95 25.8435 270.226 25.8123 269.514 25.6909C269.017 25.6098 268.49 24.9032 268.515 24.3215C268.555 23.366 268.518 22.4052 268.513 21.4462Z" fill="#1976D1"/>
<path d="M253.419 17.1711C253.601 17.2608 253.776 17.3634 253.944 17.478C254.116 17.6076 254.254 17.7779 254.348 17.9744C254.441 18.1708 254.487 18.3874 254.48 18.6056C254.48 19.5525 254.48 20.4993 254.48 21.4462C254.476 22.4276 254.472 23.4089 254.468 24.3903C254.458 24.7493 254.314 25.0909 254.065 25.3448C253.816 25.5987 253.482 25.7456 253.13 25.7552C252.694 25.7606 252.257 25.7552 251.82 25.7552C250.87 25.7552 250.273 25.1503 250.267 24.1735C250.261 23.2697 250.267 22.366 250.267 21.4631C250.159 21.3463 250.158 21.1955 250.158 21.0536C250.158 20.2927 250.151 19.5326 250.158 18.7725C250.155 18.4012 250.257 18.0369 250.452 17.7233C250.674 17.3754 251.003 17.2344 251.381 17.1702L253.419 17.1711Z" fill="#1976D1"/>
<path d="M261.523 41.5139C262.093 41.5139 262.659 41.5139 263.231 41.5139C263.843 41.5139 264.301 41.9439 264.311 42.5737C264.33 43.7692 264.33 44.9653 264.311 46.1619C264.301 46.7802 263.824 47.2164 263.216 47.2182C262.089 47.2182 260.962 47.2182 259.835 47.2182C259.151 47.2182 258.699 46.7864 258.685 46.0781C258.669 44.9153 258.669 43.7529 258.685 42.5907C258.694 41.9448 259.151 41.5201 259.782 41.513H261.523L261.523 41.5139Z" fill="#8FC9F8"/>
<path d="M261.508 32.92C262.077 32.92 262.644 32.9137 263.214 32.92C263.85 32.928 264.295 33.358 264.303 34.0066C264.317 35.1795 264.317 36.3523 264.303 37.5252C264.295 38.1934 263.844 38.6305 263.195 38.6323C262.068 38.6371 260.941 38.6371 259.815 38.6323C259.176 38.6323 258.708 38.2112 258.697 37.5707C258.676 36.3645 258.676 35.1583 258.697 33.9522C258.708 33.3375 259.159 32.9289 259.768 32.9208C260.349 32.9137 260.932 32.92 261.508 32.92Z" fill="#2195F2"/>
<path d="M251.68 32.9191C252.248 32.9191 252.815 32.9191 253.386 32.9191C254.054 32.9262 254.479 33.3473 254.483 34.0209C254.49 35.1931 254.49 36.3657 254.483 37.5386C254.479 38.1889 254.046 38.6288 253.406 38.6314C252.258 38.638 251.11 38.638 249.961 38.6314C249.338 38.6314 248.894 38.1675 248.891 37.5243C248.886 36.3508 248.886 35.1783 248.891 34.0066C248.891 33.3741 249.328 32.936 249.94 32.9191H251.678H251.68Z" fill="#2195F2"/>
<path d="M271.319 32.919C271.887 32.919 272.454 32.919 273.024 32.919C273.677 32.9271 274.105 33.3714 274.108 34.0414C274.112 35.1916 274.112 36.3419 274.108 37.4921C274.108 38.18 273.671 38.6287 273.002 38.6314C271.876 38.6362 270.749 38.6362 269.623 38.6314C268.95 38.6314 268.517 38.1907 268.515 37.502C268.509 36.3404 268.509 35.1788 268.515 34.0173C268.515 33.3526 268.933 32.9342 269.579 32.9182H271.318L271.319 32.919Z" fill="#2195F2"/>
<path d="M251.712 41.505C252.27 41.505 252.828 41.5006 253.386 41.505C254.054 41.5113 254.479 41.9324 254.483 42.6059C254.49 43.7782 254.49 44.9508 254.483 46.1237C254.479 46.774 254.046 47.2139 253.407 47.2174C252.258 47.2228 251.11 47.2228 249.962 47.2174C249.338 47.2174 248.894 46.7526 248.891 46.1103C248.886 44.9374 248.886 43.7648 248.891 42.5926C248.891 41.96 249.328 41.522 249.94 41.505H251.71H251.712Z" fill="#2195F2"/>
</g>
<g clip-path="url(#clip2_755_23382)">
<path d="M199.213 154.369V135.566C199.285 135.566 199.349 135.558 199.427 135.558H235.324C235.437 135.558 235.551 135.57 235.666 135.577C235.674 135.659 235.682 135.705 235.682 135.752C235.682 141.792 235.69 147.831 235.666 153.871C235.656 154.405 235.53 154.931 235.297 155.411C234.601 156.842 233.407 157.512 231.823 157.512C222.243 157.512 212.666 157.512 203.09 157.512C202.954 157.512 202.828 157.512 202.699 157.512C202.2 157.486 201.712 157.357 201.264 157.134C200.817 156.911 200.42 156.598 200.098 156.215C199.624 155.675 199.398 155.033 199.213 154.369Z" fill="#F9F9F9"/>
<path d="M202.42 123.171H232.482C232.501 123.185 232.519 123.208 232.539 123.211C234.414 123.484 235.754 125.147 235.701 127.211C235.644 129.389 235.688 131.571 235.688 133.751V134.161H199.71C199.545 134.161 199.379 134.175 199.213 134.181V126.318C199.24 126.268 199.262 126.216 199.278 126.161C199.446 125.315 199.902 124.553 200.568 124.007C201.108 123.55 201.748 123.331 202.42 123.171ZM232.056 128.687C232.055 128.323 231.946 127.968 231.744 127.666C231.542 127.365 231.255 127.13 230.92 126.992C230.585 126.854 230.217 126.818 229.862 126.89C229.507 126.962 229.181 127.138 228.926 127.396C228.67 127.653 228.497 127.981 228.427 128.338C228.357 128.695 228.394 129.064 228.534 129.399C228.673 129.735 228.909 130.021 229.21 130.223C229.512 130.424 229.866 130.531 230.228 130.53C230.713 130.526 231.177 130.33 231.519 129.985C231.861 129.64 232.054 129.173 232.056 128.687V128.687ZM222.932 130.529C223.295 130.528 223.649 130.419 223.95 130.216C224.251 130.014 224.486 129.726 224.624 129.389C224.762 129.053 224.798 128.683 224.726 128.326C224.655 127.969 224.48 127.642 224.224 127.385C223.967 127.128 223.64 126.953 223.284 126.882C222.929 126.811 222.56 126.848 222.225 126.988C221.89 127.127 221.604 127.363 221.403 127.666C221.201 127.968 221.094 128.324 221.094 128.688C221.097 129.176 221.291 129.643 221.635 129.988C221.979 130.333 222.444 130.529 222.931 130.531L222.932 130.529ZM217.451 128.722C217.457 128.359 217.355 128.003 217.159 127.698C216.964 127.392 216.682 127.152 216.35 127.008C216.019 126.863 215.652 126.82 215.296 126.885C214.94 126.949 214.611 127.118 214.351 127.37C214.09 127.622 213.91 127.946 213.833 128.3C213.756 128.655 213.785 129.025 213.917 129.362C214.049 129.7 214.278 129.992 214.574 130.199C214.871 130.407 215.222 130.521 215.584 130.529C215.825 130.534 216.064 130.492 216.289 130.404C216.513 130.316 216.718 130.184 216.891 130.017C217.065 129.849 217.203 129.648 217.299 129.427C217.395 129.205 217.446 128.966 217.45 128.725L217.451 128.722Z" fill="#1E87E4"/>
<path d="M215.829 146.617L215.674 146.198C215.339 145.269 215.004 144.34 214.67 143.411C214.557 143.1 214.342 142.922 214.007 142.954C213.865 142.96 213.73 143.02 213.629 143.121C213.528 143.222 213.469 143.357 213.462 143.5C213.459 143.658 213.489 143.814 213.551 143.959C214.095 145.487 214.64 147.012 215.185 148.54C215.295 148.849 215.457 149.098 215.815 149.107C216.197 149.117 216.367 148.861 216.48 148.537C216.799 147.626 217.123 146.719 217.451 145.817C217.485 145.722 217.534 145.633 217.602 145.487C217.669 145.661 217.712 145.77 217.753 145.882C218.084 146.799 218.416 147.715 218.743 148.634C218.849 148.931 219.043 149.111 219.363 149.106C219.498 149.106 219.63 149.061 219.737 148.978C219.844 148.895 219.92 148.778 219.954 148.647C220.526 147.052 221.103 145.458 221.671 143.864C221.817 143.454 221.671 143.119 221.317 142.99C220.963 142.862 220.651 143.037 220.5 143.447C220.3 143.983 220.112 144.524 219.917 145.064C219.741 145.549 219.564 146.034 219.36 146.593C219.299 146.456 219.266 146.395 219.243 146.332C218.892 145.356 218.542 144.381 218.193 143.406C218.155 143.276 218.076 143.163 217.968 143.082C217.86 143.001 217.729 142.957 217.594 142.957C217.459 142.957 217.328 143.001 217.22 143.082C217.112 143.163 217.033 143.276 216.995 143.406C216.904 143.669 216.809 143.933 216.71 144.197L215.829 146.617ZM225.064 146.617C224.988 146.418 224.935 146.284 224.886 146.149C224.565 145.253 224.249 144.357 223.925 143.465C223.773 143.055 223.452 142.867 223.108 142.981C222.743 143.103 222.594 143.45 222.747 143.879C223.305 145.452 223.872 147.022 224.43 148.596C224.539 148.904 224.723 149.109 225.06 149.106C225.398 149.103 225.578 148.883 225.684 148.581C225.956 147.812 226.229 147.043 226.501 146.274C226.592 146.017 226.693 145.762 226.812 145.445C227.204 146.538 227.576 147.552 227.936 148.574C228.043 148.878 228.209 149.099 228.552 149.106C228.895 149.113 229.087 148.886 229.2 148.569C229.745 147.018 230.311 145.471 230.866 143.922C231.029 143.467 230.895 143.116 230.524 142.985C230.174 142.863 229.858 143.052 229.699 143.492C229.361 144.42 229.029 145.349 228.694 146.278C228.661 146.37 228.619 146.459 228.557 146.597C228.484 146.401 228.432 146.266 228.383 146.129C228.062 145.235 227.741 144.34 227.422 143.444C227.318 143.154 227.133 142.958 226.81 142.955C226.487 142.952 226.297 143.141 226.193 143.432L226.109 143.674C225.778 144.628 225.433 145.587 225.064 146.613V146.617ZM208.36 145.452C208.418 145.598 208.456 145.687 208.489 145.777C208.824 146.705 209.17 147.633 209.491 148.565C209.602 148.88 209.777 149.111 210.137 149.111C210.476 149.111 210.647 148.89 210.756 148.585C211.309 147.022 211.873 145.463 212.429 143.902C212.583 143.467 212.448 143.124 212.09 142.993C211.731 142.862 211.409 143.051 211.256 143.487C210.973 144.265 210.699 145.049 210.419 145.829C210.33 146.073 210.235 146.315 210.122 146.615C210.041 146.399 209.986 146.251 209.933 146.102C209.619 145.232 209.302 144.361 208.994 143.487C208.888 143.183 208.722 142.963 208.376 142.96C208.03 142.958 207.831 143.179 207.733 143.507C207.713 143.578 207.684 143.644 207.66 143.713C207.317 144.67 206.979 145.616 206.617 146.611C206.564 146.49 206.524 146.416 206.497 146.337C206.158 145.397 205.816 144.455 205.481 143.515C205.313 143.052 204.992 142.862 204.631 143.001C204.27 143.141 204.149 143.484 204.314 143.95C204.555 144.628 204.797 145.305 205.042 145.981C205.358 146.865 205.676 147.749 205.996 148.632C206.099 148.921 206.286 149.115 206.608 149.117C206.931 149.118 207.119 148.924 207.224 148.634C207.254 148.554 207.28 148.473 207.308 148.393L208.36 145.452Z" fill="#8FA3AD"/>
</g>
<g clip-path="url(#clip3_755_23382)">
<path d="M82.7748 123.171C83.4734 123.394 84.168 123.627 84.8685 123.839C87.591 124.661 90.3155 125.481 93.042 126.296C93.1495 126.328 93.253 126.366 93.3645 126.404V154.344L90.3215 155.263C87.863 156.003 85.4038 156.739 82.944 157.471C82.7571 157.527 82.5578 157.527 82.3709 157.471C76.2611 155.441 70.154 153.404 64.0496 151.362C63.9259 151.327 63.8146 151.258 63.7291 151.162L82.6197 153.355V129.625L69.7633 131.77V132.181C69.7633 137.655 69.7633 143.13 69.7633 148.605C69.7811 148.716 69.7543 148.83 69.6886 148.922C69.623 149.013 69.5239 149.075 69.413 149.093C67.4925 149.719 65.578 150.363 63.6635 151.001L63.3172 151.109V150.72C63.3172 144.17 63.3172 137.621 63.3172 131.072C63.3015 130.955 63.3301 130.837 63.3976 130.74C63.465 130.643 63.5663 130.575 63.6814 130.55C69.8933 128.141 76.1026 125.724 82.3092 123.301C82.4007 123.265 82.4863 123.215 82.5758 123.171H82.7748Z" fill="#2195F2"/>
</g>
<g clip-path="url(#clip4_755_23382)">
<path d="M156.801 44.325V45.9658L161.108 44.4633V62.9445C161.1 65.0435 159.752 67.2223 158.102 67.7942L148.553 71.125C146.903 71.6969 145.57 70.4464 145.582 68.3474V67.8493L144.286 68.3005V68.7951C144.274 71.8118 146.188 73.592 148.551 72.7799L158.1 69.4479C160.463 68.6275 162.395 65.517 162.407 62.5015V42.369L156.801 44.325Z" fill="#2195F2"/>
<path d="M148.588 48.8337C146.938 49.4045 145.59 51.5762 145.582 53.6764V67.8575L152.491 65.4467C154.854 64.6263 156.787 61.5158 156.799 58.5003V45.9694L148.588 48.8337Z" fill="#2195F2"/>
<path d="M144.289 54.1252C144.301 51.1155 146.232 48.0039 148.596 47.1847L156.797 44.325V38.369L142.984 43.1847C140.621 44.0051 138.688 47.1155 138.676 50.1252V64.7997C138.665 67.8153 140.578 69.5955 142.941 68.7775L144.285 68.3087L144.289 54.1252Z" fill="#2195F2"/>
<path d="M138.68 62.6368L137.346 63.1056C135.697 63.6764 134.362 62.427 134.375 60.3268V45.6535C134.383 43.5532 135.731 41.3816 137.381 40.8096L149.895 36.4393V40.7756L151.196 40.3232V34.3461L137.382 39.1618C135.018 39.9822 133.087 43.0927 133.075 46.1012V60.7757C133.063 63.7912 134.976 65.5727 137.339 64.7535L138.679 64.2847L138.68 62.6368Z" fill="#1976D1"/>
</g>
<defs>
<clipPath id="clip0_755_23382">
<rect width="34.342" height="34.342" fill="white" transform="translate(17.1719 17.171)"/>
</clipPath>
<clipPath id="clip1_755_23382">
<rect width="33.6265" height="34.342" fill="white" transform="translate(244.686 17.171)"/>
</clipPath>
<clipPath id="clip2_755_23382">
<rect width="36.4884" height="34.342" fill="white" transform="translate(199.213 123.171)"/>
</clipPath>
<clipPath id="clip3_755_23382">
<rect width="30.0493" height="34.342" fill="white" transform="translate(63.3164 123.171)"/>
</clipPath>
<clipPath id="clip4_755_23382">
<rect width="29.3338" height="38.6347" fill="white" transform="translate(133.076 34.342)"/>
</clipPath>
</defs>
</svg>
