<svg width="69" height="92" viewBox="0 0 69 92" fill="none" xmlns="http://www.w3.org/2000/svg">
<g clip-path="url(#clip0_719_8053)">
<path d="M58.2719 22.218V0.900024H0.899902V81.576H9.8639" fill="white"/>
<path d="M58.2719 22.218V0.900024H0.899902V81.576H9.8639" stroke="#333333" stroke-width="1.8" stroke-miterlimit="10"/>
<path opacity="0.1" d="M54.9659 4.20599H4.20593V78.27H54.9659V4.20599Z" fill="#397AF6"/>
<path d="M67.2359 30.924V90.24H9.86389V9.56396H46.0619L67.2359 30.924Z" fill="white" stroke="#3A3A3A" stroke-width="1.8" stroke-miterlimit="10"/>
<path d="M67.236 30.954H46.062V9.56396L67.236 30.954Z" fill="white" stroke="#3A3A3A" stroke-width="1.8" stroke-linejoin="round"/>
<path d="M60.5099 70.812H16.9919C16.3888 70.812 15.8999 71.3009 15.8999 71.904V81.69C15.8999 82.2931 16.3888 82.782 16.9919 82.782H60.5099C61.113 82.782 61.6019 82.2931 61.6019 81.69V71.904C61.6019 71.3009 61.113 70.812 60.5099 70.812Z" fill="url(#paint0_linear_719_8053)" stroke="#3A3A3A" stroke-width="1.8" stroke-miterlimit="10"/>
<path d="M33.4334 77.7437V79.9279H32.6977V74.3485H34.7555C35.366 74.3485 35.8438 74.5043 36.1886 74.816C36.5361 75.1277 36.7098 75.5402 36.7098 76.0537C36.7098 76.5953 36.5399 77.013 36.2001 77.3068C35.8629 77.598 35.3788 77.7437 34.7478 77.7437H33.4334ZM33.4334 77.142H34.7555C35.1489 77.142 35.4503 77.0501 35.6598 76.8661C35.8693 76.6796 35.974 76.4114 35.974 76.0614C35.974 75.7293 35.8693 75.4636 35.6598 75.2643C35.4503 75.0651 35.1629 74.9616 34.7976 74.9539H33.4334V77.142ZM41.5037 74.9539H39.7103V79.9279H38.9784V74.9539H37.1888V74.3485H41.5037V74.9539ZM44.1516 76.4868L45.489 74.3485H46.355L44.5923 77.1152L46.3972 79.9279H45.5235L44.1516 77.7513L42.7721 79.9279H41.9022L43.7109 77.1152L41.9444 74.3485H42.8066L44.1516 76.4868Z" fill="white"/>
<path d="M45.384 63.054C45.2234 63.055 45.0655 63.0133 44.9263 62.9332C44.7871 62.8531 44.6718 62.7374 44.592 62.598L41.466 57.036C41.4081 56.9328 41.3711 56.8191 41.3571 56.7016C41.3431 56.5841 41.3523 56.465 41.3844 56.351C41.4164 56.2371 41.4706 56.1306 41.5438 56.0376C41.617 55.9446 41.7078 55.8668 41.811 55.8089C41.9142 55.751 42.0278 55.7141 42.1454 55.7001C42.2629 55.6861 42.382 55.6953 42.496 55.7273C42.6099 55.7594 42.7164 55.8135 42.8094 55.8867C42.9024 55.9599 42.9801 56.0508 43.038 56.154L46.164 61.7159C46.2747 61.921 46.3009 62.1613 46.237 62.3855C46.1731 62.6096 46.0242 62.7999 45.822 62.9159C45.69 62.9983 45.5393 63.0459 45.384 63.054ZM31.446 63.054C31.289 63.0547 31.1346 63.014 30.9983 62.9361C30.8621 62.8582 30.7486 62.7458 30.6696 62.6102C30.5905 62.4746 30.5486 62.3205 30.548 62.1635C30.5473 62.0066 30.588 61.8521 30.666 61.7159L33.792 56.154C33.909 55.9456 34.1039 55.792 34.334 55.7273C34.5641 55.6626 34.8105 55.6919 35.019 55.8089C35.2274 55.9259 35.3809 56.1209 35.4456 56.351C35.5103 56.5812 35.481 56.8275 35.364 57.036L32.232 62.598C32.1537 62.7387 32.0387 62.8553 31.8992 62.9357C31.7596 63.016 31.6009 63.0569 31.44 63.054H31.446Z" fill="#3A3A3A"/>
<path d="M38.4179 41.6219C38.1792 41.6219 37.9503 41.5272 37.7815 41.3584C37.6128 41.1896 37.5179 40.9606 37.5179 40.7219V38.7959C37.5179 38.5572 37.6128 38.3284 37.7815 38.1596C37.9503 37.9908 38.1792 37.8959 38.4179 37.8959C38.6566 37.8959 38.8856 37.9908 39.0543 38.1596C39.2231 38.3284 39.3179 38.5572 39.3179 38.7959V40.7219C39.3179 40.9606 39.2231 41.1896 39.0543 41.3584C38.8856 41.5272 38.6566 41.6219 38.4179 41.6219Z" fill="#3A3A3A"/>
<path d="M52.944 57.498H23.874C23.6348 57.4964 23.4058 57.4003 23.2372 57.2305C23.0686 57.0608 22.974 56.8313 22.974 56.592V40.7219C22.974 40.4832 23.0688 40.2544 23.2376 40.0856C23.4064 39.9168 23.6353 39.8219 23.874 39.8219H52.944C53.1827 39.8219 53.4116 39.9168 53.5804 40.0856C53.7492 40.2544 53.844 40.4832 53.844 40.7219V56.592C53.844 56.8313 53.7493 57.0608 53.5807 57.2305C53.4121 57.4003 53.1832 57.4964 52.944 57.498ZM24.774 55.698H52.044V41.6279H24.774V55.698Z" fill="#3A3A3A"/>
<path d="M43.344 53.4719C43.1053 53.4719 42.8764 53.3772 42.7076 53.2084C42.5388 53.0396 42.444 52.8106 42.444 52.5719V50.3099C42.4695 50.0891 42.5753 49.8855 42.7413 49.7376C42.9072 49.5897 43.1217 49.5081 43.344 49.5081C43.5662 49.5081 43.7807 49.5897 43.9467 49.7376C44.1126 49.8855 44.2184 50.0891 44.244 50.3099V52.5719C44.2424 52.8101 44.1471 53.0382 43.9786 53.2066C43.8102 53.3751 43.5822 53.4704 43.344 53.4719Z" fill="#3A3A3A"/>
<path d="M36.474 45.7921H27.63C27.3913 45.7921 27.1624 45.6972 26.9936 45.5284C26.8248 45.3596 26.73 45.1308 26.73 44.8921C26.73 44.6534 26.8248 44.4244 26.9936 44.2556C27.1624 44.0868 27.3913 43.9921 27.63 43.9921H36.474C36.7127 43.9921 36.9416 44.0868 37.1104 44.2556C37.2792 44.4244 37.374 44.6534 37.374 44.8921C37.374 45.1308 37.2792 45.3596 37.1104 45.5284C36.9416 45.6972 36.7127 45.7921 36.474 45.7921Z" fill="#3A3A3A"/>
<path d="M33.03 49.6199H27.63C27.3913 49.6199 27.1624 49.5252 26.9936 49.3564C26.8248 49.1876 26.73 48.9586 26.73 48.7199C26.73 48.4813 26.8248 48.2524 26.9936 48.0836C27.1624 47.9148 27.3913 47.8199 27.63 47.8199H33.03C33.2687 47.8199 33.4976 47.9148 33.6664 48.0836C33.8352 48.2524 33.93 48.4813 33.93 48.7199C33.93 48.9586 33.8352 49.1876 33.6664 49.3564C33.4976 49.5252 33.2687 49.6199 33.03 49.6199Z" fill="#3A3A3A"/>
<path d="M27.63 53.4719C27.3913 53.4719 27.1624 53.3772 26.9936 53.2084C26.8248 53.0396 26.73 52.8106 26.73 52.5719C26.73 52.3332 26.8248 52.1044 26.9936 51.9356C27.1624 51.7668 27.3913 51.6719 27.63 51.6719H38.556C38.7947 51.6719 39.0236 51.7668 39.1924 51.9356C39.3611 52.1044 39.456 52.3332 39.456 52.5719C39.456 52.8106 39.3611 53.0396 39.1924 53.2084C39.0236 53.3772 38.7947 53.4719 38.556 53.4719H27.636H27.63Z" fill="#3A3A3A"/>
</g>
<defs>
<linearGradient id="paint0_linear_719_8053" x1="15.8999" y1="76.8" x2="61.6019" y2="76.8" gradientUnits="userSpaceOnUse">
<stop stop-color="#3B94E2"/>
<stop offset="0.3125" stop-color="#2BB1FF"/>
</linearGradient>
<clipPath id="clip0_719_8053">
<rect width="68.136" height="91.14" fill="white"/>
</clipPath>
</defs>
</svg>
