<svg width="69" height="92" viewBox="0 0 69 92" fill="none" xmlns="http://www.w3.org/2000/svg">
<g clip-path="url(#clip0_719_8040)">
<path d="M58.5479 22.218V0.900024H1.1759V81.576H10.1399" fill="white"/>
<path d="M58.5479 22.218V0.900024H1.1759V81.576H10.1399" stroke="#333333" stroke-width="1.8" stroke-miterlimit="10"/>
<path opacity="0.1" d="M55.2419 4.20599H4.48193V78.27H55.2419V4.20599Z" fill="#397AF6"/>
<path d="M67.5119 30.924V90.24H10.1399V9.56396H46.3379L67.5119 30.924Z" fill="white" stroke="#3A3A3A" stroke-width="1.8" stroke-miterlimit="10"/>
<path d="M67.5119 30.954H46.3379V9.56396L67.5119 30.954Z" fill="white" stroke="#3A3A3A" stroke-width="1.8" stroke-linejoin="round"/>
<path d="M37.4799 22.328L37.588 22.3276C37.9206 22.3265 38.2399 22.4574 38.4759 22.6918C38.7119 22.9261 38.8452 23.2447 38.8463 23.5773L38.8545 25.9232L36.2325 25.9324L36.2243 23.5865C36.2238 23.4213 36.2558 23.2575 36.3187 23.1048C36.3815 22.952 36.474 22.8132 36.5907 22.6963C36.7074 22.5794 36.8459 22.4866 36.9986 22.4234C37.1512 22.3602 37.3148 22.3278 37.4799 22.328Z" fill="white" stroke="#3A3A3A" stroke-width="1.8" stroke-linecap="round" stroke-linejoin="round"/>
<path d="M41.0099 32.7119L37.6139 34.8899L34.2119 32.7359L34.1879 25.9379L40.9859 25.9139L41.0099 32.7119Z" fill="white" stroke="#3A3A3A" stroke-width="1.8" stroke-linecap="round" stroke-linejoin="round"/>
<path d="M27.0358 62.532L34.2358 32.712L28.2358 57.6421C28.7008 57.7706 29.1869 57.8044 29.6652 57.7414C30.1435 57.6784 30.6043 57.5199 31.0201 57.2753C31.436 57.0307 31.7985 56.705 32.086 56.3176C32.3735 55.9301 32.5802 55.4889 32.6938 55.02L37.6378 34.8659" stroke="#3A3A3A" stroke-width="1.8" stroke-linecap="round" stroke-linejoin="round"/>
<path d="M48.3839 62.478L41.0039 32.712L47.1779 57.6C46.7138 57.7318 46.2278 57.7689 45.749 57.7092C45.2703 57.6494 44.8084 57.4939 44.3908 57.2521C43.9733 57.0103 43.6086 56.6871 43.3185 56.3016C43.0284 55.9161 42.8186 55.4761 42.7019 55.008L37.6139 34.89" stroke="#3A3A3A" stroke-width="1.8" stroke-linecap="round" stroke-linejoin="round"/>
<path d="M26.9939 49.866L48.3419 49.794" stroke="#3A3A3A" stroke-width="1.8" stroke-linecap="round" stroke-linejoin="round"/>
<path d="M37.7171 47.2871L37.627 47.2875C37.0438 47.2895 36.5727 47.7639 36.5747 48.3471L36.5851 51.3111C36.5871 51.8943 37.0616 52.3654 37.6448 52.3634L37.7348 52.3631C38.318 52.361 38.7891 51.8866 38.7871 51.3034L38.7767 48.3395C38.7747 47.7562 38.3003 47.2851 37.7171 47.2871Z" fill="white" stroke="#3A3A3A" stroke-width="1.8" stroke-linecap="round" stroke-linejoin="round"/>
<path d="M60.7859 70.812H17.2679C16.6648 70.812 16.1759 71.3009 16.1759 71.904V81.69C16.1759 82.2931 16.6648 82.782 17.2679 82.782H60.7859C61.389 82.782 61.8779 82.2931 61.8779 81.69V71.904C61.8779 71.3009 61.389 70.812 60.7859 70.812Z" fill="url(#paint0_linear_719_8040)" stroke="#3A3A3A" stroke-width="1.8" stroke-miterlimit="10"/>
<path d="M31.0495 79.9279V74.3485H32.6244C33.1098 74.3485 33.539 74.4558 33.912 74.6704C34.285 74.885 34.5724 75.1902 34.7742 75.5862C34.9786 75.9822 35.082 76.4369 35.0846 76.9504V77.3068C35.0846 77.8331 34.9824 78.2942 34.778 78.6902C34.5762 79.0861 34.2863 79.3902 33.9082 79.6022C33.5326 79.8142 33.0945 79.9228 32.5938 79.9279H31.0495ZM31.7852 74.9539V79.3263H32.5593C33.1264 79.3263 33.5671 79.15 33.8813 78.7975C34.1981 78.4449 34.3565 77.9429 34.3565 77.2915V76.9658C34.3565 76.3322 34.2071 75.8404 33.9082 75.4904C33.6118 75.1379 33.1903 74.9591 32.6436 74.9539H31.7852ZM37.403 78.169L37.5103 78.9048L37.6674 78.2418L38.771 74.3485H39.3918L40.4686 78.2418L40.6219 78.9163L40.7407 78.1652L41.6067 74.3485H42.3463L40.9936 79.9279H40.323L39.1734 75.8621L39.0852 75.4368L38.9971 75.8621L37.8053 79.9279H37.1347L35.7859 74.3485H36.5216L37.403 78.169ZM47.2858 79.196C47.0967 79.4668 46.8323 79.6699 46.4926 79.8053C46.1553 79.9381 45.7619 80.0046 45.3123 80.0046C44.8576 80.0046 44.4539 79.8985 44.1014 79.6865C43.7488 79.4719 43.4755 79.1679 43.2813 78.7745C43.0897 78.3811 42.9914 77.925 42.9862 77.4064V76.9198C42.9862 76.0793 43.1817 75.4278 43.5725 74.9654C43.966 74.503 44.5178 74.2718 45.228 74.2718C45.8105 74.2718 46.2792 74.4213 46.6343 74.7202C46.9894 75.0165 47.2066 75.4381 47.2858 75.9848H46.55C46.4121 75.2465 45.9727 74.8773 45.2318 74.8773C44.7388 74.8773 44.3645 75.051 44.109 75.3985C43.8561 75.7433 43.7284 76.2441 43.7258 76.9006V77.3566C43.7258 77.9825 43.8689 78.4807 44.155 78.8511C44.4411 79.219 44.8282 79.4029 45.3161 79.4029C45.592 79.4029 45.8334 79.3723 46.0404 79.311C46.2473 79.2496 46.4185 79.1462 46.5539 79.0006V77.7475H45.2625V77.1497H47.2858V79.196Z" fill="white"/>
</g>
<defs>
<linearGradient id="paint0_linear_719_8040" x1="16.1759" y1="76.8" x2="61.8779" y2="76.8" gradientUnits="userSpaceOnUse">
<stop stop-color="#3B94E2"/>
<stop offset="0.3125" stop-color="#2BB1FF"/>
</linearGradient>
<clipPath id="clip0_719_8040">
<rect width="68.136" height="91.14" fill="white" transform="translate(0.275879)"/>
</clipPath>
</defs>
</svg>
