<svg width="383" height="307" viewBox="0 0 383 307" fill="none" xmlns="http://www.w3.org/2000/svg">
<path d="M3.24352 2.5V3.7H10.0835C9.78352 8 7.28352 11.56 2.44352 13.88L3.22352 15.06C9.12352 12.18 11.5635 7.62 11.5635 2.5H3.24352ZM15.3635 0.559999V18.46H16.8235V0.559999H15.3635ZM22.162 8.46C24.982 8.02 27.722 6.58 28.682 4.44C29.642 6.56 32.382 8.02 35.182 8.46L35.742 7.3C32.702 6.86 29.602 5.08 29.602 2.8V2.68H35.282V1.46H22.062V2.68H27.742V2.8C27.742 5.08 24.642 6.86 21.602 7.3L22.162 8.46ZM24.142 13.02H22.682V18.06H34.962V16.84H24.142V13.02ZM29.402 10.26V7.22H27.942V10.26H20.582V11.48H36.822V10.26H29.402ZM49.3335 2.16H47.8935V5.48C47.8935 8.72 45.7335 12.16 43.2335 13.44L44.1335 14.62C46.1335 13.54 47.8335 11.22 48.6135 8.54C49.4335 11.08 51.1135 13.24 53.0535 14.26L53.9535 13.1C51.4735 11.86 49.3335 8.6 49.3335 5.48V2.16ZM60.1335 7.88H57.1335V0.579999H55.6735V18.46H57.1335V9.12H60.1335V7.88ZM64.192 2.78H62.752V13.76H63.872C65.812 13.76 67.852 13.66 70.312 13.18L70.152 11.92C67.912 12.36 65.952 12.46 64.192 12.48V2.78ZM75.552 0.579999V7.92H72.872V0.979999H71.492V17.52H72.872V9.14H75.552V18.44H76.952V0.579999H75.552ZM90.9235 2.16H89.4835V5.48C89.4835 8.86 87.2035 12.28 84.6235 13.5L85.5235 14.7C87.5835 13.62 89.4035 11.34 90.2035 8.6C91.0635 11.2 92.8635 13.38 94.8835 14.38L95.7435 13.22C93.1835 12.02 90.9235 8.74 90.9235 5.48V2.16ZM97.8235 0.559999V18.48H99.2835V0.559999H97.8235ZM118.442 9.64C115.502 9.06 111.902 6.34 111.902 3.22V1.84H110.362V3.22C110.362 6.34 106.762 9.06 103.822 9.64L104.482 10.86C107.122 10.22 110.002 8.28 111.122 5.62C112.282 8.28 115.182 10.22 117.802 10.86L118.442 9.64ZM103.082 14.78V16H119.322V14.78H103.082ZM131.7 11.18H133.08V0.879999H131.7V5.08H129.2V6.3H131.7V11.18ZM129.94 8.5C128.02 8.9 126.4 9 123.74 9V6.46H128.38V5.28H123.74V2.94H129.08V1.74H122.32V10.2H123.46C126.34 10.2 128 10.12 130.06 9.7L129.94 8.5ZM126.28 13.4H135.12V17H126.28V13.4ZM124.86 18.2H136.54V12.22H124.86V18.2ZM135.14 0.559999V11.34H136.54V0.559999H135.14ZM158.952 0.559999H157.492V10.86H158.952V0.559999ZM152.132 7.82H146.712V2.92H152.132V7.82ZM153.552 1.74H145.272V9H153.552V1.74ZM154.112 13.28H159.412V12.12H154.112V10.32H152.632V12.12H147.332V13.28H152.612V13.32C152.612 15.18 149.572 16.92 146.612 17.28L147.112 18.4C149.752 18.02 152.312 16.76 153.372 15.04C154.412 16.74 156.892 18.02 159.512 18.4L160.032 17.28C157.072 16.9 154.112 15.12 154.112 13.32V13.28ZM174.364 9.46V10.52H177.584V11.6H178.964V0.879999H177.584V9.46H174.364ZM171.924 2.24C173.484 2.24 174.484 2.86 174.484 3.84C174.484 4.82 173.484 5.44 171.924 5.44C170.384 5.44 169.384 4.82 169.384 3.84C169.384 2.86 170.384 2.24 171.924 2.24ZM171.924 6.5C174.244 6.5 175.804 5.48 175.804 3.84C175.804 2.2 174.244 1.18 171.924 1.18C169.604 1.18 168.064 2.2 168.064 3.84C168.064 5.48 169.604 6.5 171.924 6.5ZM171.264 11.6H172.664V8.58C174.024 8.48 175.424 8.32 176.684 8.06L176.564 7.04C173.584 7.52 169.564 7.56 167.084 7.56L167.244 8.74C168.384 8.74 169.784 8.74 171.264 8.66V11.6ZM180.724 17.02H171.704V15.24H180.724V17.02ZM180.724 14.08H171.704V12.34H170.264V18.2H182.164V12.34H180.724V14.08ZM180.764 0.579999V11.66H182.164V0.579999H180.764ZM191.095 2.5V3.7H197.935C197.635 8 195.135 11.56 190.295 13.88L191.075 15.06C196.975 12.18 199.415 7.62 199.415 2.5H191.095ZM203.215 0.559999V18.46H204.675V0.559999H203.215ZM216.014 9.48H210.654V6.1H216.014V9.48ZM217.434 1.84H216.014V4.92H210.654V1.84H209.214V10.68H217.434V1.84ZM212.674 12.46H211.214V18.06H223.094V16.84H212.674V12.46ZM222.274 6.06V0.599999H220.814V13.7H222.274V7.28H224.954V6.06H222.274ZM233.885 11.08L234.645 8.7C235.185 7.04 235.665 5.48 236.145 3.74H236.225C236.725 5.46 237.185 7.04 237.745 8.7L238.505 11.08H233.885ZM240.385 17H242.145L237.125 2.36H235.305L230.305 17H231.965L233.465 12.38H238.925L240.385 17ZM244.117 21.64H245.737V17.9L245.697 16C246.717 16.8 247.737 17.26 248.737 17.26C251.237 17.26 253.457 15.12 253.457 11.42C253.457 8.1 251.957 5.92 249.137 5.92C247.877 5.92 246.657 6.66 245.657 7.46H245.597L245.437 6.2H244.117V21.64ZM248.497 15.88C247.757 15.88 246.757 15.58 245.737 14.7V8.86C246.837 7.84 247.817 7.3 248.757 7.3C250.917 7.3 251.757 9 251.757 11.44C251.757 14.18 250.377 15.88 248.497 15.88ZM256.421 21.64H258.041V17.9L258.001 16C259.021 16.8 260.041 17.26 261.041 17.26C263.541 17.26 265.761 15.12 265.761 11.42C265.761 8.1 264.261 5.92 261.441 5.92C260.181 5.92 258.961 6.66 257.961 7.46H257.901L257.741 6.2H256.421V21.64ZM260.801 15.88C260.061 15.88 259.061 15.58 258.041 14.7V8.86C259.141 7.84 260.121 7.3 261.061 7.3C263.221 7.3 264.061 9 264.061 11.44C264.061 14.18 262.681 15.88 260.801 15.88ZM277.206 10.58C277.726 7.2 277.726 4.82 277.726 3.44V2.54H268.726V3.76H276.286C276.286 5.16 276.246 7.38 275.746 10.44L277.206 10.58ZM273.046 7.66H271.606V13.22C270.226 13.24 268.906 13.26 267.726 13.26L267.906 14.5C271.086 14.48 275.326 14.4 279.046 13.82L278.946 12.74C277.086 12.98 275.046 13.1 273.046 13.16V7.66ZM284.506 8.1H281.566V0.559999H280.106V18.46H281.566V9.34H284.506V8.1ZM292.438 6.18C292.438 4.36 293.798 3 295.638 3C297.458 3 298.818 4.36 298.818 6.18C298.818 8 297.458 9.36 295.638 9.36C293.798 9.36 292.438 8 292.438 6.18ZM303.978 4.64V7.7H299.978C300.118 7.24 300.198 6.72 300.198 6.18C300.198 5.64 300.098 5.12 299.958 4.64H303.978ZM303.978 8.92V13.82H305.438V0.599999H303.978V3.42H299.298C298.498 2.36 297.178 1.72 295.638 1.72C292.998 1.72 291.058 3.58 291.058 6.18C291.058 8.8 292.998 10.64 295.638 10.64C297.178 10.64 298.518 10 299.318 8.92H303.978ZM295.538 16.84V12.44H294.078V18.06H305.958V16.84H295.538ZM317.236 17.28C314.356 17.28 312.596 16.54 312.596 15.22C312.596 13.92 314.356 13.18 317.236 13.18C320.136 13.18 321.876 13.92 321.876 15.22C321.876 16.54 320.136 17.28 317.236 17.28ZM317.236 12C313.416 12 311.136 13.18 311.136 15.22C311.136 17.28 313.416 18.44 317.236 18.44C321.056 18.44 323.356 17.28 323.356 15.22C323.356 13.18 321.056 12 317.236 12ZM317.976 9.44V7.3H323.436V6.1H312.656V2.6H323.316V1.38H311.216V7.3H316.516V9.44H309.156V10.66H325.336V9.44H317.976ZM344.608 5.58H335.608V3.74H344.608V5.58ZM346.048 0.839999H344.608V2.6H335.608V0.839999H334.168V6.74H346.048V0.839999ZM348.188 9.48V8.28H332.008V9.48H339.368V11.32H333.968V12.46H344.648V14.14H334.048V18.24H346.628V17.08H335.468V15.22H346.088V11.32H340.808V9.48H348.188ZM351.386 2.5V3.72H358.066C357.726 8 355.206 11.54 350.566 13.86L351.386 15.02C357.126 12.14 359.526 7.54 359.526 2.5H351.386ZM367.046 7.9H364.106V0.559999H362.646V18.44H364.106V9.12H367.046V7.9ZM370.405 17.26C371.085 17.26 371.645 16.74 371.645 15.98C371.645 15.18 371.085 14.66 370.405 14.66C369.745 14.66 369.185 15.18 369.185 15.98C369.185 16.74 369.745 17.26 370.405 17.26ZM375.795 17.26C376.475 17.26 377.035 16.74 377.035 15.98C377.035 15.18 376.475 14.66 375.795 14.66C375.135 14.66 374.575 15.18 374.575 15.98C374.575 16.74 375.135 17.26 375.795 17.26ZM381.186 17.26C381.866 17.26 382.426 16.74 382.426 15.98C382.426 15.18 381.866 14.66 381.186 14.66C380.526 14.66 379.966 15.18 379.966 15.98C379.966 16.74 380.526 17.26 381.186 17.26ZM85.4764 34.42H81.2564V32.4H79.7964V34.42H75.4364V35.62H85.4764V34.42ZM77.8564 39.76C77.8564 38.5 78.9164 37.68 80.5164 37.68C82.0764 37.68 83.1564 38.5 83.1564 39.76C83.1564 41 82.0764 41.84 80.5164 41.84C78.9164 41.84 77.8564 41 77.8564 39.76ZM84.5164 39.76C84.5164 37.82 82.8964 36.54 80.5164 36.54C78.1164 36.54 76.4764 37.82 76.4764 39.76C76.4764 41.7 78.1164 42.96 80.5164 42.96C82.8964 42.96 84.5164 41.7 84.5164 39.76ZM88.6364 49.02H80.0164V47.02H88.6364V49.02ZM88.6364 45.86H80.0164V43.9H78.5764V50.2H90.0764V43.9H88.6364V45.86ZM88.6164 32.58V36.82H85.4564V38.02H88.6164V40.26H85.4364V41.48H88.6164V43.12H90.0764V32.58H88.6164ZM107.035 49H98.5548V46.6H107.035V49ZM107.035 45.42H98.5548V43.08H97.1148V50.2H108.475V43.08H107.035V45.42ZM98.6748 40.42C96.8348 40.42 95.4748 39.22 95.4748 37.52C95.4748 35.82 96.8348 34.64 98.6748 34.64C100.515 34.64 101.855 35.82 101.855 37.52C101.855 39.22 100.515 40.42 98.6748 40.42ZM107.015 32.58V36.88H103.215C102.895 34.8 101.115 33.42 98.6748 33.42C95.9948 33.42 94.0948 35.08 94.0948 37.52C94.0948 39.98 95.9948 41.64 98.6748 41.64C101.135 41.64 102.935 40.24 103.215 38.1H107.015V42.16H108.475V32.58H107.015ZM118.146 37.08L118.386 38.34L129.286 37.8C129.206 38.7 129.106 39.66 128.866 40.76L130.306 40.86C130.786 38.4 130.786 36.56 130.786 34.96V33.46H118.566V34.68H129.366V34.96C129.366 35.52 129.366 36.08 129.346 36.7L118.146 37.08ZM120.186 44.94H118.726V50.18H131.206V48.98H120.186V44.94ZM124.786 42.12V39.46H123.326V42.12H116.666V43.32H132.806V42.12H124.786ZM150.105 32.56H148.705V46H150.105V32.56ZM145.265 45.52H146.645V32.94H145.265V37.68H142.765V38.88H145.265V45.52ZM143.485 41.24C141.585 41.62 139.945 41.72 137.305 41.72V39.02H141.925V37.86H137.305V35.26H142.645V34.06H135.885V42.94H137.025C139.885 42.94 141.565 42.86 143.625 42.44L143.485 41.24ZM140.005 48.84V44.52H138.545V50.06H150.645V48.84H140.005ZM155.083 43.8C157.843 43.24 160.443 41.68 161.543 39.3C162.643 41.68 165.263 43.24 168.003 43.8L168.603 42.62C165.343 42 162.283 39.82 162.283 36.76V36.7H168.103V35.5H162.283V33H160.823V35.5H154.983V36.7H160.823V36.76C160.823 39.82 157.763 42 154.503 42.62L155.083 43.8ZM153.443 46.9V48.12H169.683V46.9H153.443ZM177.662 33.9C174.882 33.9 172.902 35.58 172.902 38.06C172.902 40.54 174.882 42.22 177.662 42.22C180.442 42.22 182.422 40.54 182.422 38.06C182.422 35.58 180.442 33.9 177.662 33.9ZM177.662 35.16C179.602 35.16 181.002 36.36 181.002 38.06C181.002 39.76 179.602 40.98 177.662 40.98C175.722 40.98 174.302 39.76 174.302 38.06C174.302 36.36 175.722 35.16 177.662 35.16ZM184.902 32.56V50.48H186.342V32.56H184.902ZM172.182 46.5C175.402 46.5 179.782 46.48 183.802 45.72L183.682 44.64C179.782 45.26 175.242 45.26 171.962 45.26L172.182 46.5ZM204.233 37.26V38.48H207.913V43.22H209.373V32.58H207.913V37.26H204.233ZM205.193 41.36C202.653 40.46 200.793 38.22 200.793 35.88V35.14H204.813V33.92H195.253V35.14H199.333V35.88C199.333 38.5 197.393 40.9 194.793 41.86L195.553 43.04C197.653 42.22 199.353 40.54 200.093 38.4C200.873 40.26 202.453 41.78 204.453 42.52L205.193 41.36ZM203.493 49.28C200.753 49.28 199.033 48.48 199.033 47.12C199.033 45.76 200.753 44.96 203.493 44.96C206.273 44.96 207.993 45.76 207.993 47.12C207.993 48.48 206.273 49.28 203.493 49.28ZM203.493 43.8C199.833 43.8 197.593 45.02 197.593 47.12C197.593 49.22 199.833 50.44 203.493 50.44C207.193 50.44 209.433 49.22 209.433 47.12C209.433 45.02 207.193 43.8 203.493 43.8ZM216.492 38.34H225.892V41.76H216.492V38.34ZM221.912 46.92V42.98H227.312V33.84H225.892V37.12H216.492V33.84H215.052V42.98H220.452V46.92H213.092V48.14H229.312V46.92H221.912ZM239.603 35.74H242.723V44.58C241.663 44.62 240.623 44.66 239.603 44.68V35.74ZM244.143 35.74H246.143V34.52H236.183V35.74H238.183V44.7C237.323 44.72 236.483 44.72 235.723 44.72L235.903 45.96C239.083 45.96 243.363 45.9 247.123 45.32L247.043 44.22C246.103 44.34 245.143 44.44 244.143 44.48V35.74ZM252.643 39.78H249.643V32.56H248.183V50.46H249.643V41.02H252.643V39.78ZM267.562 45.9H269.022V32.56H267.562V36H264.422V37.22H267.562V39.38H264.422V40.6H267.562V45.9ZM258.162 35.24H261.042V41.72C260.082 41.78 259.102 41.8 258.162 41.82V35.24ZM264.922 41.42C264.142 41.52 263.302 41.58 262.462 41.64V35.24H264.302V34.04H254.902V35.24H256.742V41.84C255.922 41.86 255.122 41.86 254.422 41.86L254.582 43.1C257.482 43.1 261.562 43.04 265.022 42.5L264.922 41.42ZM259.102 48.84V44.78H257.642V50.06H269.502V48.84H259.102ZM283.56 34.78H278.94V32.58H277.48V34.78H272.84V35.98H283.56V34.78ZM275.4 40.38C275.4 39.08 276.54 38.22 278.2 38.22C279.9 38.22 281.02 39.08 281.02 40.38C281.02 41.66 279.9 42.52 278.2 42.52C276.54 42.52 275.4 41.66 275.4 40.38ZM278.94 43.64C281.04 43.4 282.4 42.18 282.4 40.38C282.4 38.38 280.72 37.06 278.2 37.06C275.72 37.06 274.02 38.38 274.02 40.38C274.02 42.16 275.4 43.4 277.48 43.64V45.68C275.7 45.74 274 45.74 272.54 45.74L272.78 46.98C275.9 46.98 280.14 46.94 283.98 46.26L283.88 45.18C282.3 45.42 280.62 45.54 278.94 45.62V43.64ZM289.32 40.24H286.44V32.58H284.98V50.46H286.44V41.46H289.32V40.24ZM292.739 49.26C293.419 49.26 293.979 48.74 293.979 47.98C293.979 47.18 293.419 46.66 292.739 46.66C292.079 46.66 291.519 47.18 291.519 47.98C291.519 48.74 292.079 49.26 292.739 49.26ZM298.129 49.26C298.809 49.26 299.369 48.74 299.369 47.98C299.369 47.18 298.809 46.66 298.129 46.66C297.469 46.66 296.909 47.18 296.909 47.98C296.909 48.74 297.469 49.26 298.129 49.26ZM303.52 49.26C304.2 49.26 304.76 48.74 304.76 47.98C304.76 47.18 304.2 46.66 303.52 46.66C302.86 46.66 302.3 47.18 302.3 47.98C302.3 48.74 302.86 49.26 303.52 49.26ZM17.3548 76.42H13.3348V67.86H17.3548V76.42ZM21.5548 71.34H18.7148V66.66H11.9548V77.6H18.7148V72.56H21.5548V81.56H22.9348V64.96H21.5548V71.34ZM25.0548 64.56V82.46H26.4548V64.56H25.0548ZM44.3333 64.58H42.8733V77.7H44.3333V64.58ZM40.4333 73.6C37.8133 72.62 35.8933 70.16 35.8933 67.4V65.56H34.4533V67.4C34.4533 70.26 32.5533 72.88 29.9133 73.92L30.7133 75.1C32.7933 74.24 34.4333 72.42 35.1933 70.2C35.9933 72.3 37.6333 73.94 39.6533 74.76L40.4333 73.6ZM34.3533 80.84V76.5H32.9133V82.06H44.8933V80.84H34.3533ZM54.1717 67.64H58.3117V66.42H48.6117V67.64H52.7117V69.98C52.7117 73.12 50.4717 76.5 47.9717 77.74L48.8317 78.88C50.8517 77.82 52.6717 75.5 53.4517 72.84C54.2717 75.32 56.0317 77.52 58.0317 78.52L58.9117 77.38C56.4117 76.18 54.1717 72.94 54.1717 69.98V67.64ZM61.3117 64.56V71.12H57.3117V72.34H61.3117V82.48H62.7717V64.56H61.3117ZM73.3033 66.78H71.8633V77.76H72.9833C74.9233 77.76 76.9633 77.66 79.4233 77.18L79.2633 75.92C77.0233 76.36 75.0633 76.46 73.3033 76.48V66.78ZM84.6633 64.58V71.92H81.9833V64.98H80.6033V81.52H81.9833V73.14H84.6633V82.44H86.0633V64.58H84.6633ZM99.8548 76.42H95.8348V67.86H99.8548V76.42ZM104.055 71.34H101.215V66.66H94.4548V77.6H101.215V72.56H104.055V81.56H105.435V64.96H104.055V71.34ZM107.555 64.56V82.46H108.955V64.56H107.555ZM118.433 66.16H116.993V69.48C116.993 72.86 114.713 76.28 112.133 77.5L113.033 78.7C115.093 77.62 116.913 75.34 117.713 72.6C118.573 75.2 120.373 77.38 122.393 78.38L123.253 77.22C120.693 76.02 118.433 72.74 118.433 69.48V66.16ZM125.333 64.56V82.48H126.793V64.56H125.333ZM136.872 67.64H141.172V66.42H131.192V67.64H135.432V70.14C135.432 73.24 133.132 76.62 130.632 77.84L131.492 79C133.492 77.96 135.332 75.64 136.152 73.02C137.012 75.52 138.852 77.58 140.912 78.56L141.732 77.4C139.172 76.28 136.872 73.2 136.872 70.14V67.64ZM143.732 64.58V82.44H145.192V64.58H143.732ZM168.063 64.56H166.603V74.86H168.063V64.56ZM161.243 71.82H155.823V66.92H161.243V71.82ZM162.663 65.74H154.383V73H162.663V65.74ZM163.223 77.28H168.523V76.12H163.223V74.32H161.743V76.12H156.443V77.28H161.723V77.32C161.723 79.18 158.683 80.92 155.723 81.28L156.223 82.4C158.863 82.02 161.423 80.76 162.483 79.04C163.523 80.74 166.003 82.02 168.623 82.4L169.143 81.28C166.183 80.9 163.223 79.12 163.223 77.32V77.28ZM179.955 67.74H183.075V76.58C182.015 76.62 180.975 76.66 179.955 76.68V67.74ZM184.495 67.74H186.495V66.52H176.535V67.74H178.535V76.7C177.675 76.72 176.835 76.72 176.075 76.72L176.255 77.96C179.435 77.96 183.715 77.9 187.475 77.32L187.395 76.22C186.455 76.34 185.495 76.44 184.495 76.48V67.74ZM192.995 71.78H189.995V64.56H188.535V82.46H189.995V73.02H192.995V71.78ZM209.333 64.56H207.873V73.78H209.333V64.56ZM196.553 69.18C196.553 67.58 197.893 66.44 199.713 66.44C201.553 66.44 202.893 67.58 202.893 69.18C202.893 70.78 201.553 71.92 199.713 71.92C197.893 71.92 196.553 70.78 196.553 69.18ZM204.313 69.18C204.313 66.86 202.393 65.24 199.713 65.24C197.073 65.24 195.133 66.86 195.133 69.18C195.133 71.52 197.073 73.12 199.713 73.12C202.393 73.12 204.313 71.52 204.313 69.18ZM199.293 81.02V78.9H209.333V74.68H197.813V75.86H207.893V77.8H197.853V82.2H209.973V81.02H199.293ZM218.912 65.9C216.132 65.9 214.152 67.58 214.152 70.06C214.152 72.54 216.132 74.22 218.912 74.22C221.692 74.22 223.672 72.54 223.672 70.06C223.672 67.58 221.692 65.9 218.912 65.9ZM218.912 67.16C220.852 67.16 222.252 68.36 222.252 70.06C222.252 71.76 220.852 72.98 218.912 72.98C216.972 72.98 215.552 71.76 215.552 70.06C215.552 68.36 216.972 67.16 218.912 67.16ZM226.152 64.56V82.48H227.592V64.56H226.152ZM213.432 78.5C216.652 78.5 221.032 78.48 225.052 77.72L224.932 76.64C221.032 77.26 216.492 77.26 213.212 77.26L213.432 78.5ZM246.423 71.24C243.503 71.82 240.903 72 238.303 72V65.56H236.843V73.24H238.223C240.903 73.24 243.583 73.04 246.623 72.44L246.423 71.24ZM250.103 76.88V75.68H238.463V76.88H243.523C243.483 79 240.723 80.76 237.803 81.24L238.383 82.38C240.903 81.92 243.303 80.58 244.283 78.72C245.303 80.56 247.663 81.92 250.203 82.38L250.783 81.26C247.903 80.76 245.103 78.96 245.063 76.88H250.103ZM249.783 69.02V64.54H248.323V74.74H249.783V70.24H252.463V69.02H249.783ZM262.422 66.38C265.302 66.38 267.182 67.28 267.182 68.72C267.182 70.2 265.302 71.08 262.422 71.08C259.542 71.08 257.662 70.2 257.662 68.72C257.662 67.28 259.542 66.38 262.422 66.38ZM262.422 72.28C266.242 72.28 268.662 70.94 268.662 68.72C268.662 66.52 266.242 65.18 262.422 65.18C258.602 65.18 256.162 66.52 256.162 68.72C256.162 70.94 258.602 72.28 262.422 72.28ZM257.902 76.88H256.442V82.06H268.722V80.84H257.902V76.88ZM254.342 74.02V75.24H270.502V74.02H254.342ZM280.593 70.34H289.993V73.76H280.593V70.34ZM286.013 78.92V74.98H291.413V65.84H289.993V69.12H280.593V65.84H279.153V74.98H284.553V78.92H277.193V80.14H293.413V78.92H286.013ZM297.392 70.24C297.392 68.42 298.772 67.12 300.592 67.12C302.432 67.12 303.812 68.42 303.812 70.24C303.812 72.04 302.432 73.34 300.592 73.34C298.772 73.34 297.392 72.04 297.392 70.24ZM305.232 70.24C305.232 67.66 303.252 65.84 300.592 65.84C297.952 65.84 295.972 67.66 295.972 70.24C295.972 72.8 297.952 74.62 300.592 74.62C303.252 74.62 305.232 72.8 305.232 70.24ZM299.832 76.42H298.372V82.06H310.252V80.84H299.832V76.42ZM309.432 70.06V64.56H307.972V77.76H309.432V71.28H312.112V70.06H309.432ZM333.783 71.46C330.723 70.98 327.323 68.82 327.323 66.24V65.2H325.783V66.24C325.783 68.86 322.423 70.98 319.323 71.46L319.903 72.64C322.643 72.14 325.443 70.62 326.543 68.38C327.703 70.6 330.503 72.16 333.203 72.64L333.783 71.46ZM334.623 74.7H318.463V75.92H325.783V82.46H327.243V75.92H334.623V74.7ZM338.422 72.44C341.242 72 343.982 70.56 344.942 68.44C345.882 70.56 348.622 72 351.422 72.44L351.982 71.26C348.962 70.84 345.862 69.06 345.862 66.8V66.68H351.542V65.48H338.322V66.68H344.002V66.8C344.002 69.08 340.902 70.84 337.862 71.26L338.422 72.44ZM340.362 76.98H338.902V82.06H351.242V80.84H340.362V76.98ZM336.802 73.82V75.02H344.302V78.76H345.762V75.02H353.042V73.82H336.802ZM356.84 81.26C357.52 81.26 358.08 80.74 358.08 79.98C358.08 79.18 357.52 78.66 356.84 78.66C356.18 78.66 355.62 79.18 355.62 79.98C355.62 80.74 356.18 81.26 356.84 81.26ZM362.231 81.26C362.911 81.26 363.471 80.74 363.471 79.98C363.471 79.18 362.911 78.66 362.231 78.66C361.571 78.66 361.011 79.18 361.011 79.98C361.011 80.74 361.571 81.26 362.231 81.26ZM367.621 81.26C368.301 81.26 368.861 80.74 368.861 79.98C368.861 79.18 368.301 78.66 367.621 78.66C366.961 78.66 366.401 79.18 366.401 79.98C366.401 80.74 366.961 81.26 367.621 81.26ZM20.5347 98.16H19.0947V101.48C19.0947 104.72 16.9347 108.16 14.4347 109.44L15.3347 110.62C17.3347 109.54 19.0347 107.22 19.8147 104.54C20.6347 107.08 22.3147 109.24 24.2547 110.26L25.1547 109.1C22.6747 107.86 20.5347 104.6 20.5347 101.48V98.16ZM31.3347 103.88H28.3347V96.58H26.8747V114.46H28.3347V105.12H31.3347V103.88ZM35.3931 98.78H33.9531V109.76H35.0731C37.0131 109.76 39.0531 109.66 41.5131 109.18L41.3531 107.92C39.1131 108.36 37.1531 108.46 35.3931 108.48V98.78ZM46.7531 96.58V103.92H44.0731V96.98H42.6931V113.52H44.0731V105.14H46.7531V114.44H48.1531V96.58H46.7531ZM61.9447 108.42H57.9247V99.86H61.9447V108.42ZM66.1447 103.34H63.3047V98.66H56.5447V109.6H63.3047V104.56H66.1447V113.56H67.5247V96.96H66.1447V103.34ZM69.6447 96.56V114.46H71.0447V96.56H69.6447ZM88.9231 96.58H87.4631V109.7H88.9231V96.58ZM85.0231 105.6C82.4031 104.62 80.4831 102.16 80.4831 99.4V97.56H79.0431V99.4C79.0431 102.26 77.1431 104.88 74.5031 105.92L75.3031 107.1C77.3831 106.24 79.0231 104.42 79.7831 102.2C80.5831 104.3 82.2231 105.94 84.2431 106.76L85.0231 105.6ZM78.9431 112.84V108.5H77.5031V114.06H89.4831V112.84H78.9431ZM98.7616 99.64H102.902V98.42H93.2016V99.64H97.3016V101.98C97.3016 105.12 95.0616 108.5 92.5616 109.74L93.4216 110.88C95.4416 109.82 97.2616 107.5 98.0416 104.84C98.8616 107.32 100.622 109.52 102.622 110.52L103.502 109.38C101.002 108.18 98.7616 104.94 98.7616 101.98V99.64ZM105.902 96.56V103.12H101.902V104.34H105.902V114.48H107.362V96.56H105.902ZM130.153 96.56H128.693V106.86H130.153V96.56ZM123.333 103.82H117.913V98.92H123.333V103.82ZM124.753 97.74H116.473V105H124.753V97.74ZM125.313 109.28H130.613V108.12H125.313V106.32H123.833V108.12H118.533V109.28H123.813V109.32C123.813 111.18 120.773 112.92 117.813 113.28L118.313 114.4C120.953 114.02 123.513 112.76 124.573 111.04C125.613 112.74 128.093 114.02 130.713 114.4L131.233 113.28C128.273 112.9 125.313 111.12 125.313 109.32V109.28ZM140.625 99.52H147.465V98.3H139.165V110H140.545C143.965 110 146.285 109.88 149.045 109.38L148.885 108.12C146.225 108.62 143.945 108.74 140.625 108.74V99.52ZM155.085 103.7H152.085V96.56H150.625V114.48H152.085V104.92H155.085V103.7ZM158.583 101.82C158.583 100.1 159.923 98.88 161.783 98.88C163.643 98.88 165.003 100.1 165.003 101.82C165.003 103.56 163.643 104.8 161.783 104.8C159.923 104.8 158.583 103.56 158.583 101.82ZM166.423 101.82C166.423 99.36 164.483 97.66 161.783 97.66C159.103 97.66 157.163 99.36 157.163 101.82C157.163 104.3 159.103 106.02 161.783 106.02C164.483 106.02 166.423 104.3 166.423 101.82ZM164.963 113.24C162.243 113.24 160.543 112.44 160.543 111.1C160.543 109.76 162.243 108.96 164.963 108.96C167.663 108.96 169.363 109.76 169.363 111.1C169.363 112.44 167.663 113.24 164.963 113.24ZM164.963 107.78C161.323 107.78 159.103 109 159.103 111.1C159.103 113.2 161.323 114.42 164.963 114.42C168.583 114.42 170.803 113.2 170.803 111.1C170.803 109 168.583 107.78 164.963 107.78ZM173.283 100.54V99.32H170.623V96.58H169.163V107.18H170.623V104.34H173.283V103.12H170.623V100.54H173.283ZM185.822 98.82H181.262V96.6H179.802V98.82H175.262V100.02H185.822V98.82ZM177.642 104.38C177.642 103.08 178.802 102.2 180.522 102.2C182.222 102.2 183.402 103.08 183.402 104.38C183.402 105.66 182.222 106.52 180.522 106.52C178.802 106.52 177.642 105.66 177.642 104.38ZM184.782 104.38C184.782 102.36 183.062 101.04 180.522 101.04C177.982 101.04 176.262 102.36 176.262 104.38C176.262 106.36 177.982 107.68 180.522 107.68C183.062 107.68 184.782 106.36 184.782 104.38ZM179.422 108.92H177.962V114.06H189.842V112.84H179.422V108.92ZM189.022 102.56V96.6H187.562V110H189.022V103.78H191.702V102.56H189.022ZM208.113 98.42H203.893V96.4H202.433V98.42H198.073V99.62H208.113V98.42ZM200.493 103.76C200.493 102.5 201.553 101.68 203.153 101.68C204.713 101.68 205.793 102.5 205.793 103.76C205.793 105 204.713 105.84 203.153 105.84C201.553 105.84 200.493 105 200.493 103.76ZM207.153 103.76C207.153 101.82 205.533 100.54 203.153 100.54C200.753 100.54 199.113 101.82 199.113 103.76C199.113 105.7 200.753 106.96 203.153 106.96C205.533 106.96 207.153 105.7 207.153 103.76ZM211.273 113.02H202.653V111.02H211.273V113.02ZM211.273 109.86H202.653V107.9H201.213V114.2H212.713V107.9H211.273V109.86ZM211.253 96.58V100.82H208.093V102.02H211.253V104.26H208.073V105.48H211.253V107.12H212.713V96.58H211.253ZM229.672 113H221.192V110.6H229.672V113ZM229.672 109.42H221.192V107.08H219.752V114.2H231.112V107.08H229.672V109.42ZM221.312 104.42C219.472 104.42 218.112 103.22 218.112 101.52C218.112 99.82 219.472 98.64 221.312 98.64C223.152 98.64 224.492 99.82 224.492 101.52C224.492 103.22 223.152 104.42 221.312 104.42ZM229.652 96.58V100.88H225.852C225.532 98.8 223.752 97.42 221.312 97.42C218.632 97.42 216.732 99.08 216.732 101.52C216.732 103.98 218.632 105.64 221.312 105.64C223.772 105.64 225.572 104.24 225.852 102.1H229.652V106.16H231.112V96.58H229.652ZM249.07 102.24H238.43V100.58H248.49V99.54H238.43V98.02H248.99V96.94H236.97V103.32H249.07V102.24ZM250.99 105.86V104.72H234.85V105.86H242.19V107.48H236.79V108.58H247.47V110.24H236.87V114.24H249.45V113.12H238.29V111.3H248.91V107.48H243.63V105.86H250.99ZM261.308 98C264.288 98 266.068 98.74 266.068 100C266.068 101.26 264.288 101.98 261.308 101.98C258.308 101.98 256.548 101.26 256.548 100C256.548 98.74 258.308 98 261.308 98ZM261.308 103.1C265.228 103.1 267.548 101.98 267.548 100C267.548 98 265.228 96.88 261.308 96.88C257.388 96.88 255.048 98 255.048 100C255.048 101.98 257.388 103.1 261.308 103.1ZM256.688 111.12H267.308V107.2H255.208V108.32H265.868V110.04H255.268V114.24H267.848V113.06H256.688V111.12ZM253.248 104.36V105.56H269.408V104.36H253.248ZM284.9 110.94V106.2H290.42V104.98H279.62V99.24H290.22V98.02H278.16V106.2H283.44V110.94H276.06V112.16H292.32V110.94H284.9ZM307.658 96.58V106.16H309.118V96.58H307.658ZM297.658 107.08V114.2H309.118V107.08H307.678V109.34H299.098V107.08H297.658ZM299.098 110.52H307.678V113H299.098V110.52ZM299.538 97.44C296.858 97.44 294.918 99.1 294.918 101.54C294.918 103.98 296.858 105.64 299.538 105.64C302.238 105.64 304.178 103.98 304.178 101.54C304.178 99.1 302.238 97.44 299.538 97.44ZM299.538 98.66C301.418 98.66 302.758 99.86 302.758 101.54C302.758 103.22 301.418 104.42 299.538 104.42C297.678 104.42 296.338 103.22 296.338 101.54C296.338 99.86 297.678 98.66 299.538 98.66ZM318.137 109.18C316.457 109.18 315.217 107.98 315.217 106.32C315.217 104.66 316.457 103.46 318.137 103.46C319.857 103.46 321.097 104.66 321.097 106.32C321.097 107.98 319.857 109.18 318.137 109.18ZM318.137 102.24C315.657 102.24 313.837 103.92 313.837 106.32C313.837 108.74 315.657 110.4 318.137 110.4C320.677 110.4 322.477 108.74 322.477 106.32C322.477 103.92 320.677 102.24 318.137 102.24ZM318.857 96.76H317.397V99.46H312.777V100.66H323.357V99.46H318.857V96.76ZM329.577 104H326.577V96.56H325.117V114.46H326.577V105.22H329.577V104ZM338.795 105.24H333.555V99.32H338.795V105.24ZM344.495 101V103.6H340.215V101H344.495ZM340.215 104.82H344.495V109.64H345.955V96.58H344.495V99.78H340.215V98.14H332.115V106.44H340.215V104.82ZM335.975 112.84V108.48H334.515V114.06H346.395V112.84H335.975ZM355.854 98.14H354.394V101.46C354.394 104.76 352.234 108.2 349.714 109.5L350.634 110.66C352.634 109.56 354.354 107.24 355.134 104.54C355.934 107.1 357.634 109.3 359.654 110.34L360.514 109.16C357.994 107.94 355.854 104.68 355.854 101.46V98.14ZM362.894 96.56V102.72H358.594V103.94H362.894V114.48H364.354V96.56H362.894ZM42.7463 141.18C41.0663 141.18 39.8263 139.98 39.8263 138.32C39.8263 136.66 41.0663 135.46 42.7463 135.46C44.4663 135.46 45.7063 136.66 45.7063 138.32C45.7063 139.98 44.4663 141.18 42.7463 141.18ZM42.7463 134.24C40.2663 134.24 38.4463 135.92 38.4463 138.32C38.4463 140.74 40.2663 142.4 42.7463 142.4C45.2863 142.4 47.0863 140.74 47.0863 138.32C47.0863 135.92 45.2863 134.24 42.7463 134.24ZM43.4663 128.76H42.0063V131.46H37.3863V132.66H47.9663V131.46H43.4663V128.76ZM54.1863 136H51.1863V128.56H49.7263V146.46H51.1863V137.22H54.1863V136ZM69.0247 128.56V146.48H70.4847V128.56H69.0247ZM61.0847 129.98C58.4447 129.98 56.5647 132.4 56.5647 136.18C56.5647 139.96 58.4447 142.4 61.0847 142.4C63.7247 142.4 65.6047 139.96 65.6047 136.18C65.6047 132.4 63.7247 129.98 61.0847 129.98ZM61.0847 131.28C62.9047 131.28 64.2047 133.24 64.2047 136.18C64.2047 139.14 62.9047 141.1 61.0847 141.1C59.2647 141.1 57.9647 139.14 57.9647 136.18C57.9647 133.24 59.2647 131.28 61.0847 131.28ZM74.2831 142.82V144.04H90.5031V142.82H74.2831ZM76.2431 129.88V139.16H88.5031V129.88H87.0831V133.24H77.6831V129.88H76.2431ZM77.6831 134.44H87.0831V137.94H77.6831V134.44ZM95.2216 136.54H101.922V130.24H93.7016V131.46H100.462V135.34H93.7416V142.12H95.2216C98.2416 142.12 100.942 141.98 104.242 141.48L104.102 140.24C100.862 140.76 98.1816 140.9 95.2216 140.9V136.54ZM105.862 128.54V146.46H107.322V128.54H105.862ZM125.4 137.22H114.62V131.46H125.2V130.24H113.16V138.42H125.4V137.22ZM111.06 142.76V143.98H127.3V142.76H111.06ZM139.692 130.64C141.532 130.64 142.792 131.6 142.792 132.98C142.792 134.4 141.532 135.34 139.692 135.34C137.892 135.34 136.592 134.4 136.592 132.98C136.592 131.6 137.892 130.64 139.692 130.64ZM139.692 136.48C142.352 136.48 144.172 135.1 144.172 132.98C144.172 130.9 142.352 129.5 139.692 129.5C137.052 129.5 135.232 130.9 135.232 132.98C135.232 135.1 137.052 136.48 139.692 136.48ZM145.692 137.46C141.772 138.02 137.252 138.06 133.872 138.06L134.052 139.28C135.492 139.28 137.152 139.26 138.892 139.2V145.9H140.352V139.12C142.152 139.04 143.992 138.86 145.792 138.56L145.692 137.46ZM147.092 128.58V140.8H142.952V141.98H147.092V146.46H148.552V128.58H147.092ZM153.83 135.9L154.05 137.14L164.93 136.52C164.85 137.94 164.67 139.46 164.27 141.2L165.73 141.34C166.45 137.72 166.45 135.3 166.45 132.68V130.44H154.29V131.66H165.03V132.68C165.03 133.58 165.03 134.48 164.99 135.42L153.83 135.9ZM152.35 142.68V143.9H168.51V142.68H152.35ZM185.562 133.88H180.942V130.26H185.562V133.88ZM179.482 133.88H176.782V135.04H189.742V133.88H187.002V130.26H189.802V129.12H176.722V130.26H179.482V133.88ZM178.642 143.32H189.262V139.5H177.162V140.6H187.822V142.24H177.222V146.24H189.802V145.1H178.642V143.32ZM175.202 136.62V137.82H191.362V136.62H175.202ZM195.6 136.68H200.54V130.56H194.14V131.78H199.14V135.48H194.2V142.02H195.36C197.6 142.02 199.66 141.92 202.22 141.5L202.08 140.3C199.68 140.7 197.7 140.8 195.6 140.8V136.68ZM203.72 135.04H201.4V136.26H203.72V145.5H205.1V129H203.72V135.04ZM207.32 128.56V146.46H208.72V128.56H207.32ZM225.118 128.56V146.48H226.578V128.56H225.118ZM217.178 129.98C214.538 129.98 212.658 132.4 212.658 136.18C212.658 139.96 214.538 142.4 217.178 142.4C219.818 142.4 221.698 139.96 221.698 136.18C221.698 132.4 219.818 129.98 217.178 129.98ZM217.178 131.28C218.998 131.28 220.298 133.24 220.298 136.18C220.298 139.14 218.998 141.1 217.178 141.1C215.358 141.1 214.058 139.14 214.058 136.18C214.058 133.24 215.358 131.28 217.178 131.28ZM245.737 137.64C242.797 137.06 239.197 134.34 239.197 131.22V129.84H237.657V131.22C237.657 134.34 234.057 137.06 231.117 137.64L231.777 138.86C234.417 138.22 237.297 136.28 238.417 133.62C239.577 136.28 242.477 138.22 245.097 138.86L245.737 137.64ZM230.377 142.78V144H246.617V142.78H230.377ZM261.455 131.74H250.875V135.48H263.215V134.4H252.315V132.76H262.895V129.12H250.835V130.18H261.455V131.74ZM252.215 143.34H262.955V139.62H250.735V140.68H261.515V142.3H250.775V146.2H263.535V145.12H252.215V143.34ZM248.775 136.92V138.06H264.995V136.92H248.775ZM287.807 137.44H285.107C285.627 134.86 285.627 133 285.627 131.3V129.74H273.707V130.96H284.187V131.3C284.187 133 284.187 134.88 283.647 137.44H271.647V138.66H278.967V146.48H280.427V138.66H287.807V137.44ZM291.525 136.54C294.365 136.22 297.065 135.12 298.105 133.26C299.185 135.12 301.865 136.22 304.725 136.54L305.185 135.42C301.965 135.08 299.005 133.68 298.905 131.54H304.525V130.34H298.845V128.44H297.385V130.34H291.725V131.54H297.325C297.225 133.68 294.285 135.08 291.045 135.42L291.525 136.54ZM306.205 138.8V137.6H290.045V138.8H297.385V140.92H291.825V142.12H302.725V146.4H304.185V140.92H298.845V138.8H306.205ZM313.684 141.18C312.004 141.18 310.764 139.98 310.764 138.32C310.764 136.66 312.004 135.46 313.684 135.46C315.404 135.46 316.644 136.66 316.644 138.32C316.644 139.98 315.404 141.18 313.684 141.18ZM313.684 134.24C311.204 134.24 309.384 135.92 309.384 138.32C309.384 140.74 311.204 142.4 313.684 142.4C316.224 142.4 318.024 140.74 318.024 138.32C318.024 135.92 316.224 134.24 313.684 134.24ZM314.404 128.76H312.944V131.46H308.324V132.66H318.904V131.46H314.404V128.76ZM325.124 136H322.124V128.56H320.664V146.46H322.124V137.22H325.124V136ZM335.622 137.84V134.1H340.042V137.84H335.622ZM334.182 140.7H328.982V131.54H334.182V140.7ZM340.042 128.56V132.88H335.622V130.36H327.562V141.9H335.622V139.04H340.042V146.48H341.502V128.56H340.042ZM15.9802 177H7.50016V174.6H15.9802V177ZM15.9802 173.42H7.50016V171.08H6.06016V178.2H17.4202V171.08H15.9802V173.42ZM7.62016 168.42C5.78016 168.42 4.42016 167.22 4.42016 165.52C4.42016 163.82 5.78016 162.64 7.62016 162.64C9.46016 162.64 10.8002 163.82 10.8002 165.52C10.8002 167.22 9.46016 168.42 7.62016 168.42ZM15.9602 160.58V164.88H12.1602C11.8402 162.8 10.0602 161.42 7.62016 161.42C4.94016 161.42 3.04016 163.08 3.04016 165.52C3.04016 167.98 4.94016 169.64 7.62016 169.64C10.0802 169.64 11.8802 168.24 12.1602 166.1H15.9602V170.16H17.4202V160.58H15.9602ZM33.8186 167.32H24.6386V162.76H33.8186V167.32ZM35.2386 161.56H23.2186V168.5H35.2386V161.56ZM37.3586 171.02H21.1186V172.24H28.4786V178.46H29.9386V172.24H37.3586V171.02ZM55.1902 166.66H57.6502V171.64H59.0502V160.58H57.6502V165.44H55.1902V160.9H53.8102V171.06H55.1902V166.66ZM52.9502 169.06C50.6502 168.18 49.2302 166.14 49.2302 164.14V161.68H47.8302V164.14C47.8302 166.16 46.3702 168.5 44.0502 169.52L44.8502 170.66C46.6102 169.86 47.9102 168.32 48.5502 166.58C49.1902 168.16 50.4502 169.48 52.1502 170.18L52.9502 169.06ZM53.1902 177.28C50.4302 177.28 48.6902 176.52 48.6902 175.24C48.6902 173.96 50.4302 173.22 53.1902 173.22C55.9502 173.22 57.6902 173.96 57.6902 175.24C57.6902 176.52 55.9502 177.28 53.1902 177.28ZM53.1902 172.06C49.5102 172.06 47.2502 173.26 47.2502 175.24C47.2502 177.26 49.5102 178.42 53.1902 178.42C56.8902 178.42 59.1302 177.26 59.1302 175.24C59.1302 173.26 56.8902 172.06 53.1902 172.06ZM72.7486 169.64C70.2086 168.74 68.3286 166.44 68.3286 163.94V161.64H66.8686V163.9C66.8686 166.72 65.0286 169.12 62.3686 170.1L63.1286 171.28C65.2486 170.46 66.8886 168.78 67.6286 166.62C68.4286 168.54 70.0086 170.08 72.0286 170.82L72.7486 169.64ZM66.6886 172.52H65.2286V178.06H77.0486V176.84H66.6886V172.52ZM76.2286 166.1V160.54H74.7686V173.78H76.2286V167.32H78.9086V166.1H76.2286ZM94.007 171.16H95.467V160.58H94.007V164.46H89.987V165.68H94.007V171.16ZM91.227 169.14C88.667 168.22 86.807 165.98 86.807 163.44V161.6H85.367V163.48C85.367 166.28 83.487 168.66 80.787 169.62L81.567 170.8C83.707 169.98 85.387 168.3 86.127 166.14C86.907 168.06 88.487 169.54 90.447 170.28L91.227 169.14ZM89.587 177.24C86.847 177.24 85.127 176.44 85.127 175.06C85.127 173.7 86.847 172.88 89.587 172.88C92.367 172.88 94.087 173.7 94.087 175.06C94.087 176.44 92.367 177.24 89.587 177.24ZM89.587 171.7C85.927 171.7 83.687 172.94 83.687 175.06C83.687 177.18 85.927 178.42 89.587 178.42C93.287 178.42 95.527 177.18 95.527 175.06C95.527 172.94 93.287 171.7 89.587 171.7ZM107.265 162.38C110.145 162.38 112.025 163.28 112.025 164.72C112.025 166.2 110.145 167.08 107.265 167.08C104.385 167.08 102.505 166.2 102.505 164.72C102.505 163.28 104.385 162.38 107.265 162.38ZM107.265 168.28C111.085 168.28 113.505 166.94 113.505 164.72C113.505 162.52 111.085 161.18 107.265 161.18C103.445 161.18 101.005 162.52 101.005 164.72C101.005 166.94 103.445 168.28 107.265 168.28ZM102.745 172.88H101.285V178.06H113.565V176.84H102.745V172.88ZM99.1855 170.02V171.24H115.345V170.02H99.1855ZM128.077 173.08H132.197V177H128.077V173.08ZM133.637 173.08H136.417V171.88H123.857V173.08H126.637V177H123.697V178.2H136.577V177H133.637V173.08ZM130.857 168.8V166.44H136.377V165.24H125.717V160.98H124.257V166.44H129.417V168.8H122.057V170H138.217V168.8H130.857ZM145.195 173.1C143.395 173.1 142.115 171.14 142.115 168.18C142.115 165.24 143.395 163.28 145.195 163.28C146.995 163.28 148.255 165.24 148.255 168.18C148.255 171.14 146.995 173.1 145.195 173.1ZM145.195 161.98C142.575 161.98 140.735 164.4 140.735 168.18C140.735 171.96 142.575 174.4 145.195 174.4C147.795 174.4 149.655 171.96 149.655 168.18C149.655 164.4 147.795 161.98 145.195 161.98ZM157.135 167.78H154.135V160.58H152.675V178.46H154.135V169.02H157.135V167.78ZM168.654 163.98V165.2H172.054V166.9H168.654V168.1H172.054V171.06H173.514V160.58H172.054V163.98H168.654ZM169.334 169.5C166.814 168.6 164.954 166.4 164.954 164.04V163.02H168.934V161.8H159.434V163.02H163.494V164.04C163.494 166.68 161.594 168.94 158.934 169.88L159.714 171.06C161.834 170.28 163.494 168.66 164.234 166.56C165.014 168.42 166.594 169.9 168.594 170.66L169.334 169.5ZM171.534 171.62H170.114V172.62C170.114 174.02 169.214 175.88 167.454 176.96C165.734 175.98 164.874 174.24 164.874 172.62V171.62H163.474V172.62C163.474 174.34 162.074 176.3 159.854 177.14L160.574 178.22C162.274 177.56 163.514 176.3 164.154 174.84C164.674 176.36 165.754 177.7 167.494 178.38C169.174 177.66 170.274 176.26 170.814 174.78C171.414 176.32 172.674 177.58 174.434 178.22L175.194 177.14C172.914 176.36 171.534 174.48 171.534 172.62V171.62ZM183.512 163.64H187.812V162.42H177.832V163.64H182.072V166.14C182.072 169.24 179.772 172.62 177.272 173.84L178.132 175C180.132 173.96 181.972 171.64 182.792 169.02C183.652 171.52 185.492 173.58 187.552 174.56L188.372 173.4C185.812 172.28 183.512 169.2 183.512 166.14V163.64ZM190.372 160.58V178.44H191.832V160.58H190.372ZM203.151 169.24H197.831V163.38H203.151V169.24ZM204.571 162.2H196.411V170.42H204.571V162.2ZM199.871 172.46H198.411V178.06H210.291V176.84H199.871V172.46ZM209.471 166.08V160.54H208.011V173.68H209.471V167.3H212.151V166.08H209.471ZM214.429 180.7C216.089 179.96 217.189 178.52 217.189 176.68C217.189 175.42 216.629 174.66 215.729 174.66C215.069 174.66 214.469 175.1 214.469 175.84C214.469 176.62 215.049 177.04 215.709 177.04C215.789 177.04 215.869 177.04 215.949 177.02C215.929 178.24 215.189 179.18 214.009 179.74L214.429 180.7ZM231.393 167.84H226.073V162.94H231.393V167.84ZM232.813 161.74H224.653V169.02H232.813V161.74ZM227.233 171.38H225.813V177.98H226.633C227.753 177.98 229.453 177.9 231.213 177.36L230.953 176.16C229.673 176.6 228.233 176.74 227.233 176.76V171.38ZM235.053 177.38C233.893 177.38 233.073 176.78 233.073 175.9C233.073 175.02 233.893 174.44 235.053 174.44C236.213 174.44 237.053 175.02 237.053 175.9C237.053 176.78 236.213 177.38 235.053 177.38ZM235.053 173.38C233.133 173.38 231.773 174.36 231.773 175.9C231.773 177.46 233.133 178.44 235.053 178.44C236.993 178.44 238.353 177.46 238.353 175.9C238.353 174.36 236.993 173.38 235.053 173.38ZM235.773 169.94H234.353V171.58H230.553V172.7H239.553V171.58H235.773V169.94ZM237.713 164.64V160.56H236.253V169.72H237.713V165.86H240.393V164.64H237.713ZM250.351 162.38C253.231 162.38 255.111 163.28 255.111 164.72C255.111 166.2 253.231 167.08 250.351 167.08C247.471 167.08 245.591 166.2 245.591 164.72C245.591 163.28 247.471 162.38 250.351 162.38ZM250.351 168.28C254.171 168.28 256.591 166.94 256.591 164.72C256.591 162.52 254.171 161.18 250.351 161.18C246.531 161.18 244.091 162.52 244.091 164.72C244.091 166.94 246.531 168.28 250.351 168.28ZM245.831 172.88H244.371V178.06H256.651V176.84H245.831V172.88ZM242.271 170.02V171.24H258.431V170.02H242.271ZM266.183 162.5V163.7H273.023C272.723 168 270.223 171.56 265.383 173.88L266.163 175.06C272.063 172.18 274.503 167.62 274.503 162.5H266.183ZM278.303 160.56V178.46H279.763V160.56H278.303ZM296.761 177H288.281V174.6H296.761V177ZM296.761 173.42H288.281V171.08H286.841V178.2H298.201V171.08H296.761V173.42ZM288.401 168.42C286.561 168.42 285.201 167.22 285.201 165.52C285.201 163.82 286.561 162.64 288.401 162.64C290.241 162.64 291.581 163.82 291.581 165.52C291.581 167.22 290.241 168.42 288.401 168.42ZM296.741 160.58V164.88H292.941C292.621 162.8 290.841 161.42 288.401 161.42C285.721 161.42 283.821 163.08 283.821 165.52C283.821 167.98 285.721 169.64 288.401 169.64C290.861 169.64 292.661 168.24 292.941 166.1H296.741V170.16H298.201V160.58H296.741ZM320.993 160.56H319.533V170.86H320.993V160.56ZM314.173 167.82H308.753V162.92H314.173V167.82ZM315.593 161.74H307.313V169H315.593V161.74ZM316.153 173.28H321.453V172.12H316.153V170.32H314.673V172.12H309.373V173.28H314.653V173.32C314.653 175.18 311.613 176.92 308.653 177.28L309.153 178.4C311.793 178.02 314.353 176.76 315.413 175.04C316.453 176.74 318.933 178.02 321.553 178.4L322.073 177.28C319.113 176.9 316.153 175.12 316.153 173.32V173.28ZM330.285 162.5V163.7H337.125C336.825 168 334.325 171.56 329.485 173.88L330.265 175.06C336.165 172.18 338.605 167.62 338.605 162.5H330.285ZM342.405 160.56V178.46H343.865V160.56H342.405ZM356.963 168.2C357.423 165.82 357.423 164.02 357.423 162.88V161.96H348.623V163.18H356.003C356.003 164.32 355.963 165.88 355.523 168.04L356.963 168.2ZM358.763 169.32C356.903 169.58 354.863 169.72 352.863 169.8V165.94H351.423V169.86C350.043 169.88 348.723 169.9 347.543 169.9L347.703 171.12C350.863 171.12 355.143 171.02 358.863 170.4L358.763 169.32ZM351.743 172.8H350.283V178.06H362.043V176.84H351.743V172.8ZM361.463 166.46V160.56H360.023V174.06H361.463V167.68H364.123V166.46H361.463ZM370.041 173.12C368.561 173.12 367.601 171.22 367.601 168.26C367.601 165.36 368.561 163.46 370.041 163.46C371.541 163.46 372.501 165.36 372.501 168.26C372.501 171.22 371.541 173.12 370.041 173.12ZM376.281 167.58H373.821C373.641 164.2 372.221 162.12 370.041 162.12C367.761 162.12 366.261 164.5 366.261 168.26C366.261 172.08 367.761 174.46 370.041 174.46C372.241 174.46 373.681 172.3 373.821 168.8H376.281V177.56H377.661V160.98H376.281V167.58ZM379.781 160.58V178.46H381.181V160.58H379.781ZM6.69359 194.14H5.23359V197.46C5.23359 200.76 3.07359 204.2 0.553594 205.5L1.47359 206.66C3.47359 205.56 5.19359 203.24 5.97359 200.54C6.77359 203.1 8.47359 205.3 10.4936 206.34L11.3536 205.16C8.83359 203.94 6.69359 200.68 6.69359 197.46V194.14ZM13.7336 192.56V198.72H9.43359V199.94H13.7336V210.48H15.1936V192.56H13.7336ZM37.9852 192.56H36.5252V201.86H37.9852V192.56ZM34.1652 200.14C31.5652 199.26 29.5652 197.02 29.5652 194.46V193.1H28.1252V194.46C28.1252 197.14 26.1652 199.54 23.5252 200.5L24.2852 201.64C26.3852 200.86 28.1052 199.16 28.8652 197.06C29.6852 199.04 31.3652 200.58 33.4252 201.3L34.1652 200.14ZM27.9652 209.04V207H38.0052V202.78H26.4852V203.96H36.5652V205.88H26.5252V210.24H38.6452V209.04H27.9652ZM46.9436 195.92H50.2436V194.7H42.0236V195.92H45.5236V197.68C45.5236 201 44.0236 204.28 41.5636 205.76L42.4836 206.84C44.3036 205.7 45.6236 203.56 46.2436 201.04C46.8636 203.38 48.1436 205.34 49.9036 206.4L50.8036 205.34C48.3636 203.92 46.9436 200.82 46.9436 197.68V195.92ZM51.9436 199.04H48.8636V200.26H51.9436V209.52H53.3236V193H51.9436V199.04ZM55.5036 192.56V210.46H56.9036V192.56H55.5036ZM68.982 206.98V203.5H74.742V202.3H63.662V199.24H74.322V193.92H62.182V195.14H72.902V198.06H62.222V203.5H67.522V206.98H60.162V208.2H76.382V206.98H68.982ZM88.8936 194.66C90.7136 194.66 92.0136 195.66 92.0136 197.1C92.0136 198.54 90.7136 199.52 88.8936 199.52C87.0536 199.52 85.7536 198.54 85.7536 197.1C85.7536 195.66 87.0536 194.66 88.8936 194.66ZM88.8936 200.74C91.5336 200.74 93.4136 199.28 93.4136 197.1C93.4136 194.92 91.5336 193.44 88.8936 193.44C86.2336 193.44 84.3536 194.92 84.3536 197.1C84.3536 199.28 86.2336 200.74 88.8936 200.74ZM94.8336 201.68C90.8736 202.28 86.3336 202.34 82.9736 202.34L83.1736 203.58C84.6736 203.58 86.4136 203.56 88.2336 203.48V209.9H89.6936V203.4C91.4336 203.3 93.2136 203.1 94.9536 202.8L94.8336 201.68ZM96.1736 192.58V210.46H97.6336V192.58H96.1736ZM103.472 197.9C103.472 196.2 104.852 194.98 106.772 194.98C108.672 194.98 110.052 196.2 110.052 197.9C110.052 199.62 108.672 200.82 106.772 200.82C104.852 200.82 103.472 199.62 103.472 197.9ZM107.492 202.04C109.852 201.76 111.472 200.14 111.472 197.9C111.472 195.42 109.512 193.74 106.772 193.74C104.012 193.74 102.052 195.42 102.052 197.9C102.052 200.16 103.692 201.76 106.052 202.04V205.24C104.312 205.3 102.652 205.3 101.212 205.3L101.432 206.54C104.592 206.54 108.792 206.48 112.592 205.86L112.472 204.78C110.892 205 109.192 205.1 107.492 205.18V202.04ZM118.012 200.02H115.092V192.56H113.632V210.46H115.092V201.24H118.012V200.02ZM125.084 193.82V195.04H131.704C131.464 197.94 128.864 200.26 124.344 201.3L124.924 202.5C130.144 201.24 133.344 198.26 133.344 193.82H125.084ZM128.384 207.1H137.984V206H128.384V204.12H138.204V202.98H126.944V210.2H138.624V209.06H128.384V207.1ZM138.104 196.8V192.58H136.644V202.16H138.104V198.02H140.784V196.8H138.104ZM150.742 194.38C153.622 194.38 155.502 195.28 155.502 196.72C155.502 198.2 153.622 199.08 150.742 199.08C147.862 199.08 145.982 198.2 145.982 196.72C145.982 195.28 147.862 194.38 150.742 194.38ZM150.742 200.28C154.562 200.28 156.982 198.94 156.982 196.72C156.982 194.52 154.562 193.18 150.742 193.18C146.922 193.18 144.482 194.52 144.482 196.72C144.482 198.94 146.922 200.28 150.742 200.28ZM146.222 204.88H144.762V210.06H157.042V208.84H146.222V204.88ZM142.662 202.02V203.24H158.822V202.02H142.662ZM170.274 205.1C168.474 205.1 167.234 203.14 167.234 200.18C167.234 197.24 168.474 195.28 170.274 195.28C172.054 195.28 173.314 197.24 173.314 200.18C173.314 203.14 172.054 205.1 170.274 205.1ZM178.734 192.56V199.44H174.674C174.454 196.08 172.694 193.98 170.274 193.98C167.674 193.98 165.854 196.4 165.854 200.18C165.854 203.96 167.674 206.4 170.274 206.4C172.754 206.4 174.534 204.18 174.674 200.66H178.734V210.48H180.194V192.56H178.734ZM186.032 200.52H192.312V194.2H184.552V195.42H190.872V199.3H184.592V206.26H185.912C188.732 206.26 191.032 206.16 193.872 205.72L193.752 204.5C191.012 204.94 188.732 205.04 186.032 205.04V200.52ZM197.132 192.54V196.7H193.472V197.92H197.132V201.6H193.352V202.82H197.132V210.46H198.592V192.54H197.132ZM210.41 194.08C213.31 194.08 215.15 194.9 215.15 196.26C215.15 197.62 213.31 198.44 210.41 198.44C207.47 198.44 205.63 197.62 205.63 196.26C205.63 194.9 207.47 194.08 210.41 194.08ZM210.41 199.6C214.25 199.6 216.63 198.36 216.63 196.26C216.63 194.18 214.25 192.92 210.41 192.92C206.53 192.92 204.13 194.18 204.13 196.26C204.13 198.36 206.53 199.6 210.41 199.6ZM215.05 209H205.75V205.54H215.05V209ZM218.47 202.26V201.06H202.33V202.26H209.69V204.36H204.33V210.2H216.47V204.36H211.13V202.26H218.47ZM234.969 197.4H224.349V194.4H234.769V193.2H222.889V198.6H234.969V197.4ZM224.169 207.1H234.789V203H222.689V204.16H233.349V206H222.749V210.22H235.329V209.04H224.169V207.1ZM220.729 200.14V201.34H236.889V200.14H220.729ZM247.187 194C250.167 194 251.947 194.74 251.947 196C251.947 197.26 250.167 197.98 247.187 197.98C244.187 197.98 242.427 197.26 242.427 196C242.427 194.74 244.187 194 247.187 194ZM247.187 199.1C251.107 199.1 253.427 197.98 253.427 196C253.427 194 251.107 192.88 247.187 192.88C243.267 192.88 240.927 194 240.927 196C240.927 197.98 243.267 199.1 247.187 199.1ZM242.567 207.12H253.187V203.2H241.087V204.32H251.747V206.04H241.147V210.24H253.727V209.06H242.567V207.12ZM239.127 200.36V201.56H255.287V200.36H239.127ZM264.319 205.06H268.659V210.44H270.119V203.84H264.319V205.06ZM270.979 205.06H275.179V210.44H276.639V203.84H270.979V205.06ZM275.179 192.56V195.76H271.039C271.199 195.14 271.279 194.46 271.279 193.74H263.139V194.94H269.739C269.419 198.08 266.599 200.52 262.239 201.72L262.859 202.88C266.679 201.82 269.459 199.78 270.639 196.96H275.179V199.54H270.379V200.76H275.179V202.96H276.639V192.56H275.179ZM293.077 196.22C293.077 198.34 293.077 200.84 292.417 204.22L293.877 204.42C294.537 200.86 294.537 198.4 294.537 196.22V194.42H282.117V195.64H293.077V196.22ZM288.217 206.66V200.22H286.757V206.66H280.377V207.88H296.537V206.66H288.217ZM317.849 192.6H316.389V202.8H317.849V192.6ZM308.269 194.86C310.129 194.86 311.489 196.08 311.489 197.8C311.489 199.5 310.129 200.72 308.269 200.72C306.409 200.72 305.069 199.5 305.069 197.8C305.069 196.08 306.409 194.86 308.269 194.86ZM308.269 201.94C310.969 201.94 312.909 200.26 312.909 197.8C312.909 195.32 310.969 193.64 308.269 193.64C305.589 193.64 303.649 195.32 303.649 197.8C303.649 200.26 305.589 201.94 308.269 201.94ZM315.809 203.6H314.389V204.62C314.389 206.02 313.489 207.88 311.749 208.94C310.029 207.96 309.169 206.24 309.169 204.62V203.6H307.769V204.62C307.769 206.34 306.349 208.3 304.129 209.1L304.849 210.2C306.569 209.54 307.789 208.28 308.429 206.84C308.949 208.36 310.049 209.68 311.769 210.36C313.449 209.64 314.549 208.24 315.089 206.78C315.689 208.3 316.969 209.56 318.729 210.2L319.469 209.1C317.189 208.34 315.809 206.48 315.809 204.62V203.6ZM336.847 198.24C333.827 197.86 330.447 195.9 330.447 193.6V192.76H328.947V193.6C328.947 195.94 325.607 197.84 322.547 198.24L323.087 199.42C325.807 199 328.607 197.6 329.707 195.54C330.827 197.58 333.607 199 336.287 199.42L336.847 198.24ZM334.207 209H325.127V206.64H334.207V209ZM334.207 205.48H325.127V203.28H323.667V210.2H335.647V203.28H334.207V205.48ZM321.607 200.76V201.98H337.787V200.76H321.607ZM342.626 194.32H341.166V205.8H342.626C345.466 205.8 348.286 205.6 351.386 204.94L351.226 203.7C348.186 204.32 345.386 204.54 342.626 204.54V194.32ZM353.146 192.58V210.44H354.606V192.58H353.146ZM360.644 195.52H367.484V194.3H359.184V206H360.564C363.984 206 366.304 205.88 369.064 205.38L368.904 204.12C366.244 204.62 363.964 204.74 360.644 204.74V195.52ZM375.104 199.7H372.104V192.56H370.644V210.48H372.104V200.92H375.104V199.7ZM378.403 209.26C379.083 209.26 379.643 208.74 379.643 207.98C379.643 207.18 379.083 206.66 378.403 206.66C377.743 206.66 377.183 207.18 377.183 207.98C377.183 208.74 377.743 209.26 378.403 209.26ZM78.2239 224.56V242.48H79.6839V224.56H78.2239ZM70.2839 225.98C67.6439 225.98 65.7639 228.4 65.7639 232.18C65.7639 235.96 67.6439 238.4 70.2839 238.4C72.9239 238.4 74.8039 235.96 74.8039 232.18C74.8039 228.4 72.9239 225.98 70.2839 225.98ZM70.2839 227.28C72.1039 227.28 73.4039 229.24 73.4039 232.18C73.4039 235.14 72.1039 237.1 70.2839 237.1C68.4639 237.1 67.1639 235.14 67.1639 232.18C67.1639 229.24 68.4639 227.28 70.2839 227.28ZM88.6623 227.92H91.9623V226.7H83.7423V227.92H87.2423V229.68C87.2423 233 85.7423 236.28 83.2823 237.76L84.2023 238.84C86.0223 237.7 87.3423 235.56 87.9623 233.04C88.5823 235.38 89.8623 237.34 91.6223 238.4L92.5223 237.34C90.0823 235.92 88.6623 232.82 88.6623 229.68V227.92ZM93.6623 231.04H90.5823V232.26H93.6623V241.52H95.0423V225H93.6623V231.04ZM97.2223 224.56V242.46H98.6223V224.56H97.2223ZM119.574 241H111.094V238.6H119.574V241ZM119.574 237.42H111.094V235.08H109.654V242.2H121.014V235.08H119.574V237.42ZM111.214 232.42C109.374 232.42 108.014 231.22 108.014 229.52C108.014 227.82 109.374 226.64 111.214 226.64C113.054 226.64 114.394 227.82 114.394 229.52C114.394 231.22 113.054 232.42 111.214 232.42ZM119.554 224.58V228.88H115.754C115.434 226.8 113.654 225.42 111.214 225.42C108.534 225.42 106.634 227.08 106.634 229.52C106.634 231.98 108.534 233.64 111.214 233.64C113.674 233.64 115.474 232.24 115.754 230.1H119.554V234.16H121.014V224.58H119.554ZM137.412 231.32H128.232V226.76H137.412V231.32ZM138.832 225.56H126.812V232.5H138.832V225.56ZM140.952 235.02H124.712V236.24H132.072V242.46H133.532V236.24H140.952V235.02ZM158.784 230.66H161.244V235.64H162.644V224.58H161.244V229.44H158.784V224.9H157.404V235.06H158.784V230.66ZM156.544 233.06C154.244 232.18 152.824 230.14 152.824 228.14V225.68H151.424V228.14C151.424 230.16 149.964 232.5 147.644 233.52L148.444 234.66C150.204 233.86 151.504 232.32 152.144 230.58C152.784 232.16 154.044 233.48 155.744 234.18L156.544 233.06ZM156.784 241.28C154.024 241.28 152.284 240.52 152.284 239.24C152.284 237.96 154.024 237.22 156.784 237.22C159.544 237.22 161.284 237.96 161.284 239.24C161.284 240.52 159.544 241.28 156.784 241.28ZM156.784 236.06C153.104 236.06 150.844 237.26 150.844 239.24C150.844 241.26 153.104 242.42 156.784 242.42C160.484 242.42 162.724 241.26 162.724 239.24C162.724 237.26 160.484 236.06 156.784 236.06ZM176.342 233.64C173.802 232.74 171.922 230.44 171.922 227.94V225.64H170.462V227.9C170.462 230.72 168.622 233.12 165.962 234.1L166.722 235.28C168.842 234.46 170.482 232.78 171.222 230.62C172.022 232.54 173.602 234.08 175.622 234.82L176.342 233.64ZM170.282 236.52H168.822V242.06H180.642V240.84H170.282V236.52ZM179.822 230.1V224.54H178.362V237.78H179.822V231.32H182.502V230.1H179.822ZM197.601 235.16H199.061V224.58H197.601V228.46H193.581V229.68H197.601V235.16ZM194.821 233.14C192.261 232.22 190.401 229.98 190.401 227.44V225.6H188.961V227.48C188.961 230.28 187.081 232.66 184.381 233.62L185.161 234.8C187.301 233.98 188.981 232.3 189.721 230.14C190.501 232.06 192.081 233.54 194.041 234.28L194.821 233.14ZM193.181 241.24C190.441 241.24 188.721 240.44 188.721 239.06C188.721 237.7 190.441 236.88 193.181 236.88C195.961 236.88 197.681 237.7 197.681 239.06C197.681 240.44 195.961 241.24 193.181 241.24ZM193.181 235.7C189.521 235.7 187.281 236.94 187.281 239.06C187.281 241.18 189.521 242.42 193.181 242.42C196.881 242.42 199.121 241.18 199.121 239.06C199.121 236.94 196.881 235.7 193.181 235.7ZM210.859 226C213.839 226 215.619 226.74 215.619 228C215.619 229.26 213.839 229.98 210.859 229.98C207.859 229.98 206.099 229.26 206.099 228C206.099 226.74 207.859 226 210.859 226ZM210.859 231.1C214.779 231.1 217.099 229.98 217.099 228C217.099 226 214.779 224.88 210.859 224.88C206.939 224.88 204.599 226 204.599 228C204.599 229.98 206.939 231.1 210.859 231.1ZM206.239 239.12H216.859V235.2H204.759V236.32H215.419V238.04H204.819V242.24H217.399V241.06H206.239V239.12ZM202.799 232.36V233.56H218.959V232.36H202.799ZM231.671 237.08H235.791V241H231.671V237.08ZM237.231 237.08H240.011V235.88H227.451V237.08H230.231V241H227.291V242.2H240.171V241H237.231V237.08ZM234.451 232.8V230.44H239.971V229.24H229.311V224.98H227.851V230.44H233.011V232.8H225.651V234H241.811V232.8H234.451ZM257.169 224.56V242.48H258.629V224.56H257.169ZM249.229 225.98C246.589 225.98 244.709 228.4 244.709 232.18C244.709 235.96 246.589 238.4 249.229 238.4C251.869 238.4 253.749 235.96 253.749 232.18C253.749 228.4 251.869 225.98 249.229 225.98ZM249.229 227.28C251.049 227.28 252.349 229.24 252.349 232.18C252.349 235.14 251.049 237.1 249.229 237.1C247.409 237.1 246.109 235.14 246.109 232.18C246.109 229.24 247.409 227.28 249.229 227.28ZM269.948 233.24H264.708V227.32H269.948V233.24ZM275.648 229V231.6H271.368V229H275.648ZM271.368 232.82H275.648V237.64H277.108V224.58H275.648V227.78H271.368V226.14H263.268V234.44H271.368V232.82ZM267.128 240.84V236.48H265.668V242.06H277.548V240.84H267.128ZM287.006 226.14H285.546V229.46C285.546 232.76 283.386 236.2 280.866 237.5L281.786 238.66C283.786 237.56 285.506 235.24 286.286 232.54C287.086 235.1 288.786 237.3 290.806 238.34L291.666 237.16C289.146 235.94 287.006 232.68 287.006 229.46V226.14ZM294.046 224.56V230.72H289.746V231.94H294.046V242.48H295.506V224.56H294.046ZM308.045 238.94V234.2H313.565V232.98H302.765V227.24H313.365V226.02H301.305V234.2H306.585V238.94H299.205V240.16H315.465V238.94H308.045ZM13.542 258.66C15.362 258.66 16.662 259.66 16.662 261.1C16.662 262.54 15.362 263.52 13.542 263.52C11.702 263.52 10.402 262.54 10.402 261.1C10.402 259.66 11.702 258.66 13.542 258.66ZM13.542 264.74C16.182 264.74 18.062 263.28 18.062 261.1C18.062 258.92 16.182 257.44 13.542 257.44C10.882 257.44 9.00203 258.92 9.00203 261.1C9.00203 263.28 10.882 264.74 13.542 264.74ZM19.482 265.68C15.522 266.28 10.982 266.34 7.62203 266.34L7.82203 267.58C9.32203 267.58 11.062 267.56 12.882 267.48V273.9H14.342V267.4C16.082 267.3 17.862 267.1 19.602 266.8L19.482 265.68ZM20.822 256.58V274.46H22.282V256.58H20.822ZM28.1205 261.9C28.1205 260.2 29.5005 258.98 31.4205 258.98C33.3205 258.98 34.7005 260.2 34.7005 261.9C34.7005 263.62 33.3205 264.82 31.4205 264.82C29.5005 264.82 28.1205 263.62 28.1205 261.9ZM32.1405 266.04C34.5005 265.76 36.1205 264.14 36.1205 261.9C36.1205 259.42 34.1605 257.74 31.4205 257.74C28.6605 257.74 26.7005 259.42 26.7005 261.9C26.7005 264.16 28.3405 265.76 30.7005 266.04V269.24C28.9605 269.3 27.3005 269.3 25.8605 269.3L26.0805 270.54C29.2405 270.54 33.4405 270.48 37.2405 269.86L37.1205 268.78C35.5405 269 33.8405 269.1 32.1405 269.18V266.04ZM42.6605 264.02H39.7405V256.56H38.2805V274.46H39.7405V265.24H42.6605V264.02ZM49.732 257.82V259.04H56.352C56.112 261.94 53.512 264.26 48.992 265.3L49.572 266.5C54.792 265.24 57.992 262.26 57.992 257.82H49.732ZM53.032 271.1H62.632V270H53.032V268.12H62.852V266.98H51.592V274.2H63.272V273.06H53.032V271.1ZM62.752 260.8V256.58H61.292V266.16H62.752V262.02H65.432V260.8H62.752ZM75.3905 258.38C78.2705 258.38 80.1505 259.28 80.1505 260.72C80.1505 262.2 78.2705 263.08 75.3905 263.08C72.5105 263.08 70.6305 262.2 70.6305 260.72C70.6305 259.28 72.5105 258.38 75.3905 258.38ZM75.3905 264.28C79.2105 264.28 81.6305 262.94 81.6305 260.72C81.6305 258.52 79.2105 257.18 75.3905 257.18C71.5705 257.18 69.1305 258.52 69.1305 260.72C69.1305 262.94 71.5705 264.28 75.3905 264.28ZM70.8705 268.88H69.4105V274.06H81.6905V272.84H70.8705V268.88ZM67.3105 266.02V267.24H83.4705V266.02H67.3105ZM102.822 262.44H93.682V258.62H102.822V262.44ZM104.242 257.42H92.242V263.64H104.242V257.42ZM93.682 268.94H92.222V274.06H104.562V272.84H93.682V268.94ZM90.122 265.76V266.96H97.622V270.7H99.082V266.96H106.382V265.76H90.122ZM113.74 259.92H117.04V258.7H108.82V259.92H112.32V261.68C112.32 265 110.82 268.28 108.36 269.76L109.28 270.84C111.1 269.7 112.42 267.56 113.04 265.04C113.66 267.38 114.94 269.34 116.7 270.4L117.6 269.34C115.16 267.92 113.74 264.82 113.74 261.68V259.92ZM118.74 263.04H115.66V264.26H118.74V273.52H120.12V257H118.74V263.04ZM122.3 256.56V274.46H123.7V256.56H122.3ZM141.219 261.4H130.599V258.4H141.019V257.2H129.139V262.6H141.219V261.4ZM130.419 271.1H141.039V267H128.939V268.16H139.599V270H128.999V274.22H141.579V273.04H130.419V271.1ZM126.979 264.14V265.34H143.139V264.14H126.979ZM153.437 258C156.417 258 158.197 258.74 158.197 260C158.197 261.26 156.417 261.98 153.437 261.98C150.437 261.98 148.677 261.26 148.677 260C148.677 258.74 150.437 258 153.437 258ZM153.437 263.1C157.357 263.1 159.677 261.98 159.677 260C159.677 258 157.357 256.88 153.437 256.88C149.517 256.88 147.177 258 147.177 260C147.177 261.98 149.517 263.1 153.437 263.1ZM148.817 271.12H159.437V267.2H147.337V268.32H157.997V270.04H147.397V274.24H159.977V273.06H148.817V271.12ZM145.377 264.36V265.56H161.537V264.36H145.377ZM172.649 269.02C171.209 269.02 170.149 267.86 170.149 266.22C170.149 264.6 171.209 263.4 172.649 263.4C174.129 263.4 175.189 264.6 175.189 266.22C175.189 267.86 174.129 269.02 172.649 269.02ZM172.649 262.16C170.429 262.16 168.849 263.82 168.849 266.22C168.849 268.62 170.429 270.26 172.649 270.26C174.889 270.26 176.489 268.62 176.489 266.22C176.489 263.82 174.889 262.16 172.649 262.16ZM173.369 257.08H171.929V259.7H168.189V260.92H177.129V259.7H173.369V257.08ZM181.909 256.56V264.16H179.449V257H178.069V273.56H179.449V265.38H181.909V274.44H183.309V256.56H181.909ZM199.827 260.4V262.64H195.007V263.8H199.827V265.74H201.287V256.56H199.827V259.22H195.627C195.747 258.66 195.807 258.08 195.807 257.48H187.827V258.68H194.207C193.947 261.66 191.307 263.9 186.907 264.94L187.447 266.12C191.387 265.16 194.167 263.22 195.287 260.4H199.827ZM191.307 273.08V270.86H201.287V266.58H189.827V267.78H199.847V269.72H189.867V274.28H201.927V273.08H191.307ZM210.266 269.18C208.586 269.18 207.346 267.98 207.346 266.32C207.346 264.66 208.586 263.46 210.266 263.46C211.986 263.46 213.226 264.66 213.226 266.32C213.226 267.98 211.986 269.18 210.266 269.18ZM210.266 262.24C207.786 262.24 205.966 263.92 205.966 266.32C205.966 268.74 207.786 270.4 210.266 270.4C212.806 270.4 214.606 268.74 214.606 266.32C214.606 263.92 212.806 262.24 210.266 262.24ZM210.986 256.76H209.526V259.46H204.906V260.66H215.486V259.46H210.986V256.76ZM221.706 264H218.706V256.56H217.246V274.46H218.706V265.22H221.706V264ZM237.724 262.04H227.064V257.22H225.604V263.24H237.724V262.04ZM226.964 268.8H225.504V274.02H237.844V272.8H226.964V268.8ZM223.384 265.72V266.94H239.604V265.72H223.384ZM252.136 260.9H256.176V259.7H252.156V256.88H250.696V259.7H246.596V260.9H250.716V262.4C250.716 265.54 248.696 268.6 246.116 269.86L246.976 270.98C248.996 269.96 250.676 267.86 251.436 265.32C252.176 267.68 253.756 269.66 255.696 270.64L256.536 269.52C254.036 268.28 252.136 265.34 252.136 262.4V260.9ZM262.956 264H259.956V256.56H258.496V274.46H259.956V265.22H262.956V264ZM269.874 258.26H268.474V261.76C268.474 264.82 266.894 268.02 264.474 269.44L265.394 270.54C267.214 269.44 268.554 267.38 269.194 264.96C269.834 267.16 271.094 269.1 272.814 270.14L273.654 269.02C271.334 267.62 269.874 264.54 269.874 261.72V258.26ZM274.794 263.04H271.714V264.26H274.794V273.54H276.174V256.98H274.794V263.04ZM278.414 256.56V274.44H279.814V256.56H278.414ZM285.153 259.98H290.393V258.76H283.713V269.98H284.873C287.633 269.98 289.433 269.88 291.553 269.42L291.413 268.22C289.433 268.64 287.713 268.76 285.153 268.76V259.98ZM296.793 256.58V263.78H294.113V256.98H292.733V273.54H294.113V265H296.793V274.46H298.193V256.58H296.793ZM307.944 259.86H311.964V268.42H307.944V259.86ZM306.564 269.6H313.324V258.66H306.564V269.6ZM319.664 256.56V263.7H317.104V256.96H315.724V273.56H317.104V264.92H319.664V274.46H321.064V256.56H319.664ZM338.943 256.58H337.483V269.7H338.943V256.58ZM335.043 265.6C332.423 264.62 330.503 262.16 330.503 259.4V257.56H329.063V259.4C329.063 262.26 327.163 264.88 324.523 265.92L325.323 267.1C327.403 266.24 329.043 264.42 329.803 262.2C330.603 264.3 332.243 265.94 334.263 266.76L335.043 265.6ZM328.963 272.84V268.5H327.523V274.06H339.503V272.84H328.963ZM348.781 259.64H352.921V258.42H343.221V259.64H347.321V261.98C347.321 265.12 345.081 268.5 342.581 269.74L343.441 270.88C345.461 269.82 347.281 267.5 348.061 264.84C348.881 267.32 350.641 269.52 352.641 270.52L353.521 269.38C351.021 268.18 348.781 264.94 348.781 261.98V259.64ZM355.921 256.56V263.12H351.921V264.34H355.921V274.48H357.381V256.56H355.921ZM362.08 258.5V259.72H368.76C368.42 264 365.9 267.54 361.26 269.86L362.08 271.02C367.82 268.14 370.22 263.54 370.22 258.5H362.08ZM377.74 263.9H374.8V256.56H373.34V274.44H374.8V265.12H377.74V263.9ZM159.549 288.58H158.089V297.86H159.549V288.58ZM148.949 290.98H152.049V295.8C151.009 295.86 149.969 295.9 148.949 295.94V290.98ZM156.209 295.46C155.309 295.58 154.389 295.66 153.449 295.74V290.98H155.289V289.8H145.689V290.98H147.529V295.96C146.729 295.98 145.929 295.98 145.209 295.98L145.349 297.2C148.509 297.2 152.729 297.06 156.269 296.54L156.209 295.46ZM149.449 305.04V302.96H159.549V298.74H147.949V299.92H158.089V301.86H148.009V306.24H160.249V305.04H149.449ZM168.787 298.58C169.567 298.76 170.447 298.88 171.367 298.88C172.307 298.88 173.207 298.76 173.987 298.56V302.9H168.787V298.58ZM166.287 294.32C166.287 292.28 168.427 290.92 171.367 290.92C174.307 290.92 176.447 292.28 176.447 294.32C176.447 296.34 174.307 297.7 171.367 297.7C168.427 297.7 166.287 296.34 166.287 294.32ZM175.427 302.9V298C176.927 297.2 177.827 295.94 177.827 294.32C177.827 291.54 175.147 289.74 171.367 289.74C167.587 289.74 164.887 291.54 164.887 294.32C164.887 295.94 165.807 297.22 167.327 298V302.9H163.267V304.12H179.527V302.9H175.427ZM192.325 290.46H187.765V288.38H186.305V290.46H181.765V291.66H192.325V290.46ZM184.145 295.66C184.145 294.46 185.305 293.66 187.025 293.66C188.745 293.66 189.905 294.46 189.905 295.66C189.905 296.9 188.745 297.68 187.025 297.68C185.305 297.68 184.145 296.9 184.145 295.66ZM191.285 295.66C191.285 293.76 189.585 292.54 187.025 292.54C184.465 292.54 182.765 293.76 182.765 295.66C182.765 297.58 184.465 298.82 187.025 298.82C189.585 298.82 191.285 297.58 191.285 295.66ZM194.085 305H185.805V302.9H194.085V305ZM194.085 301.74H185.805V299.74H184.345V306.2H195.525V299.74H194.085V301.74ZM198.205 293.18H195.525V288.58H194.065V298.94H195.525V294.4H198.205V293.18ZM202.704 290.32H201.244V301.8H202.704C205.544 301.8 208.364 301.6 211.464 300.94L211.304 299.7C208.264 300.32 205.464 300.54 202.704 300.54V290.32ZM213.224 288.58V306.44H214.684V288.58H213.224ZM220.722 291.52H227.562V290.3H219.262V302H220.642C224.062 302 226.382 301.88 229.142 301.38L228.982 300.12C226.322 300.62 224.042 300.74 220.722 300.74V291.52ZM235.182 295.7H232.182V288.56H230.722V306.48H232.182V296.92H235.182V295.7ZM238.481 305.26C239.161 305.26 239.721 304.74 239.721 303.98C239.721 303.18 239.161 302.66 238.481 302.66C237.821 302.66 237.261 303.18 237.261 303.98C237.261 304.74 237.821 305.26 238.481 305.26Z" fill="#494B52"/>
</svg>
