<svg width="433" height="246" viewBox="0 0 433 246" fill="none" xmlns="http://www.w3.org/2000/svg">
<path d="M1.696 2.384V3.44H7.088C6.816 6.848 4.896 9.6 1.04 11.44L1.744 12.512C6.512 10.176 8.416 6.528 8.416 2.384H1.696ZM11.312 0.832V15.184H12.624V0.832H11.312ZM16.8468 7.2C19.1668 6.848 21.2788 5.696 22.0628 4.032C22.8468 5.696 24.9588 6.848 27.2788 7.2L27.7748 6.144C25.2308 5.808 22.9108 4.384 22.9108 2.624V2.592H27.3748V1.536H16.7508V2.592H21.2148V2.624C21.2148 4.384 18.8948 5.808 16.3508 6.144L16.8468 7.2ZM18.5428 10.816H17.2308V14.864H27.1028V13.792H18.5428V10.816ZM22.7028 8.576V6.192H21.3908V8.576H15.5508V9.648H28.5908V8.576H22.7028ZM38.6796 2.08H37.3836V4.656C37.3836 7.264 35.7516 10.016 33.6876 11.072L34.4716 12.128C36.0876 11.264 37.4156 9.472 38.0396 7.376C38.6956 9.344 39.9916 11.024 41.5116 11.84L42.3276 10.8C40.3116 9.792 38.6796 7.184 38.6796 4.656V2.08ZM47.2716 6.656H44.9036V0.848H43.5916V15.184H44.9036V7.744H47.2716V6.656ZM50.5984 2.576H49.2864V11.456H50.1984C51.7504 11.456 53.3984 11.376 55.3344 11.008L55.2064 9.872C53.4944 10.208 51.9744 10.304 50.5984 10.32V2.576ZM59.4944 0.832V6.672H57.4624V1.152H56.2304V14.448H57.4624V7.76H59.4944V15.168H60.7584V0.832H59.4944ZM71.9673 2.08H70.6713V4.656C70.6713 7.376 68.9273 10.128 66.8153 11.136L67.6153 12.208C69.2953 11.344 70.6713 9.552 71.3273 7.392C72.0153 9.44 73.3913 11.136 75.0233 11.936L75.8073 10.88C73.6793 9.92 71.9673 7.28 71.9673 4.656V2.08ZM77.3113 0.832V15.216H78.6233V0.832H77.3113ZM93.966 8.048C91.454 7.568 88.734 5.392 88.734 2.944V1.84H87.358V2.944C87.358 5.392 84.654 7.552 82.142 8.048L82.734 9.136C84.894 8.624 87.134 7.088 88.046 4.992C88.958 7.104 91.198 8.64 93.374 9.136L93.966 8.048ZM81.598 12.176V13.264H94.606V12.176H81.598ZM104.397 9.328H105.645V1.072H104.397V4.448H102.493V5.504H104.397V9.328ZM103.053 7.168C101.565 7.472 100.269 7.552 98.2368 7.552V5.616H101.837V4.592H98.2368V2.816H102.397V1.76H96.9728V8.608H97.8848C100.173 8.608 101.533 8.544 103.165 8.224L103.053 7.168ZM100.285 11.2H107.149V13.936H100.285V11.2ZM99.0048 14.992H108.429V10.16H99.0048V14.992ZM107.165 0.832V9.472H108.429V0.832H107.165ZM126.374 0.832H125.062V9.072H126.374V0.832ZM120.79 6.576H116.646V2.8H120.79V6.576ZM122.07 1.76H115.366V7.632H122.07V1.76ZM126.71 11.056V10.048H122.502V8.656H121.174V10.048H116.966V11.056H121.158C121.142 12.48 118.854 13.84 116.406 14.128L116.838 15.136C118.998 14.832 120.982 13.872 121.846 12.512C122.694 13.84 124.614 14.832 126.774 15.136L127.222 14.128C124.758 13.824 122.518 12.432 122.502 11.056H126.71ZM138.639 7.936V8.88H141.151V9.68H142.383V1.088H141.151V7.936H138.639ZM136.687 2.256C137.855 2.256 138.623 2.72 138.623 3.456C138.623 4.192 137.855 4.656 136.687 4.656C135.519 4.656 134.767 4.192 134.767 3.456C134.767 2.72 135.519 2.256 136.687 2.256ZM136.687 5.6C138.559 5.6 139.807 4.784 139.807 3.456C139.807 2.144 138.559 1.328 136.687 1.328C134.831 1.328 133.583 2.144 133.583 3.456C133.583 4.784 134.831 5.6 136.687 5.6ZM136.095 9.68H137.343V7.296C138.415 7.216 139.503 7.088 140.479 6.896L140.383 5.984C137.999 6.368 134.799 6.4 132.815 6.4L132.975 7.424C133.855 7.424 134.943 7.424 136.095 7.36V9.68ZM143.711 13.952H136.639V12.592H143.711V13.952ZM143.711 11.584H136.639V10.24H135.343V14.992H144.991V10.24H143.711V11.584ZM143.743 0.848V9.712H144.991V0.848H143.743ZM152.055 2.384V3.44H157.447C157.175 6.848 155.255 9.6 151.399 11.44L152.103 12.512C156.871 10.176 158.775 6.528 158.775 2.384H152.055ZM161.671 0.832V15.184H162.983V0.832H161.671ZM171.878 7.92H167.814V5.296H171.878V7.92ZM173.158 1.872H171.878V4.272H167.814V1.872H166.518V8.976H173.158V1.872ZM169.446 10.368H168.134V14.864H177.702V13.792H169.446V10.368ZM177.062 5.184V0.848H175.75V11.376H177.062V6.288H179.19V5.184H177.062ZM186.431 9.232L187.007 7.44C187.423 6.112 187.807 4.848 188.175 3.472H188.239C188.623 4.832 188.991 6.112 189.423 7.44L189.983 9.232H186.431ZM191.471 14H193.039L189.055 2.272H187.407L183.423 14H184.927L186.063 10.416H190.351L191.471 14ZM194.566 17.664H196.022V14.72L195.99 13.2C196.774 13.84 197.606 14.208 198.39 14.208C200.39 14.208 202.166 12.496 202.166 9.52C202.166 6.848 200.95 5.088 198.71 5.088C197.702 5.088 196.726 5.664 195.942 6.304H195.894L195.766 5.312H194.566V17.664ZM198.15 12.992C197.574 12.992 196.806 12.752 196.022 12.08V7.52C196.87 6.736 197.622 6.32 198.358 6.32C200.006 6.32 200.646 7.616 200.646 9.536C200.646 11.696 199.59 12.992 198.15 12.992ZM204.488 17.664H205.944V14.72L205.912 13.2C206.696 13.84 207.528 14.208 208.312 14.208C210.312 14.208 212.088 12.496 212.088 9.52C212.088 6.848 210.872 5.088 208.632 5.088C207.624 5.088 206.648 5.664 205.864 6.304H205.816L205.688 5.312H204.488V17.664ZM208.072 12.992C207.496 12.992 206.728 12.752 205.944 12.08V7.52C206.792 6.736 207.544 6.32 208.28 6.32C209.928 6.32 210.568 7.616 210.568 9.536C210.568 11.696 209.512 12.992 208.072 12.992ZM221.274 8.88C221.674 6.208 221.674 4.336 221.674 3.184V2.4H214.426V3.472H220.394C220.394 4.624 220.362 6.368 219.962 8.752L221.274 8.88ZM217.978 6.496H216.682V10.912C215.61 10.944 214.554 10.96 213.642 10.96L213.786 12.048C216.33 12.048 219.706 11.984 222.682 11.504L222.602 10.544C221.146 10.736 219.546 10.816 217.978 10.88V6.496ZM227.082 6.832H224.794V0.832H223.482V15.184H224.794V7.936H227.082V6.832ZM233.554 5.344C233.554 3.92 234.594 2.896 236.002 2.896C237.394 2.896 238.434 3.92 238.434 5.344C238.434 6.768 237.394 7.792 236.002 7.792C234.594 7.792 233.554 6.768 233.554 5.344ZM242.578 4.144V6.528H239.49C239.618 6.16 239.682 5.76 239.682 5.344C239.682 4.912 239.618 4.512 239.49 4.144H242.578ZM242.578 7.584V11.44H243.906V0.848H242.578V3.088H238.93C238.258 2.256 237.234 1.744 236.002 1.744C233.89 1.744 232.306 3.248 232.306 5.344C232.306 7.44 233.89 8.944 236.002 8.944C237.234 8.944 238.274 8.432 238.946 7.584H242.578ZM236.05 13.792V10.352H234.722V14.864H244.306V13.792H236.05ZM253.297 14.16C251.025 14.16 249.697 13.6 249.697 12.592C249.697 11.584 251.025 11.024 253.297 11.024C255.537 11.024 256.865 11.584 256.865 12.592C256.865 13.6 255.537 14.16 253.297 14.16ZM253.297 10C250.225 10 248.369 10.928 248.369 12.592C248.369 14.256 250.225 15.184 253.297 15.184C256.337 15.184 258.193 14.256 258.193 12.592C258.193 10.928 256.337 10 253.297 10ZM253.953 7.92V6.256H258.273V5.2H249.745V2.544H258.177V1.488H248.433V6.256H252.641V7.92H246.801V8.976H259.793V7.92H253.953ZM275.082 4.784H268.106V3.408H275.082V4.784ZM276.378 1.056H275.082V2.416H268.106V1.056H266.81V5.792H276.378V1.056ZM278.074 8.016V6.96H265.082V8.016H270.922V9.424H266.65V10.416H275.114V11.664H266.698V15.024H276.842V14.016H267.978V12.624H276.41V9.424H272.234V8.016H278.074ZM280.585 2.368V3.456H285.849C285.545 6.848 283.577 9.6 279.913 11.44L280.633 12.464C285.273 10.144 287.145 6.448 287.145 2.368H280.585ZM293.161 6.656H290.857V0.832H289.545V15.184H290.857V7.744H293.161V6.656ZM295.912 14.208C296.488 14.208 296.968 13.76 296.968 13.104C296.968 12.448 296.488 11.968 295.912 11.968C295.336 11.968 294.856 12.448 294.856 13.104C294.856 13.76 295.336 14.208 295.912 14.208ZM300.365 14.208C300.941 14.208 301.421 13.76 301.421 13.104C301.421 12.448 300.941 11.968 300.365 11.968C299.789 11.968 299.309 12.448 299.309 13.104C299.309 13.76 299.789 14.208 300.365 14.208ZM304.818 14.208C305.394 14.208 305.874 13.76 305.874 13.104C305.874 12.448 305.394 11.968 304.818 11.968C304.242 11.968 303.762 12.448 303.762 13.104C303.762 13.76 304.242 14.208 304.818 14.208ZM8.912 27.272H5.616V25.688H4.304V27.272H0.88V28.328H8.912V27.272ZM2.928 31.624C2.928 30.664 3.744 30.04 4.944 30.04C6.144 30.04 6.96 30.664 6.96 31.624C6.96 32.584 6.144 33.208 4.944 33.208C3.744 33.208 2.928 32.584 2.928 31.624ZM8.192 31.624C8.192 30.072 6.848 29.048 4.944 29.048C3.024 29.048 1.696 30.072 1.696 31.624C1.696 33.176 3.024 34.2 4.944 34.2C6.848 34.2 8.192 33.176 8.192 31.624ZM11.376 38.952H4.672V37.432H11.376V38.952ZM11.376 36.424H4.672V34.952H3.376V39.992H12.672V34.952H11.376V36.424ZM11.344 25.848V29.192H8.928V30.248H11.344V31.976H8.912V33.048H11.344V34.312H12.672V25.848H11.344ZM26.0788 38.936H19.5028V37.08H26.0788V38.936ZM26.0788 36.056H19.5028V34.248H18.2068V39.992H27.3908V34.248H26.0788V36.056ZM19.4868 32.056C18.0628 32.056 17.0388 31.128 17.0388 29.816C17.0388 28.504 18.0628 27.592 19.4868 27.592C20.9108 27.592 21.9348 28.504 21.9348 29.816C21.9348 31.128 20.9108 32.056 19.4868 32.056ZM26.0628 25.848V29.256H23.1348C22.8628 27.592 21.4228 26.504 19.4868 26.504C17.3428 26.504 15.7908 27.848 15.7908 29.816C15.7908 31.8 17.3428 33.144 19.4868 33.144C21.4548 33.144 22.8948 32.024 23.1508 30.328H26.0628V33.544H27.3908V25.848H26.0628ZM35.0476 29.432L35.2396 30.536L43.8636 30.136C43.8156 30.808 43.7196 31.544 43.5436 32.392L44.8396 32.488C45.2396 30.52 45.2396 29.08 45.2396 27.752V26.52H35.3996V27.592H43.9436V27.752C43.9436 28.2 43.9436 28.648 43.9276 29.144L35.0476 29.432ZM36.8236 35.736H35.5116V39.96H45.5436V38.888H36.8236V35.736ZM40.4556 33.448V31.368H39.1436V33.448H33.8796V34.504H46.8236V33.448H40.4556ZM60.6944 25.848H59.4304V36.6H60.6944V25.848ZM56.6624 36.232H57.9104V26.136H56.6624V29.896H54.7584V30.968H56.6624V36.232ZM55.3024 32.776C53.8144 33.08 52.5184 33.16 50.5024 33.16V31.08H54.0864V30.056H50.5024V28.088H54.6624V27.032H49.2384V34.216H50.1504C52.4384 34.216 53.7824 34.152 55.4304 33.832L55.3024 32.776ZM52.6784 38.792V35.416H51.3664V39.864H61.1104V38.792H52.6784ZM64.5971 34.872C66.8851 34.408 68.9171 33.192 69.8131 31.352C70.6931 33.192 72.7251 34.408 74.9971 34.872L75.5251 33.8C72.7731 33.32 70.4691 31.544 70.4691 29.192H75.0771V28.136H70.4691V26.184H69.1411V28.136H64.5171V29.192H69.1411C69.1411 31.544 66.8371 33.32 64.0851 33.8L64.5971 34.872ZM63.3011 37.272V38.344H76.3251V37.272H63.3011ZM82.6759 26.888C80.4519 26.888 78.8359 28.248 78.8359 30.264C78.8359 32.264 80.4519 33.64 82.6759 33.64C84.9159 33.64 86.5159 32.264 86.5159 30.264C86.5159 28.248 84.9159 26.888 82.6759 26.888ZM82.6759 28.008C84.1639 28.008 85.2359 28.92 85.2359 30.264C85.2359 31.592 84.1639 32.52 82.6759 32.52C81.1879 32.52 80.1159 31.592 80.1159 30.264C80.1159 28.92 81.1879 28.008 82.6759 28.008ZM88.4039 25.832V40.216H89.7159V25.832H88.4039ZM78.2759 37.064C80.8679 37.064 84.3399 37.048 87.5719 36.44L87.4599 35.464C84.3239 35.944 80.7239 35.96 78.1159 35.96L78.2759 37.064ZM103.981 29.56V30.632H106.813V34.392H108.141V25.848H106.813V29.56H103.981ZM104.781 32.824C102.701 32.088 101.293 30.28 101.293 28.44V27.944H104.445V26.888H96.7808V27.944H99.9808V28.44C99.9808 30.504 98.5088 32.44 96.3648 33.224L97.0528 34.264C98.7328 33.624 100.061 32.28 100.669 30.616C101.293 32.088 102.525 33.272 104.125 33.848L104.781 32.824ZM103.405 39.16C101.245 39.16 99.9328 38.552 99.9328 37.512C99.9328 36.472 101.245 35.848 103.405 35.848C105.565 35.848 106.877 36.472 106.877 37.512C106.877 38.552 105.565 39.16 103.405 39.16ZM103.405 34.84C100.461 34.84 98.6208 35.816 98.6208 37.512C98.6208 39.208 100.461 40.184 103.405 40.184C106.349 40.184 108.173 39.208 108.173 37.512C108.173 35.816 106.349 34.84 103.405 34.84ZM113.868 30.488H121.196V33.128H113.868V30.488ZM118.188 37.272V34.184H122.476V26.856H121.196V29.416H113.868V26.856H112.572V34.184H116.86V37.272H111.036V38.344H124.044V37.272H118.188ZM132.34 28.44H134.692V35.416C133.908 35.448 133.108 35.48 132.34 35.496V28.44ZM135.972 28.44H137.508V27.384H129.524V28.44H131.06V35.512C130.388 35.528 129.748 35.528 129.156 35.528L129.316 36.632C131.844 36.632 135.252 36.584 138.26 36.104L138.164 35.128C137.46 35.224 136.724 35.288 135.972 35.336V28.44ZM142.74 31.576H140.372V25.848H139.06V40.184H140.372V32.664H142.74V31.576ZM154.547 36.504H155.875V25.848H154.547V28.568H152.147V29.624H154.547V31.304H152.147V32.376H154.547V36.504ZM147.171 28.056H149.331V33.144C148.611 33.176 147.875 33.208 147.171 33.224V28.056ZM152.483 32.888C151.891 32.968 151.251 33.032 150.611 33.064V28.056H152.035V27H144.483V28.056H145.907V33.24C145.267 33.256 144.643 33.256 144.099 33.256L144.243 34.344C146.563 34.344 149.811 34.296 152.563 33.864L152.483 32.888ZM147.987 38.792V35.64H146.675V39.864H156.243V38.792H147.987ZM167.426 27.576H163.81V25.848H162.498V27.576H158.85V28.616H167.426V27.576ZM161.01 32.12C161.01 31.128 161.874 30.472 163.154 30.472C164.434 30.472 165.298 31.128 165.298 32.12C165.298 33.112 164.434 33.752 163.154 33.752C161.874 33.752 161.01 33.112 161.01 32.12ZM163.81 34.744C165.458 34.536 166.546 33.544 166.546 32.12C166.546 30.504 165.154 29.464 163.154 29.464C161.154 29.464 159.762 30.504 159.762 32.12C159.762 33.544 160.85 34.536 162.498 34.744V36.312C161.106 36.36 159.762 36.36 158.61 36.36L158.786 37.464C161.298 37.464 164.674 37.432 167.746 36.888L167.666 35.912C166.434 36.104 165.106 36.2 163.81 36.264V34.744ZM172.066 31.928H169.826V25.832H168.514V40.184H169.826V33.032H172.066V31.928ZM174.865 39.208C175.441 39.208 175.921 38.76 175.921 38.104C175.921 37.448 175.441 36.968 174.865 36.968C174.289 36.968 173.809 37.448 173.809 38.104C173.809 38.76 174.289 39.208 174.865 39.208ZM179.318 39.208C179.894 39.208 180.374 38.76 180.374 38.104C180.374 37.448 179.894 36.968 179.318 36.968C178.742 36.968 178.262 37.448 178.262 38.104C178.262 38.76 178.742 39.208 179.318 39.208ZM183.771 39.208C184.347 39.208 184.827 38.76 184.827 38.104C184.827 37.448 184.347 36.968 183.771 36.968C183.195 36.968 182.715 37.448 182.715 38.104C182.715 38.76 183.195 39.208 183.771 39.208ZM5.6 61.288H2.592V54.536H5.6V61.288ZM8.944 57.24H6.816V53.496H1.36V62.328H6.816V58.328H8.944V65.464H10.192V52.152H8.944V57.24ZM11.792 51.832V66.168H13.04V51.832H11.792ZM27.3428 51.832H26.0308V62.36H27.3428V51.832ZM24.2068 58.984C22.0788 58.2 20.6228 56.248 20.6228 54.088V52.632H19.3108V54.088C19.3108 56.328 17.8708 58.408 15.7108 59.24L16.3988 60.312C18.0788 59.608 19.3748 58.216 19.9828 56.472C20.6228 58.104 21.8868 59.4 23.5188 60.024L24.2068 58.984ZM19.4227 64.792V61.384H18.1108V65.864H27.7748V64.792H19.4227ZM35.2455 54.376H38.5095V53.304H30.6855V54.376H33.9335V56.04C33.9335 58.584 32.2215 61.304 30.1735 62.312L30.9415 63.352C32.5735 62.488 33.9655 60.648 34.5895 58.536C35.2455 60.52 36.6215 62.232 38.2215 63.048L39.0055 62.024C36.9255 61.032 35.2455 58.424 35.2455 56.04V54.376ZM40.7975 51.832V57.048H37.6935V58.12H40.7975V66.2H42.1095V51.832H40.7975ZM50.5984 53.576H49.2864V62.456H50.1984C51.7504 62.456 53.3984 62.376 55.3344 62.008L55.2064 60.872C53.4944 61.208 51.9744 61.304 50.5984 61.32V53.576ZM59.4944 51.832V57.672H57.4624V52.152H56.2304V65.448H57.4624V58.76H59.4944V66.168H60.7584V51.832H59.4944ZM71.6313 61.288H68.6233V54.536H71.6313V61.288ZM74.9753 57.24H72.8473V53.496H67.3913V62.328H72.8473V58.328H74.9753V65.464H76.2233V52.152H74.9753V57.24ZM77.8233 51.832V66.168H79.0713V51.832H77.8233ZM86.686 53.08H85.39V55.656C85.39 58.376 83.646 61.128 81.534 62.136L82.334 63.208C84.014 62.344 85.39 60.552 86.046 58.392C86.734 60.44 88.11 62.136 89.742 62.936L90.526 61.88C88.398 60.92 86.686 58.28 86.686 55.656V53.08ZM92.03 51.832V66.216H93.342V51.832H92.03ZM101.437 54.392H104.813V53.304H96.7968V54.392H100.125V56.216C100.125 58.696 98.3808 61.4 96.3168 62.376L97.0848 63.432C98.7168 62.6 100.125 60.792 100.781 58.696C101.469 60.664 102.877 62.312 104.541 63.08L105.277 62.024C103.165 61.128 101.437 58.648 101.437 56.216V54.392ZM106.749 51.848V66.184H108.061V51.848H106.749ZM126.374 51.832H125.062V60.072H126.374V51.832ZM120.79 57.576H116.646V53.8H120.79V57.576ZM122.07 52.76H115.366V58.632H122.07V52.76ZM126.71 62.056V61.048H122.502V59.656H121.174V61.048H116.966V62.056H121.158C121.142 63.48 118.854 64.84 116.406 65.128L116.838 66.136C118.998 65.832 120.982 64.872 121.846 63.512C122.694 64.84 124.614 65.832 126.774 66.136L127.222 65.128C124.758 64.824 122.518 63.432 122.502 62.056H126.71ZM135.919 54.44H138.271V61.416C137.487 61.448 136.687 61.48 135.919 61.496V54.44ZM139.551 54.44H141.087V53.384H133.103V54.44H134.639V61.512C133.967 61.528 133.327 61.528 132.735 61.528L132.895 62.632C135.423 62.632 138.831 62.584 141.839 62.104L141.743 61.128C141.039 61.224 140.303 61.288 139.551 61.336V54.44ZM146.319 57.576H143.951V51.848H142.639V66.184H143.951V58.664H146.319V57.576ZM159.405 51.832H158.093V59.192H159.405V51.832ZM149.229 55.544C149.229 54.296 150.269 53.416 151.661 53.416C153.069 53.416 154.093 54.296 154.093 55.544C154.093 56.776 153.069 57.656 151.661 57.656C150.269 57.656 149.229 56.776 149.229 55.544ZM155.373 55.544C155.373 53.64 153.805 52.344 151.661 52.344C149.517 52.344 147.965 53.64 147.965 55.544C147.965 57.432 149.517 58.712 151.661 58.712C153.805 58.712 155.373 57.432 155.373 55.544ZM151.437 64.952V63.368H159.405V59.896H150.109V60.936H158.109V62.392H150.141V65.992H159.885V64.952H151.437ZM167.004 52.888C164.78 52.888 163.164 54.248 163.164 56.264C163.164 58.264 164.78 59.64 167.004 59.64C169.244 59.64 170.844 58.264 170.844 56.264C170.844 54.248 169.244 52.888 167.004 52.888ZM167.004 54.008C168.492 54.008 169.564 54.92 169.564 56.264C169.564 57.592 168.492 58.52 167.004 58.52C165.516 58.52 164.444 57.592 164.444 56.264C164.444 54.92 165.516 54.008 167.004 54.008ZM172.732 51.832V66.216H174.044V51.832H172.732ZM162.604 63.064C165.196 63.064 168.668 63.048 171.9 62.44L171.788 61.464C168.652 61.944 165.052 61.96 162.444 61.96L162.604 63.064ZM189.013 57.112C186.741 57.576 184.677 57.72 182.645 57.736V52.616H181.349V58.84H182.469C184.613 58.84 186.773 58.68 189.189 58.2L189.013 57.112ZM192.021 61.736V60.68H182.645V61.736H186.661C186.597 63.352 184.517 64.712 182.101 65.096L182.613 66.104C184.693 65.752 186.549 64.696 187.349 63.256C188.149 64.696 189.989 65.768 192.069 66.12L192.581 65.112C190.197 64.712 188.101 63.32 188.037 61.736H192.021ZM191.781 55.336V51.816H190.469V59.96H191.781V56.424H193.909V55.336H191.781ZM201.844 53.384C204.1 53.384 205.54 54.056 205.54 55.192C205.54 56.328 204.1 56.984 201.844 56.984C199.588 56.984 198.148 56.328 198.148 55.192C198.148 54.056 199.588 53.384 201.844 53.384ZM201.844 58.04C204.916 58.04 206.884 56.984 206.884 55.192C206.884 53.4 204.916 52.328 201.844 52.328C198.772 52.328 196.804 53.4 196.804 55.192C196.804 56.984 198.772 58.04 201.844 58.04ZM198.34 61.704H197.028V65.864H206.9V64.792H198.34V61.704ZM195.348 59.384V60.44H208.324V59.384H195.348ZM216.493 56.488H223.821V59.128H216.493V56.488ZM220.812 63.272V60.184H225.101V52.856H223.821V55.416H216.493V52.856H215.197V60.184H219.485V63.272H213.661V64.344H226.669V63.272H220.812ZM229.931 56.376C229.931 54.968 230.987 53.976 232.395 53.976C233.803 53.976 234.859 54.968 234.859 56.376C234.859 57.784 233.803 58.776 232.395 58.776C230.987 58.776 229.931 57.784 229.931 56.376ZM236.139 56.376C236.139 54.296 234.539 52.84 232.395 52.84C230.251 52.84 228.651 54.296 228.651 56.376C228.651 58.456 230.251 59.912 232.395 59.912C234.539 59.912 236.139 58.456 236.139 56.376ZM231.899 61.32H230.587V65.864H240.155V64.792H231.899V61.32ZM239.515 56.2V51.832H238.203V62.392H239.515V57.288H241.643V56.2H239.515ZM259.028 57.304C256.42 56.92 253.86 55.144 253.86 53.144V52.344H252.484V53.144C252.484 55.192 249.956 56.92 247.348 57.304L247.876 58.36C250.116 57.976 252.276 56.744 253.172 55C254.1 56.728 256.26 57.976 258.484 58.36L259.028 57.304ZM259.652 59.912H246.692V61H252.484V66.2H253.796V61H259.668L259.652 59.912ZM262.675 58.184C264.995 57.832 267.107 56.68 267.891 55.016C268.659 56.68 270.771 57.832 273.107 58.184L273.587 57.128C271.059 56.792 268.739 55.368 268.739 53.624V53.608H273.203V52.552H262.579V53.608H267.043V53.624C267.043 55.368 264.723 56.792 262.179 57.128L262.675 58.184ZM264.339 61.8H263.027V65.864H272.947V64.792H264.339V61.8ZM261.363 59.224V60.28H267.331V63.192H268.643V60.28H274.387V59.224H261.363ZM277.49 65.208C278.066 65.208 278.546 64.76 278.546 64.104C278.546 63.448 278.066 62.968 277.49 62.968C276.914 62.968 276.434 63.448 276.434 64.104C276.434 64.76 276.914 65.208 277.49 65.208ZM281.943 65.208C282.519 65.208 282.999 64.76 282.999 64.104C282.999 63.448 282.519 62.968 281.943 62.968C281.367 62.968 280.887 63.448 280.887 64.104C280.887 64.76 281.367 65.208 281.943 65.208ZM286.396 65.208C286.972 65.208 287.452 64.76 287.452 64.104C287.452 63.448 286.972 62.968 286.396 62.968C285.82 62.968 285.34 63.448 285.34 64.104C285.34 64.76 285.82 65.208 286.396 65.208ZM5.664 104.08H4.368V106.656C4.368 109.264 2.736 112.016 0.672 113.072L1.456 114.128C3.072 113.264 4.4 111.472 5.024 109.376C5.68 111.344 6.976 113.024 8.496 113.84L9.312 112.8C7.296 111.792 5.664 109.184 5.664 106.656V104.08ZM14.256 108.656H11.888V102.848H10.576V117.184H11.888V109.744H14.256V108.656ZM17.5828 104.576H16.2708V113.456H17.1828C18.7348 113.456 20.3828 113.376 22.3188 113.008L22.1908 111.872C20.4788 112.208 18.9588 112.304 17.5828 112.32V104.576ZM26.4788 102.832V108.672H24.4468V103.152H23.2148V116.448H24.4468V109.76H26.4788V117.168H27.7428V102.832H26.4788ZM38.6156 112.288H35.6076V105.536H38.6156V112.288ZM41.9596 108.24H39.8316V104.496H34.3756V113.328H39.8316V109.328H41.9596V116.464H43.2076V103.152H41.9596V108.24ZM44.8076 102.832V117.168H46.0556V102.832H44.8076ZM60.3584 102.832H59.0464V113.36H60.3584V102.832ZM57.2224 109.984C55.0944 109.2 53.6384 107.248 53.6384 105.088V103.632H52.3264V105.088C52.3264 107.328 50.8864 109.408 48.7264 110.24L49.4144 111.312C51.0944 110.608 52.3904 109.216 52.9984 107.472C53.6384 109.104 54.9024 110.4 56.5344 111.024L57.2224 109.984ZM52.4384 115.792V112.384H51.1264V116.864H60.7904V115.792H52.4384ZM68.2611 105.376H71.5251V104.304H63.7011V105.376H66.9491V107.04C66.9491 109.584 65.2371 112.304 63.1891 113.312L63.9571 114.352C65.5891 113.488 66.9811 111.648 67.6051 109.536C68.2611 111.52 69.6371 113.232 71.2371 114.048L72.0211 113.024C69.9411 112.032 68.2611 109.424 68.2611 107.04V105.376ZM73.8131 102.832V108.048H70.7091V109.12H73.8131V117.2H75.1251V102.832H73.8131ZM93.358 102.832H92.046V111.072H93.358V102.832ZM87.774 108.576H83.63V104.8H87.774V108.576ZM89.054 103.76H82.35V109.632H89.054V103.76ZM93.694 113.056V112.048H89.486V110.656H88.158V112.048H83.95V113.056H88.142C88.126 114.48 85.838 115.84 83.39 116.128L83.822 117.136C85.982 116.832 87.966 115.872 88.83 114.512C89.678 115.84 91.598 116.832 93.758 117.136L94.206 116.128C91.742 115.824 89.502 114.432 89.486 113.056H93.694ZM101.815 105.296H107.175V104.208H100.503V113.632H101.639C104.343 113.632 106.231 113.536 108.423 113.12L108.279 112.032C106.199 112.4 104.359 112.512 101.815 112.512V105.296ZM113.303 108.496H110.935V102.832H109.623V117.216H110.935V109.584H113.303V108.496ZM116.166 107.056C116.166 105.712 117.19 104.784 118.63 104.784C120.054 104.784 121.094 105.712 121.094 107.056C121.094 108.4 120.054 109.344 118.63 109.344C117.19 109.344 116.166 108.4 116.166 107.056ZM122.374 107.056C122.374 105.072 120.79 103.696 118.63 103.696C116.454 103.696 114.886 105.072 114.886 107.056C114.886 109.056 116.454 110.448 118.63 110.448C120.79 110.448 122.374 109.056 122.374 107.056ZM121.19 116.128C119.062 116.128 117.766 115.504 117.766 114.48C117.766 113.44 119.062 112.832 121.19 112.832C123.302 112.832 124.598 113.44 124.598 114.48C124.598 115.504 123.302 116.128 121.19 116.128ZM121.19 111.792C118.278 111.792 116.454 112.768 116.454 114.48C116.454 116.176 118.278 117.168 121.19 117.168C124.086 117.168 125.91 116.176 125.91 114.48C125.91 112.768 124.086 111.792 121.19 111.792ZM127.846 106.048V104.976H125.75V102.848H124.438V111.344H125.75V109.12H127.846V108.032H125.75V106.048H127.846ZM137.844 104.592H134.26V102.848H132.948V104.592H129.38V105.648H137.844V104.592ZM131.428 109.104C131.428 108.112 132.292 107.472 133.604 107.472C134.9 107.472 135.796 108.112 135.796 109.104C135.796 110.112 134.9 110.752 133.604 110.752C132.292 110.752 131.428 110.112 131.428 109.104ZM137.044 109.104C137.044 107.504 135.636 106.448 133.604 106.448C131.572 106.448 130.18 107.504 130.18 109.104C130.18 110.72 131.572 111.776 133.604 111.776C135.636 111.776 137.044 110.72 137.044 109.104ZM132.852 112.752H131.54V116.864H141.108V115.792H132.852V112.752ZM140.468 107.568V102.848H139.156V113.6H140.468V108.672H142.596V107.568H140.468ZM155.693 104.272H152.397V102.688H151.085V104.272H147.661V105.328H155.693V104.272ZM149.709 108.624C149.709 107.664 150.525 107.04 151.725 107.04C152.925 107.04 153.741 107.664 153.741 108.624C153.741 109.584 152.925 110.208 151.725 110.208C150.525 110.208 149.709 109.584 149.709 108.624ZM154.973 108.624C154.973 107.072 153.629 106.048 151.725 106.048C149.805 106.048 148.477 107.072 148.477 108.624C148.477 110.176 149.805 111.2 151.725 111.2C153.629 111.2 154.973 110.176 154.973 108.624ZM158.157 115.952H151.453V114.432H158.157V115.952ZM158.157 113.424H151.453V111.952H150.157V116.992H159.453V111.952H158.157V113.424ZM158.125 102.848V106.192H155.709V107.248H158.125V108.976H155.693V110.048H158.125V111.312H159.453V102.848H158.125ZM172.86 115.936H166.284V114.08H172.86V115.936ZM172.86 113.056H166.284V111.248H164.988V116.992H174.172V111.248H172.86V113.056ZM166.268 109.056C164.844 109.056 163.82 108.128 163.82 106.816C163.82 105.504 164.844 104.592 166.268 104.592C167.692 104.592 168.716 105.504 168.716 106.816C168.716 108.128 167.692 109.056 166.268 109.056ZM172.844 102.848V106.256H169.916C169.644 104.592 168.204 103.504 166.268 103.504C164.124 103.504 162.572 104.848 162.572 106.816C162.572 108.8 164.124 110.144 166.268 110.144C168.236 110.144 169.676 109.024 169.932 107.328H172.844V110.544H174.172V102.848H172.844ZM188.523 107.344H180.075V106.112H188.059V105.2H180.075V104.064H188.443V103.12H178.763V108.304H188.523V107.344ZM190.027 110.336V109.344H177.083V110.336H182.891V111.568H178.619V112.528H187.083V113.76H178.667V117.024H188.811V116.048H179.947V114.688H188.379V111.568H184.203V110.336H190.027ZM198.266 104.064C200.618 104.064 201.962 104.608 201.962 105.568C201.962 106.528 200.618 107.072 198.266 107.072C195.914 107.072 194.57 106.528 194.57 105.568C194.57 104.608 195.914 104.064 198.266 104.064ZM198.266 108.048C201.418 108.048 203.306 107.184 203.306 105.568C203.306 103.952 201.418 103.072 198.266 103.072C195.114 103.072 193.226 103.952 193.226 105.568C193.226 107.184 195.114 108.048 198.266 108.048ZM194.666 114.544H203.098V111.312H193.338V112.304H201.802V113.584H193.386V117.024H203.53V116H194.666V114.544ZM191.77 109.024V110.08H204.762V109.024H191.77ZM217.234 114.288V110.608H221.602V109.552H213.042V105.056H221.458V103.984H211.73V110.608H215.906V114.288H210.066V115.376H223.106V114.288H217.234ZM235.265 102.848V110.544H236.577V102.848H235.265ZM227.329 111.248V116.992H236.577V111.248H235.281V113.008H228.625V111.248H227.329ZM228.625 114.032H235.281V115.936H228.625V114.032ZM228.865 103.52C226.705 103.52 225.137 104.864 225.137 106.816C225.137 108.8 226.705 110.128 228.865 110.128C231.041 110.128 232.625 108.8 232.625 106.816C232.625 104.864 231.041 103.52 228.865 103.52ZM228.865 104.608C230.321 104.608 231.345 105.52 231.345 106.816C231.345 108.128 230.321 109.04 228.865 109.04C227.441 109.04 226.417 108.128 226.417 106.816C226.417 105.52 227.441 104.608 228.865 104.608ZM243.728 112.896C242.432 112.896 241.488 111.968 241.488 110.688C241.488 109.392 242.432 108.464 243.728 108.464C245.04 108.464 245.984 109.392 245.984 110.688C245.984 111.968 245.04 112.896 243.728 112.896ZM243.728 107.376C241.712 107.376 240.256 108.752 240.256 110.688C240.256 112.64 241.712 113.984 243.728 113.984C245.776 113.984 247.232 112.64 247.232 110.688C247.232 108.752 245.776 107.376 243.728 107.376ZM244.368 103.008H243.056V105.136H239.44V106.192H247.904V105.136H244.368V103.008ZM252.928 108.736H250.576V102.848H249.264V117.184H250.576V109.84H252.928V108.736ZM260.159 109.744H256.191V105.136H260.159V109.744ZM264.735 106.432V108.432H261.439V106.432H264.735ZM261.439 109.504H264.735V113.312H266.063V102.848H264.735V105.36H261.439V104.096H254.895V110.784H261.439V109.504ZM258.143 115.792V112.384H256.831V116.864H266.399V115.792H258.143ZM273.981 104.064H272.669V106.64C272.669 109.296 271.037 112.064 268.957 113.104L269.757 114.144C271.373 113.28 272.701 111.472 273.325 109.344C273.981 111.36 275.293 113.072 276.925 113.888L277.693 112.848C275.613 111.856 273.981 109.248 273.981 106.64V104.064ZM279.469 102.832V107.696H276.141V108.768H279.469V117.2H280.781V102.832H279.469ZM5.056 138.896C3.76 138.896 2.816 137.968 2.816 136.688C2.816 135.392 3.76 134.464 5.056 134.464C6.368 134.464 7.312 135.392 7.312 136.688C7.312 137.968 6.368 138.896 5.056 138.896ZM5.056 133.376C3.04 133.376 1.584 134.752 1.584 136.688C1.584 138.64 3.04 139.984 5.056 139.984C7.104 139.984 8.56 138.64 8.56 136.688C8.56 134.752 7.104 133.376 5.056 133.376ZM5.696 129.008H4.384V131.136H0.768V132.192H9.232V131.136H5.696V129.008ZM14.256 134.736H11.904V128.848H10.592V143.184H11.904V135.84H14.256V134.736ZM25.9988 128.832V143.216H27.3108V128.832H25.9988ZM19.7428 129.936C17.6148 129.936 16.0948 131.888 16.0948 134.944C16.0948 138 17.6148 139.952 19.7428 139.952C21.8708 139.952 23.3908 138 23.3908 134.944C23.3908 131.888 21.8708 129.936 19.7428 129.936ZM19.7428 131.12C21.1348 131.12 22.1268 132.624 22.1268 134.944C22.1268 137.28 21.1348 138.784 19.7428 138.784C18.3348 138.784 17.3428 137.28 17.3428 134.944C17.3428 132.624 18.3348 131.12 19.7428 131.12ZM30.2855 140.192V141.28H43.2935V140.192H30.2855ZM31.8215 129.872V137.344H41.7255V129.872H40.4455V132.496H33.1175V129.872H31.8215ZM33.1175 133.552H40.4455V136.272H33.1175V133.552ZM47.1483 135.296H52.4443V130.16H45.7883V131.232H51.1163V134.224H45.8363V139.728H47.0203C49.4843 139.728 51.6603 139.632 54.2523 139.2L54.1243 138.128C51.6123 138.528 49.5003 138.64 47.1483 138.64V135.296ZM55.4683 128.816V143.2H56.7803V128.816H55.4683ZM71.227 135.712H62.667V131.232H71.083V130.144H61.371V136.784H71.227V135.712ZM59.707 140.16V141.248H72.731V140.16H59.707ZM82.6439 130.56C84.0359 130.56 85.0119 131.296 85.0119 132.368C85.0119 133.472 84.0359 134.192 82.6439 134.192C81.2519 134.192 80.2759 133.472 80.2759 132.368C80.2759 131.296 81.2519 130.56 82.6439 130.56ZM82.6439 135.2C84.7719 135.2 86.2439 134.064 86.2439 132.368C86.2439 130.688 84.7719 129.552 82.6439 129.552C80.5159 129.552 79.0439 130.688 79.0439 132.368C79.0439 134.064 80.5159 135.2 82.6439 135.2ZM87.4119 135.92C84.2919 136.368 80.6759 136.384 77.9719 136.384L78.1319 137.488C79.2679 137.488 80.5639 137.472 81.9239 137.424V142.752H83.2359V137.36C84.6439 137.28 86.0839 137.136 87.4919 136.912L87.4119 135.92ZM88.4999 128.848V138.64H85.2519V139.664H88.4999V143.2H89.8119V128.848H88.4999ZM93.9226 134.656L94.1146 135.744L102.771 135.264C102.691 136.368 102.531 137.552 102.227 138.928L103.507 139.056C104.131 136.112 104.131 134.176 104.131 132.048V130.288H94.2906V131.36H102.851V132.048C102.851 132.784 102.851 133.52 102.819 134.272L93.9226 134.656ZM92.7546 140.112V141.184H105.731V140.112H92.7546ZM119.292 133.024H115.724V130.288H119.292V133.024ZM114.411 133.024H112.284V134.032H122.716V133.024H120.604V130.288H122.764V129.28H112.236V130.288H114.411V133.024ZM113.916 140.688H122.348V137.536H112.588V138.512H121.052V139.744H112.636V143.024H122.78V142.032H113.916V140.688ZM111.02 135.232V136.272H124.012V135.232H111.02ZM127.498 135.392H131.338V130.416H126.186V131.488H130.074V134.352H126.234V139.664H127.178C129.002 139.664 130.634 139.584 132.634 139.248L132.522 138.176C130.682 138.496 129.13 138.56 127.498 138.56V135.392ZM133.786 133.984H132.01V135.072H133.786V142.432H135.018V129.184H133.786V133.984ZM136.682 128.832V143.184H137.946V128.832H136.682ZM150.905 128.832V143.216H152.217V128.832H150.905ZM144.649 129.936C142.521 129.936 141.001 131.888 141.001 134.944C141.001 138 142.521 139.952 144.649 139.952C146.777 139.952 148.297 138 148.297 134.944C148.297 131.888 146.777 129.936 144.649 129.936ZM144.649 131.12C146.041 131.12 147.033 132.624 147.033 134.944C147.033 137.28 146.041 138.784 144.649 138.784C143.241 138.784 142.249 137.28 142.249 134.944C142.249 132.624 143.241 131.12 144.649 131.12ZM167.56 136.048C165.048 135.568 162.328 133.392 162.328 130.944V129.84H160.952V130.944C160.952 133.392 158.248 135.552 155.736 136.048L156.328 137.136C158.488 136.624 160.728 135.088 161.64 132.992C162.552 135.104 164.792 136.64 166.968 137.136L167.56 136.048ZM155.192 140.176V141.264H168.2V140.176H155.192ZM179.959 131.344H171.575V134.416H181.511V133.472H172.871V132.24H181.255V129.248H171.543V130.176H179.959V131.344ZM172.791 140.72H181.303V137.664H171.463V138.608H180.007V139.808H171.495V142.992H181.751V142.048H172.791V140.72ZM169.911 135.504V136.496H182.919V135.504H169.911ZM201.199 135.936H199.071C199.471 133.872 199.471 132.352 199.471 131.008V129.76H189.839V130.816H198.191V131.008C198.191 132.352 198.191 133.872 197.743 135.936H188.223V137.008H194.015V143.2H195.343V137.008H201.199V135.936ZM204.11 135.248C206.462 135.008 208.558 134.144 209.422 132.704C210.286 134.144 212.366 135.008 214.718 135.248L215.134 134.256C212.414 133.984 210.238 132.88 210.126 131.28H214.574V130.24H210.078V128.752H208.766V130.24H204.27V131.28H208.702C208.59 132.88 206.414 133.984 203.71 134.256L204.11 135.248ZM215.902 137.104V136.048H202.926V137.104H208.766V138.752H204.366V139.792H212.99V143.136H214.302V138.752H210.078V137.104H215.902ZM221.853 138.896C220.557 138.896 219.613 137.968 219.613 136.688C219.613 135.392 220.557 134.464 221.853 134.464C223.165 134.464 224.109 135.392 224.109 136.688C224.109 137.968 223.165 138.896 221.853 138.896ZM221.853 133.376C219.837 133.376 218.381 134.752 218.381 136.688C218.381 138.64 219.837 139.984 221.853 139.984C223.901 139.984 225.357 138.64 225.357 136.688C225.357 134.752 223.901 133.376 221.853 133.376ZM222.493 129.008H221.181V131.136H217.565V132.192H226.029V131.136H222.493V129.008ZM231.053 134.736H228.701V128.848H227.389V143.184H228.701V135.84H231.053V134.736ZM239.468 136.224V133.344H242.876V136.224H239.468ZM238.172 138.512H234.22V131.28H238.172V138.512ZM242.876 128.832V132.272H239.468V130.24H232.94V139.552H239.468V137.296H242.876V143.216H244.188V128.832H242.876ZM261.173 141.936H254.597V140.08H261.173V141.936ZM261.173 139.056H254.597V137.248H253.301V142.992H262.485V137.248H261.173V139.056ZM254.581 135.056C253.157 135.056 252.133 134.128 252.133 132.816C252.133 131.504 253.157 130.592 254.581 130.592C256.005 130.592 257.029 131.504 257.029 132.816C257.029 134.128 256.005 135.056 254.581 135.056ZM261.157 128.848V132.256H258.229C257.957 130.592 256.517 129.504 254.581 129.504C252.437 129.504 250.885 130.848 250.885 132.816C250.885 134.8 252.437 136.144 254.581 136.144C256.549 136.144 257.989 135.024 258.245 133.328H261.157V136.544H262.485V128.848H261.157ZM275.427 134.176H268.307V130.688H275.427V134.176ZM276.723 129.632H267.027V135.216H276.723V129.632ZM278.387 137.168H265.363V138.24H271.187V143.168H272.499V138.24H278.387V137.168ZM292.7 133.76H294.524V137.696H295.788V128.848H294.524V132.688H292.7V129.12H291.452V137.232H292.7V133.76ZM290.86 135.568C289.02 134.864 287.948 133.248 287.948 131.664V129.728H286.684V131.664C286.684 133.264 285.564 135.12 283.692 135.952L284.396 136.976C285.788 136.352 286.812 135.136 287.324 133.792C287.836 135.008 288.812 136.032 290.156 136.576L290.86 135.568ZM291.052 142.16C288.908 142.16 287.564 141.584 287.564 140.592C287.564 139.6 288.908 139.04 291.052 139.04C293.228 139.04 294.556 139.6 294.556 140.592C294.556 141.584 293.228 142.16 291.052 142.16ZM291.052 138.016C288.108 138.016 286.268 138.96 286.268 140.592C286.268 142.224 288.108 143.168 291.052 143.168C294.012 143.168 295.852 142.224 295.852 140.592C295.852 138.96 294.012 138.016 291.052 138.016ZM306.763 136.048C304.651 135.296 303.227 133.472 303.227 131.504V129.696H301.915V131.472C301.915 133.696 300.523 135.616 298.331 136.4L299.019 137.44C300.731 136.8 302.011 135.488 302.603 133.792C303.243 135.296 304.491 136.496 306.107 137.088L306.763 136.048ZM301.947 138.416H300.635V142.864H310.155V141.792H301.947V138.416ZM309.531 133.232V128.816H308.219V139.424H309.531V134.32H311.659V133.232H309.531ZM323.61 137.328H324.938V128.848H323.61V131.888H320.49V132.96H323.61V137.328ZM321.53 135.632C319.434 134.896 318.042 133.12 318.042 131.072V129.648H316.73V131.12C316.73 133.312 315.306 135.232 313.098 136.016L313.786 137.088C315.514 136.432 316.81 135.136 317.418 133.44C318.042 134.928 319.258 136.064 320.826 136.656L321.53 135.632ZM320.202 142.128C318.042 142.128 316.73 141.504 316.73 140.464C316.73 139.408 318.042 138.784 320.202 138.784C322.362 138.784 323.674 139.408 323.674 140.464C323.674 141.504 322.362 142.128 320.202 142.128ZM320.202 137.76C317.258 137.76 315.418 138.736 315.418 140.464C315.418 142.176 317.258 143.168 320.202 143.168C323.146 143.168 324.97 142.176 324.97 140.464C324.97 138.736 323.146 137.76 320.202 137.76ZM334.312 130.384C336.568 130.384 338.008 131.056 338.008 132.192C338.008 133.328 336.568 133.984 334.312 133.984C332.056 133.984 330.616 133.328 330.616 132.192C330.616 131.056 332.056 130.384 334.312 130.384ZM334.312 135.04C337.384 135.04 339.352 133.984 339.352 132.192C339.352 130.4 337.384 129.328 334.312 129.328C331.24 129.328 329.272 130.4 329.272 132.192C329.272 133.984 331.24 135.04 334.312 135.04ZM330.808 138.704H329.496V142.864H339.368V141.792H330.808V138.704ZM327.816 136.384V137.44H340.792V136.384H327.816ZM351.057 138.912H354.193V141.936H351.057V138.912ZM355.489 138.912H357.681V137.856H347.569V138.912H349.761V141.936H347.441V142.992H357.809V141.936H355.489V138.912ZM353.281 135.376V133.552H357.649V132.496H349.201V129.152H347.889V133.552H351.969V135.376H346.145V136.432H359.121V135.376H353.281ZM364.672 138.784C363.28 138.784 362.304 137.28 362.304 134.944C362.304 132.624 363.28 131.12 364.672 131.12C366.048 131.12 367.024 132.624 367.024 134.944C367.024 137.28 366.048 138.784 364.672 138.784ZM364.672 129.936C362.56 129.936 361.056 131.888 361.056 134.944C361.056 138 362.56 139.952 364.672 139.952C366.784 139.952 368.272 138 368.272 134.944C368.272 131.888 366.784 129.936 364.672 129.936ZM374.256 134.56H371.888V128.848H370.576V143.184H371.888V135.664H374.256V134.56ZM383.455 131.552V132.608H386.063V133.92H383.455V134.976H386.063V137.232H387.391V128.832H386.063V131.552H383.455ZM384.031 135.936C381.967 135.2 380.559 133.456 380.559 131.584V130.864H383.695V129.792H376.047V130.864H379.231V131.6C379.231 133.664 377.791 135.488 375.631 136.24L376.319 137.28C378.015 136.672 379.311 135.392 379.919 133.76C380.543 135.216 381.759 136.368 383.375 136.96L384.031 135.936ZM385.839 137.68H384.543V138.416C384.543 139.536 383.871 140.992 382.511 141.856C381.167 141.072 380.511 139.712 380.511 138.416V137.68H379.247V138.416C379.247 139.824 378.175 141.376 376.351 142.048L377.023 143.008C378.367 142.496 379.343 141.488 379.855 140.336C380.287 141.536 381.151 142.592 382.527 143.136C383.871 142.56 384.735 141.456 385.183 140.288C385.663 141.504 386.671 142.496 388.063 143.008L388.719 142.048C386.879 141.408 385.839 139.904 385.839 138.416V137.68ZM395.406 131.392H398.782V130.304H390.766V131.392H394.094V133.216C394.094 135.696 392.35 138.4 390.286 139.376L391.054 140.432C392.686 139.6 394.094 137.792 394.75 135.696C395.438 137.664 396.846 139.312 398.51 140.08L399.246 139.024C397.134 138.128 395.406 135.648 395.406 133.216V131.392ZM400.718 128.848V143.184H402.03V128.848H400.718ZM410.908 135.712H406.876V131.168H410.908V135.712ZM412.188 130.112H405.596V136.752H412.188V130.112ZM408.524 138.352H407.212V142.864H416.78V141.792H408.524V138.352ZM416.14 133.2V128.816H414.828V139.328H416.14V134.304H418.268V133.2H416.14ZM420.075 145.04C421.515 144.432 422.411 143.232 422.411 141.696C422.411 140.624 421.947 139.968 421.179 139.968C420.587 139.968 420.075 140.368 420.075 140.992C420.075 141.664 420.587 142.016 421.147 142.016C421.211 142.016 421.259 142.016 421.323 142C421.307 142.976 420.715 143.744 419.723 144.176L420.075 145.04ZM6.752 159.592H2.72V155.816H6.752V159.592ZM8.032 154.76H1.44V160.632H8.032V154.76ZM3.632 162.472H2.352V167.816H3.04C4.016 167.816 5.36 167.736 6.72 167.288L6.512 166.248C5.52 166.568 4.464 166.696 3.632 166.728V162.472ZM9.808 167.24C8.928 167.24 8.32 166.808 8.32 166.136C8.32 165.48 8.928 165.064 9.808 165.064C10.672 165.064 11.296 165.48 11.296 166.136C11.296 166.808 10.672 167.24 9.808 167.24ZM9.808 164.12C8.256 164.12 7.152 164.904 7.152 166.136C7.152 167.384 8.256 168.168 9.808 168.168C11.36 168.168 12.464 167.384 12.464 166.136C12.464 164.904 11.36 164.12 9.808 164.12ZM10.448 161.352H9.168V162.616H6.192V163.592H13.408V162.616H10.448V161.352ZM11.984 157.048V153.832H10.672V161.144H11.984V158.152H14.112V157.048H11.984ZM22.0468 155.384C24.3028 155.384 25.7428 156.056 25.7428 157.192C25.7428 158.328 24.3028 158.984 22.0468 158.984C19.7908 158.984 18.3508 158.328 18.3508 157.192C18.3508 156.056 19.7908 155.384 22.0468 155.384ZM22.0468 160.04C25.1188 160.04 27.0868 158.984 27.0868 157.192C27.0868 155.4 25.1188 154.328 22.0468 154.328C18.9748 154.328 17.0068 155.4 17.0068 157.192C17.0068 158.984 18.9748 160.04 22.0468 160.04ZM18.5428 163.704H17.2308V167.864H27.1028V166.792H18.5428V163.704ZM15.5508 161.384V162.44H28.5268V161.384H15.5508ZM34.7116 155.384V156.44H40.1036C39.8316 159.848 37.9116 162.6 34.0556 164.44L34.7596 165.512C39.5276 163.176 41.4316 159.528 41.4316 155.384H34.7116ZM44.3276 153.832V168.184H45.6396V153.832H44.3276ZM59.0944 166.936H52.5184V165.08H59.0944V166.936ZM59.0944 164.056H52.5184V162.248H51.2224V167.992H60.4064V162.248H59.0944V164.056ZM52.5024 160.056C51.0784 160.056 50.0544 159.128 50.0544 157.816C50.0544 156.504 51.0784 155.592 52.5024 155.592C53.9264 155.592 54.9504 156.504 54.9504 157.816C54.9504 159.128 53.9264 160.056 52.5024 160.056ZM59.0784 153.848V157.256H56.1504C55.8784 155.592 54.4384 154.504 52.5024 154.504C50.3584 154.504 48.8064 155.848 48.8064 157.816C48.8064 159.8 50.3584 161.144 52.5024 161.144C54.4704 161.144 55.9104 160.024 56.1664 158.328H59.0784V161.544H60.4064V153.848H59.0784ZM78.6393 153.832H77.3273V162.072H78.6393V153.832ZM73.0553 159.576H68.9113V155.8H73.0553V159.576ZM74.3353 154.76H67.6313V160.632H74.3353V154.76ZM78.9753 164.056V163.048H74.7673V161.656H73.4393V163.048H69.2313V164.056H73.4233C73.4073 165.48 71.1193 166.84 68.6713 167.128L69.1033 168.136C71.2633 167.832 73.2473 166.872 74.1112 165.512C74.9593 166.84 76.8793 167.832 79.0393 168.136L79.4873 167.128C77.0233 166.824 74.7833 165.432 74.7673 164.056H78.9753ZM86.0241 155.384V156.44H91.4161C91.1441 159.848 89.2241 162.6 85.3681 164.44L86.0721 165.512C90.8401 163.176 92.7441 159.528 92.7441 155.384H86.0241ZM95.6401 153.832V168.184H96.9521V153.832H95.6401ZM107.431 159.96C107.799 158.072 107.799 156.648 107.799 155.704V154.952H100.663V156.024H106.519C106.519 156.936 106.471 158.168 106.135 159.816L107.431 159.96ZM108.791 160.824C107.335 161.032 105.703 161.144 104.135 161.208V158.152H102.839V161.256C101.751 161.272 100.711 161.288 99.7989 161.288L99.9269 162.36C102.471 162.36 105.911 162.28 108.887 161.784L108.791 160.824ZM103.303 163.656H101.991V167.864H111.527V166.792H103.303V163.656ZM111.063 158.504V153.832H109.751V164.648H111.063V159.592H113.127V158.504H111.063ZM117.862 163.816C116.71 163.816 115.99 162.36 115.99 160.008C115.99 157.704 116.71 156.248 117.862 156.248C118.982 156.248 119.718 157.704 119.718 160.008C119.718 162.36 118.982 163.816 117.862 163.816ZM122.71 159.416H120.902C120.742 156.712 119.59 155.032 117.862 155.032C115.99 155.032 114.79 156.952 114.79 160.008C114.79 163.112 115.99 165.032 117.862 165.032C119.622 165.032 120.79 163.304 120.902 160.488H122.71V167.48H123.958V154.152H122.71V159.416ZM125.558 153.832V168.184H126.806V153.832H125.558ZM134.356 155.064H133.044V157.64C133.044 160.296 131.412 163.064 129.332 164.104L130.132 165.144C131.748 164.28 133.076 162.472 133.7 160.344C134.356 162.36 135.668 164.072 137.3 164.888L138.068 163.848C135.988 162.856 134.356 160.248 134.356 157.64V155.064ZM139.844 153.832V158.696H136.516V159.768H139.844V168.2H141.156V153.832H139.844ZM159.389 153.848H158.077V161.272H159.389V153.848ZM156.317 159.832C154.189 159.128 152.685 157.336 152.685 155.352V154.264H151.373V155.352C151.373 157.432 149.885 159.352 147.725 160.104L148.397 161.128C150.093 160.52 151.421 159.208 152.045 157.56C152.701 159.08 154.013 160.28 155.661 160.856L156.317 159.832ZM151.437 166.984V165.448H159.405V161.992H150.109V163.032H158.109V164.456H150.141V168.024H159.885V166.984H151.437ZM166.556 156.584H169.116V155.512H162.572V156.584H165.292V157.88C165.292 160.52 164.172 163.128 162.172 164.328L162.972 165.304C164.396 164.408 165.436 162.728 165.932 160.76C166.428 162.584 167.42 164.12 168.812 164.952L169.612 163.992C167.628 162.872 166.556 160.376 166.556 157.88V156.584ZM170.396 158.984H168.028V160.056H170.396V167.432H171.644V154.152H170.396V158.984ZM173.276 153.816V168.168H174.54V153.816H173.276ZM184.219 165.336V162.632H188.811V161.576H179.979V159.256H188.475V154.888H178.651V155.96H187.195V158.2H178.683V162.632H182.891V165.336H177.051V166.408H190.091V165.336H184.219ZM200.068 155.592C201.46 155.592 202.452 156.344 202.452 157.464C202.452 158.584 201.46 159.336 200.068 159.336C198.66 159.336 197.668 158.584 197.668 157.464C197.668 156.344 198.66 155.592 200.068 155.592ZM200.068 160.408C202.196 160.408 203.716 159.208 203.716 157.464C203.716 155.704 202.196 154.504 200.068 154.504C197.924 154.504 196.404 155.704 196.404 157.464C196.404 159.208 197.924 160.408 200.068 160.408ZM204.788 161.112C201.636 161.592 198.004 161.624 195.332 161.624L195.508 162.728C196.692 162.728 198.052 162.712 199.476 162.648V167.736H200.788V162.568C202.148 162.488 203.54 162.328 204.9 162.088L204.788 161.112ZM205.828 153.848V168.2H207.14V153.848H205.828ZM211.842 158.136C211.842 156.792 212.898 155.864 214.37 155.864C215.826 155.864 216.882 156.792 216.882 158.136C216.882 159.496 215.826 160.392 214.37 160.392C212.898 160.392 211.842 159.496 211.842 158.136ZM215.026 161.464C216.866 161.224 218.162 159.928 218.162 158.136C218.162 156.12 216.562 154.76 214.37 154.76C212.146 154.76 210.562 156.12 210.562 158.136C210.562 159.928 211.842 161.24 213.714 161.464V163.944C212.37 163.976 211.058 163.992 209.922 163.992L210.098 165.096C212.626 165.096 215.97 165.048 219.01 164.536L218.898 163.576C217.666 163.752 216.338 163.832 215.026 163.896V161.464ZM223.394 159.752H221.122V153.816H219.81V168.184H221.122V160.856H223.394V159.752ZM229.019 154.84V155.896H234.235C234.043 158.12 232.043 159.928 228.427 160.712L228.955 161.768C233.179 160.792 235.691 158.44 235.691 154.84H229.019ZM231.787 165.528H239.419V164.552H231.787V163.128H239.595V162.152H230.475V167.992H239.915V167H231.787V165.528ZM239.515 157.16V153.832H238.203V161.496H239.515V158.248H241.643V157.16H239.515ZM249.578 155.384C251.834 155.384 253.274 156.056 253.274 157.192C253.274 158.328 251.834 158.984 249.578 158.984C247.322 158.984 245.882 158.328 245.882 157.192C245.882 156.056 247.322 155.384 249.578 155.384ZM249.578 160.04C252.65 160.04 254.618 158.984 254.618 157.192C254.618 155.4 252.65 154.328 249.578 154.328C246.506 154.328 244.538 155.4 244.538 157.192C244.538 158.984 246.506 160.04 249.578 160.04ZM246.074 163.704H244.762V167.864H254.634V166.792H246.074V163.704ZM243.082 161.384V162.44H256.058V161.384H243.082ZM265.235 163.784C263.859 163.784 262.899 162.28 262.899 159.944C262.899 157.624 263.859 156.12 265.235 156.12C266.595 156.12 267.555 157.624 267.555 159.944C267.555 162.28 266.595 163.784 265.235 163.784ZM271.907 153.832V159.304H268.787C268.579 156.616 267.171 154.936 265.235 154.936C263.139 154.936 261.651 156.888 261.651 159.944C261.651 163 263.139 164.952 265.235 164.952C267.235 164.952 268.659 163.192 268.787 160.376H271.907V168.216H273.219V153.832H271.907ZM277.938 160.264H282.882V155.128H276.61V156.184H281.586V159.192H276.642V164.856H277.73C279.97 164.856 281.81 164.776 284.066 164.424L283.954 163.336C281.81 163.672 280.05 163.768 277.938 163.768V160.264ZM286.61 153.816V157.096H283.778V158.168H286.61V161.032H283.682V162.104H286.61V168.2H287.922V153.816H286.61ZM297.328 155.128C299.584 155.128 301.008 155.752 301.008 156.808C301.008 157.848 299.584 158.472 297.328 158.472C295.04 158.472 293.616 157.848 293.616 156.808C293.616 155.752 295.04 155.128 297.328 155.128ZM297.328 159.48C300.416 159.48 302.352 158.504 302.352 156.808C302.352 155.096 300.416 154.104 297.328 154.104C294.208 154.104 292.272 155.096 292.272 156.808C292.272 158.504 294.208 159.48 297.328 159.48ZM300.944 166.936H293.712V164.312H300.944V166.936ZM303.808 161.64V160.584H290.832V161.64H296.672V163.272H292.432V167.992H302.224V163.272H297.984V161.64H303.808ZM316.991 157.608H308.591V155.368H316.847V154.312H307.279V158.664H316.991V157.608ZM308.431 165.512H316.863V162.136H307.103V163.16H315.567V164.536H307.151V168.008H317.295V166.984H308.431V165.512ZM305.551 159.816V160.888H318.543V159.816H305.551ZM326.75 155.064C329.102 155.064 330.446 155.608 330.446 156.568C330.446 157.528 329.102 158.072 326.75 158.072C324.398 158.072 323.054 157.528 323.054 156.568C323.054 155.608 324.398 155.064 326.75 155.064ZM326.75 159.048C329.902 159.048 331.79 158.184 331.79 156.568C331.79 154.952 329.902 154.072 326.75 154.072C323.598 154.072 321.71 154.952 321.71 156.568C321.71 158.184 323.598 159.048 326.75 159.048ZM323.15 165.544H331.582V162.312H321.822V163.304H330.286V164.584H321.87V168.024H332.014V167H323.15V165.544ZM320.254 160.024V161.08H333.246V160.024H320.254ZM340.439 163.928H343.815V168.184H345.127V162.856H340.439V163.928ZM345.799 163.928H349.063V168.184H350.391V162.856H345.799V163.928ZM349.063 153.832V156.328H345.895C346.007 155.816 346.071 155.288 346.071 154.744H339.511V155.816H344.663C344.407 158.248 342.215 160.152 338.775 161.08L339.319 162.136C342.375 161.288 344.583 159.656 345.543 157.384H349.063V159.384H345.319V160.456H349.063V162.168H350.391V153.832H349.063ZM363.414 156.696C363.414 158.424 363.414 160.44 362.87 163.192L364.182 163.336C364.726 160.44 364.726 158.472 364.726 156.696V155.272H354.662V156.344H363.414V156.696ZM359.654 165.096V159.96H358.342V165.096H353.302V166.168H366.278V165.096H359.654ZM383.358 153.848H382.046V162.04H383.358V153.848ZM375.646 155.768C377.07 155.768 378.126 156.712 378.126 158.024C378.126 159.352 377.07 160.28 375.646 160.28C374.222 160.28 373.198 159.352 373.198 158.024C373.198 156.712 374.222 155.768 375.646 155.768ZM375.646 161.368C377.822 161.368 379.406 160.008 379.406 158.024C379.406 156.04 377.822 154.68 375.646 154.68C373.486 154.68 371.918 156.04 371.918 158.024C371.918 160.008 373.486 161.368 375.646 161.368ZM381.758 162.664H380.478V163.432C380.478 164.552 379.79 165.992 378.414 166.84C377.086 166.056 376.43 164.696 376.43 163.432V162.664H375.166V163.432C375.166 164.808 374.094 166.36 372.286 167L372.942 167.992C374.286 167.48 375.262 166.488 375.774 165.336C376.206 166.536 377.07 167.576 378.446 168.12C379.774 167.544 380.654 166.456 381.102 165.288C381.582 166.488 382.574 167.48 383.982 167.992L384.638 167C382.814 166.392 381.758 164.92 381.758 163.432V162.664ZM398.541 158.312C395.997 157.992 393.469 156.408 393.469 154.632V153.992H392.125V154.632C392.125 156.456 389.613 157.992 387.037 158.312L387.517 159.368C389.757 159.016 391.901 157.896 392.797 156.296C393.709 157.896 395.837 159.016 398.061 159.368L398.541 158.312ZM396.285 166.936H389.229V165.112H396.285V166.936ZM396.285 164.104H389.229V162.424H387.933V167.992H397.581V162.424H396.285V164.104ZM386.285 160.376V161.432H399.277V160.376H386.285ZM403.228 155.224H401.916V164.472H403.1C405.388 164.472 407.644 164.312 410.14 163.8L409.996 162.68C407.612 163.16 405.388 163.352 403.228 163.352V155.224ZM411.468 153.832V168.168H412.78V153.832H411.468ZM417.659 156.296H423.019V155.208H416.347V164.632H417.483C420.187 164.632 422.075 164.536 424.267 164.12L424.123 163.032C422.043 163.4 420.203 163.512 417.659 163.512V156.296ZM429.147 159.496H426.779V153.832H425.467V168.216H426.779V160.584H429.147V159.496ZM431.833 167.208C432.409 167.208 432.889 166.76 432.889 166.104C432.889 165.448 432.409 164.968 431.833 164.968C431.257 164.968 430.777 165.448 430.777 166.104C430.777 166.76 431.257 167.208 431.833 167.208ZM11.28 204.832V219.216H12.592V204.832H11.28ZM5.024 205.936C2.896 205.936 1.376 207.888 1.376 210.944C1.376 214 2.896 215.952 5.024 215.952C7.152 215.952 8.672 214 8.672 210.944C8.672 207.888 7.152 205.936 5.024 205.936ZM5.024 207.12C6.416 207.12 7.408 208.624 7.408 210.944C7.408 213.28 6.416 214.784 5.024 214.784C3.616 214.784 2.624 213.28 2.624 210.944C2.624 208.624 3.616 207.12 5.024 207.12ZM19.7748 207.584H22.3348V206.512H15.7908V207.584H18.5108V208.88C18.5108 211.52 17.3908 214.128 15.3908 215.328L16.1908 216.304C17.6148 215.408 18.6548 213.728 19.1508 211.76C19.6468 213.584 20.6388 215.12 22.0308 215.952L22.8308 214.992C20.8468 213.872 19.7748 211.376 19.7748 208.88V207.584ZM23.6148 209.984H21.2468V211.056H23.6148V218.432H24.8628V205.152H23.6148V209.984ZM26.4948 204.816V219.168H27.7588V204.816H26.4948ZM44.3756 217.936H37.7996V216.08H44.3756V217.936ZM44.3756 215.056H37.7996V213.248H36.5036V218.992H45.6876V213.248H44.3756V215.056ZM37.7836 211.056C36.3596 211.056 35.3356 210.128 35.3356 208.816C35.3356 207.504 36.3596 206.592 37.7836 206.592C39.2076 206.592 40.2316 207.504 40.2316 208.816C40.2316 210.128 39.2076 211.056 37.7836 211.056ZM44.3596 204.848V208.256H41.4316C41.1596 206.592 39.7196 205.504 37.7836 205.504C35.6396 205.504 34.0876 206.848 34.0876 208.816C34.0876 210.8 35.6396 212.144 37.7836 212.144C39.7516 212.144 41.1916 211.024 41.4476 209.328H44.3596V212.544H45.6876V204.848H44.3596ZM58.6304 210.176H51.5104V206.688H58.6304V210.176ZM59.9264 205.632H50.2304V211.216H59.9264V205.632ZM61.5904 213.168H48.5664V214.24H54.3904V219.168H55.7024V214.24H61.5904V213.168ZM75.9033 209.76H77.7273V213.696H78.9913V204.848H77.7273V208.688H75.9033V205.12H74.6553V213.232H75.9033V209.76ZM74.0633 211.568C72.2233 210.864 71.1513 209.248 71.1513 207.664V205.728H69.8873V207.664C69.8873 209.264 68.7673 211.12 66.8953 211.952L67.5993 212.976C68.9913 212.352 70.0153 211.136 70.5273 209.792C71.0393 211.008 72.0153 212.032 73.3593 212.576L74.0633 211.568ZM74.2552 218.16C72.1113 218.16 70.7673 217.584 70.7673 216.592C70.7673 215.6 72.1113 215.04 74.2552 215.04C76.4313 215.04 77.7593 215.6 77.7593 216.592C77.7593 217.584 76.4313 218.16 74.2552 218.16ZM74.2552 214.016C71.3113 214.016 69.4713 214.96 69.4713 216.592C69.4713 218.224 71.3113 219.168 74.2552 219.168C77.2153 219.168 79.0553 218.224 79.0553 216.592C79.0553 214.96 77.2153 214.016 74.2552 214.016ZM89.966 212.048C87.854 211.296 86.43 209.472 86.43 207.504V205.696H85.118V207.472C85.118 209.696 83.726 211.616 81.534 212.4L82.222 213.44C83.934 212.8 85.214 211.488 85.806 209.792C86.446 211.296 87.694 212.496 89.31 213.088L89.966 212.048ZM85.15 214.416H83.838V218.864H93.358V217.792H85.15V214.416ZM92.734 209.232V204.816H91.422V215.424H92.734V210.32H94.862V209.232H92.734ZM106.813 213.328H108.141V204.848H106.813V207.888H103.693V208.96H106.813V213.328ZM104.733 211.632C102.637 210.896 101.245 209.12 101.245 207.072V205.648H99.9328V207.12C99.9328 209.312 98.5088 211.232 96.3008 212.016L96.9888 213.088C98.7168 212.432 100.013 211.136 100.621 209.44C101.245 210.928 102.461 212.064 104.029 212.656L104.733 211.632ZM103.405 218.128C101.245 218.128 99.9328 217.504 99.9328 216.464C99.9328 215.408 101.245 214.784 103.405 214.784C105.565 214.784 106.877 215.408 106.877 216.464C106.877 217.504 105.565 218.128 103.405 218.128ZM103.405 213.76C100.461 213.76 98.6208 214.736 98.6208 216.464C98.6208 218.176 100.461 219.168 103.405 219.168C106.349 219.168 108.173 218.176 108.173 216.464C108.173 214.736 106.349 213.76 103.405 213.76ZM117.516 206.064C119.868 206.064 121.212 206.608 121.212 207.568C121.212 208.528 119.868 209.072 117.516 209.072C115.164 209.072 113.82 208.528 113.82 207.568C113.82 206.608 115.164 206.064 117.516 206.064ZM117.516 210.048C120.668 210.048 122.556 209.184 122.556 207.568C122.556 205.952 120.668 205.072 117.516 205.072C114.364 205.072 112.476 205.952 112.476 207.568C112.476 209.184 114.364 210.048 117.516 210.048ZM113.916 216.544H122.348V213.312H112.588V214.304H121.052V215.584H112.636V219.024H122.78V218H113.916V216.544ZM111.02 211.024V212.08H124.012V211.024H111.02ZM134.26 214.912H137.396V217.936H134.26V214.912ZM138.692 214.912H140.884V213.856H130.772V214.912H132.964V217.936H130.644V218.992H141.012V217.936H138.692V214.912ZM136.484 211.376V209.552H140.852V208.496H132.404V205.152H131.092V209.552H135.172V211.376H129.348V212.432H142.324V211.376H136.484ZM154.483 204.832V219.216H155.795V204.832H154.483ZM148.227 205.936C146.099 205.936 144.579 207.888 144.579 210.944C144.579 214 146.099 215.952 148.227 215.952C150.355 215.952 151.875 214 151.875 210.944C151.875 207.888 150.355 205.936 148.227 205.936ZM148.227 207.12C149.619 207.12 150.611 208.624 150.611 210.944C150.611 213.28 149.619 214.784 148.227 214.784C146.819 214.784 145.827 213.28 145.827 210.944C145.827 208.624 146.819 207.12 148.227 207.12ZM164.69 211.744H160.722V207.136H164.69V211.744ZM169.266 208.432V210.432H165.97V208.432H169.266ZM165.97 211.504H169.266V215.312H170.594V204.848H169.266V207.36H165.97V206.096H159.426V212.784H165.97V211.504ZM162.674 217.792V214.384H161.362V218.864H170.93V217.792H162.674ZM178.513 206.064H177.201V208.64C177.201 211.296 175.569 214.064 173.489 215.104L174.289 216.144C175.905 215.28 177.233 213.472 177.857 211.344C178.513 213.36 179.825 215.072 181.457 215.888L182.225 214.848C180.145 213.856 178.513 211.248 178.513 208.64V206.064ZM184.001 204.832V209.696H180.673V210.768H184.001V219.2H185.313V204.832H184.001ZM195.359 216.288V212.608H199.727V211.552H191.167V207.056H199.583V205.984H189.855V212.608H194.031V216.288H188.191V217.376H201.231V216.288H195.359ZM5.552 232.592C6.944 232.592 7.936 233.344 7.936 234.464C7.936 235.584 6.944 236.336 5.552 236.336C4.144 236.336 3.152 235.584 3.152 234.464C3.152 233.344 4.144 232.592 5.552 232.592ZM5.552 237.408C7.68 237.408 9.2 236.208 9.2 234.464C9.2 232.704 7.68 231.504 5.552 231.504C3.408 231.504 1.888 232.704 1.888 234.464C1.888 236.208 3.408 237.408 5.552 237.408ZM10.272 238.112C7.12 238.592 3.488 238.624 0.816 238.624L0.992 239.728C2.176 239.728 3.536 239.712 4.96 239.648V244.736H6.272V239.568C7.632 239.488 9.024 239.328 10.384 239.088L10.272 238.112ZM11.312 230.848V245.2H12.624V230.848H11.312ZM17.3268 235.136C17.3268 233.792 18.3828 232.864 19.8548 232.864C21.3108 232.864 22.3668 233.792 22.3668 235.136C22.3668 236.496 21.3108 237.392 19.8548 237.392C18.3828 237.392 17.3268 236.496 17.3268 235.136ZM20.5108 238.464C22.3508 238.224 23.6468 236.928 23.6468 235.136C23.6468 233.12 22.0468 231.76 19.8548 231.76C17.6308 231.76 16.0468 233.12 16.0468 235.136C16.0468 236.928 17.3268 238.24 19.1988 238.464V240.944C17.8548 240.976 16.5428 240.992 15.4068 240.992L15.5828 242.096C18.1108 242.096 21.4548 242.048 24.4948 241.536L24.3828 240.576C23.1508 240.752 21.8228 240.832 20.5108 240.896V238.464ZM28.8788 236.752H26.6068V230.816H25.2948V245.184H26.6068V237.856H28.8788V236.752ZM34.5036 231.84V232.896H39.7196C39.5276 235.12 37.5276 236.928 33.9116 237.712L34.4396 238.768C38.6636 237.792 41.1756 235.44 41.1756 231.84H34.5036ZM37.2716 242.528H44.9036V241.552H37.2716V240.128H45.0796V239.152H35.9596V244.992H45.3996V244H37.2716V242.528ZM44.9996 234.16V230.832H43.6876V238.496H44.9996V235.248H47.1276V234.16H44.9996ZM55.0624 232.384C57.3184 232.384 58.7584 233.056 58.7584 234.192C58.7584 235.328 57.3184 235.984 55.0624 235.984C52.8064 235.984 51.3664 235.328 51.3664 234.192C51.3664 233.056 52.8064 232.384 55.0624 232.384ZM55.0624 237.04C58.1344 237.04 60.1024 235.984 60.1024 234.192C60.1024 232.4 58.1344 231.328 55.0624 231.328C51.9904 231.328 50.0224 232.4 50.0224 234.192C50.0224 235.984 51.9904 237.04 55.0624 237.04ZM51.5584 240.704H50.2464V244.864H60.1184V243.792H51.5584V240.704ZM48.5664 238.384V239.44H61.5424V238.384H48.5664ZM76.8953 235.488H69.8233V232.56H76.8953V235.488ZM78.1913 231.504H68.5433V236.544H78.1913V231.504ZM69.8233 240.768H68.5113V244.864H78.4313V243.792H69.8233V240.768ZM66.8473 238.176V239.232H72.8153V242.128H74.1273V239.232H79.8873V238.176H66.8473ZM85.806 233.584H88.366V232.512H81.822V233.584H84.542V234.88C84.542 237.52 83.422 240.128 81.422 241.328L82.222 242.304C83.646 241.408 84.686 239.728 85.182 237.76C85.678 239.584 86.67 241.12 88.062 241.952L88.862 240.992C86.878 239.872 85.806 237.376 85.806 234.88V233.584ZM89.646 235.984H87.278V237.056H89.646V244.432H90.894V231.152H89.646V235.984ZM92.526 230.816V245.168H93.79V230.816H92.526ZM107.757 234.608H99.3568V232.368H107.613V231.312H98.0448V235.664H107.757V234.608ZM99.1968 242.512H107.629V239.136H97.8688V240.16H106.333V241.536H97.9168V245.008H108.061V243.984H99.1968V242.512ZM96.3168 236.816V237.888H109.309V236.816H96.3168ZM117.516 232.064C119.868 232.064 121.212 232.608 121.212 233.568C121.212 234.528 119.868 235.072 117.516 235.072C115.164 235.072 113.82 234.528 113.82 233.568C113.82 232.608 115.164 232.064 117.516 232.064ZM117.516 236.048C120.668 236.048 122.556 235.184 122.556 233.568C122.556 231.952 120.668 231.072 117.516 231.072C114.364 231.072 112.476 231.952 112.476 233.568C112.476 235.184 114.364 236.048 117.516 236.048ZM113.916 242.544H122.348V239.312H112.588V240.304H121.052V241.584H112.636V245.024H122.78V244H113.916V242.544ZM111.02 237.024V238.08H124.012V237.024H111.02ZM132.884 240.768C131.764 240.768 130.98 239.856 130.98 238.576C130.98 237.328 131.764 236.416 132.884 236.416C133.988 236.416 134.788 237.328 134.788 238.576C134.788 239.856 133.988 240.768 132.884 240.768ZM132.884 235.312C131.108 235.312 129.812 236.656 129.812 238.576C129.812 240.528 131.108 241.856 132.884 241.856C134.66 241.856 135.956 240.528 135.956 238.576C135.956 236.656 134.66 235.312 132.884 235.312ZM133.524 231.248H132.228V233.28H129.316V234.352H136.436V233.28H133.524V231.248ZM140.228 230.816V236.88H138.388V231.152H137.156V244.48H138.388V237.952H140.228V245.168H141.492V230.816H140.228ZM154.547 233.936V235.648H150.803V236.672H154.547V238.16H155.875V230.832H154.547V232.912H151.299C151.395 232.464 151.443 232.016 151.443 231.536H145.027V232.608H150.019C149.779 234.88 147.779 236.592 144.275 237.408L144.755 238.48C147.923 237.728 150.115 236.192 151.011 233.936H154.547ZM147.955 244V242.336H155.875V238.816H146.627V239.872H154.563V241.344H146.659V245.04H156.355V244H147.955ZM162.978 240.896C161.682 240.896 160.738 239.968 160.738 238.688C160.738 237.392 161.682 236.464 162.978 236.464C164.29 236.464 165.234 237.392 165.234 238.688C165.234 239.968 164.29 240.896 162.978 240.896ZM162.978 235.376C160.962 235.376 159.506 236.752 159.506 238.688C159.506 240.64 160.962 241.984 162.978 241.984C165.026 241.984 166.482 240.64 166.482 238.688C166.482 236.752 165.026 235.376 162.978 235.376ZM163.618 231.008H162.306V233.136H158.69V234.192H167.154V233.136H163.618V231.008ZM172.178 236.736H169.826V230.848H168.514V245.184H169.826V237.84H172.178V236.736ZM184.993 235.152H176.545V231.36H175.233V236.224H184.993V235.152ZM176.449 240.64H175.137V244.832H185.073V243.76H176.449V240.64ZM173.473 238.144V239.2H186.481V238.144H173.473ZM196.954 234.72H199.882V233.04H196.97V230.992H194.858V233.04H191.866V234.72H194.858V235.232C194.858 237.44 193.754 239.936 191.37 241.04L192.506 242.656C194.154 241.92 195.29 240.432 195.93 238.672C196.538 240.304 197.61 241.68 199.178 242.4L200.298 240.8C197.994 239.696 196.954 237.312 196.954 235.232V234.72ZM205.306 236.368H203.162V230.656H201.05V245.376H203.162V238.112H205.306V236.368ZM211.048 231.92H209.016V234.4C209.016 236.912 208.232 239.552 206.072 240.864L207.336 242.448C208.664 241.648 209.528 240.24 210.04 238.608C210.504 240.096 211.288 241.344 212.536 242.112L213.688 240.48C211.688 239.152 211.048 236.704 211.048 234.32V231.92ZM213.992 235.616H212.152V237.328H213.992V244.72H215.96V230.88H213.992V235.616ZM216.984 230.64V245.376H218.984V230.64H216.984ZM223.559 234.048H226.935V232.336H221.479V242.064H222.503C224.391 242.064 225.959 242 227.751 241.664L227.591 239.952C226.183 240.208 224.935 240.288 223.559 240.32V234.048ZM231.703 230.624V236.304H230.375V230.912H228.407V244.688H230.375V238H231.703V245.376H233.703V230.624H231.703ZM241.791 233.808H243.679V240.048H241.791V233.808ZM239.823 241.696H245.631V232.144H239.823V241.696ZM250.047 230.624V236.256H248.815V230.864H246.847V244.704H248.815V237.952H250.047V245.36H252.047V230.624H250.047ZM266.366 230.656H264.238V241.392H266.366V230.656ZM263.15 237.488C260.75 236.72 259.726 234.832 259.726 232.896V231.456H257.582V232.896C257.582 234.848 256.526 236.912 254.078 237.744L255.15 239.424C256.862 238.832 258.014 237.632 258.686 236.144C259.326 237.52 260.446 238.608 262.078 239.168L263.15 237.488ZM258.67 243.44V240.368H256.558V245.12H266.734V243.44H258.67ZM274.38 233.76H277.404V232.048H269.228V233.76H272.252V234.272C272.252 237.008 271.084 239.84 268.62 240.992L269.868 242.656C271.564 241.808 272.716 240.176 273.34 238.192C273.98 240.032 275.116 241.552 276.78 242.368L277.996 240.704C275.548 239.584 274.38 236.864 274.38 234.272V233.76ZM279.1 230.624V235.776H276.508V237.488H279.1V245.408H281.212V230.624H279.1ZM284.491 232.368V233.456H289.755C289.451 236.848 287.483 239.6 283.819 241.44L284.539 242.464C289.179 240.144 291.051 236.448 291.051 232.368H284.491ZM297.067 236.656H294.763V230.832H293.451V245.184H294.763V237.744H297.067V236.656ZM313.812 230.832H312.5V238.288H313.812V230.832ZM305.348 232.832H307.684V236.56C306.9 236.608 306.116 236.64 305.348 236.656V232.832ZM311.06 236.288C310.372 236.368 309.668 236.448 308.948 236.496V232.832H310.356V231.792H302.66V232.832H304.068V236.688C303.444 236.704 302.836 236.704 302.276 236.704L302.404 237.792C304.932 237.776 308.276 237.68 311.124 237.248L311.06 236.288ZM305.78 243.984V242.416H313.812V238.976H304.436V240H312.516V241.44H304.484V245.024H314.356V243.984H305.78ZM321.235 238.88C321.827 239.024 322.515 239.104 323.219 239.104C323.939 239.104 324.627 239.024 325.235 238.88V242.256H321.235V238.88ZM323.219 232.768C325.523 232.768 327.187 233.824 327.187 235.424C327.187 237.024 325.523 238.08 323.219 238.08C320.915 238.08 319.267 237.024 319.267 235.424C319.267 233.824 320.915 232.768 323.219 232.768ZM326.547 242.256V238.368C327.731 237.744 328.435 236.72 328.435 235.424C328.435 233.184 326.275 231.744 323.219 231.744C320.179 231.744 318.003 233.184 318.003 235.424C318.003 236.72 318.723 237.76 319.923 238.384V242.256H316.723V243.344H329.763V242.256H326.547ZM339.969 232.304H336.385V230.688H335.073V232.304H331.505V233.36H339.969V232.304ZM333.553 236.544C333.553 235.616 334.417 235.024 335.729 235.024C337.041 235.024 337.921 235.616 337.921 236.544C337.921 237.488 337.041 238.064 335.729 238.064C334.417 238.064 333.553 237.488 333.553 236.544ZM339.169 236.544C339.169 235.024 337.777 234.048 335.729 234.048C333.681 234.048 332.305 235.024 332.305 236.544C332.305 238.08 333.681 239.056 335.729 239.056C337.777 239.056 339.169 238.08 339.169 236.544ZM341.297 243.936H334.865V242.352H341.297V243.936ZM341.297 241.328H334.865V239.808H333.569V244.992H342.593V239.808H341.297V241.328ZM344.721 234.48H342.593V230.832H341.281V239.168H342.593V235.584H344.721V234.48ZM348.384 232.224H347.072V241.472H348.256C350.544 241.472 352.8 241.312 355.296 240.8L355.152 239.68C352.768 240.16 350.544 240.352 348.384 240.352V232.224ZM356.624 230.832V245.168H357.936V230.832H356.624ZM362.815 233.296H368.175V232.208H361.503V241.632H362.639C365.343 241.632 367.231 241.536 369.423 241.12L369.279 240.032C367.199 240.4 365.359 240.512 362.815 240.512V233.296ZM374.303 236.496H371.935V230.832H370.623V245.216H371.935V237.584H374.303V236.496ZM376.99 244.208C377.566 244.208 378.046 243.76 378.046 243.104C378.046 242.448 377.566 241.968 376.99 241.968C376.414 241.968 375.934 242.448 375.934 243.104C375.934 243.76 376.414 244.208 376.99 244.208Z" fill="#5A5C61"/>
</svg>
