<svg width="1236" height="333" viewBox="0 0 1236 333" fill="none" xmlns="http://www.w3.org/2000/svg">
<ellipse cx="472.924" cy="324.415" rx="3.14939" ry="9.13323" transform="rotate(48.4442 472.924 324.415)" fill="#D8F2FF"/>
<ellipse cx="75.1878" cy="235.015" rx="3.14939" ry="9.13322" transform="rotate(-52.9678 75.1878 235.015)" fill="#D8F2FF"/>
<ellipse cx="1145.23" cy="126.809" rx="5" ry="14.5" transform="rotate(-115.786 1145.23 126.809)" fill="#C4C4C4"/>
<ellipse cx="894.051" cy="25.4809" rx="3.42545" ry="9.9338" transform="rotate(-156.879 894.051 25.4809)" fill="#C4C4C4"/>
<ellipse cx="176.613" cy="206.339" rx="5" ry="14.5" transform="rotate(-88.6561 176.613 206.339)" fill="#FFDED3"/>
<ellipse cx="368.574" cy="288.668" rx="10.7398" ry="16.3803" transform="rotate(-121.172 368.574 288.668)" fill="#FFDED3"/>
<ellipse opacity="0.3" cx="921.756" cy="290.694" rx="8.17239" ry="12.4645" transform="rotate(-64.8569 921.756 290.694)" fill="#25C16F"/>
<ellipse opacity="0.3" cx="326.756" cy="68.6944" rx="8.17239" ry="12.4645" transform="rotate(-46.9139 326.756 68.6944)" fill="#25C16F"/>
<ellipse opacity="0.3" cx="14.7558" cy="311.694" rx="8.17239" ry="12.4645" transform="rotate(-64.8569 14.7558 311.694)" fill="#25C16F"/>
<ellipse opacity="0.3" cx="1210.41" cy="297.606" rx="14.1274" ry="21.547" transform="rotate(-66.2646 1210.41 297.606)" fill="#9BDBFC"/>
<ellipse opacity="0.4" cx="86.5958" cy="22.295" rx="14.1274" ry="21.547" transform="rotate(116.669 86.5958 22.295)" fill="#66BBE7"/>
</svg>
