<svg width="287" height="30" viewBox="0 0 287 30" fill="none" xmlns="http://www.w3.org/2000/svg">
<g clip-path="url(#clip0_755_22380)">
<path d="M0 0.913452H13.4435V4.99445H4.9945V10.0205H12.8905V14.0665H4.9945V22.9075H0V0.913452Z" fill="#2183B9"/>
<path d="M23.3627 22.9075L23.0687 21.3115H22.9707C21.9207 22.582 20.2967 23.268 18.4207 23.268C15.1902 23.268 13.2652 20.9195 13.2652 18.368C13.2477 14.2275 16.9682 12.25 22.6102 12.271V12.04C22.6102 11.193 22.1552 9.98551 19.7087 9.98551C18.1598 10.0042 16.642 10.4225 15.3022 11.2L14.3887 8.00101C16.3109 7.0354 18.4401 6.55475 20.5907 6.60101C25.9072 6.60101 27.5907 9.75101 27.5907 13.489V19.026C27.5655 20.3238 27.6416 21.6216 27.8182 22.9075H23.3627ZM22.7747 15.372C20.1637 15.337 18.1407 15.96 18.1407 17.885C18.1407 19.1555 18.9912 19.775 20.1007 19.775C20.6673 19.7786 21.2208 19.6042 21.6829 19.2764C22.1451 18.9486 22.4927 18.4839 22.6767 17.948C22.7438 17.6707 22.7767 17.3863 22.7747 17.101V15.372Z" fill="#2183B9"/>
<path d="M30.0162 18.5675C31.331 19.2973 32.7978 19.7108 34.3002 19.775C35.7982 19.775 36.4212 19.2535 36.4212 18.438C36.4212 17.6225 35.9312 17.2305 34.0692 16.611C30.7757 15.5015 29.5192 13.706 29.5192 11.8125C29.5192 8.84446 32.0637 6.59046 36.0152 6.59046C37.5643 6.56633 39.1 6.87922 40.5162 7.50746L39.6377 10.9305C38.5689 10.3657 37.3845 10.0543 36.1762 10.0205C34.9687 10.0205 34.2862 10.507 34.2862 11.326C34.2862 12.075 34.9057 12.467 36.8622 13.153C39.8967 14.203 41.1707 15.729 41.2022 18.081C41.2022 21.049 38.8537 23.2365 34.2862 23.2365C32.1862 23.2365 30.3347 22.778 29.1272 22.127L30.0162 18.5675Z" fill="#2183B9"/>
<path d="M58.5024 14.749C58.5024 20.594 54.3584 23.268 50.0814 23.268C45.4159 23.268 41.8284 20.1985 41.8284 15.043C41.8284 9.88753 45.2199 6.59053 50.3439 6.59053C55.2404 6.59053 58.5024 9.95403 58.5024 14.749ZM46.9524 14.9135C46.9524 17.654 48.0934 19.712 50.2144 19.712C52.1394 19.712 53.3644 17.787 53.3644 14.9135C53.3644 12.53 52.4509 10.115 50.2144 10.115C47.8309 10.115 46.9524 12.565 46.9524 14.9135Z" fill="#2183B9"/>
<path d="M75.9498 14.749C75.9498 20.594 71.8058 23.268 67.5323 23.268C62.8633 23.268 59.2758 20.1985 59.2758 15.043C59.2758 9.88753 62.6673 6.59053 67.7913 6.59053C72.6948 6.59053 75.9498 9.95403 75.9498 14.749ZM64.3998 14.9135C64.3998 17.654 65.5408 19.712 67.6618 19.712C69.5868 19.712 70.8118 17.787 70.8118 14.9135C70.8118 12.53 69.8983 10.115 67.6618 10.115C65.2853 10.115 64.3998 12.565 64.3998 14.9135Z" fill="#2183B9"/>
<path d="M95.9244 13.608H87.8289V18.83H96.8694V22.9075H82.8379V0.913452H96.4144V4.99445H87.8289V9.56195H95.9244V13.608Z" fill="#EC9519"/>
<path d="M98.6264 12.04C98.6264 10.052 98.5634 8.35449 98.4969 6.95099H102.805L103.033 9.13849H103.131C103.677 8.33858 104.413 7.68692 105.273 7.24215C106.133 6.79738 107.091 6.57344 108.059 6.59049C111.321 6.59049 113.771 8.74649 113.771 13.4435V22.8935H108.811V14.0665C108.811 12.0085 108.09 10.605 106.298 10.605C105.736 10.6089 105.189 10.7913 104.737 11.1259C104.285 11.4606 103.95 11.9301 103.782 12.467C103.642 12.8647 103.577 13.2847 103.589 13.706V22.9075H98.6264V12.04Z" fill="#EC9519"/>
<path d="M121.632 2.38352V6.95102H125.188V10.605H121.632V16.3835C121.632 18.3085 122.087 19.1835 123.589 19.1835C124.082 19.1846 124.574 19.1401 125.059 19.0505L125.09 22.8025C124.045 23.1266 122.953 23.2709 121.86 23.2295C120.26 23.2295 118.923 22.673 118.139 21.8575C117.226 20.9125 116.771 19.376 116.771 17.1255V10.605H114.646V6.95102H116.771V3.50002L121.632 2.38352Z" fill="#EC9519"/>
<path d="M130.245 16.5129C130.406 18.5674 132.429 19.5474 134.746 19.5474C136.24 19.5668 137.728 19.3482 139.153 18.8999L139.807 22.2599C137.959 22.9438 135.999 23.2761 134.029 23.2399C128.611 23.2399 125.513 20.0899 125.513 15.1129C125.513 11.0669 128.023 6.59395 133.563 6.59395C138.729 6.59045 140.7 10.6049 140.7 14.5564C140.699 15.2119 140.645 15.8662 140.539 16.5129H130.245ZM136.087 13.1179C136.087 11.9104 135.562 9.88745 133.287 9.88745C131.187 9.88745 130.35 11.7809 130.217 13.1179H136.087Z" fill="#EC9519"/>
<path d="M142.184 12.2045C142.184 9.85599 142.118 8.32299 142.055 6.95449H146.328L146.493 9.89099H146.622C147.438 7.57399 149.398 6.59399 150.931 6.59399C151.282 6.57907 151.634 6.60136 151.981 6.66049V11.326C151.54 11.2387 151.092 11.1942 150.644 11.193C148.817 11.193 147.578 12.173 147.249 13.706C147.18 14.0718 147.147 14.4434 147.151 14.8155V22.9075H142.184V12.2045Z" fill="#EC9519"/>
<path d="M153.114 12.3025C153.114 10.2025 153.048 8.42103 152.985 6.95103H157.29L157.521 9.17003H157.584C158.76 7.47253 160.587 6.59053 162.904 6.59053C166.404 6.59053 169.529 9.62853 169.529 14.7175C169.529 20.5275 165.84 23.268 162.284 23.268C160.359 23.268 158.858 22.484 158.14 21.441H158.074V29.3685H153.114V12.3025ZM158.074 16.0545C158.069 16.407 158.102 16.7591 158.172 17.1045C158.32 17.7665 158.687 18.359 159.215 18.7854C159.742 19.2119 160.399 19.4472 161.077 19.453C163.229 19.453 164.503 17.6575 164.503 14.9485C164.503 12.404 163.362 10.479 161.14 10.479C160.433 10.4991 159.755 10.7588 159.216 11.2155C158.676 11.6721 158.308 12.2986 158.172 12.992C158.105 13.2812 158.072 13.5772 158.074 13.874V16.0545Z" fill="#EC9519"/>
<path d="M171.15 12.2045C171.15 9.85597 171.087 8.32297 171.021 6.95447H175.298L175.459 9.89097H175.592C176.407 7.57397 178.364 6.59397 179.897 6.59397C180.248 6.57945 180.6 6.60174 180.947 6.66047V11.326C180.505 11.2386 180.056 11.1941 179.606 11.193C177.779 11.193 176.54 12.173 176.215 13.706C176.146 14.0718 176.113 14.4433 176.117 14.8155V22.9075H171.15V12.2045Z" fill="#EC9519"/>
<path d="M187.208 2.513C187.208 3.885 186.158 4.9945 184.534 4.9945C182.966 4.9945 181.923 3.885 181.955 2.513C181.923 1.078 182.966 0 184.566 0C186.165 0 187.177 1.078 187.208 2.513ZM182.084 22.9075V6.951H187.047V22.9075H182.084Z" fill="#EC9519"/>
<path d="M189.525 18.5675C190.837 19.2959 192.3 19.7093 193.799 19.775C195.3 19.775 195.92 19.2535 195.92 18.438C195.92 17.6225 195.43 17.2305 193.571 16.611C190.274 15.5015 189.021 13.706 189.021 11.8125C189.021 8.84449 191.566 6.59049 195.514 6.59049C197.064 6.56607 198.601 6.87897 200.018 7.50749L199.15 10.9305C198.083 10.3661 196.899 10.0548 195.692 10.0205C194.485 10.0205 193.799 10.507 193.799 11.326C193.799 12.075 194.418 12.467 196.378 13.153C199.413 14.203 200.687 15.729 200.718 18.081C200.718 21.049 198.366 23.2365 193.799 23.2365C191.699 23.2365 189.851 22.778 188.643 22.127L189.525 18.5675Z" fill="#EC9519"/>
<path d="M206.066 16.5129C206.227 18.5674 208.254 19.5474 210.571 19.5474C212.063 19.5668 213.55 19.3482 214.974 18.8999L215.628 22.2599C213.781 22.9441 211.822 23.2765 209.853 23.2399C204.435 23.2399 201.334 20.0899 201.334 15.1129C201.334 11.0669 203.847 6.59394 209.384 6.59394C214.54 6.59394 216.496 10.6084 216.496 14.5599C216.497 15.2155 216.443 15.8699 216.335 16.5164L206.066 16.5129ZM211.908 13.1179C211.908 11.9104 211.386 9.88744 209.108 9.88744C207.008 9.88744 206.171 11.7809 206.042 13.1179H211.908Z" fill="#EC9519"/>
<path d="M223.3 1.20748C225.526 0.88579 227.774 0.733686 230.024 0.752477C234.203 0.752477 236.912 1.50148 239.033 3.10098C241.315 4.79848 242.75 7.50748 242.75 11.389C242.75 15.589 241.217 18.5045 239.096 20.3C236.779 22.225 233.254 23.1385 228.946 23.1385C227.059 23.1534 225.173 23.0435 223.3 22.8095V1.20748ZM228.295 19.1555C228.866 19.2428 229.445 19.2756 230.024 19.2535C234.528 19.285 237.465 16.8035 237.465 11.5535C237.496 6.98248 234.822 4.55348 230.545 4.55348C229.79 4.53641 229.035 4.60214 228.295 4.74948V19.1555Z" fill="#EC9519"/>
<path d="M244.531 1.2075C246.725 0.887388 248.94 0.735279 251.157 0.752496C254.419 0.752496 256.704 1.239 258.269 2.4815C259.574 3.5315 260.295 5.0575 260.295 7.0805C260.278 8.27217 259.896 9.43007 259.202 10.3986C258.507 11.3671 257.533 12.0999 256.41 12.4985V12.6C257.943 13.2195 258.79 14.7 259.347 16.7125C260.047 19.194 260.719 22.064 261.142 22.911H256.05C255.7 22.2915 255.171 20.496 254.517 17.7905C253.929 15.0465 252.984 14.2905 250.961 14.266H249.459V22.911H244.531V1.2075ZM249.459 10.6575H251.416C253.897 10.6575 255.367 9.4185 255.367 7.5075C255.367 5.4845 253.995 4.4695 251.71 4.438C250.956 4.42327 250.202 4.47834 249.459 4.6025V10.6575Z" fill="#EC9519"/>
<path d="M281.011 14.4899C280.913 11.8474 280.815 8.64845 280.815 5.44944H280.7C280.017 8.24944 279.104 11.3994 278.25 13.9684L275.576 22.5504H271.691L269.36 14.0314C268.642 11.4554 267.893 8.32295 267.368 5.44944H267.305C267.172 8.42094 267.074 11.8124 266.913 14.5494L266.521 22.9004H261.919L263.319 0.906445H269.944L272.097 8.25644C272.797 10.8009 273.469 13.5449 273.959 16.1209H274.05C274.669 13.5764 275.418 10.6714 276.15 8.22495L278.502 0.913445H284.994L286.202 22.9074H281.337L281.011 14.4899Z" fill="#EC9519"/>
</g>
<defs>
<clipPath id="clip0_755_22380">
<rect width="286.199" height="29.3685" fill="white"/>
</clipPath>
</defs>
</svg>
