<svg width="28" height="28" viewBox="0 0 28 28" fill="none" xmlns="http://www.w3.org/2000/svg">
<path fill-rule="evenodd" clip-rule="evenodd" d="M14 28C21.732 28 28 21.732 28 14C28 6.26801 21.732 0 14 0C6.26801 0 0 6.26801 0 14C0 21.732 6.26801 28 14 28Z" fill="#616161"/>
<path fill-rule="evenodd" clip-rule="evenodd" d="M18.6086 13.49C18.5694 12.3893 18.4048 11.3305 18.126 10.3688C18.5478 10.1137 18.9474 9.81811 19.3212 9.48406C20.2836 10.6151 20.8538 12.0067 20.9598 13.49H18.6086ZM17.7852 18.6203C18.072 18.8059 18.3453 19.0131 18.6058 19.2418C18.0598 19.723 17.4511 20.1104 16.7985 20.3958C17.2068 19.8607 17.5314 19.2493 17.7852 18.6203ZM10.2141 18.6203C10.4679 19.2493 10.7925 19.8607 11.2008 20.3958C10.5482 20.1104 9.93945 19.723 9.39417 19.2418C9.65331 19.0131 9.92798 18.8059 10.2141 18.6203ZM10.2141 9.37904C9.92798 9.19345 9.65331 8.9856 9.39417 8.75682C9.93945 8.27564 10.5482 7.88895 11.2008 7.60281C10.7925 8.13865 10.4679 8.75007 10.2141 9.37904ZM16.7985 7.60281C17.4511 7.88895 18.0598 8.27564 18.6058 8.75682C18.3453 8.9856 18.072 9.19345 17.7852 9.37904C17.5314 8.75007 17.2068 8.13865 16.7985 7.60281ZM14.5095 10.4746V7.09421C15.6561 7.4249 16.4531 8.75977 16.885 9.87261C16.142 10.2107 15.3409 10.4152 14.5095 10.4746ZM14.5095 13.4906V11.4957C15.4496 11.4377 16.3579 11.217 17.2022 10.8478C17.4215 11.6658 17.5538 12.5593 17.5889 13.4906H14.5095ZM14.5095 16.5034V14.5092H17.5889C17.5538 15.4405 17.4215 16.334 17.2022 17.1519C16.3579 16.7828 15.4496 16.5621 14.5095 16.5034ZM14.5095 17.5252C15.3409 17.5846 16.142 17.789 16.885 18.1271C16.4531 19.24 15.6561 20.5749 14.5095 20.9049V17.5252ZM13.4906 17.5252V20.9049C12.3433 20.5749 11.5463 19.24 11.1144 18.1271C11.8574 17.789 12.6592 17.5846 13.4906 17.5252ZM13.4904 14.5092V16.5034C12.549 16.5621 11.6413 16.7828 10.797 17.1519C10.5777 16.334 10.4454 15.4405 10.4103 14.5092H13.4904ZM13.4904 11.4957V13.4906H10.4103C10.4454 12.5593 10.5777 11.6658 10.797 10.8478C11.6413 11.217 12.549 11.4377 13.4904 11.4957ZM13.4906 10.4746C12.6592 10.4152 11.8574 10.2107 11.1144 9.87261C11.5463 8.75977 12.3433 7.4249 13.4906 7.09421V10.4746ZM8.67875 9.48406C9.05195 9.81811 9.45214 10.1137 9.87325 10.3688C9.59521 11.3305 9.42987 12.3893 9.39073 13.49H7.03884C7.14547 12.0067 7.71505 10.6151 8.67875 9.48406ZM7.03884 14.5092H9.39073C9.42987 15.6099 9.59521 16.668 9.87325 17.6304C9.45214 17.8855 9.05195 18.1811 8.67875 18.5151C7.71505 17.3841 7.14547 15.9925 7.03884 14.5092ZM19.3212 18.5151C18.9474 18.1811 18.5478 17.8855 18.126 17.6304C18.4048 16.668 18.5694 15.6099 18.6086 14.5092H20.9598C20.8538 15.9925 20.2836 17.3841 19.3212 18.5151ZM19.6554 8.34459C16.5295 5.21864 11.47 5.21797 8.34409 8.34459C5.21881 11.4699 5.21814 16.5293 8.34409 19.6552C11.47 22.7812 16.5288 22.7819 19.6554 19.6552C22.7814 16.53 22.7814 11.4705 19.6554 8.34459Z" fill="#FAFAFA"/>
</svg>
