<svg width="112" height="24" viewBox="0 0 112 24" fill="none" xmlns="http://www.w3.org/2000/svg">
<g clip-path="url(#clip0_26:2403)">
<path d="M10.1336 0C4.54265 0 0 3.904 0 8.704C0 10.72 0.794169 12.576 2.12837 14.048L0.905353 18L5.98804 16.656C7.25871 17.136 8.65644 17.408 10.1336 17.408C15.7404 17.408 20.2672 13.504 20.2672 8.704C20.2831 3.904 15.7404 0 10.1336 0Z" fill="#CCCCCC"/>
<path d="M25.9535 20.0481C27.2877 18.5761 28.0819 16.7201 28.0819 14.7201C28.0819 9.90411 23.5392 6.01611 17.9483 6.01611C12.3415 6.01611 7.8147 9.92011 7.8147 14.7201C7.8147 19.5361 12.3573 23.4241 17.9483 23.4241C19.4254 23.4241 20.8232 23.1521 22.078 22.6561L27.1607 24.0001L25.9535 20.0481Z" fill="#3463E8"/>
<path d="M36.0393 20.4159H38.9142V13.7119H44.7275V11.3439H38.9142V6.97591H45.1564V4.60791H36.0393V20.4159Z" fill="#4D4C4D"/>
<path d="M49.8263 20.416V11.008C49.8263 9.39201 48.5238 8.08001 46.9196 8.08001V20.416H49.8263ZM48.365 3.31201C47.3961 3.31201 46.7449 4.00001 46.7449 4.88001C46.7449 5.74401 47.3802 6.43201 48.3332 6.43201C49.3339 6.43201 49.9692 5.74401 49.9692 4.88001C49.9692 4.00001 49.3497 3.31201 48.365 3.31201Z" fill="#4D4C4D"/>
<path d="M52.4469 20.4163H55.3376V14.4963C55.3376 14.1603 55.3853 13.8563 55.4329 13.6003C55.6871 12.3043 56.6242 11.4243 58.0061 11.4243C58.3555 11.4243 58.6096 11.4723 58.8479 11.5203V8.80033C58.6096 8.75233 58.4508 8.73633 58.1649 8.73633C56.9419 8.73633 55.6077 9.55233 55.0517 11.1843H54.9564L54.8611 9.00833H52.3516C52.4151 10.0483 52.4469 11.1363 52.4469 12.6883V20.4163Z" fill="#4D4C4D"/>
<path d="M69.8074 15.5203C69.8551 15.2643 69.9027 14.8323 69.9027 14.3043C69.9027 11.7923 68.6797 8.73633 64.9789 8.73633C61.3257 8.73633 59.4038 11.7123 59.4038 14.8803C59.4038 18.3843 61.5798 20.6563 65.2807 20.6563C66.9166 20.6563 68.2826 20.3523 69.2674 19.9523L68.8385 17.9523C67.9649 18.2883 67.0119 18.4643 65.6777 18.4643C63.8512 18.4643 62.231 17.5683 62.1675 15.5043H69.8074V15.5203ZM62.1675 13.5043C62.2787 12.3363 63.0411 10.7043 64.82 10.7043C66.7419 10.7043 67.2184 12.4483 67.1867 13.5043H62.1675Z" fill="#4D4C4D"/>
<path d="M71.0464 19.8556C71.8882 20.3196 73.1271 20.6556 74.509 20.6556C77.5268 20.6556 79.1469 19.1516 79.1469 17.0876C79.131 15.3916 78.1622 14.3356 76.0973 13.5836C74.636 13.0716 74.1119 12.7196 74.1119 11.9836C74.1119 11.2796 74.6678 10.7836 75.7002 10.7836C76.7009 10.7836 77.6221 11.1516 78.1145 11.4396L78.6704 9.39161C78.0192 9.03961 76.9074 8.70361 75.6526 8.70361C73 8.70361 71.3323 10.2716 71.3323 12.2876C71.3164 13.6316 72.2535 14.8476 74.4772 15.6156C75.8908 16.1116 76.3514 16.5116 76.3514 17.2796C76.3514 18.0316 75.7955 18.5436 74.5249 18.5436C73.4924 18.5436 72.2535 18.1276 71.5864 17.7276L71.0464 19.8556Z" fill="#4D4C4D"/>
<path d="M83.9595 20.416V8.08001C82.3553 8.08001 81.0529 9.39201 81.0529 11.008V20.416H83.9595ZM82.5142 3.31201C81.5453 3.31201 80.894 4.00001 80.894 4.88001C80.894 5.74401 81.5294 6.43201 82.4824 6.43201C83.483 6.43201 84.1184 5.74401 84.1184 4.88001C84.1025 4.00001 83.4989 3.31201 82.5142 3.31201Z" fill="#4D4C4D"/>
<path d="M94.2202 3.75977V10.2398H94.1884C93.6802 9.39177 92.5525 8.73577 90.98 8.73577C88.2322 8.73577 85.8497 11.0078 85.8656 14.8318C85.8656 18.3518 88.0257 20.6718 90.7418 20.6718C92.4095 20.6718 93.7914 19.8718 94.4743 18.6078H94.522L94.6332 20.4158H97.2063C97.1586 19.6478 97.111 18.3678 97.111 17.1998V3.75977H94.2202ZM94.2202 15.4718C94.2202 15.7758 94.2043 16.0638 94.1249 16.3198C93.839 17.5678 92.8066 18.3678 91.6471 18.3678C89.8205 18.3678 88.7881 16.8478 88.7881 14.7518C88.7881 12.6238 89.8205 10.9758 91.6789 10.9758C92.9972 10.9758 93.9025 11.8878 94.1567 13.0238C94.2043 13.2638 94.2202 13.5358 94.2202 13.7758V15.4718Z" fill="#4D4C4D"/>
<path d="M109.421 15.5203C109.468 15.2643 109.516 14.8323 109.516 14.3043C109.516 11.7923 108.293 8.73633 104.592 8.73633C100.939 8.73633 99.0171 11.7123 99.0171 14.8803C99.0171 18.3843 101.193 20.6563 104.894 20.6563C106.53 20.6563 107.896 20.3523 108.881 19.9523L108.452 17.9523C107.578 18.2883 106.625 18.4643 105.291 18.4643C103.464 18.4643 101.844 17.5683 101.781 15.5043H109.421V15.5203ZM101.781 13.5043C101.892 12.3363 102.654 10.7043 104.433 10.7043C106.355 10.7043 106.832 12.4483 106.8 13.5043H101.781Z" fill="#4D4C4D"/>
</g>
<defs>
<clipPath id="clip0_26:2403">
<rect width="112" height="24" fill="white"/>
</clipPath>
</defs>
</svg>
