<svg width="420" height="355" viewBox="0 0 420 355" fill="none" xmlns="http://www.w3.org/2000/svg">
<path opacity="0.15" d="M209.773 355C325.627 355 419.545 341.454 419.545 324.744C419.545 308.035 325.627 294.489 209.773 294.489C93.9185 294.489 0 308.035 0 324.744C0 341.454 93.9185 355 209.773 355Z" fill="url(#paint0_radial_598_3767)"/>
<g filter="url(#filter0_d_598_3767)">
<path d="M123.924 146.425L142.729 156.458L182.502 142.324L189.412 159.342C189.412 159.342 152.913 178.012 145.853 178.087C138.794 178.162 120.319 173.04 120.319 173.04L123.924 146.425Z" fill="white"/>
</g>
<g opacity="0.85">
<path d="M271.907 135.767H193.863C188.466 135.767 184.091 140.142 184.091 145.538V165.017C184.091 170.414 188.466 174.789 193.863 174.789H271.907C277.303 174.789 281.678 170.414 281.678 165.017V145.538C281.678 140.142 277.303 135.767 271.907 135.767Z" fill="#3463E8"/>
<path d="M271.906 229.459H193.862C188.465 229.459 184.09 233.834 184.09 239.231V258.709C184.09 264.106 188.465 268.481 193.862 268.481H271.906C277.303 268.481 281.678 264.106 281.678 258.709V239.231C281.678 233.834 277.303 229.459 271.906 229.459Z" fill="#3463E8"/>
<path d="M223.112 182.611H193.862C188.465 182.611 184.09 186.986 184.09 192.383V211.861C184.09 217.258 188.465 221.633 193.862 221.633H223.112C228.509 221.633 232.884 217.258 232.884 211.861V192.383C232.884 186.986 228.509 182.611 223.112 182.611Z" fill="#3463E8"/>
<g filter="url(#filter1_d_598_3767)">
<path d="M223.112 276.272H193.862C188.465 276.272 184.09 280.647 184.09 286.044V305.523C184.09 310.919 188.465 315.294 193.862 315.294H223.112C228.509 315.294 232.884 310.919 232.884 305.523V286.044C232.884 280.647 228.509 276.272 223.112 276.272Z" fill="#3463E8"/>
</g>
<g filter="url(#filter2_d_598_3767)">
<path d="M328.49 276.272H250.446C245.049 276.272 240.674 280.647 240.674 286.044V305.523C240.674 310.919 245.049 315.294 250.446 315.294H328.49C333.887 315.294 338.262 310.919 338.262 305.523V286.044C338.262 280.647 333.887 276.272 328.49 276.272Z" fill="#C8C8CC"/>
</g>
<path d="M328.49 182.611H250.446C245.049 182.611 240.674 186.986 240.674 192.383V211.861C240.674 217.258 245.049 221.633 250.446 221.633H328.49C333.887 221.633 338.262 217.258 338.262 211.861V192.383C338.262 186.986 333.887 182.611 328.49 182.611Z" fill="#C8C8CC"/>
<path d="M328.494 229.459H299.244C293.847 229.459 289.472 233.834 289.472 239.231V258.71C289.472 264.106 293.847 268.481 299.244 268.481H328.494C333.891 268.481 338.266 264.106 338.266 258.71V239.231C338.266 233.834 333.891 229.459 328.494 229.459Z" fill="#C8C8CC"/>
<path d="M328.494 135.767H299.244C293.847 135.767 289.472 140.142 289.472 145.538V165.017C289.472 170.414 293.847 174.789 299.244 174.789H328.494C333.891 174.789 338.266 170.414 338.266 165.017V145.538C338.266 140.142 333.891 135.767 328.494 135.767Z" fill="#C8C8CC"/>
</g>
<path opacity="0.4" d="M328.964 0H299.714C294.317 0 289.942 4.37495 289.942 9.77173V29.2503C289.942 34.6471 294.317 39.022 299.714 39.022H333.664C339.061 39.022 338.736 39.9137 338.736 34.5169V9.77173C338.736 4.37495 334.361 0 328.964 0Z" fill="#C8C8CC"/>
<path opacity="0.5" d="M230.521 39.1191H152.477C147.08 39.1191 142.705 43.4941 142.705 48.8909V68.3694C142.705 79.3889 141.554 78.1412 152.477 78.1412H230.521C235.917 78.1412 240.292 73.7662 240.292 68.3694V48.8909C240.292 43.4941 235.917 39.1191 230.521 39.1191Z" fill="#3463E8"/>
<g filter="url(#filter3_d_598_3767)">
<path d="M120.683 300.469C120.616 302.396 120.975 304.314 121.734 306.086C122.669 307.752 124.089 309.093 125.805 309.931C129.486 311.825 133.751 312.244 137.73 311.103C138.277 310.996 138.77 310.704 139.127 310.277C139.314 309.906 139.392 309.489 139.353 309.075C139.053 306.885 137.943 304.886 136.243 303.473C134.533 302.092 133.075 300.425 131.933 298.546C130.01 294.866 131.482 285.103 124.513 286.605C118.715 287.807 120.517 296.308 120.683 300.469Z" fill="#FFBAA8"/>
<path d="M119.722 307.063C119.722 307.063 118.73 309.481 119.947 310.908C121.164 312.335 133.645 320.085 142.057 313.912C150.468 307.739 130.731 306.778 130.731 306.778L119.722 307.063Z" fill="#397AF6"/>
<path d="M120.217 301.4C120.601 301.213 121.039 301.168 121.452 301.276C121.866 301.383 122.227 301.635 122.47 301.986C123.295 302.91 124.341 303.609 125.511 304.016C126.68 304.424 127.934 304.526 129.154 304.314C131.873 303.668 132.999 300.469 134.336 300.469C135.673 300.469 142.988 306.657 143.348 309.316C143.709 311.974 140.044 313.927 135.928 314.167C131.813 314.407 122.41 311.599 120.773 309.421C120.041 308.228 119.608 306.875 119.511 305.479C119.414 304.082 119.656 302.683 120.217 301.4Z" fill="white"/>
<path d="M96.8311 304.194C96.7686 306.122 97.1327 308.041 97.8976 309.812C98.8302 311.484 100.257 312.827 101.983 313.657C105.657 315.557 109.92 315.977 113.894 314.828C114.464 314.713 114.972 314.392 115.321 313.927C115.514 313.558 115.593 313.14 115.546 312.726C115.246 310.535 114.137 308.537 112.437 307.123C110.734 305.734 109.277 304.069 108.126 302.197C106.309 298.517 107.676 288.754 100.721 290.271C94.8785 291.622 96.6809 300.109 96.8311 304.194Z" fill="#FFBAA8"/>
<path d="M95.8698 310.833C95.8698 310.833 94.8935 313.266 96.1101 314.678C97.3267 316.09 109.808 323.87 118.22 317.682C126.631 311.493 106.804 310.607 106.804 310.607L95.8698 310.833Z" fill="#397AF6"/>
<path d="M96.3804 305.216C96.7611 305.026 97.1978 304.981 97.6093 305.088C98.0209 305.196 98.3794 305.449 98.6184 305.801C99.4448 306.724 100.49 307.424 101.658 307.836C102.827 308.248 104.08 308.359 105.302 308.159C108.036 307.514 109.147 304.314 110.514 304.314C111.881 304.314 119.136 310.503 119.526 313.161C119.917 315.82 116.222 317.772 112.106 318.013C107.991 318.253 98.5883 315.444 96.9511 313.266C96.2112 312.071 95.7727 310.714 95.6733 309.311C95.5739 307.909 95.8165 306.503 96.3804 305.216Z" fill="white"/>
<path d="M91.8743 201.577C91.8743 201.577 90.5675 272.982 95.8546 296.804L109.373 298.456L118.685 200.691L91.8743 201.577Z" fill="#473F47"/>
<path d="M133.345 193.766C133.345 193.766 139.653 232.188 131.993 294.16L118.475 295.828L109.253 198.032L133.345 193.766Z" fill="#473F47"/>
<path d="M132.113 163.636C132.113 164.913 132.278 166.22 132.278 167.466C132.278 174.601 130.626 181.945 132.759 188.93C133.445 190.417 133.65 192.082 133.345 193.691C132.732 194.986 131.662 196.008 130.341 196.56C124.062 200 116.823 201.066 109.718 202.057C104.386 202.808 96.8159 204.385 91.9044 201.517C90.035 200.12 88.7805 198.052 88.4047 195.749C86.5164 188.375 85.4039 180.824 85.0852 173.219C85.0852 172.213 84.9501 171.296 84.89 170.215C84.4895 163.366 84.3493 156.537 84.4694 149.727C84.4694 144.771 84.9651 139.409 88.1944 135.669C92.4901 130.697 100.811 127.393 107.135 126.236C109.192 125.831 111.296 125.725 113.383 125.921C116.328 126.398 119.171 127.368 121.794 128.79C124.949 130.292 127.802 131.658 129.304 134.798C130.99 138.393 132.173 142.204 132.819 146.123C133.38 149.792 133.445 153.52 133.014 157.207C132.819 159.01 132.353 160.797 132.188 162.6C132.128 162.99 132.128 163.321 132.113 163.636Z" fill="white"/>
<path opacity="0.1" d="M140.356 167.213C138.223 166.973 127.559 161.671 126.387 160.784C128.025 164.224 130.233 174.903 130.593 175.113C134.61 177.114 138.976 178.318 143.45 178.658C147.946 178.984 152.449 178.136 156.518 176.195C158.515 175.026 160.576 173.968 162.691 173.026C163.953 172.545 165.274 172.275 166.521 171.854C169.847 170.598 172.973 168.868 175.803 166.717C176.266 166.492 176.675 166.173 177.007 165.779C177.338 165.386 177.583 164.928 177.726 164.434C177.921 163.173 176.78 162.091 175.638 161.535C173.82 160.737 171.856 160.322 169.87 160.319C167.263 159.988 164.62 160.049 162.03 160.499C160.393 160.965 159.191 162.422 157.599 163.203C153.003 165.23 145.358 167.799 140.356 167.213Z" fill="#020202"/>
<path opacity="0.1" d="M103.034 204.01C100.961 204.611 96.2 202.719 94.6229 202.508C93.6908 202.277 92.773 201.991 91.8742 201.652C87.1579 200.481 86.6022 187.218 86.1216 183.628C84.8899 174.196 82.9974 164.417 82.8922 154.97C82.6824 151.303 83.1144 147.628 84.169 144.11C84.7049 142.359 85.617 140.746 86.8416 139.384C88.0662 138.021 89.5736 136.943 91.2584 136.225C91.9192 135.954 92.6446 135.881 93.3462 136.015C96.215 136.751 96.8008 141.497 97.3115 143.705C98.1677 147.73 100.135 149.578 102.133 152.807C104.131 156.036 104.266 160.077 106.158 163.321C106.63 164.248 107.284 165.071 108.081 165.739C109.704 166.688 111.59 167.088 113.458 166.881H126.976C128.068 166.727 129.177 167.001 130.07 167.647C130.464 168.159 130.741 168.751 130.881 169.382C131.021 170.012 131.021 170.666 130.881 171.297L130.055 181.315C130.069 181.759 129.954 182.197 129.725 182.577C129.322 182.981 128.791 183.231 128.223 183.283C124.509 183.816 120.9 184.926 117.529 186.572C114.247 188.82 110.756 190.747 107.105 192.325C106.056 192.801 105.097 193.451 104.266 194.247C103.3 195.464 102.814 196.992 102.899 198.543C102.899 199.519 104.146 202.538 103.785 203.244C103.72 203.417 103.62 203.575 103.491 203.707C103.362 203.839 103.206 203.942 103.034 204.01Z" fill="#020202"/>
<path d="M117.544 120.469C116.799 121.314 115.765 121.85 114.645 121.971C113.71 122.046 112.771 122.046 111.836 121.971H111.325C111.199 121.926 111.061 121.926 110.935 121.971C110.876 122.023 110.83 122.088 110.802 122.161C110.773 122.234 110.762 122.313 110.77 122.391C110.604 124.255 110.604 126.13 110.77 127.994V129.015C110.86 129.36 110.86 129.722 110.77 130.067C110.501 130.453 110.091 130.717 109.628 130.803C108.813 131.09 107.954 131.237 107.09 131.238C105.23 131.111 103.432 130.517 101.863 129.511C101.998 126.303 101.832 123.09 101.367 119.913C100.781 115.812 99.6998 111.727 100.135 107.612C100.154 106.643 100.38 105.69 100.797 104.815C101.214 103.941 101.813 103.166 102.554 102.541C103.295 101.917 104.16 101.458 105.093 101.195C106.025 100.933 107.003 100.872 107.961 101.018C110.906 100.98 113.801 101.776 116.312 103.316C117.243 103.947 117.333 104.818 117.544 105.794C117.874 107.401 118.129 109.038 118.31 110.676C118.49 112.313 118.625 114.401 118.655 116.278C118.801 117.763 118.406 119.251 117.544 120.469Z" fill="#FFBAA8"/>
<path d="M114.284 104.202C112.362 104.728 109.883 104.202 107.946 105.043C106.627 105.726 105.598 106.861 105.047 108.239C104.496 109.618 104.458 111.149 104.942 112.553C104.146 112.838 103.996 111.396 103.44 110.826C102.884 110.255 101.517 111.021 101.337 112.012C101.396 113.015 101.695 113.988 102.208 114.851C102.973 116.62 103.111 118.596 102.599 120.454C102.463 120.889 102.133 121.415 101.712 121.295C101.292 121.175 100.961 120.424 100.691 120.108C100.263 119.574 99.7961 119.072 99.2943 118.606C98.333 117.765 97.2515 117.014 96.2902 116.188C95.329 115.362 94.9234 114.566 93.7669 114.265C92.6782 114.041 91.5731 113.905 90.4625 113.86C89.5935 113.685 88.7896 113.274 88.1397 112.672C87.4899 112.069 87.0192 111.299 86.7799 110.445C86.5405 109.592 86.5417 108.689 86.7834 107.836C87.0251 106.984 87.4978 106.215 88.1494 105.614C88.5339 105.357 88.8571 105.019 89.0956 104.622C89.2403 104.177 89.2814 103.704 89.2158 103.241C89.2465 102.036 89.5737 100.858 90.1684 99.8097C90.7631 98.7618 91.607 97.8766 92.6253 97.2326C94.6836 95.9385 97.0736 95.2705 99.5045 95.31C100.013 95.336 100.522 95.2699 101.007 95.1147C101.47 94.8805 101.891 94.5709 102.253 94.1985C103.164 93.4268 104.218 92.8422 105.356 92.4782C106.493 92.1141 107.69 91.9777 108.88 92.0767C110.07 92.1758 111.229 92.5083 112.29 93.0554C113.351 93.6024 114.294 94.3533 115.065 95.265C115.459 95.7274 115.801 96.231 116.087 96.767C116.87 98.0809 117.177 99.6241 116.958 101.138C116.896 101.866 116.603 102.556 116.122 103.107C115.642 103.658 114.998 104.042 114.284 104.202Z" fill="#473F47"/>
<path d="M111.836 121.986H111.326C111.197 121.956 111.063 121.956 110.935 121.986C110.877 122.041 110.832 122.109 110.803 122.185C110.774 122.26 110.763 122.341 110.77 122.421C110.605 124.285 110.605 126.16 110.77 128.024C109.121 127.5 107.703 126.424 106.756 124.976C105.81 123.529 105.391 121.798 105.573 120.078C107.607 120.935 109.727 121.575 111.896 121.986H111.836Z" fill="#E0A091"/>
<path d="M89.9217 136.465C92.4674 135.564 95.2663 135.71 97.7047 136.87C100.143 138.03 102.022 140.11 102.929 142.653L112.136 168.638C112.587 169.899 112.784 171.237 112.716 172.574C112.649 173.912 112.318 175.223 111.744 176.432C111.169 177.642 110.361 178.726 109.367 179.623C108.372 180.52 107.21 181.213 105.948 181.66C103.402 182.561 100.604 182.415 98.1651 181.255C95.7268 180.095 93.848 178.015 92.9408 175.472L83.7335 149.487C83.2832 148.226 83.0861 146.888 83.1535 145.55C83.2209 144.213 83.5515 142.902 84.1263 141.692C84.7011 140.483 85.5089 139.398 86.5033 138.501C87.4978 137.604 88.6594 136.912 89.9217 136.465Z" fill="white"/>
<path d="M146.052 156.382C147.008 155.681 147.92 154.924 148.785 154.114C150.876 152.233 153.235 150.673 155.785 149.488C158.343 148.294 161.211 147.932 163.986 148.451C164.571 148.556 165.292 148.932 165.217 149.548C165.142 150.163 164.782 150.194 164.421 150.389C162.809 151.292 161.101 152.012 159.329 152.537C158.943 152.593 158.573 152.729 158.242 152.936C157.911 153.143 157.627 153.416 157.407 153.738C158.002 153.8 158.604 153.723 159.164 153.513C161.353 152.968 163.62 152.811 165.863 153.047C166.073 153.047 166.329 153.047 166.434 153.303C166.463 153.374 166.476 153.451 166.474 153.529C166.472 153.606 166.454 153.682 166.422 153.752C166.39 153.822 166.344 153.885 166.286 153.937C166.229 153.989 166.162 154.029 166.089 154.054C163.941 155.766 160.711 155.646 158.654 157.493C158.293 157.809 158.023 158.455 158.428 158.71C158.598 158.769 158.784 158.769 158.954 158.71C159.844 158.613 160.724 158.437 161.582 158.184C162.993 157.909 164.441 157.873 165.863 158.079C165.957 158.08 166.049 158.101 166.135 158.14C166.22 158.178 166.296 158.234 166.359 158.304C166.569 158.635 166.134 158.995 165.788 159.175L158.278 162.42C159.302 162.51 160.333 162.51 161.357 162.42C162.394 162.362 163.415 162.688 164.226 163.336C164.262 163.351 164.292 163.376 164.313 163.408C164.335 163.44 164.346 163.478 164.346 163.516C164.346 163.651 164.346 163.727 164.136 163.787C162.943 164.421 161.636 164.809 160.291 164.928C159.493 164.993 158.703 165.133 157.933 165.349C157.466 165.53 157.01 165.735 156.566 165.965C155.154 166.702 153.632 167.21 152.06 167.467C150.456 167.737 148.808 167.468 147.374 166.701C146.99 166.454 146.583 166.248 146.157 166.085C144.655 165.649 142.913 167.256 141.486 166.505C141.009 166.179 140.625 165.734 140.374 165.214C139.608 163.952 137.025 160.407 139.112 159.206C140.28 158.75 141.474 158.364 142.687 158.049C143.867 157.62 144.996 157.061 146.052 156.382Z" fill="#FFBAA8"/>
<path d="M113.894 160.482L139.338 158.034L143.438 170.44C143.438 170.44 106.264 185.565 99.0389 181.36C91.8143 177.154 98.5282 170.29 98.5282 170.29C98.5282 170.29 99.3694 160.227 113.894 160.482Z" fill="white"/>
</g>
<path d="M189.122 144.112C189.488 144.247 189.885 144.276 190.268 144.196C190.65 144.117 191.002 143.931 191.285 143.661C192.126 142.685 191.465 141.213 190.774 140.117C191.42 139.621 192.366 140.252 192.862 140.928C193.358 141.604 193.958 142.43 194.784 142.31C195.611 142.189 196.076 141.078 195.866 140.237C195.529 139.409 195.107 138.618 194.604 137.879C194.98 137.383 195.776 137.879 196.106 138.359C196.437 138.84 196.872 139.576 197.473 139.441C197.706 139.336 197.895 139.151 198.005 138.92C198.115 138.689 198.139 138.427 198.074 138.179C197.927 137.687 197.817 137.185 197.743 136.677C198.765 136.347 199.936 137.398 200.868 136.902C201.169 136.665 201.369 136.321 201.424 135.941C201.48 135.561 201.388 135.174 201.168 134.86L201.063 134.725C200.457 134.14 199.676 133.771 198.84 133.673C196.767 133.236 194.608 133.495 192.697 134.409C190.434 135.113 188.208 135.93 186.028 136.857C184.04 137.701 182.292 139.022 180.936 140.703C180.828 140.889 180.792 141.109 180.837 141.319C180.881 141.53 181.002 141.717 181.176 141.844C181.465 141.933 181.774 141.933 182.062 141.844C183.606 141.541 185.207 141.808 186.568 142.595C187.299 143.096 188.056 143.557 188.836 143.977L189.122 144.112Z" fill="#FFBAA8"/>
<defs>
<filter id="filter0_d_598_3767" x="117.319" y="142.324" width="77.0923" height="43.7637" filterUnits="userSpaceOnUse" color-interpolation-filters="sRGB">
<feFlood flood-opacity="0" result="BackgroundImageFix"/>
<feColorMatrix in="SourceAlpha" type="matrix" values="0 0 0 0 0 0 0 0 0 0 0 0 0 0 0 0 0 0 127 0" result="hardAlpha"/>
<feOffset dx="1" dy="4"/>
<feGaussianBlur stdDeviation="2"/>
<feComposite in2="hardAlpha" operator="out"/>
<feColorMatrix type="matrix" values="0 0 0 0 0 0 0 0 0 0 0 0 0 0 0 0 0 0 0.15 0"/>
<feBlend mode="normal" in2="BackgroundImageFix" result="effect1_dropShadow_598_3767"/>
<feBlend mode="normal" in="SourceGraphic" in2="effect1_dropShadow_598_3767" result="shape"/>
</filter>
<filter id="filter1_d_598_3767" x="180.09" y="276.272" width="56.7938" height="47.022" filterUnits="userSpaceOnUse" color-interpolation-filters="sRGB">
<feFlood flood-opacity="0" result="BackgroundImageFix"/>
<feColorMatrix in="SourceAlpha" type="matrix" values="0 0 0 0 0 0 0 0 0 0 0 0 0 0 0 0 0 0 127 0" result="hardAlpha"/>
<feOffset dy="4"/>
<feGaussianBlur stdDeviation="2"/>
<feComposite in2="hardAlpha" operator="out"/>
<feColorMatrix type="matrix" values="0 0 0 0 0 0 0 0 0 0 0 0 0 0 0 0 0 0 0.1 0"/>
<feBlend mode="normal" in2="BackgroundImageFix" result="effect1_dropShadow_598_3767"/>
<feBlend mode="normal" in="SourceGraphic" in2="effect1_dropShadow_598_3767" result="shape"/>
</filter>
<filter id="filter2_d_598_3767" x="236.674" y="276.272" width="105.587" height="47.022" filterUnits="userSpaceOnUse" color-interpolation-filters="sRGB">
<feFlood flood-opacity="0" result="BackgroundImageFix"/>
<feColorMatrix in="SourceAlpha" type="matrix" values="0 0 0 0 0 0 0 0 0 0 0 0 0 0 0 0 0 0 127 0" result="hardAlpha"/>
<feOffset dy="4"/>
<feGaussianBlur stdDeviation="2"/>
<feComposite in2="hardAlpha" operator="out"/>
<feColorMatrix type="matrix" values="0 0 0 0 0 0 0 0 0 0 0 0 0 0 0 0 0 0 0.1 0"/>
<feBlend mode="normal" in2="BackgroundImageFix" result="effect1_dropShadow_598_3767"/>
<feBlend mode="normal" in="SourceGraphic" in2="effect1_dropShadow_598_3767" result="shape"/>
</filter>
<filter id="filter3_d_598_3767" x="78.8407" y="92.0454" width="102.907" height="235.996" filterUnits="userSpaceOnUse" color-interpolation-filters="sRGB">
<feFlood flood-opacity="0" result="BackgroundImageFix"/>
<feColorMatrix in="SourceAlpha" type="matrix" values="0 0 0 0 0 0 0 0 0 0 0 0 0 0 0 0 0 0 127 0" result="hardAlpha"/>
<feOffset dy="4"/>
<feGaussianBlur stdDeviation="2"/>
<feComposite in2="hardAlpha" operator="out"/>
<feColorMatrix type="matrix" values="0 0 0 0 0 0 0 0 0 0 0 0 0 0 0 0 0 0 0.15 0"/>
<feBlend mode="normal" in2="BackgroundImageFix" result="effect1_dropShadow_598_3767"/>
<feBlend mode="normal" in="SourceGraphic" in2="effect1_dropShadow_598_3767" result="shape"/>
</filter>
<radialGradient id="paint0_radial_598_3767" cx="0" cy="0" r="1" gradientUnits="userSpaceOnUse" gradientTransform="translate(209.773 324.744) rotate(90) scale(30.2557 209.773)">
<stop stop-color="#397AF6"/>
<stop offset="1" stop-color="#397AF6" stop-opacity="0"/>
</radialGradient>
</defs>
</svg>
