<svg width="179" height="135" viewBox="0 0 179 135" fill="none" xmlns="http://www.w3.org/2000/svg">
<g clip-path="url(#clip0_598_3803)">
<path opacity="0.35" d="M88.6559 111.175C117.942 111.175 141.683 107.262 141.683 102.435C141.683 97.607 117.942 93.6936 88.6559 93.6936C59.3699 93.6936 35.6289 97.607 35.6289 102.435C35.6289 107.262 59.3699 111.175 88.6559 111.175Z" fill="#397AF6"/>
<path opacity="0.05" d="M81.9792 2.42302C86.749 3.1585 91.3905 4.56688 95.7647 6.60608C101.817 9.5312 106.819 13.9684 112.519 17.4407C122.224 23.3512 133.852 26.6942 144.889 29.0119C149.3 29.9425 153.763 30.8084 157.731 32.8891C163.792 36.1072 168.135 41.9359 171.15 48.1308C177.763 61.7139 178.969 78.1919 173.085 92.1326C167.333 105.681 154.19 117.119 139.258 118.579C120.411 120.514 101.572 124.206 82.6943 126.545C69.5851 128.483 56.4156 130.4 43.1685 130.573C37.6586 130.633 32.0065 130.362 26.7551 128.582C16.9027 125.244 8.01532 118.329 4.13813 108.456C2.59001 104.451 1.85952 100.177 1.98974 95.8857C2.11996 91.5943 3.10826 87.3725 4.89634 83.4692C7.10203 78.6744 10.5312 74.4483 12.1338 69.4122C13.5855 64.8716 13.4262 60.0768 13.2021 55.3768C12.9282 51.0048 13.4806 46.6203 14.8306 42.4528C17.4412 33.9144 21.5553 25.7551 27.3711 18.9657C34.5353 10.5608 44.3963 4.27115 55.2567 2.24209C59.4602 1.53705 63.7217 1.23698 67.9825 1.34603C72.6688 1.34477 77.3482 1.70483 81.9792 2.42302Z" fill="#397AF6"/>
<path d="M121.522 50.6939C119.161 95.0101 89.5009 106.59 89.5009 106.59C56.5793 86.9757 56.7602 48.6648 56.7602 48.6648C77.7444 42.9998 89.7465 31.4329 90.1213 31.0322C97.9274 42.4355 121.522 50.6939 121.522 50.6939Z" fill="#397AF6"/>
<path d="M121.522 50.5172C119.161 94.8292 89.5008 106.413 89.5008 106.413C56.5792 86.7991 56.7601 48.4881 56.7601 48.4881C77.7573 42.836 89.755 31.2562 90.1298 30.8771C97.9273 42.2717 121.522 50.5172 121.522 50.5172Z" fill="url(#paint0_linear_598_3803)"/>
<path d="M117.692 52.8434C115.607 91.8997 89.4708 102.11 89.4708 102.11C60.4522 84.8173 60.6073 51.0556 60.6073 51.0556C79.1058 46.067 89.6819 35.8484 90.0136 35.5469C96.8848 45.5931 117.692 52.8434 117.692 52.8434Z" fill="#397AF6"/>
<path d="M90.0047 35.5297L89.4533 102.11C60.4347 84.8173 60.5898 51.0556 60.5898 51.0556C79.0883 46.067 89.6644 35.8485 89.9961 35.5469L90.0047 35.5297Z" fill="url(#paint1_linear_598_3803)" fill-opacity="0.2"/>
<path d="M89.4707 69.1879C92.2973 69.1879 94.5886 66.8966 94.5886 64.07C94.5886 61.2435 92.2973 58.9521 89.4707 58.9521C86.6442 58.9521 84.3529 61.2435 84.3529 64.07C84.3529 66.8966 86.6442 69.1879 89.4707 69.1879Z" fill="#473F47"/>
<path d="M86.3904 76.839H91.9089L90.3408 68.6409H88.3333L86.3904 76.839Z" fill="#473F47"/>
<path opacity="0.18" d="M61.99 62.1961H68.577V57.4186H73.7939" stroke="white" stroke-width="0.8118" stroke-miterlimit="12.79"/>
<path opacity="0.18" d="M63.2823 67.3184H71.8552V77.7437H77.223" stroke="white" stroke-width="0.8118" stroke-miterlimit="12.79"/>
<path opacity="0.18" d="M117.149 58.9523H106.293V52.7961H96.6003" stroke="white" stroke-width="0.8118" stroke-miterlimit="12.79"/>
<path opacity="0.18" d="M115.129 69.1923H104.553V80.0312H97.0958" stroke="white" stroke-width="0.8118" stroke-miterlimit="12.79"/>
<path opacity="0.18" d="M73.7938 88.268H82.6683V84.1022H88.0317" stroke="white" stroke-width="0.8118" stroke-miterlimit="12.79"/>
<path d="M155.581 53.7481C149.584 40.9619 122.009 31.2776 89.0054 31.2776C51.6207 31.2776 21.2279 43.6975 21.2279 58.965C21.2279 74.2325 51.6379 86.6568 89.0054 86.6568C114.483 86.6568 136.725 80.8841 148.305 72.3758C149.971 71.1735 151.501 69.7925 152.867 68.2574C154.665 66.3141 155.932 63.9401 156.546 61.3646C156.711 60.5739 156.795 59.7684 156.796 58.9607C156.783 57.1545 156.368 55.3738 155.581 53.7481ZM152.333 68.2057C151.145 69.5105 149.835 70.6991 148.421 71.7554C137.083 80.3413 114.698 86.1915 88.971 86.1915C51.849 86.1915 21.6414 73.9827 21.6414 58.965C21.6414 43.9474 51.8706 31.7342 89.0054 31.7342C121.591 31.7342 148.848 41.1429 155.025 53.5973C155.868 55.2617 156.31 57.0996 156.318 58.965C156.319 59.6182 156.26 60.2701 156.141 60.9122C155.706 63.4583 154.396 65.9009 152.333 68.2057Z" fill="white"/>
<path opacity="0.18" d="M157.64 57.7071C157.598 57.2616 157.532 56.8187 157.442 56.3802C157.276 55.5981 157.039 54.8325 156.736 54.0927L156.637 54.0625C156.292 53.9505 155.934 53.8514 155.581 53.7481C149.584 40.9619 122.009 31.2776 89.0054 31.2776C51.6207 31.2776 21.2279 43.6975 21.2279 58.965C21.2279 74.2325 51.6379 86.6568 89.0054 86.6568C114.483 86.6568 136.725 80.8841 148.305 72.3758C148.294 72.542 148.316 72.7087 148.37 72.8662C148.424 73.0238 148.509 73.169 148.619 73.2934C150.714 71.815 152.598 70.0584 154.22 68.0721C155.535 66.471 156.53 64.6328 157.154 62.657C157.518 61.4618 157.702 60.2189 157.701 58.9693C157.702 58.5478 157.682 58.1265 157.64 57.7071ZM89.0054 86.1915C51.8792 86.1915 21.6716 73.9827 21.6716 58.965C21.6716 43.9474 51.8706 31.7342 89.0054 31.7342C121.591 31.7342 148.848 41.1429 155.025 53.5973C154.703 53.5367 154.37 53.5933 154.086 53.7567C154.942 55.3605 155.397 57.1474 155.413 58.965C155.418 59.3896 155.396 59.814 155.348 60.2359C155.025 62.8896 153.698 65.4916 151.381 67.9472C150.516 68.8723 149.581 69.7293 148.585 70.5104C148.65 70.7474 148.65 70.9973 148.585 71.2342C148.533 71.4108 148.477 71.5874 148.43 71.7856C137.083 80.3413 114.698 86.1915 89.0054 86.1915Z" fill="#397AF6"/>
<path opacity="0.18" d="M155.013 53.5973C154.692 53.5363 154.36 53.5929 154.078 53.7567C151.54 48.8499 145.419 44.2791 136.234 40.5699C123.607 35.4693 106.828 32.6648 89.0057 32.6648C71.1836 32.6648 54.3824 35.4693 41.76 40.5699C29.3875 45.5887 22.5808 52.0938 22.5808 58.965C22.5808 65.8363 29.3875 72.3543 41.7471 77.3515C54.3695 82.4608 71.1491 85.2739 88.9928 85.2739C106.836 85.2739 123.607 82.4608 136.234 77.3515C141.309 75.3052 145.44 73.0005 148.559 70.5061C148.627 70.7411 148.627 70.9906 148.559 71.2256C148.512 71.4022 148.456 71.5788 148.404 71.777C137.066 80.3628 114.681 86.2131 88.9755 86.2131C51.8536 86.2131 21.646 74.0042 21.646 58.9866C21.646 43.9689 51.8708 31.7343 89.0057 31.7343C121.583 31.7343 148.835 41.1429 155.013 53.5973Z" fill="#397AF6"/>
<path opacity="0.18" d="M156.736 54.0927L156.637 54.0625C156.292 53.9505 155.934 53.8514 155.581 53.748C149.584 40.9619 122.009 31.2776 89.0055 31.2776C51.6208 31.2776 21.2279 43.6975 21.2279 58.965C21.2279 74.2325 51.638 86.6568 89.0055 86.6568C114.483 86.6568 136.725 80.8841 148.305 72.3758C148.294 72.542 148.316 72.7087 148.37 72.8662C148.424 73.0238 148.509 73.169 148.619 73.2934C145.084 75.766 141.27 77.8135 137.255 79.3935C124.331 84.6708 107.181 87.5787 89.0055 87.5787C70.8301 87.5787 53.68 84.6751 40.756 79.3935C27.552 74.0214 20.2888 66.7452 20.2888 58.965C20.2888 51.1848 27.5391 43.9258 40.756 38.5452C53.68 33.2593 70.843 30.36 89.027 30.36C107.211 30.36 124.353 33.2636 137.276 38.5452C147.646 42.7885 154.358 48.1735 156.736 54.0927Z" fill="#397AF6"/>
<path d="M35.8522 72.5822H22.8636V56.5479H34.06L35.8522 58.8354V72.5822Z" fill="white"/>
<path d="M34.6979 73.5299H21.7093V57.4956H32.9101L34.6979 59.7788V73.5299Z" fill="white"/>
<path d="M34.5902 73.6419H21.6016V57.6033H32.7981L34.5902 59.8908V73.6419Z" fill="url(#paint2_linear_598_3803)" fill-opacity="0.1"/>
<path d="M33.4486 74.9687H20.46V58.9258H31.6565L33.4486 61.2133V74.9687Z" fill="white"/>
<path d="M31.6563 58.9258V61.1918H33.4485L31.6563 58.9258Z" fill="url(#paint3_linear_598_3803)" fill-opacity="0.2"/>
<path d="M32.798 57.6033V59.9339H34.5901L32.798 57.6033Z" fill="url(#paint4_linear_598_3803)" fill-opacity="0.2"/>
<path d="M34.0602 56.5479V58.8785H35.8523L34.0602 56.5479Z" fill="url(#paint5_linear_598_3803)" fill-opacity="0.2"/>
<path d="M156.745 73.3192C156.572 73.2757 156.41 73.197 156.269 73.0881C156.128 72.9791 156.012 72.8422 155.926 72.6859C155.797 72.4619 155.672 72.225 155.543 71.9966C155.428 71.7709 155.246 71.5873 155.02 71.4719C154.795 71.3566 154.539 71.3156 154.289 71.3548C154.035 71.3715 153.793 71.4674 153.597 71.6289C153.401 71.7904 153.26 72.0094 153.195 72.2551C153.109 72.5265 153.044 72.8065 152.949 73.065C152.841 73.3958 152.608 73.6711 152.3 73.8322C151.992 73.9932 151.632 74.0271 151.299 73.9266L149.783 73.4958C149.612 73.4499 149.452 73.3707 149.312 73.2629C149.172 73.1551 149.055 73.0207 148.967 72.8674C148.879 72.7142 148.822 72.5451 148.799 72.3698C148.777 72.1945 148.789 72.0164 148.835 71.8459C148.835 71.8459 148.835 71.8459 148.835 71.8114C148.908 71.5357 149.003 71.26 149.068 70.9929C149.137 70.7593 149.133 70.51 149.056 70.2789C148.979 70.0477 148.833 69.8458 148.637 69.7005C148.455 69.5396 148.226 69.4405 147.984 69.4173C147.742 69.3941 147.498 69.448 147.289 69.5713C147.052 69.6833 146.828 69.8211 146.595 69.946C146.277 70.1223 145.903 70.1655 145.553 70.0662C145.203 69.9669 144.907 69.7332 144.73 69.4162V69.3946C144.463 68.9121 144.178 68.4382 143.941 67.9601C143.762 67.6578 143.709 67.2966 143.796 66.9557C143.882 66.6148 144.1 66.3222 144.402 66.1421L144.493 66.0904C144.712 65.9655 144.945 65.8535 145.161 65.7285C145.373 65.6074 145.545 65.4278 145.658 65.2111C145.77 64.9944 145.818 64.7499 145.796 64.5067C145.773 64.2636 145.681 64.0321 145.53 63.8401C145.379 63.648 145.176 63.5035 144.945 63.4237C144.678 63.3376 144.394 63.273 144.135 63.1825C143.964 63.1379 143.804 63.06 143.663 62.9534C143.522 62.8467 143.404 62.7134 143.315 62.5609C143.225 62.4085 143.167 62.24 143.143 62.065C143.119 61.89 143.13 61.712 143.175 61.5412L143.213 61.4205C143.351 60.938 143.489 60.4599 143.644 59.9817C143.732 59.6482 143.946 59.3621 144.241 59.1843C144.536 59.0064 144.89 58.9509 145.225 59.0296C145.514 59.0813 145.777 59.1761 146.087 59.2536C146.333 59.3371 146.599 59.3425 146.849 59.269C147.098 59.1955 147.319 59.0467 147.48 58.843C147.642 58.6394 147.737 58.3907 147.752 58.1311C147.767 57.8715 147.702 57.6135 147.564 57.3926C147.444 57.1772 147.323 56.9618 147.211 56.7464C147.045 56.4406 147.008 56.0817 147.106 55.7482C147.205 55.4147 147.431 55.1338 147.737 54.9672H147.763C148.275 54.6785 148.792 54.4157 149.322 54.1314C149.636 53.9781 149.996 53.9497 150.329 54.0521C150.663 54.1545 150.945 54.38 151.118 54.6828C151.256 54.9198 151.377 55.161 151.515 55.398C151.629 55.6124 151.806 55.7864 152.023 55.8959C152.24 56.0055 152.485 56.0452 152.725 56.0097C152.972 55.9952 153.208 55.9046 153.401 55.7503C153.594 55.5959 153.734 55.3855 153.802 55.1481C153.884 54.8982 153.949 54.6398 154.026 54.3942C154.071 54.2205 154.15 54.0573 154.257 53.914C154.365 53.7706 154.5 53.6499 154.654 53.5587C154.809 53.4675 154.98 53.4076 155.157 53.3824C155.335 53.3572 155.516 53.3673 155.689 53.412L155.806 53.4464L157.219 53.8772C157.569 53.9639 157.87 54.1858 158.056 54.4943C158.243 54.8028 158.3 55.1727 158.214 55.5229V55.5961C158.149 55.8374 158.072 56.0872 157.998 56.3285C157.916 56.5723 157.913 56.8362 157.99 57.0818C158.068 57.3274 158.221 57.5419 158.429 57.6941C158.625 57.8611 158.869 57.9621 159.125 57.983C159.382 58.0039 159.639 57.9435 159.859 57.8104C160.07 57.6941 160.29 57.5692 160.501 57.4572C160.821 57.2837 161.196 57.2438 161.545 57.3463C161.894 57.4489 162.188 57.6855 162.362 58.0043C162.634 58.4954 162.909 58.9908 163.177 59.4862C163.348 59.7942 163.39 60.1577 163.294 60.4969C163.198 60.8362 162.972 61.1234 162.664 61.2956L162.625 61.3171C162.388 61.4464 162.138 61.5627 161.901 61.7006C161.703 61.8051 161.539 61.9649 161.43 62.1607C161.321 62.3564 161.27 62.5797 161.285 62.8034C161.284 63.042 161.356 63.2753 161.49 63.4723C161.625 63.6692 161.817 63.8206 162.039 63.9062C162.322 64.0114 162.609 64.102 162.901 64.1776C163.222 64.2497 163.501 64.4462 163.677 64.7241C163.853 65.0021 163.912 65.3385 163.84 65.6596C163.84 65.6984 163.818 65.7414 163.805 65.7802C163.659 66.3316 163.5 66.8831 163.323 67.4345C163.235 67.7583 163.024 68.0351 162.735 68.2064C162.447 68.3776 162.103 68.4299 161.776 68.3521L161.643 68.309C161.389 68.2358 161.143 68.1539 160.885 68.0936C160.648 68.026 160.395 68.0345 160.163 68.118C159.932 68.2014 159.732 68.3557 159.592 68.5589C159.438 68.7406 159.343 68.966 159.323 69.2038C159.302 69.4415 159.355 69.6798 159.476 69.8857C159.605 70.127 159.747 70.3639 159.877 70.6009C159.962 70.7538 160.016 70.9221 160.037 71.0962C160.057 71.2702 160.043 71.4465 159.995 71.615C159.947 71.7835 159.866 71.9409 159.757 72.0781C159.648 72.2153 159.513 72.3296 159.36 72.4145L159.325 72.4361C158.834 72.7118 158.339 72.9875 157.843 73.246C157.676 73.3366 157.492 73.3901 157.302 73.4028C157.112 73.4154 156.922 73.3869 156.745 73.3192ZM149.318 62.4329C149.073 63.2608 149.08 64.1425 149.337 64.9666C149.594 65.7906 150.089 66.52 150.761 67.0625C151.432 67.6049 152.249 67.9361 153.109 68.014C153.969 68.092 154.832 67.9133 155.59 67.5005C156.348 67.0877 156.967 66.4594 157.368 65.695C157.769 64.9307 157.934 64.0645 157.843 63.2062C157.752 62.3479 157.408 61.5359 156.855 60.873C156.302 60.2101 155.565 59.726 154.737 59.4819C153.631 59.1528 152.439 59.2765 151.423 59.8258C150.408 60.3751 149.652 61.3051 149.322 62.4114L149.318 62.4329Z" fill="#397AF6"/>
<g opacity="0.27">
<path opacity="0.27" d="M156.745 73.3192C156.572 73.2757 156.41 73.197 156.269 73.0881C156.128 72.9791 156.012 72.8422 155.926 72.6859C155.797 72.4619 155.672 72.225 155.543 71.9966C155.428 71.7709 155.246 71.5873 155.02 71.4719C154.795 71.3566 154.539 71.3156 154.289 71.3548C154.035 71.3715 153.793 71.4674 153.597 71.6289C153.401 71.7904 153.26 72.0094 153.195 72.2551C153.109 72.5265 153.044 72.8065 152.949 73.065C152.841 73.3958 152.608 73.6711 152.3 73.8322C151.992 73.9932 151.632 74.0271 151.299 73.9266L149.783 73.4958C149.612 73.4499 149.452 73.3707 149.312 73.2629C149.172 73.1551 149.055 73.0207 148.967 72.8674C148.879 72.7142 148.822 72.5451 148.799 72.3698C148.777 72.1945 148.789 72.0164 148.835 71.8459C148.835 71.8459 148.835 71.8459 148.835 71.8114C148.908 71.5357 149.003 71.26 149.068 70.9929C149.137 70.7593 149.133 70.51 149.056 70.2789C148.979 70.0477 148.833 69.8458 148.637 69.7005C148.455 69.5396 148.226 69.4405 147.984 69.4173C147.742 69.3941 147.498 69.448 147.289 69.5713C147.052 69.6833 146.828 69.8211 146.595 69.946C146.277 70.1223 145.903 70.1655 145.553 70.0662C145.203 69.9669 144.907 69.7332 144.73 69.4162V69.3946C144.463 68.9121 144.178 68.4382 143.941 67.9601C143.762 67.6578 143.709 67.2966 143.796 66.9557C143.882 66.6148 144.1 66.3222 144.402 66.1421L144.493 66.0904C144.712 65.9655 144.945 65.8535 145.161 65.7285C145.373 65.6074 145.545 65.4278 145.658 65.2111C145.77 64.9944 145.818 64.7499 145.796 64.5067C145.773 64.2636 145.681 64.0321 145.53 63.8401C145.379 63.648 145.176 63.5035 144.945 63.4237C144.678 63.3376 144.394 63.273 144.135 63.1825C143.964 63.1379 143.804 63.06 143.663 62.9534C143.522 62.8467 143.404 62.7134 143.315 62.5609C143.225 62.4085 143.167 62.24 143.143 62.065C143.119 61.89 143.13 61.712 143.175 61.5412L143.213 61.4205C143.351 60.938 143.489 60.4599 143.644 59.9817C143.732 59.6482 143.946 59.3621 144.241 59.1843C144.536 59.0064 144.89 58.9509 145.225 59.0296C145.514 59.0813 145.777 59.1761 146.087 59.2536C146.333 59.3371 146.599 59.3425 146.849 59.269C147.098 59.1955 147.319 59.0467 147.48 58.843C147.642 58.6394 147.737 58.3907 147.752 58.1311C147.767 57.8715 147.702 57.6135 147.564 57.3926C147.444 57.1772 147.323 56.9618 147.211 56.7464C147.045 56.4406 147.008 56.0817 147.106 55.7482C147.205 55.4147 147.431 55.1338 147.737 54.9672H147.763C148.275 54.6785 148.792 54.4157 149.322 54.1314C149.636 53.9781 149.996 53.9497 150.329 54.0521C150.663 54.1545 150.945 54.38 151.118 54.6828C151.256 54.9198 151.377 55.161 151.515 55.398C151.629 55.6124 151.806 55.7864 152.023 55.8959C152.24 56.0055 152.485 56.0452 152.725 56.0097C152.972 55.9952 153.208 55.9046 153.401 55.7503C153.594 55.5959 153.734 55.3855 153.802 55.1481C153.884 54.8982 153.949 54.6398 154.026 54.3942C154.071 54.2205 154.15 54.0573 154.257 53.914C154.365 53.7706 154.5 53.6499 154.654 53.5587C154.809 53.4675 154.98 53.4076 155.157 53.3824C155.335 53.3572 155.516 53.3673 155.689 53.412L155.806 53.4464L157.219 53.8772C157.569 53.9639 157.87 54.1858 158.056 54.4943C158.243 54.8028 158.3 55.1727 158.214 55.5229V55.5961C158.149 55.8374 158.072 56.0872 157.998 56.3285C157.916 56.5723 157.913 56.8362 157.99 57.0818C158.068 57.3274 158.221 57.5419 158.429 57.6941C158.625 57.8611 158.869 57.9621 159.125 57.983C159.382 58.0039 159.639 57.9435 159.859 57.8104C160.07 57.6941 160.29 57.5692 160.501 57.4572C160.821 57.2837 161.196 57.2438 161.545 57.3463C161.894 57.4489 162.188 57.6855 162.362 58.0043C162.634 58.4954 162.909 58.9908 163.177 59.4862C163.348 59.7942 163.39 60.1577 163.294 60.4969C163.198 60.8362 162.972 61.1234 162.664 61.2956L162.625 61.3171C162.388 61.4464 162.138 61.5627 161.901 61.7006C161.703 61.8051 161.539 61.9649 161.43 62.1607C161.321 62.3564 161.27 62.5797 161.285 62.8034C161.284 63.042 161.356 63.2753 161.49 63.4723C161.625 63.6692 161.817 63.8206 162.039 63.9062C162.322 64.0114 162.609 64.102 162.901 64.1776C163.222 64.2497 163.501 64.4462 163.677 64.7241C163.853 65.0021 163.912 65.3385 163.84 65.6596C163.84 65.6984 163.818 65.7414 163.805 65.7802C163.659 66.3316 163.5 66.8831 163.323 67.4345C163.235 67.7583 163.024 68.0351 162.735 68.2064C162.447 68.3776 162.103 68.4299 161.776 68.3521L161.643 68.309C161.389 68.2358 161.143 68.1539 160.885 68.0936C160.648 68.026 160.395 68.0345 160.163 68.118C159.932 68.2014 159.732 68.3557 159.592 68.5589C159.438 68.7406 159.343 68.966 159.323 69.2038C159.302 69.4415 159.355 69.6798 159.476 69.8857C159.605 70.127 159.747 70.3639 159.877 70.6009C159.962 70.7538 160.016 70.9221 160.037 71.0962C160.057 71.2702 160.043 71.4465 159.995 71.615C159.947 71.7835 159.866 71.9409 159.757 72.0781C159.648 72.2153 159.513 72.3296 159.36 72.4145L159.325 72.4361C158.834 72.7118 158.339 72.9875 157.843 73.246C157.676 73.3366 157.492 73.3901 157.302 73.4028C157.112 73.4154 156.922 73.3869 156.745 73.3192ZM149.318 62.4329C149.073 63.2608 149.08 64.1425 149.337 64.9666C149.594 65.7906 150.089 66.52 150.761 67.0625C151.432 67.6049 152.249 67.9361 153.109 68.014C153.969 68.092 154.832 67.9133 155.59 67.5005C156.348 67.0877 156.967 66.4594 157.368 65.695C157.769 64.9307 157.934 64.0645 157.843 63.2062C157.752 62.3479 157.408 61.5359 156.855 60.873C156.302 60.2101 155.565 59.726 154.737 59.4819C153.631 59.1528 152.439 59.2765 151.423 59.8258C150.408 60.3751 149.652 61.3051 149.322 62.4114L149.318 62.4329Z" fill="#020202"/>
</g>
<path d="M162.293 64.3759C162.009 64.2898 161.712 64.2208 161.432 64.1088C161.209 64.0227 161.018 63.8712 160.884 63.6743C160.749 63.4774 160.677 63.2444 160.678 63.006C160.663 62.7813 160.714 62.5571 160.825 62.3612C160.936 62.1652 161.102 62.006 161.302 61.9031C161.531 61.7696 161.781 61.649 162.018 61.5154C162.173 61.4357 162.31 61.3262 162.423 61.1932C162.536 61.0602 162.621 60.9063 162.675 60.7402C162.728 60.5742 162.748 60.3993 162.733 60.2256C162.719 60.0518 162.67 59.8826 162.59 59.7276L162.569 59.6888C162.302 59.1934 162.017 58.6937 161.755 58.2112C161.669 58.0525 161.553 57.9124 161.413 57.7987C161.273 57.6851 161.112 57.6002 160.939 57.549C160.766 57.4978 160.584 57.4812 160.405 57.5002C160.226 57.5192 160.052 57.5734 159.894 57.6598L159.252 58.013C159.032 58.1467 158.775 58.2077 158.519 58.1876C158.262 58.1675 158.018 58.0673 157.822 57.901C157.762 57.8483 157.706 57.7922 157.654 57.733C157.508 57.5737 157.408 57.3777 157.364 57.166C157.321 56.9543 157.336 56.7349 157.408 56.5311C157.416 56.4855 157.432 56.4418 157.455 56.4018C157.507 56.1994 157.567 56.0012 157.619 55.7987C157.725 55.4616 157.694 55.0963 157.533 54.7819C157.372 54.4674 157.093 54.2292 156.757 54.1186L156.658 54.0841C156.309 53.9721 155.952 53.873 155.599 53.7696L155.241 53.6663L155.034 53.6189C154.712 53.5583 154.379 53.6149 154.095 53.7783C153.797 53.9636 153.578 54.2541 153.483 54.5925C153.402 54.8423 153.337 55.0965 153.259 55.3507C153.188 55.5911 153.043 55.8033 152.846 55.9578C152.648 56.1122 152.407 56.2012 152.157 56.2123C151.916 56.2485 151.67 56.2095 151.453 56.1008C151.236 55.9921 151.057 55.8189 150.942 55.6049C150.799 55.3679 150.683 55.1267 150.545 54.8854C150.376 54.5809 150.095 54.3535 149.762 54.2508C149.429 54.1481 149.069 54.1779 148.758 54.334C148.206 54.5925 147.702 54.8854 147.189 55.1654C147.035 55.2428 146.898 55.3504 146.785 55.4817C146.673 55.6131 146.589 55.7656 146.536 55.9303C146.484 56.095 146.465 56.2684 146.481 56.4404C146.497 56.6124 146.548 56.7795 146.629 56.9317V56.9576C146.741 57.1773 146.866 57.3884 146.983 57.5995C147.127 57.8188 147.197 58.0788 147.182 58.341C147.168 58.6033 147.069 58.8538 146.901 59.0555C146.744 59.2649 146.525 59.4193 146.275 59.4966C146.025 59.574 145.757 59.5704 145.509 59.4863C145.225 59.4045 144.958 59.3097 144.648 59.2537C144.312 59.1751 143.959 59.2306 143.664 59.4084C143.368 59.5862 143.154 59.8723 143.067 60.2058C142.929 60.6883 142.782 61.1665 142.636 61.649C142.575 61.8144 142.547 61.9903 142.554 62.1666C142.561 62.3428 142.602 62.516 142.676 62.6761C142.75 62.8362 142.855 62.9801 142.985 63.0996C143.115 63.219 143.267 63.3116 143.433 63.3722L143.562 63.4152C143.829 63.5057 144.114 63.5617 144.368 63.6565C144.608 63.7273 144.821 63.8718 144.976 64.0696C145.13 64.2674 145.219 64.5086 145.229 64.7593C145.263 65.0001 145.22 65.2454 145.106 65.4603C144.992 65.6752 144.814 65.849 144.596 65.9569C144.376 66.0862 144.144 66.2025 143.924 66.3231C143.609 66.4804 143.37 66.7558 143.258 67.0892C143.145 67.4226 143.17 67.7868 143.325 68.1023C143.325 68.1325 143.355 68.1626 143.373 68.1885C143.631 68.671 143.898 69.1492 144.161 69.623C144.248 69.7827 144.366 69.9237 144.507 70.0378C144.649 70.152 144.811 70.2371 144.986 70.2883C145.16 70.3395 145.343 70.3558 145.524 70.3363C145.705 70.3168 145.88 70.2618 146.039 70.1745C146.272 70.0495 146.5 69.916 146.737 69.7954C146.948 69.6747 147.19 69.6222 147.432 69.6454C147.673 69.6685 147.902 69.7661 148.085 69.9246C148.283 70.0758 148.432 70.2807 148.516 70.5148C148.581 70.7517 148.581 71.0016 148.516 71.2385C148.469 71.4152 148.413 71.5918 148.361 71.79L148.279 72.07C148.224 72.2863 148.219 72.5126 148.267 72.731C148.314 72.9493 148.411 73.1537 148.551 73.3279C148.724 73.5346 148.955 73.6847 149.214 73.7587L150.731 74.1895C151.064 74.289 151.423 74.2547 151.732 74.0938C152.041 73.933 152.275 73.6583 152.385 73.3279C152.48 73.0608 152.544 72.7765 152.626 72.518C152.693 72.2715 152.836 72.0519 153.033 71.8898C153.231 71.7278 153.474 71.6311 153.729 71.6133C153.978 71.5761 154.232 71.6181 154.455 71.7333C154.679 71.8485 154.86 72.0311 154.974 72.2552C155.107 72.4835 155.228 72.7205 155.353 72.9531C155.531 73.2663 155.823 73.4986 156.168 73.6013C156.514 73.7041 156.885 73.6694 157.205 73.5045C157.701 73.2331 158.196 72.9531 158.687 72.6946C158.843 72.6149 158.981 72.5053 159.094 72.3719C159.208 72.2386 159.293 72.0842 159.346 71.9177C159.4 71.7512 159.42 71.5757 159.405 71.4015C159.39 71.2273 159.341 71.0577 159.26 70.9025C159.255 70.8887 159.248 70.8757 159.239 70.8637C159.105 70.6225 158.963 70.3899 158.843 70.1486C158.718 69.9433 158.662 69.704 158.682 69.4649C158.703 69.2258 158.798 68.9992 158.955 68.8175C159.094 68.6199 159.29 68.4695 159.517 68.3864C159.744 68.3032 159.991 68.2913 160.225 68.3522C160.484 68.4125 160.734 68.4987 160.988 68.5719C161.305 68.6783 161.65 68.6578 161.952 68.5148C162.254 68.3719 162.489 68.1175 162.608 67.8051C162.62 67.7683 162.63 67.7309 162.638 67.6931C162.823 67.1416 162.982 66.5945 163.125 66.0431C163.183 65.8901 163.21 65.7271 163.205 65.5635C163.2 65.3999 163.163 65.2388 163.096 65.0896C163.029 64.9403 162.933 64.8058 162.814 64.6937C162.694 64.5816 162.554 64.4941 162.401 64.4362L162.293 64.3759ZM157.167 65.1169C156.89 66.039 156.319 66.8453 155.541 67.4124C154.763 67.9795 153.821 68.2763 152.859 68.2574C152.682 68.2532 152.507 68.2359 152.333 68.2057C152.134 68.1769 151.937 68.1352 151.743 68.0808C151.613 68.0413 151.485 67.9953 151.36 67.9429C150.322 67.5243 149.486 66.723 149.023 65.7047C148.56 64.6865 148.506 63.5293 148.872 62.4724C149.238 61.4156 149.997 60.5399 150.991 60.0266C151.985 59.5133 153.138 59.4016 154.211 59.7147C154.601 59.8308 154.973 60.002 155.314 60.223C155.62 60.413 155.897 60.645 156.137 60.9123C156.278 61.0534 156.406 61.2062 156.521 61.3689C156.797 61.763 157.008 62.1995 157.145 62.6613C157.39 63.4604 157.398 64.3136 157.167 65.1169Z" fill="#397AF6"/>
</g>
<defs>
<linearGradient id="paint0_linear_598_3803" x1="168.972" y1="27.1493" x2="93.7907" y2="66.5319" gradientUnits="userSpaceOnUse">
<stop/>
<stop offset="1" stop-opacity="0"/>
</linearGradient>
<linearGradient id="paint1_linear_598_3803" x1="-4072.21" y1="12571.2" x2="2943.35" y2="13195.5" gradientUnits="userSpaceOnUse">
<stop/>
<stop offset="1" stop-opacity="0"/>
</linearGradient>
<linearGradient id="paint2_linear_598_3803" x1="-867.466" y1="-5338.19" x2="765.436" y2="-6048.98" gradientUnits="userSpaceOnUse">
<stop/>
<stop offset="1" stop-opacity="0"/>
</linearGradient>
<linearGradient id="paint3_linear_598_3803" x1="140.875" y1="-708.314" x2="161.354" y2="-713.563" gradientUnits="userSpaceOnUse">
<stop/>
<stop offset="1" stop-opacity="0"/>
</linearGradient>
<linearGradient id="paint4_linear_598_3803" x1="147.016" y1="-733.373" x2="167.843" y2="-743.695" gradientUnits="userSpaceOnUse">
<stop/>
<stop offset="1" stop-opacity="0"/>
</linearGradient>
<linearGradient id="paint5_linear_598_3803" x1="153.907" y1="-737.719" x2="174.741" y2="-748.066" gradientUnits="userSpaceOnUse">
<stop/>
<stop offset="1" stop-opacity="0"/>
</linearGradient>
<clipPath id="clip0_598_3803">
<rect width="178.86" height="134.64" fill="white"/>
</clipPath>
</defs>
</svg>
