<svg width="179" height="135" viewBox="0 0 179 135" fill="none" xmlns="http://www.w3.org/2000/svg">
<g clip-path="url(#clip0_598_3884)">
<path opacity="0.05" d="M50.9346 17.0784C43.4933 20.0529 35.5402 22.1019 28.9864 26.7065C22.4326 31.3111 17.4763 39.4635 19.6363 47.1692C21.3122 53.1368 26.9001 57.8035 27.1537 64.0036C27.3566 68.9466 24.0831 73.2634 22.345 77.8956C18.8341 87.2543 21.8701 98.1557 28.0827 105.983C34.2954 113.811 43.2512 119.019 52.4261 123.007C74.1692 132.427 97.9992 136.011 121.556 133.404C128.578 132.616 135.662 131.235 141.886 127.897C148.11 124.558 153.433 119.026 155.173 112.188C157.541 102.898 153.112 92.8719 155.533 83.596C156.48 79.9584 158.444 76.6362 159.281 72.971C161.294 64.1371 156.39 55.1144 150.152 48.5391C143.914 41.9638 136.215 36.8159 130.512 29.7709C126.561 24.8923 123.665 19.2172 119.603 14.4307C111.623 5.01207 98.7339 -0.545649 86.3685 0.0437367C74.0839 0.626215 62.5185 12.4439 50.9346 17.0784Z" fill="#397AF6"/>
<path d="M124.442 7.98279H54.4248C49.9663 7.98279 46.3519 11.5925 46.3519 16.0454V115.435C46.3519 119.888 49.9663 123.498 54.4248 123.498H124.442C128.901 123.498 132.515 119.888 132.515 115.435V16.0454C132.515 11.5925 128.901 7.98279 124.442 7.98279Z" fill="#397AF6"/>
<path d="M124.442 7.98279H54.4248C49.9663 7.98279 46.3519 11.5925 46.3519 16.0454V115.435C46.3519 119.888 49.9663 123.498 54.4248 123.498H124.442C128.901 123.498 132.515 119.888 132.515 115.435V16.0454C132.515 11.5925 128.901 7.98279 124.442 7.98279Z" fill="url(#paint0_linear_598_3884)"/>
<path d="M126.777 21.267V112.636C126.776 114.533 126.021 116.352 124.677 117.694C123.334 119.036 121.512 119.79 119.613 119.791H59.7384C58.7979 119.791 57.8665 119.606 56.9975 119.247C56.1285 118.887 55.339 118.36 54.6739 117.696C54.0088 117.032 53.4812 116.243 53.1213 115.375C52.7613 114.507 52.5761 113.577 52.5761 112.638V112.638V21.267C52.5757 20.3276 52.7607 19.3974 53.1204 18.5294C53.48 17.6614 54.0074 16.8727 54.6722 16.2082C55.3371 15.5438 56.1265 15.0166 56.9954 14.6568C57.8643 14.2971 58.7956 14.1118 59.7361 14.1115H119.606C120.547 14.1108 121.479 14.2955 122.349 14.6548C123.219 15.0141 124.01 15.541 124.676 16.2055C125.342 16.87 125.87 17.659 126.231 18.5274C126.591 19.3959 126.777 20.3268 126.777 21.267V21.267Z" fill="#397AF6"/>
<path opacity="0.69" d="M126.777 21.267V112.636C126.776 114.533 126.021 116.352 124.677 117.694C123.334 119.036 121.512 119.79 119.613 119.791H59.7384C58.7979 119.791 57.8665 119.606 56.9975 119.247C56.1285 118.887 55.339 118.36 54.6739 117.696C54.0088 117.032 53.4812 116.243 53.1213 115.375C52.7613 114.507 52.5761 113.577 52.5761 112.638V112.638V21.267C52.5757 20.3276 52.7607 19.3974 53.1204 18.5294C53.48 17.6614 54.0074 16.8727 54.6722 16.2082C55.3371 15.5438 56.1265 15.0166 56.9954 14.6568C57.8643 14.2971 58.7956 14.1118 59.7361 14.1115H119.606C120.547 14.1108 121.479 14.2955 122.349 14.6548C123.219 15.0141 124.01 15.541 124.676 16.2055C125.342 16.87 125.87 17.659 126.231 18.5274C126.591 19.3959 126.777 20.3268 126.777 21.267V21.267Z" fill="url(#paint1_linear_598_3884)"/>
<path opacity="0.6" d="M89.7943 24.9645C90.0041 24.0436 90.2138 23.1227 90.1308 22.1833C89.4112 22.9213 88.4281 23.3443 87.3968 23.3598C87.2745 23.3458 87.1507 23.3691 87.0418 23.4266C86.9716 23.4926 86.9184 23.5746 86.8867 23.6656C86.855 23.7566 86.8457 23.8539 86.8597 23.9492C86.8597 25.0796 86.8413 26.2722 86.2626 27.2415C85.684 28.2107 84.6882 28.761 83.6485 29.0833C81.3433 29.8154 78.8559 29.4954 76.47 29.127C75.9236 29.0419 75.3519 28.9452 74.9185 28.6044C74.3307 28.144 74.1301 27.3244 74.2085 26.583C74.2869 25.8417 74.605 25.1487 74.9001 24.458C75.3611 23.3644 75.7369 22.1972 75.6147 21.0207C75.4925 19.8442 74.7433 18.6632 73.5953 18.3731C73.3543 18.2997 73.0984 18.2894 72.8522 18.343C72.606 18.3966 72.3777 18.5124 72.1891 18.6793C72.0086 18.8806 71.8692 19.1152 71.7788 19.37C70.801 21.7732 70.1677 24.3023 69.8977 26.8823C68.5653 26.758 67.2951 27.4349 65.9788 27.619C65.1328 27.7388 53.4383 27.7986 52.5876 27.7411C52.5876 27.7411 52.4678 29.0833 52.7836 29.5161C53.0994 29.949 54.8145 29.9559 55.3193 30.147C58.9132 31.5283 62.8667 31.4385 66.698 31.7885C73.2403 32.3848 81.1035 34.4753 86.8805 30.2575C88.6762 28.9452 89.3148 27.0688 89.7943 24.9645Z" fill="url(#paint2_linear_598_3884)"/>
<path opacity="0.6" d="M98.8216 55.8819C98.9346 53.6878 98.2799 51.5213 97.3947 49.5091C96.5095 47.4969 95.396 45.5953 94.5154 43.5808C94.2849 43.072 94.1282 42.3767 94.5754 42.0474C94.7137 42.3928 95.2508 42.2938 95.5182 42.0336C95.7856 41.7735 95.9793 41.4005 96.3504 41.3153C96.8804 42.1706 97.3347 43.0703 97.7082 44.0044L100.327 49.9903C100.606 50.6304 100.899 51.2911 101.427 51.747C102.245 52.4515 103.448 52.5182 104.497 52.4929C105.193 52.474 105.886 52.4047 106.572 52.2857C107.34 52.1522 108.209 51.9311 108.66 51.2773C109.352 50.2643 108.693 48.8254 109.121 47.6719C109.324 47.193 109.65 46.7766 110.067 46.4655C110.599 46.035 111.332 45.6989 111.955 45.9866C112.264 46.1594 112.523 46.4083 112.708 46.7096C114.322 48.9566 115.223 51.7101 117.176 53.6648C118.298 53.6529 119.375 53.2188 120.191 52.4492C120.98 51.7009 121.574 50.7754 122.19 49.8844C123.25 48.3557 124.41 46.8914 125.569 45.4456L126.819 43.8778C126.853 43.8256 126.903 43.7854 126.962 43.7626C127.105 43.7258 127.192 43.9077 127.234 44.0527C127.695 46.1685 126.298 48.2222 124.799 49.7831C123.647 50.9872 122.326 52.1499 121.514 53.575C121.447 53.6924 121.404 53.8218 121.388 53.9559C121.371 54.09 121.381 54.2261 121.417 54.3563C121.453 54.4866 121.514 54.6085 121.597 54.715C121.68 54.8215 121.784 54.9106 121.902 54.9771C122.031 55.0502 122.174 55.0949 122.321 55.1083C125.055 55.3385 127.854 54.8021 130.606 55.1359C131.439 55.2372 132.414 55.548 132.55 56.4252C132.575 56.6471 132.547 56.872 132.467 57.0805C132.386 57.289 132.257 57.475 132.089 57.6224C131.503 58.1796 130.705 58.2901 129.931 58.3845C121.21 59.455 112.411 59.7658 103.633 60.0536C103.287 60.0851 102.938 60.0562 102.602 59.9684C101.874 59.7382 101.45 58.9923 101.037 58.3568C100.422 57.4296 99.6756 56.596 98.8216 55.8819V55.8819Z" fill="url(#paint3_linear_598_3884)"/>
<path d="M83.6693 34.6916V49.4907L82.6388 48.503C80.8952 46.8291 78.5704 45.8943 76.1518 45.8946H39.5146C38.0472 45.8946 36.64 45.3124 35.6025 44.2762C34.5649 43.2399 33.982 41.8345 33.982 40.3691V34.6916C33.982 33.2262 34.5649 31.8208 35.6025 30.7845C36.64 29.7483 38.0472 29.1661 39.5146 29.1661H78.1367C79.0367 29.1645 79.9234 29.3829 80.7194 29.8023C81.5154 30.2217 82.1965 30.8293 82.7034 31.572V31.572C83.336 32.4894 83.673 33.5778 83.6693 34.6916V34.6916Z" fill="white"/>
<path d="M143.571 61.8126V67.4877C143.571 68.9532 142.988 70.3586 141.951 71.3948C140.913 72.4311 139.506 73.0132 138.038 73.0132H101.42C99.0005 73.0136 96.6752 73.9483 94.9304 75.6217L93.893 76.6025V61.8126C93.893 60.3511 94.4727 58.9492 95.5053 57.9136C96.5379 56.878 97.9392 56.2932 99.4025 56.2871H138.045C139.511 56.2889 140.917 56.8719 141.953 57.9079C142.989 58.944 143.571 60.3483 143.571 61.8126Z" fill="white"/>
<path d="M103.059 55.1635C102.828 54.703 102.459 54.3531 102.233 53.9064C101.749 52.9533 102.033 51.7699 102.604 50.8674C102.835 50.4922 103.135 50.1307 103.22 49.6956C103.319 49.1845 103.121 48.6273 103.335 48.153C103.51 47.7709 103.907 47.5498 104.257 47.3058C104.79 46.9259 105.251 46.4286 105.852 46.1754C106.454 45.9221 107.289 46.0142 107.584 46.599C108.139 46.325 108.842 46.5737 109.257 47.0295C109.672 47.4854 109.857 48.107 109.983 48.7102C110.092 49.4022 110.251 50.0855 110.458 50.7546C110.703 51.4108 111.131 52.0347 111.765 52.3317C112.996 52.9073 114.712 52.1613 115.684 53.1191C116.182 53.6141 116.36 54.4889 117.035 54.6777C117.383 54.7744 117.761 54.6478 118.107 54.7399C118.704 54.901 118.951 55.6216 118.965 56.2387C118.975 56.8436 118.86 57.4441 118.627 58.0027C118.394 58.5612 118.048 59.0658 117.612 59.4849C117.183 59.8924 116.634 60.2723 116.547 60.8663C116.537 61.1672 116.56 61.4682 116.616 61.7642C116.649 62.1621 116.566 62.5611 116.377 62.9131C116.188 63.2651 115.901 63.5551 115.551 63.7482C115.201 63.9413 114.803 64.0294 114.404 64.0017C114.005 63.974 113.623 63.8318 113.303 63.5922C112.814 63.2284 112.402 62.6183 111.793 62.6459C111.527 62.6832 111.274 62.7843 111.055 62.9406C110.577 63.2674 110.047 63.5124 109.488 63.6658C109.207 63.7398 108.912 63.7444 108.629 63.6795C108.346 63.6145 108.083 63.4818 107.863 63.2929C107.517 62.9544 107.388 62.4617 107.219 62.0059C106.947 61.2692 106.452 60.5117 105.68 60.3644C105.348 60.3022 105.004 60.3644 104.672 60.3091C102.422 59.9476 103.743 56.5426 103.059 55.1635Z" fill="#3F3D56"/>
<path d="M121.076 47.4255C121.636 46.5344 122.059 45.5642 122.33 44.5476C122.449 44.1214 122.644 43.7203 122.907 43.3643C122.933 43.3286 122.97 43.3024 123.012 43.2898C123.054 43.2772 123.1 43.2789 123.141 43.2946C123.182 43.3104 123.217 43.3393 123.24 43.3768C123.263 43.4144 123.273 43.4585 123.269 43.5024L123.176 44.4233C123.638 43.8892 124.184 42.9107 124.956 42.098C124.977 42.0771 125.006 42.0653 125.036 42.0653C125.065 42.0653 125.094 42.0771 125.115 42.098C125.13 42.1134 125.14 42.1324 125.144 42.1532C125.149 42.1739 125.148 42.1954 125.141 42.2154L124.518 43.7741C124.516 43.7819 124.515 43.7902 124.515 43.7984C124.516 43.8066 124.519 43.8146 124.522 43.8219C124.526 43.8292 124.532 43.8356 124.538 43.8408C124.544 43.8461 124.552 43.85 124.56 43.8524V43.8524C124.571 43.8558 124.583 43.8558 124.595 43.8526C124.606 43.8493 124.616 43.8428 124.624 43.8339L125.546 42.593C126.047 42.2338 125.989 42.7611 125.943 42.8854L125.341 44.0365C125.334 44.0524 125.333 44.0701 125.337 44.0867C125.342 44.1034 125.352 44.118 125.366 44.1282C125.38 44.1384 125.397 44.1435 125.414 44.1428C125.431 44.142 125.448 44.1354 125.461 44.124C125.724 43.8663 126.003 43.6263 126.298 43.4057C126.334 43.3814 126.377 43.3701 126.421 43.3734C126.464 43.3768 126.505 43.3947 126.537 43.4243C126.569 43.4538 126.59 43.4933 126.597 43.5363C126.604 43.5793 126.596 43.6233 126.574 43.6613L125.652 44.9482C125.542 45.1025 125.447 45.1923 125.636 45.1785L126.3 44.9344C126.498 44.8561 126.404 45.3097 126.231 45.4317C125.265 46.1224 124.873 46.6611 124.205 47.2344C123.536 47.8077 119.246 54.8734 117.289 57.3783C116.577 58.2877 115.214 58.8932 114.663 57.4289C114.251 56.3192 115.516 55.2809 116.125 54.4774C117.871 52.2012 119.521 49.8506 121.076 47.4255Z" fill="url(#paint4_linear_598_3884)"/>
<path d="M91.1797 86.6082L46.2781 86.325C44.5758 86.3159 42.9395 86.9823 41.7291 88.1778C40.5186 89.3733 39.8332 90.9999 39.8234 92.7001L39.7819 99.3076C39.7765 100.15 39.9372 100.986 40.2551 101.766C40.5729 102.547 41.0416 103.257 41.6343 103.857C42.2271 104.457 42.9323 104.934 43.7097 105.261C44.4871 105.589 45.3214 105.76 46.1652 105.766L88.7407 106.03C91.5539 106.049 94.2509 107.154 96.2673 109.113L97.4592 110.264L97.526 99.6737L97.5421 97.1412L97.5675 93.0615C97.5767 91.3614 96.9094 89.7272 95.7124 88.5183C94.5154 87.3095 92.8866 86.6249 91.1843 86.6151L91.1797 86.6082Z" fill="white"/>
<path d="M83.2749 11.0287H97.8948C98.0782 11.0287 98.2541 11.1015 98.3838 11.231C98.5135 11.3605 98.5864 11.5362 98.5864 11.7194V11.7194C98.5864 11.9026 98.5135 12.0782 98.3838 12.2078C98.2541 12.3373 98.0782 12.4101 97.8948 12.4101H83.2749C83.0915 12.4101 82.9156 12.3373 82.7859 12.2078C82.6562 12.0782 82.5834 11.9026 82.5834 11.7194V11.7194C82.5834 11.5362 82.6562 11.3605 82.7859 11.231C82.9156 11.1015 83.0915 11.0287 83.2749 11.0287V11.0287Z" fill="url(#paint5_linear_598_3884)"/>
<path d="M83.1689 35.0553C81.9518 35.5802 81.7374 35.4973 80.4349 35.7252C79.1325 35.9532 78.1135 35.7874 76.8733 35.3246C76.0227 37.917 75.119 40.7488 74.8885 43.4655C74.8126 44.2832 74.6809 45.0947 74.4943 45.8944H66.6565C66.6334 45.7195 66.6127 45.5399 66.5942 45.3534C66.3875 42.8521 66.416 40.337 66.6795 37.841C66.7007 37.6884 66.7138 37.5347 66.7187 37.3806C66.7245 37.2548 66.7152 37.1289 66.6911 37.0053C66.6239 36.7396 66.5133 36.4868 66.3637 36.2571C66.0525 35.7114 65.301 34.8757 64.8837 34.2702C64.8284 34.1873 64.7777 34.109 64.7362 34.04C64.9875 32.8888 66.0963 32.3248 66.6127 31.2772C66.9955 30.4761 67.5393 29.7621 68.2102 29.1798C68.4265 28.9979 68.6578 28.8346 68.9018 28.6918C69.787 28.1783 70.8082 27.9734 71.8271 27.8192C71.9862 27.7939 72.143 27.7708 72.302 27.7501C72.9552 28.2265 73.7328 28.5032 74.5404 28.5467C74.7949 28.5412 75.049 28.5683 75.2965 28.6273C75.5062 28.7071 75.7021 28.819 75.8775 28.9588L76.1864 29.189C76.7534 29.5919 77.3205 29.9995 77.8876 30.4047C78.2809 30.7034 78.6998 30.9668 79.1394 31.192C80.5617 31.8643 81.1496 31.8021 82.7125 31.6042C82.8946 32.5872 83.079 34.04 83.1689 35.0553Z" fill="#397AF6"/>
<path d="M71.8157 27.7525C71.4077 28.1277 72.5949 29.4239 73.0259 29.7739C73.457 30.1238 74.1117 30.1215 74.6581 29.9604C75.0223 29.8545 75.4096 29.6496 75.5087 29.2812C75.5416 29.0189 75.5173 28.7527 75.4372 28.5007C75.3381 27.9597 75.4372 27.391 75.2897 26.8569C75.1247 26.3179 74.789 25.8469 74.333 25.5147C73.9065 25.1808 72.7562 24.2944 72.5188 25.1808C72.2606 26.1248 72.7701 26.8684 71.8157 27.7525Z" fill="url(#paint6_linear_598_3884)"/>
<path d="M71.7234 45.8945H66.8823C66.7928 45.7091 66.6935 45.5285 66.585 45.3535C66.5619 45.3176 66.5349 45.2843 66.5043 45.2545C66.2919 45.0311 66.1445 44.7541 66.0778 44.4533C65.4555 42.3087 65.5568 40.0193 66.366 37.9378C66.4399 37.7287 66.5569 37.5373 66.7094 37.3761C66.9584 37.1113 67.2397 36.9824 67.5048 36.4943C68.028 35.5343 69.0262 33.8973 69.5195 32.9235C69.7155 34.8136 68.9801 36.5657 69.0585 38.4628C69.0977 39.5679 69.1392 40.6914 69.5195 41.732C69.835 42.5909 70.3337 43.371 70.9811 44.0182C71.2208 44.2922 71.5966 45.197 71.7234 45.8945Z" fill="url(#paint7_linear_598_3884)"/>
<path d="M82.7033 31.5881C82.7033 31.5881 83.1113 34.5604 83.0952 34.39C83.0791 34.2196 88.9159 32.6311 90.5826 27.1125C90.71 26.9289 90.8656 26.7665 91.0437 26.6313C93.1184 25.0842 93.4411 24.4326 92.821 24.8125C92.5 25.0326 92.111 25.1313 91.7237 25.0911C91.9525 24.899 92.1645 24.688 92.3577 24.4602C92.602 24.1632 93.1369 23.857 93.2683 23.4979C93.2873 23.4577 93.2953 23.4132 93.2913 23.369C93.2791 23.3277 93.2529 23.2919 93.2171 23.268C93.1813 23.244 93.1382 23.2333 93.0954 23.2377C93.0123 23.2498 92.9333 23.2813 92.8648 23.3298C92.5522 23.525 92.2526 23.7403 91.9681 23.9745C91.7906 24.1195 91.3019 24.3152 91.4702 23.9745C91.733 23.4334 92.3162 23.0743 92.4706 22.4941C92.4836 22.4618 92.4891 22.427 92.4867 22.3924C92.4843 22.3577 92.4741 22.324 92.4568 22.2938C92.3969 22.2201 92.277 22.2431 92.1894 22.2938C91.8736 22.4365 90.9215 23.7419 90.6887 23.712C90.4559 23.6821 90.9399 22.3168 90.9584 22.0544C90.9584 21.983 90.9584 21.8978 90.8962 21.8633C90.8624 21.8509 90.8256 21.8493 90.7908 21.8588C90.7561 21.8683 90.7253 21.8884 90.7025 21.9162C90.0939 22.4181 90.0109 23.2976 89.619 23.9883C89.5669 24.1049 89.4721 24.1972 89.3539 24.2461C89.1027 24.3198 88.8929 24.0343 88.637 23.9768C88.5915 23.9606 88.5419 23.9606 88.4964 23.9768C88.3558 24.0389 88.3765 24.2576 88.4618 24.3866C89.6144 26.1409 86.6799 30.361 82.7033 31.5881Z" fill="url(#paint8_linear_598_3884)"/>
<path d="M65.5385 34.595C65.5385 34.595 64.3283 44.3244 65.255 45.8946H67.2675C66.8551 42.7682 66.9329 39.5968 67.498 36.4944C67.498 36.4944 67.3205 34.9633 65.5385 34.595Z" fill="url(#paint9_linear_598_3884)"/>
<path opacity="0.32" d="M59.2958 34.0309H38.1567C37.4412 34.0309 36.8611 34.6102 36.8611 35.3248V35.3271C36.8611 36.0417 37.4412 36.621 38.1567 36.621H59.2958C60.0113 36.621 60.5913 36.0417 60.5913 35.3271V35.3248C60.5913 34.6102 60.0113 34.0309 59.2958 34.0309Z" fill="#397AF6"/>
<path opacity="0.32" d="M59.2958 39.333H38.1567C37.4412 39.333 36.8611 39.9123 36.8611 40.6269V40.6292C36.8611 41.3438 37.4412 41.9231 38.1567 41.9231H59.2958C60.0113 41.9231 60.5913 41.3438 60.5913 40.6292V40.6269C60.5913 39.9123 60.0113 39.333 59.2958 39.333Z" fill="#397AF6"/>
<path opacity="0.32" d="M138.765 62.7887H117.625C117.282 62.7887 116.952 62.6524 116.709 62.4099C116.465 62.1673 116.328 61.8382 116.328 61.4948V61.4948C116.328 61.3249 116.361 61.1566 116.426 60.9997C116.491 60.8427 116.587 60.7 116.707 60.5799C116.827 60.4597 116.97 60.3644 117.127 60.2994C117.285 60.2344 117.453 60.2009 117.623 60.2009H138.765C138.935 60.2009 139.103 60.2344 139.26 60.2994C139.418 60.3644 139.56 60.4597 139.681 60.5799C139.801 60.7 139.896 60.8427 139.961 60.9997C140.027 61.1566 140.06 61.3249 140.06 61.4948V61.4948C140.06 61.838 139.924 62.1671 139.681 62.4097C139.438 62.6524 139.108 62.7887 138.765 62.7887Z" fill="#397AF6"/>
<path opacity="0.32" d="M138.765 68.0909H117.625C117.282 68.0909 116.952 67.9546 116.709 67.712C116.465 67.4695 116.328 67.1404 116.328 66.797V66.797C116.328 66.6274 116.362 66.4595 116.428 66.3031C116.493 66.1466 116.589 66.0046 116.71 65.8851C116.83 65.7655 116.973 65.6709 117.13 65.6066C117.287 65.5422 117.456 65.5094 117.625 65.51H138.765C139.108 65.51 139.438 65.6463 139.681 65.889C139.924 66.1316 140.06 66.4607 140.06 66.8039V66.8039C140.058 67.1457 139.92 67.4727 139.678 67.7137C139.435 67.9547 139.107 68.0903 138.765 68.0909V68.0909Z" fill="#397AF6"/>
<path opacity="0.32" d="M79.2362 93.1582H58.0994C57.7556 93.1582 57.4259 93.0219 57.1825 92.7794C56.9392 92.5368 56.8022 92.2077 56.8016 91.8643V91.8643C56.8016 91.5205 56.9383 91.1908 57.1817 90.9478C57.4251 90.7047 57.7552 90.5681 58.0994 90.5681H79.2362C79.5798 90.5681 79.9094 90.7044 80.1523 90.9471C80.3953 91.1897 80.5318 91.5188 80.5318 91.862C80.5321 92.0319 80.4989 92.2002 80.434 92.3573C80.3692 92.5144 80.274 92.6572 80.1539 92.7776C80.0339 92.898 79.8912 92.9935 79.7341 93.0588C79.5771 93.1241 79.4087 93.1579 79.2385 93.1582H79.2362Z" fill="#397AF6"/>
<path opacity="0.32" d="M79.2385 96.485H58.0994C57.3839 96.485 56.8039 97.0643 56.8039 97.7789V97.7812C56.8039 98.4958 57.3839 99.0751 58.0994 99.0751H79.2385C79.9541 99.0751 80.5341 98.4958 80.5341 97.7812V97.7789C80.5341 97.0643 79.9541 96.485 79.2385 96.485Z" fill="#397AF6"/>
<path d="M116.254 58.3384C116.1 58.7733 115.839 59.1627 115.495 59.4711C114.852 60.0582 114.036 60.4266 113.402 61.0228C111.996 62.3444 111.763 64.4556 111.616 66.378L111.102 73.0132H101.42C100.726 73.0137 100.034 73.091 99.3565 73.2434C99.4809 71.463 99.5885 69.6825 99.6792 67.9021C99.8498 64.5569 99.8567 60.8778 97.722 58.2923C97.5006 58.0822 97.3479 57.8102 97.284 57.5119C97.2564 57.1688 97.4892 56.8649 97.7082 56.5909C97.722 56.5771 97.7313 56.5633 97.7451 56.5472L99.1697 54.809C99.2419 54.6928 99.3365 54.5922 99.4482 54.5131C99.5598 54.434 99.6862 54.3781 99.8198 54.3485C100.055 54.3633 100.275 54.4671 100.435 54.6386C100.984 55.1374 101.484 55.6871 101.929 56.2801C102.222 56.6485 102.508 57.0215 102.812 57.3806C104.248 59.0751 106.44 60.2677 108.511 58.9093C109.932 57.9473 111.414 57.0761 112.946 56.3009C113.66 55.9551 114.391 55.6477 115.138 55.3799C115.094 55.7368 115.286 56.0269 115.523 56.3009C115.778 56.5604 116.003 56.8486 116.192 57.1596C116.279 57.3423 116.33 57.5405 116.34 57.7428C116.351 57.9451 116.322 58.1475 116.254 58.3384V58.3384Z" fill="#397AF6"/>
<path d="M99.3703 56.4713C99.8154 55.6798 99.9626 54.7554 99.7852 53.8651C99.6078 52.984 99.3245 52.1275 98.9415 51.3142L96.5118 45.5584C96.2933 45.0891 96.1241 44.5984 96.0069 44.0942C95.8387 43.2331 95.9747 42.3444 96.1107 41.4788C95.9567 41.4348 95.7918 41.4513 95.6496 41.5248C95.6714 41.7578 95.6229 41.9919 95.5103 42.197C95.3978 42.4022 95.2263 42.569 95.018 42.676C94.8042 41.8109 94.4115 41 93.8654 40.2954C93.9253 40.9385 93.9699 41.5832 93.9991 42.2293C93.4919 41.709 92.9832 41.1902 92.473 40.673C92.0788 41.3637 93.4965 42.0981 93.1646 42.8256L91.491 41.6215C91.3688 42.4411 92.6966 42.8279 92.7681 43.6568L91.567 43.0973C91.8206 43.7166 92.4085 44.1195 92.8741 44.603C94.5846 46.4011 94.5846 49.1845 95.6542 51.4201C96.2674 52.707 96.9244 53.7592 97.2011 55.1659C97.4085 56.2226 98.3191 58.1589 99.3703 56.4713Z" fill="url(#paint10_linear_598_3884)"/>
<path d="M63.0879 69.3687C64.0899 69.3687 64.9021 68.5575 64.9021 67.5568C64.9021 66.5561 64.0899 65.7449 63.0879 65.7449C62.0859 65.7449 61.2737 66.5561 61.2737 67.5568C61.2737 68.5575 62.0859 69.3687 63.0879 69.3687Z" fill="#397AF6"/>
<path d="M68.6643 69.3687C69.6663 69.3687 70.4786 68.5575 70.4786 67.5568C70.4786 66.5561 69.6663 65.7449 68.6643 65.7449C67.6624 65.7449 66.8501 66.5561 66.8501 67.5568C66.8501 68.5575 67.6624 69.3687 68.6643 69.3687Z" fill="#397AF6"/>
<path d="M74.2407 69.3687C75.2427 69.3687 76.055 68.5575 76.055 67.5568C76.055 66.5561 75.2427 65.7449 74.2407 65.7449C73.2388 65.7449 72.4265 66.5561 72.4265 67.5568C72.4265 68.5575 73.2388 69.3687 74.2407 69.3687Z" fill="#397AF6"/>
<path d="M107.699 100.109C108.701 100.109 109.513 99.2976 109.513 98.2969C109.513 97.2962 108.701 96.485 107.699 96.485C106.697 96.485 105.885 97.2962 105.885 98.2969C105.885 99.2976 106.697 100.109 107.699 100.109Z" fill="#397AF6"/>
<path d="M113.273 100.109C114.275 100.109 115.087 99.2976 115.087 98.2969C115.087 97.2962 114.275 96.485 113.273 96.485C112.271 96.485 111.459 97.2962 111.459 98.2969C111.459 99.2976 112.271 100.109 113.273 100.109Z" fill="#397AF6"/>
<path d="M118.847 100.109C119.849 100.109 120.661 99.2976 120.661 98.2969C120.661 97.2962 119.849 96.485 118.847 96.485C117.845 96.485 117.033 97.2962 117.033 98.2969C117.033 99.2976 117.845 100.109 118.847 100.109Z" fill="#397AF6"/>
<path d="M100.308 38.4307C101.31 38.4307 102.123 37.6195 102.123 36.6188C102.123 35.6181 101.31 34.8069 100.308 34.8069C99.3065 34.8069 98.4942 35.6181 98.4942 36.6188C98.4942 37.6195 99.3065 38.4307 100.308 38.4307Z" fill="#397AF6"/>
<path d="M105.885 38.4307C106.887 38.4307 107.699 37.6195 107.699 36.6188C107.699 35.6181 106.887 34.8069 105.885 34.8069C104.883 34.8069 104.071 35.6181 104.071 36.6188C104.071 37.6195 104.883 38.4307 105.885 38.4307Z" fill="#397AF6"/>
<path d="M111.459 38.4307C112.461 38.4307 113.273 37.6195 113.273 36.6188C113.273 35.6181 112.461 34.8069 111.459 34.8069C110.457 34.8069 109.645 35.6181 109.645 36.6188C109.645 37.6195 110.457 38.4307 111.459 38.4307Z" fill="#397AF6"/>
<path d="M78.7913 25.0772C78.5423 25.9429 78.132 26.7947 77.4381 27.3795C76.9625 27.7761 76.3794 28.0224 75.7632 28.0871C75.147 28.1519 74.5254 28.0321 73.9776 27.7431C73.4297 27.4541 72.9802 27.0089 72.6864 26.4641C72.3925 25.9193 72.2676 25.2995 72.3274 24.6835C72.3274 24.6122 72.3274 24.5247 72.2767 24.4832C72.2229 24.4648 72.1645 24.4648 72.1107 24.4832C71.7718 24.5178 71.5206 24.1678 71.4191 23.8455C71.3269 23.6017 71.3038 23.3372 71.3523 23.0812C71.3783 22.9544 71.4374 22.8367 71.5237 22.7401C71.6099 22.6434 71.7202 22.5713 71.8433 22.5309C71.9683 22.4961 72.1019 22.5109 72.2162 22.5723C72.3305 22.6337 72.4166 22.7368 72.4565 22.8601C72.5043 22.381 72.662 21.9193 72.9175 21.511C73.1762 20.9789 73.5257 20.4959 73.9503 20.0836C74.4054 19.7005 74.9568 19.449 75.5448 19.3565C76.1328 19.2639 76.7349 19.3339 77.286 19.5587C77.7755 19.7607 78.2161 20.0648 78.5783 20.4508C78.9405 20.8367 79.2159 21.2955 79.3861 21.7965C79.5198 22.2569 79.3238 22.6552 79.2339 23.1042C79.0841 23.7442 78.9803 24.4349 78.7913 25.0772Z" fill="url(#paint11_linear_598_3884)"/>
<path d="M72.6178 23.2953C72.604 23.3139 72.5863 23.3292 72.566 23.3403C72.5458 23.3514 72.5233 23.3581 72.5002 23.3598C72.4103 23.3598 72.3873 23.2355 72.3804 23.148C72.3824 22.9319 72.2997 22.7237 72.1498 22.5678C72.1128 22.5307 72.0688 22.5013 72.0203 22.4812C71.9719 22.4611 71.9199 22.4507 71.8674 22.4507C71.815 22.4507 71.763 22.4611 71.7146 22.4812C71.6661 22.5013 71.6221 22.5307 71.5851 22.5678V22.5678C71.4333 21.5556 71.6492 20.5225 72.1936 19.6554C72.2606 19.5724 72.3044 19.4731 72.3204 19.3676C72.3204 19.2318 72.242 19.0982 72.2674 18.9647C72.2968 18.8679 72.3556 18.7826 72.4357 18.7207C72.6777 18.4706 72.971 18.2758 73.2955 18.1497C73.4556 18.0873 73.6284 18.0648 73.7991 18.084C73.9698 18.1033 74.1332 18.1638 74.2753 18.2602C75.0099 17.8275 75.8453 17.5949 76.6981 17.5856C77.1935 17.5748 77.6864 17.6584 78.1504 17.832C78.9867 18.1789 79.6632 18.825 80.0476 19.6439C80.4232 20.462 80.5598 21.3694 80.4418 22.2616C79.6933 22.5996 78.8419 22.6308 78.0707 22.3483C77.2994 22.0659 76.67 21.4924 76.3177 20.7513C76.2508 21.1123 76.29 21.485 76.4307 21.8242C76.1497 21.6854 75.9051 21.483 75.7162 21.2332C75.5273 20.9834 75.3994 20.6931 75.3426 20.3852C75.1697 20.2241 74.9069 20.429 74.764 20.6155C74.3951 21.1012 74.054 21.6722 73.6114 22.0889C73.412 22.2373 73.2288 22.4063 73.065 22.5931C72.8875 22.8095 72.8138 23.0881 72.6178 23.2953Z" fill="#3F3D56"/>
<path d="M108.197 59.0039C108.116 59.6462 107.517 60.1987 106.865 60.3553C106.699 60.3989 106.528 60.4129 106.357 60.3968C105.435 60.3024 105.016 59.165 105.034 58.2372C105.053 57.3094 105.265 56.3631 104.841 55.5735C104.841 55.5481 104.815 55.5228 104.801 55.4975C104.571 55.09 104.167 54.7861 103.962 54.3602C103.773 53.8789 103.732 53.3525 103.842 52.8475C104.117 50.9228 105.627 45.8371 108.536 47.7411C109.29 48.2338 109.739 49.0856 109.997 49.9467C110.91 52.9834 108.96 52.9304 108.197 59.0039Z" fill="url(#paint12_linear_598_3884)"/>
<path d="M107.383 48.3625C107.773 48.5927 107.966 49.0532 108.054 49.5137C108.305 50.7914 107.897 52.0945 107.669 53.3769C107.441 54.6593 107.439 56.1396 108.34 57.0836L108.361 57.1066C108.703 57.4548 109.171 57.6529 109.66 57.6572C110.148 57.6615 110.619 57.4717 110.968 57.1296C111.143 56.9596 111.282 56.756 111.376 56.531C111.42 56.432 111.47 56.3353 111.523 56.2409C111.874 55.6216 112.363 55.0898 112.711 54.4682C112.994 53.9454 113.19 53.3801 113.292 52.7944C113.42 52.1976 113.424 51.5809 113.303 50.9825C113.073 49.9787 112.381 49.1407 111.657 48.4247C110.933 47.7087 110.198 47.1055 109.283 46.7878C108.368 46.47 107.275 46.5207 106.516 47.117C106.286 47.3012 105.652 48.0379 105.982 48.3602C106.261 48.6089 106.975 48.1139 107.383 48.3625Z" fill="#3F3D56"/>
<path d="M65.7759 34.5949L64.7224 34.0309L65.4854 35.0692L65.5361 34.5949H65.7759Z" fill="url(#paint13_linear_598_3884)"/>
<path d="M76.8734 35.3247C76.9062 35.0605 77.0382 34.8185 77.2427 34.6476C77.4472 34.4767 77.709 34.3896 77.9753 34.4038C79.008 34.3739 83.0145 33.8467 83.0145 33.8467L83.169 35.0623C83.169 35.0623 79.6258 36.5588 76.8734 35.3247Z" fill="url(#paint14_linear_598_3884)"/>
<path opacity="0.18" d="M82.7033 31.5881V32.1268C82.7033 32.1268 79.2016 33.0685 75.5063 29.2697L75.2758 28.6182C75.4854 28.698 75.6814 28.8098 75.8567 28.9497L76.1656 29.1799L77.8669 30.3955C78.2601 30.6942 78.679 30.9577 79.1186 31.1829C80.5409 31.8552 81.1288 31.793 82.6917 31.595L82.7033 31.5881Z" fill="white"/>
<path opacity="0.18" d="M72.0069 28.6204C72.0069 28.6204 68.3669 28.4432 66.638 32.5873C66.2668 33.4713 65.354 34.3738 65.354 34.3738L64.8745 34.2725C64.8191 34.1897 64.7684 34.1114 64.7269 34.0423C64.9782 32.8912 66.087 32.3271 66.6034 31.2796C66.9862 30.4784 67.53 29.7645 68.2009 29.1822C68.4172 29.0002 68.6486 28.8369 68.8925 28.6941C69.7777 28.1807 70.7989 27.9758 71.8179 27.8215L72.0069 28.6204Z" fill="white"/>
<path d="M116.254 58.3384C116.1 58.7733 115.839 59.1627 115.495 59.4711C114.852 60.0582 114.036 60.4266 113.402 61.0229C111.996 62.3444 111.763 64.4556 111.616 66.378L111.102 73.0132H103.787C103.787 73.0132 107.773 64.9276 108.859 62.7864C109.944 60.6453 113.264 59.2363 113.264 59.2363C115.85 57.2333 116.254 58.3384 116.254 58.3384Z" fill="url(#paint15_linear_598_3884)"/>
</g>
<defs>
<linearGradient id="paint0_linear_598_3884" x1="84.944" y1="222.139" x2="89.7565" y2="54.0259" gradientUnits="userSpaceOnUse">
<stop offset="0.01"/>
<stop offset="1" stop-opacity="0"/>
</linearGradient>
<linearGradient id="paint1_linear_598_3884" x1="90.253" y1="185.816" x2="89.2643" y2="-18.8941" gradientUnits="userSpaceOnUse">
<stop offset="0.02" stop-color="white" stop-opacity="0"/>
<stop offset="0.58" stop-color="white" stop-opacity="0.39"/>
<stop offset="0.68" stop-color="white" stop-opacity="0.68"/>
<stop offset="1" stop-color="white"/>
</linearGradient>
<linearGradient id="paint2_linear_598_3884" x1="71.3016" y1="17.0032" x2="71.8856" y2="116.57" gradientUnits="userSpaceOnUse">
<stop stop-opacity="0"/>
<stop offset="0.99"/>
</linearGradient>
<linearGradient id="paint3_linear_598_3884" x1="15843.1" y1="7955.96" x2="15555.3" y2="-2759.29" gradientUnits="userSpaceOnUse">
<stop stop-opacity="0"/>
<stop offset="0.99"/>
</linearGradient>
<linearGradient id="paint4_linear_598_3884" x1="114.583" y1="50.1905" x2="126.6" y2="50.1905" gradientUnits="userSpaceOnUse">
<stop stop-color="#ECC4D7"/>
<stop offset="0.42" stop-color="#EFD4D1"/>
<stop offset="1" stop-color="#F2EAC9"/>
</linearGradient>
<linearGradient id="paint5_linear_598_3884" x1="5043.36" y1="787.926" x2="5043.36" y2="657.235" gradientUnits="userSpaceOnUse">
<stop stop-opacity="0"/>
<stop offset="0.99"/>
</linearGradient>
<linearGradient id="paint6_linear_598_3884" x1="1328.74" y1="1577.18" x2="1387.05" y2="1604.18" gradientUnits="userSpaceOnUse">
<stop stop-color="#ECC4D7"/>
<stop offset="0.42" stop-color="#EFD4D1"/>
<stop offset="1" stop-color="#F2EAC9"/>
</linearGradient>
<linearGradient id="paint7_linear_598_3884" x1="1426.15" y1="5510.23" x2="939.514" y2="5464.37" gradientUnits="userSpaceOnUse">
<stop stop-opacity="0"/>
<stop offset="0.99"/>
</linearGradient>
<linearGradient id="paint8_linear_598_3884" x1="4069.04" y1="3792.57" x2="4555.39" y2="3792.57" gradientUnits="userSpaceOnUse">
<stop stop-color="#ECC4D7"/>
<stop offset="0.42" stop-color="#EFD4D1"/>
<stop offset="1" stop-color="#F2EAC9"/>
</linearGradient>
<linearGradient id="paint9_linear_598_3884" x1="840.665" y1="4026.3" x2="869.881" y2="4026.3" gradientUnits="userSpaceOnUse">
<stop stop-color="#ECC4D7"/>
<stop offset="0.42" stop-color="#EFD4D1"/>
<stop offset="1" stop-color="#F2EAC9"/>
</linearGradient>
<linearGradient id="paint10_linear_598_3884" x1="3563.53" y1="6608.74" x2="3867.81" y2="6608.74" gradientUnits="userSpaceOnUse">
<stop stop-color="#ECC4D7"/>
<stop offset="0.42" stop-color="#EFD4D1"/>
<stop offset="1" stop-color="#F2EAC9"/>
</linearGradient>
<linearGradient id="paint11_linear_598_3884" x1="75.0637" y1="20.8548" x2="76.1629" y2="27.4191" gradientUnits="userSpaceOnUse">
<stop offset="0.2" stop-color="#ECC4D7"/>
<stop offset="0.37" stop-color="#F0DCCE"/>
<stop offset="1" stop-color="#F2EAC9"/>
</linearGradient>
<linearGradient id="paint12_linear_598_3884" x1="3123.57" y1="5442.31" x2="3304.21" y2="5442.31" gradientUnits="userSpaceOnUse">
<stop stop-color="#ECC4D7"/>
<stop offset="0.42" stop-color="#EFD4D1"/>
<stop offset="1" stop-color="#F2EAC9"/>
</linearGradient>
<linearGradient id="paint13_linear_598_3884" x1="65.679" y1="34.3348" x2="64.9462" y2="34.6117" gradientUnits="userSpaceOnUse">
<stop stop-color="#68E1FD"/>
<stop offset="0.2" stop-color="#5DB4CF"/>
<stop offset="0.46" stop-color="#50819B"/>
<stop offset="0.69" stop-color="#475C76"/>
<stop offset="0.87" stop-color="#41455E"/>
<stop offset="0.99" stop-color="#3F3D56"/>
</linearGradient>
<linearGradient id="paint14_linear_598_3884" x1="2361.02" y1="631.11" x2="2353.48" y2="729.882" gradientUnits="userSpaceOnUse">
<stop stop-opacity="0"/>
<stop offset="0.99"/>
</linearGradient>
<linearGradient id="paint15_linear_598_3884" x1="6132.95" y1="6882.73" x2="8070.36" y2="7764.12" gradientUnits="userSpaceOnUse">
<stop stop-opacity="0"/>
<stop offset="0.99"/>
</linearGradient>
<clipPath id="clip0_598_3884">
<rect width="178.86" height="134.64" fill="white"/>
</clipPath>
</defs>
</svg>
