<svg width="179" height="135" viewBox="0 0 179 135" fill="none" xmlns="http://www.w3.org/2000/svg">
<path opacity="0.05" d="M39.6633 22.4493C51.282 20.7624 63.2449 21.9243 74.7647 19.6091C86.8137 17.1864 97.7868 11.0888 109.401 7.03945C121.016 2.99013 134.429 1.16987 145.204 7.104C151.801 10.7402 156.655 16.8981 160.463 23.4132C167.969 36.2612 172.038 50.827 172.275 65.7052C172.383 73.0809 171.527 80.5082 169.263 87.5311C161.698 111.001 138.801 127.245 114.655 132.254C88.139 137.758 59.3075 131.049 37.8947 114.478C19.662 100.342 1.63153 75.1378 7.81525 52.1802C11.9162 36.9124 22.2439 24.9796 39.6633 22.4493Z" fill="#397AF6"/>
<path d="M130.805 85.302L117.577 95.0918C117.296 95.2997 116.943 95.3875 116.597 95.3359C116.251 95.2843 115.94 95.0974 115.731 94.8164L110.245 87.4019C110.141 87.2638 110.068 87.1054 110.029 86.9372C109.965 86.6843 109.977 86.4179 110.065 86.172C110.152 85.926 110.311 85.7116 110.52 85.5559L123.752 75.7661C123.909 75.651 124.088 75.5718 124.279 75.5338C124.469 75.4959 124.666 75.5003 124.854 75.5466C125.151 75.6223 125.414 75.7968 125.599 76.0415L131.085 83.4602C131.188 83.5995 131.262 83.7576 131.303 83.9256C131.345 84.0935 131.353 84.268 131.327 84.439C131.301 84.6101 131.241 84.7743 131.152 84.9224C131.063 85.0705 130.945 85.1995 130.805 85.302Z" fill="#397AF6"/>
<path d="M124.854 75.5466L122.406 86.5456L110.029 86.9372C109.965 86.6842 109.977 86.4179 110.065 86.172C110.152 85.926 110.311 85.7116 110.52 85.5559L123.752 75.7661C123.909 75.651 124.089 75.5718 124.279 75.5338C124.469 75.4959 124.666 75.5003 124.854 75.5466Z" fill="url(#paint0_linear_598_3840)"/>
<path d="M117.965 86.6877L118.369 94.5023L130.805 85.3021L123.279 82.6125L122.406 86.5457L117.965 86.6877Z" fill="url(#paint1_linear_598_3840)"/>
<path d="M133.267 22.716L118.49 43.7717L115.65 35.8925C105.842 38.4975 96.1863 41.6451 86.7276 45.3208C75.8233 49.6628 65.3235 55.059 62.3069 60.636C55.3916 73.4466 71.6363 79.1097 71.6363 79.1097C68.5457 79.3568 65.4379 79.2818 62.3628 78.8859C54.2599 77.823 44.199 73.8985 47.1123 60.636C49.4145 50.1576 64.4026 41.3446 79.1282 35.0663H79.1497C81.3013 34.154 83.4529 33.2976 85.5443 32.4843L85.6045 32.4585C93.4823 29.4464 101.517 26.8607 109.672 24.7127L108.257 17.819L133.267 22.716Z" fill="#397AF6"/>
<path d="M62.3069 60.6361C55.3916 73.4467 71.6363 79.1098 71.6363 79.1098C68.5457 79.3569 65.4378 79.2819 62.3628 78.886C61.1452 77.4686 60.0074 75.9846 58.9547 74.4408C49.6296 60.877 69.631 50.1879 69.631 50.1879C71.2963 44.1074 79.1281 39.077 79.1281 39.077V35.0664H79.1497L85.5442 32.4844L85.6045 32.4586L87.0116 44.215L86.7276 45.3123C75.8233 49.6629 65.3234 55.0591 62.3069 60.6361Z" fill="url(#paint2_linear_598_3840)"/>
<path d="M107.654 104.873C107.26 105.543 107.017 106.29 106.94 107.063C106.953 107.837 107.204 108.589 107.658 109.215C108.592 110.6 110.024 111.573 111.656 111.93C111.87 111.996 112.099 111.985 112.306 111.9C112.447 111.813 112.557 111.684 112.62 111.53C113.012 110.734 112.852 109.787 112.594 108.948C112.336 108.109 111.983 107.257 112.022 106.366C112.086 104.701 114.466 101.486 111.695 100.703C109.384 100.032 108.39 103.388 107.654 104.873Z" fill="#B2857F"/>
<path d="M106.027 107.046C106.027 107.046 105.21 107.717 105.365 108.458C105.52 109.198 108.459 114.357 112.646 113.768C116.833 113.178 109.956 109.034 109.956 109.034L106.027 107.046Z" fill="#397AF6"/>
<path d="M107.293 105.14C107.464 105.146 107.628 105.214 107.753 105.331C107.879 105.448 107.958 105.606 107.977 105.777C108.086 106.268 108.319 106.724 108.653 107.1C108.987 107.477 109.412 107.762 109.887 107.928C110.98 108.225 111.979 107.313 112.469 107.571C112.96 107.829 114.337 111.423 113.975 112.447C113.614 113.471 111.918 113.445 110.412 112.744C108.906 112.042 106.161 109.241 105.95 108.135C105.739 107.029 106.694 105.437 107.293 105.14Z" fill="white"/>
<path d="M89.899 110.824C89.493 111.588 89.2581 112.431 89.2105 113.294C89.2697 114.146 89.5846 114.961 90.1142 115.631C91.2193 117.129 92.8592 118.143 94.6928 118.463C94.9325 118.526 95.1869 118.503 95.4115 118.398C95.563 118.29 95.6797 118.141 95.7471 117.968C96.143 117.064 95.9149 116.018 95.5922 115.089C95.2694 114.159 94.8391 113.243 94.8219 112.262C94.8219 110.411 97.3049 106.715 94.1893 105.979C91.5859 105.364 90.6392 109.142 89.899 110.824Z" fill="#B2857F"/>
<path d="M88.1906 113.35C88.1906 113.35 87.33 114.138 87.5236 114.951C87.7173 115.764 91.2373 121.363 95.8675 120.502C100.498 119.642 92.6574 115.403 92.6574 115.403L88.1906 113.35Z" fill="#397AF6"/>
<path d="M89.5031 111.147C89.6956 111.145 89.8823 111.213 90.0287 111.338C90.175 111.463 90.2712 111.637 90.2992 111.827C90.4431 112.367 90.7233 112.86 91.1129 113.26C91.5025 113.661 91.9884 113.954 92.524 114.112C93.7547 114.387 94.8262 113.333 95.3684 113.591C95.9106 113.85 97.6319 117.787 97.2704 118.936C96.909 120.085 95.0285 120.145 93.3201 119.439C91.6117 118.734 88.423 115.747 88.1562 114.529C87.8894 113.312 88.8534 111.509 89.5031 111.147Z" fill="white"/>
<path d="M99.181 65.9462C99.2981 65.9666 99.4133 65.9968 99.5253 66.0365C102.245 67.0693 105.52 71.6738 107.37 73.8598C109.775 76.6283 111.778 79.7227 113.317 83.0515C116.441 90.027 116.73 98.6936 112.34 104.951L108.967 104.245C108.672 104.212 108.394 104.091 108.17 103.896C108.055 103.727 107.976 103.537 107.937 103.337C107.897 103.136 107.899 102.93 107.942 102.73C108.121 100.32 108.009 97.8972 107.611 95.5136C107.388 93.8799 106.888 92.2964 106.131 90.8317C105.072 88.9253 103.402 87.4493 101.776 86.0035C96.612 81.4291 91.9817 76.6999 89.4213 70.2322C91.7322 69.0961 96.6895 65.5072 99.181 65.9462Z" fill="#473F47"/>
<path d="M91.3665 69.4577C91.4778 69.502 91.5833 69.5598 91.6806 69.6298C94.0861 71.265 96.199 76.515 97.49 79.0625C99.1807 82.3177 100.406 85.7942 101.13 89.3902C102.538 96.8993 100.803 105.394 95.0758 110.476L91.956 109C91.6783 108.899 91.437 108.718 91.2632 108.479C91.1909 108.287 91.1582 108.083 91.1671 107.878C91.176 107.673 91.2262 107.472 91.3148 107.287C92.0508 104.985 92.5073 102.603 92.6747 100.191C92.8396 98.551 92.7217 96.8946 92.3261 95.2942C91.7452 93.1985 90.4628 91.374 89.2192 89.5838C85.2817 83.938 81.865 78.2535 80.8839 71.3683C83.3926 70.8003 89.0514 68.468 91.3665 69.4577Z" fill="#473F47"/>
<path d="M105.382 53.0667C105.384 53.0853 105.384 53.1041 105.382 53.1227C105.421 53.8413 105.657 54.4739 105.472 55.2054C105.275 56.0187 104.517 56.7546 103.691 56.6341C103.002 56.5351 102.533 55.9155 102.004 55.4636C101.45 55.0201 100.836 54.6578 100.179 54.3878C99.3188 53.9876 98.4324 53.6132 97.5459 53.269C96.9779 53.0452 95.8935 52.9075 95.6525 52.3266C95.4115 51.7456 95.489 50.8291 95.4201 50.2137L94.3486 40.4497L104.319 48.6258C104.728 49.5199 105.047 50.4526 105.27 51.41C105.365 51.9568 105.403 52.5121 105.382 53.0667Z" fill="white"/>
<path d="M97.9805 54.1424C98.0407 54.719 98.1741 55.2914 98.243 55.8637C98.6044 59.0438 98.2128 62.4132 99.5038 65.4297C99.7964 66.101 100.175 66.8154 100.003 67.5297C99.7927 68.1351 99.3689 68.643 98.811 68.9584C96.1774 70.8002 92.9801 71.6221 89.8646 72.4009C87.5194 72.9948 84.2188 74.0749 81.8779 73.0335C80.8795 72.6032 80.4492 71.6049 80.0404 70.6237C78.7494 67.4996 78.0695 64.057 77.4585 60.7263C77.381 60.296 77.2992 59.8657 77.2261 59.4139C76.7183 56.4102 76.321 53.3807 76.0341 50.3255C75.8361 48.105 75.7458 45.6952 77.0109 43.8706C78.6892 41.435 82.2436 39.5674 85.0106 38.7068C85.9054 38.4187 86.8377 38.2636 87.7776 38.2463C89.1167 38.3089 90.4352 38.6 91.6763 39.107C93.1523 39.6449 94.4647 40.0924 95.3039 41.4006C96.2342 42.9203 96.9469 44.5629 97.4211 46.2804C97.8676 47.8888 98.0892 49.5513 98.0794 51.2205C98.0794 52.0381 97.9676 52.8644 97.9719 53.6777C97.9583 53.8324 97.9612 53.9882 97.9805 54.1424Z" fill="white"/>
<path opacity="0.1" d="M86.9643 73.5929C86.0692 73.9673 83.8487 73.3519 83.1301 73.3046C82.6998 73.2788 82.2695 73.1066 81.8391 73.055C79.6875 72.7581 78.771 66.8627 78.3966 65.3092C77.3896 61.1566 76.0728 56.8878 75.5478 52.6707C75.3499 51.0398 75.2079 49.3744 75.5737 47.7779C75.9394 46.1814 76.8646 44.6409 78.3492 43.905C80.9312 42.6399 82.674 51.0699 83.2377 52.7912C83.9434 54.9428 84.6534 57.0944 85.3549 59.246C85.6647 60.2099 85.7637 61.2814 86.293 62.1636C87.0977 63.5019 87.7776 63.248 89.1245 63.0242C91.9517 62.5337 94.5939 61.3331 97.3781 60.6618C97.4925 60.6189 97.6145 60.5999 97.7366 60.6058C97.8587 60.6118 97.9783 60.6425 98.0881 60.6962C98.2381 60.8196 98.3401 60.9916 98.3764 61.1824C98.5404 61.7259 98.6301 62.2889 98.6432 62.8564C98.6595 63.0188 98.6358 63.1828 98.5743 63.3341C98.4772 63.4885 98.3424 63.6158 98.1828 63.7041C96.301 64.9489 94.2343 65.8886 92.0593 66.4883C90.338 66.9703 88.7071 67.7793 87.5452 69.2165C86.4995 70.5075 87.8593 71.8673 87.2913 73.2659C87.2617 73.3396 87.2174 73.4066 87.1612 73.4628C87.105 73.519 87.038 73.5633 86.9643 73.5929Z" fill="#020202"/>
<path d="M85.002 67.0909L101.501 61.5269L113.601 68.4292L96.7627 75.3316L85.002 67.0909Z" fill="#397AF6"/>
<path d="M85.002 67.0909L101.501 61.5269L113.601 68.4292L96.7627 75.3316L85.002 67.0909Z" fill="url(#paint3_linear_598_3840)" fill-opacity="0.3"/>
<path d="M85.6818 66.2L102.18 60.636L114.281 67.5383L97.4425 74.4407L85.6818 66.2Z" fill="#397AF6"/>
<path d="M98.2516 73.4898L111.901 67.461L105.24 63.8032L91.6677 68.9413L98.2516 73.4898Z" fill="url(#paint4_linear_598_3840)" fill-opacity="0.3"/>
<path d="M97.4425 74.4408H113.713L127.72 65.7181L114.281 67.5384L97.4425 74.4408Z" fill="#397AF6"/>
<path d="M91.8914 34.4596C91.7236 35.0663 91.5429 35.6731 91.3492 36.2755C90.9189 37.6526 90.0582 38.9091 88.5607 39.2405C88.2298 39.3041 87.8947 39.3444 87.5581 39.3609C87.4935 39.3609 87.4204 39.3609 87.3343 39.3609C87.3296 39.3632 87.3245 39.3644 87.3193 39.3644C87.314 39.3644 87.3089 39.3632 87.3042 39.3609H87.2655C87.0974 39.353 86.9291 39.3704 86.7663 39.4126C86.7208 39.4149 86.6765 39.4282 86.6372 39.4513C86.2069 39.6493 86.2413 40.3464 86.2714 40.7423C86.3774 41.1877 86.3257 41.6561 86.1251 42.0677C86.1251 42.0677 86.1251 42.0935 86.0993 42.1107C85.98 42.2408 85.836 42.3459 85.6757 42.4198C85.5153 42.4936 85.3419 42.5349 85.1655 42.541C84.4236 42.601 83.6866 42.3764 83.1042 41.9127C82.771 41.6033 82.5032 41.2302 82.3168 40.8154C82.2584 40.6976 82.2095 40.5752 82.1705 40.4497C82.1216 40.2367 82.1028 40.018 82.1145 39.7999C82.1224 39.4653 82.154 39.1316 82.2092 38.8015C82.3679 38.15 82.4929 37.4907 82.5836 36.8263C82.5892 36.4897 82.6122 36.1536 82.6524 35.8194C82.7075 35.6058 82.7477 35.3887 82.7729 35.1696C82.7729 34.537 82.4502 33.926 82.4459 33.2848C82.4401 32.6507 82.4993 32.0177 82.6223 31.3957C82.8519 30.1618 83.3892 29.0059 84.1844 28.0349C85.6604 26.3136 88.2767 25.453 90.3336 26.4341C91.3615 26.9245 92.159 27.7946 92.5584 28.8611C93.2469 30.6728 92.3863 32.691 91.8914 34.4596Z" fill="#B2857F"/>
<path d="M89.7485 65.5245C90.1099 65.4815 90.4757 65.4427 90.8372 65.4126C91.0528 65.3823 91.2722 65.3955 91.4826 65.4513C91.5861 65.4784 91.6805 65.5325 91.7561 65.6082C91.8318 65.6838 91.8859 65.7782 91.913 65.8817C91.9107 65.9603 91.9269 66.0384 91.9603 66.1097C92.0154 66.1735 92.0919 66.2148 92.1755 66.2259C93.4664 66.5616 94.8004 67.0866 95.5707 68.1494C95.6624 68.25 95.7265 68.3727 95.7566 68.5054C95.7868 68.6382 95.782 68.7765 95.7428 68.9068C95.5664 69.2683 95.05 69.2166 94.6627 69.1091C94.7183 69.1886 94.7481 69.2832 94.7481 69.3802C94.7481 69.4771 94.7183 69.5718 94.6627 69.6513C94.6047 69.7293 94.5286 69.7921 94.4408 69.8341C94.3531 69.8761 94.2564 69.896 94.1592 69.8922C94.0312 69.8686 93.9 69.8686 93.772 69.8922C93.6842 69.9331 93.603 69.9867 93.531 70.0515C93.3497 70.1712 93.146 70.2528 92.9322 70.2913C92.7184 70.3297 92.499 70.3243 92.2874 70.2752C91.857 70.2107 91.4267 70.0644 90.9964 70.03C90.3294 69.9783 89.7312 70.1978 89.1116 69.9267C88.4284 69.5885 87.7056 69.3369 86.96 69.1779C86.7228 69.1398 86.5041 69.0267 86.336 68.8552C86.2636 68.7094 86.2259 68.5489 86.2259 68.3861C86.2259 68.2234 86.2636 68.0628 86.336 67.9171C86.4474 67.3891 86.6482 66.8841 86.9299 66.4239C87.2956 65.9075 87.9067 65.8171 88.5048 65.7138C88.9438 65.6407 89.3353 65.5847 89.7485 65.5245Z" fill="#B2857F"/>
<path d="M77.0023 43.8664C73.8395 49.1034 70.7154 55.1709 69.816 61.2729C69.5793 62.878 69.4502 64.7714 70.2033 66.2775C71.434 68.7304 75.621 69.208 78.0308 69.4533C80.9165 69.7459 83.8222 69.7848 86.7147 69.5695C86.778 69.5815 86.8432 69.5777 86.9047 69.5584C86.9661 69.5391 87.0219 69.505 87.067 69.459C87.1121 69.4131 87.1452 69.3567 87.1633 69.2949C87.1814 69.2331 87.184 69.1678 87.1708 69.1048L87.2913 66.3206C87.3113 66.1906 87.2933 66.0576 87.2397 65.9376C87.1643 65.8499 87.0693 65.7812 86.9624 65.7371C86.8554 65.693 86.7396 65.6747 86.6243 65.6837C84.9389 65.5487 83.2827 65.1644 81.7101 64.5434C80.2168 63.9495 77.2993 62.3917 77.5101 60.4295C77.6263 59.3279 78.8355 57.9853 79.4337 57.116C80.8709 55.0289 82.4201 53.0064 84.0037 51.027C84.0037 51.027 84.1586 39.7654 77.0023 43.8664Z" fill="white"/>
<path d="M91.3965 31.9292C91.6105 31.8796 91.8116 31.7854 91.9867 31.6527C92.1617 31.5199 92.3066 31.3516 92.412 31.1589C92.5885 31.6538 93.4233 31.5031 93.6342 31.0169C93.845 30.5306 93.6342 29.9798 93.4448 29.4935C93.6425 29.447 93.8254 29.3519 93.9771 29.217C94.1289 29.082 94.2445 28.9113 94.3137 28.7204C94.3829 28.5294 94.4035 28.3243 94.3735 28.1234C94.3435 27.9226 94.2639 27.7324 94.1419 27.57C93.9999 27.4108 93.802 27.2731 93.7632 27.0579C93.754 26.8939 93.779 26.7298 93.8364 26.576C93.8633 26.3233 93.8229 26.0681 93.7193 25.8361C93.6158 25.6041 93.4528 25.4036 93.2469 25.2549C92.8238 24.9631 92.3515 24.7502 91.8526 24.6266C91.9865 24.4088 92.0364 24.1496 91.9928 23.8977C91.9493 23.6457 91.8152 23.4184 91.616 23.2582C91.2079 22.9466 90.7133 22.7692 90.2002 22.7504C89.4557 22.6686 88.6338 22.7031 88.0486 23.1807C87.649 22.9327 87.178 22.8251 86.7103 22.875C86.2426 22.9249 85.805 23.1294 85.4667 23.4561C85.3465 23.6228 85.1783 23.7489 84.9847 23.8176C84.8463 23.8276 84.7075 23.804 84.5802 23.7488C84.0376 23.5167 83.4373 23.4552 82.8589 23.5723C82.5698 23.6412 82.3171 23.816 82.1506 24.0622C81.9841 24.3084 81.9159 24.608 81.9595 24.902C81.7459 24.9277 81.5451 25.0181 81.3844 25.1612C81.2236 25.3043 81.1105 25.4931 81.0602 25.7024C81.0504 25.8337 81.009 25.9606 80.9397 26.0725C80.8149 26.2188 80.5954 26.2102 80.4104 26.2274C80.0574 26.2582 79.729 26.4209 79.4908 26.6832C79.2526 26.9454 79.1221 27.2879 79.1254 27.6422C79.1287 27.9965 79.2654 28.3365 79.5084 28.5943C79.7514 28.8522 80.0827 29.0089 80.4362 29.0331C80.3955 29.206 80.391 29.3854 80.4228 29.5602C80.4546 29.7349 80.5222 29.9012 80.6212 30.0487C80.8493 30.4144 81.1548 30.4403 81.4561 30.6683C81.6325 30.806 81.5636 30.8189 81.555 31.0986C81.5464 31.356 81.5593 31.6137 81.5938 31.8689C81.6525 32.3605 81.7755 32.8423 81.9595 33.3019C82.0886 33.6332 82.2522 33.9517 82.3683 34.2873C82.5284 34.8014 82.6351 35.3306 82.6868 35.8666L83.414 33.8097C83.4221 33.7816 83.4221 33.7517 83.414 33.7236C83.3994 33.6854 83.3721 33.6535 83.3366 33.6332C83.0194 33.3861 82.7962 33.0381 82.7039 32.6468C82.6116 32.2555 82.6556 31.8445 82.8288 31.4816C82.8771 31.3678 82.954 31.2684 83.052 31.1931C83.15 31.1177 83.2658 31.0689 83.3882 31.0513C83.6808 31.0513 83.9046 31.3052 84.0466 31.5591C84.1977 31.8296 84.312 32.119 84.3865 32.4197C84.5834 31.9488 84.8552 31.5129 85.1912 31.1288C85.3333 30.9695 85.5054 30.6984 85.7335 30.7802C85.9615 30.862 86.0691 31.2751 86.1638 31.4257C86.5028 31.2938 86.8116 31.0947 87.0718 30.8405C87.0418 31.1391 87.098 31.4401 87.2337 31.7077C87.3695 31.9754 87.5791 32.1986 87.8377 32.3509C88.3799 32.6048 89.1674 32.2433 89.1674 31.6409C89.1674 31.912 90.3422 31.4558 90.4283 31.4042C90.519 31.5781 90.6597 31.721 90.8322 31.8146C91.0047 31.9081 91.2012 31.948 91.3965 31.9292Z" fill="#473F47"/>
<path d="M85.7206 39.3826C86.0671 39.428 86.4171 39.4424 86.7662 39.4256C86.7207 39.4279 86.6765 39.4412 86.6372 39.4643C86.2068 39.6623 86.2413 40.3594 86.2714 40.7553C86.3774 41.2007 86.3257 41.6691 86.1251 42.0807C85.9911 42.0817 85.8576 42.0628 85.7292 42.0247C85.5976 41.9783 85.4763 41.9067 85.372 41.8139C84.9817 41.4926 84.6963 41.0621 84.5521 40.5776C84.408 40.0931 84.4118 39.5766 84.563 39.0942C84.9355 39.2376 85.3243 39.3344 85.7206 39.3826Z" fill="#96625E"/>
<path d="M102.774 47.3649C102.774 47.3649 110.654 53.1785 109.565 58.9835C108.554 64.3841 107.646 68.6787 107.646 68.6787L103.958 66.5271C103.958 66.5271 106.423 58.3897 101.277 54.8525C96.1302 51.3152 102.774 47.3649 102.774 47.3649Z" fill="white"/>
<path d="M103.303 66.4454L102.951 68.2743C102.889 68.506 102.88 68.7487 102.925 68.9843C102.949 69.1019 103.011 69.2082 103.102 69.2861C103.194 69.3641 103.308 69.4093 103.428 69.4146C103.686 69.4146 103.906 69.1306 104.164 69.1823C104.256 69.2097 104.344 69.2518 104.422 69.307C104.973 69.6083 105.64 69.307 106.221 69.0359C106.314 68.9838 106.421 68.9641 106.527 68.98C106.651 69.0144 106.729 69.1392 106.836 69.2167C106.944 69.2814 107.069 69.3119 107.194 69.3042C107.319 69.2965 107.439 69.251 107.538 69.1736C107.733 69.0116 107.881 68.8008 107.968 68.5626C108.2 68.0537 108.3 67.4948 108.26 66.9371C108.221 66.3793 108.042 65.8404 107.74 65.3696C107.41 64.9614 106.976 64.6493 106.484 64.4661C105.992 64.283 105.46 64.2353 104.943 64.3282C103.824 64.5047 103.506 65.3825 103.303 66.4454Z" fill="#B2857F"/>
<path d="M96.7627 75.3315H113.033L127.04 66.6089L113.601 68.4292L96.7627 75.3315Z" fill="#397AF6"/>
<path d="M97.4426 74.4408L96.7627 75.3316H113.033L113.713 74.4408H97.4426Z" fill="url(#paint5_linear_598_3840)" fill-opacity="0.3"/>
<path d="M127.72 65.7181L127.04 66.6089L113.033 75.3315L113.713 74.4408L127.72 65.7181Z" fill="#397AF6"/>
<path d="M127.72 65.7181L127.04 66.6089L113.033 75.3315L113.713 74.4408L127.72 65.7181Z" fill="url(#paint6_linear_598_3840)" fill-opacity="0.3"/>
<path d="M114.445 67.9256L125.573 66.3722L113.967 73.4897L101.303 73.7092L114.445 67.9256Z" fill="white"/>
<path d="M95.4846 66.9616L101.785 64.625L98.7465 62.4045L92.2831 64.625L95.4846 66.9616Z" fill="url(#paint7_linear_598_3840)" fill-opacity="0.3"/>
<path d="M82.0027 91.0468L57.0053 102.459C56.4734 102.701 55.867 102.723 55.3193 102.519C54.7715 102.315 54.3271 101.902 54.0834 101.37L47.6889 87.359C47.5665 87.0989 47.5005 86.8158 47.4952 86.5285C47.4786 86.0917 47.5925 85.6598 47.8225 85.2881C48.0524 84.9163 48.3879 84.6216 48.7862 84.4414L73.7835 73.0293C74.0799 72.896 74.4018 72.8292 74.7267 72.8337C75.0515 72.8382 75.3715 72.9137 75.664 73.0551C76.1244 73.2773 76.4927 73.6532 76.7054 74.118L83.0914 88.1335C83.2112 88.3963 83.2781 88.6801 83.2883 88.9687C83.2984 89.2574 83.2516 89.5452 83.1505 89.8157C83.0494 90.0862 82.896 90.3342 82.699 90.5454C82.5021 90.7567 82.2655 90.927 82.0027 91.0468Z" fill="#397AF6"/>
<path d="M82.0027 91.0468L57.0053 102.459C56.4734 102.701 55.867 102.723 55.3193 102.519C54.7715 102.315 54.3271 101.902 54.0834 101.37L47.6889 87.359C47.5665 87.0989 47.5005 86.8158 47.4952 86.5285C47.4786 86.0917 47.5925 85.6598 47.8225 85.2881C48.0524 84.9163 48.3879 84.6216 48.7862 84.4414L73.7835 73.0293C74.0799 72.896 74.4018 72.8292 74.7267 72.8337C75.0515 72.8382 75.3715 72.9137 75.664 73.0551C76.1244 73.2773 76.4927 73.6532 76.7054 74.118L83.0914 88.1335C83.2112 88.3963 83.2781 88.6801 83.2883 88.9687C83.2984 89.2574 83.2516 89.5452 83.1505 89.8157C83.0494 90.0862 82.896 90.3342 82.699 90.5454C82.5021 90.7567 82.2655 90.927 82.0027 91.0468Z" fill="url(#paint8_linear_598_3840)" fill-opacity="0.3"/>
<path d="M83.1602 90.5433L58.1628 101.955C57.6308 102.198 57.0245 102.219 56.4768 102.015C55.929 101.811 55.4846 101.398 55.2409 100.867L48.8463 86.8598C48.7255 86.5989 48.6582 86.3165 48.6484 86.0292C48.6326 85.5921 48.7469 85.16 48.9767 84.7878C49.2064 84.4155 49.5415 84.1197 49.9393 83.9379L74.9367 72.5301C75.4683 72.2886 76.0737 72.2671 76.6211 72.4702C77.1684 72.6734 77.6133 73.0847 77.8586 73.6145L84.2532 87.63C84.3729 87.8931 84.4395 88.1771 84.4494 88.4659C84.4592 88.7547 84.412 89.0427 84.3105 89.3132C84.209 89.5838 84.0552 89.8317 83.8578 90.0428C83.6604 90.2538 83.4233 90.4239 83.1602 90.5433Z" fill="#397AF6"/>
<path d="M76.8086 72.5301L69.0026 89.6483L48.6484 86.0078C48.6326 85.5706 48.7469 85.1385 48.9767 84.7663C49.2064 84.394 49.5415 84.0983 49.9393 83.9164L74.9367 72.5086C75.2311 72.3742 75.5515 72.3065 75.8751 72.3102C76.1986 72.3139 76.5174 72.389 76.8086 72.5301Z" fill="url(#paint9_linear_598_3840)"/>
<path d="M61.7044 88.3401L59.6604 101.245L83.1602 90.5218L71.7954 83.5248L69.0026 89.6483L61.7044 88.3401Z" fill="url(#paint10_linear_598_3840)" fill-opacity="0.3"/>
<path d="M136.679 63.2869L120.534 60.0982C120.364 60.0648 120.202 59.9982 120.058 59.9022C119.914 59.8062 119.79 59.6827 119.694 59.5388C119.597 59.3949 119.53 59.2334 119.497 59.0636C119.463 58.8937 119.463 58.7189 119.497 58.5491L121.282 49.5123C121.314 49.3429 121.38 49.1817 121.476 49.039C121.62 48.8203 121.826 48.6494 122.067 48.5482C122.309 48.4471 122.575 48.4202 122.832 48.4709L138.977 51.6596C139.168 51.6955 139.349 51.7742 139.505 51.8897C139.662 52.0052 139.79 52.1546 139.881 52.3266C140.026 52.5962 140.075 52.9076 140.019 53.2088L138.229 62.2455C138.196 62.4158 138.129 62.5779 138.033 62.7225C137.938 62.8671 137.814 62.9914 137.67 63.0881C137.526 63.1849 137.365 63.2523 137.195 63.2864C137.025 63.3205 136.849 63.3207 136.679 63.2869Z" fill="#397AF6"/>
<path d="M139.881 52.318L130.104 57.9121L121.497 49.0303C121.641 48.8116 121.847 48.6408 122.089 48.5396C122.33 48.4384 122.596 48.4115 122.853 48.4623L138.999 51.651C139.186 51.6898 139.362 51.7699 139.515 51.8852C139.667 52.0006 139.792 52.1484 139.881 52.318Z" fill="url(#paint11_linear_598_3840)"/>
<path d="M127.01 54.7234L121.506 60.2874L136.679 63.2868L133.598 55.9111L130.104 57.9121L127.01 54.7234Z" fill="url(#paint12_linear_598_3840)"/>
<defs>
<linearGradient id="paint0_linear_598_3840" x1="112.242" y1="68.8142" x2="123.607" y2="95.9574" gradientUnits="userSpaceOnUse">
<stop offset="0.01" stop-color="white"/>
<stop offset="1" stop-color="white" stop-opacity="0"/>
</linearGradient>
<linearGradient id="paint1_linear_598_3840" x1="103.987" y1="76.9056" x2="157.726" y2="110.76" gradientUnits="userSpaceOnUse">
<stop offset="0.01"/>
<stop offset="0.08" stop-opacity="0.69"/>
<stop offset="0.21" stop-opacity="0.32"/>
<stop offset="1" stop-opacity="0"/>
</linearGradient>
<linearGradient id="paint2_linear_598_3840" x1="8811.05" y1="10223.6" x2="-1971.54" y2="5414.22" gradientUnits="userSpaceOnUse">
<stop offset="0.01"/>
<stop offset="0.08" stop-opacity="0.69"/>
<stop offset="0.21" stop-opacity="0.32"/>
<stop offset="1" stop-opacity="0"/>
</linearGradient>
<linearGradient id="paint3_linear_598_3840" x1="6345.07" y1="1885.96" x2="6177.37" y2="3680.46" gradientUnits="userSpaceOnUse">
<stop offset="0.01"/>
<stop offset="0.08" stop-opacity="0.69"/>
<stop offset="0.21" stop-opacity="0.32"/>
<stop offset="1" stop-opacity="0"/>
</linearGradient>
<linearGradient id="paint4_linear_598_3840" x1="4198.1" y1="1381.85" x2="4955.78" y2="2657.63" gradientUnits="userSpaceOnUse">
<stop offset="0.01"/>
<stop offset="0.08" stop-opacity="0.69"/>
<stop offset="0.21" stop-opacity="0.32"/>
<stop offset="1" stop-opacity="0"/>
</linearGradient>
<linearGradient id="paint5_linear_598_3840" x1="3478.87" y1="238.59" x2="3507.29" y2="-87.2345" gradientUnits="userSpaceOnUse">
<stop offset="0.01"/>
<stop offset="0.08" stop-opacity="0.69"/>
<stop offset="0.21" stop-opacity="0.32"/>
<stop offset="1" stop-opacity="0"/>
</linearGradient>
<linearGradient id="paint6_linear_598_3840" x1="3849.96" y1="1437.74" x2="4297.9" y2="2360.05" gradientUnits="userSpaceOnUse">
<stop offset="0.01"/>
<stop offset="0.08" stop-opacity="0.69"/>
<stop offset="0.21" stop-opacity="0.32"/>
<stop offset="1" stop-opacity="0"/>
</linearGradient>
<linearGradient id="paint7_linear_598_3840" x1="2046.93" y1="682.307" x2="2106.55" y2="861.432" gradientUnits="userSpaceOnUse">
<stop offset="0.01"/>
<stop offset="0.08" stop-opacity="0.69"/>
<stop offset="0.21" stop-opacity="0.32"/>
<stop offset="1" stop-opacity="0"/>
</linearGradient>
<linearGradient id="paint8_linear_598_3840" x1="5979.96" y1="6391.07" x2="2226.25" y2="9394.76" gradientUnits="userSpaceOnUse">
<stop offset="0.01"/>
<stop offset="0.08" stop-opacity="0.69"/>
<stop offset="0.21" stop-opacity="0.32"/>
<stop offset="1" stop-opacity="0"/>
</linearGradient>
<linearGradient id="paint9_linear_598_3840" x1="10711.5" y1="1451.09" x2="11036.5" y2="3405.85" gradientUnits="userSpaceOnUse">
<stop offset="0.01" stop-color="white"/>
<stop offset="1" stop-color="white" stop-opacity="0"/>
</linearGradient>
<linearGradient id="paint10_linear_598_3840" x1="8094.64" y1="2191.25" x2="11059.5" y2="5947.27" gradientUnits="userSpaceOnUse">
<stop offset="0.01"/>
<stop offset="0.08" stop-opacity="0.69"/>
<stop offset="0.21" stop-opacity="0.32"/>
<stop offset="1" stop-opacity="0"/>
</linearGradient>
<linearGradient id="paint11_linear_598_3840" x1="-9695.59" y1="-1773.59" x2="-9986.08" y2="-1193.61" gradientUnits="userSpaceOnUse">
<stop offset="0.01" stop-color="white"/>
<stop offset="1" stop-color="white" stop-opacity="0"/>
</linearGradient>
<linearGradient id="paint12_linear_598_3840" x1="-8412.34" y1="-1318.96" x2="-8520.08" y2="150.299" gradientUnits="userSpaceOnUse">
<stop offset="0.01"/>
<stop offset="0.08" stop-opacity="0.69"/>
<stop offset="0.21" stop-opacity="0.32"/>
<stop offset="1" stop-opacity="0"/>
</linearGradient>
</defs>
</svg>
