<svg width="38" height="48" viewBox="0 0 38 48" fill="none" xmlns="http://www.w3.org/2000/svg">
<path d="M23 0.888428H4.33325C2.12411 0.888428 0.333252 2.67929 0.333252 4.88843V43.1106C0.333252 45.3198 2.12411 47.1106 4.33325 47.1106H23C25.2091 47.1106 27 45.3198 27 43.1106V4.88843C27 2.67929 25.2091 0.888428 23 0.888428Z" fill="#8CB9FD"/>
<path d="M20.7776 7.11035H6.55534C5.08258 7.11035 3.88867 8.30426 3.88867 9.77702V35.5548C3.88867 37.0275 5.08258 38.2215 6.55534 38.2215H20.7776C22.2504 38.2215 23.4443 37.0275 23.4443 35.5548V9.77702C23.4443 8.30426 22.2504 7.11035 20.7776 7.11035Z" fill="#D8E5F3"/>
<path d="M20.7779 3.99976H6.55566V5.33309H20.7779V3.99976Z" fill="#3182F6"/>
<path d="M13.6667 44.8886C14.6485 44.8886 15.4445 44.0926 15.4445 43.1108C15.4445 42.1289 14.6485 41.333 13.6667 41.333C12.6849 41.333 11.8889 42.1289 11.8889 43.1108C11.8889 44.0926 12.6849 44.8886 13.6667 44.8886Z" fill="#3182F6"/>
<path d="M19.6133 35.9332C19.6133 41.0398 23.7733 45.1998 28.8799 45.1998L30.4399 36.4532L28.8799 26.6665C23.7733 26.6665 19.6133 30.8265 19.6133 35.9332Z" fill="#3182F6"/>
<path d="M28.3333 26.6667V45.2134C33.4399 45.2134 37.5999 41.0534 37.5999 35.9467C37.5999 30.8267 33.4399 26.6667 28.3333 26.6667Z" fill="#3182F6"/>
<path d="M27.3335 32V39.3333H28.6135L29.2535 35.24L28.6135 32H27.3335Z" fill="white"/>
<path d="M29.8933 32H28.6133V39.3333H29.8933V32Z" fill="white"/>
<path d="M28.6 41.3333L24.5586 37.3333H32.6415L28.6 41.3333Z" fill="white"/>
</svg>
