<svg width="40" height="40" viewBox="0 0 40 40" fill="none" xmlns="http://www.w3.org/2000/svg">
<rect width="40" height="40" fill="white"/>
<rect x="9" y="2.66669" width="20" height="34.6667" rx="3" fill="#8CB9FD"/>
<rect x="11.6665" y="7.33344" width="14.6667" height="23.3333" rx="2" fill="#D8E5F3"/>
<rect x="13.667" y="5" width="10.6667" height="1" fill="#3182F6"/>
<circle cx="19.0003" cy="34.3333" r="1.33333" fill="#3182F6"/>
<path d="M23.46 28.95C23.46 32.78 26.58 35.9 30.41 35.9L31.58 29.34L30.41 22C26.58 22 23.46 25.12 23.46 28.95Z" fill="#3182F6"/>
<path d="M30 22V35.91C33.83 35.91 36.95 32.79 36.95 28.96C36.95 25.12 33.83 22 30 22Z" fill="#3182F6"/>
<path d="M29.25 26V31.5H30.21L30.69 28.43L30.21 26H29.25Z" fill="white"/>
<path d="M31.17 26H30.21V31.5H31.17V26Z" fill="white"/>
<path d="M30.1997 33L27.1686 30L33.2308 30L30.1997 33Z" fill="white"/>
</svg>
