<svg width="466" height="414" viewBox="0 0 466 414" fill="none" xmlns="http://www.w3.org/2000/svg">
<path d="M102.46 172C105.563 172 113.806 173 117.5 173C119.716 175.093 117.973 175.662 116.311 177.231C114.649 178.801 96.3656 182.463 94.1494 180.37C91.9333 178.278 91.9333 175.662 94.1494 175.662C96.3656 175.662 98.5818 172 102.46 172Z" fill="#693535"/>
<path opacity="0.15" d="M209.773 405C325.627 405 419.545 391.454 419.545 374.744C419.545 358.035 325.627 344.489 209.773 344.489C93.9185 344.489 0 358.035 0 374.744C0 391.454 93.9185 405 209.773 405Z" fill="url(#paint0_radial_719_11666)"/>
<g filter="url(#filter0_d_719_11666)">
<path d="M123.924 196.425L142.729 206.458L182.502 192.324L189.412 209.342C189.412 209.342 152.913 228.012 145.853 228.087C138.794 228.162 120.319 223.04 120.319 223.04L123.924 196.425Z" fill="white"/>
</g>
<g opacity="0.85">
<path d="M271.907 185.767H193.863C188.466 185.767 184.091 190.142 184.091 195.538V215.017C184.091 220.414 188.466 224.789 193.863 224.789H271.907C277.303 224.789 281.678 220.414 281.678 215.017V195.538C281.678 190.142 277.303 185.767 271.907 185.767Z" fill="#D44F4C"/>
<path d="M271.906 279.459H193.862C188.465 279.459 184.09 283.834 184.09 289.231V308.71C184.09 314.106 188.465 318.481 193.862 318.481H271.906C277.303 318.481 281.678 314.106 281.678 308.71V289.231C281.678 283.834 277.303 279.459 271.906 279.459Z" fill="#D44F4C"/>
<path d="M223.112 232.611H193.862C188.465 232.611 184.09 236.986 184.09 242.383V261.861C184.09 267.258 188.465 271.633 193.862 271.633H223.112C228.509 271.633 232.884 267.258 232.884 261.861V242.383C232.884 236.986 228.509 232.611 223.112 232.611Z" fill="#D44F4C"/>
<g filter="url(#filter1_d_719_11666)">
<path d="M223.112 326.272H193.862C188.465 326.272 184.09 330.647 184.09 336.044V355.523C184.09 360.919 188.465 365.294 193.862 365.294H223.112C228.509 365.294 232.884 360.919 232.884 355.523V336.044C232.884 330.647 228.509 326.272 223.112 326.272Z" fill="#D44F4C"/>
</g>
<g filter="url(#filter2_d_719_11666)">
<path d="M328.49 326.272H250.446C245.049 326.272 240.674 330.647 240.674 336.044V355.523C240.674 360.92 245.049 365.294 250.446 365.294H328.49C333.887 365.294 338.262 360.92 338.262 355.523V336.044C338.262 330.647 333.887 326.272 328.49 326.272Z" fill="#C8C8CC"/>
</g>
<path d="M328.49 232.611H250.446C245.049 232.611 240.674 236.986 240.674 242.383V261.862C240.674 267.258 245.049 271.633 250.446 271.633H328.49C333.887 271.633 338.262 267.258 338.262 261.862V242.383C338.262 236.986 333.887 232.611 328.49 232.611Z" fill="#C8C8CC"/>
<path d="M328.494 279.459H299.244C293.847 279.459 289.472 283.834 289.472 289.231V308.71C289.472 314.106 293.847 318.481 299.244 318.481H328.494C333.891 318.481 338.266 314.106 338.266 308.71V289.231C338.266 283.834 333.891 279.459 328.494 279.459Z" fill="#C8C8CC"/>
<path d="M328.494 185.767H299.244C293.847 185.767 289.472 190.142 289.472 195.538V215.017C289.472 220.414 293.847 224.789 299.244 224.789H328.494C333.891 224.789 338.266 220.414 338.266 215.017V195.538C338.266 190.142 333.891 185.767 328.494 185.767Z" fill="#C8C8CC"/>
</g>
<path opacity="0.4" d="M328.964 50H299.714C294.317 50 289.942 54.375 289.942 59.7717V79.2503C289.942 84.6471 294.317 89.022 299.714 89.022H333.664C339.061 89.022 338.736 89.9137 338.736 84.5169V59.7717C338.736 54.375 334.361 50 328.964 50Z" fill="#C8C8CC"/>
<path opacity="0.5" d="M230.521 89.1191H152.476C147.08 89.1191 142.705 93.4941 142.705 98.8909V118.369C142.705 129.389 141.554 128.141 152.476 128.141H230.521C235.917 128.141 240.292 123.766 240.292 118.369V98.8909C240.292 93.4941 235.917 89.1191 230.521 89.1191Z" fill="#D44F4C"/>
<g filter="url(#filter3_d_719_11666)">
<path d="M120.682 350.469C120.616 352.396 120.975 354.314 121.734 356.086C122.669 357.752 124.088 359.093 125.804 359.931C129.486 361.825 133.751 362.244 137.73 361.103C138.277 360.996 138.77 360.704 139.127 360.277C139.314 359.906 139.392 359.489 139.352 359.075C139.052 356.885 137.943 354.886 136.243 353.473C134.533 352.092 133.074 350.425 131.933 348.546C130.01 344.866 131.482 335.103 124.513 336.605C118.715 337.807 120.517 346.308 120.682 350.469Z" fill="#FFBAA8"/>
<path d="M119.722 357.063C119.722 357.063 118.73 359.481 119.947 360.908C121.163 362.335 133.645 370.085 142.056 363.912C150.468 357.739 130.731 356.778 130.731 356.778L119.722 357.063Z" fill="#397AF6"/>
<path d="M120.217 351.4C120.601 351.213 121.039 351.168 121.452 351.276C121.866 351.383 122.227 351.635 122.47 351.986C123.295 352.91 124.341 353.609 125.511 354.016C126.68 354.424 127.934 354.526 129.154 354.314C131.873 353.668 132.999 350.469 134.336 350.469C135.673 350.469 142.988 356.657 143.348 359.316C143.709 361.974 140.044 363.927 135.928 364.167C131.813 364.407 122.41 361.599 120.773 359.421C120.041 358.228 119.608 356.875 119.511 355.479C119.414 354.082 119.656 352.683 120.217 351.4Z" fill="white"/>
<path d="M96.831 354.194C96.7684 356.122 97.1326 358.041 97.8974 359.812C98.83 361.484 100.257 362.827 101.983 363.657C105.657 365.557 109.92 365.977 113.894 364.828C114.464 364.713 114.972 364.392 115.321 363.927C115.514 363.558 115.592 363.14 115.546 362.726C115.246 360.535 114.137 358.537 112.437 357.123C110.734 355.734 109.277 354.069 108.126 352.197C106.309 348.517 107.675 338.754 100.721 340.271C94.8784 341.622 96.6808 350.109 96.831 354.194Z" fill="#FFBAA8"/>
<path d="M95.8696 360.833C95.8696 360.833 94.8933 363.266 96.1099 364.678C97.3266 366.09 109.808 373.87 118.219 367.682C126.631 361.493 106.804 360.607 106.804 360.607L95.8696 360.833Z" fill="#397AF6"/>
<path d="M96.3801 355.216C96.7609 355.026 97.1976 354.981 97.6091 355.088C98.0207 355.196 98.3792 355.449 98.6181 355.801C99.4446 356.724 100.49 357.424 101.658 357.836C102.826 358.248 104.08 358.359 105.302 358.159C108.036 357.514 109.147 354.314 110.514 354.314C111.881 354.314 119.136 360.503 119.526 363.161C119.917 365.82 116.222 367.772 112.106 368.013C107.991 368.253 98.5881 365.444 96.9509 363.266C96.211 362.071 95.7725 360.714 95.6731 359.311C95.5737 357.909 95.8163 356.503 96.3801 355.216Z" fill="white"/>
<path d="M91.8742 251.577C91.8742 251.577 90.5675 322.982 95.8545 346.804L109.373 348.456L118.685 250.691L91.8742 251.577Z" fill="#473F47"/>
<path d="M133.345 243.766C133.345 243.766 139.653 282.188 131.993 344.16L118.475 345.828L109.252 248.032L133.345 243.766Z" fill="#473F47"/>
<path d="M132.113 213.636C132.113 214.913 132.278 216.22 132.278 217.466C132.278 224.601 130.626 231.946 132.759 238.93C133.445 240.417 133.65 242.082 133.345 243.691C132.732 244.986 131.662 246.008 130.341 246.56C124.062 250 116.823 251.066 109.718 252.057C104.386 252.808 96.8158 254.386 91.9043 251.517C90.0349 250.12 88.7804 248.052 88.4046 245.749C86.5163 238.375 85.4038 230.824 85.0852 223.219C85.0852 222.213 84.95 221.296 84.8899 220.215C84.4894 213.366 84.3492 206.537 84.4693 199.728C84.4693 194.771 84.965 189.409 88.1943 185.669C92.49 180.697 100.811 177.393 107.135 176.236C109.191 175.831 111.296 175.725 113.383 175.921C116.328 176.398 119.171 177.368 121.794 178.79C124.948 180.292 127.802 181.658 129.304 184.798C130.99 188.394 132.172 192.204 132.819 196.123C133.379 199.792 133.445 203.521 133.014 207.208C132.819 209.01 132.353 210.797 132.188 212.6C132.128 212.99 132.128 213.321 132.113 213.636Z" fill="white"/>
<path opacity="0.1" d="M140.356 217.213C138.223 216.973 127.559 211.671 126.387 210.784C128.024 214.224 130.232 224.903 130.593 225.113C134.61 227.114 138.976 228.318 143.45 228.658C147.946 228.984 152.449 228.136 156.517 226.195C158.515 225.026 160.576 223.968 162.691 223.026C163.952 222.545 165.274 222.275 166.521 221.854C169.846 220.598 172.973 218.868 175.803 216.717C176.265 216.492 176.675 216.173 177.006 215.779C177.337 215.386 177.583 214.928 177.726 214.434C177.921 213.173 176.779 212.091 175.638 211.535C173.82 210.737 171.856 210.322 169.87 210.319C167.262 209.988 164.62 210.049 162.03 210.499C160.393 210.965 159.191 212.422 157.599 213.203C153.003 215.23 145.358 217.799 140.356 217.213Z" fill="#020202"/>
<path opacity="0.1" d="M103.034 254.01C100.961 254.611 96.1999 252.719 94.6228 252.508C93.6907 252.277 92.7729 251.991 91.8741 251.652C87.1578 250.481 86.6021 237.218 86.1214 233.628C84.8898 224.196 82.9973 214.417 82.8921 204.97C82.6822 201.303 83.1143 197.628 84.1688 194.11C84.7047 192.359 85.6169 190.746 86.8415 189.384C88.0661 188.021 89.5735 186.943 91.2583 186.225C91.9191 185.954 92.6445 185.881 93.3461 186.015C96.2149 186.751 96.8007 191.497 97.3114 193.705C98.1675 197.73 100.135 199.578 102.133 202.807C104.13 206.036 104.266 210.077 106.158 213.321C106.63 214.248 107.284 215.071 108.081 215.739C109.704 216.688 111.589 217.088 113.458 216.881H126.976C128.068 216.727 129.177 217.001 130.07 217.647C130.464 218.159 130.741 218.751 130.881 219.382C131.021 220.012 131.021 220.666 130.881 221.297L130.055 231.315C130.069 231.759 129.954 232.197 129.725 232.577C129.322 232.981 128.791 233.231 128.223 233.283C124.508 233.816 120.9 234.926 117.528 236.572C114.247 238.82 110.756 240.747 107.104 242.325C106.056 242.801 105.096 243.451 104.266 244.247C103.3 245.464 102.814 246.992 102.899 248.543C102.899 249.519 104.146 252.538 103.785 253.244C103.72 253.417 103.62 253.575 103.491 253.707C103.361 253.839 103.206 253.942 103.034 254.01Z" fill="#020202"/>
<path d="M117.544 170.469C116.799 171.314 115.765 171.85 114.645 171.971C113.71 172.046 112.771 172.046 111.836 171.971H111.325C111.199 171.926 111.061 171.926 110.935 171.971C110.876 172.023 110.83 172.088 110.801 172.161C110.773 172.234 110.762 172.313 110.769 172.391C110.604 174.255 110.604 176.13 110.769 177.994V179.015C110.86 179.36 110.86 179.722 110.769 180.067C110.501 180.453 110.09 180.717 109.628 180.803C108.813 181.09 107.954 181.237 107.09 181.238C105.23 181.111 103.432 180.517 101.863 179.511C101.998 176.303 101.832 173.09 101.367 169.913C100.781 165.812 99.6997 161.727 100.135 157.612C100.154 156.643 100.38 155.69 100.797 154.815C101.214 153.941 101.813 153.166 102.554 152.541C103.295 151.917 104.16 151.458 105.093 151.195C106.025 150.933 107.003 150.872 107.961 151.018C110.906 150.98 113.801 151.776 116.312 153.316C117.243 153.947 117.333 154.818 117.544 155.794C117.874 157.401 118.129 159.038 118.31 160.676C118.49 162.313 118.625 164.401 118.655 166.278C118.801 167.763 118.406 169.251 117.544 170.469Z" fill="#FFBAA8"/>
<path d="M114.284 154.202C112.362 154.728 109.883 154.202 107.946 155.043C106.627 155.726 105.598 156.861 105.047 158.239C104.495 159.618 104.458 161.149 104.942 162.553C104.146 162.838 103.995 161.396 103.44 160.826C102.884 160.255 101.517 161.021 101.337 162.012C101.396 163.015 101.695 163.988 102.208 164.851C102.973 166.62 103.11 168.596 102.599 170.454C102.463 170.889 102.133 171.415 101.712 171.295C101.292 171.175 100.961 170.424 100.691 170.108C100.263 169.574 99.796 169.072 99.2941 168.606C98.3328 167.765 97.2514 167.014 96.2901 166.188C95.3288 165.362 94.9233 164.566 93.7667 164.265C92.6781 164.041 91.573 163.905 90.4623 163.86C89.5933 163.685 88.7895 163.274 88.1396 162.672C87.4897 162.069 87.0191 161.299 86.7797 160.445C86.5403 159.592 86.5416 158.689 86.7833 157.836C87.0249 156.984 87.4977 156.215 88.1492 155.614C88.5338 155.357 88.8569 155.019 89.0955 154.622C89.2401 154.177 89.2812 153.704 89.2156 153.241C89.2463 152.036 89.5735 150.858 90.1682 149.81C90.7629 148.762 91.6068 147.877 92.6252 147.233C94.6834 145.938 97.0734 145.271 99.5044 145.31C100.013 145.336 100.522 145.27 101.006 145.115C101.47 144.881 101.891 144.571 102.253 144.199C103.164 143.427 104.218 142.842 105.355 142.478C106.493 142.114 107.69 141.978 108.88 142.077C110.07 142.176 111.229 142.508 112.29 143.055C113.351 143.602 114.294 144.353 115.065 145.265C115.459 145.727 115.801 146.231 116.087 146.767C116.87 148.081 117.177 149.624 116.958 151.138C116.896 151.866 116.603 152.556 116.122 153.107C115.641 153.658 114.998 154.042 114.284 154.202Z" fill="#473F47"/>
<path d="M111.836 171.986H111.325C111.197 171.956 111.063 171.956 110.935 171.986C110.877 172.041 110.831 172.11 110.803 172.185C110.774 172.26 110.763 172.341 110.77 172.421C110.604 174.285 110.604 176.16 110.77 178.024C109.121 177.501 107.703 176.424 106.756 174.976C105.809 173.529 105.391 171.799 105.573 170.078C107.607 170.935 109.727 171.575 111.896 171.986H111.836Z" fill="#E0A091"/>
<path d="M89.9215 186.465C92.4672 185.564 95.2661 185.71 97.7045 186.87C100.143 188.03 102.022 190.11 102.929 192.653L112.136 218.638C112.586 219.899 112.784 221.237 112.716 222.574C112.649 223.912 112.318 225.223 111.743 226.433C111.169 227.642 110.361 228.727 109.366 229.624C108.372 230.521 107.21 231.213 105.948 231.66C103.402 232.561 100.603 232.415 98.1649 231.255C95.7265 230.095 93.8477 228.015 92.9405 225.472L83.7333 199.487C83.283 198.226 83.0859 196.888 83.1533 195.551C83.2207 194.213 83.5513 192.902 84.1261 191.692C84.7009 190.483 85.5087 189.398 86.5031 188.501C87.4976 187.604 88.6592 186.912 89.9215 186.465Z" fill="white"/>
<path d="M146.052 206.382C147.007 205.681 147.92 204.924 148.785 204.114C150.876 202.233 153.235 200.673 155.785 199.487C158.343 198.294 161.211 197.932 163.986 198.451C164.571 198.556 165.292 198.932 165.217 199.548C165.142 200.163 164.782 200.193 164.421 200.389C162.809 201.291 161.101 202.012 159.329 202.537C158.943 202.593 158.573 202.729 158.242 202.936C157.911 203.143 157.627 203.416 157.407 203.738C158.002 203.8 158.604 203.723 159.164 203.513C161.353 202.968 163.62 202.81 165.863 203.047C166.073 203.047 166.329 203.047 166.434 203.303C166.462 203.374 166.476 203.451 166.474 203.529C166.472 203.606 166.454 203.682 166.422 203.752C166.39 203.822 166.343 203.885 166.286 203.937C166.229 203.989 166.161 204.029 166.088 204.054C163.94 205.766 160.711 205.646 158.653 207.493C158.293 207.809 158.023 208.454 158.428 208.71C158.598 208.769 158.784 208.769 158.954 208.71C159.844 208.613 160.724 208.437 161.582 208.184C162.993 207.909 164.44 207.873 165.863 208.079C165.957 208.08 166.049 208.101 166.135 208.139C166.22 208.178 166.296 208.234 166.359 208.304C166.569 208.635 166.133 208.995 165.788 209.175L158.278 212.42C159.302 212.51 160.333 212.51 161.357 212.42C162.393 212.362 163.415 212.688 164.226 213.336C164.261 213.351 164.292 213.376 164.313 213.408C164.335 213.44 164.346 213.478 164.346 213.516C164.346 213.651 164.346 213.726 164.136 213.787C162.943 214.42 161.636 214.809 160.291 214.928C159.493 214.993 158.703 215.133 157.932 215.349C157.466 215.529 157.01 215.735 156.566 215.964C155.153 216.702 153.632 217.209 152.06 217.466C150.456 217.737 148.808 217.468 147.373 216.7C146.99 216.454 146.582 216.247 146.157 216.085C144.655 215.649 142.912 217.256 141.485 216.505C141.008 216.179 140.625 215.734 140.374 215.213C139.608 213.952 137.025 210.407 139.112 209.205C140.28 208.75 141.474 208.364 142.687 208.049C143.867 207.62 144.995 207.061 146.052 206.382Z" fill="#FFBAA8"/>
<path d="M113.894 210.482L139.338 208.034L143.438 220.44C143.438 220.44 106.264 235.565 99.0389 231.36C91.8142 227.154 98.5282 220.29 98.5282 220.29C98.5282 220.29 99.3693 210.227 113.894 210.482Z" fill="white"/>
</g>
<path d="M189.122 194.112C189.488 194.247 189.885 194.276 190.268 194.196C190.65 194.117 191.002 193.931 191.285 193.661C192.126 192.685 191.465 191.213 190.774 190.117C191.42 189.621 192.366 190.252 192.862 190.928C193.358 191.604 193.958 192.43 194.784 192.31C195.611 192.189 196.076 191.078 195.866 190.237C195.529 189.409 195.107 188.618 194.604 187.879C194.98 187.383 195.776 187.879 196.106 188.359C196.437 188.84 196.872 189.576 197.473 189.441C197.706 189.336 197.895 189.151 198.005 188.92C198.115 188.689 198.139 188.427 198.074 188.179C197.927 187.687 197.817 187.185 197.743 186.677C198.765 186.347 199.936 187.398 200.868 186.902C201.169 186.665 201.369 186.321 201.424 185.941C201.48 185.561 201.388 185.174 201.168 184.86L201.063 184.725C200.457 184.14 199.676 183.771 198.84 183.673C196.767 183.236 194.608 183.495 192.697 184.409C190.434 185.113 188.208 185.93 186.028 186.857C184.04 187.701 182.292 189.022 180.936 190.703C180.828 190.889 180.792 191.109 180.837 191.319C180.881 191.53 181.002 191.717 181.176 191.844C181.465 191.933 181.774 191.933 182.062 191.844C183.606 191.541 185.207 191.808 186.568 192.595C187.299 193.096 188.056 193.557 188.836 193.977L189.122 194.112Z" fill="#FFBAA8"/>
<circle cx="68.5" cy="66.5" r="14.5" fill="white"/>
<circle cx="412" cy="118" r="11" fill="white"/>
<circle cx="157" cy="59" r="9" fill="white"/>
<circle cx="26.5" cy="179.5" r="7.5" fill="white" fill-opacity="0.8"/>
<circle cx="458.5" cy="248.5" r="7.5" fill="white" fill-opacity="0.8"/>
<circle cx="282" cy="145" r="9" fill="white"/>
<circle cx="368" cy="178" r="12" fill="white" fill-opacity="0.5"/>
<circle cx="246" cy="12" r="12" fill="white" fill-opacity="0.5"/>
<g clip-path="url(#clip0_719_11666)">
<path opacity="0.15" d="M373.786 414C402.615 414 425.985 409.662 425.985 404.311C425.985 398.96 402.615 394.622 373.786 394.622C344.958 394.622 321.588 398.96 321.588 404.311C321.588 409.662 344.958 414 373.786 414Z" fill="url(#paint1_radial_719_11666)"/>
<path fill-rule="evenodd" clip-rule="evenodd" d="M377.446 302.707C383.599 303.037 389.682 304.168 395.542 306.073C398.075 306.887 400.555 307.858 402.968 308.979C406.231 310.489 409.338 312.314 412.246 314.427C416.742 317.681 420.607 321.727 423.65 326.366C425.752 329.569 427.144 333.039 428.111 336.693C428.546 338.343 428.912 340.03 429.179 341.765C429.815 345.64 430.114 349.689 430.403 353.848C430.81 359.592 430.098 365.361 428.309 370.834C425.752 378.676 421.096 385.782 414.778 391.555C405.696 399.856 393.276 405.435 379.073 406.785C369.347 407.783 359.546 405.823 350.954 401.161C347.436 399.262 344.172 396.924 341.241 394.205C338.55 391.677 336.16 388.845 334.119 385.768C332.72 383.686 331.482 381.501 330.414 379.232C329.207 376.65 328.333 373.506 327.692 370.186C327.243 367.856 326.891 365.44 326.658 363.07C326.405 360.566 326.26 358.116 326.159 355.863C326.016 351.871 326.334 347.875 327.107 343.956C327.599 341.354 328.251 338.785 329.06 336.263C331.197 329.644 334.32 323.561 337.814 318.893C338.746 317.649 339.746 316.458 340.811 315.327C344.962 310.934 350.102 307.595 355.803 305.584C359.257 304.339 362.842 303.492 366.488 303.059C370.125 302.643 373.79 302.525 377.446 302.707Z" fill="white"/>
<g opacity="0.38">
<path opacity="0.38" fill-rule="evenodd" clip-rule="evenodd" d="M340.044 324.861C340.672 325.536 340.346 326.857 339.318 327.797C338.289 328.736 336.948 328.971 336.32 328.296C335.693 327.621 336.016 326.297 337.044 325.344C338.073 324.391 339.425 324.183 340.044 324.861Z" fill="#B4B5B6"/>
</g>
<g opacity="0.38">
<path opacity="0.38" fill-rule="evenodd" clip-rule="evenodd" d="M412.927 328.277C412.475 329.078 411.116 329.182 409.892 328.499C408.669 327.815 408.044 326.606 408.495 325.8C408.947 324.994 410.304 324.895 411.527 325.581C412.751 326.267 413.378 327.474 412.927 328.277Z" fill="#B4B5B6"/>
</g>
<path fill-rule="evenodd" clip-rule="evenodd" d="M378.915 244.231C364.757 243.596 353.714 247.303 345.943 257.187C340.226 264.46 335.642 276.053 336.166 286.745C336.454 292.663 337.234 300.395 339.67 305.453C346.704 320.024 362.516 329.238 380.23 327.551C405.933 325.106 424.574 306.63 422.971 285.04C422.373 276.949 421.654 269.374 417.361 263.051C409.51 251.451 394.404 244.928 378.915 244.231Z" fill="#EDEEEF"/>
<path fill-rule="evenodd" clip-rule="evenodd" d="M378.915 239.485C363.889 238.834 352.159 242.688 343.92 252.927C337.846 260.465 332.968 272.479 333.529 283.558C333.831 289.697 334.654 297.705 337.242 302.942C344.7 318.036 361.485 327.575 380.291 325.822C407.576 323.275 427.381 304.121 425.704 281.749C425.071 273.367 424.312 265.517 419.763 258.967C411.391 246.951 395.355 240.2 378.915 239.485Z" fill="white"/>
<g opacity="0.28">
<path opacity="0.28" fill-rule="evenodd" clip-rule="evenodd" d="M425.677 281.749C425.044 273.368 424.285 265.518 419.736 258.967C411.391 246.956 395.355 240.201 378.915 239.483C377.016 239.4 375.111 239.386 373.212 239.461C372.175 239.504 369.304 239.194 368.55 239.995C368.241 240.329 368.249 240.852 368.363 241.292C369.194 244.519 373.402 244.228 375.982 244.442C389.959 245.619 405.762 250.314 414.153 262.411C418.694 268.961 420.327 275.524 420.327 285.691C420.327 297.601 415.04 309.329 405.92 317.39C418.929 309.241 426.778 296.165 425.677 281.749Z" fill="#D3D5D6"/>
</g>
<path fill-rule="evenodd" clip-rule="evenodd" d="M360.277 282.384C360.491 281.815 360.812 281.199 361.033 280.574C361.063 280.494 361.097 280.414 361.121 280.331C361.231 279.933 361.276 279.53 361.357 279.197C361.461 278.735 361.57 278.345 361.64 278.081C361.643 278.059 361.643 278.036 361.64 278.014C361.64 277.857 361.693 277.657 361.712 277.48C361.725 277.384 361.725 277.286 361.712 277.189C361.693 277.056 361.458 276.864 361.105 276.722C360.932 276.651 360.753 276.591 360.571 276.544C360.307 276.481 360.039 276.436 359.77 276.407C359.334 276.338 358.926 276.279 358.533 276.202C357.916 276.059 357.292 275.948 356.663 275.868C356.246 275.834 355.811 275.868 355.354 275.868C355.087 275.868 354.788 275.868 354.486 275.868C354.021 275.89 353.417 275.791 352.787 275.756C352.379 275.733 351.971 275.748 351.566 275.799C351.376 275.823 350.719 275.879 350.083 275.97C349.719 276.008 349.361 276.088 349.015 276.207C348.542 276.397 348.334 276.722 348.374 277.083C348.447 277.424 348.624 277.735 348.881 277.972C349.349 278.407 349.849 278.805 350.377 279.165C351.139 279.699 351.889 280.262 352.675 280.766C353.014 280.985 353.374 281.161 353.708 281.385C353.989 281.57 354.243 281.799 354.51 281.981C355.114 282.37 355.763 282.685 356.401 283.019C356.877 283.378 357.378 283.704 357.9 283.993C358.482 284.287 359.067 284.402 359.262 284.327C359.386 284.279 359.492 284.193 359.564 284.081C359.791 283.812 359.994 283.16 360.277 282.384Z" fill="#FCB656"/>
<path d="M343.261 273.936C343.344 273.936 343.426 273.918 343.501 273.882C343.576 273.845 343.642 273.793 343.693 273.728C344.148 273.151 345.766 271.326 347.583 272.182C347.854 272.302 348.116 272.44 348.368 272.596C348.539 272.729 348.697 272.863 348.865 273.031L349.132 273.277L349.162 273.303C349.24 273.365 349.308 273.438 349.365 273.52C349.446 273.641 349.572 273.724 349.716 273.752C349.859 273.78 350.008 273.75 350.129 273.669C350.25 273.588 350.334 273.461 350.362 273.318C350.39 273.175 350.36 273.027 350.278 272.906C350.167 272.744 350.034 272.598 349.883 272.473L349.859 272.452L349.608 272.225C349.432 272.06 349.247 271.889 349.039 271.729C348.723 271.523 348.391 271.344 348.045 271.195C346.322 270.394 344.372 271.088 342.825 273.063C342.761 273.144 342.72 273.241 342.709 273.344C342.697 273.447 342.715 273.551 342.761 273.644C342.806 273.737 342.877 273.816 342.965 273.87C343.053 273.925 343.154 273.953 343.258 273.952L343.261 273.936Z" fill="#39342E"/>
<path d="M370.498 274.921C370.588 274.922 370.678 274.901 370.758 274.858C370.837 274.816 370.905 274.754 370.955 274.678C371.027 274.581 371.109 274.491 371.2 274.411C371.291 274.323 371.379 274.238 371.467 274.144C371.63 273.984 371.783 273.832 371.948 273.693C372.194 273.526 372.452 273.377 372.72 273.247C374.513 272.329 376.193 274.077 376.655 274.635C376.701 274.694 376.757 274.743 376.822 274.779C376.887 274.815 376.958 274.838 377.032 274.846C377.106 274.854 377.18 274.847 377.251 274.825C377.322 274.803 377.388 274.768 377.445 274.72C377.502 274.672 377.548 274.613 377.582 274.547C377.615 274.481 377.635 274.409 377.64 274.335C377.645 274.261 377.634 274.187 377.61 274.117C377.585 274.047 377.547 273.983 377.497 273.928C375.894 272.019 373.917 271.4 372.218 272.27C371.878 272.436 371.553 272.629 371.246 272.85C371.053 273.013 370.868 273.185 370.693 273.367L370.447 273.605C370.296 273.747 370.161 273.904 370.044 274.075C369.989 274.157 369.957 274.253 369.952 274.353C369.948 274.452 369.97 274.551 370.017 274.638C370.064 274.726 370.133 274.799 370.218 274.85C370.304 274.901 370.401 274.929 370.5 274.929L370.498 274.921Z" fill="#39342E"/>
<path fill-rule="evenodd" clip-rule="evenodd" d="M383.986 281.944C383.935 281.684 383.85 281.433 383.732 281.196C383.647 280.922 383.51 280.666 383.328 280.443C383.228 280.35 383.117 280.268 382.997 280.201C382.389 279.84 381.715 279.603 381.015 279.504C380.552 279.419 380.081 279.38 379.61 279.387C379.356 279.365 379.11 279.386 378.865 279.37C378.603 279.344 378.34 279.344 378.079 279.37C377.603 279.486 377.155 279.695 376.76 279.984C376.382 280.213 376.04 280.495 375.744 280.823C375.544 281.028 375.388 281.273 375.285 281.541C375.239 281.705 375.226 281.876 375.245 282.045C375.299 282.298 375.389 282.541 375.512 282.768C375.795 283.339 376.234 283.819 376.778 284.151C377.121 284.362 377.49 284.528 377.876 284.645C378.484 284.815 379.115 284.891 379.746 284.869C380.348 284.872 380.946 284.782 381.52 284.602C381.872 284.469 382.209 284.298 382.524 284.092C382.725 283.969 382.92 283.849 383.096 283.716C383.458 283.469 383.746 283.128 383.929 282.731C384.018 282.478 384.038 282.206 383.986 281.944V281.944Z" fill="#F4A074"/>
<path fill-rule="evenodd" clip-rule="evenodd" d="M345.034 281.943C344.993 281.687 344.923 281.437 344.826 281.196C344.759 280.928 344.647 280.674 344.495 280.443C344.417 280.351 344.327 280.269 344.228 280.2C343.747 279.847 343.191 279.609 342.604 279.504C342.227 279.419 341.841 279.38 341.455 279.386C341.247 279.365 341.046 279.386 340.843 279.37C340.629 279.345 340.413 279.345 340.199 279.37C339.803 279.495 339.438 279.704 339.131 279.984C338.814 280.221 338.534 280.503 338.3 280.822C338.131 281.036 338.003 281.28 337.923 281.54C337.886 281.706 337.875 281.876 337.891 282.045C338.038 282.875 338.482 283.624 339.141 284.151C339.415 284.358 339.717 284.525 340.039 284.645C340.532 284.815 341.052 284.891 341.572 284.869C342.068 284.871 342.56 284.781 343.023 284.602C343.317 284.466 343.593 284.294 343.846 284.092C344.008 283.975 344.164 283.85 344.313 283.716C344.621 283.45 344.856 283.112 344.997 282.731C345.067 282.474 345.079 282.205 345.034 281.943V281.943Z" fill="#F4A074"/>
<path fill-rule="evenodd" clip-rule="evenodd" d="M363.523 241.068C363.365 240.499 364.159 234.606 364.439 233.557C364.992 231.499 365.561 229.046 366.272 227.044C367.266 224.255 368.735 221.281 370.012 218.612C370.41 217.78 372.619 214.609 373.773 214.342C375.477 213.931 379.116 213.915 381.336 214.179C386.753 214.822 387.643 215.844 393.089 216.52C396.113 216.896 403.732 217.905 405.554 220.98C406.355 222.336 407.771 231.95 408.084 234.654C408.519 238.391 408.49 246.094 407.696 250.002C406.871 254.099 400.665 250.613 397.874 249.807C393.202 248.456 390.044 247.757 385.319 246.684C381.357 245.784 377.337 244.725 373.263 244.332C372.493 244.26 364.247 242.213 363.6 241.223C363.528 241.14 363.494 241.167 363.523 241.068Z" fill="#B94E4F"/>
<path fill-rule="evenodd" clip-rule="evenodd" d="M420.401 252.705C420.452 251.504 417.003 250.378 416.207 250.215L356.521 235.698L355.063 235.818C353.746 236.138 353.708 236.757 353.057 237.686C352.405 238.615 351.988 240.411 351.895 242.101C351.705 243.003 352.199 243.868 352.995 244.031C354.032 244.298 355.274 245.178 356.302 245.485C359.099 246.318 361.672 246.638 364.517 247.308C371.639 248.979 378.45 250.474 385.399 252.38C392.878 254.435 399.664 256.09 407.304 257.085C409.144 257.326 411.746 258.065 413.597 258.153C415.141 258.217 416.536 258.089 418.077 258.081C419.031 258.081 419.87 256.899 420.057 255.996C420.271 254.912 420.386 253.811 420.401 252.705V252.705Z" fill="#B94E4F"/>
<path d="M337.859 327.41C338.038 327.41 338.212 327.352 338.355 327.244C338.497 327.137 338.601 326.986 338.651 326.815C338.701 326.643 338.693 326.46 338.63 326.293C338.567 326.126 338.451 325.984 338.3 325.889C337.79 325.566 336.964 325.467 335.629 325.341C335.02 325.304 334.416 325.219 333.82 325.088C331.149 324.287 328.21 323.903 325.397 323.532C323.327 323.265 321.187 322.979 319.184 322.536C318.481 322.381 317.763 322.184 317.068 322.002C315.999 321.689 314.914 321.432 313.817 321.233C313.694 321.217 313.57 321.208 313.446 321.207H313.326C313.123 321.172 311.122 320.737 310.921 320.673C311.036 320.707 311.142 320.767 311.231 320.847C311.319 320.927 311.389 321.027 311.434 321.137L310.676 321.458L309.944 321.842C310.131 322.197 310.131 322.197 311.736 322.547C313.01 322.827 313.115 322.835 313.163 322.84C313.211 322.846 313.336 322.84 313.43 322.84H313.47C313.497 322.838 313.525 322.838 313.553 322.84C314.594 323.029 315.625 323.273 316.641 323.572C317.354 323.767 318.094 323.969 318.834 324.132C320.91 324.591 323.084 324.877 325.189 325.152C327.949 325.515 330.799 325.889 333.353 326.652C334.054 326.821 334.769 326.927 335.49 326.97C336.123 327.028 337.186 327.132 337.432 327.271C337.559 327.356 337.707 327.404 337.859 327.41Z" fill="#665858"/>
<path d="M298.123 325.128C298.05 325.032 298.008 324.917 298.001 324.797C297.994 324.677 298.024 324.558 298.086 324.455C298.158 324.329 298.278 324.237 298.419 324.199C298.56 324.161 298.71 324.18 298.836 324.252C298.869 324.271 298.899 324.294 298.927 324.319V324.319C299.895 324.242 300.856 324.1 301.804 323.892C302.581 323.729 303.37 323.626 304.163 323.582C305.632 323.454 307.149 323.315 308.018 322.637C308.292 322.437 308.581 322.259 308.883 322.104C309.266 321.921 309.622 321.684 309.938 321.402C309.568 320.992 309.155 320.623 308.707 320.299C308.295 319.996 307.906 319.663 307.542 319.304C307.187 318.935 306.741 318.367 306.377 317.908L306.089 317.542L305.643 316.979C304.606 315.668 303.786 314.63 302.344 313.722C302.22 313.645 302.132 313.522 302.1 313.379C302.067 313.237 302.092 313.088 302.17 312.964C302.248 312.841 302.371 312.753 302.513 312.721C302.656 312.688 302.805 312.713 302.929 312.791C304.531 313.8 305.448 314.958 306.506 316.298L306.949 316.856C307.037 316.965 307.136 317.094 307.243 317.23C307.588 317.667 308.015 318.212 308.333 318.538C308.66 318.86 309.01 319.159 309.38 319.432C310.017 319.872 310.578 320.413 311.042 321.033C311.277 321.356 311.082 321.653 310.929 321.887C310.662 322.376 310.021 322.723 309.415 323.056C309.167 323.185 308.929 323.33 308.701 323.492C307.574 324.386 305.889 324.53 304.259 324.671C303.523 324.714 302.79 324.811 302.068 324.962C301.9 325.002 301.091 325.162 300.289 325.283C299.838 325.358 299.382 325.402 298.924 325.416C298.443 325.413 298.259 325.312 298.123 325.128ZM310.144 321.658L310.125 321.628L310.144 321.658Z" fill="#665858"/>
<path d="M310.868 322.248C310.765 322.192 310.683 322.104 310.636 321.997C310.601 321.949 310.537 321.866 310.483 321.802L309.866 321.676C309.328 321.587 308.8 321.443 308.29 321.247C306.596 320.611 304.876 320.329 303.054 320.032C302.52 319.947 302.004 319.859 301.478 319.765C301.314 319.74 301.148 319.726 300.981 319.723C300.262 319.725 299.552 319.553 298.914 319.221L298.85 319.186C298.694 319.107 298.549 319.009 298.417 318.895C298.316 318.793 298.26 318.655 298.26 318.512C298.26 318.369 298.316 318.231 298.417 318.129C298.517 318.025 298.655 317.963 298.8 317.958C298.945 317.953 299.087 318.005 299.194 318.102C299.256 318.147 299.321 318.186 299.389 318.22L299.467 318.263C299.958 318.509 300.501 318.633 301.051 318.626C301.264 318.631 301.476 318.65 301.687 318.684C302.221 318.778 302.726 318.863 303.247 318.951C305.039 319.245 306.893 319.549 308.693 320.224C309.147 320.399 309.617 320.526 310.096 320.603L310.897 320.769C311.271 320.852 311.645 321.527 311.648 321.535C311.684 321.615 311.701 321.702 311.698 321.789C311.695 321.877 311.671 321.963 311.629 322.039C311.582 322.125 311.512 322.197 311.427 322.246C311.343 322.296 311.247 322.322 311.148 322.322C311.05 322.324 310.953 322.298 310.868 322.248V322.248ZM310.585 321.751C310.588 321.663 310.612 321.577 310.654 321.5C310.607 321.578 310.58 321.666 310.574 321.757L310.585 321.751Z" fill="#665858"/>
<path d="M416.849 323.161C417.012 323.161 417.171 323.112 417.307 323.021C417.442 322.931 417.548 322.802 417.61 322.651C417.865 322.193 418.185 321.774 418.558 321.407C418.799 321.14 419.047 320.873 419.287 320.561C420.912 318.53 423.009 316.661 425.036 314.854C426.586 313.469 428.191 312.041 429.61 310.519C430.123 309.97 430.611 309.393 431.082 308.833C431.728 308.035 432.417 307.273 433.146 306.55C433.177 306.525 433.209 306.502 433.243 306.481C433.317 306.43 433.39 306.376 433.459 306.318C433.494 306.289 433.577 306.219 434.447 305.291C435.553 304.111 435.553 304.111 435.516 303.71L434.696 303.812L433.894 303.985C433.868 303.868 433.868 303.746 433.896 303.628C433.923 303.511 433.976 303.401 434.052 303.307C433.924 303.462 432.607 304.863 432.399 305.069L432.318 305.128C432.214 305.196 432.116 305.273 432.024 305.357C431.251 306.118 430.52 306.92 429.834 307.76C429.377 308.293 428.904 308.862 428.421 309.38C427.053 310.848 425.482 312.252 423.954 313.61C421.876 315.463 419.726 317.379 418.016 319.52C417.802 319.787 417.572 320.054 417.348 320.291C416.841 320.789 416.42 321.369 416.103 322.005C416.022 322.206 416.023 322.43 416.106 322.63C416.19 322.83 416.349 322.989 416.549 323.072C416.642 323.121 416.744 323.151 416.849 323.161V323.161Z" fill="#665858"/>
<path d="M434.72 304.319C434.453 304.202 434.148 304.068 434.143 303.705C434.155 302.923 434.297 302.148 434.562 301.412C434.703 300.981 434.815 300.54 434.896 300.094C434.963 299.64 434.995 298.943 435.022 298.383C435.022 298.215 435.038 298.055 435.046 297.916C435.059 297.67 435.072 297.43 435.083 297.195C435.169 295.489 435.243 294.016 435.962 292.292C435.987 292.222 436.027 292.158 436.077 292.103C436.128 292.049 436.19 292.005 436.258 291.975C436.326 291.945 436.399 291.93 436.474 291.929C436.548 291.928 436.622 291.942 436.691 291.971C436.76 292 436.822 292.042 436.874 292.095C436.926 292.148 436.966 292.212 436.993 292.281C437.02 292.35 437.032 292.425 437.029 292.499C437.027 292.573 437.009 292.646 436.977 292.714C436.333 294.264 436.267 295.58 436.176 297.251C436.176 297.489 436.152 297.729 436.138 297.977C436.138 298.113 436.122 298.268 436.114 298.434C436.088 299.018 436.053 299.747 435.978 300.257C435.89 300.756 435.767 301.248 435.609 301.73C435.428 302.256 435.305 302.8 435.243 303.353C435.511 303.449 436.093 303.409 436.528 303.38C436.866 303.345 437.205 303.338 437.543 303.358C438.639 303.468 439.948 302.75 441.203 302.058C441.876 301.662 442.58 301.32 443.308 301.036C444.189 300.697 445.045 300.296 445.87 299.838C445.88 299.797 445.895 299.758 445.913 299.72C445.979 299.59 446.094 299.492 446.233 299.447C446.372 299.402 446.523 299.414 446.653 299.48C446.761 299.532 446.852 299.616 446.913 299.72C446.974 299.824 447.002 299.944 446.995 300.064C446.968 300.441 446.728 300.705 445.301 301.372C444.582 301.709 443.834 302.016 443.672 302.072C443.003 302.341 442.357 302.662 441.737 303.03C440.33 303.801 438.876 304.597 437.442 304.461C437.164 304.448 436.885 304.455 436.608 304.482C436.341 304.503 436.055 304.522 435.788 304.522C435.421 304.538 435.055 304.469 434.72 304.319Z" fill="#665858"/>
<path d="M434.258 304.831C434.178 304.791 434.108 304.732 434.054 304.661C434.001 304.589 433.964 304.506 433.948 304.418C433.948 304.418 433.857 303.641 434.124 303.35C434.351 303.107 434.533 302.923 434.688 302.765C435.026 302.442 435.331 302.084 435.596 301.698C436.665 300.144 438 298.877 439.285 297.649C439.656 297.294 440.028 296.939 440.396 296.581C440.548 296.438 440.71 296.305 440.88 296.183C441.33 295.894 441.697 295.494 441.948 295.022L441.991 294.937C442.024 294.874 442.054 294.809 442.079 294.742C442.123 294.618 442.211 294.513 442.325 294.448C442.44 294.383 442.574 294.36 442.704 294.386C442.833 294.411 442.949 294.482 443.031 294.585C443.112 294.689 443.154 294.818 443.148 294.95C443.109 295.116 443.048 295.276 442.966 295.425L442.932 295.495C442.607 296.128 442.125 296.667 441.532 297.061C441.401 297.155 441.277 297.256 441.158 297.363C440.786 297.729 440.41 298.089 440.033 298.449C438.729 299.693 437.498 300.868 436.491 302.328C436.191 302.768 435.846 303.176 435.462 303.545C435.342 303.67 435.195 303.812 435.035 303.991C435.035 304.071 435.035 304.167 435.035 304.225C435.05 304.305 435.048 304.387 435.028 304.465C435.008 304.543 434.972 304.616 434.921 304.679C434.87 304.742 434.806 304.793 434.734 304.828C434.661 304.864 434.581 304.883 434.501 304.885C434.417 304.885 434.334 304.867 434.258 304.831Z" fill="#665858"/>
<path fill-rule="evenodd" clip-rule="evenodd" d="M357.825 341.249C357.825 341.877 357.639 342.491 357.289 343.013C356.94 343.535 356.444 343.942 355.864 344.182C355.283 344.422 354.644 344.485 354.028 344.362C353.412 344.239 352.846 343.937 352.402 343.493C351.958 343.048 351.655 342.483 351.533 341.867C351.411 341.251 351.474 340.613 351.715 340.033C351.956 339.453 352.363 338.958 352.886 338.609C353.409 338.261 354.023 338.075 354.651 338.076C355.493 338.077 356.3 338.411 356.896 339.006C357.491 339.601 357.825 340.408 357.825 341.249V341.249Z" fill="#665858"/>
<path fill-rule="evenodd" clip-rule="evenodd" d="M356.115 354.825C356.115 355.453 355.929 356.066 355.58 356.588C355.231 357.11 354.735 357.517 354.154 357.757C353.574 357.997 352.935 358.06 352.319 357.938C351.703 357.815 351.137 357.513 350.693 357.069C350.249 356.625 349.946 356.06 349.824 355.444C349.701 354.828 349.764 354.19 350.004 353.61C350.245 353.03 350.652 352.535 351.174 352.186C351.697 351.837 352.311 351.651 352.939 351.651C353.781 351.651 354.589 351.986 355.185 352.581C355.781 353.176 356.115 353.983 356.115 354.825V354.825Z" fill="#665858"/>
<g opacity="0.28">
<path opacity="0.28" fill-rule="evenodd" clip-rule="evenodd" d="M430.403 353.837C430.115 349.679 429.815 345.629 429.18 341.754C428.912 340.03 428.546 338.343 428.111 336.682C427.144 333.023 425.752 329.558 423.65 326.355C420.607 321.716 416.742 317.67 412.246 314.416C411.108 313.584 409.932 312.797 408.72 312.057C411.609 314.651 414.145 317.612 416.264 320.865C418.363 324.068 419.758 327.538 420.725 331.195C421.157 332.844 421.51 334.531 421.793 336.266C422.426 340.139 422.728 344.191 423.017 348.347C423.423 354.092 422.711 359.861 420.92 365.336C418.366 373.178 413.707 380.283 407.389 386.057C398.307 394.358 385.888 399.936 371.684 401.287C361.958 402.279 352.158 400.314 343.568 395.649C342.895 395.284 342.232 394.899 341.581 394.504C344.424 397.092 347.572 399.324 350.954 401.153C359.546 405.815 369.347 407.775 379.073 406.777C393.277 405.427 405.706 399.837 414.778 391.547C421.091 385.771 425.752 378.668 428.309 370.826C430.099 365.352 430.81 359.582 430.403 353.837Z" fill="#D3D5D6"/>
</g>
<path d="M396.057 313.597C398.817 313.044 401.683 312.97 404.435 312.393C406.796 311.897 409.131 311.371 411.591 311.326C414.052 311.28 416.667 310.989 418.676 312.393C419.699 313.109 420.327 314.318 419.84 315.329C419.718 315.596 419.525 315.863 419.592 316.13C419.664 316.322 419.787 316.492 419.947 316.621C421.39 318.071 422.148 319.867 422.595 321.693C422.963 323.182 423.687 325.224 423.508 326.711C423.115 329.986 418.411 331.667 415.112 332.513C397.803 336.914 379.882 338.405 362.083 336.925C351.232 336.026 339.54 333.533 333.032 326.308C331.507 324.615 331.598 322.645 331.814 320.601C331.812 320.423 331.85 320.246 331.925 320.085C331.999 319.923 332.11 319.78 332.247 319.667C332.406 319.586 332.562 319.497 332.712 319.4C332.995 319.16 332.931 318.772 332.888 318.439C332.821 317.82 332.885 317.194 333.078 316.602C333.27 316.01 333.586 315.465 334.005 315.004C335.102 313.752 336.286 311.747 338.012 311.032C339.737 310.317 341.957 310.698 343.565 311.419C345.275 312.182 346.728 313.303 348.483 313.989C350.767 314.884 353.372 314.974 355.894 315.057L373.581 315.591C376.826 315.687 380.077 315.783 383.312 315.567C387.629 315.284 391.858 314.438 396.057 313.597Z" fill="#B94E4F"/>
<path d="M403.537 374.2C403.251 375.028 402.119 375.236 401.184 374.678C400.188 374.114 399.071 373.8 397.927 373.763C395.884 373.664 393.845 374.187 391.796 374.296C391.233 374.326 390.637 374.315 390.159 374.013C389.587 373.658 389.296 372.967 389.064 372.308C387.012 366.481 387.114 359.95 388.334 353.776C389.077 350.02 389.846 346.161 390.739 342.411C391.195 340.481 391.687 338.564 392.232 336.667C392.643 335.233 392.44 328.766 393.661 327.746C394.227 327.276 395.47 328.365 395.9 328.696C396.613 329.23 397.358 329.777 398.218 330.047C399.079 330.317 399.875 330.365 400.695 330.754C401.222 331.031 401.775 331.255 402.346 331.424C402.912 331.568 403.454 331.486 404.021 331.56C405.255 331.729 407.448 330.511 408.503 331.144C410.907 332.585 409.719 339.296 409.171 342.571C408.532 346.382 407.341 349.681 406.943 353.581C406.545 357.481 405.989 361.298 405.607 365.656C405.492 366.823 404.507 371.331 403.537 374.2Z" fill="#B94E4F"/>
<path d="M391.901 376.496C391.762 375.748 391.62 375.001 391.481 374.253" stroke="#B94E4F" stroke-width="2.42" stroke-miterlimit="10" stroke-linecap="round"/>
<path d="M393.316 373.864C393.399 374.774 393.485 375.687 393.567 376.597" stroke="#B94E4F" stroke-width="2.42" stroke-miterlimit="10" stroke-linecap="round"/>
<path d="M395.194 376.061C395.1 375.249 395.083 374.43 395.141 373.616" stroke="#B94E4F" stroke-width="2.42" stroke-miterlimit="10" stroke-linecap="round"/>
<path d="M396.974 373.127C397.013 374.088 397.02 375.051 396.995 376.015" stroke="#B94E4F" stroke-width="2.42" stroke-miterlimit="10" stroke-linecap="round"/>
<path d="M398.427 373.57C398.493 374.384 398.483 375.203 398.397 376.015" stroke="#B94E4F" stroke-width="2.42" stroke-miterlimit="10" stroke-linecap="round"/>
<path d="M400.366 374.008C400.275 374.809 400.198 375.636 400.136 376.453" stroke="#B94E4F" stroke-width="2.42" stroke-miterlimit="10" stroke-linecap="round"/>
<path d="M401.627 374.83C401.657 375.613 401.688 376.396 401.718 377.179" stroke="#B94E4F" stroke-width="2.42" stroke-miterlimit="10" stroke-linecap="round"/>
<path d="M390.349 373.813L390.509 377.433" stroke="#B94E4F" stroke-width="2.42" stroke-miterlimit="10" stroke-linecap="round"/>
<path d="M402.843 374.793C402.827 375.596 402.879 376.4 402.998 377.195" stroke="#B94E4F" stroke-width="2.42" stroke-miterlimit="10" stroke-linecap="round"/>
</g>
<path d="M91.7532 178.728C92.2379 178.266 92.966 178.499 93.2835 179.183C93.6329 179.891 94.1494 180.471 94.7884 180.873C95.9177 181.614 97.2854 181.934 98.4986 182.537C98.8321 182.703 99.1683 182.906 99.3244 183.267C99.5131 183.694 99.411 184.256 99.2877 184.776C98.1967 189.372 95.6019 193.733 92.5065 197.483C90.6235 199.765 88.6849 202.108 86.7185 204.336C85.708 205.484 84.6828 206.611 83.6343 207.708C82.8426 208.536 80.4466 212.954 79.3531 213.237C78.847 213.366 78.5603 212.224 78.4431 211.86C78.2429 211.265 78.0296 210.651 77.6428 210.186C77.2561 209.721 76.8199 209.426 76.5027 208.893C76.309 208.533 76.0803 208.2 75.8197 207.898C75.5521 207.614 75.2101 207.491 74.9155 207.254C74.2757 206.734 72.5499 206.829 72.1927 206.055C71.3788 204.293 74.6643 200.171 76.2493 198.148C78.0945 195.794 80.0566 193.968 81.7986 191.476C83.5407 188.984 85.3406 186.599 87.2518 183.793C87.7705 183.046 90.0847 180.339 91.7532 178.728Z" fill="#B94E4F"/>
<g filter="url(#filter4_d_719_11666)">
<path d="M111.535 175.1C112.375 174.637 113.294 174.451 114.13 173.975C114.848 173.565 115.554 173.139 116.344 172.991C117.134 172.842 117.952 172.541 118.728 173.269C119.123 173.639 119.435 174.321 119.37 174.941C119.354 175.105 119.317 175.272 119.362 175.426C119.403 175.536 119.458 175.629 119.521 175.698C120.118 176.48 120.526 177.502 120.835 178.556C121.089 179.415 121.508 180.583 121.585 181.468C121.754 183.418 120.388 184.643 119.399 185.305C114.21 188.758 108.559 190.525 102.678 190.536C99.0932 190.544 95.0925 189.654 92.3373 185.718C91.6916 184.796 91.5425 183.63 91.4273 182.414C91.4105 182.309 91.4067 182.204 91.4162 182.105C91.4258 182.006 91.4484 181.916 91.4824 181.842C91.5266 181.787 91.5687 181.727 91.6083 181.662C91.678 181.506 91.6222 181.281 91.5782 181.087C91.5004 180.725 91.4647 180.353 91.4732 179.994C91.4817 179.636 91.5344 179.299 91.6277 179.006C91.8688 178.214 92.0694 176.974 92.5618 176.467C93.0541 175.959 93.8054 176.074 94.3899 176.419C95.011 176.784 95.5817 177.373 96.2104 177.691C97.0288 178.104 97.8779 178.029 98.6996 177.952L104.458 177.39C105.515 177.286 106.573 177.181 107.598 176.893C108.966 176.512 110.255 175.804 111.535 175.1Z" fill="#B94E4F"/>
</g>
<defs>
<filter id="filter0_d_719_11666" x="117.319" y="192.324" width="77.0923" height="43.7635" filterUnits="userSpaceOnUse" color-interpolation-filters="sRGB">
<feFlood flood-opacity="0" result="BackgroundImageFix"/>
<feColorMatrix in="SourceAlpha" type="matrix" values="0 0 0 0 0 0 0 0 0 0 0 0 0 0 0 0 0 0 127 0" result="hardAlpha"/>
<feOffset dx="1" dy="4"/>
<feGaussianBlur stdDeviation="2"/>
<feComposite in2="hardAlpha" operator="out"/>
<feColorMatrix type="matrix" values="0 0 0 0 0 0 0 0 0 0 0 0 0 0 0 0 0 0 0.15 0"/>
<feBlend mode="normal" in2="BackgroundImageFix" result="effect1_dropShadow_719_11666"/>
<feBlend mode="normal" in="SourceGraphic" in2="effect1_dropShadow_719_11666" result="shape"/>
</filter>
<filter id="filter1_d_719_11666" x="180.09" y="326.272" width="56.7937" height="47.022" filterUnits="userSpaceOnUse" color-interpolation-filters="sRGB">
<feFlood flood-opacity="0" result="BackgroundImageFix"/>
<feColorMatrix in="SourceAlpha" type="matrix" values="0 0 0 0 0 0 0 0 0 0 0 0 0 0 0 0 0 0 127 0" result="hardAlpha"/>
<feOffset dy="4"/>
<feGaussianBlur stdDeviation="2"/>
<feComposite in2="hardAlpha" operator="out"/>
<feColorMatrix type="matrix" values="0 0 0 0 0 0 0 0 0 0 0 0 0 0 0 0 0 0 0.1 0"/>
<feBlend mode="normal" in2="BackgroundImageFix" result="effect1_dropShadow_719_11666"/>
<feBlend mode="normal" in="SourceGraphic" in2="effect1_dropShadow_719_11666" result="shape"/>
</filter>
<filter id="filter2_d_719_11666" x="236.674" y="326.272" width="105.587" height="47.022" filterUnits="userSpaceOnUse" color-interpolation-filters="sRGB">
<feFlood flood-opacity="0" result="BackgroundImageFix"/>
<feColorMatrix in="SourceAlpha" type="matrix" values="0 0 0 0 0 0 0 0 0 0 0 0 0 0 0 0 0 0 127 0" result="hardAlpha"/>
<feOffset dy="4"/>
<feGaussianBlur stdDeviation="2"/>
<feComposite in2="hardAlpha" operator="out"/>
<feColorMatrix type="matrix" values="0 0 0 0 0 0 0 0 0 0 0 0 0 0 0 0 0 0 0.1 0"/>
<feBlend mode="normal" in2="BackgroundImageFix" result="effect1_dropShadow_719_11666"/>
<feBlend mode="normal" in="SourceGraphic" in2="effect1_dropShadow_719_11666" result="shape"/>
</filter>
<filter id="filter3_d_719_11666" x="78.8406" y="142.045" width="102.907" height="235.996" filterUnits="userSpaceOnUse" color-interpolation-filters="sRGB">
<feFlood flood-opacity="0" result="BackgroundImageFix"/>
<feColorMatrix in="SourceAlpha" type="matrix" values="0 0 0 0 0 0 0 0 0 0 0 0 0 0 0 0 0 0 127 0" result="hardAlpha"/>
<feOffset dy="4"/>
<feGaussianBlur stdDeviation="2"/>
<feComposite in2="hardAlpha" operator="out"/>
<feColorMatrix type="matrix" values="0 0 0 0 0 0 0 0 0 0 0 0 0 0 0 0 0 0 0.15 0"/>
<feBlend mode="normal" in2="BackgroundImageFix" result="effect1_dropShadow_719_11666"/>
<feBlend mode="normal" in="SourceGraphic" in2="effect1_dropShadow_719_11666" result="shape"/>
</filter>
<filter id="filter4_d_719_11666" x="87.4111" y="172.801" width="38.188" height="25.7351" filterUnits="userSpaceOnUse" color-interpolation-filters="sRGB">
<feFlood flood-opacity="0" result="BackgroundImageFix"/>
<feColorMatrix in="SourceAlpha" type="matrix" values="0 0 0 0 0 0 0 0 0 0 0 0 0 0 0 0 0 0 127 0" result="hardAlpha"/>
<feOffset dy="4"/>
<feGaussianBlur stdDeviation="2"/>
<feComposite in2="hardAlpha" operator="out"/>
<feColorMatrix type="matrix" values="0 0 0 0 0 0 0 0 0 0 0 0 0 0 0 0 0 0 0.15 0"/>
<feBlend mode="normal" in2="BackgroundImageFix" result="effect1_dropShadow_719_11666"/>
<feBlend mode="normal" in="SourceGraphic" in2="effect1_dropShadow_719_11666" result="shape"/>
</filter>
<radialGradient id="paint0_radial_719_11666" cx="0" cy="0" r="1" gradientUnits="userSpaceOnUse" gradientTransform="translate(209.773 374.744) rotate(90) scale(30.2557 209.773)">
<stop stop-color="#397AF6"/>
<stop offset="1" stop-color="#397AF6" stop-opacity="0"/>
</radialGradient>
<radialGradient id="paint1_radial_719_11666" cx="0" cy="0" r="1" gradientUnits="userSpaceOnUse" gradientTransform="translate(373.786 404.311) rotate(90) scale(9.68905 52.1982)">
<stop stop-color="#397AF6"/>
<stop offset="1" stop-color="#397AF6" stop-opacity="0"/>
</radialGradient>
<clipPath id="clip0_719_11666">
<rect width="149" height="200" fill="white" transform="translate(298 214)"/>
</clipPath>
</defs>
</svg>
