<svg width="252" height="57" viewBox="0 0 252 57" fill="none" xmlns="http://www.w3.org/2000/svg">
<g clip-path="url(#clip0_755_22361)">
<path d="M67.8202 46.225L60.6152 15.865H67.9552L70.2552 28.365C70.9252 31.975 71.5552 35.895 72.0552 38.965H72.1452C72.6452 35.67 73.3602 32.02 74.1452 28.275L76.7102 15.845H84.0102L86.4102 28.655C87.0902 32.225 87.5802 35.465 88.0352 38.84H88.1252C88.5752 35.465 89.2502 31.91 89.8802 28.295L92.3552 15.865H99.3552L91.5152 46.225H84.0802L81.5152 33.165C80.9302 30.1 80.4402 27.265 80.0702 23.79H79.9802C79.4402 27.22 78.9502 30.1 78.2252 33.165L75.3452 46.225H67.8202Z" fill="#58595B"/>
<path d="M100.04 31.4599C100.04 28.2149 99.9504 26.0899 99.8604 24.1999H105.76L105.985 28.2549H106.165C107.295 25.0549 109.995 23.7049 112.115 23.7049C112.597 23.6869 113.079 23.7154 113.555 23.7899V30.2599C112.947 30.1438 112.329 30.0852 111.71 30.0849C109.18 30.0849 107.47 31.4349 107.025 33.5499C106.93 34.0543 106.883 34.5667 106.885 35.0799V46.2499H100.04V31.4599Z" fill="#58595B"/>
<path d="M127.75 46.2249L127.345 44.0249H127.21C125.765 45.7799 123.515 46.7249 120.895 46.7249C116.44 46.7249 113.78 43.485 113.78 39.97C113.78 34.25 118.92 31.4949 126.715 31.5399V31.2299C126.715 30.0599 126.08 28.3849 122.715 28.3849C120.577 28.4114 118.481 28.9882 116.63 30.06L115.37 25.6349C118.019 24.311 120.949 23.6488 123.91 23.705C131.25 23.705 133.6 28.035 133.6 33.205V40.86C133.563 42.652 133.667 44.4442 133.91 46.22L127.75 46.2249ZM126.94 35.825C123.335 35.785 120.54 36.63 120.54 39.295C120.54 41.05 121.715 41.905 123.245 41.905C124.028 41.9082 124.792 41.6665 125.43 41.2137C126.069 40.7609 126.55 40.1197 126.805 39.3799C126.894 38.998 126.94 38.6071 126.94 38.2149V35.825Z" fill="#58595B"/>
<path d="M137.575 31.5901C137.575 28.7051 137.485 26.2301 137.39 24.2001H143.34L143.655 27.2651H143.74C145.365 24.9251 147.89 23.7051 151.085 23.7051C155.905 23.7051 160.235 27.8901 160.235 34.9201C160.235 42.9201 155.145 46.7251 150.235 46.7251C147.575 46.7251 145.505 45.6451 144.515 44.2001H144.41V55.1501H137.56L137.575 31.5901ZM144.41 36.7601C144.401 37.245 144.445 37.7294 144.54 38.2051C144.744 39.1165 145.251 39.9322 145.977 40.5202C146.703 41.1082 147.606 41.434 148.54 41.4451C151.515 41.4451 153.275 38.9751 153.275 35.2301C153.275 31.7301 151.695 29.0551 148.63 29.0551C147.655 29.0858 146.719 29.4454 145.975 30.0754C145.23 30.7054 144.721 31.5688 144.53 32.5251C144.441 32.9306 144.401 33.3451 144.41 33.7601V36.7601Z" fill="#58595B"/>
<path d="M163.035 40.2599C164.845 41.2682 166.865 41.84 168.935 41.9299C171.005 41.9299 171.865 41.2049 171.865 40.0849C171.865 38.9649 171.19 38.4199 168.62 37.5599C164.07 36.0249 162.31 33.5599 162.36 30.9349C162.36 26.8449 165.86 23.7299 171.325 23.7299C173.464 23.6956 175.584 24.1255 177.54 24.9899L176.325 29.7249C174.851 28.9389 173.215 28.5043 171.545 28.4549C169.88 28.4549 168.935 29.1349 168.935 30.2599C168.935 31.2899 169.795 31.8399 172.49 32.7849C176.685 34.2199 178.445 36.3399 178.49 39.5849C178.49 43.6799 175.24 46.7049 168.94 46.7049C166.055 46.7049 163.485 46.0749 161.82 45.1749L163.035 40.2599Z" fill="#808284"/>
<path d="M202.95 34.9751C202.95 43.0301 197.23 46.7251 191.325 46.7251C184.885 46.7251 179.935 42.4901 179.935 35.3751C179.935 28.2601 184.615 23.7051 191.685 23.7051C198.445 23.7051 202.95 28.3501 202.95 34.9751ZM187 35.1951C187 38.9851 188.58 41.8201 191.5 41.8201C194.165 41.8201 195.875 39.1551 195.875 35.1951C195.875 31.9101 194.615 28.5751 191.5 28.5751C188.22 28.5751 187 31.9551 187 35.1951Z" fill="#808284"/>
<path d="M227.235 14.26V39.665C227.235 42.165 227.33 44.75 227.415 46.24H221.335L221.02 43H220.91C219.515 45.5 216.86 46.74 214.015 46.74C208.795 46.74 204.605 42.285 204.605 35.43C204.56 27.995 209.195 23.72 214.465 23.72C217.17 23.72 219.29 24.67 220.275 26.195H220.375V14.26H227.235ZM220.41 33.525C220.399 33.1168 220.365 32.7095 220.31 32.305C220.141 31.3645 219.649 30.5125 218.918 29.8963C218.188 29.28 217.265 28.9383 216.31 28.93C213.205 28.93 211.585 31.725 211.585 35.195C211.585 38.925 213.43 41.275 216.27 41.275C217.213 41.2815 218.128 40.9544 218.854 40.3515C219.579 39.7486 220.069 38.9086 220.235 37.98C220.367 37.4673 220.429 36.9393 220.42 36.41L220.41 33.525Z" fill="#808284"/>
<path d="M236.435 24.1999L239.725 35.0149C240.085 36.3149 240.535 37.9399 240.805 39.1099H240.94C241.255 37.9399 241.61 36.2749 241.94 35.0149L244.65 24.1999H251.99L246.855 38.6999C243.705 47.4349 241.585 50.9449 239.105 53.1599C237.238 54.7837 234.937 55.8265 232.485 56.1599L231.045 50.3399C232.101 50.1435 233.109 49.7463 234.015 49.1699C235.179 48.5098 236.156 47.5653 236.855 46.4249C237.07 46.134 237.193 45.786 237.21 45.4249C237.197 45.0307 237.091 44.6452 236.9 44.2999L228.83 24.1599L236.435 24.1999Z" fill="#808284"/>
<path d="M34.7434 14.5362V16.9797L41.0514 14.7471V42.2077C41.0514 45.3278 39.0615 48.5753 36.6497 49.4111L22.6687 54.358C20.253 55.2057 18.2909 53.3511 18.2909 50.2309V49.4907L16.3926 50.1633V50.8996C16.3926 55.3768 19.1784 58.0194 22.6369 56.8056L36.6219 51.8587C40.0803 50.6409 42.91 46.0203 42.9299 41.543V11.6349L34.7434 14.5362Z" fill="#82C341"/>
<path d="M14.518 12.8408C11.0556 14.0347 8.22599 18.6752 8.21007 23.1445V44.9378C8.19017 49.4151 10.9959 52.0617 14.4544 50.8438L28.4354 45.897C31.8978 44.703 34.7274 40.0586 34.7434 35.5813V5.68909L14.518 12.8527" fill="url(#paint0_radial_755_22361)"/>
<path d="M16.4207 29.0903V50.1474L18.319 49.4748V28.4257C18.319 25.3055 20.3089 22.0819 22.7207 21.2342L34.7436 16.9798V14.5362L22.7286 18.7826C19.2702 20.0004 16.4406 24.621 16.4207 29.0903Z" fill="#D7DF22"/>
<path d="M8.21043 41.7301L6.25635 42.4186C3.84061 43.2703 1.87857 41.4117 1.89847 38.2955V16.5022C1.89847 13.386 3.88837 10.1584 6.30012 9.31069L24.6311 2.8276V9.26294L26.5334 8.59035V-0.288574L6.30808 6.87506C2.84566 8.09288 0.0160244 12.7134 0.000105195 17.1827V38.9602C-0.0197938 43.4374 2.78596 46.084 6.24441 44.8662L8.20644 44.1737L8.21043 41.7301Z" fill="#1E6B4C"/>
</g>
<defs>
<radialGradient id="paint0_radial_755_22361" cx="0" cy="0" r="1" gradientUnits="userSpaceOnUse" gradientTransform="translate(29.5617 13.6606) scale(30.0992)">
<stop stop-color="#4BAC48"/>
<stop offset="0.36" stop-color="#369443"/>
<stop offset="1" stop-color="#086137"/>
</radialGradient>
<clipPath id="clip0_755_22361">
<rect width="252" height="57" fill="white"/>
</clipPath>
</defs>
</svg>
