<svg width="237" height="57" viewBox="0 0 237 57" fill="none" xmlns="http://www.w3.org/2000/svg">
<g clip-path="url(#clip0_755_22405)">
<path d="M232.551 0.5H196.038C193.801 0.5 191.988 2.31325 191.988 4.55V21.587C191.988 23.8238 193.801 25.637 196.038 25.637H232.551C234.788 25.637 236.601 23.8238 236.601 21.587V4.55C236.601 2.31325 234.788 0.5 232.551 0.5Z" fill="#7FBA46"/>
<path d="M201.564 15.9169C201.663 17.1859 202.914 17.798 204.345 17.798C205.261 17.8054 206.172 17.6687 207.045 17.393L207.45 19.472C206.299 19.8987 205.077 20.1033 203.85 20.0749C200.502 20.0749 198.576 18.1399 198.576 15.0529C198.576 12.5419 200.133 9.77894 203.571 9.77894C206.757 9.77894 207.972 12.263 207.972 14.702C207.973 15.1094 207.937 15.5161 207.864 15.9169H201.564ZM205.164 13.8199C205.192 13.5727 205.168 13.3224 205.093 13.0849C205.019 12.8475 204.897 12.628 204.734 12.4402C204.57 12.2525 204.37 12.1006 204.145 11.9942C203.92 11.8878 203.676 11.8291 203.427 11.822C202.917 11.8518 202.437 12.075 202.086 12.4463C201.735 12.8176 201.539 13.3089 201.537 13.8199H205.164Z" fill="white"/>
<path d="M219.609 19.49C218.496 19.9185 217.309 20.1175 216.117 20.0749C211.41 20.0749 208.989 17.1499 208.989 13.2709C208.989 8.62693 212.301 6.07093 216.414 6.07093C217.563 6.03276 218.707 6.23825 219.771 6.67392L219.141 9.12195C218.322 8.78358 217.444 8.61223 216.558 8.61795C214.119 8.61795 212.22 10.0849 212.22 13.1179C212.22 15.8179 213.831 17.5549 216.576 17.5549C217.45 17.555 218.317 17.4059 219.141 17.114L219.609 19.49Z" fill="white"/>
<path d="M229.95 14.8279C230.003 15.5309 229.904 16.237 229.662 16.899C229.419 17.5609 229.038 18.1635 228.544 18.6662C228.05 19.1689 227.454 19.5603 226.796 19.8141C226.138 20.0679 225.434 20.1783 224.73 20.1379C224.051 20.1768 223.371 20.0721 222.735 19.8306C222.099 19.5892 221.521 19.2164 221.039 18.7367C220.557 18.2569 220.181 17.6809 219.936 17.0462C219.691 16.4115 219.583 15.7323 219.618 15.0529C219.574 14.3509 219.681 13.6476 219.931 12.9901C220.181 12.3326 220.568 11.7363 221.068 11.241C221.567 10.7458 222.167 10.3631 222.827 10.1187C223.486 9.87426 224.19 9.77374 224.892 9.82391C225.561 9.78817 226.23 9.89271 226.856 10.1308C227.483 10.3689 228.052 10.7353 228.529 11.2065C229.005 11.6777 229.377 12.2433 229.622 12.867C229.867 13.4906 229.979 14.1585 229.95 14.8279ZM222.804 14.9269C222.804 16.6279 223.506 17.8969 224.82 17.8969C226.134 17.8969 226.782 16.6999 226.782 14.9269C226.782 13.4509 226.215 11.9569 224.82 11.9569C223.425 11.9569 222.804 13.4779 222.804 14.9269Z" fill="white"/>
<path d="M7.05602 47.219L0 17.438H7.2L9.45 29.705C10.107 33.242 10.728 37.0849 11.25 40.0909H11.34C11.817 36.8599 12.528 33.287 13.284 29.615L15.75 17.438H22.905L25.281 30.0379C25.947 33.5299 26.433 36.707 26.874 40.01H26.964C27.405 36.707 28.071 33.2149 28.683 29.6779L31.104 17.501H37.953L30.276 47.2459H22.986L20.475 34.448C19.899 31.451 19.422 28.67 19.062 25.268H18.972C18.441 28.625 17.964 31.451 17.253 34.448L14.427 47.2459L7.05602 47.219Z" fill="#58595B"/>
<path d="M38.6192 32.738C38.6192 29.552 38.5382 27.473 38.4482 25.619H44.2263L44.4513 29.597H44.6223C45.0071 28.3382 45.7766 27.2316 46.8226 26.4326C47.8686 25.6335 49.1386 25.1822 50.4542 25.142C50.9267 25.1248 51.3998 25.1519 51.8672 25.223V31.523C51.275 31.4012 50.6718 31.3409 50.0672 31.343C47.5922 31.343 45.9182 32.6659 45.4772 34.7359C45.3844 35.2315 45.3393 35.7348 45.3422 36.239V47.1829H38.6283L38.6192 32.738Z" fill="#58595B"/>
<path d="M65.772 47.219L65.376 45.068H65.241C64.472 45.9405 63.5177 46.6301 62.448 47.0864C61.3782 47.5426 60.2199 47.754 59.058 47.705C58.1599 47.754 57.2612 47.6191 56.4171 47.3086C55.573 46.998 54.8012 46.5184 54.149 45.899C53.4968 45.2797 52.978 44.5337 52.6242 43.7068C52.2705 42.8798 52.0894 41.9894 52.0919 41.09C52.0919 35.483 57.123 32.7829 64.755 32.8369V32.531C64.755 31.379 64.134 29.7409 60.822 29.7409C58.7284 29.7672 56.6767 30.3313 54.864 31.3789L53.631 27.0499C56.2316 25.7471 59.1108 25.0984 62.0189 25.16C69.2189 25.16 71.514 29.3989 71.514 34.4659V41.9629C71.4756 43.7203 71.578 45.4779 71.82 47.219H65.772ZM64.98 37.031C61.452 37.031 58.68 37.8229 58.68 40.4329C58.6561 40.7873 58.7108 41.1426 58.8402 41.4734C58.9696 41.8042 59.1704 42.1023 59.4283 42.3465C59.6862 42.5907 59.9949 42.7748 60.3323 42.8859C60.6697 42.997 61.0274 43.0322 61.38 42.989C62.1465 42.9927 62.8949 42.7559 63.5197 42.3119C64.1445 41.8679 64.6144 41.2391 64.8629 40.514C64.9548 40.14 65.0001 39.756 64.9979 39.3709L64.98 37.031Z" fill="#58595B"/>
<path d="M75.402 32.8819C75.402 30.0559 75.312 27.6259 75.222 25.6819H81.045L81.351 28.6879H81.441C82.2493 27.5465 83.3336 26.6285 84.5926 26.0194C85.8516 25.4104 87.2444 25.1302 88.641 25.2049C93.366 25.2049 97.641 29.2999 97.641 36.1849C97.641 44.0509 92.655 47.7499 87.849 47.7499C86.7847 47.815 85.7203 47.6243 84.7448 47.1937C83.7693 46.7631 82.9112 46.1051 82.242 45.2749H82.152V56.0119H75.447L75.402 32.8819ZM82.107 37.9579C82.1007 38.4324 82.1459 38.9062 82.242 39.3709C82.4383 40.2606 82.9288 41.0581 83.6343 41.6346C84.3398 42.2111 85.2191 42.5329 86.13 42.548C89.046 42.548 90.765 40.1269 90.765 36.4549C90.765 33.0079 89.226 30.4069 86.22 30.4069C85.2646 30.4357 84.3473 30.7879 83.6181 31.406C82.8889 32.024 82.3911 32.8712 82.2061 33.8089C82.1147 34.1983 82.0694 34.597 82.071 34.9969L82.107 37.9579Z" fill="#58595B"/>
<path d="M100.341 41.351C102.114 42.3381 104.092 42.899 106.119 42.989C108.153 42.989 108.99 42.278 108.99 41.189C108.99 40.1 108.333 39.56 105.813 38.714C101.358 37.211 99.63 34.781 99.684 32.225C99.684 28.211 103.122 25.169 108.468 25.169C110.56 25.1348 112.636 25.5523 114.552 26.393L113.364 31.037C111.921 30.2669 110.319 29.8418 108.684 29.795C107.046 29.795 106.119 30.461 106.119 31.595C106.119 32.729 106.965 33.1339 109.611 34.0609C113.715 35.4739 115.443 37.544 115.479 40.73C115.479 44.735 112.302 47.705 106.119 47.705C103.711 47.7593 101.324 47.2443 99.153 46.202L100.341 41.351Z" fill="#808082"/>
<path d="M139.455 36.194C139.455 44.087 133.848 47.705 128.061 47.705C121.761 47.705 116.901 43.556 116.901 36.59C116.901 29.624 121.482 25.16 128.412 25.16C135.036 25.16 139.455 29.705 139.455 36.194ZM123.822 36.41C123.822 40.127 125.37 42.908 128.241 42.908C130.842 42.908 132.525 40.289 132.525 36.41C132.525 33.188 131.283 29.921 128.241 29.921C125.019 29.921 123.822 33.233 123.822 36.41Z" fill="#808082"/>
<path d="M163.242 15.89V40.7749C163.242 43.2139 163.332 45.761 163.422 47.219H157.464L157.158 44.042H157.068C156.375 45.2038 155.381 46.1572 154.192 46.8019C153.002 47.4465 151.661 47.7585 150.309 47.705C145.197 47.705 141.093 43.349 141.093 36.626C141.048 29.345 145.593 25.16 150.75 25.16C153.405 25.16 155.475 26.06 156.447 27.581H156.537V15.881L163.242 15.89ZM156.537 34.79C156.529 34.3926 156.499 33.996 156.447 33.602C156.279 32.6784 155.795 31.8423 155.077 31.2377C154.359 30.6331 153.452 30.2979 152.514 30.29C149.472 30.29 147.888 32.9899 147.888 36.4279C147.888 40.0819 149.688 42.3859 152.478 42.3859C153.401 42.3888 154.295 42.068 155.005 41.4792C155.716 40.8905 156.197 40.0711 156.366 39.164C156.49 38.6577 156.548 38.1372 156.537 37.6159V34.79Z" fill="#808082"/>
<path d="M172.26 25.6369L175.482 36.239C175.833 37.508 176.274 39.101 176.535 40.244H176.67C176.985 39.101 177.327 37.472 177.633 36.239L180.333 25.6369H187.533L182.43 39.8569C179.343 48.4159 177.273 51.854 174.843 54.023C173.014 55.6205 170.759 56.6496 168.354 56.984L166.941 51.2779C167.977 51.0872 168.967 50.6992 169.857 50.135C170.995 49.4816 171.951 48.5533 172.638 47.435C172.848 47.1522 172.97 46.8143 172.989 46.463C172.975 46.078 172.87 45.7018 172.683 45.365L164.772 25.6279L172.26 25.6369Z" fill="#808082"/>
</g>
<defs>
<clipPath id="clip0_755_22405">
<rect width="236.601" height="56.475" fill="white" transform="translate(0 0.5)"/>
</clipPath>
</defs>
</svg>
